<?xml version="1.0" encoding="UTF-8"?><svg id="Layer_2" xmlns="http://www.w3.org/2000/svg" xmlns:xlink="http://www.w3.org/1999/xlink" viewBox="0 0 2560.67 940.33"><defs><style>.cls-1{opacity:.85;}.cls-2{fill:#722217;}.cls-2,.cls-3,.cls-4,.cls-5,.cls-6,.cls-7,.cls-8,.cls-9,.cls-10,.cls-11,.cls-12,.cls-13,.cls-14,.cls-15,.cls-16,.cls-17,.cls-18,.cls-19,.cls-20,.cls-21,.cls-22,.cls-23,.cls-24{stroke-width:0px;}.cls-3{fill:#ce6b28;}.cls-4{fill:#e5e5e5;}.cls-6{fill:#022b0c;}.cls-7{fill:#211010;}.cls-8{fill:#e09b7c;}.cls-9{fill:#052d07;}.cls-10{fill:#fff;}.cls-11{fill:#a0a0a0;}.cls-12{fill:#8c2a20;}.cls-13{fill:#01240b;}.cls-14{fill:#002b69;}.cls-15{fill:#9b3a2f;}.cls-16{fill:#e9a684;}.cls-17{fill:#b74d44;}.cls-18{fill:#a13941;}.cls-19{fill:#e5a87a;}.cls-20{fill:url(#linear-gradient);opacity:.36;}.cls-21{fill:#f4bc8e;}.cls-22{fill:#d7af80;}.cls-23{fill:#8d3c43;}.cls-24{fill:#471910;}</style><linearGradient id="linear-gradient" x1="545.58" y1="1134.78" x2="1443.48" y2="297.57" gradientUnits="userSpaceOnUse"><stop offset=".04" stop-color="#ffdfc0"/><stop offset=".28" stop-color="#f8d6b5"/><stop offset=".7" stop-color="#e6c198"/><stop offset="1" stop-color="#d7af80"/></linearGradient></defs><g id="Layer_4"><rect class="cls-20" width="2560" height="900"/><path class="cls-22" d="M1011.53,693.03l-10.05-29.35c-66.2-4.57-41.05-68.77-41.05-68.77l-19.25-18.98c-61.89,29.53-70.26-35.99-70.26-35.99l-30.68-8.3c-52.53,53.56-79.42,1.69-79.42,1.69l-28.42,9.73c-6.47,68.87-67.13,40.7-67.13,40.7l-19.42,19.42c31.43,55.38-39.13,67.84-39.13,67.84l-5.94,30.92c54.93,39.56-1.09,76.51-1.09,76.51l10.22,29.85c71.44,3.33,40.82,66.06,40.82,66.06l23.49,18.08c65.3-21.24,66.16,37.92,66.16,37.92l28.98,8.65c47.62-52.99,80.08-1.08,80.08-1.08l28.92-9.9c5.21-60.94,66.13-40.36,66.13-40.36l21-24.78c-21.28-55.52,36.92-66.06,36.92-66.06l8.31-30.11c-52.23-43.26.79-73.67.79-73.67ZM838.27,834.05c-55.49,19-115.58-9.7-134.2-64.11-18.63-54.4,11.26-113.91,66.75-132.91,55.49-19,115.58,9.7,134.2,64.11,18.63,54.4-11.26,113.91-66.75,132.91Z"/><circle class="cls-10" cx="805.61" cy="735.32" r="108.22" transform="translate(-21.25 23.98) rotate(-1.68)"/><path class="cls-14" d="M789.39,670.1h0c-1.26.31-2.53-.46-2.84-1.71l-2.66-10.81c-.31-1.26.46-2.53,1.71-2.84,1.26-.31,2.53.46,2.83,1.71l2.66,10.81c.31,1.26-.46,2.53-1.71,2.84Z"/><path class="cls-14" d="M825.61,815.9h0c-1.26.31-2.53-.46-2.84-1.71l-2.66-10.8c-.31-1.26.46-2.53,1.71-2.84,1.26-.31,2.53.46,2.84,1.71l2.66,10.81c.31,1.26-.46,2.53-1.71,2.84Z"/><path class="cls-14" d="M870.83,719.1h0c-.31-1.26.46-2.53,1.71-2.84l10.8-2.66c1.26-.31,2.53.46,2.84,1.71.31,1.26-.46,2.53-1.71,2.84l-10.81,2.66c-1.26.31-2.53-.46-2.84-1.71Z"/><path class="cls-14" d="M725.03,755.32h0c-.31-1.26.46-2.53,1.71-2.84l10.81-2.66c1.26-.31,2.53.46,2.84,1.71.31,1.26-.46,2.53-1.71,2.84l-10.81,2.66c-1.26.31-2.53-.46-2.83-1.71Z"/><path class="cls-14" d="M841.81,675.17h0c-1.11-.67-1.46-2.11-.79-3.22l2.93-4.85c.67-1.11,2.11-1.46,3.22-.79,1.11.67,1.46,2.11.79,3.22l-2.93,4.85c-.67,1.11-2.11,1.46-3.22.79Z"/><path class="cls-14" d="M764.01,804.41h0c-1.11-.67-1.46-2.11-.79-3.22l3.63-6c.67-1.11,2.11-1.46,3.22-.79,1.11.67,1.46,2.11.79,3.22l-3.63,6c-.67,1.11-2.11,1.46-3.22.79Z"/><path class="cls-14" d="M865.77,771.58h0c.67-1.11,2.11-1.46,3.22-.79l4.85,2.93c1.11.67,1.46,2.11.79,3.22-.67,1.11-2.11,1.46-3.22.79l-4.85-2.93c-1.11-.67-1.46-2.11-.79-3.22Z"/><path class="cls-14" d="M736.54,693.78h0c.67-1.11,2.11-1.46,3.22-.79l6,3.63c1.11.67,1.46,2.11.79,3.22-.67,1.11-2.11,1.46-3.22.79l-6-3.63c-1.11-.67-1.46-2.11-.79-3.22Z"/><path class="cls-14" d="M805.83,734.71h0c-.74,1.22-2.33,1.61-3.55.87l-38.37-23.3c-1.22-.74-1.61-2.33-.87-3.55.74-1.22,2.33-1.61,3.55-.87l38.37,23.3c1.22.74,1.61,2.33.87,3.55Z"/><path class="cls-14" d="M806.15,737.93h0c-1.22-.74-1.61-2.33-.87-3.55l19.47-32.06c.74-1.22,2.33-1.61,3.55-.87,1.22.74,1.61,2.33.87,3.55l-19.47,32.06c-.74,1.22-2.33,1.61-3.55.87Z"/><path class="cls-14" d="M814.72,733.08c1.24,5.03-1.83,10.11-6.86,11.35-5.03,1.24-10.11-1.83-11.35-6.86-1.24-5.03,1.83-10.11,6.86-11.35,5.03-1.24,10.11,1.83,11.35,6.86Z"/><path class="cls-18" d="M575.18,855.97l3.48-18.31c-32.85-22-1.04-48.11-1.04-48.11l-4.39-15.63c-40.3-2.84-25.4-39.57-25.4-39.57l-13.27-13.41c-42.57,12.49-41.11-22.58-41.11-22.58l-17.38-3.3c-23.5,33.97-46.26,1.46-46.26,1.46l-15.63,4.42c-.2,38.23-39.91,23.91-39.91,23.91l-11.84,14.46c16.46,36.89-22.74,39.72-22.74,39.72l-3.54,18.62c35.22,22.78,1.2,46.53,1.2,46.53l6.56,16.36c39.61,8.18,22.61,39.34,22.61,39.34l12.28,12.88c39.9-13.64,41.24,22.88,41.24,22.88l17.69,3.36c20.56-30.32,45.61-1.38,45.61-1.38l17.99-6.66c5.43-35.31,38.26-23.58,38.26-23.58l13.33-13.22c-13.99-38.03,22.28-38.2,22.28-38.2ZM444.73,878.43c-33.94-6.45-56.22-39.2-49.76-73.13,6.45-33.94,39.2-56.22,73.13-49.76,33.94,6.45,56.22,39.2,49.76,73.13-6.45,33.94-39.2,56.22-73.13,49.76Z"/><path class="cls-10" d="M520.09,818.99c-.96,34.59-29.79,61.86-64.38,60.89-34.59-.96-61.86-29.79-60.89-64.38.96-34.59,29.79-61.86,64.38-60.89,34.59.96,61.86,29.79,60.89,64.38Z"/><path class="cls-14" d="M449.08,779.03h0c-.73.16-1.45-.31-1.61-1.04l-1.37-6.3c-.16-.73.31-1.45,1.04-1.61.73-.16,1.45.31,1.61,1.04l1.37,6.3c.16.73-.31,1.45-1.04,1.61Z"/><path class="cls-14" d="M467.7,864h0c-.73.16-1.45-.31-1.61-1.04l-1.37-6.3c-.16-.73.31-1.45,1.04-1.61.73-.16,1.45.31,1.61,1.04l1.37,6.3c.16.73-.31,1.45-1.04,1.61Z"/><path class="cls-14" d="M495.43,808.7h0c-.16-.73.31-1.45,1.04-1.61l6.3-1.37c.73-.16,1.45.31,1.61,1.04.16.73-.31,1.45-1.04,1.61l-6.3,1.37c-.73.16-1.45-.31-1.61-1.04Z"/><path class="cls-14" d="M410.46,827.32h0c-.16-.73.31-1.45,1.04-1.61l6.3-1.37c.73-.16,1.45.31,1.61,1.04.16.73-.31,1.45-1.04,1.61l-6.3,1.37c-.73.16-1.45-.31-1.61-1.04Z"/><path class="cls-14" d="M479.34,782.81h0c-.63-.41-.81-1.25-.41-1.87l1.78-2.76c.41-.63,1.24-.81,1.87-.41.63.41.81,1.24.41,1.87l-1.78,2.76c-.41.63-1.24.81-1.87.41Z"/><path class="cls-14" d="M432.22,856.36h0c-.63-.41-.81-1.24-.41-1.87l2.2-3.41c.41-.63,1.24-.81,1.87-.41.63.41.81,1.24.41,1.87l-2.2,3.41c-.41.63-1.24.81-1.87.41Z"/><path class="cls-14" d="M491.65,839h0c.41-.63,1.24-.81,1.87-.41l2.76,1.78c.63.41.81,1.24.41,1.87-.41.63-1.25.81-1.87.41l-2.76-1.78c-.63-.41-.81-1.25-.41-1.88Z"/><path class="cls-14" d="M418.11,791.88h0c.41-.63,1.25-.81,1.88-.41l3.41,2.2c.63.41.81,1.25.41,1.88-.41.63-1.24.81-1.87.41l-3.41-2.2c-.63-.41-.81-1.24-.41-1.87Z"/><path class="cls-14" d="M457.56,816.69h0c-.45.69-1.38.89-2.07.44l-21.83-14.11c-.7-.45-.89-1.38-.45-2.07.45-.7,1.38-.89,2.07-.45l21.83,14.11c.7.45.89,1.38.45,2.07Z"/><path class="cls-14" d="M457.69,818.56h0c-.7-.45-.89-1.38-.45-2.07l11.79-18.24c.45-.7,1.38-.89,2.07-.45.7.45.89,1.38.45,2.07l-11.79,18.24c-.45.7-1.38.89-2.07.45Z"/><path class="cls-14" d="M462.72,815.89c.64,2.93-1.22,5.82-4.15,6.46-2.93.64-5.82-1.22-6.46-4.15-.64-2.93,1.22-5.82,4.15-6.46,2.93-.64,5.82,1.22,6.46,4.15Z"/><path class="cls-21" d="M611.22,445.06c-.48.58-1.5,2.03-1.5,2.03l3.47.3,6.82-2.51s1.6-4.46,2.84-5.52c1.24-1.05,2.51-.61,2.51-.61,0,0-2.72,6.06-3.89,10.33-.2.72-1.11,1.22-2.14,2.11-.04.75-.23,1.86-1.51,2.36-.49,1.39-1.6,1.58-3.44,2.24-1.29.46-6.18,2.28-8.02,3.06-1.91.81-4.35,2.17-7.82,3.69l-2.56-6.46c2.86-.89,6.79-2.87,7.12-3.03.69-.33.79-3.17,2.15-4.79,1.37-1.62,6.59-7.42,6.86-8.26.64.04,1.59.42,1.18,2.12-.19.79-1.28,2-2.07,2.95Z"/><path class="cls-21" d="M398.88,524.37s-2.92,6.34-2.85,7.47c.09,1.55.52,2.91.64,4.46.06.8-.16,1.6-.29,2.38-.13.8-.25,1.61-.37,2.41-.04.27-.08.53-.12.8,0,0-.03,3.79.31,5.38.34,1.59.75,4-.9,3.84-1.64-.16-2.5-2.92-2.7-4.85-.2-1.93-1.13-3.67-1.59-2.84-1.25,2.22-2.04,4.91-2.83,7.32-1.21,3.73-2.42,7.74-3.78,5.4-.26-.45-.2-1-.11-1.5.59-3.54,2.05-6.99,2.43-10.57.06-.59-.34-1.02-.77-.31-.44.7-3.37,6.1-4.3,7.84-.55,1.03-1.09,2.08-1.75,3.05-.29.42-.63.91-1.12,1.13-.51.22-1.29.06-1.54-.48-.12-.26-.09-.56-.05-.83.17-1.03.63-2,1.07-2.93.61-1.28,1.31-2.52,1.98-3.77,1.41-2.68,2.61-4.95,2.61-5.52,0-.57-.14-.8-1.02.33-.88,1.14-4.55,6.97-5.12,7.71-.56.74-1.22,1.05-1.68.68-.5-.39-1.43-.76,3.42-8.45.87-1.4,1.83-2.66,1.9-3.09.08-.43-.4-.79-1.26,0-.85.79-3.04,3.25-3.72,3.04-.67-.21-1.46-.59,1.05-3.55,2.52-2.96,4.96-6.3,6.14-7.39,1.17-1.09,3.28-1.78,4.22-2.73.94-.95,4.29-8.53,4.29-8.53l7.81,4.11Z"/><g id="BM1"><path class="cls-7" d="M426.74,682.91c-1.39.58-7.99,9.78-7.99,9.78l-1.16,6.02,17.55,7.59,12.82,5.02,2.69-7.95-14.71-14.24-9.21-6.22Z"/><path class="cls-7" d="M550.03,640.89c.93,1.17,0,0,0,0l7.98,11.62,15.26,5.99-2.85,8.55-34.05-.63-2-3.78s.28-8.06.93-8.31l3.36-15.25,11.37,1.8Z"/><path class="cls-13" d="M509.96,426.42l-21.1-4.82-9.14.24-12.16,3.11-11.21,7.91-1.38,22.72-.73,8.85,2.33,33.49-2.14,22.67-7.68,30.47,8.66,10.15c-11.61,41.59-23.22,83.19-34.83,124.78l22.97,7.69c15.54-38.71,31.08-77.41,46.62-116.12,17.33,4.42,34.67,8.84,52,13.27-3.54,19.28-7.07,38.56-10.61,57.84,9.37.88,18.75,1.77,28.12,2.65,4.95-27.24,9.9-54.48,14.86-81.72-18.34-4.29-36.67-8.58-55.01-12.88l2.44-4.73-1.67-42.59.09-55.38.28-21.23-10.72-6.4Z"/><path class="cls-6" d="M492.17,426.37c9.06,2.03,18.13,4.05,27.19,6.08,11.67,11.94,23.35,23.88,35.02,35.82,14.26-5.96,28.51-11.91,42.77-17.87l.12,17.16c-15.98,6.25-31.96,12.5-47.93,18.75-13.87-13.42-27.74-26.84-41.61-40.26l-15.57-19.67Z"/><polygon class="cls-10" points="600.86 451.73 597.52 451.54 597.2 463.93 600.36 463.4 600.86 451.73"/><polygon class="cls-13" points="509.96 426.42 488.86 421.6 479.73 421.84 467.57 424.95 451.4 431.67 451.44 451.83 449.45 470.11 454.17 497.84 452.02 520.52 446.76 551.07 455.42 561.21 467.07 567.21 474.57 546.01 507.8 545.43 510.88 557.38 519.54 556.74 521.98 552.01 523.07 509.5 523.71 470.5 520.68 432.81 509.96 426.42"/><polygon class="cls-19" points="479.41 427.1 498.45 459.91 507.93 434.2 505.76 427.64 504.69 426.72 506.16 409.11 485.94 407.01 484.22 420.55 479.41 427.1"/><path class="cls-10" d="M500.1,436.11c-16.4,1.28-18.01-12.2-18.01-12.2l1.43-2.42-10.48,6.37,3.99,31.69-2.46,86.46c14.27,1.3,28.66.84,36.5-.64l2.56-45.42.64-38.58.32-19.69-4.7-13.06-4.95-4.87-.25,2.98s3.25,8.78-4.59,9.39Z"/><path class="cls-21" d="M489.63,376.4s-12.7,6.49-16.24,8.96c-10.75,7.5-8.94,13.92-.47,25.79,5.2,7.28,16.24,5.62,16.24,5.62l4.19,3.51c2.93-.48,13.3.22,13.3.22l8.71-5.16-1.85-11.77s-8.83-15.2-9.33-15.76c0,0-3.48-6.36-7.24-9.38-3.01-2.41-7.31-2.02-7.31-2.02Z"/><path class="cls-3" d="M490.42,368.97l-7.8,4.5s-9.67,5.49-12,7.12c-10.42,7.27-8.36,21.06.27,32.26l10.36,7.02,5.9,1.3-1.8-9.63c1.44-1.4,4.84-4.78,4.84-4.78l-7.56-12.65,1.7-8.53,10.94-4.57,2.65-1.71.59-3.58-2.43-4.11-1.23,1.27-4.44-3.93Z"/><path class="cls-21" d="M490.19,405.84c.97,3.45,1.34,5.35-1.76,5.7-1.67.19-3.73.5-6.22-3.59-1.87-3.07-.82-6.75,2.19-7.61,3.01-.86,4.82,2.05,5.79,5.5Z"/></g><polygon class="cls-10" points="386.5 522.79 384.77 526.4 399.9 531.28 401.14 527.51 386.5 522.79"/><polygon class="cls-9" points="453.15 430.98 409.46 471.1 384.71 523.43 401.24 528.43 423.67 485.66 453.6 461.32 459.87 447.56 459.73 438.66 453.15 430.98"/><path class="cls-16" d="M693.22,352.42c.84-.37,2.87-1.1,2.87-1.1l-.78,4.17-5.16,7.19s-5.76.43-7.41,1.54c-1.64,1.11-1.54,2.75-1.54,2.75,0,0,8-1.23,13.4-1.21.92,0,1.8-.91,3.17-1.83.9.2,2.26.34,3.27-1.01,1.8-.13,2.38-1.36,3.75-3.31.96-1.36,4.69-6.53,6.2-8.43,1.58-1.98,3.97-4.41,6.87-7.99l-6.75-5.1c-1.97,3.07-5.57,7.05-5.87,7.39-.61.7-3.98-.1-6.33.97-2.35,1.08-10.87,5.33-11.94,5.37-.16.77-.03,2.01,2.1,2.07,1,.03,2.76-.86,4.14-1.47Z"/><g id="BM1-2"><path class="cls-7" d="M834.26,514.8c-1.2,1.02-4.9,12.34-4.9,12.34l.75,6.4,19.99,2.04,14.44.96.17-8.82-19.25-9.6-11.2-3.31Z"/><path class="cls-7" d="M756.71,506.74c-.98,1.23,0,0,0,0l-8.39,12.21-16.04,6.29,3,8.99,35.79-.66,2.1-3.97s-.29-8.47-.98-8.73l-3.53-16.03-11.95,1.89Z"/><path class="cls-13" d="M780.97,236.57l22.17-5.06,9.6.25,12.78,3.27,11.78,8.32,1.45,23.88.76,9.3-2.44,35.2,2.25,23.83c-.11,10.86-.23,21.73-.34,32.59-1.41,7.2-2.82,14.4-4.23,21.6,8.26,43.78,16.53,87.56,24.79,131.33-10.24.24-20.49.47-30.73.71-8.57-38.45-17.14-76.89-25.71-115.34-9.67,37.8-19.34,75.6-29.01,113.4-9.67-.73-19.34-1.47-29.01-2.2,8.61-48.04,17.21-96.07,25.82-144.11l-2.57-4.97,1.76-44.76-.09-58.2-.3-22.31,11.27-6.72Z"/><path class="cls-6" d="M799.67,236.52c-9.53,2.13-19.05,4.26-28.58,6.39-10.13,16.86-20.27,33.72-30.4,50.57-12.75,15.09-25.49,30.18-38.24,45.27,4.1,5.27,8.2,10.55,12.31,15.82,12.45-14.8,24.91-29.6,37.36-44.39,10.4-17.66,20.8-35.32,31.19-52.99,5.45-6.89,10.91-13.78,16.36-20.68Z"/><path class="cls-13" d="M780.97,236.57l22.17-5.06,9.6.25,12.78,3.27,17,7.06-.05,21.19,2.09,19.2-4.95,29.15,2.25,23.83c1.55,4.49,4.22,10.65,8.93,17.08,4.08,5.56,8.39,9.57,11.82,12.29-4.58,1.7-13,4.15-23.64,3.31-9.42-.74-16.62-3.74-20.82-5.88l-34.92-.61-3.24,12.56c-3.89-1.88-7.78-3.76-11.67-5.65l-1.14-44.68-.68-40.99,3.18-39.6,11.27-6.72Z"/><polygon class="cls-8" points="813.08 237.28 793.07 271.76 783.1 244.74 785.39 237.85 786.51 236.89 784.97 218.38 806.21 216.17 808.03 230.4 813.08 237.28"/><path class="cls-10" d="M791.33,246.75c17.23,1.35,18.93-12.82,18.93-12.82l-1.51-2.54,11.01,6.69-4.19,33.3,2.59,90.86c-15,1.37-30.12.88-38.36-.67l-2.69-47.73-.67-40.55-.34-20.7,4.94-13.73,5.2-5.12.26,3.13s-3.41,9.22,4.82,9.87Z"/><path class="cls-16" d="M769.92,192.66s13.25-7.01,17.51-8.56c12.95-4.71,17.37.71,22.46,15.17,3.12,8.86-4.97,17.36-4.97,17.36l.49,5.73c-2.18,2.23-7.84,11.57-7.84,11.57-8.75,4.65-13.08,2.71-14.39,1.97-2.37-1.33-3.19-3.45-8.2-14.78-1.76-3.98-3.19-7.17-4.03-9.06-.87-1.09-4.27-5.62-3.7-11.89.32-3.55,1.78-6.15,2.68-7.51Z"/><path class="cls-7" d="M755.92,186.09h16.41c1.53-1.65,5.78-5.81,12.67-7.26,7.73-1.63,13.8,1.19,16.04,2.28,9.61,4.64,13.23,13.57,14.07,15.82.7,1.76,3.16,8.59.29,16.41-2.08,5.66-5.89,8.94-7.62,10.26-1.69-4.47-3.37-8.94-5.06-13.4-2.07.39-7.03,1.28-7.03,1.28l-6.31-14.14-8.36-3.69-10.54,6.65-3.07,1.25c-.47.21-5.49,2.34-9.43-.22-4.09-2.65-5.57-9.41-2.05-15.24Z"/><path class="cls-16" d="M794.91,210.92c2.38,2.92,3.8,4.38,5.97,1.93,1.17-1.32,2.68-2.9.67-7.52-1.51-3.46-5.31-4.78-7.87-2.71-2.56,2.06-1.15,5.39,1.23,8.3Z"/></g><polygon class="cls-9" points="840.67 241.37 886.59 283.52 912.6 338.53 895.23 343.78 871.65 298.83 840.2 273.25 833.62 258.79 833.76 249.44 840.67 241.37"/><path class="cls-12" d="M948.04,411.11s-63.68,18.45-65.03,18.34c-1.34-.11-16.28-10.49-16.28-10.49l-1.25-53.13s66.16-12.55,67.29-11.75c1.14.8,16.99,8.22,17.04,8.57.2,1.58-1.77,48.47-1.77,48.47Z"/><path class="cls-2" d="M866.68,418.98l-1.25-53.13s.93-.18,2.56-.48c4.23,2.98,11.5,8.25,11.34,8.44-.21.25,2.91,48.23,3.39,55.6-2.34-.9-16.03-10.42-16.03-10.42Z"/><path class="cls-24" d="M923.49,400.49l-44.76-24.17-13.47-11c2.28-.43,65.8-11,66.91-10.22,1.04.73,14.5,5.72,16.88,7.77l-25.56,37.62Z"/><polygon class="cls-24" points="927.27 390.86 928.67 392.6 927.61 401.42 914.49 404.2 912.6 402.32 911.51 393.19 927.27 390.86"/><path class="cls-15" d="M923.88,398.94l-46.46-23.76-12.09-9.88c2.28-.43,66.11-12.52,67.22-11.74,1.04.73,13.63,6.71,16.02,8.75l-24.7,36.62Z"/><path class="cls-17" d="M949.8,362.84c-4.9.97-70.85,13.56-70.85,13.56l-12.16-9.78-1.54-1.31s66.16-12.55,67.29-11.75c.35.25,2.13.98,4.41,1.92l12.84,7.14c0,.07,0,.14,0,.21Z"/><polygon class="cls-10" points="928.99 391.34 930.4 393.08 929.34 401.91 916.19 404.69 914.29 402.81 913.2 393.67 928.99 391.34"/><path class="cls-4" d="M916.77,395.81s9.24-1.96,12.9-2.44l-.33,8.55-13.15,2.78-.05-.04.63-8.84Z"/><path class="cls-11" d="M917.12,356.38l1.18-.52s.87.33,1.38.98.52,6.95.52,6.95l-3.08-2.29-.58-5.53.58.4Z"/><path class="cls-4" d="M918.3,350.67c3.25.32,4.06,5.22,4.06,5.22l.4,6.93-2.57.98s0-6.31-.52-6.95-1.38-.98-1.38-.98l-1.18.52-.58-.4-10.3-4.3s10.63-1.15,12.07-1.01Z"/><path class="cls-11" d="M911.49,353.88l-.38-.16,3.14-2.83c1.91-.16,3.55-.27,4.05-.22,1.03.1,1.81.66,2.4,1.38-1.75.26-7.24,1.41-9.22,1.83Z"/><path class="cls-11" d="M903.01,354.84l.53,4.24s-2.98.51-3.91.73c-.92.22-1.12,4.95-.82,6.75.29,1.8-3.95,1.26-3.95,1.26l-2.39-3.59s-.65-7.96.14-9.3c.8-1.34,7.21-2.24,7.21-2.24l2.16,1.15,1.04,1Z"/><path class="cls-4" d="M896.19,356.63c.64-1.24,4.38-1.57,6.85-1.6l.5,4.05s-2.98.51-3.91.73c-.92.22-1.12,4.95-.82,6.75.27,1.66-3.28,1.33-3.87,1.27.08-2.1.43-9.62,1.25-11.2Z"/><polygon class="cls-16" points="902.44 341.16 900.23 343.5 897.82 351.64 901.56 359.73 913.8 354.06 911.46 343.27 908.53 339.03 902.44 341.16"/><polygon class="cls-23" points="796.51 248.28 801.6 252.5 799.44 257.75 791.07 257.89 789.16 252.71 794.19 248.31 796.51 248.28"/><polygon class="cls-23" points="799 259.17 791 259.3 787.73 333.48 796.96 348.43 807.84 334.59 799 259.17"/><g class="cls-1"><path class="cls-10" d="M1064.38,281.45c2.6-3.16,3.03-7.7,1.04-11.22-1.99-3.52-6.28-5.83-10.6-5.71,5.17-8.32,1.81-20.16-7.14-25.12-8.94-4.96-21.96-2.21-27.63,5.84-.66-3.6-4.26-6.57-8.25-6.79-3.98-.22-7.95,2.33-9.08,5.84-2.98-1.93-6.43-3.23-10-3.91-10.1-1.94-21.2,1.32-28.18,8.28-6.98,6.96-9.59,17.36-6.62,26.41-1.15-1.97-4.48-1.4-6.42-.05-2.4,1.68-4.17,4.77-2.69,7.18,0,0,76.47-1.02,115-.07"/></g><g class="cls-1"><path class="cls-10" d="M197,178.75c-2.81-10.19-.72-17.38,7.23-24.7,7.95-7.32,22.43-8.28,33.02-5.26-1.3-7.36,2.73-15.3,9.6-18.88,6.86-3.59,16.06-2.56,21.87,2.45-2.51-20.25,13.46-41.02,34.48-44.85,21.01-3.82,43.89,9.88,49.39,29.59,7.33-3.34,16.69-2.1,22.78,3.01,6.1,5.11,8.58,13.8,6.03,21.15,8.64,1.02,16.6,6.37,20.5,13.78,3.91,7.42,3.66,16.69-.65,23.91-59.94.5-197.05.31-204.25-.2"/></g><g class="cls-1"><path class="cls-10" d="M156.63,372.54c1.24-5.05.32-8.61-3.19-12.24-3.5-3.63-9.88-4.11-14.54-2.61.57-3.65-1.2-7.58-4.23-9.36-3.02-1.78-7.07-1.27-9.63,1.21,1.1-10.04-5.93-20.34-15.19-22.23-9.26-1.9-19.33,4.9-21.76,14.67-3.23-1.66-7.35-1.04-10.04,1.49-2.69,2.53-3.78,6.84-2.66,10.49-3.81.51-7.31,3.16-9.03,6.83-1.72,3.68-1.61,8.27.29,11.85,26.4.25,86.8.15,89.97-.1"/></g><path class="cls-18" d="M849.78,937.89c9.63-3.41,19.26-6.81,28.89-10.22,21.95-13.34,43.89-26.67,65.84-40.01,16.16-19.77,32.33-39.55,48.49-59.32,22.23-8.44,44.46-16.89,66.68-25.33l178.03-42.67h166.08l215.15-40,124.56-34,252.89-16,111.35-66,205.71-50,198.16-88,49.07-52v485.67c-232.76,13.44-465.52,26.89-698.28,40.33-265.47-8.33-530.95-16.67-796.42-25-72.06,7.52-144.13,15.04-216.19,22.56Z"/><path class="cls-5" d="M1269.24,164.49h-41.6v-5.01l32.62-44.87h-31.13v-5.79h39.52v5.38l-32.32,44.49h32.92v5.79Z"/><path class="cls-5" d="M1331.43,164.49h-6.09v-20.71c0-3.51-1-6.32-3.01-8.42-2-2.1-4.66-3.15-7.98-3.15s-6.23,1.13-8.37,3.4c-2.14,2.26-3.21,5.24-3.21,8.92v19.96h-6.09v-37.11h5.31l.22,6.01c1.36-2.18,3.15-3.85,5.38-5.01,2.23-1.16,4.85-1.74,7.87-1.74,4.92,0,8.81,1.48,11.67,4.45s4.29,7.04,4.29,12.21v21.19Z"/><path class="cls-5" d="M1372.14,164.49h-5.23l-.41-4.9c-1.36,1.76-3.09,3.14-5.2,4.14-2.1,1-4.45,1.5-7.05,1.5s-5.06-.53-7.16-1.58c-2.1-1.05-3.75-2.49-4.95-4.32-1.2-1.83-1.8-3.91-1.8-6.23,0-2.45.65-4.61,1.95-6.48,1.3-1.87,3.07-3.33,5.31-4.4,2.24-1.06,4.78-1.6,7.63-1.6,1.86,0,3.75.23,5.68.69,1.93.46,3.65,1.08,5.16,1.87v-1.56c0-1.98-.5-3.67-1.48-5.07-.99-1.4-2.31-2.47-3.97-3.23-1.66-.75-3.49-1.13-5.49-1.13-1.73,0-3.5.32-5.31.95-1.81.63-3.54,1.6-5.2,2.91l-2-5.23c2.15-1.39,4.42-2.43,6.79-3.14s4.73-1.06,7.05-1.06c3.22,0,5.99.65,8.33,1.95s4.15,3.14,5.44,5.53c1.29,2.39,1.93,5.21,1.93,8.48v21.89ZM1355.33,159.67c1.9,0,3.65-.4,5.23-1.19,1.58-.79,2.87-1.94,3.86-3.43.99-1.5,1.53-3.27,1.63-5.33v-.63c-1.36-1.06-2.89-1.89-4.58-2.47-1.69-.58-3.42-.87-5.18-.87-2.75,0-5.04.67-6.88,2-1.84,1.34-2.76,3.03-2.76,5.08,0,1.29.38,2.45,1.13,3.49.75,1.04,1.79,1.86,3.1,2.45,1.31.59,2.8.89,4.45.89Z"/><path class="cls-5" d="M1441.65,164.49h-6.09v-19.78c0-3.98-.87-7.08-2.62-9.3-1.74-2.21-4.2-3.32-7.37-3.32s-5.7,1.12-7.51,3.36c-1.82,2.24-2.73,5.33-2.73,9.26v19.78h-6.09v-19.78c0-3.98-.88-7.08-2.63-9.3-1.76-2.21-4.22-3.32-7.38-3.32s-5.7,1.12-7.51,3.36c-1.82,2.24-2.73,5.33-2.73,9.26v19.78h-6.09v-37.11h4.97l.26,6.64c1.24-2.42,2.93-4.26,5.07-5.51,2.14-1.25,4.67-1.87,7.59-1.87,3.12,0,5.78.7,8,2.1,2.21,1.4,3.87,3.4,4.95,5.99,1.21-2.65,2.94-4.66,5.18-6.03,2.24-1.37,4.92-2.06,8.03-2.06,4.63,0,8.23,1.47,10.82,4.4,2.58,2.93,3.88,7.02,3.88,12.26v21.19Z"/><path class="cls-5" d="M1455.6,115.65c-1.04,0-1.91-.36-2.62-1.09-.71-.73-1.06-1.61-1.06-2.65s.35-1.88,1.06-2.6c.71-.72,1.58-1.08,2.62-1.08s1.95.36,2.67,1.08c.72.72,1.08,1.58,1.08,2.6s-.36,1.92-1.08,2.65c-.72.73-1.61,1.09-2.67,1.09ZM1458.64,164.49h-6.09v-37.11h6.09v37.11Z"/><path class="cls-5" d="M1478.94,183.3v-4.86c.4.07.77.12,1.13.15.36.02.71.04,1.06.04,2.57,0,4.65-.92,6.23-2.75,1.58-1.83,2.38-4.29,2.38-7.38v-41.12h6.12v41.34c0,4.8-1.11,8.51-3.32,11.13-2.21,2.62-5.31,3.93-9.3,3.93-.67,0-1.36-.04-2.08-.13-.72-.09-1.46-.2-2.23-.35ZM1492.78,115.65c-1.04,0-1.91-.36-2.62-1.08-.71-.72-1.06-1.6-1.06-2.63s.35-1.92,1.06-2.63c.71-.72,1.58-1.08,2.62-1.08s1.92.36,2.63,1.08c.72.72,1.08,1.6,1.08,2.63s-.36,1.92-1.08,2.63-1.6,1.08-2.63,1.08Z"/><path class="cls-5" d="M1539.87,159.93c-4.6,3.54-9.67,5.31-15.21,5.31-3.86,0-7.32-.87-10.39-2.6-3.07-1.73-5.49-4.09-7.25-7.07-1.77-2.98-2.65-6.35-2.65-10.11s.82-6.83,2.45-9.67c1.63-2.83,3.87-5.07,6.72-6.7,2.84-1.63,6.07-2.45,9.69-2.45s6.98.89,9.82,2.67c2.83,1.78,5.04,4.26,6.62,7.42,1.58,3.17,2.38,6.83,2.38,10.98v1.19h-31.06c.45,2.18,1.34,4.07,2.69,5.68,1.35,1.61,3.02,2.86,5.03,3.75s4.24,1.34,6.72,1.34c4.25,0,8.14-1.4,11.65-4.19l2.82,4.45ZM1510.74,143.71h25.53c-.27-2.3-.98-4.31-2.13-6.03-1.15-1.72-2.63-3.06-4.45-4.03s-3.87-1.45-6.14-1.45-4.37.48-6.22,1.45c-1.84.96-3.34,2.31-4.49,4.03-1.15,1.72-1.85,3.73-2.1,6.03Z"/><path class="cls-5" d="M1547.96,161.26l1.6-5.71c.89.84,1.9,1.57,3.04,2.19,1.14.62,2.34,1.09,3.6,1.43s2.54.5,3.82.5c2.3,0,4.16-.51,5.57-1.52,1.41-1.01,2.12-2.34,2.12-3.97,0-1.19-.37-2.17-1.09-2.95-.73-.78-1.69-1.45-2.88-2.02-1.19-.57-2.46-1.11-3.82-1.63-1.66-.64-3.3-1.37-4.94-2.19s-2.99-1.89-4.06-3.23-1.61-3.09-1.61-5.27.52-3.88,1.56-5.42c1.04-1.53,2.49-2.72,4.36-3.56,1.87-.84,4.01-1.26,6.44-1.26,3.66,0,7.26.92,10.8,2.75l-1.82,5.49c-.79-.52-1.71-.98-2.75-1.39s-2.1-.72-3.19-.95c-1.09-.22-2.12-.33-3.08-.33-1.81,0-3.27.41-4.38,1.24-1.11.83-1.67,1.94-1.67,3.32,0,.79.23,1.52.69,2.17.46.66,1.23,1.31,2.32,1.95,1.09.64,2.6,1.36,4.53,2.15,1.71.69,3.39,1.48,5.05,2.36,1.66.88,3.04,2,4.14,3.38,1.1,1.37,1.65,3.16,1.65,5.36s-.58,4.1-1.73,5.77-2.75,2.98-4.79,3.92-4.4,1.41-7.07,1.41c-4.43,0-8.56-1.32-12.39-3.97Z"/><path class="cls-5" d="M1604,163.6c-2.45,1.09-4.84,1.63-7.16,1.63s-4.18-.49-5.86-1.47c-1.68-.98-2.99-2.35-3.93-4.12-.94-1.77-1.41-3.83-1.41-6.18v-20.63h-6.49v-5.46h6.79v-9.28h5.79v9.28h11.1v5.46h-11.1v19.52c0,2.23.6,4.02,1.8,5.38,1.2,1.36,2.78,2.04,4.73,2.04,1.58,0,3.17-.47,4.75-1.41l1,5.23Z"/><path class="cls-5" d="M1644.71,159.93c-4.6,3.54-9.67,5.31-15.21,5.31-3.86,0-7.32-.87-10.39-2.6-3.07-1.73-5.49-4.09-7.25-7.07-1.77-2.98-2.65-6.35-2.65-10.11s.82-6.83,2.45-9.67c1.63-2.83,3.87-5.07,6.72-6.7,2.84-1.63,6.07-2.45,9.69-2.45s6.98.89,9.82,2.67c2.83,1.78,5.04,4.26,6.62,7.42,1.58,3.17,2.38,6.83,2.38,10.98v1.19h-31.06c.45,2.18,1.34,4.07,2.69,5.68,1.35,1.61,3.02,2.86,5.03,3.75s4.24,1.34,6.72,1.34c4.25,0,8.14-1.4,11.65-4.19l2.82,4.45ZM1615.58,143.71h25.53c-.27-2.3-.98-4.31-2.13-6.03-1.15-1.72-2.63-3.06-4.45-4.03s-3.87-1.45-6.14-1.45-4.37.48-6.22,1.45c-1.84.96-3.34,2.31-4.49,4.03-1.15,1.72-1.85,3.73-2.1,6.03Z"/><path class="cls-5" d="M1653.54,161.26l1.6-5.71c.89.84,1.9,1.57,3.04,2.19,1.14.62,2.34,1.09,3.6,1.43s2.54.5,3.82.5c2.3,0,4.16-.51,5.57-1.52,1.41-1.01,2.12-2.34,2.12-3.97,0-1.19-.37-2.17-1.09-2.95-.73-.78-1.69-1.45-2.88-2.02-1.19-.57-2.46-1.11-3.82-1.63-1.66-.64-3.3-1.37-4.94-2.19s-2.99-1.89-4.06-3.23-1.61-3.09-1.61-5.27.52-3.88,1.56-5.42c1.04-1.53,2.49-2.72,4.36-3.56,1.87-.84,4.01-1.26,6.44-1.26,3.66,0,7.26.92,10.8,2.75l-1.82,5.49c-.79-.52-1.71-.98-2.75-1.39s-2.1-.72-3.19-.95c-1.09-.22-2.12-.33-3.08-.33-1.81,0-3.27.41-4.38,1.24-1.11.83-1.67,1.94-1.67,3.32,0,.79.23,1.52.69,2.17.46.66,1.23,1.31,2.32,1.95,1.09.64,2.6,1.36,4.53,2.15,1.71.69,3.39,1.48,5.05,2.36,1.66.88,3.04,2,4.14,3.38,1.1,1.37,1.65,3.16,1.65,5.36s-.58,4.1-1.73,5.77-2.75,2.98-4.79,3.92-4.4,1.41-7.07,1.41c-4.43,0-8.56-1.32-12.39-3.97ZM1668.5,121.22h-4.42l5.79-12.39h5.83l-7.2,12.39Z"/><path class="cls-18" d="M1229.18,249.44l6.88-32.56-8.02-.49.32-2.35,13.77-4.13,1.05.81-1.7,8.34c5.35-5.1,11.99-9.15,16.93-9.15,3.4,0,5.18,1.86,5.18,5.59,0,2.59-.73,5.26-1.38,7.94l-3.65,15.06c-.57,2.27-.97,3.89-.97,4.7,0,1.13.57,1.7,1.54,1.7,2.02,0,5.1-2.19,8.02-5.83l1.94,1.54c-3.16,4.78-8.42,9.88-14.01,9.88-2.51,0-4.05-1.38-4.05-3.48,0-1.86.49-3.24,1.3-6.56l3.48-14.34c.65-2.75,1.3-5.43,1.3-7.05,0-2.83-1.05-3.73-2.83-3.73-2.92,0-7.53,2.35-13.44,7.21l-2.19,9.88c-1.21,5.67-2.19,11.26-3.24,17.01l-5.43.65-.81-.65Z"/><path class="cls-18" d="M1293.81,245.79c0-1.54.08-2.83.32-4.29-4.7,5.35-9.8,8.99-14.17,8.99-3.89,0-7.69-2.83-7.69-9.56,0-14.09,14.58-31.02,25.03-31.02,1.86,0,3.32.81,4.62,2.19l3.73-3,1.46.73-6.48,28.67c-.49,2.02-.73,3.73-.73,4.62,0,1.13.89,1.78,1.94,1.78,2.02,0,5.1-2.35,7.94-5.83l1.94,1.54c-3.16,4.7-8.26,9.88-13.69,9.88-2.19,0-4.21-1.46-4.21-4.7ZM1283.45,244.9c2.83,0,6.24-1.94,11.58-7.78l4.37-20.33c-1.54-.89-3.24-1.54-4.94-1.54-2.59,0-5.99,1.7-8.91,4.7-3.89,4.05-6.97,10.53-6.97,17.66,0,4.94,1.94,7.29,4.86,7.29Z"/><path class="cls-18" d="M1342.17,219.06c-.4-3.16-1.13-3.56-2.27-3.56-1.54,0-2.92,1.46-5.51,5.35l-1.86-1.3c2.83-6.32,6.32-9.64,9.96-9.64,3.4,0,4.78,1.54,5.43,5.43,1.13,6.72,1.46,17.33,1.46,26.32,5.99-8.67,11.5-18.87,16.6-30.78h3.24c.49,11.02.89,22.03,1.21,31.51,5.43-6.8,9.15-12.31,13.2-19.84.16-.32.32-.57.49-.89l-.65-2.67c-.24-.97-.41-2.59-.41-3.32,0-4.05,2.35-5.75,4.86-5.75,1.3,0,2.19.49,2.67,1.05.32.49.49,1.13.49,2.43,0,1.7-.49,3.89-4.13,10.85-3.81,7.37-10.61,16.85-18.95,25.51l-2.35.24-.57-.41c-.49-8.59-.89-17.17-1.3-25.67-4.13,7.86-10.37,18.47-16.77,25.84l-2.43.24-.57-.41c-.08-13.04-.73-22.35-1.86-30.53Z"/><path class="cls-18" d="M1382.27,264.18c.4-2.35,2.11-3.64,4.37-3.64s4.21,1.13,6.56,2.83l.32.24c2.51-1.7,4.94-3.73,7.21-5.99,1.54-1.54,2.92-3.16,4.29-4.86-.65-9.48-1.62-14.98-3-25.84-1.3-10.29-1.7-11.42-3.16-11.42-1.38,0-2.51.97-5.43,5.35l-1.86-1.3c3.24-6.88,6.88-9.64,10.29-9.64,3.08,0,4.78,1.7,5.75,10.77.97,9.4,1.54,17.74,1.86,25.27,5.67-10.29,8.42-16.28,11.1-25.51,2.67-9.31,3.89-11.02,6.16-11.02,1.86,0,3,1.13,3,2.75,0,2.11-.4,3.32-2.02,6.56-1.7,3.48-3.4,6.88-6.48,12.39-3,5.35-6.4,11.58-10.85,18.3-2.11,3.16-4.29,6.56-7.69,10.21-5.26,5.75-9.96,9.23-14.66,9.23-3.56,0-5.51-1.94-5.75-4.7Z"/><path class="cls-18" d="M1434.83,214.37l5.59-4.45c6.72,1.78,12.55,3.56,19.2,6.4l2.75-5.35,4.45-.97.97.81c-.81,2.02-3.56,5.67-7.69,9.96-6.8,6.97-14.01,12.8-20.73,19.11,6.24,4.7,10.53,5.83,13.85,5.83,2.27,0,4.21-.65,5.99-1.78-1.7-2.02-2.43-3.24-2.43-4.78,0-2.59,1.78-4.13,4.05-4.37,1.7.65,2.67,2.83,2.67,4.78,0,5.91-6.72,11.74-12.96,11.74-4.7,0-8.59-1.86-14.01-8.59l-3.24,6.72-4.62.49-.65-.49c1.62-2.83,3.24-5.35,6.64-8.67,6.97-6.8,14.58-13.12,21.71-20.41-5.59-1.78-10.21-3-16.69-4.45l-3.4,11.02-3.32-.49,1.86-12.07ZM1451.84,194.36c0-2.67,2.19-4.94,4.54-4.94s4.13,1.7,4.13,4.29-2.11,5.02-4.45,5.02-4.21-1.7-4.21-4.37Z"/><path class="cls-18" d="M1467.8,242.47c.4-1.38,1.7-2.27,3-2.27,2.35,0,3.32,1.3,3.89,3.56l.89,3.48c.32.08.73.08,1.13.08,5.59,0,8.91-2.67,8.91-6.88,0-2.59-.65-4.7-5.26-8.02-4.05-3.08-7.13-6.07-7.13-11.18,0-6.32,5.1-11.34,12.88-11.34,4.78,0,8.42,1.86,9.64,7.13-.49,1.54-1.62,2.27-3.08,2.27-1.86,0-3.32-1.38-4.13-3.81l-.73-2.35c-.32-.08-.73-.08-1.13-.08-5.59,0-7.69,3-7.69,6.64,0,3.4,1.38,5.1,5.99,8.5,4.86,3.64,6.56,6.07,6.56,10.77,0,6.72-5.51,11.5-13.69,11.5-6.32,0-9.48-3.16-10.04-8.02Z"/><path class="cls-18" d="M1501.41,214.37l5.59-4.45c6.72,1.78,12.55,3.56,19.2,6.4l2.75-5.35,4.45-.97.97.81c-.81,2.02-3.56,5.67-7.69,9.96-6.8,6.97-14.01,12.8-20.73,19.11,6.24,4.7,10.53,5.83,13.85,5.83,2.27,0,4.21-.65,5.99-1.78-1.7-2.02-2.43-3.24-2.43-4.78,0-2.59,1.78-4.13,4.05-4.37,1.7.65,2.67,2.83,2.67,4.78,0,5.91-6.72,11.74-12.96,11.74-4.7,0-8.59-1.86-14.01-8.59l-3.24,6.72-4.62.49-.65-.49c1.62-2.83,3.24-5.35,6.64-8.67,6.97-6.8,14.58-13.12,21.71-20.41-5.59-1.78-10.21-3-16.69-4.45l-3.4,11.02-3.32-.49,1.86-12.07Z"/><path class="cls-18" d="M1535.84,235.42c0-13.04,9.8-25.51,21.14-25.51,5.18,0,8.1,2.67,8.1,7.45,0,5.18-5.1,12.55-23.57,17.9.32,6.88,3.4,9.64,8.34,9.64s8.75-3.16,10.93-5.91l1.86,1.46c-3.4,5.51-8.67,10.04-14.66,10.04-7.05,0-12.15-4.7-12.15-15.06ZM1541.51,232.1c13.44-3.89,18.14-9.56,18.14-13.93,0-3-1.78-4.78-4.45-4.78-5.02,0-12.88,8.59-13.69,18.71Z"/><path class="cls-18" d="M1558.76,267.25c2.92-1.21,4.94-2.35,6.56-4.37,2.75-3.48,4.86-7.53,6.64-17.33l5.51-28.67-7.94-.49.24-2.35,13.69-4.13,1.05.81-7.13,36.85c-1.54,7.53-4.7,13.69-9.8,17.98-2.59,2.19-5.35,3.48-8.18,3.97l-.65-2.27ZM1580.23,194.36c0-2.67,2.11-4.94,4.45-4.94,2.51,0,4.21,1.7,4.21,4.29s-2.19,5.02-4.54,5.02-4.13-1.7-4.13-4.37Z"/><path class="cls-18" d="M1615.62,249.27c-1.46,6.97-2.35,11.58-3,15.63l7.45,1.22-.65,2.75h-20.49l.57-2.75,6.97-1.13,10.21-48.11-8.02-.49.32-2.35,13.77-4.13,1.05.81-1.94,9.07c4.94-6.16,11.42-9.88,16.04-9.88,3.97,0,7.37,2.67,7.37,9.96,0,13.69-13.36,30.62-25.03,30.62-1.78,0-3.24-.41-4.62-1.21ZM1620.97,223.76l-3.97,18.95c2.19,1.62,4.29,2.27,6.16,2.27,4.05,0,7.78-2.51,10.61-6.16,3.24-4.29,5.26-10.12,5.26-15.71,0-5.26-1.86-7.78-4.94-7.78-3.32,0-7.94,3-13.12,8.42Z"/><path class="cls-18" d="M1650.29,236.23c0-14.58,9.64-26.32,21.14-26.32,7.61,0,13.12,5.02,13.12,14.17,0,14.09-9.4,26.4-20.82,26.4-7.45,0-13.44-5.02-13.44-14.25ZM1677.99,225.3c0-8.75-3.08-12.15-7.45-12.15-7.69,0-13.69,10.04-13.69,22.11,0,8.5,3.32,11.99,7.86,11.99,7.94,0,13.28-11.1,13.28-21.95Z"/><path class="cls-18" d="M1692.81,214.37l5.59-4.45c6.72,1.78,12.55,3.56,19.2,6.4l2.75-5.35,4.46-.97.97.81c-.81,2.02-3.56,5.67-7.69,9.96-6.8,6.97-14.01,12.8-20.73,19.11,6.24,4.7,10.53,5.83,13.85,5.83,2.27,0,4.21-.65,5.99-1.78-1.7-2.02-2.43-3.24-2.43-4.78,0-2.59,1.78-4.13,4.05-4.37,1.7.65,2.67,2.83,2.67,4.78,0,5.91-6.72,11.74-12.96,11.74-4.7,0-8.59-1.86-14.01-8.59l-3.24,6.72-4.62.49-.65-.49c1.62-2.83,3.24-5.35,6.64-8.67,6.97-6.8,14.58-13.12,21.71-20.41-5.59-1.78-10.21-3-16.69-4.45l-3.4,11.02-3.32-.49,1.86-12.07Z"/><path class="cls-18" d="M1716.22,264.18c.41-2.35,2.11-3.64,4.37-3.64s4.21,1.13,6.56,2.83l.32.24c2.51-1.7,4.94-3.73,7.21-5.99,1.54-1.54,2.92-3.16,4.29-4.86-.65-9.48-1.62-14.98-3-25.84-1.3-10.29-1.7-11.42-3.16-11.42-1.38,0-2.51.97-5.43,5.35l-1.86-1.3c3.24-6.88,6.88-9.64,10.29-9.64,3.08,0,4.78,1.7,5.75,10.77.97,9.4,1.54,17.74,1.86,25.27,5.67-10.29,8.42-16.28,11.1-25.51,2.67-9.31,3.89-11.02,6.16-11.02,1.86,0,3,1.13,3,2.75,0,2.11-.4,3.32-2.02,6.56-1.7,3.48-3.4,6.88-6.48,12.39-3,5.35-6.4,11.58-10.85,18.3-2.11,3.16-4.29,6.56-7.69,10.21-5.26,5.75-9.96,9.23-14.66,9.23-3.56,0-5.51-1.94-5.75-4.7Z"/><path class="cls-18" d="M1765.79,235.34c0-13.69,10.61-25.43,20.82-25.43,4.94,0,7.86,2.43,8.75,5.91-.32,2.02-1.94,2.83-3.4,2.83-1.78,0-3.32-1.3-4.78-2.92l-2.43-2.75c-6.97,2.43-12.88,11.5-12.88,21.46,0,7.05,3.65,10.45,8.99,10.45,4.29,0,7.61-3.16,9.88-5.91l1.86,1.46c-3.24,5.67-9.15,10.04-14.74,10.04-7.05,0-12.07-5.02-12.07-15.15Z"/><path class="cls-18" d="M1788.72,267.25c2.92-1.21,4.94-2.35,6.56-4.37,2.75-3.48,4.86-7.53,6.64-17.33l5.51-28.67-7.94-.49.24-2.35,13.69-4.13,1.05.81-7.13,36.85c-1.54,7.53-4.7,13.69-9.8,17.98-2.59,2.19-5.35,3.48-8.18,3.97l-.65-2.27ZM1810.18,194.36c0-2.67,2.11-4.94,4.45-4.94,2.51,0,4.21,1.7,4.21,4.29s-2.19,5.02-4.54,5.02-4.13-1.7-4.13-4.37Z"/><path class="cls-18" d="M1822.74,240.45l4.94-23.57-8.02-.49.32-2.35,13.77-4.13,1.05.81-5.75,27.78c-.4,2.02-.73,3.73-.73,4.62,0,1.13.89,1.78,1.78,1.78,1.94,0,4.54-1.94,7.78-5.83l2.02,1.54c-3.64,4.86-7.86,9.88-13.61,9.88-2.27,0-4.37-1.38-4.37-4.13,0-1.21.16-2.59.81-5.91ZM1830.43,194.36c0-2.67,2.11-4.94,4.45-4.94,2.51,0,4.21,1.7,4.21,4.29s-2.19,5.02-4.54,5.02-4.13-1.7-4.13-4.37Z"/><path class="cls-18" d="M1844.44,245.63c0-3.24,2.67-5.59,5.75-5.59,2.83,0,4.7,2.11,4.7,4.62,0,3.24-2.59,5.59-5.67,5.59-2.75,0-4.78-1.94-4.78-4.62Z"/><path class="cls-5" d="M1229.87,338.33v-30.03h8.87c2.43,0,4.5.37,6.23,1.11s3.04,1.8,3.94,3.17c.91,1.37,1.36,3.02,1.36,4.94s-.45,3.56-1.36,4.94c-.91,1.39-2.22,2.46-3.94,3.2-1.72.75-3.8,1.12-6.23,1.12h-6.23v11.53h-2.64ZM1232.51,324.44h6.03c2.88,0,5.11-.61,6.68-1.84,1.57-1.23,2.35-2.92,2.35-5.06s-.78-3.83-2.35-5.04c-1.57-1.21-3.79-1.82-6.68-1.82h-6.03v13.77Z"/><path class="cls-5" d="M1258.27,338.33h-2.46v-20.02h2.18l.1,4.42c.67-1.55,1.66-2.74,2.97-3.57,1.31-.83,2.85-1.25,4.61-1.25.32,0,.65.02.99.05.34.03.68.08,1.01.15l-.3,2.22c-.65-.13-1.31-.2-1.96-.2-1.39,0-2.62.34-3.7,1.02s-1.93,1.62-2.53,2.81c-.61,1.19-.91,2.57-.91,4.13v10.23Z"/><path class="cls-5" d="M1286.48,338.33h-2.1l-.2-3.34c-.67,1.15-1.6,2.06-2.8,2.73s-2.57,1.01-4.1,1.01c-1.42,0-2.68-.28-3.79-.83s-1.99-1.31-2.63-2.28c-.64-.97-.96-2.07-.96-3.29s.35-2.42,1.04-3.4c.69-.99,1.65-1.76,2.86-2.33,1.21-.57,2.6-.85,4.14-.85,1.08,0,2.16.14,3.22.42,1.07.28,2.02.67,2.86,1.18v-1.36c0-1.21-.27-2.26-.8-3.12-.53-.87-1.26-1.53-2.19-1.99-.93-.46-1.98-.69-3.15-.69-1.01,0-2.03.18-3.04.55-1.01.37-1.96.91-2.84,1.63l-.88-2.12c1.09-.76,2.27-1.34,3.51-1.73,1.25-.39,2.49-.59,3.73-.59,1.67,0,3.11.34,4.31,1.02,1.21.68,2.15,1.65,2.81,2.89.67,1.25,1,2.73,1,4.45v12.05ZM1277.67,336.47c1.16,0,2.21-.25,3.15-.75.94-.5,1.7-1.21,2.27-2.12.57-.91.88-1.97.92-3.15v-.68c-.83-.63-1.73-1.1-2.69-1.43-.97-.33-1.97-.49-3.01-.49-1.7,0-3.1.41-4.21,1.22-1.11.81-1.67,1.86-1.67,3.14,0,.8.23,1.52.69,2.17.46.65,1.09,1.16,1.88,1.53.79.37,1.69.56,2.67.56Z"/><path class="cls-5" d="M1309.14,335.55c-.96,1.01-2.09,1.8-3.39,2.35-1.3.55-2.71.83-4.21.83-1.98,0-3.75-.45-5.32-1.36-1.57-.91-2.81-2.15-3.71-3.72-.91-1.57-1.36-3.35-1.36-5.33s.45-3.77,1.36-5.34c.91-1.57,2.15-2.81,3.71-3.71,1.57-.91,3.34-1.36,5.32-1.36,1.49,0,2.9.27,4.2.82,1.31.55,2.44,1.33,3.38,2.34l-1.5,1.58c-.75-.79-1.64-1.4-2.67-1.83-1.03-.43-2.14-.65-3.31-.65-1.54,0-2.9.35-4.09,1.05s-2.14,1.67-2.82,2.89c-.69,1.23-1.03,2.62-1.03,4.18s.34,2.98,1.03,4.21c.69,1.23,1.63,2.2,2.82,2.9s2.56,1.05,4.09,1.05c1.17,0,2.28-.22,3.32-.65,1.04-.43,1.93-1.04,2.66-1.83l1.52,1.56Z"/><path class="cls-5" d="M1331.93,338.33h-2.18l-.08-3.76c-.71,1.35-1.68,2.38-2.91,3.09-1.23.71-2.71,1.07-4.43,1.07-2.64,0-4.72-.8-6.24-2.41-1.51-1.61-2.27-3.82-2.27-6.64v-11.37h2.46v11.21c0,2.14.58,3.83,1.74,5.07,1.16,1.25,2.73,1.87,4.7,1.87s3.68-.66,4.9-1.97c1.23-1.31,1.84-3.07,1.84-5.26v-10.93h2.46v20.02Z"/><path class="cls-5" d="M1333.15,348.52l.04-1.98c.2.04.4.07.59.08.19.01.38.02.57.02,1.41,0,2.56-.51,3.44-1.54.88-1.03,1.32-2.4,1.32-4.1v-22.68h2.48v22.76c0,2.42-.57,4.3-1.71,5.65-1.14,1.35-2.71,2.02-4.69,2.02-.32,0-.65-.02-.99-.06-.34-.04-.69-.09-1.05-.16ZM1340.33,311.31c-.47,0-.86-.16-1.17-.49-.31-.33-.47-.72-.47-1.19s.16-.86.47-1.18.7-.48,1.17-.48.86.16,1.19.48.49.71.49,1.18-.16.86-.49,1.19c-.33.33-.72.49-1.19.49Z"/><path class="cls-5" d="M1365.68,335.83c-2.46,1.94-5.18,2.9-8.17,2.9-2.07,0-3.92-.46-5.56-1.39-1.64-.93-2.92-2.19-3.85-3.79-.93-1.6-1.4-3.42-1.4-5.45s.44-3.71,1.31-5.25c.87-1.53,2.07-2.74,3.59-3.62s3.25-1.32,5.19-1.32,3.69.46,5.19,1.39c1.49.93,2.66,2.21,3.5,3.84.84,1.64,1.26,3.53,1.26,5.68v.62h-17.38c.16,1.4.62,2.63,1.39,3.68.77,1.05,1.75,1.88,2.95,2.46,1.2.59,2.55.88,4.04.88,2.46,0,4.71-.81,6.77-2.44l1.16,1.8ZM1349.28,327.32h15.15c-.12-1.43-.51-2.68-1.18-3.74-.67-1.07-1.54-1.9-2.63-2.5s-2.33-.9-3.71-.9-2.66.3-3.77.9-2.01,1.44-2.68,2.51c-.67,1.07-1.06,2.32-1.17,3.73Z"/><path class="cls-5" d="M1403.14,338.33h-2.46v-10.87c0-2.31-.52-4.11-1.56-5.4-1.04-1.29-2.5-1.93-4.36-1.93s-3.36.65-4.44,1.95-1.62,3.09-1.62,5.38v10.87h-2.46v-10.87c0-2.31-.52-4.11-1.56-5.4-1.04-1.29-2.5-1.93-4.38-1.93s-3.36.65-4.44,1.95-1.62,3.09-1.62,5.38v10.87h-2.46v-20.02h2.04l.1,3.94c.64-1.43,1.55-2.51,2.73-3.24,1.18-.73,2.59-1.1,4.23-1.1,1.77,0,3.28.43,4.5,1.28,1.23.85,2.11,2.08,2.64,3.66.6-1.61,1.52-2.84,2.75-3.68s2.74-1.26,4.51-1.26c2.48,0,4.41.79,5.8,2.38,1.38,1.59,2.07,3.81,2.07,6.67v11.37Z"/><path class="cls-5" d="M1414.73,348.34h-2.68l4.22-10.21-9.45-19.82h2.72l7.91,16.96,7.03-16.96h2.66l-12.41,30.03Z"/><path class="cls-5" d="M1458.35,335.55c-.96,1.01-2.09,1.8-3.39,2.35-1.3.55-2.71.83-4.21.83-1.98,0-3.75-.45-5.32-1.36-1.57-.91-2.81-2.15-3.71-3.72-.91-1.57-1.36-3.35-1.36-5.33s.45-3.77,1.36-5.34c.91-1.57,2.15-2.81,3.71-3.71,1.57-.91,3.34-1.36,5.32-1.36,1.49,0,2.9.27,4.2.82,1.31.55,2.44,1.33,3.38,2.34l-1.5,1.58c-.75-.79-1.64-1.4-2.67-1.83-1.03-.43-2.14-.65-3.31-.65-1.54,0-2.9.35-4.09,1.05s-2.14,1.67-2.82,2.89c-.69,1.23-1.03,2.62-1.03,4.18s.34,2.98,1.03,4.21c.69,1.23,1.63,2.2,2.82,2.9s2.56,1.05,4.09,1.05c1.17,0,2.28-.22,3.32-.65,1.04-.43,1.93-1.04,2.66-1.83l1.52,1.56Z"/><path class="cls-5" d="M1464.82,311.29c-.47,0-.86-.16-1.17-.49-.31-.33-.47-.72-.47-1.19s.16-.84.47-1.16.7-.48,1.17-.48.88.16,1.21.48c.33.32.49.71.49,1.16s-.16.86-.49,1.19c-.33.33-.73.49-1.21.49ZM1466.06,338.33h-2.46v-20.02h2.46v20.02Z"/><path class="cls-5" d="M1490.24,335.83c-.72.57-1.48,1.05-2.28,1.43s-1.61.71-2.42.99c-1.05.39-1.9,1.02-2.53,1.89-.63.87-.95,1.72-.95,2.55,0,.65.23,1.22.68,1.69.45.47,1.15.75,2.1.83l-.14,1.44c-1.29,0-2.31-.34-3.04-1.02-.73-.68-1.1-1.51-1.1-2.5,0-.88.28-1.72.84-2.52s1.33-1.47,2.3-2c-.53.08-1.07.12-1.62.12-2.07,0-3.92-.46-5.56-1.39-1.64-.93-2.92-2.19-3.85-3.79-.93-1.6-1.4-3.42-1.4-5.45s.44-3.71,1.31-5.25c.87-1.53,2.07-2.74,3.58-3.62,1.51-.88,3.24-1.32,5.17-1.32s3.69.46,5.2,1.39c1.5.93,2.67,2.21,3.51,3.84.84,1.64,1.26,3.53,1.26,5.68v.62h-17.38c.16,1.4.62,2.63,1.38,3.68.76,1.05,1.74,1.88,2.94,2.46,1.2.59,2.54.88,4.02.88,2.48,0,4.75-.81,6.81-2.44l1.16,1.8ZM1473.84,327.32h15.15c-.12-1.43-.51-2.68-1.18-3.74-.67-1.07-1.54-1.9-2.63-2.5s-2.33-.9-3.73-.9-2.66.3-3.76.9c-1.11.6-2,1.44-2.67,2.51-.67,1.07-1.06,2.32-1.17,3.73Z"/><path class="cls-5" d="M1511.98,338.33h-17.28v-1.46l13.13-16.34h-12.51v-2.22h16.2v1.3l-13.27,16.5h13.73v2.22ZM1503.33,313.05c-.43,0-.78-.13-1.05-.4-.27-.27-.41-.61-.41-1.04s.14-.77.41-1.04c.27-.27.62-.4,1.05-.4s.77.13,1.04.4c.27.27.4.61.4,1.04s-.13.77-.4,1.04c-.27.27-.61.4-1.04.4Z"/><path class="cls-5" d="M1519.45,338.33h-2.46v-30.03h2.46v22l1.42-1.72,9.75-10.27h3.08l-8.13,8.63,9.45,11.39h-3.18l-7.97-9.59-4.42,4.7v4.88Z"/><path class="cls-5" d="M1547.84,338.73c-1.98,0-3.75-.45-5.33-1.36-1.58-.91-2.82-2.15-3.72-3.71-.91-1.57-1.36-3.35-1.36-5.34s.45-3.75,1.36-5.32c.91-1.57,2.15-2.81,3.72-3.72,1.57-.91,3.35-1.37,5.33-1.37s3.72.46,5.29,1.37c1.56.91,2.8,2.16,3.7,3.72.91,1.57,1.36,3.34,1.36,5.32s-.45,3.75-1.36,5.33c-.91,1.57-2.14,2.82-3.7,3.72-1.56.91-3.32,1.36-5.29,1.36ZM1547.82,336.51c1.49,0,2.83-.36,4.01-1.08,1.18-.72,2.12-1.7,2.8-2.93.69-1.23,1.03-2.63,1.03-4.19s-.34-2.92-1.03-4.15c-.69-1.23-1.62-2.21-2.8-2.93-1.18-.72-2.52-1.08-4.01-1.08s-2.84.36-4.02,1.08c-1.19.72-2.13,1.7-2.81,2.93-.69,1.23-1.03,2.62-1.03,4.15s.34,2.96,1.03,4.19c.69,1.23,1.62,2.21,2.81,2.93,1.19.72,2.53,1.08,4.02,1.08Z"/><path class="cls-5" d="M1563.63,343.14h-1.84l1.76-8.41h2.32l-2.24,8.41Z"/><path class="cls-5" d="M1245.46,387.53h-2.1l-.2-3.34c-.67,1.15-1.6,2.06-2.8,2.73s-2.57,1.01-4.1,1.01c-1.42,0-2.68-.28-3.79-.83s-1.99-1.31-2.63-2.28c-.64-.97-.96-2.07-.96-3.29s.35-2.42,1.04-3.4c.69-.99,1.65-1.76,2.86-2.33,1.21-.57,2.6-.85,4.14-.85,1.08,0,2.16.14,3.22.42,1.07.28,2.02.67,2.86,1.18v-1.36c0-1.21-.27-2.26-.8-3.12-.53-.87-1.26-1.53-2.19-1.99-.93-.46-1.98-.69-3.15-.69-1.01,0-2.03.18-3.04.55-1.01.37-1.96.91-2.84,1.63l-.88-2.12c1.09-.76,2.27-1.34,3.51-1.73,1.25-.39,2.49-.59,3.73-.59,1.67,0,3.11.34,4.31,1.02,1.21.68,2.15,1.65,2.81,2.89.67,1.25,1,2.73,1,4.45v12.05ZM1236.65,385.67c1.16,0,2.21-.25,3.15-.75.94-.5,1.7-1.21,2.27-2.12.57-.91.88-1.97.92-3.15v-.68c-.83-.63-1.73-1.1-2.69-1.43-.97-.33-1.97-.49-3.01-.49-1.7,0-3.1.41-4.21,1.22-1.11.81-1.67,1.86-1.67,3.14,0,.8.23,1.52.69,2.17.46.65,1.09,1.16,1.88,1.53.79.37,1.69.56,2.67.56Z"/><path class="cls-5" d="M1253.93,387.53h-2.2v-30.03h2.46v13.81c.87-1.29,2.01-2.32,3.42-3.07,1.41-.75,2.99-1.13,4.72-1.13,1.96,0,3.71.45,5.26,1.36,1.54.91,2.76,2.15,3.65,3.71.89,1.57,1.34,3.35,1.34,5.34s-.45,3.75-1.34,5.33c-.89,1.57-2.11,2.82-3.65,3.72-1.54.91-3.29,1.36-5.26,1.36-1.78,0-3.38-.39-4.81-1.18s-2.59-1.84-3.47-3.16l-.12,3.94ZM1262.14,385.71c1.51,0,2.86-.36,4.05-1.07,1.19-.71,2.14-1.69,2.83-2.92.69-1.23,1.04-2.63,1.04-4.17s-.35-2.96-1.04-4.2c-.69-1.24-1.64-2.22-2.83-2.93-1.19-.71-2.55-1.07-4.05-1.07s-2.75.33-3.91.99c-1.17.66-2.11,1.56-2.82,2.7s-1.12,2.44-1.21,3.89v1.18c.09,1.45.49,2.76,1.2,3.9.71,1.15,1.64,2.05,2.81,2.71s2.48.99,3.93.99Z"/><path class="cls-5" d="M1282.3,397.54h-2.68l4.22-10.21-9.45-19.82h2.72l7.91,16.96,7.03-16.96h2.66l-12.41,30.03Z"/><path class="cls-5" d="M1311.99,387.53h-2.46v-20.02h2.18l.1,4.42c.67-1.55,1.66-2.74,2.97-3.57,1.31-.83,2.85-1.25,4.61-1.25.32,0,.65.02.99.05.34.03.68.08,1.01.15l-.3,2.22c-.65-.13-1.31-.2-1.96-.2-1.39,0-2.62.34-3.7,1.02s-1.93,1.62-2.53,2.81c-.61,1.19-.91,2.57-.91,4.13v10.23Z"/><path class="cls-5" d="M1334.01,387.93c-1.98,0-3.75-.45-5.33-1.36-1.58-.91-2.82-2.15-3.72-3.71-.91-1.57-1.36-3.35-1.36-5.34s.45-3.75,1.36-5.32c.91-1.57,2.15-2.81,3.72-3.72,1.57-.91,3.35-1.37,5.33-1.37s3.72.46,5.29,1.37c1.56.91,2.8,2.16,3.7,3.72.91,1.57,1.36,3.34,1.36,5.32s-.45,3.75-1.36,5.33c-.91,1.57-2.14,2.82-3.7,3.72-1.56.91-3.32,1.36-5.29,1.36ZM1333.99,385.71c1.49,0,2.83-.36,4.01-1.08,1.18-.72,2.12-1.7,2.8-2.93.69-1.23,1.03-2.63,1.03-4.19s-.34-2.92-1.03-4.15c-.69-1.23-1.62-2.21-2.8-2.93-1.18-.72-2.52-1.08-4.01-1.08s-2.84.36-4.02,1.08c-1.19.72-2.13,1.7-2.81,2.93-.69,1.23-1.03,2.62-1.03,4.15s.34,2.96,1.03,4.19c.69,1.23,1.62,2.21,2.81,2.93,1.19.72,2.53,1.08,4.02,1.08Z"/><path class="cls-5" d="M1365.02,387.53h-17.26v-1.46l13.13-16.34h-12.51v-2.22h16.2v1.3l-13.27,16.5h13.71v2.22Z"/><path class="cls-5" d="M1390.36,387.53h-2.82l-5.1-16.42-5.1,16.42h-2.8l-6.51-20.02h2.6l5.29,16.9,5.37-16.9h2.32l5.37,16.9,5.31-16.9h2.6l-6.51,20.02Z"/><path class="cls-5" d="M1402.88,360.49c-.47,0-.86-.16-1.17-.49-.31-.33-.47-.72-.47-1.19s.16-.84.47-1.16.7-.48,1.17-.48.88.16,1.21.48c.33.32.49.71.49,1.16s-.16.86-.49,1.19c-.33.33-.73.49-1.21.49ZM1404.12,387.53h-2.46v-20.02h2.46v20.02Z"/><path class="cls-5" d="M1426.52,387.53h-.26c-.96.44-1.75,1.08-2.36,1.91-.61.83-.92,1.65-.92,2.45,0,.68.24,1.25.71,1.71s1.16.73,2.07.81l-.14,1.44c-1.27,0-2.28-.33-3.02-1-.75-.67-1.12-1.51-1.12-2.52,0-.96.34-1.88,1.01-2.74.67-.87,1.58-1.55,2.73-2.06h-.8l-.2-3.34c-.68,1.16-1.62,2.08-2.82,2.74s-2.56,1-4.08,1c-1.42,0-2.68-.28-3.79-.83s-1.99-1.31-2.63-2.28c-.64-.97-.96-2.07-.96-3.29s.35-2.42,1.05-3.41c.7-.99,1.65-1.77,2.86-2.33s2.59-.84,4.13-.84c1.08,0,2.16.14,3.22.42,1.07.28,2.02.67,2.86,1.18v-1.36c0-1.21-.27-2.26-.8-3.12-.53-.87-1.26-1.53-2.19-1.99-.93-.46-1.98-.69-3.15-.69-1.01,0-2.03.18-3.03.54s-1.96.91-2.85,1.64l-.88-2.12c1.09-.76,2.27-1.34,3.51-1.73,1.25-.39,2.49-.59,3.73-.59,1.67,0,3.11.34,4.31,1.02,1.21.68,2.15,1.65,2.81,2.89.67,1.25,1,2.73,1,4.45v12.05ZM1417.67,385.67c1.19,0,2.27-.27,3.23-.81.97-.54,1.73-1.27,2.3-2.2.57-.93.85-1.97.85-3.13v-.56c-.79-.63-1.66-1.1-2.61-1.43-.95-.33-1.97-.49-3.03-.49-1.74,0-3.16.41-4.27,1.22-1.11.81-1.67,1.86-1.67,3.14,0,.8.23,1.52.69,2.17.46.65,1.08,1.16,1.86,1.53.78.37,1.66.56,2.65.56Z"/><path class="cls-5" d="M1448.44,387.53h-17.26v-1.46l13.13-16.34h-12.51v-2.22h16.2v1.3l-13.27,16.5h13.71v2.22Z"/><path class="cls-5" d="M1459.35,397.54h-2.68l4.22-10.21-9.45-19.82h2.72l7.91,16.96,7.03-16.96h2.66l-12.41,30.03Z"/><path class="cls-5" d="M1496.11,387.53h-2.82l-5.1-16.42-5.1,16.42h-2.8l-6.51-20.02h2.6l5.29,16.9,5.37-16.9h2.32l5.37,16.9,5.31-16.9h2.6l-6.51,20.02Z"/><path class="cls-5" d="M1522.01,387.53h-2.1l-.2-3.34c-.67,1.15-1.6,2.06-2.8,2.73s-2.57,1.01-4.1,1.01c-1.42,0-2.68-.28-3.79-.83s-1.99-1.31-2.63-2.28c-.64-.97-.96-2.07-.96-3.29s.35-2.42,1.04-3.4c.69-.99,1.65-1.76,2.86-2.33,1.21-.57,2.6-.85,4.14-.85,1.08,0,2.16.14,3.22.42,1.07.28,2.02.67,2.86,1.18v-1.36c0-1.21-.27-2.26-.8-3.12-.53-.87-1.26-1.53-2.19-1.99-.93-.46-1.98-.69-3.15-.69-1.01,0-2.03.18-3.04.55-1.01.37-1.96.91-2.84,1.63l-.88-2.12c1.09-.76,2.27-1.34,3.51-1.73,1.25-.39,2.49-.59,3.73-.59,1.67,0,3.11.34,4.31,1.02,1.21.68,2.15,1.65,2.81,2.89.67,1.25,1,2.73,1,4.45v12.05ZM1513.2,385.67c1.16,0,2.21-.25,3.15-.75.94-.5,1.7-1.21,2.27-2.12.57-.91.88-1.97.92-3.15v-.68c-.83-.63-1.73-1.1-2.69-1.43-.97-.33-1.97-.49-3.01-.49-1.7,0-3.1.41-4.21,1.22-1.11.81-1.67,1.86-1.67,3.14,0,.8.23,1.52.69,2.17.46.65,1.09,1.16,1.88,1.53.79.37,1.69.56,2.67.56Z"/><path class="cls-5" d="M1544.67,384.75c-.96,1.01-2.09,1.8-3.39,2.35-1.3.55-2.71.83-4.21.83-1.98,0-3.75-.45-5.32-1.36-1.57-.91-2.81-2.15-3.71-3.72-.91-1.57-1.36-3.35-1.36-5.33s.45-3.77,1.36-5.34c.91-1.57,2.15-2.81,3.71-3.71,1.57-.91,3.34-1.36,5.32-1.36,1.49,0,2.9.27,4.2.82,1.31.55,2.44,1.33,3.38,2.34l-1.5,1.58c-.75-.79-1.64-1.4-2.67-1.83-1.03-.43-2.14-.65-3.31-.65-1.54,0-2.9.35-4.09,1.05s-2.14,1.67-2.82,2.89c-.69,1.23-1.03,2.62-1.03,4.18s.34,2.98,1.03,4.21c.69,1.23,1.63,2.2,2.82,2.9s2.56,1.05,4.09,1.05c1.17,0,2.28-.22,3.32-.65,1.04-.43,1.93-1.04,2.66-1.83l1.52,1.56ZM1537.07,364.17h-1.82l3.24-6.67h2.44l-3.86,6.67Z"/><path class="cls-5" d="M1558.55,385.79l.72-2.28c.49.45,1.04.84,1.65,1.16.61.32,1.24.57,1.9.74.66.17,1.33.26,2.01.26,1.36,0,2.47-.33,3.32-1,.85-.67,1.28-1.53,1.28-2.6,0-.76-.21-1.38-.64-1.87-.43-.49-.99-.9-1.68-1.25-.69-.35-1.43-.67-2.2-.98-.89-.35-1.77-.74-2.62-1.17-.85-.43-1.56-1-2.11-1.69-.55-.69-.83-1.61-.83-2.74,0-1.07.26-1.99.79-2.77s1.27-1.39,2.22-1.82c.95-.43,2.06-.65,3.31-.65,1.8,0,3.58.44,5.33,1.32l-.76,2.22c-.41-.25-.88-.48-1.4-.67-.52-.19-1.05-.34-1.6-.45-.55-.11-1.07-.16-1.56-.16-1.13,0-2.05.27-2.74.81-.69.54-1.04,1.25-1.04,2.13,0,.57.16,1.07.47,1.49.31.42.79.81,1.43,1.17s1.44.74,2.4,1.14c.92.37,1.82.8,2.7,1.27.88.47,1.61,1.08,2.19,1.81.58.73.87,1.69.87,2.86s-.3,2.17-.89,3.05c-.59.89-1.41,1.58-2.46,2.07-1.05.49-2.27.74-3.65.74-2.31,0-4.44-.71-6.41-2.14Z"/><path class="cls-5" d="M1579.63,397.54h-2.46v-30.03h2.22l.1,3.84c.87-1.32,2.02-2.36,3.46-3.11,1.44-.75,3.04-1.13,4.78-1.13,1.96,0,3.72.45,5.27,1.36,1.55.91,2.78,2.15,3.68,3.71.9,1.57,1.35,3.35,1.35,5.34s-.45,3.75-1.35,5.33c-.9,1.57-2.13,2.82-3.68,3.72-1.55.91-3.31,1.36-5.27,1.36-1.71,0-3.27-.36-4.68-1.08-1.42-.72-2.56-1.72-3.42-3v13.69ZM1587.6,385.67c1.52,0,2.88-.35,4.07-1.05,1.19-.7,2.13-1.67,2.8-2.9.67-1.23,1.01-2.64,1.01-4.21s-.34-2.98-1.02-4.2c-.68-1.23-1.62-2.2-2.8-2.9-1.19-.71-2.54-1.06-4.06-1.06-1.44,0-2.75.32-3.93.97-1.18.65-2.13,1.54-2.85,2.67-.72,1.13-1.11,2.42-1.18,3.86v1.36c.07,1.44.46,2.73,1.17,3.85.71,1.13,1.66,2.01,2.84,2.65,1.18.64,2.5.96,3.95.96Z"/><path class="cls-5" d="M1611.86,387.93c-1.98,0-3.75-.45-5.33-1.36-1.58-.91-2.82-2.15-3.72-3.71-.91-1.57-1.36-3.35-1.36-5.34s.45-3.75,1.36-5.32c.91-1.57,2.15-2.81,3.72-3.72,1.57-.91,3.35-1.37,5.33-1.37s3.72.46,5.29,1.37c1.56.91,2.8,2.16,3.7,3.72.91,1.57,1.36,3.34,1.36,5.32s-.45,3.75-1.36,5.33c-.91,1.57-2.14,2.82-3.7,3.72-1.56.91-3.32,1.36-5.29,1.36ZM1611.84,385.71c1.49,0,2.83-.36,4.01-1.08,1.18-.72,2.12-1.7,2.8-2.93.69-1.23,1.03-2.63,1.03-4.19s-.34-2.92-1.03-4.15c-.69-1.23-1.62-2.21-2.8-2.93-1.18-.72-2.52-1.08-4.01-1.08s-2.84.36-4.02,1.08c-1.19.72-2.13,1.7-2.81,2.93-.69,1.23-1.03,2.62-1.03,4.15s.34,2.96,1.03,4.19c.69,1.23,1.62,2.21,2.81,2.93,1.19.72,2.53,1.08,4.02,1.08Z"/><path class="cls-5" d="M1629.68,387.53h-2.46v-20.02h2.18l.1,4.42c.67-1.55,1.66-2.74,2.97-3.57,1.31-.83,2.85-1.25,4.61-1.25.32,0,.65.02.99.05.34.03.68.08,1.01.15l-.3,2.22c-.65-.13-1.31-.2-1.96-.2-1.39,0-2.62.34-3.7,1.02s-1.93,1.62-2.53,2.81c-.61,1.19-.91,2.57-.91,4.13v10.23Z"/><path class="cls-5" d="M1648.8,397.54h-2.68l4.22-10.21-9.45-19.82h2.72l7.91,16.96,7.03-16.96h2.66l-12.41,30.03Z"/><path class="cls-5" d="M1696.36,387.53h-2.82l-5.1-16.42-5.1,16.42h-2.8l-6.51-20.02h2.6l5.29,16.9,5.37-16.9h2.32l5.37,16.9,5.31-16.9h2.6l-6.51,20.02Z"/><path class="cls-5" d="M1723.27,384.75c-.96,1.01-2.09,1.8-3.39,2.35-1.3.55-2.71.83-4.21.83-1.98,0-3.75-.45-5.32-1.36-1.57-.91-2.81-2.15-3.71-3.72-.91-1.57-1.36-3.35-1.36-5.33s.45-3.77,1.36-5.34c.91-1.57,2.15-2.81,3.71-3.71,1.57-.91,3.34-1.36,5.32-1.36,1.49,0,2.9.27,4.2.82,1.31.55,2.44,1.33,3.38,2.34l-1.5,1.58c-.75-.79-1.64-1.4-2.67-1.83-1.03-.43-2.14-.65-3.31-.65-1.54,0-2.9.35-4.09,1.05s-2.14,1.67-2.82,2.89c-.69,1.23-1.03,2.62-1.03,4.18s.34,2.98,1.03,4.21c.69,1.23,1.63,2.2,2.82,2.9s2.56,1.05,4.09,1.05c1.17,0,2.28-.22,3.32-.65,1.04-.43,1.93-1.04,2.66-1.83l1.52,1.56Z"/><path class="cls-5" d="M1743.99,387.53h-17.26v-1.46l13.13-16.34h-12.51v-2.22h16.2v1.3l-13.27,16.5h13.71v2.22Z"/><path class="cls-5" d="M1765.77,385.03c-2.46,1.94-5.18,2.9-8.17,2.9-2.07,0-3.92-.46-5.56-1.39-1.64-.93-2.92-2.19-3.85-3.79-.93-1.6-1.4-3.42-1.4-5.45s.44-3.71,1.31-5.25c.87-1.53,2.07-2.74,3.59-3.62s3.25-1.32,5.19-1.32,3.69.46,5.19,1.39c1.49.93,2.66,2.21,3.5,3.84.84,1.64,1.26,3.53,1.26,5.68v.62h-17.38c.16,1.4.62,2.63,1.39,3.68.77,1.05,1.75,1.88,2.95,2.46,1.2.59,2.55.88,4.04.88,2.46,0,4.71-.81,6.77-2.44l1.16,1.8ZM1749.37,376.52h15.15c-.12-1.43-.51-2.68-1.18-3.74-.67-1.07-1.54-1.9-2.63-2.5s-2.33-.9-3.71-.9-2.66.3-3.77.9-2.01,1.44-2.68,2.51c-.67,1.07-1.06,2.32-1.17,3.73Z"/><path class="cls-5" d="M1770.83,385.79l.72-2.28c.49.45,1.04.84,1.65,1.16.61.32,1.24.57,1.9.74.66.17,1.33.26,2.01.26,1.36,0,2.47-.33,3.32-1,.85-.67,1.28-1.53,1.28-2.6,0-.76-.21-1.38-.64-1.87-.43-.49-.99-.9-1.68-1.25-.69-.35-1.43-.67-2.2-.98-.89-.35-1.77-.74-2.62-1.17-.85-.43-1.56-1-2.11-1.69-.55-.69-.83-1.61-.83-2.74,0-1.07.26-1.99.79-2.77s1.27-1.39,2.22-1.82c.95-.43,2.06-.65,3.31-.65,1.8,0,3.58.44,5.33,1.32l-.76,2.22c-.41-.25-.88-.48-1.4-.67-.52-.19-1.05-.34-1.6-.45-.55-.11-1.07-.16-1.56-.16-1.13,0-2.05.27-2.74.81-.69.54-1.04,1.25-1.04,2.13,0,.57.16,1.07.47,1.49.31.42.79.81,1.43,1.17s1.44.74,2.4,1.14c.92.37,1.82.8,2.7,1.27.88.47,1.61,1.08,2.19,1.81.58.73.87,1.69.87,2.86s-.3,2.17-.89,3.05c-.59.89-1.41,1.58-2.46,2.07-1.05.49-2.27.74-3.65.74-2.31,0-4.44-.71-6.41-2.14ZM1778.32,364.17h-1.8l3.22-6.67h2.44l-3.86,6.67Z"/><path class="cls-5" d="M1807.69,387.53h-2.46v-11.21c0-2.14-.59-3.83-1.76-5.07-1.17-1.25-2.76-1.87-4.74-1.87s-3.7.66-4.94,1.97c-1.24,1.31-1.86,3.07-1.86,5.26v10.93h-2.46v-20.02h2.18l.08,3.76c.69-1.35,1.67-2.38,2.92-3.09,1.25-.71,2.75-1.07,4.48-1.07,2.67,0,4.76.8,6.29,2.4s2.28,3.82,2.28,6.65v11.37Z"/><path class="cls-5" d="M1815.3,360.49c-.47,0-.86-.16-1.17-.49-.31-.33-.47-.72-.47-1.19s.16-.84.47-1.16.7-.48,1.17-.48.88.16,1.21.48c.33.32.49.71.49,1.16s-.16.86-.49,1.19c-.33.33-.73.49-1.21.49ZM1816.54,387.53h-2.46v-20.02h2.46v20.02Z"/><path class="cls-5" d="M1840.72,385.03c-2.46,1.94-5.18,2.9-8.17,2.9-2.07,0-3.92-.46-5.56-1.39-1.64-.93-2.92-2.19-3.85-3.79-.93-1.6-1.4-3.42-1.4-5.45s.44-3.71,1.31-5.25c.87-1.53,2.07-2.74,3.59-3.62s3.25-1.32,5.19-1.32,3.69.46,5.19,1.39c1.49.93,2.66,2.21,3.5,3.84.84,1.64,1.26,3.53,1.26,5.68v.62h-17.38c.16,1.4.62,2.63,1.39,3.68.77,1.05,1.75,1.88,2.95,2.46,1.2.59,2.55.88,4.04.88,2.46,0,4.71-.81,6.77-2.44l1.16,1.8ZM1824.33,376.52h15.15c-.12-1.43-.51-2.68-1.18-3.74-.67-1.07-1.54-1.9-2.63-2.5s-2.33-.9-3.71-.9-2.66.3-3.77.9-2.01,1.44-2.68,2.51c-.67,1.07-1.06,2.32-1.17,3.73Z"/><path class="cls-5" d="M1858.4,360.49c-.47,0-.86-.16-1.17-.49-.31-.33-.47-.72-.47-1.19s.16-.84.47-1.16.7-.48,1.17-.48.88.16,1.21.48c.33.32.49.71.49,1.16s-.16.86-.49,1.19c-.33.33-.73.49-1.21.49ZM1859.64,387.53h-2.46v-20.02h2.46v20.02Z"/><path class="cls-5" d="M1879.12,397.54h-2.46v-30.03h2.22l.1,3.84c.87-1.32,2.02-2.36,3.46-3.11,1.44-.75,3.04-1.13,4.78-1.13,1.96,0,3.72.45,5.27,1.36,1.55.91,2.78,2.15,3.68,3.71.9,1.57,1.35,3.35,1.35,5.34s-.45,3.75-1.35,5.33c-.9,1.57-2.13,2.82-3.68,3.72-1.55.91-3.31,1.36-5.27,1.36-1.71,0-3.27-.36-4.68-1.08-1.42-.72-2.56-1.72-3.42-3v13.69ZM1887.09,385.67c1.52,0,2.88-.35,4.07-1.05,1.19-.7,2.13-1.67,2.8-2.9.67-1.23,1.01-2.64,1.01-4.21s-.34-2.98-1.02-4.2c-.68-1.23-1.62-2.2-2.8-2.9-1.19-.71-2.54-1.06-4.06-1.06-1.44,0-2.75.32-3.93.97-1.18.65-2.13,1.54-2.85,2.67-.72,1.13-1.11,2.42-1.18,3.86v1.36c.07,1.44.46,2.73,1.17,3.85.71,1.13,1.66,2.01,2.84,2.65,1.18.64,2.5.96,3.95.96Z"/><path class="cls-5" d="M1911.35,387.93c-1.98,0-3.75-.45-5.33-1.36-1.58-.91-2.82-2.15-3.72-3.71-.91-1.57-1.36-3.35-1.36-5.34s.45-3.75,1.36-5.32c.91-1.57,2.15-2.81,3.72-3.72,1.57-.91,3.35-1.37,5.33-1.37s3.72.46,5.29,1.37c1.56.91,2.8,2.16,3.7,3.72.91,1.57,1.36,3.34,1.36,5.32s-.45,3.75-1.36,5.33c-.91,1.57-2.14,2.82-3.7,3.72-1.56.91-3.32,1.36-5.29,1.36ZM1911.33,385.71c1.49,0,2.83-.36,4.01-1.08,1.18-.72,2.12-1.7,2.8-2.93.69-1.23,1.03-2.63,1.03-4.19s-.34-2.92-1.03-4.15c-.69-1.23-1.62-2.21-2.8-2.93-1.18-.72-2.52-1.08-4.01-1.08s-2.84.36-4.02,1.08c-1.19.72-2.13,1.7-2.81,2.93-.69,1.23-1.03,2.62-1.03,4.15s.34,2.96,1.03,4.19c.69,1.23,1.62,2.21,2.81,2.93,1.19.72,2.53,1.08,4.02,1.08Z"/><path class="cls-5" d="M1929.29,387.53h-2.58v-30.83h2.58v30.83Z"/><path class="cls-5" d="M1953.61,387.53h-2.18l-.08-3.76c-.71,1.35-1.68,2.38-2.91,3.09-1.23.71-2.71,1.07-4.43,1.07-2.64,0-4.72-.8-6.24-2.41-1.51-1.61-2.27-3.82-2.27-6.64v-11.37h2.46v11.21c0,2.14.58,3.83,1.74,5.07,1.16,1.25,2.73,1.87,4.7,1.87s3.68-.66,4.9-1.97c1.23-1.31,1.84-3.07,1.84-5.26v-10.93h2.46v20.02Z"/><path class="cls-5" d="M1962.42,387.53h-2.2v-30.03h2.46v13.81c.87-1.29,2.01-2.32,3.42-3.07,1.41-.75,2.99-1.13,4.72-1.13,1.96,0,3.71.45,5.26,1.36,1.54.91,2.76,2.15,3.65,3.71.89,1.57,1.34,3.35,1.34,5.34s-.45,3.75-1.34,5.33c-.89,1.57-2.11,2.82-3.65,3.72-1.54.91-3.29,1.36-5.26,1.36-1.78,0-3.38-.39-4.81-1.18s-2.59-1.84-3.47-3.16l-.12,3.94ZM1970.63,385.71c1.51,0,2.86-.36,4.05-1.07,1.19-.71,2.14-1.69,2.83-2.92.69-1.23,1.04-2.63,1.04-4.17s-.35-2.96-1.04-4.2c-.69-1.24-1.64-2.22-2.83-2.93-1.19-.71-2.55-1.07-4.05-1.07s-2.75.33-3.91.99c-1.17.66-2.11,1.56-2.82,2.7s-1.12,2.44-1.21,3.89v1.18c.09,1.45.49,2.76,1.2,3.9.71,1.15,1.64,2.05,2.81,2.71s2.48.99,3.93.99Z"/><path class="cls-5" d="M1994.89,387.93c-1.98,0-3.75-.45-5.33-1.36-1.58-.91-2.82-2.15-3.72-3.71-.91-1.57-1.36-3.35-1.36-5.34s.45-3.75,1.36-5.32c.91-1.57,2.15-2.81,3.72-3.72,1.57-.91,3.35-1.37,5.33-1.37s3.72.46,5.29,1.37c1.56.91,2.8,2.16,3.7,3.72.91,1.57,1.36,3.34,1.36,5.32s-.45,3.75-1.36,5.33c-.91,1.57-2.14,2.82-3.7,3.72-1.56.91-3.32,1.36-5.29,1.36ZM1994.87,385.71c1.49,0,2.83-.36,4.01-1.08,1.18-.72,2.12-1.7,2.8-2.93.69-1.23,1.03-2.63,1.03-4.19s-.34-2.92-1.03-4.15c-.69-1.23-1.62-2.21-2.8-2.93-1.18-.72-2.52-1.08-4.01-1.08s-2.84.36-4.02,1.08c-1.19.72-2.13,1.7-2.81,2.93-.69,1.23-1.03,2.62-1.03,4.15s.34,2.96,1.03,4.19c.69,1.23,1.62,2.21,2.81,2.93,1.19.72,2.53,1.08,4.02,1.08Z"/><path class="cls-5" d="M2030.59,387.53h-2.82l-5.1-16.42-5.1,16.42h-2.8l-6.51-20.02h2.6l5.29,16.9,5.37-16.9h2.32l5.37,16.9,5.31-16.9h2.6l-6.51,20.02Z"/><path class="cls-5" d="M2059.94,387.53h-2.46v-11.21c0-2.14-.59-3.83-1.76-5.07-1.17-1.25-2.76-1.87-4.74-1.87s-3.7.66-4.94,1.97c-1.24,1.31-1.86,3.07-1.86,5.26v10.93h-2.46v-20.02h2.18l.08,3.76c.69-1.35,1.67-2.38,2.92-3.09,1.25-.71,2.75-1.07,4.48-1.07,2.67,0,4.76.8,6.29,2.4s2.28,3.82,2.28,6.65v11.37Z"/><path class="cls-5" d="M2067.54,360.49c-.47,0-.86-.16-1.17-.49-.31-.33-.47-.72-.47-1.19s.16-.84.47-1.16.7-.48,1.17-.48.88.16,1.21.48c.33.32.49.71.49,1.16s-.16.86-.49,1.19c-.33.33-.73.49-1.21.49ZM2068.79,387.53h-2.46v-20.02h2.46v20.02Z"/><path class="cls-5" d="M2092.97,385.03c-2.46,1.94-5.18,2.9-8.17,2.9-2.07,0-3.92-.46-5.56-1.39-1.64-.93-2.92-2.19-3.85-3.79-.93-1.6-1.4-3.42-1.4-5.45s.44-3.71,1.31-5.25c.87-1.53,2.07-2.74,3.59-3.62s3.25-1.32,5.19-1.32,3.69.46,5.19,1.39c1.49.93,2.66,2.21,3.5,3.84.84,1.64,1.26,3.53,1.26,5.68v.62h-17.38c.16,1.4.62,2.63,1.39,3.68.77,1.05,1.75,1.88,2.95,2.46,1.2.59,2.55.88,4.04.88,2.46,0,4.71-.81,6.77-2.44l1.16,1.8ZM2076.57,376.52h15.15c-.12-1.43-.51-2.68-1.18-3.74-.67-1.07-1.54-1.9-2.63-2.5s-2.33-.9-3.71-.9-2.66.3-3.77.9-2.01,1.44-2.68,2.51c-.67,1.07-1.06,2.32-1.17,3.73Z"/><path class="cls-5" d="M2100.08,392.34h-1.84l1.76-8.41h2.32l-2.24,8.41Z"/><path class="cls-5" d="M1224.48,446.92l.04-1.98c.2.04.4.07.59.08.19.01.38.02.57.02,1.41,0,2.56-.51,3.44-1.54.88-1.03,1.32-2.4,1.32-4.1v-22.68h2.48v22.76c0,2.42-.57,4.3-1.71,5.65-1.14,1.35-2.71,2.02-4.69,2.02-.32,0-.65-.02-.99-.06-.34-.04-.69-.09-1.05-.16ZM1231.67,409.71c-.47,0-.86-.16-1.17-.49-.31-.33-.47-.72-.47-1.19s.16-.86.47-1.18.7-.48,1.17-.48.86.16,1.19.48.49.71.49,1.18-.16.86-.49,1.19c-.33.33-.72.49-1.19.49Z"/><path class="cls-5" d="M1257.01,434.23c-2.46,1.94-5.18,2.9-8.17,2.9-2.07,0-3.92-.46-5.56-1.39-1.64-.93-2.92-2.19-3.85-3.79-.93-1.6-1.4-3.42-1.4-5.45s.44-3.71,1.31-5.25c.87-1.53,2.07-2.74,3.59-3.62s3.25-1.32,5.19-1.32,3.69.46,5.19,1.39c1.49.93,2.66,2.21,3.5,3.84.84,1.64,1.26,3.53,1.26,5.68v.62h-17.38c.16,1.4.62,2.63,1.39,3.68.77,1.05,1.75,1.88,2.95,2.46,1.2.59,2.55.88,4.04.88,2.46,0,4.71-.81,6.77-2.44l1.16,1.8ZM1240.62,425.72h15.15c-.12-1.43-.51-2.68-1.18-3.74-.67-1.07-1.54-1.9-2.63-2.5s-2.33-.9-3.71-.9-2.66.3-3.77.9-2.01,1.44-2.68,2.51c-.67,1.07-1.06,2.32-1.17,3.73Z"/><path class="cls-5" d="M1278.75,436.73h-17.28v-1.46l13.13-16.34h-12.51v-2.22h16.2v1.3l-13.27,16.5h13.73v2.22ZM1270.11,411.45c-.43,0-.78-.13-1.05-.4-.27-.27-.41-.61-.41-1.04s.14-.77.41-1.04c.27-.27.62-.4,1.05-.4s.77.13,1.04.4c.27.27.4.61.4,1.04s-.13.77-.4,1.04c-.27.27-.61.4-1.04.4Z"/><path class="cls-5" d="M1300.54,434.23c-2.46,1.94-5.18,2.9-8.17,2.9-2.07,0-3.92-.46-5.56-1.39-1.64-.93-2.92-2.19-3.85-3.79-.93-1.6-1.4-3.42-1.4-5.45s.44-3.71,1.31-5.25c.87-1.53,2.07-2.74,3.59-3.62s3.25-1.32,5.19-1.32,3.69.46,5.19,1.39c1.49.93,2.66,2.21,3.5,3.84.84,1.64,1.26,3.53,1.26,5.68v.62h-17.38c.16,1.4.62,2.63,1.39,3.68.77,1.05,1.75,1.88,2.95,2.46,1.2.59,2.55.88,4.04.88,2.46,0,4.71-.81,6.77-2.44l1.16,1.8ZM1284.14,425.72h15.15c-.12-1.43-.51-2.68-1.18-3.74-.67-1.07-1.54-1.9-2.63-2.5s-2.33-.9-3.71-.9-2.66.3-3.77.9-2.01,1.44-2.68,2.51c-.67,1.07-1.06,2.32-1.17,3.73Z"/><path class="cls-5" d="M1309.18,436.73h-2.58v-30.83h2.58v30.83Z"/><path class="cls-5" d="M1317.19,409.69c-.47,0-.86-.16-1.17-.49-.31-.33-.47-.72-.47-1.19s.16-.84.47-1.16.7-.48,1.17-.48.88.16,1.21.48c.33.32.49.71.49,1.16s-.16.86-.49,1.19c-.33.33-.73.49-1.21.49ZM1318.43,436.73h-2.46v-20.02h2.46v20.02Z"/><path class="cls-5" d="M1346.34,436.27c-1.21.57-2.42.86-3.6.86-1.12,0-2.1-.25-2.93-.74s-1.48-1.19-1.95-2.08c-.47-.89-.7-1.94-.7-3.12v-12.25h-3.5v-2.22h3.6v-5h2.36v5h6.13v2.22h-6.13v11.81c0,1.25.33,2.26,1,3.02.67.76,1.55,1.14,2.64,1.14.87,0,1.74-.25,2.62-.76l.46,2.12Z"/><path class="cls-5" d="M1359.95,437.13c-1.98,0-3.75-.45-5.33-1.36-1.58-.91-2.82-2.15-3.72-3.71-.91-1.57-1.36-3.35-1.36-5.34s.45-3.75,1.36-5.32c.91-1.57,2.15-2.81,3.72-3.72,1.57-.91,3.35-1.37,5.33-1.37s3.72.46,5.29,1.37c1.56.91,2.8,2.16,3.7,3.72.91,1.57,1.36,3.34,1.36,5.32s-.45,3.75-1.36,5.33c-.91,1.57-2.14,2.82-3.7,3.72-1.56.91-3.32,1.36-5.29,1.36ZM1359.93,434.91c1.49,0,2.83-.36,4.01-1.08,1.18-.72,2.12-1.7,2.8-2.93.69-1.23,1.03-2.63,1.03-4.19s-.34-2.92-1.03-4.15c-.69-1.23-1.62-2.21-2.8-2.93-1.18-.72-2.52-1.08-4.01-1.08s-2.84.36-4.02,1.08c-1.19.72-2.13,1.7-2.81,2.93-.69,1.23-1.03,2.62-1.03,4.15s.34,2.96,1.03,4.19c.69,1.23,1.62,2.21,2.81,2.93,1.19.72,2.53,1.08,4.02,1.08Z"/><path class="cls-5" d="M1396.41,436.27c-1.21.57-2.42.86-3.6.86-1.12,0-2.1-.25-2.93-.74s-1.48-1.19-1.95-2.08c-.47-.89-.7-1.94-.7-3.12v-12.25h-3.5v-2.22h3.6v-5h2.36v5h6.13v2.22h-6.13v11.81c0,1.25.33,2.26,1,3.02.67.76,1.55,1.14,2.64,1.14.87,0,1.74-.25,2.62-.76l.46,2.12Z"/><path class="cls-5" d="M1406.52,446.74h-2.68l4.22-10.21-9.45-19.82h2.72l7.91,16.96,7.03-16.96h2.66l-12.41,30.03Z"/><path class="cls-5" d="M1426.12,436.73h-2.58v-30.83h2.58v30.83Z"/><path class="cls-5" d="M1435.19,436.73h-2.46v-30.03h2.46v22l1.42-1.72,9.75-10.27h3.08l-8.13,8.63,9.45,11.39h-3.18l-7.97-9.59-4.42,4.7v4.88Z"/><path class="cls-5" d="M1463.57,437.13c-1.98,0-3.75-.45-5.33-1.36-1.58-.91-2.82-2.15-3.72-3.71-.91-1.57-1.36-3.35-1.36-5.34s.45-3.75,1.36-5.32c.91-1.57,2.15-2.81,3.72-3.72,1.57-.91,3.35-1.37,5.33-1.37s3.72.46,5.29,1.37c1.56.91,2.8,2.16,3.7,3.72.91,1.57,1.36,3.34,1.36,5.32s-.45,3.75-1.36,5.33c-.91,1.57-2.14,2.82-3.7,3.72-1.56.91-3.32,1.36-5.29,1.36ZM1463.55,434.91c1.49,0,2.83-.36,4.01-1.08,1.18-.72,2.12-1.7,2.8-2.93.69-1.23,1.03-2.63,1.03-4.19s-.34-2.92-1.03-4.15c-.69-1.23-1.62-2.21-2.8-2.93-1.18-.72-2.52-1.08-4.01-1.08s-2.84.36-4.02,1.08c-1.19.72-2.13,1.7-2.81,2.93-.69,1.23-1.03,2.62-1.03,4.15s.34,2.96,1.03,4.19c.69,1.23,1.62,2.21,2.81,2.93,1.19.72,2.53,1.08,4.02,1.08Z"/><path class="cls-5" d="M1520.53,436.73h-2.46v-10.87c0-2.31-.52-4.11-1.56-5.4-1.04-1.29-2.5-1.93-4.36-1.93s-3.36.65-4.44,1.95-1.62,3.09-1.62,5.38v10.87h-2.46v-10.87c0-2.31-.52-4.11-1.56-5.4-1.04-1.29-2.5-1.93-4.38-1.93s-3.36.65-4.44,1.95-1.62,3.09-1.62,5.38v10.87h-2.46v-20.02h2.04l.1,3.94c.64-1.43,1.55-2.51,2.73-3.24,1.18-.73,2.59-1.1,4.23-1.1,1.77,0,3.28.43,4.5,1.28,1.23.85,2.11,2.08,2.64,3.66.6-1.61,1.52-2.84,2.75-3.68s2.74-1.26,4.51-1.26c2.48,0,4.41.79,5.8,2.38,1.38,1.59,2.07,3.81,2.07,6.67v11.37Z"/><path class="cls-5" d="M1535.63,437.13c-1.98,0-3.75-.45-5.33-1.36-1.58-.91-2.82-2.15-3.72-3.71-.91-1.57-1.36-3.35-1.36-5.34s.45-3.75,1.36-5.32c.91-1.57,2.15-2.81,3.72-3.72,1.57-.91,3.35-1.37,5.33-1.37s3.72.46,5.29,1.37c1.56.91,2.8,2.16,3.7,3.72.91,1.57,1.36,3.34,1.36,5.32s-.45,3.75-1.36,5.33c-.91,1.57-2.14,2.82-3.7,3.72-1.56.91-3.32,1.36-5.29,1.36ZM1535.61,434.91c1.49,0,2.83-.36,4.01-1.08,1.18-.72,2.12-1.7,2.8-2.93.69-1.23,1.03-2.63,1.03-4.19s-.34-2.92-1.03-4.15c-.69-1.23-1.62-2.21-2.8-2.93-1.18-.72-2.52-1.08-4.01-1.08s-2.84.36-4.02,1.08c-1.19.72-2.13,1.7-2.81,2.93-.69,1.23-1.03,2.62-1.03,4.15s.34,2.96,1.03,4.19c.69,1.23,1.62,2.21,2.81,2.93,1.19.72,2.53,1.08,4.02,1.08Z"/><path class="cls-5" d="M1566.66,436.73h-17.28v-1.46l13.13-16.34h-12.51v-2.22h16.2v1.3l-13.27,16.5h13.73v2.22ZM1558.01,411.45c-.43,0-.78-.13-1.05-.4-.27-.27-.41-.61-.41-1.04s.14-.77.41-1.04c.27-.27.62-.4,1.05-.4s.77.13,1.04.4c.27.27.4.61.4,1.04s-.13.77-.4,1.04c-.27.27-.61.4-1.04.4Z"/><path class="cls-5" d="M1574.24,436.73h-2.58v-30.83h2.58v30.83Z"/><path class="cls-5" d="M1582.25,409.69c-.47,0-.86-.16-1.17-.49-.31-.33-.47-.72-.47-1.19s.16-.84.47-1.16.7-.48,1.17-.48.88.16,1.21.48c.33.32.49.71.49,1.16s-.16.86-.49,1.19c-.33.33-.73.49-1.21.49ZM1583.49,436.73h-2.46v-20.02h2.46v20.02Z"/><path class="cls-5" d="M1610.64,436.73h-2.82l-5.1-16.42-5.1,16.42h-2.8l-6.51-20.02h2.6l5.29,16.9,5.37-16.9h2.32l5.37,16.9,5.31-16.9h2.6l-6.51,20.02Z"/><path class="cls-5" d="M1638.53,434.23c-2.46,1.94-5.18,2.9-8.17,2.9-2.07,0-3.92-.46-5.56-1.39-1.64-.93-2.92-2.19-3.85-3.79-.93-1.6-1.4-3.42-1.4-5.45s.44-3.71,1.31-5.25c.87-1.53,2.07-2.74,3.59-3.62s3.25-1.32,5.19-1.32,3.69.46,5.19,1.39c1.49.93,2.66,2.21,3.5,3.84.84,1.64,1.26,3.53,1.26,5.68v.62h-17.38c.16,1.4.62,2.63,1.39,3.68.77,1.05,1.75,1.88,2.95,2.46,1.2.59,2.55.88,4.04.88,2.46,0,4.71-.81,6.77-2.44l1.16,1.8ZM1622.13,425.72h15.15c-.12-1.43-.51-2.68-1.18-3.74-.67-1.07-1.54-1.9-2.63-2.5s-2.33-.9-3.71-.9-2.66.3-3.77.9-2.01,1.44-2.68,2.51c-.67,1.07-1.06,2.32-1.17,3.73Z"/><path class="cls-5" d="M1645.63,441.54h-1.84l1.76-8.41h2.32l-2.24,8.41Z"/><path class="cls-5" d="M1680.49,433.95c-.96,1.01-2.09,1.8-3.39,2.35-1.3.55-2.71.83-4.21.83-1.98,0-3.75-.45-5.32-1.36-1.57-.91-2.81-2.15-3.71-3.72-.91-1.57-1.36-3.35-1.36-5.33s.45-3.77,1.36-5.34c.91-1.57,2.15-2.81,3.71-3.71,1.57-.91,3.34-1.36,5.32-1.36,1.49,0,2.9.27,4.2.82,1.31.55,2.44,1.33,3.38,2.34l-1.5,1.58c-.75-.79-1.64-1.4-2.67-1.83-1.03-.43-2.14-.65-3.31-.65-1.54,0-2.9.35-4.09,1.05s-2.14,1.67-2.82,2.89c-.69,1.23-1.03,2.62-1.03,4.18s.34,2.98,1.03,4.21c.69,1.23,1.63,2.2,2.82,2.9s2.56,1.05,4.09,1.05c1.17,0,2.28-.22,3.32-.65,1.04-.43,1.93-1.04,2.66-1.83l1.52,1.56Z"/><path class="cls-5" d="M1701.21,436.73h-17.26v-1.46l13.13-16.34h-12.51v-2.22h16.2v1.3l-13.27,16.5h13.71v2.22Z"/><path class="cls-5" d="M1722.99,434.23c-.72.57-1.48,1.05-2.28,1.43s-1.61.71-2.42.99c-1.05.39-1.9,1.02-2.53,1.89-.63.87-.95,1.72-.95,2.55,0,.65.23,1.22.68,1.69.45.47,1.15.75,2.1.83l-.14,1.44c-1.29,0-2.31-.34-3.04-1.02-.73-.68-1.1-1.51-1.1-2.5,0-.88.28-1.72.84-2.52s1.33-1.47,2.3-2c-.53.08-1.07.12-1.62.12-2.07,0-3.92-.46-5.56-1.39-1.64-.93-2.92-2.19-3.85-3.79-.93-1.6-1.4-3.42-1.4-5.45s.44-3.71,1.31-5.25c.87-1.53,2.07-2.74,3.58-3.62,1.51-.88,3.24-1.32,5.17-1.32s3.69.46,5.2,1.39c1.5.93,2.67,2.21,3.51,3.84.84,1.64,1.26,3.53,1.26,5.68v.62h-17.38c.16,1.4.62,2.63,1.38,3.68.76,1.05,1.74,1.88,2.94,2.46,1.2.59,2.54.88,4.02.88,2.48,0,4.75-.81,6.81-2.44l1.16,1.8ZM1706.59,425.72h15.15c-.12-1.43-.51-2.68-1.18-3.74-.67-1.07-1.54-1.9-2.63-2.5s-2.33-.9-3.73-.9-2.66.3-3.76.9c-1.11.6-2,1.44-2.67,2.51-.67,1.07-1.06,2.32-1.17,3.73Z"/><path class="cls-5" d="M1727.65,434.99l.72-2.28c.49.45,1.04.84,1.65,1.16.61.32,1.24.57,1.9.74.66.17,1.33.26,2.01.26,1.36,0,2.47-.33,3.32-1,.85-.67,1.28-1.53,1.28-2.6,0-.76-.21-1.38-.64-1.87-.43-.49-.99-.9-1.68-1.25-.69-.35-1.43-.67-2.2-.98-.89-.35-1.77-.74-2.62-1.17-.85-.43-1.56-1-2.11-1.69-.55-.69-.83-1.61-.83-2.74,0-1.07.26-1.99.79-2.77s1.27-1.39,2.22-1.82c.95-.43,2.06-.65,3.31-.65,1.8,0,3.58.44,5.33,1.32l-.76,2.22c-.41-.25-.88-.48-1.4-.67-.52-.19-1.05-.34-1.6-.45-.55-.11-1.07-.16-1.56-.16-1.13,0-2.05.27-2.74.81-.69.54-1.04,1.25-1.04,2.13,0,.57.16,1.07.47,1.49.31.42.79.81,1.43,1.17s1.44.74,2.4,1.14c.92.37,1.82.8,2.7,1.27.88.47,1.61,1.08,2.19,1.81.58.73.87,1.69.87,2.86s-.3,2.17-.89,3.05c-.59.89-1.41,1.58-2.46,2.07-1.05.49-2.27.74-3.65.74-2.31,0-4.44-.71-6.41-2.14Z"/><path class="cls-5" d="M1756.96,436.27c-1.21.57-2.42.86-3.6.86-1.12,0-2.1-.25-2.93-.74s-1.48-1.19-1.95-2.08c-.47-.89-.7-1.94-.7-3.12v-12.25h-3.5v-2.22h3.6v-5h2.36v5h6.13v2.22h-6.13v11.81c0,1.25.33,2.26,1,3.02.67.76,1.55,1.14,2.64,1.14.87,0,1.74-.25,2.62-.76l.46,2.12Z"/><path class="cls-5" d="M1770.57,437.13c-1.98,0-3.75-.45-5.33-1.36-1.58-.91-2.82-2.15-3.72-3.71-.91-1.57-1.36-3.35-1.36-5.34s.45-3.75,1.36-5.32c.91-1.57,2.15-2.81,3.72-3.72,1.57-.91,3.35-1.37,5.33-1.37s3.72.46,5.29,1.37c1.56.91,2.8,2.16,3.7,3.72.91,1.57,1.36,3.34,1.36,5.32s-.45,3.75-1.36,5.33c-.91,1.57-2.14,2.82-3.7,3.72-1.56.91-3.32,1.36-5.29,1.36ZM1770.55,434.91c1.49,0,2.83-.36,4.01-1.08,1.18-.72,2.12-1.7,2.8-2.93.69-1.23,1.03-2.63,1.03-4.19s-.34-2.92-1.03-4.15c-.69-1.23-1.62-2.21-2.8-2.93-1.18-.72-2.52-1.08-4.01-1.08s-2.84.36-4.02,1.08c-1.19.72-2.13,1.7-2.81,2.93-.69,1.23-1.03,2.62-1.03,4.15s.34,2.96,1.03,4.19c.69,1.23,1.62,2.21,2.81,2.93,1.19.72,2.53,1.08,4.02,1.08Z"/><path class="cls-5" d="M1811.79,436.73h-17.26v-1.46l13.13-16.34h-12.51v-2.22h16.2v1.3l-13.27,16.5h13.71v2.22Z"/><path class="cls-5" d="M1831.79,436.73h-2.1l-.2-3.34c-.67,1.15-1.6,2.06-2.8,2.73s-2.57,1.01-4.1,1.01c-1.42,0-2.68-.28-3.79-.83s-1.99-1.31-2.63-2.28c-.64-.97-.96-2.07-.96-3.29s.35-2.42,1.04-3.4c.69-.99,1.65-1.76,2.86-2.33,1.21-.57,2.6-.85,4.14-.85,1.08,0,2.16.14,3.22.42,1.07.28,2.02.67,2.86,1.18v-1.36c0-1.21-.27-2.26-.8-3.12-.53-.87-1.26-1.53-2.19-1.99-.93-.46-1.98-.69-3.15-.69-1.01,0-2.03.18-3.04.55-1.01.37-1.96.91-2.84,1.63l-.88-2.12c1.09-.76,2.27-1.34,3.51-1.73,1.25-.39,2.49-.59,3.73-.59,1.67,0,3.11.34,4.31,1.02,1.21.68,2.15,1.65,2.81,2.89.67,1.25,1,2.73,1,4.45v12.05ZM1822.99,434.87c1.16,0,2.21-.25,3.15-.75.94-.5,1.7-1.21,2.27-2.12.57-.91.88-1.97.92-3.15v-.68c-.83-.63-1.73-1.1-2.69-1.43-.97-.33-1.97-.49-3.01-.49-1.7,0-3.1.41-4.21,1.22-1.11.81-1.67,1.86-1.67,3.14,0,.8.23,1.52.69,2.17.46.65,1.09,1.16,1.88,1.53.79.37,1.69.56,2.67.56Z"/><path class="cls-5" d="M1832.84,426.16l-.82-1.44,6.29-3.62v-15.19h2.58v13.69l5.45-3.12.82,1.44-6.27,3.6v15.21h-2.58v-13.71l-5.47,3.14Z"/><path class="cls-5" d="M1863.3,436.73h-2.1l-.2-3.34c-.67,1.15-1.6,2.06-2.8,2.73s-2.57,1.01-4.1,1.01c-1.42,0-2.68-.28-3.79-.83s-1.99-1.31-2.63-2.28c-.64-.97-.96-2.07-.96-3.29s.35-2.42,1.04-3.4c.69-.99,1.65-1.76,2.86-2.33,1.21-.57,2.6-.85,4.14-.85,1.08,0,2.16.14,3.22.42,1.07.28,2.02.67,2.86,1.18v-1.36c0-1.21-.27-2.26-.8-3.12-.53-.87-1.26-1.53-2.19-1.99-.93-.46-1.98-.69-3.15-.69-1.01,0-2.03.18-3.04.55-1.01.37-1.96.91-2.84,1.63l-.88-2.12c1.09-.76,2.27-1.34,3.51-1.73,1.25-.39,2.49-.59,3.73-.59,1.67,0,3.11.34,4.31,1.02,1.21.68,2.15,1.65,2.81,2.89.67,1.25,1,2.73,1,4.45v12.05ZM1854.5,434.87c1.16,0,2.21-.25,3.15-.75.94-.5,1.7-1.21,2.27-2.12.57-.91.88-1.97.92-3.15v-.68c-.83-.63-1.73-1.1-2.69-1.43-.97-.33-1.97-.49-3.01-.49-1.7,0-3.1.41-4.21,1.22-1.11.81-1.67,1.86-1.67,3.14,0,.8.23,1.52.69,2.17.46.65,1.09,1.16,1.88,1.53.79.37,1.69.56,2.67.56Z"/><path class="cls-5" d="M1879.86,436.27c-1.21.57-2.42.86-3.6.86-1.12,0-2.1-.25-2.93-.74s-1.48-1.19-1.95-2.08c-.47-.89-.7-1.94-.7-3.12v-12.25h-3.5v-2.22h3.6v-5h2.36v5h6.13v2.22h-6.13v11.81c0,1.25.33,2.26,1,3.02.67.76,1.55,1.14,2.64,1.14.87,0,1.74-.25,2.62-.76l.46,2.12Z"/><path class="cls-5" d="M1904.4,436.73h-2.82l-5.1-16.42-5.1,16.42h-2.8l-6.51-20.02h2.6l5.29,16.9,5.37-16.9h2.32l5.37,16.9,5.31-16.9h2.6l-6.51,20.02Z"/><path class="cls-5" d="M1916.92,409.69c-.47,0-.86-.16-1.17-.49-.31-.33-.47-.72-.47-1.19s.16-.84.47-1.16.7-.48,1.17-.48.88.16,1.21.48c.33.32.49.71.49,1.16s-.16.86-.49,1.19c-.33.33-.73.49-1.21.49ZM1918.16,436.73h-2.46v-20.02h2.46v20.02Z"/><path class="cls-5" d="M1940.56,436.73h-2.1l-.2-3.34c-.67,1.15-1.6,2.06-2.8,2.73s-2.57,1.01-4.1,1.01c-1.42,0-2.68-.28-3.79-.83s-1.99-1.31-2.63-2.28c-.64-.97-.96-2.07-.96-3.29s.35-2.42,1.04-3.4c.69-.99,1.65-1.76,2.86-2.33,1.21-.57,2.6-.85,4.14-.85,1.08,0,2.16.14,3.22.42,1.07.28,2.02.67,2.86,1.18v-1.36c0-1.21-.27-2.26-.8-3.12-.53-.87-1.26-1.53-2.19-1.99-.93-.46-1.98-.69-3.15-.69-1.01,0-2.03.18-3.04.55-1.01.37-1.96.91-2.84,1.63l-.88-2.12c1.09-.76,2.27-1.34,3.51-1.73,1.25-.39,2.49-.59,3.73-.59,1.67,0,3.11.34,4.31,1.02,1.21.68,2.15,1.65,2.81,2.89.67,1.25,1,2.73,1,4.45v12.05ZM1931.75,434.87c1.16,0,2.21-.25,3.15-.75.94-.5,1.7-1.21,2.27-2.12.57-.91.88-1.97.92-3.15v-.68c-.83-.63-1.73-1.1-2.69-1.43-.97-.33-1.97-.49-3.01-.49-1.7,0-3.1.41-4.21,1.22-1.11.81-1.67,1.86-1.67,3.14,0,.8.23,1.52.69,2.17.46.65,1.09,1.16,1.88,1.53.79.37,1.69.56,2.67.56Z"/><path class="cls-5" d="M1941.44,446.92l.04-1.98c.2.04.4.07.59.08.19.01.38.02.57.02,1.41,0,2.56-.51,3.44-1.54.88-1.03,1.32-2.4,1.32-4.1v-22.68h2.48v22.76c0,2.42-.57,4.3-1.71,5.65-1.14,1.35-2.71,2.02-4.69,2.02-.32,0-.65-.02-.99-.06-.34-.04-.69-.09-1.05-.16ZM1948.63,409.71c-.47,0-.86-.16-1.17-.49-.31-.33-.47-.72-.47-1.19s.16-.86.47-1.18.7-.48,1.17-.48.86.16,1.19.48.49.71.49,1.18-.16.86-.49,1.19c-.33.33-.72.49-1.19.49Z"/><path class="cls-5" d="M1972.19,436.73h-.26c-.96.44-1.75,1.08-2.36,1.91-.61.83-.92,1.65-.92,2.45,0,.68.24,1.25.71,1.71s1.16.73,2.07.81l-.14,1.44c-1.27,0-2.28-.33-3.02-1-.75-.67-1.12-1.51-1.12-2.52,0-.96.34-1.88,1.01-2.74.67-.87,1.58-1.55,2.73-2.06h-.8l-.2-3.34c-.68,1.16-1.62,2.08-2.82,2.74s-2.56,1-4.08,1c-1.42,0-2.68-.28-3.79-.83s-1.99-1.31-2.63-2.28c-.64-.97-.96-2.07-.96-3.29s.35-2.42,1.05-3.41c.7-.99,1.65-1.77,2.86-2.33s2.59-.84,4.13-.84c1.08,0,2.16.14,3.22.42,1.07.28,2.02.67,2.86,1.18v-1.36c0-1.21-.27-2.26-.8-3.12-.53-.87-1.26-1.53-2.19-1.99-.93-.46-1.98-.69-3.15-.69-1.01,0-2.03.18-3.03.54s-1.96.91-2.85,1.64l-.88-2.12c1.09-.76,2.27-1.34,3.51-1.73,1.25-.39,2.49-.59,3.73-.59,1.67,0,3.11.34,4.31,1.02,1.21.68,2.15,1.65,2.81,2.89.67,1.25,1,2.73,1,4.45v12.05ZM1963.34,434.87c1.19,0,2.27-.27,3.23-.81.97-.54,1.73-1.27,2.3-2.2.57-.93.85-1.97.85-3.13v-.56c-.79-.63-1.66-1.1-2.61-1.43-.95-.33-1.97-.49-3.03-.49-1.74,0-3.16.41-4.27,1.22-1.11.81-1.67,1.86-1.67,3.14,0,.8.23,1.52.69,2.17.46.65,1.08,1.16,1.86,1.53.78.37,1.66.56,2.65.56Z"/><path class="cls-5" d="M1994.85,433.95c-.96,1.01-2.09,1.8-3.39,2.35-1.3.55-2.71.83-4.21.83-1.98,0-3.75-.45-5.32-1.36-1.57-.91-2.81-2.15-3.71-3.72-.91-1.57-1.36-3.35-1.36-5.33s.45-3.77,1.36-5.34c.91-1.57,2.15-2.81,3.71-3.71,1.57-.91,3.34-1.36,5.32-1.36,1.49,0,2.9.27,4.2.82,1.31.55,2.44,1.33,3.38,2.34l-1.5,1.58c-.75-.79-1.64-1.4-2.67-1.83-1.03-.43-2.14-.65-3.31-.65-1.54,0-2.9.35-4.09,1.05s-2.14,1.67-2.82,2.89c-.69,1.23-1.03,2.62-1.03,4.18s.34,2.98,1.03,4.21c.69,1.23,1.63,2.2,2.82,2.9s2.56,1.05,4.09,1.05c1.17,0,2.28-.22,3.32-.65,1.04-.43,1.93-1.04,2.66-1.83l1.52,1.56Z"/><path class="cls-5" d="M2008.73,434.99l.72-2.28c.49.45,1.04.84,1.65,1.16.61.32,1.24.57,1.9.74.66.17,1.33.26,2.01.26,1.36,0,2.47-.33,3.32-1,.85-.67,1.28-1.53,1.28-2.6,0-.76-.21-1.38-.64-1.87-.43-.49-.99-.9-1.68-1.25-.69-.35-1.43-.67-2.2-.98-.89-.35-1.77-.74-2.62-1.17-.85-.43-1.56-1-2.11-1.69-.55-.69-.83-1.61-.83-2.74,0-1.07.26-1.99.79-2.77s1.27-1.39,2.22-1.82c.95-.43,2.06-.65,3.31-.65,1.8,0,3.58.44,5.33,1.32l-.76,2.22c-.41-.25-.88-.48-1.4-.67-.52-.19-1.05-.34-1.6-.45-.55-.11-1.07-.16-1.56-.16-1.13,0-2.05.27-2.74.81-.69.54-1.04,1.25-1.04,2.13,0,.57.16,1.07.47,1.49.31.42.79.81,1.43,1.17s1.44.74,2.4,1.14c.92.37,1.82.8,2.7,1.27.88.47,1.61,1.08,2.19,1.81.58.73.87,1.69.87,2.86s-.3,2.17-.89,3.05c-.59.89-1.41,1.58-2.46,2.07-1.05.49-2.27.74-3.65.74-2.31,0-4.44-.71-6.41-2.14Z"/><path class="cls-5" d="M2029.81,446.74h-2.46v-30.03h2.22l.1,3.84c.87-1.32,2.02-2.36,3.46-3.11,1.44-.75,3.04-1.13,4.78-1.13,1.96,0,3.72.45,5.27,1.36,1.55.91,2.78,2.15,3.68,3.71.9,1.57,1.35,3.35,1.35,5.34s-.45,3.75-1.35,5.33c-.9,1.57-2.13,2.82-3.68,3.72-1.55.91-3.31,1.36-5.27,1.36-1.71,0-3.27-.36-4.68-1.08-1.42-.72-2.56-1.72-3.42-3v13.69ZM2037.78,434.87c1.52,0,2.88-.35,4.07-1.05,1.19-.7,2.13-1.67,2.8-2.9.67-1.23,1.01-2.64,1.01-4.21s-.34-2.98-1.02-4.2c-.68-1.23-1.62-2.2-2.8-2.9-1.19-.71-2.54-1.06-4.06-1.06-1.44,0-2.75.32-3.93.97-1.18.65-2.13,1.54-2.85,2.67-.72,1.13-1.11,2.42-1.18,3.86v1.36c.07,1.44.46,2.73,1.17,3.85.71,1.13,1.66,2.01,2.84,2.65,1.18.64,2.5.96,3.95.96Z"/><path class="cls-5" d="M2055.69,436.73h-2.46v-20.02h2.18l.1,4.42c.67-1.55,1.66-2.74,2.97-3.57,1.31-.83,2.85-1.25,4.61-1.25.32,0,.65.02.99.05.34.03.68.08,1.01.15l-.3,2.22c-.65-.13-1.31-.2-1.96-.2-1.39,0-2.62.34-3.7,1.02s-1.93,1.62-2.53,2.81c-.61,1.19-.91,2.57-.91,4.13v10.23Z"/><path class="cls-5" d="M2083.9,436.73h-2.1l-.2-3.34c-.67,1.15-1.6,2.06-2.8,2.73s-2.57,1.01-4.1,1.01c-1.42,0-2.68-.28-3.79-.83s-1.99-1.31-2.63-2.28c-.64-.97-.96-2.07-.96-3.29s.35-2.42,1.04-3.4c.69-.99,1.65-1.76,2.86-2.33,1.21-.57,2.6-.85,4.14-.85,1.08,0,2.16.14,3.22.42,1.07.28,2.02.67,2.86,1.18v-1.36c0-1.21-.27-2.26-.8-3.12-.53-.87-1.26-1.53-2.19-1.99-.93-.46-1.98-.69-3.15-.69-1.01,0-2.03.18-3.04.55-1.01.37-1.96.91-2.84,1.63l-.88-2.12c1.09-.76,2.27-1.34,3.51-1.73,1.25-.39,2.49-.59,3.73-.59,1.67,0,3.11.34,4.31,1.02,1.21.68,2.15,1.65,2.81,2.89.67,1.25,1,2.73,1,4.45v12.05ZM2075.09,434.87c1.16,0,2.21-.25,3.15-.75.94-.5,1.7-1.21,2.27-2.12.57-.91.88-1.97.92-3.15v-.68c-.83-.63-1.73-1.1-2.69-1.43-.97-.33-1.97-.49-3.01-.49-1.7,0-3.1.41-4.21,1.22-1.11.81-1.67,1.86-1.67,3.14,0,.8.23,1.52.69,2.17.46.65,1.09,1.16,1.88,1.53.79.37,1.69.56,2.67.56Z"/><path class="cls-5" d="M2110.11,436.73h-2.82l-5.1-16.42-5.1,16.42h-2.8l-6.51-20.02h2.6l5.29,16.9,5.37-16.9h2.32l5.37,16.9,5.31-16.9h2.6l-6.51,20.02Z"/><path class="cls-5" d="M2125.92,446.74h-2.68l4.22-10.21-9.45-19.82h2.72l7.91,16.96,7.03-16.96h2.66l-12.41,30.03Z"/><path class="cls-5" d="M1232.33,485.93h-2.46v-30.03h2.46v22l1.42-1.72,9.75-10.27h3.08l-8.13,8.63,9.45,11.39h-3.18l-7.97-9.59-4.42,4.7v4.88Z"/><path class="cls-5" d="M1260.72,486.33c-1.98,0-3.75-.45-5.33-1.36-1.58-.91-2.82-2.15-3.72-3.71-.91-1.57-1.36-3.35-1.36-5.34s.45-3.75,1.36-5.32c.91-1.57,2.15-2.81,3.72-3.72,1.57-.91,3.35-1.37,5.33-1.37s3.72.46,5.29,1.37c1.56.91,2.8,2.16,3.7,3.72.91,1.57,1.36,3.34,1.36,5.32s-.45,3.75-1.36,5.33c-.91,1.57-2.14,2.82-3.7,3.72-1.56.91-3.32,1.36-5.29,1.36ZM1260.7,484.11c1.49,0,2.83-.36,4.01-1.08,1.18-.72,2.12-1.7,2.8-2.93.69-1.23,1.03-2.63,1.03-4.19s-.34-2.92-1.03-4.15c-.69-1.23-1.62-2.21-2.8-2.93-1.18-.72-2.52-1.08-4.01-1.08s-2.84.36-4.02,1.08c-1.19.72-2.13,1.7-2.81,2.93-.69,1.23-1.03,2.62-1.03,4.15s.34,2.96,1.03,4.19c.69,1.23,1.62,2.21,2.81,2.93,1.19.72,2.53,1.08,4.02,1.08Z"/><path class="cls-5" d="M1294.31,485.93h-2.46v-11.21c0-2.14-.59-3.83-1.76-5.07-1.17-1.25-2.76-1.87-4.74-1.87s-3.7.66-4.94,1.97c-1.24,1.31-1.86,3.07-1.86,5.26v10.93h-2.46v-20.02h2.18l.08,3.76c.69-1.35,1.67-2.38,2.92-3.09,1.25-.71,2.75-1.07,4.48-1.07,2.67,0,4.76.8,6.29,2.4s2.28,3.82,2.28,6.65v11.37Z"/><path class="cls-5" d="M1303.88,485.93h-2.46v-17.8h-3.5v-2.22h3.5v-4.7c0-1.17.24-2.21.72-3.09.48-.89,1.15-1.58,2.01-2.07.86-.49,1.85-.74,2.97-.74.68,0,1.36.09,2.05.28.69.19,1.36.47,2.03.84l-.96,1.94c-.45-.28-.91-.49-1.38-.63-.47-.14-.93-.21-1.38-.21-1.08,0-1.95.38-2.61,1.15-.66.77-.99,1.77-.99,3.01v4.22h6.27v2.22h-6.27v17.8Z"/><path class="cls-5" d="M1318.39,485.93h-2.58v-30.83h2.58v30.83Z"/><path class="cls-5" d="M1326.4,458.89c-.47,0-.86-.16-1.17-.49-.31-.33-.47-.72-.47-1.19s.16-.84.47-1.16.7-.48,1.17-.48.88.16,1.21.48c.33.32.49.71.49,1.16s-.16.86-.49,1.19c-.33.33-.73.49-1.21.49ZM1327.64,485.93h-2.46v-20.02h2.46v20.02Z"/><path class="cls-5" d="M1336.91,485.93h-2.46v-30.03h2.46v22l1.42-1.72,9.75-10.27h3.08l-8.13,8.63,9.45,11.39h-3.18l-7.97-9.59-4.42,4.7v4.88Z"/><path class="cls-5" d="M1367.78,485.47c-1.21.57-2.42.86-3.6.86-1.12,0-2.1-.25-2.93-.74s-1.48-1.19-1.95-2.08c-.47-.89-.7-1.94-.7-3.12v-12.25h-3.5v-2.22h3.6v-5h2.36v5h6.13v2.22h-6.13v11.81c0,1.25.33,2.26,1,3.02.67.76,1.55,1.14,2.64,1.14.87,0,1.74-.25,2.62-.76l.46,2.12Z"/><path class="cls-5" d="M1381.39,486.33c-1.98,0-3.75-.45-5.33-1.36-1.58-.91-2.82-2.15-3.72-3.71-.91-1.57-1.36-3.35-1.36-5.34s.45-3.75,1.36-5.32c.91-1.57,2.15-2.81,3.72-3.72,1.57-.91,3.35-1.37,5.33-1.37s3.72.46,5.29,1.37c1.56.91,2.8,2.16,3.7,3.72.91,1.57,1.36,3.34,1.36,5.32s-.45,3.75-1.36,5.33c-.91,1.57-2.14,2.82-3.7,3.72-1.56.91-3.32,1.36-5.29,1.36ZM1381.37,484.11c1.49,0,2.83-.36,4.01-1.08,1.18-.72,2.12-1.7,2.8-2.93.69-1.23,1.03-2.63,1.03-4.19s-.34-2.92-1.03-4.15c-.69-1.23-1.62-2.21-2.8-2.93-1.18-.72-2.52-1.08-4.01-1.08s-2.84.36-4.02,1.08c-1.19.72-2.13,1.7-2.81,2.93-.69,1.23-1.03,2.62-1.03,4.15s.34,2.96,1.03,4.19c.69,1.23,1.62,2.21,2.81,2.93,1.19.72,2.53,1.08,4.02,1.08Z"/><path class="cls-5" d="M1417.09,485.93h-2.82l-5.1-16.42-5.1,16.42h-2.8l-6.51-20.02h2.6l5.29,16.9,5.37-16.9h2.32l5.37,16.9,5.31-16.9h2.6l-6.51,20.02Z"/><path class="cls-5" d="M1444.98,483.43c-2.46,1.94-5.18,2.9-8.17,2.9-2.07,0-3.92-.46-5.56-1.39-1.64-.93-2.92-2.19-3.85-3.79-.93-1.6-1.4-3.42-1.4-5.45s.44-3.71,1.31-5.25c.87-1.53,2.07-2.74,3.59-3.62s3.25-1.32,5.19-1.32,3.69.46,5.19,1.39c1.49.93,2.66,2.21,3.5,3.84.84,1.64,1.26,3.53,1.26,5.68v.62h-17.38c.16,1.4.62,2.63,1.39,3.68.77,1.05,1.75,1.88,2.95,2.46,1.2.59,2.55.88,4.04.88,2.46,0,4.71-.81,6.77-2.44l1.16,1.8ZM1428.58,474.92h15.15c-.12-1.43-.51-2.68-1.18-3.74-.67-1.07-1.54-1.9-2.63-2.5s-2.33-.9-3.71-.9-2.66.3-3.77.9-2.01,1.44-2.68,2.51c-.67,1.07-1.06,2.32-1.17,3.73Z"/><path class="cls-5" d="M1455.87,496.12l.04-1.98c.2.04.4.07.59.08.19.01.38.02.57.02,1.41,0,2.56-.51,3.44-1.54.88-1.03,1.32-2.4,1.32-4.1v-22.68h2.48v22.76c0,2.42-.57,4.3-1.71,5.65-1.14,1.35-2.71,2.02-4.69,2.02-.32,0-.65-.02-.99-.06-.34-.04-.69-.09-1.05-.16ZM1463.05,458.91c-.47,0-.86-.16-1.17-.49-.31-.33-.47-.72-.47-1.19s.16-.86.47-1.18.7-.48,1.17-.48.86.16,1.19.48.49.71.49,1.18-.16.86-.49,1.19c-.33.33-.72.49-1.19.49Z"/><path class="cls-5" d="M1488.4,483.43c-2.46,1.94-5.18,2.9-8.17,2.9-2.07,0-3.92-.46-5.56-1.39-1.64-.93-2.92-2.19-3.85-3.79-.93-1.6-1.4-3.42-1.4-5.45s.44-3.71,1.31-5.25c.87-1.53,2.07-2.74,3.59-3.62s3.25-1.32,5.19-1.32,3.69.46,5.19,1.39c1.49.93,2.66,2.21,3.5,3.84.84,1.64,1.26,3.53,1.26,5.68v.62h-17.38c.16,1.4.62,2.63,1.39,3.68.77,1.05,1.75,1.88,2.95,2.46,1.2.59,2.55.88,4.04.88,2.46,0,4.71-.81,6.77-2.44l1.16,1.8ZM1472,474.92h15.15c-.12-1.43-.51-2.68-1.18-3.74-.67-1.07-1.54-1.9-2.63-2.5s-2.33-.9-3.71-.9-2.66.3-3.77.9-2.01,1.44-2.68,2.51c-.67,1.07-1.06,2.32-1.17,3.73Z"/><path class="cls-5" d="M1493.06,484.19l.72-2.28c.49.45,1.04.84,1.65,1.16.61.32,1.24.57,1.9.74.66.17,1.33.26,2.01.26,1.36,0,2.47-.33,3.32-1,.85-.67,1.28-1.53,1.28-2.6,0-.76-.21-1.38-.64-1.87-.43-.49-.99-.9-1.68-1.25-.69-.35-1.43-.67-2.2-.98-.89-.35-1.77-.74-2.62-1.17-.85-.43-1.56-1-2.11-1.69-.55-.69-.83-1.61-.83-2.74,0-1.07.26-1.99.79-2.77s1.27-1.39,2.22-1.82c.95-.43,2.06-.65,3.31-.65,1.8,0,3.58.44,5.33,1.32l-.76,2.22c-.41-.25-.88-.48-1.4-.67-.52-.19-1.05-.34-1.6-.45-.55-.11-1.07-.16-1.56-.16-1.13,0-2.05.27-2.74.81-.69.54-1.04,1.25-1.04,2.13,0,.57.16,1.07.47,1.49.31.42.79.81,1.43,1.17s1.44.74,2.4,1.14c.92.37,1.82.8,2.7,1.27.88.47,1.61,1.08,2.19,1.81.58.73.87,1.69.87,2.86s-.3,2.17-.89,3.05c-.59.89-1.41,1.58-2.46,2.07-1.05.49-2.27.74-3.65.74-2.31,0-4.44-.71-6.41-2.14Z"/><path class="cls-5" d="M1527.34,485.93h-17.26v-1.46l13.13-16.34h-12.51v-2.22h16.2v1.3l-13.27,16.5h13.71v2.22Z"/><path class="cls-5" d="M1548.14,483.15c-.96,1.01-2.09,1.8-3.39,2.35-1.3.55-2.71.83-4.21.83-1.98,0-3.75-.45-5.32-1.36-1.57-.91-2.81-2.15-3.71-3.72-.91-1.57-1.36-3.35-1.36-5.33s.45-3.77,1.36-5.34c.91-1.57,2.15-2.81,3.71-3.71,1.57-.91,3.34-1.36,5.32-1.36,1.49,0,2.9.27,4.2.82,1.31.55,2.44,1.33,3.38,2.34l-1.5,1.58c-.75-.79-1.64-1.4-2.67-1.83-1.03-.43-2.14-.65-3.31-.65-1.54,0-2.9.35-4.09,1.05s-2.14,1.67-2.82,2.89c-.69,1.23-1.03,2.62-1.03,4.18s.34,2.98,1.03,4.21c.69,1.23,1.63,2.2,2.82,2.9s2.56,1.05,4.09,1.05c1.17,0,2.28-.22,3.32-.65,1.04-.43,1.93-1.04,2.66-1.83l1.52,1.56Z"/><path class="cls-5" d="M1568.86,485.93h-17.26v-1.46l13.13-16.34h-12.51v-2.22h16.2v1.3l-13.27,16.5h13.71v2.22Z"/><path class="cls-5" d="M1590.64,483.43c-2.46,1.94-5.18,2.9-8.17,2.9-2.07,0-3.92-.46-5.56-1.39-1.64-.93-2.92-2.19-3.85-3.79-.93-1.6-1.4-3.42-1.4-5.45s.44-3.71,1.31-5.25c.87-1.53,2.07-2.74,3.59-3.62s3.25-1.32,5.19-1.32,3.69.46,5.19,1.39c1.49.93,2.66,2.21,3.5,3.84.84,1.64,1.26,3.53,1.26,5.68v.62h-17.38c.16,1.4.62,2.63,1.39,3.68.77,1.05,1.75,1.88,2.95,2.46,1.2.59,2.55.88,4.04.88,2.46,0,4.71-.81,6.77-2.44l1.16,1.8ZM1574.24,474.92h15.15c-.12-1.43-.51-2.68-1.18-3.74-.67-1.07-1.54-1.9-2.63-2.5s-2.33-.9-3.71-.9-2.66.3-3.77.9-2.01,1.44-2.68,2.51c-.67,1.07-1.06,2.32-1.17,3.73Z"/><path class="cls-5" d="M1609.38,495.94h-2.46v-30.03h2.22l.1,3.84c.87-1.32,2.02-2.36,3.46-3.11,1.44-.75,3.04-1.13,4.78-1.13,1.96,0,3.72.45,5.27,1.36,1.55.91,2.78,2.15,3.68,3.71.9,1.57,1.35,3.35,1.35,5.34s-.45,3.75-1.35,5.33c-.9,1.57-2.13,2.82-3.68,3.72-1.55.91-3.31,1.36-5.27,1.36-1.71,0-3.27-.36-4.68-1.08-1.42-.72-2.56-1.72-3.42-3v13.69ZM1617.34,484.07c1.52,0,2.88-.35,4.07-1.05,1.19-.7,2.13-1.67,2.8-2.9.67-1.23,1.01-2.64,1.01-4.21s-.34-2.98-1.02-4.2c-.68-1.23-1.62-2.2-2.8-2.9-1.19-.71-2.54-1.06-4.06-1.06-1.44,0-2.75.32-3.93.97-1.18.65-2.13,1.54-2.85,2.67-.72,1.13-1.11,2.42-1.18,3.86v1.36c.07,1.44.46,2.73,1.17,3.85.71,1.13,1.66,2.01,2.84,2.65,1.18.64,2.5.96,3.95.96Z"/><path class="cls-5" d="M1635.26,485.93h-2.46v-20.02h2.18l.1,4.42c.67-1.55,1.66-2.74,2.97-3.57,1.31-.83,2.85-1.25,4.61-1.25.32,0,.65.02.99.05.34.03.68.08,1.01.15l-.3,2.22c-.65-.13-1.31-.2-1.96-.2-1.39,0-2.62.34-3.7,1.02s-1.93,1.62-2.53,2.81c-.61,1.19-.91,2.57-.91,4.13v10.23Z"/><path class="cls-5" d="M1664.13,485.93h-17.26v-1.46l13.13-16.34h-12.51v-2.22h16.2v1.3l-13.27,16.5h13.71v2.22Z"/><path class="cls-5" d="M1685.91,483.43c-2.46,1.94-5.18,2.9-8.17,2.9-2.07,0-3.92-.46-5.56-1.39-1.64-.93-2.92-2.19-3.85-3.79-.93-1.6-1.4-3.42-1.4-5.45s.44-3.71,1.31-5.25c.87-1.53,2.07-2.74,3.59-3.62s3.25-1.32,5.19-1.32,3.69.46,5.19,1.39c1.49.93,2.66,2.21,3.5,3.84.84,1.64,1.26,3.53,1.26,5.68v.62h-17.38c.16,1.4.62,2.63,1.39,3.68.77,1.05,1.75,1.88,2.95,2.46,1.2.59,2.55.88,4.04.88,2.46,0,4.71-.81,6.77-2.44l1.16,1.8ZM1669.52,474.92h15.15c-.12-1.43-.51-2.68-1.18-3.74-.67-1.07-1.54-1.9-2.63-2.5s-2.33-.9-3.71-.9-2.66.3-3.77.9-2.01,1.44-2.68,2.51c-.67,1.07-1.06,2.32-1.17,3.73Z"/><path class="cls-5" d="M1711.26,485.93h-2.22l-.12-3.84c-.85,1.32-2,2.36-3.43,3.11-1.44.75-3.03,1.13-4.77,1.13-1.98,0-3.74-.45-5.3-1.36-1.55-.91-2.78-2.15-3.68-3.72-.9-1.57-1.35-3.35-1.35-5.33s.45-3.77,1.35-5.34c.9-1.57,2.13-2.81,3.68-3.71,1.55-.91,3.32-1.36,5.3-1.36,1.71,0,3.27.36,4.68,1.09,1.41.73,2.55,1.73,3.4,3.01v-13.71h2.46v30.03ZM1700.87,484.11c1.45,0,2.78-.34,3.98-1.01,1.2-.67,2.16-1.59,2.87-2.76.71-1.17,1.07-2.49,1.07-3.97v-.9c0-1.47-.35-2.79-1.06-3.95-.71-1.17-1.66-2.09-2.85-2.76-1.19-.67-2.53-1.01-4.01-1.01s-2.87.36-4.07,1.07c-1.21.71-2.16,1.69-2.85,2.92-.69,1.23-1.04,2.63-1.04,4.17s.35,2.96,1.04,4.19c.69,1.23,1.64,2.21,2.84,2.93s2.56,1.08,4.08,1.08Z"/><path class="cls-5" d="M1748.41,485.93h-2.82l-5.1-16.42-5.1,16.42h-2.8l-6.51-20.02h2.6l5.29,16.9,5.37-16.9h2.32l5.37,16.9,5.31-16.9h2.6l-6.51,20.02Z"/><path class="cls-5" d="M1777.76,485.93h-2.46v-11.21c0-2.14-.59-3.83-1.76-5.07-1.17-1.25-2.76-1.87-4.74-1.87s-3.7.66-4.94,1.97c-1.24,1.31-1.86,3.07-1.86,5.26v10.93h-2.46v-20.02h2.18l.08,3.76c.69-1.35,1.67-2.38,2.92-3.09,1.25-.71,2.75-1.07,4.48-1.07,2.67,0,4.76.8,6.29,2.4s2.28,3.82,2.28,6.65v11.37Z"/><path class="cls-5" d="M1785.37,458.89c-.47,0-.86-.16-1.17-.49-.31-.33-.47-.72-.47-1.19s.16-.84.47-1.16.7-.48,1.17-.48.88.16,1.21.48c.33.32.49.71.49,1.16s-.16.86-.49,1.19c-.33.33-.73.49-1.21.49ZM1786.61,485.93h-2.46v-20.02h2.46v20.02Z"/><path class="cls-5" d="M1810.79,483.43c-2.46,1.94-5.18,2.9-8.17,2.9-2.07,0-3.92-.46-5.56-1.39-1.64-.93-2.92-2.19-3.85-3.79-.93-1.6-1.4-3.42-1.4-5.45s.44-3.71,1.31-5.25c.87-1.53,2.07-2.74,3.59-3.62s3.25-1.32,5.19-1.32,3.69.46,5.19,1.39c1.49.93,2.66,2.21,3.5,3.84.84,1.64,1.26,3.53,1.26,5.68v.62h-17.38c.16,1.4.62,2.63,1.39,3.68.77,1.05,1.75,1.88,2.95,2.46,1.2.59,2.55.88,4.04.88,2.46,0,4.71-.81,6.77-2.44l1.16,1.8ZM1794.4,474.92h15.15c-.12-1.43-.51-2.68-1.18-3.74-.67-1.07-1.54-1.9-2.63-2.5s-2.33-.9-3.71-.9-2.66.3-3.77.9-2.01,1.44-2.68,2.51c-.67,1.07-1.06,2.32-1.17,3.73Z"/><path class="cls-5" d="M1815.46,484.19l.72-2.28c.49.45,1.04.84,1.65,1.16.61.32,1.24.57,1.9.74.66.17,1.33.26,2.01.26,1.36,0,2.47-.33,3.32-1,.85-.67,1.28-1.53,1.28-2.6,0-.76-.21-1.38-.64-1.87-.43-.49-.99-.9-1.68-1.25-.69-.35-1.43-.67-2.2-.98-.89-.35-1.77-.74-2.62-1.17-.85-.43-1.56-1-2.11-1.69-.55-.69-.83-1.61-.83-2.74,0-1.07.26-1.99.79-2.77s1.27-1.39,2.22-1.82c.95-.43,2.06-.65,3.31-.65,1.8,0,3.58.44,5.33,1.32l-.76,2.22c-.41-.25-.88-.48-1.4-.67-.52-.19-1.05-.34-1.6-.45-.55-.11-1.07-.16-1.56-.16-1.13,0-2.05.27-2.74.81-.69.54-1.04,1.25-1.04,2.13,0,.57.16,1.07.47,1.49.31.42.79.81,1.43,1.17s1.44.74,2.4,1.14c.92.37,1.82.8,2.7,1.27.88.47,1.61,1.08,2.19,1.81.58.73.87,1.69.87,2.86s-.3,2.17-.89,3.05c-.59.89-1.41,1.58-2.46,2.07-1.05.49-2.27.74-3.65.74-2.31,0-4.44-.71-6.41-2.14Z"/><path class="cls-5" d="M1835.48,458.89c-.47,0-.86-.16-1.17-.49-.31-.33-.47-.72-.47-1.19s.16-.84.47-1.16.7-.48,1.17-.48.88.16,1.21.48c.33.32.49.71.49,1.16s-.16.86-.49,1.19c-.33.33-.73.49-1.21.49ZM1836.72,485.93h-2.46v-20.02h2.46v20.02Z"/><path class="cls-5" d="M1860.9,483.43c-2.46,1.94-5.18,2.9-8.17,2.9-2.07,0-3.92-.46-5.56-1.39-1.64-.93-2.92-2.19-3.85-3.79-.93-1.6-1.4-3.42-1.4-5.45s.44-3.71,1.31-5.25c.87-1.53,2.07-2.74,3.59-3.62s3.25-1.32,5.19-1.32,3.69.46,5.19,1.39c1.49.93,2.66,2.21,3.5,3.84.84,1.64,1.26,3.53,1.26,5.68v.62h-17.38c.16,1.4.62,2.63,1.39,3.68.77,1.05,1.75,1.88,2.95,2.46,1.2.59,2.55.88,4.04.88,2.46,0,4.71-.81,6.77-2.44l1.16,1.8ZM1844.51,474.92h15.15c-.12-1.43-.51-2.68-1.18-3.74-.67-1.07-1.54-1.9-2.63-2.5s-2.33-.9-3.71-.9-2.66.3-3.77.9-2.01,1.44-2.68,2.51c-.67,1.07-1.06,2.32-1.17,3.73Z"/><path class="cls-5" d="M1885.21,485.93h-2.46v-11.21c0-2.14-.59-3.83-1.76-5.07-1.17-1.25-2.76-1.87-4.74-1.87s-3.7.66-4.94,1.97c-1.24,1.31-1.86,3.07-1.86,5.26v10.93h-2.46v-20.02h2.18l.08,3.76c.69-1.35,1.67-2.38,2.92-3.09,1.25-.71,2.75-1.07,4.48-1.07,2.67,0,4.76.8,6.29,2.4s2.28,3.82,2.28,6.65v11.37Z"/><path class="cls-5" d="M1892.81,458.89c-.47,0-.86-.16-1.17-.49-.31-.33-.47-.72-.47-1.19s.16-.84.47-1.16.7-.48,1.17-.48.88.16,1.21.48c.33.32.49.71.49,1.16s-.16.86-.49,1.19c-.33.33-.73.49-1.21.49ZM1894.05,485.93h-2.46v-20.02h2.46v20.02Z"/><path class="cls-5" d="M1918.24,483.43c-2.46,1.94-5.18,2.9-8.17,2.9-2.07,0-3.92-.46-5.56-1.39-1.64-.93-2.92-2.19-3.85-3.79-.93-1.6-1.4-3.42-1.4-5.45s.44-3.71,1.31-5.25c.87-1.53,2.07-2.74,3.59-3.62s3.25-1.32,5.19-1.32,3.69.46,5.19,1.39c1.49.93,2.66,2.21,3.5,3.84.84,1.64,1.26,3.53,1.26,5.68v.62h-17.38c.16,1.4.62,2.63,1.39,3.68.77,1.05,1.75,1.88,2.95,2.46,1.2.59,2.55.88,4.04.88,2.46,0,4.71-.81,6.77-2.44l1.16,1.8ZM1901.84,474.92h15.15c-.12-1.43-.51-2.68-1.18-3.74-.67-1.07-1.54-1.9-2.63-2.5s-2.33-.9-3.71-.9-2.66.3-3.77.9-2.01,1.44-2.68,2.51c-.67,1.07-1.06,2.32-1.17,3.73Z"/><path class="cls-5" d="M1955.69,485.93h-2.46v-10.87c0-2.31-.52-4.11-1.56-5.4-1.04-1.29-2.5-1.93-4.36-1.93s-3.36.65-4.44,1.95-1.62,3.09-1.62,5.38v10.87h-2.46v-10.87c0-2.31-.52-4.11-1.56-5.4-1.04-1.29-2.5-1.93-4.38-1.93s-3.36.65-4.44,1.95-1.62,3.09-1.62,5.38v10.87h-2.46v-20.02h2.04l.1,3.94c.64-1.43,1.55-2.51,2.73-3.24,1.18-.73,2.59-1.1,4.23-1.1,1.77,0,3.28.43,4.5,1.28,1.23.85,2.11,2.08,2.64,3.66.6-1.61,1.52-2.84,2.75-3.68s2.74-1.26,4.51-1.26c2.48,0,4.41.79,5.8,2.38,1.38,1.59,2.07,3.81,2.07,6.67v11.37Z"/><path class="cls-5" d="M1974.65,495.94h-2.46v-30.03h2.22l.1,3.84c.87-1.32,2.02-2.36,3.46-3.11,1.44-.75,3.04-1.13,4.78-1.13,1.96,0,3.72.45,5.27,1.36,1.55.91,2.78,2.15,3.68,3.71.9,1.57,1.35,3.35,1.35,5.34s-.45,3.75-1.35,5.33c-.9,1.57-2.13,2.82-3.68,3.72-1.55.91-3.31,1.36-5.27,1.36-1.71,0-3.27-.36-4.68-1.08-1.42-.72-2.56-1.72-3.42-3v13.69ZM1982.62,484.07c1.52,0,2.88-.35,4.07-1.05,1.19-.7,2.13-1.67,2.8-2.9.67-1.23,1.01-2.64,1.01-4.21s-.34-2.98-1.02-4.2c-.68-1.23-1.62-2.2-2.8-2.9-1.19-.71-2.54-1.06-4.06-1.06-1.44,0-2.75.32-3.93.97-1.18.65-2.13,1.54-2.85,2.67-.72,1.13-1.11,2.42-1.18,3.86v1.36c.07,1.44.46,2.73,1.17,3.85.71,1.13,1.66,2.01,2.84,2.65,1.18.64,2.5.96,3.95.96Z"/><path class="cls-5" d="M2006.88,486.33c-1.98,0-3.75-.45-5.33-1.36-1.58-.91-2.82-2.15-3.72-3.71-.91-1.57-1.36-3.35-1.36-5.34s.45-3.75,1.36-5.32c.91-1.57,2.15-2.81,3.72-3.72,1.57-.91,3.35-1.37,5.33-1.37s3.72.46,5.29,1.37c1.56.91,2.8,2.16,3.7,3.72.91,1.57,1.36,3.34,1.36,5.32s-.45,3.75-1.36,5.33c-.91,1.57-2.14,2.82-3.7,3.72-1.56.91-3.32,1.36-5.29,1.36ZM2006.86,484.11c1.49,0,2.83-.36,4.01-1.08,1.18-.72,2.12-1.7,2.8-2.93.69-1.23,1.03-2.63,1.03-4.19s-.34-2.92-1.03-4.15c-.69-1.23-1.62-2.21-2.8-2.93-1.18-.72-2.52-1.08-4.01-1.08s-2.84.36-4.02,1.08c-1.19.72-2.13,1.7-2.81,2.93-.69,1.23-1.03,2.62-1.03,4.15s.34,2.96,1.03,4.19c.69,1.23,1.62,2.21,2.81,2.93,1.19.72,2.53,1.08,4.02,1.08Z"/><path class="cls-5" d="M2037.9,485.93h-17.26v-1.46l13.13-16.34h-12.51v-2.22h16.2v1.3l-13.27,16.5h13.71v2.22Z"/><path class="cls-5" d="M2063.24,485.93h-2.82l-5.1-16.42-5.1,16.42h-2.8l-6.51-20.02h2.6l5.29,16.9,5.37-16.9h2.32l5.37,16.9,5.31-16.9h2.6l-6.51,20.02Z"/><path class="cls-5" d="M2092.07,485.93h-2.18l-.08-3.76c-.71,1.35-1.68,2.38-2.91,3.09-1.23.71-2.71,1.07-4.43,1.07-2.64,0-4.72-.8-6.24-2.41-1.51-1.61-2.27-3.82-2.27-6.64v-11.37h2.46v11.21c0,2.14.58,3.83,1.74,5.07,1.16,1.25,2.73,1.87,4.7,1.87s3.68-.66,4.9-1.97c1.23-1.31,1.84-3.07,1.84-5.26v-10.93h2.46v20.02Z"/><path class="cls-5" d="M2099.9,486.33c-.48,0-.87-.15-1.18-.46-.31-.31-.46-.71-.46-1.2s.15-.9.46-1.21c.31-.31.7-.47,1.18-.47s.9.16,1.21.47c.31.31.47.72.47,1.21s-.16.89-.47,1.2-.72.46-1.21.46Z"/></g></svg>