<?xml version="1.0" encoding="UTF-8"?><svg id="Layer_2" xmlns="http://www.w3.org/2000/svg" xmlns:xlink="http://www.w3.org/1999/xlink" viewBox="0 0 2560 938.94"><defs><style>.cls-1{opacity:.85;}.cls-2{fill:#eadbc3;}.cls-2,.cls-3,.cls-4,.cls-5,.cls-6,.cls-7,.cls-8,.cls-9,.cls-10,.cls-11,.cls-12,.cls-13,.cls-14,.cls-15,.cls-16,.cls-17,.cls-18,.cls-19,.cls-20,.cls-21{stroke-width:0px;}.cls-22{opacity:.51;}.cls-23{mask:url(#mask-2);}.cls-4{fill:#ede4d1;}.cls-5{fill:#022b0c;}.cls-24,.cls-17{fill:#bf515e;}.cls-25{mask:url(#mask-3);}.cls-6{fill:url(#linear-gradient-5);}.cls-7{fill:#211010;}.cls-8{fill:url(#linear-gradient-4);}.cls-8,.cls-20{mix-blend-mode:multiply;}.cls-26{clip-path:url(#clippath-1);}.cls-9{fill:#a57e58;}.cls-10{fill:#fff;}.cls-11{fill:#ededed;}.cls-12{fill:#01240b;}.cls-13{fill:url(#linear-gradient-3);}.cls-27{clip-path:url(#clippath);}.cls-14{fill:#ffad86;}.cls-15{fill:#a13941;}.cls-16{fill:#ed8a72;}.cls-28{opacity:.42;}.cls-29{filter:url(#luminosity-noclip);}.cls-18{fill:#872d38;}.cls-30{mask:url(#mask-1);}.cls-31{mask:url(#mask);}.cls-19{fill:url(#linear-gradient);opacity:.36;}.cls-20{fill:url(#linear-gradient-2);}.cls-32{opacity:.61;}.cls-21{fill:#d7af80;}.cls-33{filter:url(#luminosity-noclip-3);}</style><linearGradient id="linear-gradient" x1="-134.97" y1="404.9" x2="2722.09" y2="495.96" gradientUnits="userSpaceOnUse"><stop offset=".04" stop-color="#ffdfc0" stop-opacity=".7"/><stop offset=".41" stop-color="#f3d0ac" stop-opacity=".79"/><stop offset="1" stop-color="#d7af80"/></linearGradient><clipPath id="clippath"><path class="cls-17" d="M616.62,431.61c-4.8,3.74-4.23,14.27,1.05,19.71,3.06,3.16,6.75,3.47,7.73,6.77.94,3.16-1.46,5.72-3.58,9.53,0,0-3.58,6.43-4.38,17.48-.7,9.62,7.12,26.4,13.27,26.24,5.96-.15,13.38-16.21,21.44-76.62.36-2.74-2.37-4.97-5.45-4.44-1.68.29-3.54.54-5.55.73-14.63,1.34-20.31-2.69-24.52.59Z"/></clipPath><filter id="luminosity-noclip" x="606.91" y="426.12" width="26.48" height="83.85" color-interpolation-filters="sRGB" filterUnits="userSpaceOnUse"><feFlood flood-color="#fff" result="bg"/><feBlend in="SourceGraphic" in2="bg"/></filter><filter id="luminosity-noclip-2" x="606.91" y="-14019.33" width="26.48" height="32766" color-interpolation-filters="sRGB" filterUnits="userSpaceOnUse"><feFlood flood-color="#fff" result="bg"/><feBlend in="SourceGraphic" in2="bg"/></filter><mask id="mask-1" x="606.91" y="-14019.33" width="26.48" height="32766" maskUnits="userSpaceOnUse"/><linearGradient id="linear-gradient-2" x1="577.33" y1="640.26" x2="603.38" y2="640.26" gradientTransform="translate(16.33 -159.11) rotate(-1.26)" gradientUnits="userSpaceOnUse"><stop offset=".25" stop-color="#fff"/><stop offset=".32" stop-color="#f3f3f3"/><stop offset=".43" stop-color="#d6d6d6"/><stop offset=".58" stop-color="#a5a5a5"/><stop offset=".76" stop-color="#626262"/><stop offset=".97" stop-color="#0e0e0e"/><stop offset="1" stop-color="#000"/></linearGradient><mask id="mask" x="606.91" y="426.12" width="26.48" height="83.85" maskUnits="userSpaceOnUse"><g class="cls-29"><g class="cls-30"><path class="cls-20" d="M611.58,427.67c4.34-2.54,11.54-1.78,13.32,1.12,1.84,3-3.67,5.78-3.12,11.44.55,5.73,8.79,8.69,11.31,14.96,2.1,5.23-7.06,16.89-7.84,25.03-2.24,23.33,3.72,23.21,2.87,26.7-.48,1.96-3.37,2.86-5.49,3.06-4.48.42-12.51-12.22-11.7-24.85.25-3.88,1.03-3.04,3.77-16.81,1.76-8.87,1.92-11.64.67-14.78-2.01-5.04-5.16-4.74-7.19-9.71-2-4.89-2.12-12.91,3.41-16.15Z"/></g></g></mask><linearGradient id="linear-gradient-3" x1="577.33" y1="640.26" x2="603.38" y2="640.26" gradientTransform="translate(16.33 -159.11) rotate(-1.26)" gradientUnits="userSpaceOnUse"><stop offset=".25" stop-color="#a13941"/><stop offset="1" stop-color="#a13941"/></linearGradient><clipPath id="clippath-1"><path class="cls-17" d="M615.92,393.63c-4.84-3.33-4.39-13.16.83-18.39,3.03-3.03,6.71-3.44,7.65-6.55.9-2.97-1.52-5.28-3.69-8.77,0,0-3.65-5.88-4.58-16.15-.81-8.94,6.81-24.81,12.97-24.85,5.96-.05,13.56,14.68,22.31,70.7.4,2.54-2.32,4.7-5.4,4.31-1.68-.21-3.54-.39-5.56-.5-14.64-.79-20.28,3.13-24.52.21Z"/></clipPath><filter id="luminosity-noclip-3" x="605.2" y="313.19" width="27.51" height="87.58" color-interpolation-filters="sRGB" filterUnits="userSpaceOnUse"><feFlood flood-color="#fff" result="bg"/><feBlend in="SourceGraphic" in2="bg"/></filter><filter id="luminosity-noclip-4" x="605.2" y="-14019.33" width="27.51" height="32766" color-interpolation-filters="sRGB" filterUnits="userSpaceOnUse"><feFlood flood-color="#fff" result="bg"/><feBlend in="SourceGraphic" in2="bg"/></filter><mask id="mask-3" x="605.2" y="-14019.33" width="27.51" height="32766" maskUnits="userSpaceOnUse"/><linearGradient id="linear-gradient-4" x1="576.62" y1="529.19" x2="604.62" y2="529.19" xlink:href="#linear-gradient-2"/><mask id="mask-2" x="605.2" y="313.19" width="27.51" height="87.58" maskUnits="userSpaceOnUse"><g class="cls-33"><g class="cls-25"><path class="cls-8" d="M618.51,313.19c2.81-.1,13.6,5.96,5.25,17.1-9.73,13,10.45,33.75,8.86,39.79-1.35,5.16-7.57,4.66-10.64,10.73-4.24,8.4,4.39,15.82.45,18.85-3.05,2.35-12.04.82-15.68-3.57-4.04-4.89.77-10.62,3.26-23.25,1.6-8.14.17-8.64.83-21.58.7-13.73,3.57-37.92,7.66-38.07Z"/></g></g></mask><linearGradient id="linear-gradient-5" x1="576.62" y1="529.19" x2="604.62" y2="529.19" gradientTransform="translate(16.33 -159.11) rotate(-1.26)" xlink:href="#linear-gradient-3"/></defs><g id="Layer_4"><g class="cls-32"><rect class="cls-2" x="1616.43" y="749.39" width="85.25" height="150.5"/><rect class="cls-2" x="1716.32" y="749.39" width="25.42" height="150.5"/><rect class="cls-2" x="1828.43" y="692.08" width="125.47" height="207.92"/><rect class="cls-2" x="2253.89" y="781.22" width="125.47" height="118.78"/><rect class="cls-2" x="2054.92" y="711.66" width="75.76" height="188.23"/><rect class="cls-2" x="2145.48" y="653.25" width="34.91" height="246.75"/><rect class="cls-4" x="1718.73" y="793.36" width="140.27" height="106.64"/><rect class="cls-4" x="1932.67" y="669.33" width="140.27" height="230.56"/><rect class="cls-4" x="2094.49" y="731.13" width="36.35" height="168.76"/><rect class="cls-4" x="2145.48" y="677.97" width="89.27" height="222.03"/><rect class="cls-2" x="2466.22" y="711.66" width="93.78" height="188.23"/><rect class="cls-4" x="2304.08" y="617.16" width="140.27" height="282.84"/><rect class="cls-2" y="732.22" width="125.47" height="167.67"/><rect class="cls-2" x="212.01" y="692.08" width="125.47" height="207.92"/><rect class="cls-2" x="637.47" y="781.22" width="125.47" height="118.78"/><rect class="cls-4" x="899.5" y="824.75" width="125.47" height="75.14"/><rect class="cls-2" x="438.49" y="711.66" width="125.47" height="188.23"/><rect class="cls-4" x="102.3" y="781.22" width="140.27" height="118.78"/><rect class="cls-4" x="316.24" y="669.33" width="98.12" height="230.56"/><rect class="cls-4" x="429" y="669.33" width="27.35" height="230.56"/><rect class="cls-4" x="478.06" y="731.13" width="140.27" height="168.76"/><rect class="cls-2" x="1205.12" y="816.11" width="67.4" height="83.89"/><rect class="cls-2" x="1287.32" y="816.11" width="43.27" height="83.89"/><rect class="cls-2" x="858.16" y="780.78" width="106.32" height="119.22"/><rect class="cls-4" x="1511.55" y="816.11" width="140.27" height="83.89"/><rect class="cls-2" x="1349.73" y="828.8" width="140.27" height="71.09"/><rect class="cls-4" x="687.65" y="731.13" width="140.27" height="168.76"/><rect class="cls-2" x="989.42" y="802.11" width="121.93" height="97.89"/><rect class="cls-4" x="1096.38" y="757.7" width="140.27" height="142.3"/></g><rect class="cls-19" width="2560" height="900"/><path class="cls-21" d="M970.65,330.27c-8.02,0-14.54-6.52-14.54-14.54s6.52-14.54,14.54-14.54,14.54,6.52,14.54,14.54-6.52,14.54-14.54,14.54ZM970.65,305.33c-5.74,0-10.41,4.67-10.41,10.41s4.67,10.41,10.41,10.41,10.41-4.67,10.41-10.41-4.67-10.41-10.41-10.41Z"/><rect class="cls-21" x="968.59" width="4.13" height="311.79"/><path class="cls-9" d="M1054.62,571.17h-38.36v-255.43h38.36c14.32,0,25.93,11.61,25.93,25.93v203.58c0,14.32-11.61,25.93-25.93,25.93Z"/><path class="cls-21" d="M876.48,315.7h175.87c9.74,0,17.65,7.91,17.65,17.65v220.12c0,9.74-7.91,17.65-17.65,17.65h-175.87c-9.74,0-17.65-7.91-17.65-17.65v-220.12c0-9.74,7.91-17.65,17.65-17.65Z"/><ellipse class="cls-10" cx="963.32" cy="443.42" rx="90.25" ry="90.12"/><ellipse class="cls-21" cx="963.32" cy="443.42" rx="70.65" ry="70.55"/><path class="cls-10" d="M1014.28,443.42c0,28.1-22.82,50.89-50.96,50.89s-50.97-22.78-50.97-50.89,22.82-50.89,50.97-50.89,50.96,22.78,50.96,50.89Z"/><path class="cls-21" d="M995.55,443.42c0,17.78-14.43,32.19-32.23,32.19s-32.23-14.41-32.23-32.19,14.43-32.18,32.23-32.18,32.23,14.41,32.23,32.18Z"/><path class="cls-10" d="M979.86,443.42c0,9.16-7.41,16.58-16.54,16.58s-16.54-7.42-16.54-16.58,7.41-16.58,16.54-16.58,16.54,7.42,16.54,16.58Z"/><polygon class="cls-15" points="960.07 439.88 874.49 433.48 861.08 423.49 864.23 433 858.88 442.35 874.26 435.71 959.91 442.11 960.07 439.88"/><g id="BM1"><path class="cls-14" d="M603.32,408.64c3.98-3.64,14.74-2.27,23.16-4.07,2.83-.61,7.01-2.68,8.93-3.68,1.61-.84,3.49-.92,5.15-.19,5.3,2.33,4.49,1.94,16.86,2.43,1.52.06-.89,9.07-10.3,7.79-3.27-.45-6.09-1.92-7.91-1.78-.24,1.18-1.39,5.86-4.2,7.88-1.34.96-3.13,1.65-7.12,1.55-1.63-.04-16.56-.55-18.05-7.41-.11-.52-7.9-1.25-6.52-2.52Z"/><polygon class="cls-5" points="404.23 422.53 404.26 428.46 515.74 437.55 614.55 428.17 623.13 395.76 537.91 401.99 443.25 392.88 404.23 422.53"/><polygon class="cls-10" points="629.1 399.24 622.55 398.02 615.31 425.32 621.88 424.91 629.1 399.24"/><path class="cls-7" d="M267.89,883.44c-2.71,1.13-15.61,19.11-15.61,19.11l-2.26,11.77,34.28,14.83,25.05,9.8,5.26-15.54-28.73-27.82-17.99-12.15Z"/><path class="cls-7" d="M442.07,888.3c1.85,2.26,0,0,0,0l15.86,22.52,29.95,11.35-5.37,16.77-66.54-.44-3.99-7.34s.35-15.74,1.63-16.25l6.2-29.87,22.26,3.25Z"/><path class="cls-12" d="M430.47,382.36l-41.21-9.41-17.85.47c-6.27,3.55-12.54,7.1-18.8,10.65-8.95,3.63-17.89,7.26-26.84,10.89l-2.69,44.39-1.42,17.28,4.54,65.42-4.19,44.3-15.01,59.52,16.92,19.83-13.88,116.47-54.17,127.31,44.87,15.03,60.91-126.73,25.49-124.23.9.24,25.72,105.27-.53,146.8,45.11,1.54,6.43-145.69-15.61-124.75,4.77-9.23-3.27-83.19.18-108.19.55-41.48-20.95-12.49Z"/><path class="cls-12" d="M430.47,382.36l-41.21-9.41c-5.78.49-11.57.98-17.35,1.47-5.94,3.4-11.88,6.8-17.82,10.21-11.72,3.7-24.72,8.52-38.5,14.87-16.23,7.48-30.2,15.53-41.92,23.17,12.86,15.01,25.73,30.03,38.59,45.04l9.21,54.19-4.19,44.3-10.28,59.68,16.92,19.83,22.75,11.71,14.66-41.4,64.91-1.14,6.02,23.35,16.92-1.26,4.77-9.23,2.12-83.05,1.26-76.19-5.92-73.62-20.95-12.49Z"/><polygon class="cls-16" points="370.78 383.69 407.99 447.79 426.51 397.56 422.27 384.75 420.18 382.95 423.05 348.55 383.55 344.44 380.18 370.89 370.78 383.69"/><path class="cls-10" d="M411.22,401.29c-32.03,2.5-35.19-23.83-35.19-23.83l2.8-4.72-20.47,12.44,7.79,61.91-4.81,168.9c27.88,2.54,55.99,1.64,71.31-1.25l4.99-88.73,1.24-75.38.62-38.47-9.18-25.52-9.67-9.52-.48,5.81s6.34,17.14-8.96,18.34Z"/><path class="cls-14" d="M415.15,284.51s-27.57,4.04-35.66,6.39c-24.59,7.15-25.27,20.15-17.03,47.41,5.05,16.72,26.53,20.58,26.53,20.58l5.56,9.12c5.72.95,24.46,8.74,24.46,8.74l19.35-4.08,3.96-22.95s-6.81-33.66-7.38-35.02c0,0-2.44-13.96-7.51-21.89-4.05-6.34-12.26-8.32-12.26-8.32Z"/><path class="cls-7" d="M421.27,271.24l-17.25,3.44s-21.33,4.1-26.67,5.65c-23.84,6.93-28.68,33.73-19.73,59.86l14.77,19.49,10.11,6.1,2.71-18.94c3.54-1.69,11.95-5.81,11.95-5.81l-6.06-28.14,8.5-14.71,23.11-1.6,5.98-1.49,3.34-6.24-1.92-9.12-3.08,1.59-5.75-10.05Z"/><path class="cls-14" d="M397.74,339.33c-.36,6.99-.88,10.74-6.84,9.45-3.2-.7-7.21-1.41-9.26-10.54-1.54-6.85,2.72-13,8.82-12.71,6.1.29,7.63,6.82,7.28,13.81Z"/><polygon class="cls-15" points="402.16 407.81 393.69 415.84 398.11 424.83 412.86 424.1 415.62 414.76 406.25 407.61 402.16 407.81"/><polygon class="cls-15" points="399.04 427.27 413.15 426.57 427.52 556.75 413.01 584.12 392.25 561.04 399.04 427.27"/></g><path class="cls-18" d="M641.49,442.53l-5.81-.88c1.83-8.64,2.71-17.45,2.61-26.2-.12-10.54-1.65-21.06-4.56-31.28l5.73-1.33c3.02,10.61,4.61,21.54,4.74,32.48.1,9.08-.81,18.24-2.72,27.21Z"/><path class="cls-24" d="M616.62,431.61c-4.8,3.74-4.23,14.27,1.05,19.71,3.06,3.16,6.75,3.47,7.73,6.77.94,3.16-1.46,5.72-3.58,9.53,0,0-3.58,6.43-4.38,17.48-.7,9.62,7.12,26.4,13.27,26.24,5.96-.15,13.38-16.21,21.44-76.62.36-2.74-2.37-4.97-5.45-4.44-1.68.29-3.54.54-5.55.73-14.63,1.34-20.31-2.69-24.52.59Z"/><g class="cls-27"><g class="cls-31"><path class="cls-13" d="M611.58,427.67c4.34-2.54,11.54-1.78,13.32,1.12,1.84,3-3.67,5.78-3.12,11.44.55,5.73,8.79,8.69,11.31,14.96,2.1,5.23-7.06,16.89-7.84,25.03-2.24,23.33,3.72,23.21,2.87,26.7-.48,1.96-3.37,2.86-5.49,3.06-4.48.42-12.51-12.22-11.7-24.85.25-3.88,1.03-3.04,3.77-16.81,1.76-8.87,1.92-11.64.67-14.78-2.01-5.04-5.16-4.74-7.19-9.71-2-4.89-2.12-12.91,3.41-16.15Z"/></g></g><path class="cls-24" d="M615.92,393.63c-4.84-3.33-4.39-13.16.83-18.39,3.03-3.03,6.71-3.44,7.65-6.55.9-2.97-1.52-5.28-3.69-8.77,0,0-3.65-5.88-4.58-16.15-.81-8.94,6.81-24.81,12.97-24.85,5.96-.05,13.56,14.68,22.31,70.7.4,2.54-2.32,4.7-5.4,4.31-1.68-.21-3.54-.39-5.56-.5-14.64-.79-20.28,3.13-24.52.21Z"/><g class="cls-26"><g class="cls-23"><path class="cls-6" d="M618.51,313.19c2.81-.1,13.6,5.96,5.25,17.1-9.73,13,10.45,33.75,8.86,39.79-1.35,5.16-7.57,4.66-10.64,10.73-4.24,8.4,4.39,15.82.45,18.85-3.05,2.35-12.04.82-15.68-3.57-4.04-4.89.77-10.62,3.26-23.25,1.6-8.14.17-8.64.83-21.58.7-13.73,3.57-37.92,7.66-38.07Z"/></g></g><path class="cls-17" d="M632.05,331.34c-6.24-20.28-16.85-35.84-31.53-46.24-5.46-3.86-10.83-6.59-16.02-9.23-9.01-4.57-17.52-8.89-24.85-18.28-6.81-8.72-10.63-19.33-11.36-31.54l3.69-.21c.69,11.61,4.3,21.66,10.73,29.89,6.87,8.79,15.03,12.94,23.68,17.32,5.32,2.7,10.81,5.49,16.49,9.51,15.29,10.83,26.31,26.94,32.76,47.89l-3.57.89Z"/><path class="cls-17" d="M543.9,592.48l-3.64-.48c2.23-12.1,7.35-22.4,15.2-30.59,8.46-8.83,17.46-12.52,26.99-16.44,5.5-2.26,11.18-4.59,17.09-8.05,15.9-9.31,28.38-24.05,37.1-43.8l3.44,1.14c-9.01,20.4-21.97,35.66-38.52,45.36-6.15,3.6-11.96,5.99-17.59,8.3-9.15,3.75-17.78,7.3-25.71,15.57-7.41,7.73-12.25,17.49-14.37,29Z"/><polygon class="cls-15" points="405.01 400.43 404.94 398.19 679.95 388.84 680.01 391.08 405.01 400.43"/><path class="cls-15" d="M678,382.93c4.24,2.39,8.48,4.77,12.71,7.16-4.07,2.47-8.14,4.93-12.21,7.4-.17-4.85-.34-9.71-.51-14.56Z"/><polygon class="cls-17" points="409.21 395.13 407.81 394.09 554.33 241.32 555.73 242.36 409.21 395.13"/><polygon class="cls-17" points="547.18 575.37 404.23 400.47 405.74 399.51 548.68 574.41 547.18 575.37"/><path class="cls-14" d="M626.49,408.69c-1.3,4.76-2.6,9.53-3.9,14.29,6.52,3.62,16.31,7.49,26.68,5.45,1.23-.24,9.44-1.94,9.87-5.48.25-2.02-2.24-3.05-2.35-6.18-.12-3.35,2.67-4.48,2.43-6.4-.54-4.34-13.43-8.52-24.79-5.31-3.46.98-6.14,2.46-7.94,3.64Z"/><path class="cls-14" d="M409.04,392.45c-1.14-1.8-2.84-3.1-4.8-4.05,2.06-.7,3.73-1.83,5.04-3,1.59-1.42,1.66-5.95-.17-7.02-.01,0-8.42,2.35-9.22,2.58-7.22,2.07-4.02-.26-17.64,2.97-14.25,3.37-21.68,6.38-24.93,13.89-.32.74-.87,2.03-1.12,3.43-1.36,1-2.35,1.96-1.72,4.27,3.15,11.47,30.61,12.66,47.98,8.81,1.55-.34,6.58-4.31,6.16-7.96-.28-2.39-2.87-3.94-2.23-5.45.58-1.36,2.95-.73,3.95-2.2,1.35-1.98-1.06-5.88-1.31-6.27Z"/><path class="cls-12" d="M323.28,481.31c-15.95-6.56-28.98-12.87-38.6-17.82-11.4-5.87-21.83-11.22-32.66-21.16-8.14-7.47-11.57-12.87-12.8-19.11-.38-1.92-2.09-10.57,2.94-17.91.95-1.39,3.05-4.05,9.31-7.43,4.77-2.57,13.19-6.21,25.24-7.05,29.75-2.75,59.51-5.51,89.26-8.26.91,12.95,1.81,25.9,2.72,38.85-23.59,1.48-47.18,2.97-70.77,4.45,6.68.58,13.36,1.15,20.04,1.73,1.77,17.9,3.55,35.8,5.32,53.69Z"/><polygon class="cls-11" points="368.58 417.29 377.06 417.78 374.45 384.16 366.06 384.75 368.58 417.29"/><path class="cls-5" d="M316.02,478.33c-5.9-2.77-16.99-7.99-31.33-14.84-18.83-8.99-27.59-13.06-35.72-22.65-3.83-4.52-6.31-8.81-7.83-11.78,12.92,4.42,25.84,8.85,38.75,13.27,27.75-6.93,55.51-13.86,83.26-20.78-10.7,6.46-21.83,12.91-33.4,19.3-6.5,3.59-12.93,7.05-19.3,10.39,1.86,9.03,3.71,18.06,5.57,27.09Z"/><g class="cls-1"><path class="cls-10" d="M141.03,339.1c2.18-3.06,2.53-7.45.87-10.86-1.66-3.4-5.25-5.64-8.87-5.52,4.33-8.06,1.51-19.51-5.97-24.31-7.48-4.8-18.38-2.14-23.12,5.65-.55-3.49-3.57-6.36-6.9-6.57-3.33-.21-6.65,2.25-7.6,5.65-2.49-1.87-5.38-3.12-8.37-3.79-8.45-1.88-17.74,1.28-23.58,8.01-5.84,6.73-8.02,16.8-5.54,25.56-.96-1.91-3.75-1.36-5.37-.04-2.01,1.62-3.49,4.62-2.25,6.95,0,0,63.98-.99,96.22-.07"/></g><g class="cls-1"><path class="cls-10" d="M580.15,175.86c-1.94-7.03-.5-11.98,4.99-17.03,5.48-5.05,15.46-5.71,22.77-3.62-.9-5.07,1.88-10.55,6.62-13.02,4.73-2.47,11.07-1.76,15.08,1.69-1.73-13.96,9.28-28.28,23.77-30.92,14.49-2.64,30.26,6.81,34.05,20.4,5.05-2.3,11.5-1.45,15.71,2.07,4.2,3.52,5.91,9.52,4.16,14.58,5.96.7,11.44,4.39,14.14,9.5,2.69,5.12,2.52,11.51-.45,16.48-41.33.34-135.86.21-140.83-.14"/></g><path class="cls-3" d="M1278.66,164.49h-6.9l-34.99-45.46v45.46h-6.53v-55.66h6.9l34.99,45.46v-45.46h6.53v55.66Z"/><path class="cls-3" d="M1293.36,115.65c-1.04,0-1.91-.36-2.62-1.09-.71-.73-1.06-1.61-1.06-2.65s.35-1.88,1.06-2.6c.71-.72,1.58-1.08,2.62-1.08s1.95.36,2.67,1.08c.72.72,1.08,1.58,1.08,2.6s-.36,1.92-1.08,2.65c-.72.73-1.61,1.09-2.67,1.09ZM1296.4,164.49h-6.09v-37.11h6.09v37.11Z"/><path class="cls-3" d="M1340.63,159.93c-4.6,3.54-9.67,5.31-15.21,5.31-3.86,0-7.32-.87-10.39-2.6-3.07-1.73-5.49-4.09-7.25-7.07-1.77-2.98-2.65-6.35-2.65-10.11s.82-6.83,2.45-9.67c1.63-2.83,3.87-5.07,6.72-6.7,2.84-1.63,6.07-2.45,9.69-2.45s6.98.89,9.82,2.67c2.83,1.78,5.04,4.26,6.62,7.42,1.58,3.17,2.38,6.83,2.38,10.98v1.19h-31.06c.45,2.18,1.34,4.07,2.69,5.68,1.35,1.61,3.02,2.86,5.03,3.75s4.24,1.34,6.72,1.34c4.25,0,8.14-1.4,11.65-4.19l2.82,4.45ZM1311.5,143.71h25.53c-.27-2.3-.98-4.31-2.13-6.03-1.15-1.72-2.63-3.06-4.45-4.03s-3.87-1.45-6.14-1.45-4.37.48-6.22,1.45c-1.84.96-3.34,2.31-4.49,4.03-1.15,1.72-1.85,3.73-2.1,6.03Z"/><path class="cls-3" d="M1400.05,164.49h-33.14v-3.38l22.97-28.24h-21.86v-5.49h31.1v2.93l-23.3,28.69h24.23v5.49Z"/><path class="cls-3" d="M1437.42,164.49h-5.23l-.41-4.9c-1.36,1.76-3.09,3.14-5.2,4.14-2.1,1-4.45,1.5-7.05,1.5s-5.06-.53-7.16-1.58c-2.1-1.05-3.75-2.49-4.95-4.32-1.2-1.83-1.8-3.91-1.8-6.23,0-2.45.65-4.61,1.95-6.48,1.3-1.87,3.07-3.33,5.31-4.4,2.24-1.06,4.78-1.6,7.63-1.6,1.86,0,3.75.23,5.68.69,1.93.46,3.65,1.08,5.16,1.87v-1.56c0-1.98-.5-3.67-1.48-5.07-.99-1.4-2.31-2.47-3.97-3.23-1.66-.75-3.49-1.13-5.49-1.13-1.73,0-3.5.32-5.31.95-1.81.63-3.54,1.6-5.2,2.91l-2-5.23c2.15-1.39,4.42-2.43,6.79-3.14s4.72-1.06,7.05-1.06c3.22,0,5.99.65,8.33,1.95s4.15,3.14,5.44,5.53c1.29,2.39,1.93,5.21,1.93,8.48v21.89ZM1420.6,159.67c1.9,0,3.65-.4,5.23-1.19s2.87-1.94,3.86-3.43c.99-1.5,1.53-3.27,1.63-5.33v-.63c-1.36-1.06-2.89-1.89-4.58-2.47-1.7-.58-3.42-.87-5.18-.87-2.75,0-5.04.67-6.88,2-1.84,1.34-2.76,3.03-2.76,5.08,0,1.29.38,2.45,1.13,3.49.75,1.04,1.79,1.86,3.1,2.45,1.31.59,2.79.89,4.45.89Z"/><path class="cls-3" d="M1468.59,163.6c-2.45,1.09-4.84,1.63-7.16,1.63s-4.18-.49-5.86-1.47c-1.68-.98-2.99-2.35-3.93-4.12-.94-1.77-1.41-3.83-1.41-6.18v-20.63h-6.49v-5.46h6.79v-9.28h5.79v9.28h11.1v5.46h-11.1v19.52c0,2.23.6,4.02,1.8,5.38,1.2,1.36,2.78,2.04,4.73,2.04,1.58,0,3.17-.47,4.75-1.41l1,5.23Z"/><path class="cls-3" d="M1481.72,164.49h-6.09v-37.11h5.34l.26,7.35c1.29-2.55,3.1-4.53,5.44-5.96,2.34-1.42,5.03-2.13,8.07-2.13.67,0,1.35.04,2.04.11.69.07,1.38.19,2.08.33l-.74,5.49c-1.36-.32-2.71-.48-4.04-.48-2.42,0-4.57.59-6.44,1.78-1.87,1.19-3.32,2.82-4.36,4.9s-1.56,4.47-1.56,7.16v18.55Z"/><path class="cls-3" d="M1539.17,164.49h-5.34l-.22-6.01c-1.36,2.18-3.15,3.85-5.36,5.01-2.21,1.16-4.83,1.74-7.85,1.74-4.92,0-8.81-1.49-11.67-4.47-2.86-2.98-4.29-7.06-4.29-12.23v-21.15h6.09v20.71c0,3.51,1,6.32,2.99,8.42,1.99,2.1,4.64,3.15,7.96,3.15s6.26-1.14,8.41-3.41c2.14-2.28,3.21-5.24,3.21-8.91v-19.96h6.09v37.11Z"/><path class="cls-3" d="M1586.89,164.49h-5.42l-.33-5.42c-1.71,1.91-3.79,3.41-6.23,4.51s-5.12,1.65-8.02,1.65c-3.66,0-6.94-.84-9.83-2.52-2.89-1.68-5.18-3.98-6.85-6.9-1.67-2.92-2.5-6.21-2.5-9.87s.83-6.98,2.5-9.89c1.67-2.91,3.95-5.2,6.85-6.88,2.89-1.68,6.17-2.52,9.83-2.52,2.79,0,5.39.51,7.77,1.52,2.39,1.01,4.43,2.42,6.14,4.23v-23.56h6.09v55.66ZM1567.41,159.74c2.47,0,4.72-.58,6.75-1.73,2.03-1.15,3.64-2.72,4.84-4.71,1.2-1.99,1.8-4.25,1.8-6.77v-1.26c0-2.52-.6-4.78-1.8-6.77-1.2-1.99-2.81-3.56-4.84-4.69-2.03-1.14-4.28-1.71-6.75-1.71s-4.87.61-6.9,1.82c-2.03,1.21-3.63,2.86-4.81,4.94-1.18,2.08-1.76,4.43-1.76,7.05s.59,4.98,1.76,7.07c1.17,2.09,2.78,3.74,4.81,4.95,2.03,1.21,4.33,1.82,6.9,1.82Z"/><path class="cls-3" d="M1633.13,164.49h-6.09v-20.71c0-3.51-1-6.32-3.01-8.42-2-2.1-4.66-3.15-7.98-3.15s-6.23,1.13-8.37,3.4c-2.14,2.26-3.21,5.24-3.21,8.92v19.96h-6.09v-37.11h5.31l.22,6.01c1.36-2.18,3.15-3.85,5.38-5.01,2.23-1.16,4.85-1.74,7.87-1.74,4.92,0,8.81,1.48,11.67,4.45s4.29,7.04,4.29,12.21v21.19Z"/><path class="cls-3" d="M1647.08,115.65c-1.04,0-1.91-.36-2.62-1.09-.71-.73-1.06-1.61-1.06-2.65s.35-1.88,1.06-2.6c.71-.72,1.58-1.08,2.62-1.08s1.95.36,2.67,1.08c.72.72,1.08,1.58,1.08,2.6s-.36,1.92-1.08,2.65c-.72.73-1.61,1.09-2.67,1.09ZM1650.13,164.49h-6.09v-37.11h6.09v37.11Z"/><path class="cls-3" d="M1691.76,164.49h-5.23l-.41-4.9c-1.36,1.76-3.09,3.14-5.2,4.14-2.1,1-4.45,1.5-7.05,1.5s-5.06-.53-7.16-1.58c-2.1-1.05-3.75-2.49-4.95-4.32-1.2-1.83-1.8-3.91-1.8-6.23,0-2.45.65-4.61,1.95-6.48,1.3-1.87,3.07-3.33,5.31-4.4,2.24-1.06,4.78-1.6,7.63-1.6,1.86,0,3.75.23,5.68.69,1.93.46,3.65,1.08,5.16,1.87v-1.56c0-1.98-.5-3.67-1.48-5.07-.99-1.4-2.31-2.47-3.97-3.23-1.66-.75-3.49-1.13-5.49-1.13-1.73,0-3.5.32-5.31.95-1.81.63-3.54,1.6-5.2,2.91l-2-5.23c2.15-1.39,4.42-2.43,6.79-3.14s4.72-1.06,7.05-1.06c3.22,0,5.99.65,8.33,1.95s4.15,3.14,5.44,5.53c1.29,2.39,1.93,5.21,1.93,8.48v21.89ZM1674.95,159.67c1.9,0,3.65-.4,5.23-1.19s2.87-1.94,3.86-3.43c.99-1.5,1.53-3.27,1.63-5.33v-.63c-1.36-1.06-2.89-1.89-4.58-2.47-1.7-.58-3.42-.87-5.18-.87-2.75,0-5.04.67-6.88,2-1.84,1.34-2.76,3.03-2.76,5.08,0,1.29.38,2.45,1.13,3.49.75,1.04,1.79,1.86,3.1,2.45,1.31.59,2.79.89,4.45.89Z"/><path class="cls-3" d="M1692.58,183.3v-4.86c.4.07.77.12,1.13.15.36.02.71.04,1.06.04,2.57,0,4.65-.92,6.23-2.75,1.58-1.83,2.38-4.29,2.38-7.38v-41.12h6.12v41.34c0,4.8-1.11,8.51-3.32,11.13-2.21,2.62-5.31,3.93-9.3,3.93-.67,0-1.36-.04-2.08-.13-.72-.09-1.46-.2-2.23-.35ZM1706.42,115.65c-1.04,0-1.91-.36-2.62-1.08-.71-.72-1.06-1.6-1.06-2.63s.35-1.92,1.06-2.63c.71-.72,1.58-1.08,2.62-1.08s1.92.36,2.63,1.08c.72.72,1.08,1.6,1.08,2.63s-.36,1.92-1.08,2.63c-.72.72-1.6,1.08-2.63,1.08Z"/><path class="cls-3" d="M1774.26,164.49h-6.09v-20.71c0-3.51-1-6.32-3.01-8.42-2-2.1-4.66-3.15-7.98-3.15s-6.23,1.13-8.37,3.4c-2.14,2.26-3.21,5.24-3.21,8.92v19.96h-6.09v-37.11h5.31l.22,6.01c1.36-2.18,3.15-3.85,5.38-5.01,2.23-1.16,4.85-1.74,7.87-1.74,4.92,0,8.81,1.48,11.67,4.45s4.29,7.04,4.29,12.21v21.19Z"/><path class="cls-3" d="M1814.97,164.49h-5.23l-.41-4.9c-1.36,1.76-3.09,3.14-5.2,4.14-2.1,1-4.45,1.5-7.05,1.5s-5.06-.53-7.16-1.58c-2.1-1.05-3.75-2.49-4.95-4.32-1.2-1.83-1.8-3.91-1.8-6.23,0-2.45.65-4.61,1.95-6.48,1.3-1.87,3.07-3.33,5.31-4.4,2.24-1.06,4.78-1.6,7.63-1.6,1.86,0,3.75.23,5.68.69,1.93.46,3.65,1.08,5.16,1.87v-1.56c0-1.98-.5-3.67-1.48-5.07-.99-1.4-2.31-2.47-3.97-3.23-1.66-.75-3.49-1.13-5.49-1.13-1.73,0-3.5.32-5.31.95-1.81.63-3.54,1.6-5.2,2.91l-2-5.23c2.15-1.39,4.42-2.43,6.79-3.14s4.72-1.06,7.05-1.06c3.22,0,5.99.65,8.33,1.95s4.15,3.14,5.44,5.53c1.29,2.39,1.93,5.21,1.93,8.48v21.89ZM1798.16,159.67c1.9,0,3.65-.4,5.23-1.19s2.87-1.94,3.86-3.43c.99-1.5,1.53-3.27,1.63-5.33v-.63c-1.36-1.06-2.89-1.89-4.58-2.47-1.7-.58-3.42-.87-5.18-.87-2.75,0-5.04.67-6.88,2-1.84,1.34-2.76,3.03-2.76,5.08,0,1.29.38,2.45,1.13,3.49.75,1.04,1.79,1.86,3.1,2.45,1.31.59,2.79.89,4.45.89Z"/><path class="cls-3" d="M1823.13,161.26l1.6-5.71c.89.84,1.9,1.57,3.04,2.19,1.14.62,2.34,1.09,3.6,1.43s2.54.5,3.82.5c2.3,0,4.16-.51,5.57-1.52,1.41-1.01,2.12-2.34,2.12-3.97,0-1.19-.37-2.17-1.09-2.95-.73-.78-1.69-1.45-2.88-2.02-1.19-.57-2.46-1.11-3.82-1.63-1.66-.64-3.3-1.37-4.94-2.19s-2.99-1.89-4.06-3.23-1.61-3.09-1.61-5.27.52-3.88,1.56-5.42c1.04-1.53,2.49-2.72,4.36-3.56,1.87-.84,4.01-1.26,6.44-1.26,3.66,0,7.26.92,10.8,2.75l-1.82,5.49c-.79-.52-1.71-.98-2.75-1.39s-2.1-.72-3.19-.95c-1.09-.22-2.12-.33-3.08-.33-1.81,0-3.27.41-4.38,1.24-1.11.83-1.67,1.94-1.67,3.32,0,.79.23,1.52.69,2.17.46.66,1.23,1.31,2.32,1.95,1.09.64,2.6,1.36,4.53,2.15,1.71.69,3.39,1.48,5.05,2.36,1.66.88,3.04,2,4.14,3.38,1.1,1.37,1.65,3.16,1.65,5.36s-.58,4.1-1.73,5.77-2.75,2.98-4.79,3.92-4.4,1.41-7.07,1.41c-4.43,0-8.56-1.32-12.39-3.97Z"/><path class="cls-3" d="M1861.02,173.4h-4.49l2.97-15.59h5.57l-4.04,15.59Z"/><path class="cls-15" d="M1217.35,267.25c2.92-1.21,4.94-2.35,6.56-4.37,2.75-3.48,4.86-7.53,6.64-17.33l5.51-28.67-7.94-.49.24-2.35,13.69-4.13,1.05.81-7.13,36.85c-1.54,7.53-4.7,13.69-9.8,17.98-2.59,2.19-5.34,3.48-8.18,3.97l-.65-2.27ZM1238.82,194.36c0-2.67,2.11-4.94,4.45-4.94,2.51,0,4.21,1.7,4.21,4.29s-2.19,5.02-4.54,5.02-4.13-1.7-4.13-4.37Z"/><path class="cls-15" d="M1247.65,235.42c0-13.04,9.8-25.51,21.14-25.51,5.18,0,8.1,2.67,8.1,7.45,0,5.18-5.1,12.55-23.57,17.9.32,6.88,3.4,9.64,8.34,9.64s8.75-3.16,10.93-5.91l1.86,1.46c-3.4,5.51-8.67,10.04-14.66,10.04-7.05,0-12.15-4.7-12.15-15.06ZM1253.32,232.1c13.45-3.89,18.14-9.56,18.14-13.93,0-3-1.78-4.78-4.45-4.78-5.02,0-12.88,8.59-13.69,18.71Z"/><path class="cls-15" d="M1279.16,242.47c.4-1.38,1.7-2.27,3-2.27,2.35,0,3.32,1.3,3.89,3.56l.89,3.48c.32.08.73.08,1.13.08,5.59,0,8.91-2.67,8.91-6.88,0-2.59-.65-4.7-5.26-8.02-4.05-3.08-7.13-6.07-7.13-11.18,0-6.32,5.1-11.34,12.88-11.34,4.78,0,8.42,1.86,9.64,7.13-.49,1.54-1.62,2.27-3.08,2.27-1.86,0-3.32-1.38-4.13-3.81l-.73-2.35c-.32-.08-.73-.08-1.13-.08-5.59,0-7.69,3-7.69,6.64,0,3.4,1.38,5.1,5.99,8.5,4.86,3.64,6.56,6.07,6.56,10.77,0,6.72-5.51,11.5-13.69,11.5-6.32,0-9.48-3.16-10.04-8.02ZM1303.45,191.36c1.05-2.19,2.35-3.48,4.13-3.48s3.16.97,3.16,2.83c0,1.21-.49,2.43-1.78,3.97-3.24,3.89-6.4,7.61-9.64,11.5l-1.86-1.21c2.03-4.54,4.05-9.07,5.99-13.61Z"/><path class="cls-15" d="M1310.58,245.79c0-1.13.24-2.59.73-5.43l5.83-29.64c.97-4.78,1.86-9.56,2.59-14.34l-7.61-.49.32-2.35,13.93-4.05.89.65-9.72,48.19c-.49,2.19-.73,3.89-.73,4.7,0,1.21.97,1.86,2.02,1.86,1.7,0,4.46-2.11,7.69-5.83l1.86,1.54c-3.48,4.78-7.53,9.88-13.28,9.88-2.51,0-4.54-1.54-4.54-4.7Z"/><path class="cls-15" d="M1335.29,240.45l4.94-23.57-8.02-.49.32-2.35,13.77-4.13,1.05.81-5.75,27.78c-.4,2.02-.73,3.73-.73,4.62,0,1.13.89,1.78,1.78,1.78,1.94,0,4.54-1.94,7.78-5.83l2.03,1.54c-3.64,4.86-7.86,9.88-13.61,9.88-2.27,0-4.37-1.38-4.37-4.13,0-1.21.16-2.59.81-5.91ZM1342.98,194.36c0-2.67,2.11-4.94,4.46-4.94,2.51,0,4.21,1.7,4.21,4.29s-2.19,5.02-4.54,5.02-4.13-1.7-4.13-4.37Z"/><path class="cls-15" d="M1378.14,246.36c0-1.21.08-2.59.73-5.91l5.51-25.68h-8.26l.65-3.08,8.67-.81,3.81-10.77h4.13l-2.27,10.85h10.29l-.89,4.37-10.29-.32-4.94,23.33c-.49,2.19-.73,3.89-.73,4.7,0,1.21.97,1.86,1.94,1.86,2.19,0,4.62-1.94,7.94-5.83l1.94,1.54c-3.32,4.86-8.26,9.88-13.77,9.88-2.35,0-4.46-1.38-4.46-4.13Z"/><path class="cls-15" d="M1401.87,236.23c0-14.58,9.64-26.32,21.14-26.32,7.61,0,13.12,5.02,13.12,14.17,0,14.09-9.4,26.4-20.82,26.4-7.45,0-13.45-5.02-13.45-14.25ZM1429.57,225.3c0-8.75-3.08-12.15-7.45-12.15-7.69,0-13.69,10.04-13.69,22.11,0,8.5,3.32,11.99,7.86,11.99,7.94,0,13.28-11.1,13.28-21.95Z"/><path class="cls-15" d="M1467.96,249.27c-1.46,6.97-2.35,11.58-3,15.63l7.45,1.22-.65,2.75h-20.49l.57-2.75,6.96-1.13,10.21-48.11-8.02-.49.32-2.35,13.77-4.13,1.05.81-1.94,9.07c4.94-6.16,11.42-9.88,16.04-9.88,3.97,0,7.37,2.67,7.37,9.96,0,13.69-13.36,30.62-25.03,30.62-1.78,0-3.24-.41-4.62-1.21ZM1473.31,223.76l-3.97,18.95c2.19,1.62,4.29,2.27,6.16,2.27,4.05,0,7.78-2.51,10.61-6.16,3.24-4.29,5.26-10.12,5.26-15.71,0-5.26-1.86-7.78-4.94-7.78-3.32,0-7.94,3-13.12,8.42Z"/><path class="cls-15" d="M1510.49,216.88l-8.02-.49.32-2.35,13.36-4.13,1.05.81-1.78,10.85c3.48-6.07,7.94-11.66,12.23-11.66,2.27,0,4.29.65,5.43,2.43-.08,2.67-1.62,4.54-4.29,4.54-1.38,0-3.16-.89-4.78-2.19-3.97,3.32-7.05,7.94-10.04,13.53l-.89,4.21c-1.21,5.67-2.19,11.26-3.24,17.01l-5.43.65-.81-.65,6.88-32.56Z"/><path class="cls-15" d="M1532.2,236.23c0-14.58,9.64-26.32,21.14-26.32,7.61,0,13.12,5.02,13.12,14.17,0,14.09-9.4,26.4-20.82,26.4-7.45,0-13.45-5.02-13.45-14.25ZM1559.9,225.3c0-8.75-3.08-12.15-7.45-12.15-7.69,0-13.69,10.04-13.69,22.11,0,8.5,3.32,11.99,7.86,11.99,7.94,0,13.28-11.1,13.28-21.95Z"/><path class="cls-15" d="M1570.26,242.47c.41-1.38,1.7-2.27,3-2.27,2.35,0,3.32,1.3,3.89,3.56l.89,3.48c.32.08.73.08,1.13.08,5.59,0,8.91-2.67,8.91-6.88,0-2.59-.65-4.7-5.26-8.02-4.05-3.08-7.13-6.07-7.13-11.18,0-6.32,5.1-11.34,12.88-11.34,4.78,0,8.42,1.86,9.64,7.13-.49,1.54-1.62,2.27-3.08,2.27-1.86,0-3.32-1.38-4.13-3.81l-.73-2.35c-.32-.08-.73-.08-1.13-.08-5.59,0-7.7,3-7.7,6.64,0,3.4,1.38,5.1,5.99,8.5,4.86,3.64,6.56,6.07,6.56,10.77,0,6.72-5.51,11.5-13.69,11.5-6.32,0-9.48-3.16-10.04-8.02Z"/><path class="cls-15" d="M1603.8,246.36c0-1.21.08-2.59.73-5.91l5.51-25.68h-8.26l.65-3.08,8.67-.81,3.81-10.77h4.13l-2.27,10.85h10.29l-.89,4.37-10.29-.32-4.94,23.33c-.49,2.19-.73,3.89-.73,4.7,0,1.21.97,1.86,1.94,1.86,2.19,0,4.62-1.94,7.94-5.83l1.94,1.54c-3.32,4.86-8.26,9.88-13.77,9.88-2.35,0-4.46-1.38-4.46-4.13Z"/><path class="cls-15" d="M1627.53,235.42c0-13.04,9.8-25.51,21.14-25.51,5.18,0,8.1,2.67,8.1,7.45,0,5.18-5.1,12.55-23.57,17.9.32,6.88,3.4,9.64,8.34,9.64s8.75-3.16,10.93-5.91l1.86,1.46c-3.4,5.51-8.67,10.04-14.66,10.04-7.05,0-12.15-4.7-12.15-15.06ZM1633.2,232.1c13.45-3.89,18.14-9.56,18.14-13.93,0-3-1.78-4.78-4.45-4.78-5.02,0-12.88,8.59-13.69,18.71Z"/><path class="cls-15" d="M1661.23,245.63c0-3.24,2.67-5.59,5.75-5.59,2.83,0,4.7,2.11,4.7,4.62,0,3.24-2.59,5.59-5.67,5.59-2.75,0-4.78-1.94-4.78-4.62Z"/><path class="cls-3" d="M1222.96,345.54l-.1-2.34c2.44,0,4.27-.6,5.5-1.81,1.22-1.21,1.83-2.99,1.83-5.36v-27.73h2.64v27.53c0,2.23-.35,4.06-1.05,5.5-.7,1.43-1.78,2.5-3.22,3.18-1.45.69-3.31,1.03-5.6,1.03Z"/><path class="cls-3" d="M1256.81,335.83c-2.46,1.94-5.18,2.9-8.17,2.9-2.07,0-3.92-.46-5.55-1.39-1.64-.93-2.92-2.19-3.85-3.79s-1.4-3.42-1.4-5.45.44-3.71,1.31-5.25c.87-1.53,2.07-2.74,3.59-3.62s3.25-1.32,5.18-1.32,3.69.46,5.19,1.39c1.49.93,2.66,2.21,3.5,3.84.84,1.64,1.26,3.53,1.26,5.68v.62h-17.38c.16,1.4.62,2.63,1.39,3.68.77,1.05,1.75,1.88,2.95,2.46,1.2.59,2.55.88,4.04.88,2.46,0,4.71-.81,6.77-2.44l1.16,1.8ZM1240.42,327.32h15.15c-.12-1.43-.51-2.68-1.18-3.74-.67-1.07-1.54-1.9-2.63-2.5s-2.33-.9-3.71-.9-2.66.3-3.77.9-2.01,1.44-2.68,2.51c-.67,1.07-1.06,2.32-1.17,3.73Z"/><path class="cls-3" d="M1261.88,336.59l.72-2.28c.49.45,1.04.84,1.65,1.16s1.24.57,1.9.74c.66.17,1.33.26,2.01.26,1.36,0,2.47-.33,3.32-1,.85-.67,1.28-1.53,1.28-2.6,0-.76-.21-1.38-.64-1.87-.43-.49-.99-.9-1.68-1.25-.69-.35-1.43-.67-2.2-.98-.89-.35-1.77-.74-2.62-1.17-.85-.43-1.56-1-2.11-1.69-.55-.69-.83-1.61-.83-2.74,0-1.07.26-1.99.79-2.77s1.27-1.39,2.22-1.82c.95-.43,2.06-.65,3.31-.65,1.8,0,3.58.44,5.33,1.32l-.76,2.22c-.41-.25-.88-.48-1.4-.67-.52-.19-1.05-.34-1.6-.45-.55-.11-1.07-.16-1.56-.16-1.13,0-2.05.27-2.74.81s-1.04,1.25-1.04,2.13c0,.57.16,1.07.47,1.49s.79.81,1.43,1.17,1.44.74,2.4,1.14c.92.37,1.82.8,2.7,1.27.88.47,1.61,1.08,2.19,1.81.58.73.87,1.69.87,2.86s-.3,2.17-.89,3.05c-.59.89-1.41,1.58-2.46,2.07s-2.27.74-3.65.74c-2.31,0-4.44-.71-6.41-2.14ZM1269.37,314.97h-1.8l3.22-6.67h2.44l-3.86,6.67Z"/><path class="cls-3" d="M1283.08,338.33h-2.58v-30.83h2.58v30.83Z"/><path class="cls-3" d="M1291.09,311.29c-.47,0-.86-.16-1.17-.49-.31-.33-.47-.72-.47-1.19s.16-.84.47-1.16.7-.48,1.17-.48.88.16,1.21.48c.33.32.49.71.49,1.16s-.16.86-.49,1.19c-.33.33-.73.49-1.21.49ZM1292.33,338.33h-2.46v-20.02h2.46v20.02Z"/><path class="cls-3" d="M1340.73,338.33h-2.46v-10.87c0-2.31-.52-4.11-1.56-5.4-1.04-1.29-2.5-1.93-4.36-1.93s-3.36.65-4.44,1.95-1.62,3.09-1.62,5.38v10.87h-2.46v-10.87c0-2.31-.52-4.11-1.56-5.4-1.04-1.29-2.5-1.93-4.38-1.93s-3.36.65-4.44,1.95-1.62,3.09-1.62,5.38v10.87h-2.46v-20.02h2.04l.1,3.94c.64-1.43,1.55-2.51,2.73-3.24,1.18-.73,2.59-1.1,4.23-1.1,1.77,0,3.28.43,4.5,1.28,1.23.85,2.11,2.08,2.64,3.66.6-1.61,1.52-2.84,2.75-3.68s2.74-1.26,4.51-1.26c2.48,0,4.41.79,5.8,2.38,1.38,1.59,2.07,3.81,2.07,6.67v11.37Z"/><path class="cls-3" d="M1362.62,338.33h-2.1l-.2-3.34c-.67,1.15-1.6,2.06-2.8,2.73s-2.57,1.01-4.1,1.01c-1.42,0-2.68-.28-3.79-.83s-1.99-1.31-2.63-2.28c-.64-.97-.96-2.07-.96-3.29s.35-2.42,1.04-3.4c.69-.99,1.65-1.76,2.86-2.33,1.21-.57,2.6-.85,4.14-.85,1.08,0,2.16.14,3.22.42,1.07.28,2.02.67,2.86,1.18v-1.36c0-1.21-.27-2.26-.8-3.12-.53-.87-1.26-1.53-2.19-1.99-.93-.46-1.98-.69-3.15-.69-1.01,0-2.03.18-3.04.55-1.01.37-1.96.91-2.84,1.63l-.88-2.12c1.09-.76,2.26-1.34,3.51-1.73,1.25-.39,2.49-.59,3.73-.59,1.67,0,3.11.34,4.31,1.02,1.21.68,2.14,1.65,2.81,2.89.67,1.25,1,2.73,1,4.45v12.05ZM1353.81,336.47c1.16,0,2.21-.25,3.15-.75.94-.5,1.7-1.21,2.27-2.12.57-.91.88-1.97.92-3.15v-.68c-.83-.63-1.72-1.1-2.69-1.43-.97-.33-1.97-.49-3.01-.49-1.7,0-3.1.41-4.21,1.22-1.12.81-1.67,1.86-1.67,3.14,0,.8.23,1.52.69,2.17.46.65,1.09,1.16,1.88,1.53.79.37,1.68.56,2.67.56Z"/><path class="cls-3" d="M1367.48,336.59l.72-2.28c.49.45,1.04.84,1.65,1.16.61.32,1.24.57,1.9.74.66.17,1.33.26,2.01.26,1.36,0,2.47-.33,3.32-1,.85-.67,1.28-1.53,1.28-2.6,0-.76-.21-1.38-.64-1.87-.43-.49-.99-.9-1.68-1.25-.69-.35-1.43-.67-2.2-.98-.89-.35-1.77-.74-2.62-1.17-.85-.43-1.56-1-2.11-1.69-.55-.69-.83-1.61-.83-2.74,0-1.07.26-1.99.79-2.77s1.27-1.39,2.22-1.82c.95-.43,2.06-.65,3.31-.65,1.8,0,3.58.44,5.33,1.32l-.76,2.22c-.41-.25-.88-.48-1.4-.67-.52-.19-1.05-.34-1.6-.45-.55-.11-1.07-.16-1.56-.16-1.13,0-2.05.27-2.74.81-.69.54-1.04,1.25-1.04,2.13,0,.57.16,1.07.47,1.49.31.42.79.81,1.43,1.17s1.44.74,2.4,1.14c.92.37,1.82.8,2.7,1.27.88.47,1.61,1.08,2.19,1.81.58.73.87,1.69.87,2.86s-.3,2.17-.89,3.05c-.59.89-1.42,1.58-2.46,2.07-1.05.49-2.27.74-3.65.74-2.31,0-4.44-.71-6.41-2.14Z"/><path class="cls-3" d="M1401.75,338.33h-17.26v-1.46l13.13-16.34h-12.51v-2.22h16.2v1.3l-13.27,16.5h13.71v2.22Z"/><path class="cls-3" d="M1427.86,337.87c-1.21.57-2.42.86-3.6.86-1.12,0-2.1-.25-2.93-.74s-1.49-1.19-1.95-2.08c-.47-.89-.7-1.94-.7-3.12v-12.25h-3.5v-2.22h3.6v-5h2.36v5h6.13v2.22h-6.13v11.81c0,1.25.33,2.26,1,3.02s1.55,1.14,2.64,1.14c.87,0,1.74-.25,2.62-.76l.46,2.12Z"/><path class="cls-3" d="M1434.53,338.33h-2.46v-20.02h2.18l.1,4.42c.67-1.55,1.66-2.74,2.97-3.57,1.31-.83,2.85-1.25,4.61-1.25.32,0,.65.02.99.05.34.03.68.08,1.01.15l-.3,2.22c-.65-.13-1.31-.2-1.96-.2-1.39,0-2.62.34-3.7,1.02s-1.93,1.62-2.53,2.81c-.61,1.19-.91,2.57-.91,4.13v10.23Z"/><path class="cls-3" d="M1465.46,338.33h-2.18l-.08-3.76c-.71,1.35-1.68,2.38-2.91,3.09s-2.71,1.07-4.43,1.07c-2.64,0-4.72-.8-6.24-2.41-1.51-1.61-2.27-3.82-2.27-6.64v-11.37h2.46v11.21c0,2.14.58,3.83,1.74,5.07,1.16,1.25,2.73,1.87,4.7,1.87s3.68-.66,4.91-1.97c1.23-1.31,1.84-3.07,1.84-5.26v-10.93h2.46v20.02Z"/><path class="cls-3" d="M1491.34,338.33h-2.22l-.12-3.84c-.85,1.32-2,2.36-3.43,3.11-1.44.75-3.03,1.13-4.78,1.13-1.98,0-3.74-.45-5.29-1.36-1.55-.91-2.78-2.15-3.68-3.72-.9-1.57-1.35-3.35-1.35-5.33s.45-3.77,1.35-5.34c.9-1.57,2.13-2.81,3.68-3.71,1.55-.91,3.32-1.36,5.29-1.36,1.71,0,3.27.36,4.68,1.09,1.42.73,2.55,1.73,3.4,3.01v-13.71h2.46v30.03ZM1480.95,336.51c1.46,0,2.78-.34,3.98-1.01,1.2-.67,2.16-1.59,2.87-2.76.71-1.17,1.07-2.49,1.07-3.97v-.9c0-1.47-.35-2.79-1.06-3.95-.71-1.17-1.66-2.09-2.85-2.76-1.2-.67-2.53-1.01-4.01-1.01s-2.87.36-4.07,1.07c-1.21.71-2.16,1.69-2.85,2.92-.69,1.23-1.04,2.63-1.04,4.17s.35,2.96,1.04,4.19c.69,1.23,1.64,2.21,2.84,2.93s2.56,1.08,4.08,1.08Z"/><path class="cls-3" d="M1516.19,338.33h-2.46v-11.21c0-2.14-.59-3.83-1.76-5.07-1.17-1.25-2.76-1.87-4.75-1.87s-3.7.66-4.94,1.97c-1.24,1.31-1.86,3.07-1.86,5.26v10.93h-2.46v-20.02h2.18l.08,3.76c.69-1.35,1.67-2.38,2.92-3.09,1.25-.71,2.75-1.07,4.48-1.07,2.67,0,4.76.8,6.29,2.4s2.28,3.82,2.28,6.65v11.37Z"/><path class="cls-3" d="M1527.1,348.34h-2.68l4.22-10.21-9.45-19.82h2.72l7.91,16.96,7.03-16.96h2.66l-12.41,30.03Z"/><path class="cls-3" d="M1543.35,343.14h-1.84l1.76-8.41h2.32l-2.24,8.41Z"/><path class="cls-3" d="M1560.41,336.59l.72-2.28c.49.45,1.04.84,1.65,1.16s1.24.57,1.9.74c.66.17,1.33.26,2.01.26,1.36,0,2.47-.33,3.32-1,.85-.67,1.28-1.53,1.28-2.6,0-.76-.21-1.38-.64-1.87-.43-.49-.99-.9-1.68-1.25-.69-.35-1.43-.67-2.2-.98-.89-.35-1.77-.74-2.62-1.17-.85-.43-1.56-1-2.11-1.69-.55-.69-.83-1.61-.83-2.74,0-1.07.26-1.99.79-2.77s1.27-1.39,2.22-1.82c.95-.43,2.06-.65,3.31-.65,1.8,0,3.58.44,5.33,1.32l-.76,2.22c-.41-.25-.88-.48-1.4-.67-.52-.19-1.05-.34-1.6-.45-.55-.11-1.07-.16-1.56-.16-1.13,0-2.05.27-2.74.81s-1.04,1.25-1.04,2.13c0,.57.16,1.07.47,1.49s.79.81,1.43,1.17,1.44.74,2.4,1.14c.92.37,1.82.8,2.7,1.27.88.47,1.61,1.08,2.19,1.81.58.73.87,1.69.87,2.86s-.3,2.17-.89,3.05c-.59.89-1.41,1.58-2.46,2.07s-2.27.74-3.65.74c-2.31,0-4.44-.71-6.41-2.14Z"/><path class="cls-3" d="M1581.49,338.33h-2.46v-30.03h2.46v22l1.42-1.72,9.75-10.27h3.08l-8.13,8.63,9.45,11.39h-3.18l-7.97-9.59-4.42,4.7v4.88Z"/><path class="cls-3" d="M1609.88,338.73c-1.98,0-3.75-.45-5.33-1.36-1.58-.91-2.82-2.15-3.72-3.71-.91-1.57-1.36-3.35-1.36-5.34s.45-3.75,1.36-5.32c.91-1.57,2.15-2.81,3.72-3.72,1.58-.91,3.35-1.37,5.33-1.37s3.72.46,5.29,1.37c1.56.91,2.8,2.16,3.7,3.72.91,1.57,1.36,3.34,1.36,5.32s-.45,3.75-1.36,5.33c-.91,1.57-2.14,2.82-3.7,3.72-1.56.91-3.32,1.36-5.29,1.36ZM1609.86,336.51c1.49,0,2.83-.36,4.01-1.08,1.18-.72,2.12-1.7,2.8-2.93.69-1.23,1.03-2.63,1.03-4.19s-.34-2.92-1.03-4.15c-.69-1.23-1.62-2.21-2.8-2.93-1.18-.72-2.52-1.08-4.01-1.08s-2.84.36-4.02,1.08-2.12,1.7-2.81,2.93c-.69,1.23-1.03,2.62-1.03,4.15s.34,2.96,1.03,4.19c.69,1.23,1.62,2.21,2.81,2.93s2.53,1.08,4.02,1.08Z"/><path class="cls-3" d="M1656.62,338.33h-2.46v-10.87c0-2.31-.52-4.11-1.56-5.4-1.04-1.29-2.5-1.93-4.36-1.93s-3.36.65-4.44,1.95-1.62,3.09-1.62,5.38v10.87h-2.46v-10.87c0-2.31-.52-4.11-1.56-5.4-1.04-1.29-2.5-1.93-4.38-1.93s-3.36.65-4.44,1.95-1.62,3.09-1.62,5.38v10.87h-2.46v-20.02h2.04l.1,3.94c.64-1.43,1.55-2.51,2.73-3.24,1.18-.73,2.59-1.1,4.23-1.1,1.78,0,3.28.43,4.5,1.28,1.23.85,2.11,2.08,2.64,3.66.6-1.61,1.52-2.84,2.75-3.68s2.74-1.26,4.51-1.26c2.48,0,4.41.79,5.8,2.38,1.38,1.59,2.07,3.81,2.07,6.67v11.37Z"/><path class="cls-3" d="M1665.37,348.34h-2.46v-30.03h2.22l.1,3.84c.87-1.32,2.02-2.36,3.46-3.11,1.44-.75,3.04-1.13,4.79-1.13,1.96,0,3.72.45,5.27,1.36,1.55.91,2.78,2.15,3.68,3.71.9,1.57,1.35,3.35,1.35,5.34s-.45,3.75-1.35,5.33c-.9,1.57-2.13,2.82-3.68,3.72-1.55.91-3.31,1.36-5.27,1.36-1.71,0-3.27-.36-4.68-1.08-1.42-.72-2.56-1.72-3.42-3v13.69ZM1673.34,336.47c1.52,0,2.88-.35,4.07-1.05s2.13-1.67,2.8-2.9c.67-1.23,1.01-2.64,1.01-4.21s-.34-2.98-1.02-4.2c-.68-1.23-1.62-2.2-2.8-2.9-1.19-.71-2.54-1.06-4.06-1.06-1.44,0-2.75.32-3.93.97-1.18.65-2.13,1.54-2.85,2.67-.72,1.13-1.12,2.42-1.18,3.86v1.36c.07,1.44.46,2.73,1.17,3.85.71,1.13,1.66,2.01,2.84,2.65,1.18.64,2.5.96,3.95.96Z"/><path class="cls-3" d="M1691.38,338.33h-2.58v-30.83h2.58v30.83Z"/><path class="cls-3" d="M1699.39,311.29c-.47,0-.86-.16-1.17-.49-.31-.33-.47-.72-.47-1.19s.16-.84.47-1.16.7-.48,1.17-.48.88.16,1.21.48.49.71.49,1.16-.16.86-.49,1.19c-.33.33-.73.49-1.21.49ZM1700.63,338.33h-2.46v-20.02h2.46v20.02Z"/><path class="cls-3" d="M1709.89,338.33h-2.46v-30.03h2.46v22l1.42-1.72,9.75-10.27h3.08l-8.13,8.63,9.45,11.39h-3.18l-7.97-9.59-4.42,4.7v4.88Z"/><path class="cls-3" d="M1738.28,338.73c-1.98,0-3.75-.45-5.33-1.36-1.58-.91-2.82-2.15-3.72-3.71-.91-1.57-1.36-3.35-1.36-5.34s.45-3.75,1.36-5.32c.91-1.57,2.15-2.81,3.72-3.72,1.58-.91,3.35-1.37,5.33-1.37s3.72.46,5.29,1.37c1.56.91,2.8,2.16,3.7,3.72.91,1.57,1.36,3.34,1.36,5.32s-.45,3.75-1.36,5.33c-.91,1.57-2.14,2.82-3.7,3.72-1.56.91-3.32,1.36-5.29,1.36ZM1738.26,336.51c1.49,0,2.83-.36,4.01-1.08,1.18-.72,2.12-1.7,2.8-2.93.69-1.23,1.03-2.63,1.03-4.19s-.34-2.92-1.03-4.15c-.69-1.23-1.62-2.21-2.8-2.93-1.18-.72-2.52-1.08-4.01-1.08s-2.84.36-4.02,1.08-2.12,1.7-2.81,2.93c-.69,1.23-1.03,2.62-1.03,4.15s.34,2.96,1.03,4.19c.69,1.23,1.62,2.21,2.81,2.93s2.53,1.08,4.02,1.08Z"/><path class="cls-3" d="M1773.98,338.33h-2.82l-5.1-16.42-5.11,16.42h-2.8l-6.51-20.02h2.6l5.29,16.9,5.37-16.9h2.32l5.37,16.9,5.3-16.9h2.6l-6.51,20.02Z"/><path class="cls-3" d="M1799.88,338.33h-2.1l-.2-3.34c-.67,1.15-1.6,2.06-2.8,2.73s-2.57,1.01-4.1,1.01c-1.42,0-2.68-.28-3.79-.83s-1.99-1.31-2.63-2.28c-.64-.97-.96-2.07-.96-3.29s.35-2.42,1.04-3.4c.69-.99,1.65-1.76,2.86-2.33,1.21-.57,2.6-.85,4.14-.85,1.08,0,2.16.14,3.22.42,1.07.28,2.02.67,2.86,1.18v-1.36c0-1.21-.27-2.26-.8-3.12-.53-.87-1.26-1.53-2.19-1.99-.93-.46-1.98-.69-3.15-.69-1.01,0-2.03.18-3.04.55-1.01.37-1.96.91-2.84,1.63l-.88-2.12c1.09-.76,2.26-1.34,3.51-1.73,1.25-.39,2.49-.59,3.73-.59,1.67,0,3.11.34,4.31,1.02,1.21.68,2.14,1.65,2.81,2.89.67,1.25,1,2.73,1,4.45v12.05ZM1791.07,336.47c1.16,0,2.21-.25,3.15-.75.94-.5,1.7-1.21,2.27-2.12.57-.91.88-1.97.92-3.15v-.68c-.83-.63-1.72-1.1-2.69-1.43-.97-.33-1.97-.49-3.01-.49-1.7,0-3.1.41-4.21,1.22-1.12.81-1.67,1.86-1.67,3.14,0,.8.23,1.52.69,2.17.46.65,1.09,1.16,1.88,1.53.79.37,1.68.56,2.67.56Z"/><path class="cls-3" d="M1824.39,338.33h-2.46v-11.21c0-2.14-.59-3.83-1.76-5.07-1.17-1.25-2.76-1.87-4.74-1.87s-3.7.66-4.95,1.97c-1.24,1.31-1.86,3.07-1.86,5.26v10.93h-2.46v-20.02h2.18l.08,3.76c.69-1.35,1.67-2.38,2.92-3.09,1.25-.71,2.75-1.07,4.48-1.07,2.67,0,4.76.8,6.29,2.4s2.28,3.82,2.28,6.65v11.37Z"/><path class="cls-3" d="M1835.3,348.34h-2.68l4.22-10.21-9.45-19.82h2.72l7.91,16.96,7.03-16.96h2.66l-12.41,30.03Z"/><path class="cls-3" d="M1232.45,387.53h-2.58v-30.83h2.58v30.83Z"/><path class="cls-3" d="M1256.77,387.53h-2.18l-.08-3.76c-.71,1.35-1.68,2.38-2.91,3.09s-2.71,1.07-4.43,1.07c-2.64,0-4.72-.8-6.24-2.41-1.51-1.61-2.27-3.82-2.27-6.64v-11.37h2.46v11.21c0,2.14.58,3.83,1.74,5.07,1.16,1.25,2.73,1.87,4.7,1.87s3.68-.66,4.91-1.97c1.23-1.31,1.84-3.07,1.84-5.26v-10.93h2.46v20.02Z"/><path class="cls-3" d="M1265.58,387.53h-2.2v-30.03h2.46v13.81c.87-1.29,2.01-2.32,3.42-3.07,1.42-.75,2.99-1.13,4.72-1.13,1.96,0,3.71.45,5.26,1.36,1.54.91,2.76,2.15,3.65,3.71.89,1.57,1.34,3.35,1.34,5.34s-.45,3.75-1.34,5.33c-.89,1.57-2.11,2.82-3.65,3.72-1.54.91-3.29,1.36-5.26,1.36-1.78,0-3.38-.39-4.81-1.18s-2.59-1.84-3.47-3.16l-.12,3.94ZM1273.79,385.71c1.51,0,2.86-.36,4.05-1.07,1.19-.71,2.14-1.69,2.83-2.92.69-1.23,1.04-2.63,1.04-4.17s-.35-2.96-1.04-4.2-1.64-2.22-2.83-2.93c-1.2-.71-2.55-1.07-4.05-1.07s-2.75.33-3.91.99c-1.17.66-2.11,1.56-2.82,2.7s-1.12,2.44-1.21,3.89v1.18c.09,1.45.49,2.76,1.2,3.9.71,1.15,1.64,2.05,2.81,2.71s2.48.99,3.93.99Z"/><path class="cls-3" d="M1317.69,387.53h-2.46v-11.21c0-2.14-.59-3.83-1.76-5.07-1.17-1.25-2.76-1.87-4.74-1.87s-3.7.66-4.95,1.97c-1.24,1.31-1.86,3.07-1.86,5.26v10.93h-2.46v-20.02h2.18l.08,3.76c.69-1.35,1.67-2.38,2.92-3.09,1.25-.71,2.75-1.07,4.48-1.07,2.67,0,4.76.8,6.29,2.4s2.28,3.82,2.28,6.65v11.37Z"/><path class="cls-3" d="M1325.3,360.49c-.47,0-.86-.16-1.17-.49-.31-.33-.47-.72-.47-1.19s.16-.84.47-1.16.7-.48,1.17-.48.88.16,1.21.48.49.71.49,1.16-.16.86-.49,1.19c-.33.33-.73.49-1.21.49ZM1326.54,387.53h-2.46v-20.02h2.46v20.02Z"/><path class="cls-3" d="M1350.72,385.03c-2.46,1.94-5.18,2.9-8.17,2.9-2.07,0-3.92-.46-5.56-1.39-1.63-.93-2.92-2.19-3.85-3.79-.93-1.6-1.4-3.42-1.4-5.45s.44-3.71,1.31-5.25c.87-1.53,2.07-2.74,3.59-3.62s3.25-1.32,5.19-1.32,3.69.46,5.18,1.39c1.5.93,2.66,2.21,3.5,3.84.84,1.64,1.26,3.53,1.26,5.68v.62h-17.38c.16,1.4.62,2.63,1.39,3.68.77,1.05,1.75,1.88,2.95,2.46,1.2.59,2.55.88,4.04.88,2.46,0,4.71-.81,6.77-2.44l1.16,1.8ZM1334.33,376.52h15.16c-.12-1.43-.51-2.68-1.18-3.74-.67-1.07-1.54-1.9-2.63-2.5s-2.33-.9-3.71-.9-2.66.3-3.77.9-2.01,1.44-2.68,2.51c-.67,1.07-1.06,2.32-1.17,3.73Z"/><path class="cls-3" d="M1367.08,387.07c-1.21.57-2.42.86-3.6.86-1.12,0-2.1-.25-2.93-.74s-1.49-1.19-1.95-2.08c-.47-.89-.7-1.94-.7-3.12v-12.25h-3.5v-2.22h3.6v-5h2.36v5h6.13v2.22h-6.13v11.81c0,1.25.33,2.26,1,3.02s1.55,1.14,2.64,1.14c.87,0,1.74-.25,2.62-.76l.46,2.12Z"/><path class="cls-3" d="M1377.19,397.54h-2.68l4.22-10.21-9.45-19.82h2.72l7.91,16.96,7.03-16.96h2.66l-12.41,30.03Z"/><path class="cls-3" d="M1396.67,397.54h-2.46v-30.03h2.22l.1,3.84c.87-1.32,2.02-2.36,3.46-3.11,1.44-.75,3.04-1.13,4.79-1.13,1.96,0,3.72.45,5.27,1.36,1.55.91,2.78,2.15,3.68,3.71.9,1.57,1.35,3.35,1.35,5.34s-.45,3.75-1.35,5.33c-.9,1.57-2.13,2.82-3.68,3.72-1.55.91-3.31,1.36-5.27,1.36-1.71,0-3.27-.36-4.68-1.08-1.42-.72-2.56-1.72-3.42-3v13.69ZM1404.64,385.67c1.52,0,2.88-.35,4.07-1.05s2.13-1.67,2.8-2.9c.67-1.23,1.01-2.64,1.01-4.21s-.34-2.98-1.02-4.2c-.68-1.23-1.62-2.2-2.8-2.9-1.19-.71-2.54-1.06-4.06-1.06-1.44,0-2.75.32-3.93.97-1.18.65-2.13,1.54-2.85,2.67-.72,1.13-1.12,2.42-1.18,3.86v1.36c.07,1.44.46,2.73,1.17,3.85.71,1.13,1.66,2.01,2.84,2.65,1.18.64,2.5.96,3.95.96Z"/><path class="cls-3" d="M1428.9,387.93c-1.98,0-3.75-.45-5.33-1.36-1.58-.91-2.82-2.15-3.72-3.71-.91-1.57-1.36-3.35-1.36-5.34s.45-3.75,1.36-5.32c.91-1.57,2.15-2.81,3.72-3.72,1.58-.91,3.35-1.37,5.33-1.37s3.72.46,5.29,1.37c1.56.91,2.8,2.16,3.7,3.72.91,1.57,1.36,3.34,1.36,5.32s-.45,3.75-1.36,5.33c-.91,1.57-2.14,2.82-3.7,3.72-1.56.91-3.32,1.36-5.29,1.36ZM1428.88,385.71c1.49,0,2.83-.36,4.01-1.08,1.18-.72,2.12-1.7,2.8-2.93.69-1.23,1.03-2.63,1.03-4.19s-.34-2.92-1.03-4.15c-.69-1.23-1.62-2.21-2.8-2.93-1.18-.72-2.52-1.08-4.01-1.08s-2.84.36-4.02,1.08-2.12,1.7-2.81,2.93c-.69,1.23-1.03,2.62-1.03,4.15s.34,2.96,1.03,4.19c.69,1.23,1.62,2.21,2.81,2.93s2.53,1.08,4.02,1.08Z"/><path class="cls-3" d="M1464.6,387.53h-2.82l-5.1-16.42-5.11,16.42h-2.8l-6.51-20.02h2.6l5.29,16.9,5.37-16.9h2.32l5.37,16.9,5.3-16.9h2.6l-6.51,20.02Z"/><path class="cls-3" d="M1480.41,397.54h-2.68l4.22-10.21-9.45-19.82h2.72l7.91,16.96,7.03-16.96h2.66l-12.41,30.03Z"/><path class="cls-3" d="M1506.24,385.79l.72-2.28c.49.45,1.04.84,1.65,1.16s1.24.57,1.9.74c.66.17,1.33.26,2.01.26,1.36,0,2.47-.33,3.32-1,.85-.67,1.28-1.53,1.28-2.6,0-.76-.21-1.38-.64-1.87-.43-.49-.99-.9-1.68-1.25-.69-.35-1.43-.67-2.2-.98-.89-.35-1.77-.74-2.62-1.17-.85-.43-1.56-1-2.11-1.69-.55-.69-.83-1.61-.83-2.74,0-1.07.26-1.99.79-2.77s1.27-1.39,2.22-1.82c.95-.43,2.06-.65,3.31-.65,1.8,0,3.58.44,5.33,1.32l-.76,2.22c-.41-.25-.88-.48-1.4-.67-.52-.19-1.05-.34-1.6-.45-.55-.11-1.07-.16-1.56-.16-1.13,0-2.05.27-2.74.81s-1.04,1.25-1.04,2.13c0,.57.16,1.07.47,1.49s.79.81,1.43,1.17,1.44.74,2.4,1.14c.92.37,1.82.8,2.7,1.27.88.47,1.61,1.08,2.19,1.81.58.73.87,1.69.87,2.86s-.3,2.17-.89,3.05c-.59.89-1.41,1.58-2.46,2.07s-2.27.74-3.65.74c-2.31,0-4.44-.71-6.41-2.14Z"/><path class="cls-3" d="M1527.32,397.54h-2.46v-30.03h2.22l.1,3.84c.87-1.32,2.02-2.36,3.46-3.11,1.44-.75,3.04-1.13,4.79-1.13,1.96,0,3.72.45,5.27,1.36,1.55.91,2.78,2.15,3.68,3.71.9,1.57,1.35,3.35,1.35,5.34s-.45,3.75-1.35,5.33c-.9,1.57-2.13,2.82-3.68,3.72-1.55.91-3.31,1.36-5.27,1.36-1.71,0-3.27-.36-4.68-1.08-1.42-.72-2.56-1.72-3.42-3v13.69ZM1535.28,385.67c1.52,0,2.88-.35,4.07-1.05s2.13-1.67,2.8-2.9c.67-1.23,1.01-2.64,1.01-4.21s-.34-2.98-1.02-4.2c-.68-1.23-1.62-2.2-2.8-2.9-1.19-.71-2.54-1.06-4.06-1.06-1.44,0-2.75.32-3.93.97-1.18.65-2.13,1.54-2.85,2.67-.72,1.13-1.12,2.42-1.18,3.86v1.36c.07,1.44.46,2.73,1.17,3.85.71,1.13,1.66,2.01,2.84,2.65,1.18.64,2.5.96,3.95.96Z"/><path class="cls-3" d="M1559.55,387.93c-1.98,0-3.75-.45-5.33-1.36-1.58-.91-2.82-2.15-3.72-3.72-.91-1.57-1.36-3.35-1.36-5.33s.45-3.77,1.36-5.34c.91-1.57,2.15-2.81,3.72-3.71,1.58-.91,3.35-1.36,5.33-1.36s3.72.45,5.29,1.36c1.56.91,2.8,2.15,3.7,3.71.91,1.57,1.36,3.35,1.36,5.34s-.45,3.75-1.36,5.33c-.91,1.57-2.14,2.82-3.7,3.72-1.56.91-3.32,1.36-5.29,1.36ZM1559.53,385.71c1.49,0,2.83-.36,4.01-1.08,1.18-.72,2.12-1.7,2.8-2.93.69-1.23,1.03-2.63,1.03-4.19s-.34-2.94-1.03-4.17c-.69-1.23-1.62-2.21-2.8-2.92-1.18-.71-2.52-1.07-4.01-1.07s-2.84.36-4.02,1.07c-1.19.71-2.12,1.69-2.81,2.92-.69,1.23-1.03,2.63-1.03,4.17s.34,2.96,1.03,4.19c.69,1.23,1.62,2.21,2.81,2.93s2.53,1.08,4.02,1.08ZM1560.11,364.17h-1.82l3.24-6.67h2.44l-3.86,6.67Z"/><path class="cls-3" d="M1577.37,387.53h-2.46v-20.02h2.18l.1,4.42c.67-1.55,1.66-2.74,2.97-3.57,1.31-.83,2.85-1.25,4.61-1.25.32,0,.65.02.99.05.34.03.68.08,1.01.15l-.3,2.22c-.65-.13-1.31-.2-1.96-.2-1.39,0-2.62.34-3.7,1.02s-1.92,1.62-2.53,2.81c-.61,1.19-.91,2.57-.91,4.13v10.23Z"/><path class="cls-3" d="M1602.99,387.53h-2.2v-30.03h2.46v13.81c.87-1.29,2.01-2.32,3.42-3.07,1.42-.75,2.99-1.13,4.72-1.13,1.96,0,3.71.45,5.26,1.36,1.54.91,2.76,2.15,3.65,3.71.89,1.57,1.34,3.35,1.34,5.34s-.45,3.75-1.34,5.33c-.89,1.57-2.11,2.82-3.65,3.72-1.54.91-3.29,1.36-5.26,1.36-1.78,0-3.38-.39-4.81-1.18s-2.59-1.84-3.47-3.16l-.12,3.94ZM1611.2,385.71c1.51,0,2.86-.36,4.05-1.07,1.19-.71,2.14-1.69,2.83-2.92.69-1.23,1.04-2.63,1.04-4.17s-.35-2.96-1.04-4.2-1.64-2.22-2.83-2.93c-1.2-.71-2.55-1.07-4.05-1.07s-2.75.33-3.91.99c-1.17.66-2.11,1.56-2.82,2.7s-1.12,2.44-1.21,3.89v1.18c.09,1.45.49,2.76,1.2,3.9.71,1.15,1.64,2.05,2.81,2.71s2.48.99,3.93.99Z"/><path class="cls-3" d="M1628.06,360.49c-.47,0-.86-.16-1.17-.49-.31-.33-.47-.72-.47-1.19s.16-.84.47-1.16.7-.48,1.17-.48.88.16,1.21.48c.33.32.49.71.49,1.16s-.16.86-.49,1.19c-.33.33-.73.49-1.21.49ZM1629.3,387.53h-2.46v-20.02h2.46v20.02Z"/><path class="cls-3" d="M1651.76,387.53h-17.26v-1.46l13.13-16.34h-12.51v-2.22h16.2v1.3l-13.27,16.5h13.71v2.22Z"/><path class="cls-3" d="M1674.4,387.53h-2.46v-11.21c0-2.14-.59-3.83-1.76-5.07-1.17-1.25-2.76-1.87-4.74-1.87s-3.7.66-4.95,1.97c-1.24,1.31-1.86,3.07-1.86,5.26v10.93h-2.46v-20.02h2.18l.08,3.76c.69-1.35,1.67-2.38,2.92-3.09,1.25-.71,2.75-1.07,4.48-1.07,2.67,0,4.76.8,6.29,2.4s2.28,3.82,2.28,6.65v11.37Z"/><path class="cls-3" d="M1697.98,385.03c-2.46,1.94-5.18,2.9-8.17,2.9-2.07,0-3.92-.46-5.56-1.39-1.63-.93-2.92-2.19-3.85-3.79-.93-1.6-1.4-3.42-1.4-5.45s.44-3.71,1.31-5.25c.87-1.53,2.07-2.74,3.59-3.62s3.25-1.32,5.19-1.32,3.69.46,5.18,1.39c1.5.93,2.66,2.21,3.5,3.84.84,1.64,1.26,3.53,1.26,5.68v.62h-17.38c.16,1.4.62,2.63,1.39,3.68.77,1.05,1.75,1.88,2.95,2.46,1.2.59,2.55.88,4.04.88,2.46,0,4.71-.81,6.77-2.44l1.16,1.8ZM1681.59,376.52h15.16c-.12-1.43-.51-2.68-1.18-3.74-.67-1.07-1.54-1.9-2.63-2.5s-2.33-.9-3.71-.9-2.66.3-3.77.9-2.01,1.44-2.68,2.51c-.67,1.07-1.06,2.32-1.17,3.73Z"/><path class="cls-3" d="M1702.65,385.79l.72-2.28c.49.45,1.04.84,1.65,1.16.61.32,1.24.57,1.9.74.66.17,1.33.26,2.01.26,1.36,0,2.47-.33,3.32-1,.85-.67,1.28-1.53,1.28-2.6,0-.76-.21-1.38-.64-1.87-.43-.49-.99-.9-1.68-1.25-.69-.35-1.43-.67-2.2-.98-.89-.35-1.77-.74-2.62-1.17-.85-.43-1.56-1-2.11-1.69-.55-.69-.83-1.61-.83-2.74,0-1.07.26-1.99.79-2.77s1.27-1.39,2.22-1.82c.95-.43,2.06-.65,3.31-.65,1.8,0,3.58.44,5.33,1.32l-.76,2.22c-.41-.25-.88-.48-1.4-.67-.52-.19-1.05-.34-1.6-.45-.55-.11-1.07-.16-1.56-.16-1.13,0-2.05.27-2.74.81-.69.54-1.04,1.25-1.04,2.13,0,.57.16,1.07.47,1.49.31.42.79.81,1.43,1.17s1.44.74,2.4,1.14c.92.37,1.82.8,2.7,1.27.88.47,1.61,1.08,2.19,1.81.58.73.87,1.69.87,2.86s-.3,2.17-.89,3.05c-.59.89-1.42,1.58-2.46,2.07-1.05.49-2.27.74-3.65.74-2.31,0-4.44-.71-6.41-2.14Z"/><path class="cls-3" d="M1730.07,387.93c-1.98,0-3.75-.45-5.33-1.36-1.58-.91-2.82-2.15-3.72-3.71-.91-1.57-1.36-3.35-1.36-5.34s.45-3.75,1.36-5.32c.91-1.57,2.15-2.81,3.72-3.72,1.58-.91,3.35-1.37,5.33-1.37s3.72.46,5.29,1.37c1.56.91,2.8,2.16,3.7,3.72.91,1.57,1.36,3.34,1.36,5.32s-.45,3.75-1.36,5.33c-.91,1.57-2.14,2.82-3.7,3.72-1.56.91-3.32,1.36-5.29,1.36ZM1730.06,385.71c1.49,0,2.83-.36,4.01-1.08,1.18-.72,2.12-1.7,2.8-2.93.69-1.23,1.03-2.63,1.03-4.19s-.34-2.92-1.03-4.15c-.69-1.23-1.62-2.21-2.8-2.93-1.18-.72-2.52-1.08-4.01-1.08s-2.84.36-4.02,1.08-2.12,1.7-2.81,2.93c-.69,1.23-1.03,2.62-1.03,4.15s.34,2.96,1.03,4.19c.69,1.23,1.62,2.21,2.81,2.93s2.53,1.08,4.02,1.08Z"/><path class="cls-3" d="M1765.77,387.53h-2.82l-5.1-16.42-5.11,16.42h-2.8l-6.51-20.02h2.6l5.29,16.9,5.37-16.9h2.32l5.37,16.9,5.3-16.9h2.6l-6.51,20.02Z"/><path class="cls-3" d="M1781.59,397.54h-2.68l4.22-10.21-9.45-19.82h2.72l7.91,16.96,7.03-16.96h2.66l-12.41,30.03Z"/><path class="cls-3" d="M1824.41,387.53h-2.1l-.2-3.34c-.67,1.15-1.6,2.06-2.8,2.73s-2.57,1.01-4.1,1.01c-1.42,0-2.68-.28-3.79-.83s-1.99-1.31-2.63-2.28c-.64-.97-.96-2.07-.96-3.29s.35-2.42,1.04-3.4c.69-.99,1.65-1.76,2.86-2.33,1.21-.57,2.6-.85,4.14-.85,1.08,0,2.16.14,3.22.42s2.02.67,2.86,1.18v-1.36c0-1.21-.27-2.26-.8-3.12-.53-.87-1.26-1.53-2.19-1.99s-1.98-.69-3.15-.69c-1.01,0-2.03.18-3.04.55-1.01.37-1.96.91-2.84,1.63l-.88-2.12c1.09-.76,2.27-1.34,3.51-1.73,1.25-.39,2.49-.59,3.73-.59,1.67,0,3.11.34,4.31,1.02s2.15,1.65,2.81,2.89c.67,1.25,1,2.73,1,4.45v12.05ZM1815.6,385.67c1.16,0,2.21-.25,3.15-.75.94-.5,1.7-1.21,2.27-2.12.57-.91.88-1.97.92-3.15v-.68c-.83-.63-1.73-1.1-2.69-1.43-.97-.33-1.97-.49-3.01-.49-1.7,0-3.1.41-4.21,1.22-1.11.81-1.67,1.86-1.67,3.14,0,.8.23,1.52.69,2.17.46.65,1.09,1.16,1.88,1.53.79.37,1.69.56,2.67.56Z"/><path class="cls-3" d="M1833.26,387.53h-2.58v-30.83h2.58v30.83Z"/><path class="cls-3" d="M1842.06,387.53h-2.2v-30.03h2.46v13.81c.87-1.29,2.01-2.32,3.42-3.07,1.42-.75,2.99-1.13,4.72-1.13,1.96,0,3.71.45,5.26,1.36,1.54.91,2.76,2.15,3.65,3.71.89,1.57,1.34,3.35,1.34,5.34s-.45,3.75-1.34,5.33c-.89,1.57-2.11,2.82-3.65,3.72-1.54.91-3.29,1.36-5.26,1.36-1.78,0-3.38-.39-4.81-1.18s-2.59-1.84-3.47-3.16l-.12,3.94ZM1850.27,385.71c1.51,0,2.86-.36,4.05-1.07,1.19-.71,2.14-1.69,2.83-2.92.69-1.23,1.04-2.63,1.04-4.17s-.35-2.96-1.04-4.2-1.64-2.22-2.83-2.93c-1.2-.71-2.55-1.07-4.05-1.07s-2.75.33-3.91.99c-1.17.66-2.11,1.56-2.82,2.7s-1.12,2.44-1.21,3.89v1.18c.09,1.45.49,2.76,1.2,3.9.71,1.15,1.64,2.05,2.81,2.71s2.48.99,3.93.99Z"/><path class="cls-3" d="M1874.54,387.93c-1.98,0-3.75-.45-5.33-1.36-1.58-.91-2.82-2.15-3.72-3.71-.91-1.57-1.36-3.35-1.36-5.34s.45-3.75,1.36-5.32c.91-1.57,2.15-2.81,3.72-3.72,1.58-.91,3.35-1.37,5.33-1.37s3.72.46,5.29,1.37c1.56.91,2.8,2.16,3.7,3.72.91,1.57,1.36,3.34,1.36,5.32s-.45,3.75-1.36,5.33c-.91,1.57-2.14,2.82-3.7,3.72-1.56.91-3.32,1.36-5.29,1.36ZM1874.52,385.71c1.49,0,2.83-.36,4.01-1.08,1.18-.72,2.12-1.7,2.8-2.93.69-1.23,1.03-2.63,1.03-4.19s-.34-2.92-1.03-4.15c-.69-1.23-1.62-2.21-2.8-2.93-1.18-.72-2.52-1.08-4.01-1.08s-2.84.36-4.02,1.08-2.12,1.7-2.81,2.93c-.69,1.23-1.03,2.62-1.03,4.15s.34,2.96,1.03,4.19c.69,1.23,1.62,2.21,2.81,2.93s2.53,1.08,4.02,1.08Z"/><path class="cls-3" d="M1902.56,397.54h-2.46v-30.03h2.22l.1,3.84c.87-1.32,2.02-2.36,3.46-3.11,1.44-.75,3.04-1.13,4.79-1.13,1.96,0,3.72.45,5.27,1.36,1.55.91,2.78,2.15,3.68,3.71.9,1.57,1.35,3.35,1.35,5.34s-.45,3.75-1.35,5.33c-.9,1.57-2.13,2.82-3.68,3.72-1.55.91-3.31,1.36-5.27,1.36-1.71,0-3.27-.36-4.68-1.08-1.42-.72-2.56-1.72-3.42-3v13.69ZM1910.53,385.67c1.52,0,2.88-.35,4.07-1.05s2.13-1.67,2.8-2.9c.67-1.23,1.01-2.64,1.01-4.21s-.34-2.98-1.02-4.2c-.68-1.23-1.62-2.2-2.8-2.9-1.19-.71-2.54-1.06-4.06-1.06-1.44,0-2.75.32-3.93.97-1.18.65-2.13,1.54-2.85,2.67-.72,1.13-1.12,2.42-1.18,3.86v1.36c.07,1.44.46,2.73,1.17,3.85.71,1.13,1.66,2.01,2.84,2.65,1.18.64,2.5.96,3.95.96Z"/><path class="cls-3" d="M1928.45,387.53h-2.46v-20.02h2.18l.1,4.42c.67-1.55,1.66-2.74,2.97-3.57,1.31-.83,2.85-1.25,4.61-1.25.32,0,.65.02.99.05.34.03.68.08,1.01.15l-.3,2.22c-.65-.13-1.31-.2-1.96-.2-1.39,0-2.62.34-3.7,1.02s-1.93,1.62-2.53,2.81c-.61,1.19-.91,2.57-.91,4.13v10.23Z"/><path class="cls-3" d="M1947.57,397.54h-2.68l4.22-10.21-9.45-19.82h2.72l7.91,16.96,7.03-16.96h2.66l-12.41,30.03Z"/><path class="cls-3" d="M1984.32,387.53h-2.82l-5.11-16.42-5.1,16.42h-2.8l-6.51-20.02h2.6l5.29,16.9,5.37-16.9h2.32l5.37,16.9,5.31-16.9h2.6l-6.51,20.02Z"/><path class="cls-3" d="M2010.23,387.53h-2.1l-.2-3.34c-.67,1.15-1.6,2.06-2.8,2.73s-2.57,1.01-4.1,1.01c-1.42,0-2.68-.28-3.79-.83s-1.99-1.31-2.63-2.28c-.64-.97-.96-2.07-.96-3.29s.35-2.42,1.04-3.4c.69-.99,1.65-1.76,2.86-2.33,1.21-.57,2.6-.85,4.14-.85,1.08,0,2.16.14,3.22.42s2.02.67,2.86,1.18v-1.36c0-1.21-.27-2.26-.8-3.12-.53-.87-1.26-1.53-2.19-1.99s-1.98-.69-3.15-.69c-1.01,0-2.03.18-3.04.55-1.01.37-1.96.91-2.84,1.63l-.88-2.12c1.09-.76,2.27-1.34,3.51-1.73,1.25-.39,2.49-.59,3.73-.59,1.67,0,3.11.34,4.31,1.02s2.15,1.65,2.81,2.89c.67,1.25,1,2.73,1,4.45v12.05ZM2001.42,385.67c1.16,0,2.21-.25,3.15-.75.94-.5,1.7-1.21,2.27-2.12.57-.91.88-1.97.92-3.15v-.68c-.83-.63-1.73-1.1-2.69-1.43-.97-.33-1.97-.49-3.01-.49-1.7,0-3.1.41-4.21,1.22-1.11.81-1.67,1.86-1.67,3.14,0,.8.23,1.52.69,2.17.46.65,1.09,1.16,1.88,1.53.79.37,1.69.56,2.67.56Z"/><path class="cls-3" d="M2026.78,387.07c-1.21.57-2.42.86-3.6.86-1.12,0-2.1-.25-2.93-.74s-1.48-1.19-1.95-2.08c-.47-.89-.7-1.94-.7-3.12v-12.25h-3.5v-2.22h3.6v-5h2.36v5h6.13v2.22h-6.13v11.81c0,1.25.33,2.26,1,3.02.67.76,1.55,1.14,2.64,1.14.87,0,1.74-.25,2.62-.76l.46,2.12Z"/><path class="cls-3" d="M2049.23,387.53h-2.46v-11.21c0-2.14-.59-3.83-1.76-5.07-1.17-1.25-2.76-1.87-4.75-1.87s-3.7.66-4.94,1.97c-1.24,1.31-1.86,3.07-1.86,5.26v10.93h-2.46v-20.02h2.18l.08,3.76c.69-1.35,1.67-2.38,2.92-3.09,1.25-.71,2.75-1.07,4.48-1.07,2.67,0,4.76.8,6.29,2.4s2.28,3.82,2.28,6.65v11.37Z"/><path class="cls-3" d="M2060.14,397.54h-2.68l4.22-10.21-9.45-19.82h2.72l7.91,16.96,7.03-16.96h2.66l-12.41,30.03Z"/><path class="cls-3" d="M2076.39,392.34h-1.84l1.76-8.41h2.32l-2.24,8.41Z"/><path class="cls-3" d="M1224.48,446.92l.04-1.98c.2.04.4.07.59.08.19.01.38.02.57.02,1.41,0,2.56-.51,3.44-1.54.88-1.03,1.32-2.4,1.32-4.1v-22.68h2.48v22.76c0,2.42-.57,4.3-1.71,5.65-1.14,1.35-2.71,2.02-4.69,2.02-.32,0-.65-.02-.99-.06-.34-.04-.69-.09-1.05-.16ZM1231.67,409.71c-.47,0-.86-.16-1.17-.49-.31-.33-.47-.72-.47-1.19s.16-.86.47-1.18.7-.48,1.17-.48.86.16,1.19.48.49.71.49,1.18-.16.86-.49,1.19c-.33.33-.72.49-1.19.49Z"/><path class="cls-3" d="M1257.01,434.23c-2.46,1.94-5.18,2.9-8.17,2.9-2.07,0-3.92-.46-5.55-1.39-1.64-.93-2.92-2.19-3.85-3.79s-1.4-3.42-1.4-5.45.44-3.71,1.31-5.25c.87-1.53,2.07-2.74,3.59-3.62s3.25-1.32,5.18-1.32,3.69.46,5.19,1.39c1.49.93,2.66,2.21,3.5,3.84.84,1.64,1.26,3.53,1.26,5.68v.62h-17.38c.16,1.4.62,2.63,1.39,3.68.77,1.05,1.75,1.88,2.95,2.46,1.2.59,2.55.88,4.04.88,2.46,0,4.71-.81,6.77-2.44l1.16,1.8ZM1240.62,425.72h15.15c-.12-1.43-.51-2.68-1.18-3.74-.67-1.07-1.54-1.9-2.63-2.5s-2.33-.9-3.71-.9-2.66.3-3.77.9-2.01,1.44-2.68,2.51c-.67,1.07-1.06,2.32-1.17,3.73Z"/><path class="cls-3" d="M1261.68,434.99l.72-2.28c.49.45,1.04.84,1.65,1.16s1.24.57,1.9.74c.66.17,1.33.26,2.01.26,1.36,0,2.47-.33,3.32-1,.85-.67,1.28-1.53,1.28-2.6,0-.76-.21-1.38-.64-1.87-.43-.49-.99-.9-1.68-1.25-.69-.35-1.43-.67-2.2-.98-.89-.35-1.77-.74-2.62-1.17-.85-.43-1.56-1-2.11-1.69-.55-.69-.83-1.61-.83-2.74,0-1.07.26-1.99.79-2.77s1.27-1.39,2.22-1.82c.95-.43,2.06-.65,3.31-.65,1.8,0,3.58.44,5.33,1.32l-.76,2.22c-.41-.25-.88-.48-1.4-.67-.52-.19-1.05-.34-1.6-.45-.55-.11-1.07-.16-1.56-.16-1.13,0-2.05.27-2.74.81s-1.04,1.25-1.04,2.13c0,.57.16,1.07.47,1.49s.79.81,1.43,1.17,1.44.74,2.4,1.14c.92.37,1.82.8,2.7,1.27.88.47,1.61,1.08,2.19,1.81.58.73.87,1.69.87,2.86s-.3,2.17-.89,3.05c-.59.89-1.41,1.58-2.46,2.07s-2.27.74-3.65.74c-2.31,0-4.44-.71-6.41-2.14Z"/><path class="cls-3" d="M1290.99,436.27c-1.21.57-2.42.86-3.6.86-1.12,0-2.1-.25-2.93-.74s-1.48-1.19-1.95-2.08c-.47-.89-.7-1.94-.7-3.12v-12.25h-3.5v-2.22h3.6v-5h2.36v5h6.13v2.22h-6.13v11.81c0,1.25.33,2.26,1,3.02.67.76,1.55,1.14,2.64,1.14.87,0,1.74-.25,2.62-.76l.46,2.12Z"/><path class="cls-3" d="M1313.17,434.23c-2.46,1.94-5.18,2.9-8.17,2.9-2.07,0-3.92-.46-5.56-1.39-1.63-.93-2.92-2.19-3.85-3.79-.93-1.6-1.4-3.42-1.4-5.45s.44-3.71,1.31-5.25c.87-1.53,2.07-2.74,3.59-3.62s3.25-1.32,5.19-1.32,3.69.46,5.18,1.39c1.5.93,2.66,2.21,3.5,3.84.84,1.64,1.26,3.53,1.26,5.68v.62h-17.38c.16,1.4.62,2.63,1.39,3.68.77,1.05,1.75,1.88,2.95,2.46,1.2.59,2.55.88,4.04.88,2.46,0,4.71-.81,6.77-2.44l1.16,1.8ZM1296.77,425.72h15.16c-.12-1.43-.51-2.68-1.18-3.74-.67-1.07-1.54-1.9-2.63-2.5s-2.33-.9-3.71-.9-2.66.3-3.77.9-2.01,1.44-2.68,2.51c-.67,1.07-1.06,2.32-1.17,3.73Z"/><path class="cls-3" d="M1318.23,434.99l.72-2.28c.49.45,1.04.84,1.65,1.16.61.32,1.24.57,1.9.74.66.17,1.33.26,2.01.26,1.36,0,2.47-.33,3.32-1,.85-.67,1.28-1.53,1.28-2.6,0-.76-.21-1.38-.64-1.87-.43-.49-.99-.9-1.68-1.25-.69-.35-1.43-.67-2.2-.98-.89-.35-1.77-.74-2.62-1.17-.85-.43-1.56-1-2.11-1.69-.55-.69-.83-1.61-.83-2.74,0-1.07.26-1.99.79-2.77s1.27-1.39,2.22-1.82c.95-.43,2.06-.65,3.31-.65,1.8,0,3.58.44,5.33,1.32l-.76,2.22c-.41-.25-.88-.48-1.4-.67-.52-.19-1.05-.34-1.6-.45-.55-.11-1.07-.16-1.56-.16-1.13,0-2.05.27-2.74.81-.69.54-1.04,1.25-1.04,2.13,0,.57.16,1.07.47,1.49.31.42.79.81,1.43,1.17s1.44.74,2.4,1.14c.92.37,1.82.8,2.7,1.27.88.47,1.61,1.08,2.19,1.81.58.73.87,1.69.87,2.86s-.3,2.17-.89,3.05c-.59.89-1.42,1.58-2.46,2.07-1.05.49-2.27.74-3.65.74-2.31,0-4.44-.71-6.41-2.14ZM1325.72,413.37h-1.8l3.22-6.67h2.44l-3.86,6.67Z"/><path class="cls-3" d="M1368.24,436.73h-2.46v-10.87c0-2.31-.52-4.11-1.56-5.4-1.04-1.29-2.5-1.93-4.36-1.93s-3.36.65-4.44,1.95-1.62,3.09-1.62,5.38v10.87h-2.46v-10.87c0-2.31-.52-4.11-1.56-5.4-1.04-1.29-2.5-1.93-4.38-1.93s-3.36.65-4.44,1.95-1.62,3.09-1.62,5.38v10.87h-2.46v-20.02h2.04l.1,3.94c.64-1.43,1.55-2.51,2.73-3.24,1.18-.73,2.59-1.1,4.23-1.1,1.77,0,3.28.43,4.5,1.28,1.23.85,2.11,2.08,2.64,3.66.6-1.61,1.52-2.84,2.75-3.68s2.74-1.26,4.51-1.26c2.48,0,4.41.79,5.8,2.38,1.38,1.59,2.07,3.81,2.07,6.67v11.37Z"/><path class="cls-3" d="M1379.83,446.74h-2.68l4.22-10.21-9.45-19.82h2.72l7.91,16.96,7.03-16.96h2.66l-12.41,30.03Z"/><path class="cls-3" d="M1415.45,436.59c-1.9,0-3.6-.44-5.1-1.33-1.51-.89-2.7-2.1-3.57-3.62-.87-1.53-1.31-3.25-1.31-5.18s.44-3.67,1.31-5.2c.87-1.53,2.07-2.74,3.57-3.62,1.51-.89,3.22-1.33,5.12-1.33,1.73,0,3.3.38,4.69,1.14s2.51,1.78,3.35,3.06l.12-3.8h2.2v19.52c0,2.26-.43,4.2-1.28,5.83-.85,1.63-2.08,2.88-3.66,3.76s-3.48,1.32-5.69,1.32c-3.14,0-5.83-1.06-8.07-3.18l1.16-1.96c1.84,1.95,4.13,2.92,6.87,2.92,1.7,0,3.15-.36,4.37-1.07,1.22-.71,2.17-1.72,2.83-3.01.67-1.29,1-2.84,1-4.62v-3.66c-.85,1.24-1.97,2.23-3.34,2.95-1.38.73-2.9,1.09-4.58,1.09ZM1415.65,434.41c1.42,0,2.7-.32,3.84-.96s2.07-1.52,2.77-2.63c.7-1.11,1.07-2.38,1.11-3.79v-1.12c-.04-1.43-.41-2.7-1.11-3.81-.7-1.11-1.62-1.99-2.76-2.63-1.14-.64-2.42-.96-3.83-.96s-2.79.35-3.95,1.05-2.09,1.65-2.76,2.84c-.67,1.19-1.01,2.55-1.01,4.07s.34,2.86,1.01,4.06,1.59,2.15,2.75,2.84c1.16.69,2.48,1.04,3.94,1.04Z"/><path class="cls-3" d="M1441.05,437.13c-1.98,0-3.75-.45-5.33-1.36-1.58-.91-2.82-2.15-3.72-3.71-.91-1.57-1.36-3.35-1.36-5.34s.45-3.75,1.36-5.32c.91-1.57,2.15-2.81,3.72-3.72,1.57-.91,3.35-1.37,5.33-1.37s3.72.46,5.29,1.37c1.56.91,2.8,2.16,3.7,3.72.91,1.57,1.36,3.34,1.36,5.32s-.45,3.75-1.36,5.33c-.91,1.57-2.14,2.82-3.7,3.72-1.56.91-3.32,1.36-5.29,1.36ZM1441.03,434.91c1.5,0,2.83-.36,4.01-1.08,1.18-.72,2.12-1.7,2.8-2.93.69-1.23,1.03-2.63,1.03-4.19s-.34-2.92-1.03-4.15c-.69-1.23-1.62-2.21-2.8-2.93-1.18-.72-2.52-1.08-4.01-1.08s-2.84.36-4.02,1.08c-1.19.72-2.13,1.7-2.81,2.93-.69,1.23-1.03,2.62-1.03,4.15s.34,2.96,1.03,4.19c.69,1.23,1.62,2.21,2.81,2.93,1.19.72,2.53,1.08,4.02,1.08Z"/><path class="cls-3" d="M1467.1,436.27c-1.21.57-2.42.86-3.6.86-1.12,0-2.1-.25-2.93-.74s-1.49-1.19-1.95-2.08c-.47-.89-.7-1.94-.7-3.12v-12.25h-3.5v-2.22h3.6v-5h2.36v5h6.13v2.22h-6.13v11.81c0,1.25.33,2.26,1,3.02s1.55,1.14,2.64,1.14c.87,0,1.74-.25,2.62-.76l.46,2.12Z"/><path class="cls-3" d="M1480.71,437.13c-1.98,0-3.75-.45-5.33-1.36-1.58-.91-2.82-2.15-3.72-3.71-.91-1.57-1.36-3.35-1.36-5.34s.45-3.75,1.36-5.32c.91-1.57,2.15-2.81,3.72-3.72,1.58-.91,3.35-1.37,5.33-1.37s3.72.46,5.29,1.37c1.56.91,2.8,2.16,3.7,3.72.91,1.57,1.36,3.34,1.36,5.32s-.45,3.75-1.36,5.33c-.91,1.57-2.14,2.82-3.7,3.72-1.56.91-3.32,1.36-5.29,1.36ZM1480.69,434.91c1.49,0,2.83-.36,4.01-1.08,1.18-.72,2.12-1.7,2.8-2.93.69-1.23,1.03-2.63,1.03-4.19s-.34-2.92-1.03-4.15c-.69-1.23-1.62-2.21-2.8-2.93-1.18-.72-2.52-1.08-4.01-1.08s-2.84.36-4.02,1.08-2.12,1.7-2.81,2.93c-.69,1.23-1.03,2.62-1.03,4.15s.34,2.96,1.03,4.19c.69,1.23,1.62,2.21,2.81,2.93s2.53,1.08,4.02,1.08Z"/><path class="cls-3" d="M1516.41,436.73h-2.82l-5.1-16.42-5.11,16.42h-2.8l-6.51-20.02h2.6l5.29,16.9,5.37-16.9h2.32l5.37,16.9,5.3-16.9h2.6l-6.51,20.02Z"/><path class="cls-3" d="M1528.92,409.69c-.47,0-.86-.16-1.17-.49-.31-.33-.47-.72-.47-1.19s.16-.84.47-1.16.7-.48,1.17-.48.88.16,1.21.48c.33.32.49.71.49,1.16s-.16.86-.49,1.19c-.33.33-.73.49-1.21.49ZM1530.16,436.73h-2.46v-20.02h2.46v20.02Z"/><path class="cls-3" d="M1549.64,446.74h-2.46v-30.03h2.22l.1,3.84c.87-1.32,2.02-2.36,3.46-3.11,1.44-.75,3.04-1.13,4.78-1.13,1.96,0,3.72.45,5.28,1.36,1.55.91,2.78,2.15,3.68,3.71.9,1.57,1.35,3.35,1.35,5.34s-.45,3.75-1.35,5.33c-.9,1.57-2.13,2.82-3.68,3.72-1.55.91-3.31,1.36-5.28,1.36-1.71,0-3.27-.36-4.68-1.08s-2.56-1.72-3.42-3v13.69ZM1557.61,434.87c1.52,0,2.88-.35,4.07-1.05,1.19-.7,2.13-1.67,2.8-2.9.67-1.23,1.01-2.64,1.01-4.21s-.34-2.98-1.02-4.2c-.68-1.23-1.62-2.2-2.8-2.9-1.19-.71-2.54-1.06-4.06-1.06-1.44,0-2.75.32-3.93.97-1.18.65-2.13,1.54-2.85,2.67-.72,1.13-1.11,2.42-1.18,3.86v1.36c.07,1.44.46,2.73,1.17,3.85.71,1.13,1.66,2.01,2.84,2.65,1.18.64,2.5.96,3.95.96Z"/><path class="cls-3" d="M1581.87,437.13c-1.98,0-3.75-.45-5.33-1.36-1.58-.91-2.82-2.15-3.72-3.71-.91-1.57-1.36-3.35-1.36-5.34s.45-3.75,1.36-5.32c.91-1.57,2.15-2.81,3.72-3.72,1.57-.91,3.35-1.37,5.33-1.37s3.72.46,5.29,1.37c1.56.91,2.8,2.16,3.7,3.72.91,1.57,1.36,3.34,1.36,5.32s-.45,3.75-1.36,5.33c-.91,1.57-2.14,2.82-3.7,3.72-1.56.91-3.32,1.36-5.29,1.36ZM1581.85,434.91c1.5,0,2.83-.36,4.01-1.08,1.18-.72,2.12-1.7,2.8-2.93.69-1.23,1.03-2.63,1.03-4.19s-.34-2.92-1.03-4.15c-.69-1.23-1.62-2.21-2.8-2.93-1.18-.72-2.52-1.08-4.01-1.08s-2.84.36-4.02,1.08c-1.19.72-2.13,1.7-2.81,2.93-.69,1.23-1.03,2.62-1.03,4.15s.34,2.96,1.03,4.19c.69,1.23,1.62,2.21,2.81,2.93,1.19.72,2.53,1.08,4.02,1.08Z"/><path class="cls-3" d="M1616.5,436.73h-2.22l-.12-3.84c-.85,1.32-2,2.36-3.43,3.11-1.44.75-3.03,1.13-4.78,1.13-1.98,0-3.74-.45-5.29-1.36-1.55-.91-2.78-2.15-3.68-3.72-.9-1.57-1.35-3.35-1.35-5.33s.45-3.77,1.35-5.34c.9-1.57,2.13-2.81,3.68-3.71,1.55-.91,3.32-1.36,5.29-1.36,1.71,0,3.27.36,4.68,1.09,1.42.73,2.55,1.73,3.4,3.01v-13.71h2.46v30.03ZM1606.11,434.91c1.46,0,2.78-.34,3.98-1.01,1.2-.67,2.16-1.59,2.87-2.76.71-1.17,1.07-2.49,1.07-3.97v-.9c0-1.47-.35-2.79-1.06-3.95-.71-1.17-1.66-2.09-2.85-2.76-1.2-.67-2.53-1.01-4.01-1.01s-2.87.36-4.07,1.07c-1.21.71-2.16,1.69-2.85,2.92-.69,1.23-1.04,2.63-1.04,4.17s.35,2.96,1.04,4.19c.69,1.23,1.64,2.21,2.84,2.93s2.56,1.08,4.08,1.08Z"/><path class="cls-3" d="M1617.72,446.92l.04-1.98c.2.04.4.07.59.08.19.01.38.02.57.02,1.42,0,2.56-.51,3.44-1.54.88-1.03,1.32-2.4,1.32-4.1v-22.68h2.48v22.76c0,2.42-.57,4.3-1.71,5.65-1.14,1.35-2.71,2.02-4.69,2.02-.32,0-.65-.02-.99-.06-.34-.04-.69-.09-1.05-.16ZM1624.91,409.71c-.47,0-.86-.16-1.17-.49-.31-.33-.47-.72-.47-1.19s.16-.86.47-1.18.7-.48,1.17-.48.86.16,1.19.48.49.71.49,1.18-.16.86-.49,1.19c-.33.33-.72.49-1.19.49Z"/><path class="cls-3" d="M1648.47,436.73h-.26c-.96.44-1.75,1.08-2.36,1.91-.61.83-.92,1.65-.92,2.45,0,.68.24,1.25.71,1.71s1.17.73,2.07.81l-.14,1.44c-1.27,0-2.28-.33-3.02-1-.75-.67-1.12-1.51-1.12-2.52,0-.96.34-1.88,1.01-2.74.67-.87,1.58-1.55,2.73-2.06h-.8l-.2-3.34c-.68,1.16-1.62,2.08-2.82,2.74s-2.56,1-4.08,1c-1.42,0-2.68-.28-3.79-.83s-1.99-1.31-2.63-2.28c-.64-.97-.96-2.07-.96-3.29s.35-2.42,1.05-3.41c.7-.99,1.65-1.77,2.86-2.33s2.59-.84,4.13-.84c1.08,0,2.16.14,3.22.42s2.02.67,2.86,1.18v-1.36c0-1.21-.27-2.26-.8-3.12-.53-.87-1.26-1.53-2.19-1.99s-1.98-.69-3.15-.69c-1.01,0-2.03.18-3.03.54s-1.96.91-2.85,1.64l-.88-2.12c1.09-.76,2.27-1.34,3.51-1.73,1.25-.39,2.49-.59,3.73-.59,1.67,0,3.11.34,4.31,1.02s2.15,1.65,2.81,2.89c.67,1.25,1,2.73,1,4.45v12.05ZM1639.63,434.87c1.19,0,2.27-.27,3.23-.81s1.73-1.27,2.3-2.2c.57-.93.85-1.97.85-3.13v-.56c-.79-.63-1.66-1.1-2.61-1.43-.95-.33-1.96-.49-3.03-.49-1.74,0-3.16.41-4.27,1.22-1.11.81-1.67,1.86-1.67,3.14,0,.8.23,1.52.69,2.17.46.65,1.08,1.16,1.86,1.53.78.37,1.67.56,2.65.56Z"/><path class="cls-3" d="M1671.14,433.95c-.96,1.01-2.09,1.8-3.39,2.35-1.3.55-2.71.83-4.21.83-1.98,0-3.75-.45-5.32-1.36-1.57-.91-2.81-2.15-3.71-3.72-.91-1.57-1.36-3.35-1.36-5.33s.45-3.77,1.36-5.34c.91-1.57,2.14-2.81,3.71-3.71,1.57-.91,3.34-1.36,5.32-1.36,1.5,0,2.9.27,4.2.82,1.31.55,2.44,1.33,3.38,2.34l-1.5,1.58c-.75-.79-1.64-1.4-2.67-1.83-1.03-.43-2.14-.65-3.31-.65-1.54,0-2.9.35-4.09,1.05s-2.13,1.67-2.82,2.89c-.69,1.23-1.03,2.62-1.03,4.18s.34,2.98,1.03,4.21c.69,1.23,1.63,2.2,2.82,2.9s2.56,1.05,4.09,1.05c1.17,0,2.28-.22,3.32-.65,1.04-.43,1.93-1.04,2.66-1.83l1.52,1.56ZM1663.53,413.37h-1.82l3.24-6.67h2.44l-3.86,6.67Z"/><path class="cls-3" d="M1688.87,436.73h-2.46v-30.03h2.46v22l1.42-1.72,9.75-10.27h3.08l-8.13,8.63,9.45,11.39h-3.18l-7.97-9.59-4.42,4.7v4.88Z"/><path class="cls-3" d="M1723.85,436.73h-2.1l-.2-3.34c-.67,1.15-1.6,2.06-2.8,2.73s-2.57,1.01-4.1,1.01c-1.42,0-2.68-.28-3.79-.83s-1.99-1.31-2.63-2.28c-.64-.97-.96-2.07-.96-3.29s.35-2.42,1.04-3.4c.69-.99,1.65-1.76,2.86-2.33,1.21-.57,2.6-.85,4.14-.85,1.08,0,2.16.14,3.22.42,1.07.28,2.02.67,2.86,1.18v-1.36c0-1.21-.27-2.26-.8-3.12-.53-.87-1.26-1.53-2.19-1.99-.93-.46-1.98-.69-3.15-.69-1.01,0-2.03.18-3.04.55-1.01.37-1.96.91-2.84,1.63l-.88-2.12c1.09-.76,2.26-1.34,3.51-1.73,1.25-.39,2.49-.59,3.73-.59,1.67,0,3.11.34,4.31,1.02,1.21.68,2.14,1.65,2.81,2.89.67,1.25,1,2.73,1,4.45v12.05ZM1715.04,434.87c1.16,0,2.21-.25,3.15-.75.94-.5,1.7-1.21,2.27-2.12.57-.91.88-1.97.92-3.15v-.68c-.83-.63-1.72-1.1-2.69-1.43-.97-.33-1.97-.49-3.01-.49-1.7,0-3.1.41-4.21,1.22-1.12.81-1.67,1.86-1.67,3.14,0,.8.23,1.52.69,2.17.46.65,1.09,1.16,1.88,1.53.79.37,1.68.56,2.67.56Z"/><path class="cls-3" d="M1745.79,436.73h-17.28v-1.46l13.13-16.34h-12.51v-2.22h16.2v1.3l-13.27,16.5h13.73v2.22ZM1737.14,411.45c-.43,0-.78-.13-1.05-.4-.27-.27-.41-.61-.41-1.04s.14-.77.41-1.04c.27-.27.62-.4,1.05-.4s.77.13,1.04.4c.27.27.4.61.4,1.04s-.13.77-.4,1.04c-.27.27-.61.4-1.04.4Z"/><path class="cls-3" d="M1769.47,436.73h-2.22l-.12-3.84c-.85,1.32-2,2.36-3.43,3.11s-3.03,1.13-4.77,1.13c-1.98,0-3.74-.45-5.3-1.36-1.55-.91-2.78-2.15-3.68-3.72-.9-1.57-1.35-3.35-1.35-5.33s.45-3.77,1.35-5.34c.9-1.57,2.13-2.81,3.68-3.71,1.55-.91,3.32-1.36,5.3-1.36,1.71,0,3.27.36,4.68,1.09,1.41.73,2.55,1.73,3.4,3.01v-13.71h2.46v30.03ZM1759.08,434.91c1.45,0,2.78-.34,3.98-1.01,1.2-.67,2.16-1.59,2.87-2.76.71-1.17,1.07-2.49,1.07-3.97v-.9c0-1.47-.35-2.79-1.06-3.95-.71-1.17-1.66-2.09-2.85-2.76-1.19-.67-2.53-1.01-4.01-1.01s-2.87.36-4.07,1.07c-1.21.71-2.16,1.69-2.85,2.92-.69,1.23-1.04,2.63-1.04,4.17s.35,2.96,1.04,4.19c.69,1.23,1.64,2.21,2.84,2.93s2.56,1.08,4.08,1.08Z"/><path class="cls-3" d="M1793.46,434.23c-2.46,1.94-5.18,2.9-8.17,2.9-2.07,0-3.92-.46-5.55-1.39-1.64-.93-2.92-2.19-3.85-3.79s-1.4-3.42-1.4-5.45.44-3.71,1.31-5.25c.87-1.53,2.07-2.74,3.59-3.62s3.25-1.32,5.18-1.32,3.69.46,5.19,1.39c1.49.93,2.66,2.21,3.5,3.84.84,1.64,1.26,3.53,1.26,5.68v.62h-17.38c.16,1.4.62,2.63,1.39,3.68.77,1.05,1.75,1.88,2.95,2.46,1.2.59,2.55.88,4.04.88,2.46,0,4.71-.81,6.77-2.44l1.16,1.8ZM1777.06,425.72h15.15c-.12-1.43-.51-2.68-1.18-3.74-.67-1.07-1.54-1.9-2.63-2.5s-2.33-.9-3.71-.9-2.66.3-3.77.9-2.01,1.44-2.68,2.51c-.67,1.07-1.06,2.32-1.17,3.73Z"/><path class="cls-3" d="M1830.07,436.73h-2.82l-5.1-16.42-5.11,16.42h-2.8l-6.51-20.02h2.6l5.29,16.9,5.37-16.9h2.32l5.37,16.9,5.3-16.9h2.6l-6.51,20.02Z"/><path class="cls-3" d="M1845.89,446.74h-2.68l4.22-10.21-9.45-19.82h2.72l7.91,16.96,7.03-16.96h2.66l-12.41,30.03Z"/><path class="cls-3" d="M1877.96,436.73h-17.26v-1.46l13.13-16.34h-12.51v-2.22h16.2v1.3l-13.27,16.5h13.71v2.22Z"/><path class="cls-3" d="M1903.3,436.73h-2.82l-5.1-16.42-5.11,16.42h-2.8l-6.51-20.02h2.6l5.29,16.9,5.37-16.9h2.32l5.37,16.9,5.3-16.9h2.6l-6.51,20.02Z"/><path class="cls-3" d="M1929.21,436.73h-2.1l-.2-3.34c-.67,1.15-1.6,2.06-2.8,2.73s-2.57,1.01-4.1,1.01c-1.42,0-2.68-.28-3.79-.83s-1.99-1.31-2.63-2.28c-.64-.97-.96-2.07-.96-3.29s.35-2.42,1.04-3.4c.69-.99,1.65-1.76,2.86-2.33,1.21-.57,2.6-.85,4.14-.85,1.08,0,2.16.14,3.22.42,1.07.28,2.02.67,2.86,1.18v-1.36c0-1.21-.27-2.26-.8-3.12-.53-.87-1.26-1.53-2.19-1.99-.93-.46-1.98-.69-3.15-.69-1.01,0-2.03.18-3.04.55-1.01.37-1.96.91-2.84,1.63l-.88-2.12c1.09-.76,2.26-1.34,3.51-1.73,1.25-.39,2.49-.59,3.73-.59,1.67,0,3.11.34,4.31,1.02,1.21.68,2.14,1.65,2.81,2.89.67,1.25,1,2.73,1,4.45v12.05ZM1920.4,434.87c1.16,0,2.21-.25,3.15-.75.94-.5,1.7-1.21,2.27-2.12.57-.91.88-1.97.92-3.15v-.68c-.83-.63-1.72-1.1-2.69-1.43-.97-.33-1.97-.49-3.01-.49-1.7,0-3.1.41-4.21,1.22-1.12.81-1.67,1.86-1.67,3.14,0,.8.23,1.52.69,2.17.46.65,1.09,1.16,1.88,1.53.79.37,1.68.56,2.67.56Z"/><path class="cls-3" d="M1953.71,436.73h-2.46v-11.21c0-2.14-.59-3.83-1.76-5.07-1.17-1.25-2.76-1.87-4.74-1.87s-3.7.66-4.95,1.97c-1.24,1.31-1.86,3.07-1.86,5.26v10.93h-2.46v-20.02h2.18l.08,3.76c.69-1.35,1.67-2.38,2.92-3.09,1.25-.71,2.75-1.07,4.48-1.07,2.67,0,4.76.8,6.29,2.4s2.28,3.82,2.28,6.65v11.37Z"/><path class="cls-3" d="M1961.32,409.69c-.47,0-.86-.16-1.17-.49-.31-.33-.47-.72-.47-1.19s.16-.84.47-1.16.7-.48,1.17-.48.88.16,1.21.48.49.71.49,1.16-.16.86-.49,1.19c-.33.33-.73.49-1.21.49ZM1962.56,436.73h-2.46v-20.02h2.46v20.02Z"/><path class="cls-3" d="M1986.75,434.23c-2.46,1.94-5.18,2.9-8.17,2.9-2.07,0-3.92-.46-5.56-1.39-1.63-.93-2.92-2.19-3.85-3.79-.93-1.6-1.4-3.42-1.4-5.45s.44-3.71,1.31-5.25c.87-1.53,2.07-2.74,3.59-3.62s3.25-1.32,5.19-1.32,3.69.46,5.18,1.39c1.5.93,2.66,2.21,3.5,3.84.84,1.64,1.26,3.53,1.26,5.68v.62h-17.38c.16,1.4.62,2.63,1.39,3.68.77,1.05,1.75,1.88,2.95,2.46,1.2.59,2.55.88,4.04.88,2.46,0,4.71-.81,6.77-2.44l1.16,1.8ZM1970.35,425.72h15.16c-.12-1.43-.51-2.68-1.18-3.74-.67-1.07-1.54-1.9-2.63-2.5s-2.33-.9-3.71-.9-2.66.3-3.77.9-2.01,1.44-2.68,2.51c-.67,1.07-1.06,2.32-1.17,3.73Z"/><path class="cls-3" d="M1994.03,437.13c-.48,0-.88-.15-1.18-.46s-.46-.71-.46-1.2.15-.9.46-1.21c.31-.31.7-.47,1.18-.47s.9.16,1.21.47c.31.31.47.72.47,1.21s-.16.89-.47,1.2-.72.46-1.21.46Z"/><circle class="cls-10" cx="277.33" cy="126.33" r="92"/><g class="cls-1"><path class="cls-10" d="M902.18,249.33c1.32-1.85,1.53-4.5.53-6.56-1-2.06-3.17-3.41-5.36-3.34,2.61-4.87.91-11.79-3.61-14.69-4.52-2.9-11.1-1.29-13.96,3.41-.33-2.11-2.15-3.84-4.17-3.97-2.01-.13-4.02,1.36-4.59,3.41-1.51-1.13-3.25-1.89-5.05-2.29-5.1-1.13-10.72.77-14.24,4.84-3.53,4.07-4.85,10.15-3.35,15.44-.58-1.15-2.26-.82-3.24-.03-1.21.98-2.11,2.79-1.36,4.2,0,0,38.65-.6,58.12-.04"/></g><g class="cls-22"><path class="cls-10" d="M2348.46,163.79c2.08-7.53.53-12.84-5.35-18.25-5.88-5.41-16.57-6.12-24.4-3.88.96-5.44-2.02-11.31-7.09-13.96-5.07-2.65-11.87-1.89-16.16,1.81,1.85-14.96-9.95-30.31-25.48-33.14-15.53-2.83-32.43,7.3-36.5,21.86-5.41-2.47-12.33-1.55-16.84,2.22-4.51,3.78-6.34,10.2-4.46,15.63-6.39.75-12.26,4.7-15.15,10.19-2.89,5.48-2.7,12.33.48,17.67,44.29.37,145.61.23,150.93-.15"/></g><g class="cls-28"><path class="cls-10" d="M2053.03,269.72c2.18-3.06,2.53-7.45.87-10.86-1.66-3.4-5.25-5.64-8.87-5.52,4.33-8.06,1.51-19.51-5.97-24.31-7.48-4.8-18.38-2.14-23.12,5.65-.55-3.49-3.57-6.36-6.9-6.57-3.33-.21-6.65,2.25-7.6,5.65-2.49-1.87-5.38-3.12-8.37-3.79-8.45-1.88-17.74,1.28-23.58,8.01-5.84,6.73-8.02,16.8-5.54,25.56-.96-1.91-3.75-1.36-5.37-.04-2.01,1.62-3.49,4.62-2.25,6.95,0,0,63.98-.99,96.22-.07"/></g></g></svg>