<?xml version="1.0" encoding="UTF-8"?><svg id="Layer_2" xmlns="http://www.w3.org/2000/svg" xmlns:xlink="http://www.w3.org/1999/xlink" viewBox="0 0 450 371.78"><defs><style>.cls-1{fill:#722217;}.cls-1,.cls-2,.cls-3,.cls-4,.cls-5,.cls-6,.cls-7,.cls-8,.cls-9,.cls-10,.cls-11,.cls-12,.cls-13,.cls-14,.cls-15,.cls-16,.cls-17,.cls-18,.cls-19,.cls-20,.cls-21{stroke-width:0px;}.cls-2{fill:#e5e5e5;}.cls-4{fill:#022b0c;}.cls-5{fill:#d3b28b;}.cls-6{fill:#211010;}.cls-22{opacity:.23;}.cls-7{fill:#052d07;}.cls-8{fill:#fff;}.cls-23{opacity:.3;}.cls-9{fill:#a0a0a0;}.cls-10{fill:#8c2a20;}.cls-11{fill:#01240b;}.cls-12{fill:#9b3a2f;}.cls-13{fill:#ffad86;}.cls-14{fill:#b74d44;}.cls-15{fill:#e3bf98;}.cls-16{fill:#a13941;}.cls-17{fill:#ed8a72;}.cls-18{fill:#e0ba90;}.cls-19{fill:url(#linear-gradient);opacity:.36;}.cls-20{fill:#d7af80;}.cls-21{fill:#471910;}</style><linearGradient id="linear-gradient" x1="-27.24" y1="171.96" x2="482.08" y2="188.19" gradientUnits="userSpaceOnUse"><stop offset=".04" stop-color="#ffdfc0"/><stop offset=".28" stop-color="#f8d6b5"/><stop offset=".7" stop-color="#e6c198"/><stop offset="1" stop-color="#d7af80"/></linearGradient></defs><g id="Layer_1-2"><rect class="cls-19" width="450" height="360"/><g class="cls-23"><path class="cls-8" d="M351.68,233.69l-4.27-4.6-4.27-4.6-7.01,2.66c-2.88-1.84-5.96-3.23-9.15-4.18l-3.38-7.08-5.47-.2-5.96-.22-3.39,6.83c-3.25.71-6.43,1.88-9.43,3.51l-7.21-2.78-4.18,3.89-.79.73-.79.74-4.18,3.89,2.24,7.4c-1.84,2.88-3.23,5.96-4.18,9.15l-7.06,2.89-.22,5.96-.2,5.47,6.81,3.88c.71,3.25,1.88,6.43,3.51,9.44l-3.16,6.8,4.27,4.6,4.27,4.6,7.01-2.66c2.88,1.84,5.96,3.23,9.15,4.18l3.38,7.08,5.47.2,5.96.22,3.39-6.83c3.25-.71,6.43-1.88,9.43-3.51l7.21,2.78,4.18-3.89.79-.74.79-.74,4.18-3.89-2.24-7.4c1.84-2.88,3.23-5.96,4.18-9.15l7.06-2.89.22-5.96.2-5.47-6.81-3.88c-.71-3.25-1.88-6.43-3.51-9.43l3.16-6.8ZM336.36,239.36c10.15,10.92,9.53,27.99-1.39,38.14-.26.25-.53.49-.81.72-.25.25-.51.5-.78.75-10.92,10.15-27.99,9.53-38.14-1.39-10.15-10.92-9.53-27.99,1.39-38.14.26-.25.53-.49.81-.72.25-.25.51-.5.78-.75,10.92-10.15,27.99-9.53,38.14,1.39Z"/><path class="cls-8" d="M445.28,285.27l-4.23-6.3-4.23-6.3-8.87,1.84c-3.08-2.74-6.5-4.99-10.13-6.73l-2.68-9.09-6.48-1.28-7.06-1.39-5.34,7.51c-4.02.23-8.03,1.02-11.92,2.39l-8.08-4.68-5.72,3.84-1.08.73-1.08.73-5.72,3.84,1.27,9.25c-2.74,3.08-4.99,6.5-6.73,10.13l-8.97,2.1-1.39,7.07-1.28,6.48,7.39,5.93c.23,4.02,1.02,8.03,2.39,11.92l-5.07,7.51,4.23,6.3,4.23,6.3,8.87-1.84c3.08,2.74,6.5,4.99,10.13,6.73l2.68,9.09,6.48,1.28,7.06,1.39,5.34-7.51c4.02-.23,8.03-1.02,11.92-2.39l8.08,4.68,5.72-3.84,1.08-.73,1.08-.73,5.72-3.84-1.27-9.25c2.74-3.08,4.99-6.5,6.73-10.13l8.97-2.1,1.39-7.07,1.28-6.48-7.39-5.93c-.23-4.02-1.02-8.03-2.39-11.92l5.07-7.51ZM425.93,289.12c10.03,14.95,6.05,35.21-8.9,45.24-.36.24-.73.48-1.1.71-.35.26-.71.5-1.07.75-14.95,10.03-35.21,6.05-45.24-8.9-10.03-14.95-6.05-35.21,8.9-45.24.36-.24.73-.48,1.1-.71.35-.26.71-.5,1.07-.75,14.95-10.03,35.21-6.05,45.24,8.9Z"/><path class="cls-8" d="M412.78,209.76l-3.01-3.24-3.01-3.24-4.94,1.87c-2.03-1.3-4.2-2.28-6.45-2.95l-2.38-4.98-3.85-.14-4.19-.15-2.39,4.81c-2.29.5-4.53,1.32-6.64,2.47l-5.08-1.95-2.94,2.74-.56.52-.56.52-2.94,2.74,1.58,5.21c-1.3,2.03-2.28,4.2-2.95,6.45l-4.97,2.03-.15,4.19-.14,3.85,4.8,2.73c.5,2.29,1.32,4.53,2.47,6.64l-2.23,4.79,3.01,3.24,3.01,3.24,4.94-1.87c2.03,1.3,4.2,2.28,6.45,2.95l2.38,4.98,3.85.14,4.19.15,2.39-4.81c2.29-.5,4.53-1.32,6.64-2.47l5.08,1.95,2.94-2.74.56-.52.56-.52,2.94-2.74-1.58-5.21c1.3-2.03,2.28-4.2,2.95-6.45l4.97-2.03.15-4.2.14-3.85-4.8-2.73c-.5-2.29-1.32-4.53-2.47-6.64l2.23-4.79ZM402,213.76c7.15,7.69,6.71,19.71-.98,26.86-.19.17-.38.34-.57.51-.18.18-.36.36-.55.53-7.69,7.15-19.71,6.71-26.86-.98-7.15-7.69-6.71-19.71.98-26.86.19-.17.38-.34.57-.51.18-.18.36-.36.55-.53,7.69-7.15,19.71-6.71,26.86.98Z"/></g><path class="cls-20" d="M150.74,137.37h0c4.75,0,8.62,3.84,8.65,8.59l.19,28.38c-3.45,9.97-2.97,20.12.2,30.38l.61,91.58c0,1,.2,2.02.55,2.95,10,26.9,8.21,40.76,5.52,47.33-1.31,3.2-4.49,5.21-7.95,5.21h-12.23c-3.8,0-7.22-2.44-8.27-6.09-2.04-7.15-3.2-21.24,5.08-45.65.31-.91.48-1.89.47-2.86l-.9-92.11c2.89-10.04,2.87-19.96-.29-29.75l-.29-29.24c-.05-4.81,3.84-8.74,8.65-8.74Z"/><polygon class="cls-20" points="11.57 264.97 48.5 129.1 46.48 129.1 9.98 264.97 11.57 264.97"/><polygon class="cls-20" points="89.06 264.97 49.72 129.1 51.57 129.1 90.85 264.97 89.06 264.97"/><polygon class="cls-20" points="15.52 275.6 82.99 275.6 90.85 264.97 9.98 264.97 15.52 275.6"/><rect class="cls-20" x="48.5" y="129.1" width="1.22" height="140.49"/><polygon class="cls-20" points="218.66 310.21 255.59 174.34 253.57 174.34 217.06 310.21 218.66 310.21"/><polygon class="cls-20" points="296.15 310.21 256.81 174.34 258.66 174.34 297.94 310.21 296.15 310.21"/><polygon class="cls-20" points="222.61 320.84 290.08 320.84 297.94 310.21 217.06 310.21 222.61 320.84"/><rect class="cls-20" x="255.59" y="174.34" width="1.22" height="140.49"/><rect class="cls-20" x="122.94" y="346.07" width="57.77" height="6.55" rx="2.93" ry="2.93"/><rect class="cls-20" x="106.82" y="350.98" width="90.84" height="16.91" rx="7.58" ry="7.58"/><rect class="cls-20" x="129.96" y="218.41" width="42.72" height="13.82" rx="6.2" ry="6.2"/><rect class="cls-20" x="135.25" y="212.2" width="32.15" height="26.24" rx="11.76" ry="11.76"/><rect class="cls-20" x="138.7" y="204.99" width="25.25" height="7.21" rx="3.23" ry="3.23"/><rect class="cls-20" x="140.72" y="168.33" width="21.2" height="7.21" rx="3.23" ry="3.23"/><path class="cls-20" d="M160.34,245.66h-18.04c-1.99,0-3.61-1.61-3.61-3.61h0c0-1.99,1.61-3.61,3.61-3.61h18.04c1.99,0,3.61,1.61,3.61,3.61h0c0,1.99-1.61,3.61-3.61,3.61Z"/><rect class="cls-20" x="102.86" y="366.87" width="98.75" height="4.91" rx=".29" ry=".29"/><path class="cls-20" d="M262.21,166.26c-5.94-4.45-11.13-2.12-11.13-2.12-57.52,27.78-64.79-12.34-64.79-12.34l-32.72-6.23-32.72-6.23s-21.52,34.64-64.79-12.34c0,0-3.97-4.07-11.13-2.12-7.15,1.95-11.17,15.24,2.04,21.34,10.02,4.62,11.89-5.2,11.89-5.2,0,0,29.81,35.52,67.12,14.14l24.87,4.74,24.87,4.74c26.83,33.6,67.62,11.52,67.62,11.52,0,0-1.87,9.82,9.14,9.2,14.53-.81,15.68-14.65,9.74-19.1Z"/><circle class="cls-20" cx="151.32" cy="132.84" r="5.81"/><g id="BM1"><path class="cls-6" d="M28.64,258.74c-.34.14-1.93,2.37-1.93,2.37l-.28,1.46,4.25,1.84,3.1,1.21.65-1.92-3.56-3.45-2.23-1.5Z"/><path class="cls-6" d="M50.12,258.71c.23.28,0,0,0,0l1.93,2.81,3.69,1.45-.69,2.07-8.24-.15-.48-.91s.07-1.95.23-2.01l.81-3.69,2.75.44Z"/><polygon class="cls-11" points="48.77 196.69 43.67 195.52 41.46 195.58 38.52 196.33 35.8 198.25 35.47 203.75 35.3 205.89 35.86 213.99 35.34 219.47 33.48 226.84 35.58 229.3 33.86 243.72 27.15 259.49 32.71 261.35 40.25 245.65 43.41 230.27 43.52 230.3 46.7 243.34 46.64 260.33 52.22 260.53 53.02 243.66 51.09 228.22 51.68 227.07 51.27 216.77 51.3 203.37 51.36 198.24 48.77 196.69"/><polygon class="cls-13" points="68.8 205.59 67.54 203.43 70.01 203.06 73.02 203.78 73.91 206.03 73.34 206.41 70.16 205.56 68.8 205.59"/><polygon class="cls-4" points="44.47 196.68 44.65 195.97 58.3 198.32 69.86 202.49 69.89 206.64 59.87 203.26 48.23 201.44 44.47 196.68"/><polygon class="cls-8" points="70.68 202.94 69.88 202.92 69.89 205.91 70.65 205.76 70.68 202.94"/><polygon class="cls-11" points="48.77 196.69 43.67 195.52 41.46 195.58 38.52 196.33 34.6 197.96 34.61 202.84 34.13 207.26 35.27 213.97 34.75 219.45 33.48 226.84 35.58 229.3 38.39 230.75 40.21 225.62 48.25 225.48 48.99 228.37 51.09 228.22 51.68 227.07 51.94 216.79 52.1 207.35 51.36 198.24 48.77 196.69"/><polygon class="cls-17" points="41.38 196.85 45.99 204.79 48.28 198.57 47.75 196.98 47.5 196.76 47.85 192.5 42.96 191.99 42.54 195.27 41.38 196.85"/><path class="cls-8" d="M46.39,199.03c-3.97.31-4.36-2.95-4.36-2.95l.35-.58-2.53,1.54.97,7.67-.6,20.92c3.45.31,6.93.2,8.83-.15l.62-10.99.15-9.33.08-4.76-1.14-3.16-1.2-1.18-.06.72s.79,2.12-1.11,2.27Z"/><path class="cls-13" d="M46.87,184.57s-3.41.5-4.42.79c-3.05.89-3.13,2.5-2.11,5.87.63,2.07,3.28,2.55,3.28,2.55l.69,1.13c.71.12,3.03,1.08,3.03,1.08l2.4-.51.49-2.84s-.84-4.17-.91-4.34c0,0-.3-1.73-.93-2.71-.5-.79-1.52-1.03-1.52-1.03Z"/><path class="cls-6" d="M47.63,182.93l-2.14.43s-2.64.51-3.3.7c-2.95.86-3.55,4.18-2.44,7.41l1.83,2.41,1.25.75.34-2.35c.44-.21,1.48-.72,1.48-.72l-.75-3.48,1.05-1.82,2.86-.2.74-.18.41-.77-.24-1.13-.38.2-.71-1.24Z"/><path class="cls-13" d="M44.72,191.36c-.04.87-.11,1.33-.85,1.17-.4-.09-.89-.17-1.15-1.31-.19-.85.34-1.61,1.09-1.57.76.04.95.84.9,1.71Z"/><polygon class="cls-16" points="45.8 199.39 44.57 200.42 45.09 201.69 47.12 201.72 47.58 200.47 46.36 199.4 45.8 199.39"/><polygon class="cls-16" points="45.2 202.03 47.14 202.06 47.93 220.01 45.69 223.62 43.06 220.27 45.2 202.03"/></g><path class="cls-10" d="M23.22,240.61s14.16,4.1,14.46,4.08c.3-.02,3.62-2.33,3.62-2.33l.28-11.82s-14.71-2.79-14.96-2.61c-.25.18-3.78,1.83-3.79,1.9-.04.35.39,10.78.39,10.78Z"/><path class="cls-1" d="M41.31,242.36l.28-11.82s-.21-.04-.57-.11c-.94.66-2.56,1.83-2.52,1.88.05.06-.65,10.73-.75,12.36.52-.2,3.57-2.32,3.57-2.32Z"/><path class="cls-21" d="M28.68,238.25l9.95-5.37,3-2.45c-.51-.1-14.63-2.45-14.88-2.27-.23.16-3.22,1.27-3.75,1.73l5.69,8.37Z"/><polygon class="cls-21" points="27.84 236.1 27.53 236.49 27.77 238.45 30.68 239.07 31.1 238.65 31.34 236.62 27.84 236.1"/><path class="cls-12" d="M28.6,237.9l10.33-5.28,2.69-2.2c-.51-.1-14.7-2.78-14.95-2.61-.23.16-3.03,1.49-3.56,1.95l5.49,8.14Z"/><path class="cls-14" d="M22.83,229.87c1.09.22,15.76,3.02,15.76,3.02l2.7-2.17.34-.29s-14.71-2.79-14.96-2.61c-.08.06-.47.22-.98.43l-2.86,1.59s0,.03,0,.05Z"/><polygon class="cls-8" points="27.46 236.21 27.15 236.6 27.38 238.56 30.31 239.18 30.73 238.76 30.97 236.73 27.46 236.21"/><path class="cls-2" d="M30.18,237.2s-2.06-.44-2.87-.54l.07,1.9,2.92.62h.01s-.14-1.98-.14-1.98Z"/><path class="cls-9" d="M30.1,228.44l-.26-.12s-.19.07-.31.22-.11,1.55-.11,1.55l.68-.51.13-1.23-.13.09Z"/><path class="cls-2" d="M29.84,227.17c-.72.07-.9,1.16-.9,1.16l-.09,1.54.57.22s0-1.4.11-1.55.31-.22.31-.22l.26.12.13-.09,2.29-.96s-2.36-.26-2.68-.23Z"/><path class="cls-9" d="M31.35,227.88l.08-.03-.7-.63c-.42-.04-.79-.06-.9-.05-.23.02-.4.15-.53.31.39.06,1.61.31,2.05.41Z"/><path class="cls-9" d="M33.24,228.09l-.12.94s.66.11.87.16c.21.05.25,1.1.18,1.5-.07.4.88.28.88.28l.53-.8s.14-1.77-.03-2.07c-.18-.3-1.6-.5-1.6-.5l-.48.26-.23.22Z"/><path class="cls-2" d="M34.75,228.49c-.14-.28-.97-.35-1.52-.35l-.11.9s.66.11.87.16c.21.05.25,1.1.18,1.5-.06.37.73.3.86.28-.02-.47-.09-2.14-.28-2.49Z"/><polygon class="cls-13" points="31.47 225.13 32.33 225.4 34.03 227.06 34.21 229.55 30.45 229.83 29.56 226.87 29.7 225.44 31.47 225.13"/><polygon class="cls-8" points="29.2 224.87 29.18 225.84 33 225.38 32.89 224.43 29.2 224.87"/><polygon class="cls-7" points="34.6 197.96 29.04 211.18 28.87 225.19 33.01 224.62 33.63 212.95 37.76 204.58 37.75 200.93 36.82 198.98 34.6 197.96"/><g class="cls-22"><polygon class="cls-5" points="170.48 263.29 173.7 263.1 172.88 260.35 170.48 263.29"/><polygon class="cls-18" points="172.87 260.23 194.03 261.81 172.1 256.38 170.44 263.23 172.87 260.23"/><polygon class="cls-15" points="171.24 253.51 172.1 256.27 193.97 261.76 171.24 253.51"/><polygon class="cls-15" points="175.34 268.19 193.98 261.84 172.97 260.3 175.34 268.19"/></g><g class="cls-22"><polygon class="cls-5" points="10.5 159.58 12.8 158.91 11.75 157.05 10.5 159.58"/><polygon class="cls-18" points="11.73 156.97 27.32 154.62 10.53 154.3 10.46 159.54 11.73 156.97"/><polygon class="cls-15" points="9.43 152.37 10.52 154.23 27.27 154.6 9.43 152.37"/><polygon class="cls-15" points="14.82 162.33 27.29 154.65 11.81 157 14.82 162.33"/></g><g class="cls-22"><polygon class="cls-5" points="293.99 336.07 296.44 335.78 295.69 333.72 293.99 336.07"/><polygon class="cls-18" points="295.68 333.63 311.89 333.92 294.93 330.72 293.96 336.02 295.68 333.63"/><polygon class="cls-15" points="294.14 328.57 294.92 330.64 311.85 333.88 294.14 328.57"/><polygon class="cls-15" points="297.91 339.59 311.86 333.94 295.76 333.68 297.91 339.59"/></g><path class="cls-3" d="M46.04,55.16h-2.91l-14.73-19.14v19.14h-2.75v-23.44h2.91l14.73,19.14v-19.14h2.75v23.44Z"/><path class="cls-3" d="M52.23,34.6c-.44,0-.8-.15-1.1-.46-.3-.31-.45-.68-.45-1.12s.15-.79.45-1.09c.3-.3.66-.45,1.1-.45s.82.15,1.12.45c.3.3.45.67.45,1.09s-.15.81-.45,1.12c-.3.31-.68.46-1.12.46ZM53.51,55.16h-2.56v-15.62h2.56v15.62Z"/><path class="cls-3" d="M72.13,53.24c-1.94,1.49-4.07,2.23-6.41,2.23-1.62,0-3.08-.36-4.38-1.09-1.29-.73-2.31-1.72-3.05-2.98-.75-1.25-1.12-2.67-1.12-4.26s.34-2.88,1.03-4.07c.69-1.19,1.63-2.13,2.83-2.82,1.2-.69,2.56-1.03,4.08-1.03s2.94.38,4.13,1.12c1.19.75,2.12,1.79,2.79,3.12.67,1.33,1,2.88,1,4.62v.5h-13.08c.19.92.56,1.71,1.13,2.39.57.68,1.27,1.2,2.12,1.58s1.79.56,2.83.56c1.79,0,3.43-.59,4.91-1.77l1.19,1.88ZM59.87,46.41h10.75c-.12-.97-.41-1.81-.9-2.54-.48-.72-1.11-1.29-1.88-1.7s-1.63-.61-2.59-.61-1.84.2-2.62.61c-.78.41-1.41.97-1.89,1.7-.48.72-.78,1.57-.88,2.54Z"/><path class="cls-3" d="M87.01,62.97h-2.56v-23.44h2.28l.12,2.28c.73-.8,1.61-1.43,2.64-1.9,1.03-.46,2.16-.7,3.39-.7,1.53,0,2.9.35,4.12,1.06,1.21.71,2.17,1.67,2.88,2.9.7,1.22,1.05,2.61,1.05,4.16s-.35,2.93-1.05,4.16c-.7,1.23-1.66,2.2-2.88,2.91-1.21.71-2.59,1.06-4.12,1.06-1.18,0-2.27-.21-3.27-.64-1.01-.43-1.87-1.02-2.6-1.78v9.92ZM92.68,53.13c1.09,0,2.06-.25,2.91-.74.84-.49,1.5-1.18,1.98-2.05.47-.88.71-1.88.71-3s-.24-2.14-.72-3.01c-.48-.87-1.14-1.55-1.98-2.05-.84-.5-1.8-.75-2.88-.75s-1.96.23-2.79.69c-.83.46-1.5,1.09-2.01,1.88-.51.8-.81,1.71-.89,2.73v1.06c.08,1.02.38,1.93.88,2.72.5.79,1.16,1.41,1.99,1.86.83.45,1.76.67,2.8.67Z"/><path class="cls-3" d="M111.46,55.47c-1.55,0-2.95-.35-4.19-1.06-1.24-.71-2.22-1.67-2.93-2.9-.71-1.22-1.07-2.61-1.07-4.16s.36-2.92,1.07-4.15c.71-1.22,1.69-2.19,2.93-2.91,1.24-.71,2.63-1.07,4.19-1.07s2.94.36,4.17,1.07c1.23.71,2.2,1.68,2.91,2.91.71,1.22,1.06,2.61,1.06,4.15s-.35,2.94-1.06,4.16c-.71,1.22-1.68,2.19-2.91,2.9-1.23.71-2.62,1.06-4.17,1.06ZM111.45,53.16c1.05,0,1.99-.25,2.83-.77.83-.51,1.49-1.2,1.98-2.08s.73-1.87.73-2.98-.24-2.08-.73-2.95-1.14-1.57-1.98-2.08c-.83-.51-1.78-.77-2.83-.77s-2,.26-2.84.77c-.84.51-1.5,1.2-1.98,2.08s-.73,1.86-.73,2.95.24,2.11.73,2.98,1.15,1.57,1.98,2.08c.84.51,1.78.77,2.84.77Z"/><path class="cls-3" d="M138.45,55.16h-2.28l-.14-2.28c-.72.8-1.59,1.44-2.62,1.9s-2.16.7-3.38.7c-1.54,0-2.92-.35-4.14-1.06-1.22-.71-2.18-1.68-2.88-2.91-.7-1.23-1.05-2.61-1.05-4.16s.35-2.94,1.05-4.16c.7-1.22,1.66-2.19,2.88-2.9,1.22-.71,2.6-1.06,4.14-1.06,1.18,0,2.27.21,3.27.64,1,.43,1.87,1.02,2.59,1.78v-9.92h2.56v23.44ZM130.24,53.16c1.04,0,1.99-.24,2.84-.73.85-.48,1.53-1.15,2.04-1.98.5-.84.76-1.79.76-2.85v-.53c0-1.06-.25-2.01-.76-2.85-.51-.84-1.19-1.5-2.04-1.98-.85-.48-1.8-.72-2.84-.72s-2.05.26-2.91.77c-.85.51-1.53,1.2-2.02,2.08-.5.88-.74,1.87-.74,2.97s.25,2.1.74,2.98c.49.88,1.17,1.58,2.02,2.09.85.51,1.82.77,2.91.77Z"/><path class="cls-3" d="M155.9,55.16h-.28c-.74.33-1.34.81-1.8,1.42-.46.61-.69,1.21-.69,1.8,0,.49.18.91.53,1.27s.88.56,1.58.61l-.16,1.41c-1.05,0-1.88-.27-2.48-.8-.6-.53-.9-1.19-.9-1.98,0-.74.26-1.45.78-2.12.52-.67,1.23-1.21,2.12-1.6h-.92l-.17-2.06c-.57.74-1.3,1.32-2.19,1.74-.89.42-1.88.63-2.97.63s-2.13-.22-3.02-.66c-.89-.44-1.58-1.05-2.09-1.82-.51-.77-.76-1.65-.76-2.62,0-1.03.27-1.94.82-2.73.55-.79,1.29-1.4,2.23-1.85.94-.45,2.01-.67,3.21-.67.78,0,1.58.1,2.39.29.81.19,1.54.46,2.17.79v-.66c0-.83-.21-1.54-.62-2.13-.42-.59-.97-1.04-1.67-1.36-.7-.32-1.47-.48-2.31-.48-.73,0-1.47.13-2.23.4-.76.27-1.49.67-2.19,1.23l-.84-2.2c.91-.58,1.86-1.02,2.86-1.32s1.99-.45,2.97-.45c1.35,0,2.52.27,3.51.82s1.75,1.32,2.29,2.33c.54,1.01.81,2.2.81,3.57v9.22ZM148.77,53.13c.84,0,1.61-.19,2.3-.57.69-.38,1.24-.9,1.65-1.55.41-.65.61-1.39.61-2.21v-.12c-.52-.45-1.13-.79-1.84-1.04-.7-.24-1.44-.37-2.21-.37-1.2,0-2.19.28-2.96.84-.78.56-1.16,1.28-1.16,2.14,0,.54.16,1.03.48,1.47.32.44.75.78,1.29,1.03.54.25,1.16.38,1.84.38Z"/><path class="cls-3" d="M173.15,55.16h-13.97v-1.42l9.67-11.89h-9.2v-2.31h13.09v1.23l-9.81,12.08h10.22v2.31ZM166.16,35.65c-.39,0-.7-.12-.95-.37-.25-.24-.37-.56-.37-.95s.12-.7.37-.94c.24-.24.56-.36.95-.36s.71.12.95.36c.24.24.36.55.36.94s-.12.7-.36.95c-.24.25-.56.37-.95.37Z"/><path class="cls-3" d="M188.88,55.16h-2.2l-.17-2.06c-.57.74-1.3,1.32-2.19,1.74-.89.42-1.88.63-2.97.63s-2.13-.22-3.02-.66c-.89-.44-1.58-1.05-2.09-1.82-.51-.77-.76-1.65-.76-2.62,0-1.03.27-1.94.82-2.73.55-.79,1.29-1.4,2.23-1.85.94-.45,2.01-.67,3.21-.67.78,0,1.58.1,2.39.29.81.19,1.54.46,2.17.79v-.66c0-.83-.21-1.54-.62-2.13-.42-.59-.97-1.04-1.67-1.36-.7-.32-1.47-.48-2.31-.48-.73,0-1.47.13-2.23.4-.76.27-1.49.67-2.19,1.23l-.84-2.2c.91-.58,1.86-1.02,2.86-1.32s1.99-.45,2.97-.45c1.35,0,2.52.27,3.51.82s1.75,1.32,2.29,2.33c.54,1.01.81,2.2.81,3.57v9.22ZM181.8,53.13c.8,0,1.54-.17,2.2-.5.67-.33,1.21-.81,1.62-1.45.42-.63.65-1.38.69-2.24v-.27c-.57-.45-1.22-.79-1.93-1.04-.71-.24-1.44-.37-2.18-.37-1.16,0-2.12.28-2.9.84-.78.56-1.16,1.28-1.16,2.14,0,.54.16,1.03.48,1.47.32.44.75.78,1.3,1.03.55.25,1.18.38,1.88.38Z"/><path class="cls-3" d="M218.15,55.16h-2.56v-8.33c0-1.68-.37-2.98-1.1-3.91-.73-.93-1.77-1.4-3.1-1.4s-2.4.47-3.16,1.41c-.77.94-1.15,2.24-1.15,3.9v8.33h-2.56v-8.33c0-1.68-.37-2.98-1.11-3.91-.74-.93-1.78-1.4-3.11-1.4s-2.4.47-3.16,1.41c-.77.94-1.15,2.24-1.15,3.9v8.33h-2.56v-15.62h2.09l.11,2.8c.52-1.02,1.23-1.79,2.13-2.32.9-.53,1.97-.79,3.2-.79,1.31,0,2.43.29,3.37.88.93.59,1.63,1.43,2.09,2.52.51-1.11,1.24-1.96,2.18-2.54.94-.58,2.07-.87,3.38-.87,1.95,0,3.47.62,4.55,1.85,1.09,1.23,1.63,2.96,1.63,5.16v8.92Z"/><path class="cls-3" d="M227.63,62.97h-2.8l3.28-7.94-7.47-15.5h2.83l5.88,12.55,5.19-12.55h2.78l-9.69,23.44Z"/><path class="cls-3" d="M247.32,53.8l.67-2.41c.38.35.8.66,1.28.92.48.26.98.46,1.52.6s1.07.21,1.61.21c.97,0,1.75-.21,2.34-.64.59-.43.89-.98.89-1.67,0-.5-.15-.91-.46-1.24-.31-.33-.71-.61-1.21-.85-.5-.24-1.04-.47-1.61-.69-.7-.27-1.39-.58-2.08-.92s-1.26-.8-1.71-1.36-.68-1.3-.68-2.22.22-1.63.66-2.28c.44-.65,1.05-1.15,1.84-1.5.79-.35,1.69-.53,2.71-.53,1.54,0,3.06.39,4.55,1.16l-.77,2.31c-.33-.22-.72-.41-1.16-.59s-.89-.3-1.34-.4c-.46-.09-.89-.14-1.3-.14-.76,0-1.38.17-1.84.52-.47.35-.7.82-.7,1.4,0,.33.1.64.29.91.19.28.52.55.98.82.46.27,1.09.57,1.91.91.72.29,1.43.62,2.12.99.7.37,1.28.84,1.74,1.42.46.58.7,1.33.7,2.26s-.24,1.73-.73,2.43-1.16,1.25-2.02,1.65-1.85.59-2.98.59c-1.87,0-3.6-.56-5.22-1.67Z"/><path class="cls-3" d="M274.99,52.91c-.76.82-1.66,1.46-2.7,1.9-1.04.44-2.16.66-3.36.66-1.55,0-2.95-.35-4.18-1.06-1.23-.71-2.21-1.68-2.92-2.91-.71-1.23-1.07-2.61-1.07-4.16s.36-2.94,1.07-4.16c.71-1.22,1.69-2.19,2.92-2.9,1.23-.71,2.63-1.06,4.18-1.06,1.19,0,2.3.22,3.34.66,1.04.44,1.94,1.07,2.7,1.89l-1.53,1.61c-.55-.58-1.21-1.03-1.98-1.34s-1.58-.47-2.43-.47c-1.09,0-2.07.25-2.91.74-.85.5-1.52,1.17-2,2.04-.48.87-.73,1.86-.73,2.98s.24,2.12.73,3,1.15,1.56,2,2.05c.85.5,1.82.74,2.91.74.85,0,1.67-.16,2.44-.48.77-.32,1.43-.76,1.97-1.34l1.55,1.59Z"/><path class="cls-3" d="M278.59,55.16v-23.44h2.56v10.16c1.18-1.77,3-2.66,5.47-2.66,2.07,0,3.69.62,4.85,1.85,1.16,1.23,1.74,2.96,1.74,5.16v8.92h-2.56v-8.33c0-1.68-.41-2.98-1.24-3.91-.83-.93-1.98-1.4-3.46-1.4s-2.66.47-3.52,1.42c-.85.95-1.28,2.25-1.28,3.89v8.33h-2.56Z"/><path class="cls-3" d="M311.45,53.24c-1.94,1.49-4.07,2.23-6.41,2.23-1.62,0-3.08-.36-4.38-1.09-1.29-.73-2.31-1.72-3.05-2.98-.75-1.25-1.12-2.67-1.12-4.26s.34-2.88,1.03-4.07c.69-1.19,1.63-2.13,2.83-2.82,1.2-.69,2.56-1.03,4.08-1.03s2.94.38,4.13,1.12c1.19.75,2.12,1.79,2.79,3.12.67,1.33,1,2.88,1,4.62v.5h-13.08c.19.92.56,1.71,1.13,2.39.57.68,1.27,1.2,2.12,1.58s1.79.56,2.83.56c1.79,0,3.43-.59,4.91-1.77l1.19,1.88ZM299.18,46.41h10.75c-.12-.97-.41-1.81-.9-2.54-.48-.72-1.11-1.29-1.88-1.7s-1.63-.61-2.59-.61-1.84.2-2.62.61c-.78.41-1.41.97-1.89,1.7-.48.72-.78,1.57-.88,2.54Z"/><path class="cls-3" d="M340.68,55.16h-2.56v-8.33c0-1.68-.37-2.98-1.1-3.91-.73-.93-1.77-1.4-3.1-1.4s-2.4.47-3.16,1.41c-.77.94-1.15,2.24-1.15,3.9v8.33h-2.56v-8.33c0-1.68-.37-2.98-1.11-3.91-.74-.93-1.78-1.4-3.11-1.4s-2.4.47-3.16,1.41c-.77.94-1.15,2.24-1.15,3.9v8.33h-2.56v-15.62h2.09l.11,2.8c.52-1.02,1.23-1.79,2.13-2.32.9-.53,1.97-.79,3.2-.79,1.31,0,2.43.29,3.37.88.93.59,1.63,1.43,2.09,2.52.51-1.11,1.24-1.96,2.18-2.54.94-.58,2.07-.87,3.38-.87,1.95,0,3.47.62,4.55,1.85,1.09,1.23,1.63,2.96,1.63,5.16v8.92Z"/><path class="cls-3" d="M357.82,55.16h-2.2l-.17-2.06c-.57.74-1.3,1.32-2.19,1.74-.89.42-1.88.63-2.97.63s-2.13-.22-3.02-.66c-.89-.44-1.58-1.05-2.09-1.82-.51-.77-.76-1.65-.76-2.62,0-1.03.27-1.94.82-2.73.55-.79,1.29-1.4,2.23-1.85.94-.45,2.01-.67,3.21-.67.78,0,1.58.1,2.39.29.81.19,1.54.46,2.17.79v-.66c0-.83-.21-1.54-.62-2.13-.42-.59-.97-1.04-1.67-1.36-.7-.32-1.47-.48-2.31-.48-.73,0-1.47.13-2.23.4-.76.27-1.49.67-2.19,1.23l-.84-2.2c.91-.58,1.86-1.02,2.86-1.32s1.99-.45,2.97-.45c1.35,0,2.52.27,3.51.82s1.75,1.32,2.29,2.33c.54,1.01.81,2.2.81,3.57v9.22ZM350.74,53.13c.8,0,1.54-.17,2.2-.5.67-.33,1.21-.81,1.62-1.45.42-.63.65-1.38.69-2.24v-.27c-.57-.45-1.22-.79-1.93-1.04-.71-.24-1.44-.37-2.18-.37-1.16,0-2.12.28-2.9.84-.78.56-1.16,1.28-1.16,2.14,0,.54.16,1.03.48,1.47.32.44.75.78,1.3,1.03.55.25,1.18.38,1.88.38Z"/><path class="cls-3" d="M370.95,54.79c-1.03.46-2.04.69-3.02.69s-1.76-.21-2.47-.62c-.71-.41-1.26-.99-1.66-1.73-.4-.74-.59-1.61-.59-2.6v-8.69h-2.73v-2.3h2.86v-3.91h2.44v3.91h4.67v2.3h-4.67v8.22c0,.94.25,1.69.76,2.27.5.57,1.17.86,1.99.86.67,0,1.33-.2,2-.59l.42,2.2Z"/><path class="cls-3" d="M388.09,53.24c-1.94,1.49-4.07,2.23-6.41,2.23-1.62,0-3.08-.36-4.38-1.09-1.29-.73-2.31-1.72-3.05-2.98-.75-1.25-1.12-2.67-1.12-4.26s.34-2.88,1.03-4.07c.69-1.19,1.63-2.13,2.83-2.82,1.2-.69,2.56-1.03,4.08-1.03s2.94.38,4.13,1.12c1.19.75,2.12,1.79,2.79,3.12.67,1.33,1,2.88,1,4.62v.5h-13.08c.19.92.56,1.71,1.13,2.39.57.68,1.27,1.2,2.12,1.58s1.79.56,2.83.56c1.79,0,3.43-.59,4.91-1.77l1.19,1.88ZM375.82,46.41h10.75c-.12-.97-.41-1.81-.9-2.54-.48-.72-1.11-1.29-1.88-1.7s-1.63-.61-2.59-.61-1.84.2-2.62.61c-.78.41-1.41.97-1.89,1.7-.48.72-.78,1.57-.88,2.54Z"/><path class="cls-3" d="M417.32,55.16h-2.56v-8.33c0-1.68-.37-2.98-1.1-3.91-.73-.93-1.77-1.4-3.1-1.4s-2.4.47-3.16,1.41c-.77.94-1.15,2.24-1.15,3.9v8.33h-2.56v-8.33c0-1.68-.37-2.98-1.11-3.91-.74-.93-1.78-1.4-3.11-1.4s-2.4.47-3.16,1.41c-.77.94-1.15,2.24-1.15,3.9v8.33h-2.56v-15.62h2.09l.11,2.8c.52-1.02,1.23-1.79,2.13-2.32.9-.53,1.97-.79,3.2-.79,1.31,0,2.43.29,3.37.88.93.59,1.63,1.43,2.09,2.52.51-1.11,1.24-1.96,2.18-2.54.94-.58,2.07-.87,3.38-.87,1.95,0,3.47.62,4.55,1.85,1.09,1.23,1.63,2.96,1.63,5.16v8.92Z"/><path class="cls-3" d="M423.12,58.91h-1.89l1.25-6.56h2.34l-1.7,6.56Z"/><path class="cls-16" d="M112.89,90.37c-.61,2.92-.99,4.86-1.26,6.56l3.13.51-.27,1.16h-8.6l.24-1.16,2.92-.48,4.28-20.19-3.37-.2.14-.99,5.78-1.73.44.34-.82,3.81c2.07-2.58,4.79-4.15,6.73-4.15,1.67,0,3.09,1.12,3.09,4.18,0,5.75-5.61,12.85-10.5,12.85-.75,0-1.36-.17-1.94-.51ZM115.13,79.66l-1.67,7.96c.92.68,1.8.95,2.58.95,1.7,0,3.26-1.05,4.45-2.58,1.36-1.8,2.21-4.25,2.21-6.6,0-2.21-.78-3.26-2.07-3.26-1.39,0-3.33,1.26-5.51,3.54Z"/><path class="cls-16" d="M128.66,86.66l2.07-9.89-3.37-.2.14-.99,5.78-1.73.44.34-2.41,11.66c-.17.85-.31,1.56-.31,1.94,0,.48.37.75.75.75.82,0,1.9-.82,3.26-2.45l.85.65c-1.53,2.04-3.3,4.15-5.71,4.15-.95,0-1.84-.58-1.84-1.73,0-.51.07-1.09.34-2.48ZM131.89,67.32c0-1.12.88-2.07,1.87-2.07,1.05,0,1.77.71,1.77,1.8s-.92,2.11-1.9,2.11-1.73-.71-1.73-1.83Z"/><path class="cls-16" d="M136.86,87.51c.17-.58.71-.95,1.26-.95.99,0,1.39.54,1.63,1.5l.37,1.46c.14.03.31.03.48.03,2.35,0,3.74-1.12,3.74-2.89,0-1.09-.27-1.97-2.21-3.37-1.7-1.29-2.99-2.55-2.99-4.69,0-2.65,2.14-4.76,5.41-4.76,2,0,3.54.78,4.04,2.99-.2.65-.68.95-1.29.95-.78,0-1.39-.58-1.73-1.6l-.31-.99c-.14-.03-.31-.03-.48-.03-2.35,0-3.23,1.26-3.23,2.79,0,1.43.58,2.14,2.52,3.57,2.04,1.53,2.75,2.55,2.75,4.52,0,2.82-2.31,4.83-5.75,4.83-2.65,0-3.98-1.33-4.22-3.37Z"/><path class="cls-16" d="M150.96,75.71l2.35-1.87c2.82.75,5.27,1.5,8.06,2.69l1.16-2.24,1.87-.41.41.34c-.34.85-1.5,2.38-3.23,4.18-2.86,2.92-5.88,5.37-8.7,8.02,2.62,1.97,4.42,2.45,5.81,2.45.95,0,1.77-.27,2.52-.75-.71-.85-1.02-1.36-1.02-2.01,0-1.09.75-1.73,1.7-1.84.71.27,1.12,1.19,1.12,2.01,0,2.48-2.82,4.93-5.44,4.93-1.97,0-3.6-.78-5.88-3.6l-1.36,2.82-1.94.2-.27-.2c.68-1.19,1.36-2.24,2.79-3.64,2.92-2.86,6.12-5.51,9.11-8.57-2.35-.75-4.28-1.26-7-1.87l-1.43,4.62-1.39-.2.78-5.07Z"/><path class="cls-16" d="M165.42,84.55c0-5.47,4.11-10.71,8.87-10.71,2.18,0,3.4,1.12,3.4,3.13,0,2.18-2.14,5.27-9.89,7.51.14,2.89,1.43,4.04,3.5,4.04s3.67-1.33,4.59-2.48l.78.61c-1.43,2.31-3.64,4.22-6.15,4.22-2.96,0-5.1-1.97-5.1-6.32ZM167.79,83.16c5.64-1.63,7.62-4.01,7.62-5.85,0-1.26-.75-2.01-1.87-2.01-2.11,0-5.41,3.6-5.75,7.85Z"/><path class="cls-16" d="M197.85,89.42c0-.78.2-1.36.54-2.75l1.46-6.02c.27-1.16.54-2.28.54-2.96,0-1.19-.41-1.56-1.19-1.56-1.16,0-2.89,1.02-5.3,3.03l-.88,4.15c-.51,2.38-.95,4.73-1.39,7.14l-2.21.27-.34-.27,2.35-11.12c.1-.58.24-1.19.24-1.73,0-1.09-.41-1.46-1.16-1.46-1.22,0-3.13.99-5.61,2.99l-.92,4.18c-.51,2.38-.92,4.73-1.36,7.14l-2.28.27-.34-.27,2.89-13.67-3.37-.2.14-.99,5.78-1.73.44.34-.71,3.5c2.21-2.11,5-3.84,7.11-3.84,1.39,0,2.14.78,2.14,2.35,0,.44-.07.95-.17,1.43,2.14-2.07,4.73-3.77,6.73-3.77,1.43,0,2.18.78,2.18,2.35,0,1.09-.31,2.21-.58,3.33l-1.53,6.32c-.24.95-.44,1.63-.44,1.97,0,.48.31.71.68.71.92,0,1.97-.82,3.33-2.45l.82.65c-1.5,2.07-3.43,4.15-5.85,4.15-1.09,0-1.73-.58-1.73-1.46Z"/><path class="cls-16" d="M202.27,96.62c.17-.99.88-1.53,1.83-1.53s1.77.48,2.75,1.19l.14.1c1.05-.71,2.07-1.56,3.03-2.52.65-.65,1.22-1.33,1.8-2.04-.27-3.98-.68-6.29-1.26-10.84-.54-4.32-.71-4.79-1.33-4.79-.58,0-1.05.41-2.28,2.24l-.78-.54c1.36-2.89,2.89-4.04,4.32-4.04,1.29,0,2.01.71,2.41,4.52.41,3.94.65,7.45.78,10.61,2.38-4.32,3.54-6.83,4.66-10.71,1.12-3.91,1.63-4.62,2.58-4.62.78,0,1.26.48,1.26,1.16,0,.88-.17,1.39-.85,2.75-.71,1.46-1.43,2.89-2.72,5.2-1.26,2.24-2.69,4.86-4.56,7.68-.88,1.33-1.8,2.75-3.23,4.28-2.21,2.41-4.18,3.88-6.15,3.88-1.5,0-2.31-.82-2.41-1.97Z"/><path class="cls-16" d="M231.31,90.44l3.3-16.25c.41-2.01.78-4.01,1.12-6.02l-3.23-.2.14-.99,5.88-1.7.34.27-2.45,12.07c2.18-2.11,4.96-3.77,7-3.77,1.43,0,2.21.78,2.21,2.35,0,1.09-.31,2.21-.58,3.33l-1.53,6.32c-.24.95-.44,1.63-.44,1.97,0,.48.27.71.68.71.82,0,2.11-.92,3.33-2.45l.82.65c-1.33,2.01-3.54,4.15-5.85,4.15-1.09,0-1.73-.58-1.73-1.46,0-.78.2-1.36.54-2.75l1.46-6.02c.27-1.16.54-2.28.54-2.96,0-1.19-.44-1.56-1.19-1.56-1.22,0-3.09.95-5.58,2.96l-.88,4.21c-.48,2.38-.92,4.76-1.29,7.14l-2.28.27-.34-.27Z"/><path class="cls-16" d="M251.09,86.66l2.07-9.89-3.37-.2.14-.99,5.78-1.73.44.34-2.41,11.66c-.17.85-.31,1.56-.31,1.94,0,.48.37.75.75.75.82,0,1.9-.82,3.26-2.45l.85.65c-1.53,2.04-3.3,4.15-5.71,4.15-.95,0-1.84-.58-1.84-1.73,0-.51.07-1.09.34-2.48ZM254.32,67.32c0-1.12.88-2.07,1.87-2.07,1.05,0,1.77.71,1.77,1.8s-.92,2.11-1.9,2.11-1.73-.71-1.73-1.83Z"/><path class="cls-16" d="M259.29,87.51c.17-.58.71-.95,1.26-.95.99,0,1.39.54,1.63,1.5l.37,1.46c.14.03.31.03.48.03,2.35,0,3.74-1.12,3.74-2.89,0-1.09-.27-1.97-2.21-3.37-1.7-1.29-2.99-2.55-2.99-4.69,0-2.65,2.14-4.76,5.41-4.76,2,0,3.54.78,4.04,2.99-.2.65-.68.95-1.29.95-.78,0-1.39-.58-1.73-1.6l-.31-.99c-.14-.03-.31-.03-.48-.03-2.35,0-3.23,1.26-3.23,2.79,0,1.43.58,2.14,2.52,3.57,2.04,1.53,2.75,2.55,2.75,4.52,0,2.82-2.31,4.83-5.75,4.83-2.65,0-3.98-1.33-4.22-3.37Z"/><path class="cls-16" d="M273.36,89.14c0-.51.03-1.09.31-2.48l2.31-10.78h-3.47l.27-1.29,3.64-.34,1.6-4.52h1.73l-.95,4.56h4.32l-.37,1.84-4.32-.14-2.07,9.79c-.2.92-.31,1.63-.31,1.97,0,.51.41.78.82.78.92,0,1.94-.82,3.33-2.45l.82.65c-1.39,2.04-3.47,4.15-5.78,4.15-.99,0-1.87-.58-1.87-1.73Z"/><path class="cls-16" d="M283.33,84.89c0-6.12,4.05-11.05,8.87-11.05,3.2,0,5.51,2.11,5.51,5.95,0,5.92-3.94,11.08-8.74,11.08-3.13,0-5.64-2.11-5.64-5.98ZM294.95,80.3c0-3.67-1.29-5.1-3.13-5.1-3.23,0-5.75,4.22-5.75,9.28,0,3.57,1.39,5.03,3.3,5.03,3.33,0,5.58-4.66,5.58-9.21Z"/><path class="cls-16" d="M303.55,76.77l-3.37-.2.14-.99,5.61-1.73.44.34-.75,4.55c1.46-2.55,3.33-4.89,5.13-4.89.95,0,1.8.27,2.28,1.02-.03,1.12-.68,1.9-1.8,1.9-.58,0-1.33-.37-2.01-.92-1.67,1.39-2.96,3.33-4.22,5.68l-.37,1.77c-.51,2.38-.92,4.73-1.36,7.14l-2.28.27-.34-.27,2.89-13.67Z"/><path class="cls-16" d="M315.08,86.66l2.07-9.89-3.37-.2.14-.99,5.78-1.73.44.34-2.41,11.66c-.17.85-.31,1.56-.31,1.94,0,.48.37.75.75.75.82,0,1.9-.82,3.26-2.45l.85.65c-1.53,2.04-3.3,4.15-5.71,4.15-.95,0-1.84-.58-1.84-1.73,0-.51.07-1.09.34-2.48ZM318.31,67.32c0-1.12.88-2.07,1.87-2.07,1.05,0,1.77.71,1.77,1.8s-.92,2.11-1.9,2.11-1.73-.71-1.73-1.83Z"/><path class="cls-16" d="M326.95,95.94c0-1.9,1.5-3.64,3.16-5.2v-.03c-.14.07-.65.17-1.12.17-2.96,0-5.1-1.97-5.1-6.32,0-5.47,4.11-10.71,8.87-10.71,2.18,0,3.4,1.12,3.4,3.13,0,2.18-2.14,5.27-9.89,7.51.14,2.89,1.43,4.04,3.5,4.04s3.67-1.33,4.59-2.48l.78.61c-.75,1.16-1.53,2.11-2.69,3.06-1.77,1.5-3.4,3.3-3.4,5.37,0,1.29.78,1.94,1.77,1.94.51,0,1.12-.17,1.73-.41l.41.88c-.85.61-1.94,1.09-2.99,1.09-1.94,0-3.03-1.02-3.03-2.65ZM326.27,83.16c5.64-1.63,7.62-4.01,7.62-5.85,0-1.26-.75-2.01-1.87-2.01-2.11,0-5.41,3.6-5.75,7.85Z"/><path class="cls-16" d="M338.03,88.84c0-1.36,1.12-2.35,2.41-2.35,1.19,0,1.97.88,1.97,1.94,0,1.36-1.09,2.35-2.38,2.35-1.16,0-2.01-.82-2.01-1.94Z"/></g></svg>