<?xml version="1.0" encoding="UTF-8"?><svg id="Layer_2" xmlns="http://www.w3.org/2000/svg" xmlns:xlink="http://www.w3.org/1999/xlink" viewBox="0 0 450 371.78"><defs><style>.cls-1{opacity:.85;}.cls-2{fill:#eadbc3;}.cls-2,.cls-3,.cls-4,.cls-5,.cls-6,.cls-7,.cls-8,.cls-9,.cls-10,.cls-11,.cls-12,.cls-13,.cls-14,.cls-15,.cls-16,.cls-17,.cls-18,.cls-19,.cls-20,.cls-21{stroke-width:0px;}.cls-22{mask:url(#mask-2);}.cls-4{fill:#ede4d1;}.cls-5{fill:#022b0c;}.cls-23,.cls-17{fill:#bf515e;}.cls-24{mask:url(#mask-3);}.cls-6{fill:url(#linear-gradient-5);}.cls-7{fill:#211010;}.cls-8{fill:url(#linear-gradient-4);}.cls-8,.cls-20{mix-blend-mode:multiply;}.cls-25{clip-path:url(#clippath-1);}.cls-9{fill:#a57e58;}.cls-10{fill:#fff;}.cls-11{fill:#ededed;}.cls-12{fill:#01240b;}.cls-13{fill:url(#linear-gradient-3);}.cls-26{clip-path:url(#clippath);}.cls-14{fill:#ffad86;}.cls-15{fill:#a13941;}.cls-16{fill:#ed8a72;}.cls-27{opacity:.42;}.cls-28{filter:url(#luminosity-noclip);}.cls-18{fill:#872d38;}.cls-29{mask:url(#mask-1);}.cls-30{mask:url(#mask);}.cls-19{fill:url(#linear-gradient);opacity:.36;}.cls-20{fill:url(#linear-gradient-2);}.cls-31{opacity:.61;}.cls-21{fill:#d7af80;}.cls-32{filter:url(#luminosity-noclip-3);}</style><linearGradient id="linear-gradient" x1="-27.24" y1="171.96" x2="482.08" y2="188.19" gradientUnits="userSpaceOnUse"><stop offset=".04" stop-color="#ffdfc0" stop-opacity=".7"/><stop offset=".41" stop-color="#f3d0ac" stop-opacity=".79"/><stop offset="1" stop-color="#d7af80"/></linearGradient><clipPath id="clippath"><path class="cls-17" d="M154.55,206c-1.57,1.22-1.38,4.66.34,6.44,1,1.03,2.21,1.13,2.53,2.21.31,1.03-.48,1.87-1.17,3.12,0,0-1.17,2.1-1.43,5.71-.23,3.14,2.33,8.62,4.34,8.57,1.95-.05,4.37-5.3,7-25.04.12-.89-.78-1.62-1.78-1.45-.55.09-1.16.18-1.81.24-4.78.44-6.64-.88-8.01.19Z"/></clipPath><filter id="luminosity-noclip" x="151.38" y="204.21" width="8.65" height="27.4" color-interpolation-filters="sRGB" filterUnits="userSpaceOnUse"><feFlood flood-color="#fff" result="bg"/><feBlend in="SourceGraphic" in2="bg"/></filter><filter id="luminosity-noclip-2" x="151.38" y="-8182" width="8.65" height="32766" color-interpolation-filters="sRGB" filterUnits="userSpaceOnUse"><feFlood flood-color="#fff" result="bg"/><feBlend in="SourceGraphic" in2="bg"/></filter><mask id="mask-1" x="151.38" y="-8182" width="8.65" height="32766" maskUnits="userSpaceOnUse"/><linearGradient id="linear-gradient-2" x1="-1.22" y1="376.72" x2="7.29" y2="376.72" gradientTransform="translate(144.54 -158.66) rotate(-1.26)" gradientUnits="userSpaceOnUse"><stop offset=".25" stop-color="#fff"/><stop offset=".32" stop-color="#f3f3f3"/><stop offset=".43" stop-color="#d6d6d6"/><stop offset=".58" stop-color="#a5a5a5"/><stop offset=".76" stop-color="#626262"/><stop offset=".97" stop-color="#0e0e0e"/><stop offset="1" stop-color="#000"/></linearGradient><mask id="mask" x="151.38" y="204.21" width="8.65" height="27.4" maskUnits="userSpaceOnUse"><g class="cls-28"><g class="cls-29"><path class="cls-20" d="M152.9,204.71c1.42-.83,3.77-.58,4.35.37.6.98-1.2,1.89-1.02,3.74.18,1.87,2.87,2.84,3.69,4.89.69,1.71-2.31,5.52-2.56,8.18-.73,7.62,1.22,7.58.94,8.72-.16.64-1.1.94-1.79,1-1.46.14-4.09-3.99-3.82-8.12.08-1.27.34-.99,1.23-5.49.58-2.9.63-3.8.22-4.83-.66-1.65-1.68-1.55-2.35-3.17-.65-1.6-.69-4.22,1.12-5.28Z"/></g></g></mask><linearGradient id="linear-gradient-3" x1="-1.22" y1="376.72" x2="7.29" y2="376.72" gradientTransform="translate(144.54 -158.66) rotate(-1.26)" gradientUnits="userSpaceOnUse"><stop offset=".25" stop-color="#a13941"/><stop offset="1" stop-color="#a13941"/></linearGradient><clipPath id="clippath-1"><path class="cls-17" d="M154.32,193.59c-1.58-1.09-1.44-4.3.27-6.01.99-.99,2.19-1.12,2.5-2.14.29-.97-.5-1.73-1.21-2.87,0,0-1.19-1.92-1.5-5.28-.27-2.92,2.23-8.11,4.24-8.12,1.95-.01,4.43,4.8,7.29,23.1.13.83-.76,1.54-1.77,1.41-.55-.07-1.16-.13-1.82-.16-4.78-.26-6.63,1.02-8.01.07Z"/></clipPath><filter id="luminosity-noclip-3" x="150.82" y="167.31" width="8.99" height="28.62" color-interpolation-filters="sRGB" filterUnits="userSpaceOnUse"><feFlood flood-color="#fff" result="bg"/><feBlend in="SourceGraphic" in2="bg"/></filter><filter id="luminosity-noclip-4" x="150.82" y="-8182" width="8.99" height="32766" color-interpolation-filters="sRGB" filterUnits="userSpaceOnUse"><feFlood flood-color="#fff" result="bg"/><feBlend in="SourceGraphic" in2="bg"/></filter><mask id="mask-3" x="150.82" y="-8182" width="8.99" height="32766" maskUnits="userSpaceOnUse"/><linearGradient id="linear-gradient-4" x1="-1.45" y1="340.43" x2="7.7" y2="340.43" xlink:href="#linear-gradient-2"/><mask id="mask-2" x="150.82" y="167.31" width="8.99" height="28.62" maskUnits="userSpaceOnUse"><g class="cls-32"><g class="cls-24"><path class="cls-8" d="M155.17,167.31c.92-.03,4.44,1.95,1.72,5.59-3.18,4.25,3.41,11.03,2.9,13-.44,1.69-2.47,1.52-3.48,3.51-1.39,2.75,1.43,5.17.15,6.16-1,.77-3.94.27-5.12-1.17-1.32-1.6.25-3.47,1.07-7.6.52-2.66.06-2.82.27-7.05.23-4.49,1.17-12.39,2.5-12.44Z"/></g></g></mask><linearGradient id="linear-gradient-5" x1="-1.45" y1="340.43" x2="7.7" y2="340.43" gradientTransform="translate(144.54 -158.66) rotate(-1.26)" xlink:href="#linear-gradient-3"/></defs><g id="Layer_1-2"><rect class="cls-19" width="450" height="360"/><g class="cls-31"><rect class="cls-2" x="113.06" y="306.22" width="30.44" height="53.74"/><rect class="cls-2" x="148.73" y="306.22" width="9.08" height="53.74"/><rect class="cls-2" x="188.76" y="285.75" width="44.8" height="74.25"/><rect class="cls-2" x="340.69" y="317.58" width="44.8" height="42.42"/><rect class="cls-2" x="269.64" y="292.74" width="27.05" height="67.22"/><rect class="cls-2" x="301.98" y="271.89" width="12.46" height="88.11"/><rect class="cls-4" x="149.59" y="321.92" width="50.09" height="38.08"/><rect class="cls-4" x="225.99" y="277.63" width="50.09" height="82.33"/><rect class="cls-4" x="283.77" y="299.7" width="12.98" height="60.26"/><rect class="cls-4" x="301.98" y="280.72" width="31.88" height="79.28"/><rect class="cls-2" x="416.51" y="292.74" width="33.49" height="67.22"/><rect class="cls-4" x="358.61" y="259" width="50.09" height="101"/><rect class="cls-2" y="330.04" width="15.45" height="29.96"/><rect class="cls-4" x="75.61" y="330.04" width="50.09" height="29.96"/><rect class="cls-2" x="17.82" y="334.57" width="50.09" height="25.39"/></g><path class="cls-21" d="M385.23,172.89c-2.62,0-4.75-2.13-4.75-4.75s2.13-4.75,4.75-4.75,4.75,2.13,4.75,4.75-2.13,4.75-4.75,4.75ZM385.23,164.74c-1.88,0-3.4,1.53-3.4,3.4s1.53,3.4,3.4,3.4,3.4-1.53,3.4-3.4-1.53-3.4-3.4-3.4Z"/><rect class="cls-21" x="384.56" y=".43" width="1.35" height="166.34"/><path class="cls-9" d="M412.67,251.6h-12.53v-83.46h12.53c4.68,0,8.47,3.79,8.47,8.47v66.52c0,4.68-3.79,8.47-8.47,8.47Z"/><path class="cls-21" d="M354.46,168.13h57.47c3.18,0,5.77,2.58,5.77,5.77v71.93c0,3.18-2.58,5.77-5.77,5.77h-57.47c-3.18,0-5.77-2.58-5.77-5.77v-71.93c0-3.18,2.58-5.77,5.77-5.77Z"/><ellipse class="cls-10" cx="382.84" cy="209.86" rx="29.49" ry="29.45"/><ellipse class="cls-21" cx="382.84" cy="209.86" rx="23.09" ry="23.05"/><path class="cls-10" d="M399.49,209.86c0,9.18-7.46,16.63-16.65,16.63s-16.65-7.44-16.65-16.63,7.46-16.63,16.65-16.63,16.65,7.44,16.65,16.63Z"/><path class="cls-21" d="M393.37,209.86c0,5.81-4.72,10.52-10.53,10.52s-10.53-4.71-10.53-10.52,4.72-10.52,10.53-10.52,10.53,4.71,10.53,10.52Z"/><path class="cls-10" d="M388.24,209.86c0,2.99-2.42,5.42-5.41,5.42s-5.41-2.43-5.41-5.42,2.42-5.42,5.41-5.42,5.41,2.43,5.41,5.42Z"/><polygon class="cls-15" points="381.78 208.7 353.81 206.61 349.43 203.35 350.46 206.46 348.71 209.51 353.73 207.34 381.72 209.43 381.78 208.7"/><g id="BM1"><path class="cls-14" d="M150.2,198.5c1.3-1.19,4.82-.74,7.57-1.33.93-.2,2.29-.88,2.92-1.2.53-.28,1.14-.3,1.68-.06,1.73.76,1.47.63,5.51.79.5.02-.29,2.96-3.36,2.54-1.07-.15-1.99-.63-2.58-.58-.08.38-.46,1.92-1.37,2.58-.44.31-1.02.54-2.33.51-.53-.01-5.41-.18-5.9-2.42-.04-.17-2.58-.41-2.13-.82Z"/><polygon class="cls-5" points="85.15 203.04 85.16 204.98 121.59 207.94 153.87 204.88 156.68 194.29 128.83 196.32 97.9 193.35 85.15 203.04"/><polygon class="cls-10" points="158.63 195.43 156.49 195.03 154.12 203.95 156.27 203.81 158.63 195.43"/><path class="cls-7" d="M40.6,353.64c-.88.37-5.1,6.24-5.1,6.24l-.74,3.84,11.2,4.85,8.18,3.2,1.72-5.08-9.39-9.09-5.88-3.97Z"/><path class="cls-7" d="M97.51,355.23c.6.74,0,0,0,0l5.18,7.36,9.79,3.71-1.76,5.48-21.74-.14-1.3-2.4s.12-5.14.53-5.31l2.03-9.76,7.27,1.06Z"/><path class="cls-12" d="M93.72,189.91l-13.47-3.07-5.83.15c-2.05,1.16-4.1,2.32-6.14,3.48-2.92,1.19-5.85,2.37-8.77,3.56l-.88,14.51-.46,5.65,1.48,21.38-1.37,14.47-4.9,19.45,5.53,6.48-4.53,38.06-17.7,41.6,14.66,4.91,19.9-41.41,8.33-40.59.29.08,8.41,34.4-.17,47.97,14.74.5,2.1-47.61-5.1-40.76,1.56-3.02-1.07-27.18.06-35.35.18-13.55-6.84-4.08Z"/><path class="cls-12" d="M93.72,189.91l-13.47-3.07c-1.89.16-3.78.32-5.67.48-1.94,1.11-3.88,2.22-5.82,3.34-3.83,1.21-8.08,2.78-12.58,4.86-5.3,2.44-9.87,5.07-13.7,7.57,4.2,4.91,8.41,9.81,12.61,14.72l3.01,17.71-1.37,14.47-3.36,19.5,5.53,6.48,7.43,3.83,4.79-13.53,21.21-.37,1.97,7.63,5.53-.41,1.56-3.02.69-27.14.41-24.9-1.93-24.06-6.84-4.08Z"/><polygon class="cls-16" points="74.22 190.34 86.38 211.29 92.43 194.88 91.04 190.69 90.36 190.1 91.3 178.86 78.39 177.52 77.29 186.16 74.22 190.34"/><path class="cls-10" d="M87.43,196.1c-10.47.82-11.5-7.79-11.5-7.79l.91-1.54-6.69,4.07,2.55,20.23-1.57,55.19c9.11.83,18.29.54,23.3-.41l1.63-28.99.41-24.63.2-12.57-3-8.34-3.16-3.11-.16,1.9s2.07,5.6-2.93,5.99Z"/><path class="cls-14" d="M88.72,157.94s-9.01,1.32-11.65,2.09c-8.04,2.34-8.26,6.58-5.57,15.49,1.65,5.46,8.67,6.73,8.67,6.73l1.82,2.98c1.87.31,7.99,2.85,7.99,2.85l6.32-1.33,1.29-7.5s-2.23-11-2.41-11.44c0,0-.8-4.56-2.46-7.15-1.32-2.07-4.01-2.72-4.01-2.72Z"/><path class="cls-7" d="M90.72,153.6l-5.64,1.12s-6.97,1.34-8.72,1.85c-7.79,2.26-9.37,11.02-6.45,19.56l4.83,6.37,3.3,1.99.88-6.19c1.16-.55,3.91-1.9,3.91-1.9l-1.98-9.2,2.78-4.81,7.55-.52,1.95-.49,1.09-2.04-.63-2.98-1.01.52-1.88-3.28Z"/><path class="cls-14" d="M83.03,175.85c-.12,2.28-.29,3.51-2.23,3.09-1.05-.23-2.36-.46-3.03-3.44-.5-2.24.89-4.25,2.88-4.15,1.99.09,2.49,2.23,2.38,4.51Z"/><polygon class="cls-15" points="84.47 198.23 81.71 200.85 83.15 203.79 87.97 203.55 88.87 200.5 85.81 198.16 84.47 198.23"/><polygon class="cls-15" points="83.46 204.59 88.06 204.36 92.76 246.89 88.02 255.84 81.24 248.29 83.46 204.59"/></g><path class="cls-18" d="M162.68,209.57l-1.9-.29c.6-2.82.89-5.7.85-8.56-.04-3.44-.54-6.88-1.49-10.22l1.87-.43c.99,3.47,1.51,7.04,1.55,10.61.03,2.97-.27,5.96-.89,8.89Z"/><path class="cls-23" d="M154.55,206c-1.57,1.22-1.38,4.66.34,6.44,1,1.03,2.21,1.13,2.53,2.21.31,1.03-.48,1.87-1.17,3.12,0,0-1.17,2.1-1.43,5.71-.23,3.14,2.33,8.62,4.34,8.57,1.95-.05,4.37-5.3,7-25.04.12-.89-.78-1.62-1.78-1.45-.55.09-1.16.18-1.81.24-4.78.44-6.64-.88-8.01.19Z"/><g class="cls-26"><g class="cls-30"><path class="cls-13" d="M152.9,204.71c1.42-.83,3.77-.58,4.35.37.6.98-1.2,1.89-1.02,3.74.18,1.87,2.87,2.84,3.69,4.89.69,1.71-2.31,5.52-2.56,8.18-.73,7.62,1.22,7.58.94,8.72-.16.64-1.1.94-1.79,1-1.46.14-4.09-3.99-3.82-8.12.08-1.27.34-.99,1.23-5.49.58-2.9.63-3.8.22-4.83-.66-1.65-1.68-1.55-2.35-3.17-.65-1.6-.69-4.22,1.12-5.28Z"/></g></g><path class="cls-23" d="M154.32,193.59c-1.58-1.09-1.44-4.3.27-6.01.99-.99,2.19-1.12,2.5-2.14.29-.97-.5-1.73-1.21-2.87,0,0-1.19-1.92-1.5-5.28-.27-2.92,2.23-8.11,4.24-8.12,1.95-.01,4.43,4.8,7.29,23.1.13.83-.76,1.54-1.77,1.41-.55-.07-1.16-.13-1.82-.16-4.78-.26-6.63,1.02-8.01.07Z"/><g class="cls-25"><g class="cls-22"><path class="cls-6" d="M155.17,167.31c.92-.03,4.44,1.95,1.72,5.59-3.18,4.25,3.41,11.03,2.9,13-.44,1.69-2.47,1.52-3.48,3.51-1.39,2.75,1.43,5.17.15,6.16-1,.77-3.94.27-5.12-1.17-1.32-1.6.25-3.47,1.07-7.6.52-2.66.06-2.82.27-7.05.23-4.49,1.17-12.39,2.5-12.44Z"/></g></g><path class="cls-17" d="M159.59,173.24c-2.04-6.63-5.51-11.71-10.3-15.11-1.78-1.26-3.54-2.15-5.24-3.02-2.94-1.49-5.72-2.9-8.12-5.97-2.23-2.85-3.47-6.32-3.71-10.3l1.2-.07c.23,3.79,1.41,7.08,3.5,9.77,2.24,2.87,4.91,4.23,7.74,5.66,1.74.88,3.53,1.79,5.39,3.11,4.99,3.54,8.6,8.8,10.7,15.65l-1.17.29Z"/><path class="cls-17" d="M130.79,258.57l-1.19-.16c.73-3.95,2.4-7.32,4.97-10,2.76-2.88,5.71-4.09,8.82-5.37,1.8-.74,3.65-1.5,5.59-2.63,5.19-3.04,9.27-7.86,12.12-14.31l1.12.37c-2.94,6.67-7.18,11.65-12.59,14.82-2.01,1.18-3.91,1.96-5.75,2.71-2.99,1.23-5.81,2.39-8.4,5.09-2.42,2.53-4,5.72-4.7,9.48Z"/><polygon class="cls-15" points="85.4 195.82 85.38 195.08 175.24 192.03 175.26 192.76 85.4 195.82"/><path class="cls-15" d="M174.61,190.1c1.38.78,2.77,1.56,4.15,2.34-1.33.81-2.66,1.61-3.99,2.42-.06-1.59-.11-3.17-.17-4.76Z"/><polygon class="cls-17" points="86.78 194.08 86.32 193.74 134.2 143.83 134.66 144.16 86.78 194.08"/><polygon class="cls-17" points="131.86 252.98 85.15 195.83 85.64 195.52 132.35 252.66 131.86 252.98"/><path class="cls-14" d="M157.77,198.51c-.42,1.56-.85,3.11-1.27,4.67,2.13,1.18,5.33,2.45,8.72,1.78.4-.08,3.08-.64,3.23-1.79.08-.66-.73-1-.77-2.02-.04-1.1.87-1.46.79-2.09-.18-1.42-4.39-2.78-8.1-1.74-1.13.32-2.01.8-2.59,1.19Z"/><path class="cls-14" d="M86.72,193.21c-.37-.59-.93-1.01-1.57-1.32.67-.23,1.22-.6,1.65-.98.52-.47.54-1.94-.06-2.29,0,0-2.75.77-3.01.84-2.36.68-1.31-.08-5.76.97-4.66,1.1-7.08,2.08-8.15,4.54-.1.24-.29.66-.37,1.12-.44.33-.77.64-.56,1.39,1.03,3.75,10,4.14,15.68,2.88.5-.11,2.15-1.41,2.01-2.6-.09-.78-.94-1.29-.73-1.78.19-.44.96-.24,1.29-.72.44-.65-.35-1.92-.43-2.05Z"/><path class="cls-12" d="M58.7,222.24c-5.21-2.14-9.47-4.2-12.61-5.82-3.72-1.92-7.13-3.67-10.67-6.91-2.66-2.44-3.78-4.21-4.18-6.25-.12-.63-.68-3.45.96-5.85.31-.45,1-1.32,3.04-2.43,1.56-.84,4.31-2.03,8.25-2.3,9.72-.9,19.44-1.8,29.17-2.7.3,4.23.59,8.46.89,12.69-7.71.49-15.42.97-23.12,1.46l6.55.57c.58,5.85,1.16,11.7,1.74,17.54Z"/><polygon class="cls-11" points="73.5 201.33 76.27 201.48 75.42 190.5 72.68 190.69 73.5 201.33"/><path class="cls-5" d="M56.33,221.27c-1.93-.9-5.55-2.61-10.24-4.85-6.15-2.94-9.01-4.27-11.67-7.4-1.25-1.48-2.06-2.88-2.56-3.85,4.22,1.45,8.44,2.89,12.66,4.34,9.07-2.26,18.14-4.53,27.21-6.79-3.5,2.11-7.13,4.22-10.91,6.31-2.12,1.17-4.23,2.3-6.31,3.4.61,2.95,1.21,5.9,1.82,8.85Z"/><g class="cls-1"><path class="cls-10" d="M103.11,123.9c.63-.89.74-2.17.25-3.16-.48-.99-1.53-1.64-2.58-1.61,1.26-2.34.44-5.68-1.74-7.08-2.18-1.4-5.35-.62-6.73,1.64-.16-1.02-1.04-1.85-2.01-1.91-.97-.06-1.94.66-2.21,1.64-.73-.54-1.56-.91-2.43-1.1-2.46-.55-5.16.37-6.86,2.33-1.7,1.96-2.34,4.89-1.61,7.44-.28-.56-1.09-.39-1.56-.01-.58.47-1.02,1.34-.65,2.02,0,0,18.62-.29,28-.02"/></g><g class="cls-1"><path class="cls-10" d="M222.62,143.67c-.56-2.05-.14-3.49,1.45-4.96,1.6-1.47,4.5-1.66,6.63-1.05-.26-1.48.55-3.07,1.93-3.79,1.38-.72,3.22-.51,4.39.49-.5-4.06,2.7-8.23,6.92-9,4.22-.77,8.81,1.98,9.91,5.94,1.47-.67,3.35-.42,4.57.6,1.22,1.03,1.72,2.77,1.21,4.24,1.73.2,3.33,1.28,4.11,2.77.78,1.49.73,3.35-.13,4.8-12.03.1-39.54.06-40.98-.04"/></g><circle class="cls-10" cx="44.83" cy="52.93" r="26.77"/><g class="cls-1"><path class="cls-10" d="M26.19,160.16c.38-.54.45-1.31.15-1.91-.29-.6-.92-.99-1.56-.97.76-1.42.27-3.43-1.05-4.27-1.32-.84-3.23-.38-4.06.99-.1-.61-.63-1.12-1.21-1.16-.59-.04-1.17.4-1.34.99-.44-.33-.95-.55-1.47-.67-1.49-.33-3.12.22-4.15,1.41-1.03,1.18-1.41,2.95-.97,4.49-.17-.34-.66-.24-.94,0-.35.29-.61.81-.4,1.22,0,0,11.25-.17,16.91-.01"/></g><g class="cls-27"><path class="cls-10" d="M436.33,121.93c.66-.93.77-2.26.26-3.29-.5-1.03-1.59-1.71-2.69-1.67,1.31-2.44.46-5.92-1.81-7.37-2.27-1.46-5.57-.65-7.01,1.71-.17-1.06-1.08-1.93-2.09-1.99-1.01-.06-2.02.68-2.3,1.71-.76-.57-1.63-.95-2.54-1.15-2.56-.57-5.38.39-7.15,2.43-1.77,2.04-2.43,5.1-1.68,7.75-.29-.58-1.14-.41-1.63-.01-.61.49-1.06,1.4-.68,2.11,0,0,19.4-.3,29.18-.02"/></g><path class="cls-3" d="M111.98,55.16h-2.91l-14.73-19.14v19.14h-2.75v-23.44h2.91l14.73,19.14v-19.14h2.75v23.44Z"/><path class="cls-3" d="M118.16,34.6c-.44,0-.8-.15-1.1-.46-.3-.31-.45-.68-.45-1.12s.15-.79.45-1.09c.3-.3.66-.45,1.1-.45s.82.15,1.12.45c.3.3.45.67.45,1.09s-.15.81-.45,1.12c-.3.31-.68.46-1.12.46ZM119.45,55.16h-2.56v-15.62h2.56v15.62Z"/><path class="cls-3" d="M138.07,53.24c-1.94,1.49-4.07,2.23-6.41,2.23-1.62,0-3.08-.36-4.38-1.09-1.29-.73-2.31-1.72-3.05-2.98-.75-1.25-1.12-2.67-1.12-4.26s.34-2.88,1.03-4.07c.69-1.19,1.63-2.13,2.83-2.82,1.2-.69,2.56-1.03,4.08-1.03s2.94.38,4.13,1.12c1.19.75,2.12,1.79,2.79,3.12.67,1.33,1,2.88,1,4.62v.5h-13.08c.19.92.56,1.71,1.13,2.39.57.68,1.27,1.2,2.12,1.58s1.79.56,2.83.56c1.79,0,3.43-.59,4.91-1.77l1.19,1.88ZM125.81,46.41h10.75c-.12-.97-.41-1.81-.9-2.54-.48-.72-1.11-1.29-1.88-1.7s-1.63-.61-2.59-.61-1.84.2-2.62.61c-.78.41-1.41.97-1.89,1.7-.48.72-.78,1.57-.88,2.54Z"/><path class="cls-3" d="M163.09,55.16h-13.95v-1.42l9.67-11.89h-9.2v-2.31h13.09v1.23l-9.81,12.08h10.2v2.31Z"/><path class="cls-3" d="M178.82,55.16h-2.2l-.17-2.06c-.57.74-1.3,1.32-2.19,1.74-.89.42-1.88.63-2.97.63s-2.13-.22-3.02-.66c-.89-.44-1.58-1.05-2.09-1.82-.51-.77-.76-1.65-.76-2.62,0-1.03.27-1.94.82-2.73.55-.79,1.29-1.4,2.23-1.85.94-.45,2.01-.67,3.21-.67.78,0,1.58.1,2.39.29.81.19,1.54.46,2.17.79v-.66c0-.83-.21-1.54-.62-2.13-.42-.59-.97-1.04-1.67-1.36-.7-.32-1.47-.48-2.31-.48-.73,0-1.47.13-2.23.4-.76.27-1.49.67-2.19,1.23l-.84-2.2c.91-.58,1.86-1.02,2.86-1.32s1.99-.45,2.97-.45c1.35,0,2.52.27,3.51.82s1.75,1.32,2.29,2.33c.54,1.01.81,2.2.81,3.57v9.22ZM171.74,53.13c.8,0,1.54-.17,2.2-.5.67-.33,1.21-.81,1.62-1.45.42-.63.65-1.38.69-2.24v-.27c-.57-.45-1.22-.79-1.93-1.04-.71-.24-1.44-.37-2.18-.37-1.16,0-2.12.28-2.9.84-.78.56-1.16,1.28-1.16,2.14,0,.54.16,1.03.48,1.47.32.44.75.78,1.3,1.03.55.25,1.18.38,1.88.38Z"/><path class="cls-3" d="M191.95,54.79c-1.03.46-2.04.69-3.02.69s-1.76-.21-2.47-.62c-.71-.41-1.26-.99-1.66-1.73-.4-.74-.59-1.61-.59-2.6v-8.69h-2.73v-2.3h2.86v-3.91h2.44v3.91h4.67v2.3h-4.67v8.22c0,.94.25,1.69.76,2.27.5.57,1.17.86,1.99.86.67,0,1.33-.2,2-.59l.42,2.2Z"/><path class="cls-3" d="M197.48,55.16h-2.56v-15.62h2.25l.11,3.09c.54-1.07,1.3-1.91,2.29-2.51.98-.6,2.12-.9,3.4-.9.28,0,.57.02.86.05.29.03.58.08.88.14l-.31,2.31c-.57-.13-1.14-.2-1.7-.2-1.02,0-1.92.25-2.71.75-.79.5-1.4,1.19-1.84,2.06s-.66,1.88-.66,3.02v7.81Z"/><path class="cls-3" d="M221.66,55.16h-2.25l-.09-2.53c-.57.92-1.33,1.62-2.26,2.11-.93.49-2.03.73-3.3.73-2.07,0-3.71-.63-4.91-1.88-1.2-1.25-1.8-2.97-1.8-5.15v-8.91h2.56v8.72c0,1.48.42,2.66,1.26,3.55.84.89,1.96,1.33,3.35,1.33s2.64-.48,3.54-1.44c.9-.96,1.35-2.21,1.35-3.75v-8.41h2.56v15.62Z"/><path class="cls-3" d="M241.76,55.16h-2.28l-.14-2.28c-.72.8-1.59,1.44-2.62,1.9-1.03.46-2.16.7-3.38.7-1.54,0-2.92-.35-4.14-1.06-1.22-.71-2.18-1.68-2.88-2.91-.7-1.23-1.05-2.61-1.05-4.16s.35-2.94,1.05-4.16c.7-1.22,1.66-2.19,2.88-2.9,1.22-.71,2.6-1.06,4.14-1.06,1.18,0,2.27.21,3.27.64,1,.43,1.87,1.02,2.59,1.78v-9.92h2.56v23.44ZM233.56,53.16c1.04,0,1.99-.24,2.84-.73.85-.48,1.53-1.15,2.04-1.98.5-.84.76-1.79.76-2.85v-.53c0-1.06-.25-2.01-.76-2.85-.51-.84-1.19-1.5-2.04-1.98-.85-.48-1.8-.72-2.84-.72s-2.05.26-2.91.77c-.85.51-1.53,1.2-2.02,2.08-.5.88-.74,1.87-.74,2.97s.25,2.1.74,2.98c.49.88,1.17,1.58,2.02,2.09.85.51,1.82.77,2.91.77Z"/><path class="cls-3" d="M261.23,55.16h-2.56v-8.72c0-1.48-.42-2.66-1.27-3.55-.84-.88-1.96-1.33-3.36-1.33s-2.62.48-3.52,1.43c-.9.95-1.35,2.21-1.35,3.76v8.41h-2.56v-15.62h2.23l.09,2.53c.57-.92,1.33-1.62,2.27-2.11.94-.49,2.04-.73,3.31-.73,2.07,0,3.71.62,4.91,1.88s1.8,2.96,1.8,5.14v8.92Z"/><path class="cls-3" d="M267.1,34.6c-.44,0-.8-.15-1.1-.46-.3-.31-.45-.68-.45-1.12s.15-.79.45-1.09c.3-.3.66-.45,1.1-.45s.82.15,1.12.45c.3.3.45.67.45,1.09s-.15.81-.45,1.12c-.3.31-.68.46-1.12.46ZM268.38,55.16h-2.56v-15.62h2.56v15.62Z"/><path class="cls-3" d="M285.91,55.16h-2.2l-.17-2.06c-.57.74-1.3,1.32-2.19,1.74-.89.42-1.88.63-2.97.63s-2.13-.22-3.02-.66c-.89-.44-1.58-1.05-2.09-1.82-.51-.77-.76-1.65-.76-2.62,0-1.03.27-1.94.82-2.73.55-.79,1.29-1.4,2.23-1.85.94-.45,2.01-.67,3.21-.67.78,0,1.58.1,2.39.29.81.19,1.54.46,2.17.79v-.66c0-.83-.21-1.54-.62-2.13-.42-.59-.97-1.04-1.67-1.36-.7-.32-1.47-.48-2.31-.48-.73,0-1.47.13-2.23.4-.76.27-1.49.67-2.19,1.23l-.84-2.2c.91-.58,1.86-1.02,2.86-1.32s1.99-.45,2.97-.45c1.35,0,2.52.27,3.51.82s1.75,1.32,2.29,2.33c.54,1.01.81,2.2.81,3.57v9.22ZM278.84,53.13c.8,0,1.54-.17,2.2-.5.67-.33,1.21-.81,1.62-1.45.42-.63.65-1.38.69-2.24v-.27c-.57-.45-1.22-.79-1.93-1.04-.71-.24-1.44-.37-2.18-.37-1.16,0-2.12.28-2.9.84-.78.56-1.16,1.28-1.16,2.14,0,.54.16,1.03.48,1.47.32.44.75.78,1.3,1.03.55.25,1.18.38,1.88.38Z"/><path class="cls-3" d="M286.26,63.08v-2.05c.17.03.33.05.48.06.15.01.3.02.45.02,1.08,0,1.96-.38,2.62-1.16.67-.77,1-1.81,1-3.11v-17.31h2.58v17.41c0,2.02-.47,3.58-1.4,4.69-.93,1.1-2.24,1.66-3.91,1.66-.28,0-.57-.02-.88-.05-.3-.04-.61-.09-.94-.15ZM292.09,34.6c-.44,0-.8-.15-1.1-.45-.3-.3-.45-.67-.45-1.11s.15-.81.45-1.11c.3-.3.66-.45,1.1-.45s.81.15,1.11.45c.3.3.45.67.45,1.11s-.15.81-.45,1.11-.67.45-1.11.45Z"/><path class="cls-3" d="M320.65,55.16h-2.56v-8.72c0-1.48-.42-2.66-1.27-3.55-.84-.88-1.96-1.33-3.36-1.33s-2.62.48-3.52,1.43c-.9.95-1.35,2.21-1.35,3.76v8.41h-2.56v-15.62h2.23l.09,2.53c.57-.92,1.33-1.62,2.27-2.11.94-.49,2.04-.73,3.31-.73,2.07,0,3.71.62,4.91,1.88s1.8,2.96,1.8,5.14v8.92Z"/><path class="cls-3" d="M337.79,55.16h-2.2l-.17-2.06c-.57.74-1.3,1.32-2.19,1.74-.89.42-1.88.63-2.97.63s-2.13-.22-3.02-.66c-.89-.44-1.58-1.05-2.09-1.82-.51-.77-.76-1.65-.76-2.62,0-1.03.27-1.94.82-2.73.55-.79,1.29-1.4,2.23-1.85.94-.45,2.01-.67,3.21-.67.78,0,1.58.1,2.39.29.81.19,1.54.46,2.17.79v-.66c0-.83-.21-1.54-.62-2.13-.42-.59-.97-1.04-1.67-1.36-.7-.32-1.47-.48-2.31-.48-.73,0-1.47.13-2.23.4-.76.27-1.49.67-2.19,1.23l-.84-2.2c.91-.58,1.86-1.02,2.86-1.32s1.99-.45,2.97-.45c1.35,0,2.52.27,3.51.82s1.75,1.32,2.29,2.33c.54,1.01.81,2.2.81,3.57v9.22ZM330.71,53.13c.8,0,1.54-.17,2.2-.5.67-.33,1.21-.81,1.62-1.45.42-.63.65-1.38.69-2.24v-.27c-.57-.45-1.22-.79-1.93-1.04-.71-.24-1.44-.37-2.18-.37-1.16,0-2.12.28-2.9.84-.78.56-1.16,1.28-1.16,2.14,0,.54.16,1.03.48,1.47.32.44.75.78,1.3,1.03.55.25,1.18.38,1.88.38Z"/><path class="cls-3" d="M341.23,53.8l.67-2.41c.38.35.8.66,1.28.92.48.26.98.46,1.52.6s1.07.21,1.61.21c.97,0,1.75-.21,2.34-.64.59-.43.89-.98.89-1.67,0-.5-.15-.91-.46-1.24-.31-.33-.71-.61-1.21-.85-.5-.24-1.04-.47-1.61-.69-.7-.27-1.39-.58-2.08-.92s-1.26-.8-1.71-1.36-.68-1.3-.68-2.22.22-1.63.66-2.28c.44-.65,1.05-1.15,1.84-1.5.79-.35,1.69-.53,2.71-.53,1.54,0,3.06.39,4.55,1.16l-.77,2.31c-.33-.22-.72-.41-1.16-.59s-.89-.3-1.34-.4c-.46-.09-.89-.14-1.3-.14-.76,0-1.38.17-1.84.52-.47.35-.7.82-.7,1.4,0,.33.1.64.29.91.19.28.52.55.98.82.46.27,1.09.57,1.91.91.72.29,1.43.62,2.12.99.7.37,1.28.84,1.74,1.42.46.58.7,1.33.7,2.26s-.24,1.73-.73,2.43-1.16,1.25-2.02,1.65c-.86.4-1.85.59-2.98.59-1.87,0-3.6-.56-5.22-1.67Z"/><path class="cls-3" d="M357.18,58.91h-1.89l1.25-6.56h2.34l-1.7,6.56Z"/><path class="cls-15" d="M129,97.91c1.22-.51,2.07-.99,2.75-1.84,1.16-1.46,2.04-3.16,2.79-7.27l2.31-12.04-3.33-.2.1-.99,5.75-1.73.44.34-2.99,15.47c-.65,3.16-1.97,5.75-4.11,7.55-1.09.92-2.24,1.46-3.43,1.67l-.27-.95ZM138.01,67.32c0-1.12.88-2.07,1.87-2.07,1.05,0,1.77.71,1.77,1.8s-.92,2.11-1.9,2.11-1.73-.71-1.73-1.84Z"/><path class="cls-15" d="M141.72,84.55c0-5.47,4.11-10.71,8.87-10.71,2.18,0,3.4,1.12,3.4,3.13,0,2.18-2.14,5.27-9.89,7.51.14,2.89,1.43,4.04,3.5,4.04s3.67-1.33,4.59-2.48l.78.61c-1.43,2.31-3.64,4.21-6.15,4.21-2.96,0-5.1-1.97-5.1-6.32ZM144.1,83.16c5.64-1.63,7.62-4.01,7.62-5.85,0-1.26-.75-2.01-1.87-2.01-2.11,0-5.41,3.6-5.75,7.85Z"/><path class="cls-15" d="M154.94,87.51c.17-.58.71-.95,1.26-.95.99,0,1.39.54,1.63,1.5l.37,1.46c.14.03.31.03.48.03,2.35,0,3.74-1.12,3.74-2.89,0-1.09-.27-1.97-2.21-3.37-1.7-1.29-2.99-2.55-2.99-4.69,0-2.65,2.14-4.76,5.41-4.76,2,0,3.54.78,4.04,2.99-.2.65-.68.95-1.29.95-.78,0-1.39-.58-1.73-1.6l-.31-.99c-.14-.03-.31-.03-.48-.03-2.35,0-3.23,1.26-3.23,2.79,0,1.43.58,2.14,2.52,3.57,2.04,1.53,2.75,2.55,2.75,4.52,0,2.82-2.31,4.83-5.75,4.83-2.65,0-3.98-1.33-4.22-3.37ZM165.14,66.06c.44-.92.99-1.46,1.73-1.46s1.33.41,1.33,1.19c0,.51-.2,1.02-.75,1.67-1.36,1.63-2.69,3.2-4.05,4.83l-.78-.51c.85-1.9,1.7-3.81,2.52-5.71Z"/><path class="cls-15" d="M168.14,88.91c0-.48.1-1.09.31-2.28l2.45-12.44c.41-2.01.78-4.01,1.09-6.02l-3.2-.2.14-.99,5.85-1.7.37.27-4.08,20.23c-.2.92-.31,1.63-.31,1.97,0,.51.41.78.85.78.71,0,1.87-.88,3.23-2.45l.78.65c-1.46,2.01-3.16,4.15-5.58,4.15-1.05,0-1.9-.65-1.9-1.97Z"/><path class="cls-15" d="M178.51,86.66l2.07-9.89-3.37-.2.14-.99,5.78-1.73.44.34-2.41,11.66c-.17.85-.31,1.56-.31,1.94,0,.48.37.75.75.75.82,0,1.9-.82,3.26-2.45l.85.65c-1.53,2.04-3.3,4.15-5.71,4.15-.95,0-1.84-.58-1.84-1.73,0-.51.07-1.09.34-2.48ZM181.74,67.32c0-1.12.88-2.07,1.87-2.07,1.05,0,1.77.71,1.77,1.8s-.92,2.11-1.9,2.11-1.73-.71-1.73-1.84Z"/><path class="cls-15" d="M196.49,89.14c0-.51.03-1.09.31-2.48l2.31-10.78h-3.47l.27-1.29,3.64-.34,1.6-4.52h1.73l-.95,4.56h4.32l-.37,1.84-4.32-.14-2.07,9.79c-.2.92-.31,1.63-.31,1.97,0,.51.41.78.82.78.92,0,1.94-.82,3.33-2.45l.82.65c-1.39,2.04-3.47,4.15-5.78,4.15-.99,0-1.87-.58-1.87-1.73Z"/><path class="cls-15" d="M206.45,84.89c0-6.12,4.05-11.05,8.87-11.05,3.2,0,5.51,2.11,5.51,5.95,0,5.92-3.94,11.08-8.74,11.08-3.13,0-5.64-2.11-5.64-5.98ZM218.08,80.3c0-3.67-1.29-5.1-3.13-5.1-3.23,0-5.75,4.21-5.75,9.28,0,3.57,1.39,5.03,3.3,5.03,3.33,0,5.58-4.66,5.58-9.21Z"/><path class="cls-15" d="M234.2,90.37c-.61,2.92-.99,4.86-1.26,6.56l3.13.51-.27,1.16h-8.6l.24-1.16,2.92-.48,4.28-20.19-3.37-.2.14-.99,5.78-1.73.44.34-.82,3.81c2.07-2.58,4.79-4.15,6.73-4.15,1.67,0,3.09,1.12,3.09,4.18,0,5.75-5.61,12.85-10.5,12.85-.75,0-1.36-.17-1.94-.51ZM236.44,79.66l-1.67,7.96c.92.68,1.8.95,2.58.95,1.7,0,3.26-1.05,4.45-2.58,1.36-1.8,2.21-4.25,2.21-6.59,0-2.21-.78-3.26-2.07-3.26-1.39,0-3.33,1.26-5.51,3.54Z"/><path class="cls-15" d="M252.05,76.77l-3.37-.2.14-.99,5.61-1.73.44.34-.75,4.55c1.46-2.55,3.33-4.9,5.13-4.9.95,0,1.8.27,2.28,1.02-.03,1.12-.68,1.9-1.8,1.9-.58,0-1.33-.37-2.01-.92-1.67,1.39-2.96,3.33-4.22,5.68l-.37,1.77c-.51,2.38-.92,4.73-1.36,7.14l-2.28.27-.34-.27,2.89-13.67Z"/><path class="cls-15" d="M261.16,84.89c0-6.12,4.05-11.05,8.87-11.05,3.2,0,5.51,2.11,5.51,5.95,0,5.92-3.94,11.08-8.74,11.08-3.13,0-5.64-2.11-5.64-5.98ZM272.79,80.3c0-3.67-1.29-5.1-3.13-5.1-3.23,0-5.75,4.21-5.75,9.28,0,3.57,1.39,5.03,3.3,5.03,3.33,0,5.58-4.66,5.58-9.21Z"/><path class="cls-15" d="M277.14,87.51c.17-.58.71-.95,1.26-.95.99,0,1.39.54,1.63,1.5l.37,1.46c.14.03.31.03.48.03,2.35,0,3.74-1.12,3.74-2.89,0-1.09-.27-1.97-2.21-3.37-1.7-1.29-2.99-2.55-2.99-4.69,0-2.65,2.14-4.76,5.41-4.76,2.01,0,3.54.78,4.05,2.99-.2.65-.68.95-1.29.95-.78,0-1.39-.58-1.73-1.6l-.31-.99c-.14-.03-.31-.03-.48-.03-2.35,0-3.23,1.26-3.23,2.79,0,1.43.58,2.14,2.52,3.57,2.04,1.53,2.75,2.55,2.75,4.52,0,2.82-2.31,4.83-5.75,4.83-2.65,0-3.98-1.33-4.22-3.37Z"/><path class="cls-15" d="M291.21,89.14c0-.51.03-1.09.31-2.48l2.31-10.78h-3.47l.27-1.29,3.64-.34,1.6-4.52h1.73l-.95,4.56h4.32l-.37,1.84-4.32-.14-2.07,9.79c-.2.92-.31,1.63-.31,1.97,0,.51.41.78.82.78.92,0,1.94-.82,3.33-2.45l.82.65c-1.39,2.04-3.47,4.15-5.78,4.15-.99,0-1.87-.58-1.87-1.73Z"/><path class="cls-15" d="M301.18,84.55c0-5.47,4.11-10.71,8.87-10.71,2.18,0,3.4,1.12,3.4,3.13,0,2.18-2.14,5.27-9.89,7.51.14,2.89,1.43,4.04,3.5,4.04s3.67-1.33,4.59-2.48l.78.61c-1.43,2.31-3.64,4.21-6.15,4.21-2.96,0-5.1-1.97-5.1-6.32ZM303.56,83.16c5.64-1.63,7.62-4.01,7.62-5.85,0-1.26-.75-2.01-1.87-2.01-2.11,0-5.41,3.6-5.75,7.85Z"/><path class="cls-15" d="M315.32,88.84c0-1.36,1.12-2.35,2.41-2.35,1.19,0,1.97.88,1.97,1.94,0,1.36-1.09,2.35-2.38,2.35-1.16,0-2.01-.82-2.01-1.94Z"/></g></svg>