<?xml version="1.0" encoding="UTF-8"?><svg id="Layer_2" xmlns="http://www.w3.org/2000/svg" xmlns:xlink="http://www.w3.org/1999/xlink" viewBox="0 0 450 371.78"><defs><style>.cls-1{opacity:.85;}.cls-2{fill:#722217;}.cls-2,.cls-3,.cls-4,.cls-5,.cls-6,.cls-7,.cls-8,.cls-9,.cls-10,.cls-11,.cls-12,.cls-13,.cls-14,.cls-15,.cls-16,.cls-17,.cls-18,.cls-19,.cls-20,.cls-21,.cls-22,.cls-23,.cls-24{stroke-width:0px;}.cls-3{fill:#ce6b28;}.cls-4{fill:#e5e5e5;}.cls-6{fill:#022b0c;}.cls-7{fill:#211010;}.cls-8{fill:#e09b7c;}.cls-9{fill:#052d07;}.cls-10{fill:#fff;}.cls-11{fill:#a0a0a0;}.cls-12{fill:#8c2a20;}.cls-13{fill:#01240b;}.cls-14{fill:#002b69;}.cls-15{fill:#9b3a2f;}.cls-16{fill:#e9a684;}.cls-17{fill:#b74d44;}.cls-18{fill:#a13941;}.cls-19{fill:#e5a87a;}.cls-20{fill:url(#linear-gradient);opacity:.36;}.cls-21{fill:#f4bc8e;}.cls-22{fill:#d7af80;}.cls-23{fill:#8d3c43;}.cls-24{fill:#471910;}</style><linearGradient id="linear-gradient" x1="55.25" y1="338.28" x2="262.79" y2="144.77" gradientUnits="userSpaceOnUse"><stop offset=".04" stop-color="#ffdfc0"/><stop offset=".28" stop-color="#f8d6b5"/><stop offset=".7" stop-color="#e6c198"/><stop offset="1" stop-color="#d7af80"/></linearGradient></defs><g id="Layer_1-2"><rect class="cls-20" width="450" height="360"/><g class="cls-1"><path class="cls-10" d="M47.35,132.78c.42-1.71.11-2.91-1.08-4.14-1.18-1.23-3.34-1.39-4.92-.88.19-1.23-.41-2.56-1.43-3.17-1.02-.6-2.39-.43-3.26.41.37-3.39-2.01-6.88-5.14-7.52-3.13-.64-6.54,1.66-7.36,4.96-1.09-.56-2.49-.35-3.39.5-.91.86-1.28,2.31-.9,3.55-1.29.17-2.47,1.07-3.05,2.31-.58,1.24-.54,2.8.1,4.01,8.93.08,29.35.05,30.43-.03"/></g><g class="cls-1"><path class="cls-10" d="M210.82,122.07c.68-.82.79-2,.27-2.92-.52-.91-1.63-1.51-2.75-1.48,1.34-2.16.47-5.24-1.85-6.53-2.32-1.29-5.71-.57-7.18,1.52-.17-.94-1.11-1.71-2.14-1.77-1.04-.06-2.07.61-2.36,1.52-.77-.5-1.67-.84-2.6-1.02-2.62-.5-5.51.34-7.32,2.15-1.81,1.81-2.49,4.51-1.72,6.86-.3-.51-1.16-.36-1.67-.01-.62.44-1.08,1.24-.7,1.87,0,0,19.87-.27,29.89-.02"/></g><g class="cls-1"><path class="cls-10" d="M42.2,62.99c-.57-2.06-.15-3.51,1.46-4.99,1.61-1.48,4.53-1.67,6.67-1.06-.26-1.49.55-3.09,1.94-3.82,1.39-.72,3.25-.52,4.42.5-.51-4.09,2.72-8.29,6.97-9.06,4.25-.77,8.87,2,9.98,5.98,1.48-.67,3.37-.42,4.6.61,1.23,1.03,1.73,2.79,1.22,4.28,1.75.21,3.35,1.29,4.14,2.79.79,1.5.74,3.37-.13,4.83-12.11.1-39.82.06-41.28-.04"/></g><path class="cls-22" d="M228.17,293.23l-3.21-9.37c-21.14-1.46-13.11-21.96-13.11-21.96l-6.15-6.06c-19.76,9.43-22.44-11.49-22.44-11.49l-9.8-2.65c-16.77,17.1-25.36.54-25.36.54l-9.07,3.11c-2.07,21.99-21.44,13-21.44,13l-6.2,6.2c10.04,17.68-12.49,21.66-12.49,21.66l-1.9,9.87c17.54,12.63-.35,24.43-.35,24.43l3.26,9.53c22.81,1.06,13.04,21.09,13.04,21.09l7.5,5.77c20.85-6.78,21.13,12.11,21.13,12.11l9.26,2.76c15.21-16.92,25.57-.35,25.57-.35l9.24-3.16c1.67-19.46,21.12-12.89,21.12-12.89l6.71-7.91c-6.79-17.73,11.79-21.1,11.79-21.1l2.65-9.62c-16.68-13.81.25-23.52.25-23.52ZM172.84,338.27c-17.72,6.07-36.91-3.1-42.85-20.47-5.95-17.37,3.6-36.37,21.31-42.44,17.72-6.07,36.91,3.1,42.85,20.47,5.95,17.37-3.6,36.37-21.32,42.44Z"/><circle class="cls-10" cx="162.41" cy="306.74" r="34.56" transform="translate(-8.94 4.9) rotate(-1.68)"/><path class="cls-14" d="M157.23,285.91h0c-.4.1-.81-.15-.91-.55l-.85-3.45c-.1-.4.15-.81.55-.91.4-.1.81.15.91.55l.85,3.45c.1.4-.15.81-.55.91Z"/><path class="cls-14" d="M168.8,332.47h0c-.4.1-.81-.15-.91-.55l-.85-3.45c-.1-.4.15-.81.55-.91.4-.1.81.15.91.55l.85,3.45c.1.4-.15.81-.55.91Z"/><path class="cls-14" d="M183.24,301.56h0c-.1-.4.15-.81.55-.91l3.45-.85c.4-.1.81.15.91.55.1.4-.15.81-.55.91l-3.45.85c-.4.1-.81-.15-.91-.55Z"/><path class="cls-14" d="M136.68,313.13h0c-.1-.4.15-.81.55-.91l3.45-.85c.4-.1.81.15.91.55.1.4-.15.81-.55.91l-3.45.85c-.4.1-.81-.15-.91-.55Z"/><path class="cls-14" d="M173.97,287.53h0c-.35-.21-.47-.67-.25-1.03l.94-1.55c.21-.35.67-.47,1.03-.25.35.21.47.67.25,1.03l-.94,1.55c-.21.35-.67.47-1.03.25Z"/><path class="cls-14" d="M149.13,328.8h0c-.35-.21-.47-.67-.25-1.03l1.16-1.92c.21-.35.67-.47,1.03-.25.35.21.47.67.25,1.03l-1.16,1.92c-.21.35-.67.47-1.03.25Z"/><path class="cls-14" d="M181.62,318.32h0c.21-.35.67-.47,1.03-.25l1.55.94c.35.21.47.67.25,1.03-.21.35-.67.47-1.03.25l-1.55-.94c-.35-.21-.47-.67-.25-1.03Z"/><path class="cls-14" d="M140.36,293.47h0c.21-.35.67-.47,1.03-.25l1.92,1.16c.35.21.47.67.25,1.03-.21.35-.67.47-1.03.25l-1.92-1.16c-.35-.21-.47-.67-.25-1.03Z"/><path class="cls-14" d="M162.48,306.54h0c-.24.39-.75.51-1.13.28l-12.25-7.44c-.39-.24-.51-.74-.28-1.13.24-.39.75-.51,1.13-.28l12.25,7.44c.39.24.51.74.28,1.13Z"/><path class="cls-14" d="M162.58,307.57h0c-.39-.24-.51-.75-.28-1.13l6.22-10.24c.24-.39.74-.51,1.13-.28.39.24.51.74.28,1.13l-6.22,10.24c-.24.39-.74.51-1.13.28Z"/><path class="cls-14" d="M165.32,306.02c.4,1.61-.59,3.23-2.19,3.62-1.61.4-3.23-.59-3.62-2.19-.4-1.61.59-3.23,2.19-3.62,1.61-.4,3.23.59,3.62,2.19Z"/><path class="cls-18" d="M88.83,345.26l1.11-5.85c-10.49-7.03-.33-15.36-.33-15.36l-1.4-4.99c-12.87-.91-8.11-12.63-8.11-12.63l-4.24-4.28c-13.59,3.99-13.13-7.21-13.13-7.21l-5.55-1.06c-7.5,10.85-14.77.47-14.77.47l-4.99,1.41c-.06,12.21-12.74,7.63-12.74,7.63l-3.78,4.62c5.26,11.78-7.26,12.68-7.26,12.68l-1.13,5.95c11.25,7.27.38,14.86.38,14.86l2.09,5.22c12.65,2.61,7.22,12.56,7.22,12.56l3.92,4.11c12.74-4.35,13.17,7.31,13.17,7.31l5.65,1.07c6.56-9.68,14.56-.44,14.56-.44l5.74-2.13c1.73-11.27,12.22-7.53,12.22-7.53l4.26-4.22c-4.47-12.14,7.11-12.2,7.11-12.2ZM47.18,352.44c-10.84-2.06-17.95-12.52-15.89-23.35,2.06-10.84,12.52-17.95,23.35-15.89,10.84,2.06,17.95,12.52,15.89,23.35-2.06,10.84-12.52,17.95-23.35,15.89Z"/><path class="cls-10" d="M71.24,333.46c-.31,11.05-9.51,19.75-20.56,19.44-11.05-.31-19.75-9.51-19.44-20.56.31-11.05,9.51-19.75,20.56-19.44,11.05.31,19.75,9.51,19.44,20.56Z"/><path class="cls-14" d="M48.57,320.7h0c-.23.05-.46-.1-.52-.33l-.44-2.01c-.05-.23.1-.46.33-.52.23-.05.46.1.52.33l.44,2.01c.05.23-.1.46-.33.52Z"/><path class="cls-14" d="M54.51,347.83h0c-.23.05-.46-.1-.51-.33l-.44-2.01c-.05-.23.1-.46.33-.52.23-.05.46.1.52.33l.44,2.01c.05.23-.1.46-.33.52Z"/><path class="cls-14" d="M63.37,330.17h0c-.05-.23.1-.46.33-.52l2.01-.44c.23-.05.46.1.52.33.05.23-.1.46-.33.52l-2.01.44c-.23.05-.46-.1-.52-.33Z"/><path class="cls-14" d="M36.23,336.11h0c-.05-.23.1-.46.33-.52l2.01-.44c.23-.05.46.1.52.33.05.23-.1.46-.33.52l-2.01.44c-.23.05-.46-.1-.52-.33Z"/><path class="cls-14" d="M58.23,321.9h0c-.2-.13-.26-.4-.13-.6l.57-.88c.13-.2.4-.26.6-.13.2.13.26.4.13.6l-.57.88c-.13.2-.4.26-.6.13Z"/><path class="cls-14" d="M43.18,345.39h0c-.2-.13-.26-.4-.13-.6l.7-1.09c.13-.2.4-.26.6-.13.2.13.26.4.13.6l-.7,1.09c-.13.2-.4.26-.6.13Z"/><path class="cls-14" d="M62.16,339.85h0c.13-.2.4-.26.6-.13l.88.57c.2.13.26.4.13.6-.13.2-.4.26-.6.13l-.88-.57c-.2-.13-.26-.4-.13-.6Z"/><path class="cls-14" d="M38.68,324.8h0c.13-.2.4-.26.6-.13l1.09.7c.2.13.26.4.13.6-.13.2-.4.26-.6.13l-1.09-.7c-.2-.13-.26-.4-.13-.6Z"/><path class="cls-14" d="M51.27,332.72h0c-.14.22-.44.29-.66.14l-6.97-4.5c-.22-.14-.29-.44-.14-.66.14-.22.44-.29.66-.14l6.97,4.5c.22.14.29.44.14.66Z"/><path class="cls-14" d="M51.31,333.32h0c-.22-.14-.29-.44-.14-.66l3.76-5.82c.14-.22.44-.29.66-.14.22.14.29.44.14.66l-3.76,5.82c-.14.22-.44.29-.66.14Z"/><path class="cls-14" d="M52.92,332.47c.2.94-.39,1.86-1.33,2.06-.94.2-1.86-.39-2.06-1.33-.2-.94.39-1.86,1.33-2.06.94-.2,1.86.39,2.06,1.33Z"/><path class="cls-21" d="M100.34,214.05c-.15.19-.48.65-.48.65l1.11.09,2.18-.8s.51-1.42.91-1.76c.4-.34.8-.2.8-.2,0,0-.87,1.93-1.24,3.3-.06.23-.36.39-.68.67-.01.24-.07.6-.48.75-.16.44-.51.51-1.1.72-.41.15-1.97.73-2.56.98-.61.26-1.39.69-2.5,1.18l-.82-2.06c.91-.28,2.17-.92,2.28-.97.22-.11.25-1.01.69-1.53.44-.52,2.11-2.37,2.19-2.64.2.01.51.13.38.68-.06.25-.41.64-.66.94Z"/><path class="cls-21" d="M32.54,239.38s-.93,2.02-.91,2.38c.03.5.17.93.21,1.42.02.25-.05.51-.09.76-.04.26-.08.51-.12.77-.01.09-.03.17-.04.26,0,0,0,1.21.1,1.72s.24,1.28-.29,1.23c-.53-.05-.8-.93-.86-1.55s-.36-1.17-.51-.91c-.4.71-.65,1.57-.9,2.34-.39,1.19-.77,2.47-1.21,1.72-.08-.14-.06-.32-.04-.48.19-1.13.66-2.23.78-3.37.02-.19-.11-.32-.25-.1-.14.22-1.08,1.95-1.37,2.5-.18.33-.35.67-.56.97-.09.14-.2.29-.36.36-.16.07-.41.02-.49-.15-.04-.08-.03-.18-.02-.27.05-.33.2-.64.34-.94.2-.41.42-.8.63-1.2.45-.85.83-1.58.83-1.76,0-.18-.04-.26-.33.11-.28.36-1.45,2.23-1.63,2.46-.18.24-.39.33-.54.22-.16-.12-.46-.24,1.09-2.7.28-.45.58-.85.61-.99.02-.14-.13-.25-.4,0-.27.25-.97,1.04-1.19.97-.21-.07-.47-.19.34-1.13.8-.95,1.58-2.01,1.96-2.36.37-.35,1.05-.57,1.35-.87.3-.3,1.37-2.72,1.37-2.72l2.5,1.31Z"/><g id="BM1"><path class="cls-7" d="M41.43,290c-.44.19-2.55,3.12-2.55,3.12l-.37,1.92,5.6,2.42,4.09,1.6.86-2.54-4.7-4.55-2.94-1.99Z"/><path class="cls-7" d="M80.8,276.58c.3.37,0,0,0,0l2.55,3.71,4.87,1.91-.91,2.73-10.87-.2-.64-1.21s.09-2.57.3-2.65l1.07-4.87,3.63.57Z"/><path class="cls-13" d="M68.01,208.1l-6.74-1.54-2.92.08-3.88.99-3.58,2.53-.44,7.26-.23,2.82.74,10.69-.68,7.24-2.45,9.73,2.77,3.24c-3.71,13.28-7.41,26.56-11.12,39.85l7.33,2.46c4.96-12.36,9.92-24.72,14.89-37.08,5.54,1.41,11.07,2.82,16.61,4.24-1.13,6.16-2.26,12.31-3.39,18.47,2.99.28,5.99.56,8.98.85,1.58-8.7,3.16-17.4,4.74-26.09-5.86-1.37-11.71-2.74-17.57-4.11l.78-1.51-.53-13.6.03-17.68.09-6.78-3.42-2.04Z"/><path class="cls-6" d="M62.33,208.08c2.89.65,5.79,1.29,8.68,1.94,3.73,3.81,7.46,7.62,11.18,11.44,4.55-1.9,9.1-3.8,13.66-5.71l.04,5.48c-5.1,2-10.2,3.99-15.31,5.99-4.43-4.29-8.86-8.57-13.29-12.86l-4.97-6.28Z"/><polygon class="cls-10" points="97.03 216.18 95.96 216.12 95.86 220.08 96.87 219.91 97.03 216.18"/><polygon class="cls-13" points="68.01 208.1 61.27 206.56 58.35 206.64 54.47 207.63 49.31 209.78 49.32 216.22 48.68 222.05 50.19 230.91 49.5 238.15 47.83 247.9 50.59 251.14 54.31 253.06 56.71 246.29 67.32 246.1 68.3 249.92 71.07 249.71 71.85 248.2 72.19 234.63 72.4 222.18 71.43 210.14 68.01 208.1"/><polygon class="cls-19" points="58.25 208.32 64.33 218.79 67.36 210.58 66.66 208.49 66.32 208.2 66.79 202.57 60.34 201.9 59.79 206.22 58.25 208.32"/><path class="cls-10" d="M64.86,211.19c-5.24.41-5.75-3.89-5.75-3.89l.46-.77-3.35,2.03,1.27,10.12-.79,27.61c4.56.42,9.15.27,11.66-.2l.82-14.5.2-12.32.1-6.29-1.5-4.17-1.58-1.56-.08.95s1.04,2.8-1.47,3Z"/><path class="cls-21" d="M61.51,192.13s-4.06,2.07-5.19,2.86c-3.43,2.4-2.86,4.44-.15,8.23,1.66,2.32,5.19,1.8,5.19,1.8l1.34,1.12c.94-.15,4.25.07,4.25.07l2.78-1.65-.59-3.76s-2.82-4.85-2.98-5.03c0,0-1.11-2.03-2.31-2.99-.96-.77-2.33-.64-2.33-.64Z"/><path class="cls-3" d="M61.76,189.75l-2.49,1.44s-3.09,1.75-3.83,2.27c-3.33,2.32-2.67,6.73.09,10.3l3.31,2.24,1.88.41-.57-3.07c.46-.45,1.55-1.53,1.55-1.53l-2.41-4.04.54-2.72,3.49-1.46.85-.54.19-1.14-.78-1.31-.39.41-1.42-1.25Z"/><path class="cls-21" d="M61.69,201.53c.31,1.1.43,1.71-.56,1.82-.53.06-1.19.16-1.99-1.15-.6-.98-.26-2.15.7-2.43.96-.28,1.54.66,1.85,1.76Z"/></g><polygon class="cls-10" points="28.58 238.87 28.03 240.03 32.86 241.58 33.26 240.38 28.58 238.87"/><polygon class="cls-9" points="49.87 209.56 35.92 222.37 28.01 239.08 33.29 240.67 40.45 227.02 50.01 219.24 52.01 214.85 51.97 212.01 49.87 209.56"/><path class="cls-16" d="M126.52,184.47c.27-.12.92-.35.92-.35l-.25,1.33-1.65,2.3s-1.84.14-2.36.49c-.52.36-.49.88-.49.88,0,0,2.56-.39,4.28-.39.29,0,.57-.29,1.01-.59.29.06.72.11,1.04-.32.57-.04.76-.43,1.2-1.06.31-.44,1.5-2.08,1.98-2.69.5-.63,1.27-1.41,2.19-2.55l-2.16-1.63c-.63.98-1.78,2.25-1.88,2.36-.19.22-1.27-.03-2.02.31-.75.34-3.47,1.7-3.81,1.71-.05.24,0,.64.67.66.32,0,.88-.27,1.32-.47Z"/><g id="BM1-2"><path class="cls-7" d="M171.56,236.32c-.38.33-1.57,3.94-1.57,3.94l.24,2.04,6.38.65,4.61.31.05-2.82-6.15-3.07-3.58-1.06Z"/><path class="cls-7" d="M146.8,233.75c-.31.39,0,0,0,0l-2.68,3.9-5.12,2.01.96,2.87,11.43-.21.67-1.27s-.09-2.7-.31-2.79l-1.13-5.12-3.82.6Z"/><path class="cls-13" d="M154.55,147.48l7.08-1.62,3.07.08,4.08,1.04,3.76,2.66.46,7.63.24,2.97-.78,11.24.72,7.61c-.04,3.47-.07,6.94-.11,10.41-.45,2.3-.9,4.6-1.35,6.9,2.64,13.98,5.28,27.96,7.92,41.94-3.27.08-6.54.15-9.81.23-2.74-12.28-5.47-24.55-8.21-36.83-3.09,12.07-6.18,24.14-9.26,36.21-3.09-.23-6.18-.47-9.26-.7,2.75-15.34,5.5-30.68,8.24-46.02l-.82-1.59.56-14.29-.03-18.59-.1-7.13,3.6-2.15Z"/><path class="cls-6" d="M160.52,147.46c-3.04.68-6.08,1.36-9.13,2.04-3.24,5.38-6.47,10.77-9.71,16.15-4.07,4.82-8.14,9.64-12.21,14.46,1.31,1.68,2.62,3.37,3.93,5.05,3.98-4.73,7.95-9.45,11.93-14.18,3.32-5.64,6.64-11.28,9.96-16.92,1.74-2.2,3.48-4.4,5.22-6.6Z"/><path class="cls-13" d="M154.55,147.48l7.08-1.62,3.07.08,4.08,1.04,5.43,2.25-.02,6.77.67,6.13-1.58,9.31.72,7.61c.49,1.43,1.35,3.4,2.85,5.45,1.3,1.78,2.68,3.05,3.77,3.92-1.46.54-4.15,1.32-7.55,1.06-3.01-.24-5.31-1.2-6.65-1.88l-11.15-.2-1.03,4.01c-1.24-.6-2.48-1.2-3.73-1.8l-.36-14.27-.22-13.09,1.02-12.65,3.6-2.15Z"/><polygon class="cls-8" points="164.8 147.71 158.41 158.72 155.23 150.09 155.95 147.89 156.31 147.58 155.82 141.67 162.6 140.96 163.18 145.51 164.8 147.71"/><path class="cls-10" d="M157.85,150.73c5.5.43,6.05-4.09,6.05-4.09l-.48-.81,3.52,2.14-1.34,10.63.83,29.01c-4.79.44-9.62.28-12.25-.21l-.86-15.24-.21-12.95-.11-6.61,1.58-4.38,1.66-1.63.08,1s-1.09,2.94,1.54,3.15Z"/><path class="cls-16" d="M151.02,133.46s4.23-2.24,5.59-2.73c4.13-1.51,5.55.23,7.17,4.84,1,2.83-1.59,5.54-1.59,5.54l.16,1.83c-.7.71-2.5,3.69-2.5,3.69-2.79,1.48-4.18.87-4.6.63-.76-.43-1.02-1.1-2.62-4.72-.56-1.27-1.02-2.29-1.29-2.89-.28-.35-1.36-1.79-1.18-3.8.1-1.13.57-1.96.86-2.4Z"/><path class="cls-7" d="M146.55,131.36h5.24c.49-.53,1.85-1.85,4.05-2.32,2.47-.52,4.41.38,5.12.73,3.07,1.48,4.22,4.33,4.49,5.05.22.56,1.01,2.74.09,5.24-.66,1.81-1.88,2.85-2.43,3.27-.54-1.43-1.08-2.85-1.61-4.28-.66.12-2.25.41-2.25.41l-2.02-4.52-2.67-1.18-3.37,2.12-.98.4c-.15.07-1.75.75-3.01-.07-1.31-.85-1.78-3-.65-4.87Z"/><path class="cls-16" d="M159,139.29c.76.93,1.21,1.4,1.91.62.37-.42.86-.93.21-2.4-.48-1.11-1.7-1.53-2.51-.87-.82.66-.37,1.72.39,2.65Z"/></g><polygon class="cls-9" points="173.61 149.01 188.27 162.47 196.58 180.03 191.03 181.71 183.5 167.36 173.46 159.19 171.36 154.57 171.4 151.59 173.61 149.01"/><path class="cls-12" d="M207.89,203.21s-20.34,5.89-20.77,5.86c-.43-.03-5.2-3.35-5.2-3.35l-.4-16.97s21.13-4.01,21.49-3.75c.36.26,5.43,2.62,5.44,2.74.06.5-.57,15.48-.57,15.48Z"/><path class="cls-2" d="M181.92,205.72l-.4-16.97s.3-.06.82-.15c1.35.95,3.67,2.63,3.62,2.7-.07.08.93,15.4,1.08,17.75-.75-.29-5.12-3.33-5.12-3.33Z"/><path class="cls-24" d="M200.06,199.82l-14.29-7.72-4.3-3.51c.73-.14,21.01-3.51,21.37-3.26.33.23,4.63,1.83,5.39,2.48l-8.16,12.01Z"/><polygon class="cls-24" points="201.26 196.75 201.71 197.3 201.37 200.12 197.18 201 196.58 200.41 196.23 197.49 201.26 196.75"/><path class="cls-15" d="M200.18,199.33l-14.83-7.59-3.86-3.15c.73-.14,21.11-4,21.47-3.75.33.23,4.35,2.14,5.12,2.79l-7.89,11.69Z"/><path class="cls-17" d="M208.46,187.8c-1.56.31-22.62,4.33-22.62,4.33l-3.88-3.12-.49-.42s21.13-4.01,21.49-3.75c.11.08.68.31,1.41.61l4.1,2.28s0,.04,0,.07Z"/><polygon class="cls-10" points="201.81 196.9 202.26 197.46 201.92 200.27 197.72 201.16 197.12 200.56 196.77 197.64 201.81 196.9"/><path class="cls-4" d="M197.91,198.33s2.95-.63,4.12-.78l-.11,2.73-4.2.89h-.01s.2-2.84.2-2.84Z"/><path class="cls-11" d="M198.02,185.74l.38-.17s.28.11.44.31.16,2.22.16,2.22l-.98-.73-.19-1.76.19.13Z"/><path class="cls-4" d="M198.4,183.91c1.04.1,1.3,1.67,1.3,1.67l.13,2.21-.82.31s0-2.02-.16-2.22-.44-.31-.44-.31l-.38.17-.19-.13-3.29-1.37s3.39-.37,3.85-.32Z"/><path class="cls-11" d="M196.22,184.94l-.12-.05,1-.9c.61-.05,1.13-.09,1.29-.07.33.03.58.21.77.44-.56.08-2.31.45-2.94.58Z"/><path class="cls-11" d="M193.52,185.24l.17,1.36s-.95.16-1.25.23c-.29.07-.36,1.58-.26,2.16.09.58-1.26.4-1.26.4l-.76-1.15s-.21-2.54.05-2.97c.25-.43,2.3-.72,2.3-.72l.69.37.33.32Z"/><path class="cls-4" d="M191.34,185.82c.21-.4,1.4-.5,2.19-.51l.16,1.29s-.95.16-1.25.23c-.29.07-.36,1.58-.26,2.16.09.53-1.05.43-1.24.4.03-.67.14-3.07.4-3.58Z"/><polygon class="cls-16" points="193.33 180.87 192.63 181.62 191.86 184.22 193.05 186.8 196.96 184.99 196.21 181.55 195.28 180.19 193.33 180.87"/><polygon class="cls-23" points="159.51 151.22 161.13 152.57 160.44 154.24 157.77 154.29 157.16 152.63 158.77 151.23 159.51 151.22"/><polygon class="cls-23" points="160.3 154.69 157.75 154.74 156.7 178.42 159.65 183.2 163.13 178.78 160.3 154.69"/><path class="cls-18" d="M450,294.35v76.29c-68.15-2.13-136.3-4.27-204.45-6.42-23.01,2.41-46.02,4.81-69.03,7.21,3.07-1.09,6.15-2.18,9.22-3.27,7.01-4.26,14.02-8.51,21.02-12.77,5.17-6.32,10.33-12.63,15.49-18.95,7.1-2.69,14.19-5.39,21.29-8.09l56.85-13.62h53.03l68.7-12.77,27.88-7.61Z"/><path class="cls-5" d="M147.38,55.16h-17.52v-2.11l13.73-18.89h-13.11v-2.44h16.64v2.27l-13.61,18.73h13.86v2.44Z"/><path class="cls-5" d="M173.57,55.16h-2.56v-8.72c0-1.48-.42-2.66-1.27-3.55-.84-.89-1.96-1.33-3.36-1.33s-2.62.48-3.52,1.43c-.9.95-1.35,2.21-1.35,3.76v8.41h-2.56v-15.62h2.23l.09,2.53c.57-.92,1.33-1.62,2.27-2.11.94-.49,2.04-.73,3.31-.73,2.07,0,3.71.62,4.91,1.88s1.8,2.96,1.8,5.14v8.92Z"/><path class="cls-5" d="M190.71,55.16h-2.2l-.17-2.06c-.57.74-1.3,1.32-2.19,1.74-.89.42-1.88.63-2.97.63s-2.13-.22-3.02-.66c-.89-.44-1.58-1.05-2.09-1.82-.51-.77-.76-1.65-.76-2.62,0-1.03.27-1.94.82-2.73.55-.79,1.29-1.4,2.23-1.85.94-.45,2.01-.67,3.21-.67.78,0,1.58.1,2.39.29.81.19,1.54.46,2.17.79v-.66c0-.83-.21-1.54-.62-2.13-.42-.59-.97-1.04-1.67-1.36-.7-.32-1.47-.48-2.31-.48-.73,0-1.47.13-2.23.4-.76.27-1.49.67-2.19,1.23l-.84-2.2c.91-.58,1.86-1.02,2.86-1.32s1.99-.45,2.97-.45c1.35,0,2.52.27,3.51.82s1.75,1.32,2.29,2.33c.54,1,.81,2.2.81,3.57v9.22ZM183.63,53.13c.8,0,1.54-.17,2.2-.5.67-.33,1.21-.82,1.62-1.45.42-.63.65-1.38.69-2.24v-.27c-.57-.45-1.22-.79-1.93-1.04-.71-.25-1.44-.37-2.18-.37-1.16,0-2.12.28-2.9.84-.78.56-1.16,1.28-1.16,2.14,0,.54.16,1.03.48,1.47.32.44.75.78,1.3,1.03.55.25,1.18.38,1.88.38Z"/><path class="cls-5" d="M219.98,55.16h-2.56v-8.33c0-1.68-.37-2.98-1.1-3.91-.73-.93-1.77-1.4-3.1-1.4s-2.4.47-3.16,1.41c-.77.94-1.15,2.24-1.15,3.9v8.33h-2.56v-8.33c0-1.68-.37-2.98-1.11-3.91-.74-.93-1.78-1.4-3.11-1.4s-2.4.47-3.16,1.41c-.77.94-1.15,2.24-1.15,3.9v8.33h-2.56v-15.62h2.09l.11,2.8c.52-1.02,1.23-1.79,2.13-2.32.9-.53,1.97-.79,3.2-.79,1.31,0,2.43.29,3.37.88.93.59,1.63,1.43,2.09,2.52.51-1.12,1.24-1.96,2.18-2.54.94-.58,2.07-.87,3.38-.87,1.95,0,3.47.62,4.55,1.85,1.09,1.23,1.63,2.96,1.63,5.16v8.92Z"/><path class="cls-5" d="M225.85,34.6c-.44,0-.8-.15-1.1-.46-.3-.31-.45-.68-.45-1.12s.15-.79.45-1.09c.3-.3.66-.45,1.1-.45s.82.15,1.12.45c.3.3.45.67.45,1.09s-.15.81-.45,1.12c-.3.31-.68.46-1.12.46ZM227.13,55.16h-2.56v-15.62h2.56v15.62Z"/><path class="cls-5" d="M235.68,63.08v-2.05c.17.03.33.05.48.06.15,0,.3.02.45.02,1.08,0,1.96-.39,2.62-1.16.67-.77,1-1.81,1-3.11v-17.31h2.58v17.41c0,2.02-.47,3.58-1.4,4.69-.93,1.1-2.24,1.66-3.91,1.66-.28,0-.57-.02-.88-.05-.3-.04-.61-.09-.94-.15ZM241.51,34.6c-.44,0-.8-.15-1.1-.45-.3-.3-.45-.67-.45-1.11s.15-.81.45-1.11c.3-.3.66-.45,1.1-.45s.81.15,1.11.45c.3.3.45.67.45,1.11s-.15.81-.45,1.11c-.3.3-.67.45-1.11.45Z"/><path class="cls-5" d="M261.34,53.24c-1.94,1.49-4.07,2.23-6.41,2.23-1.62,0-3.08-.37-4.38-1.09-1.29-.73-2.31-1.72-3.05-2.98-.75-1.26-1.12-2.67-1.12-4.26s.34-2.88,1.03-4.07c.69-1.19,1.63-2.13,2.83-2.82,1.2-.69,2.56-1.03,4.08-1.03s2.94.38,4.13,1.12c1.19.75,2.12,1.79,2.79,3.12s1,2.88,1,4.62v.5h-13.08c.19.92.56,1.71,1.13,2.39.57.68,1.27,1.2,2.12,1.58s1.79.56,2.83.56c1.79,0,3.43-.59,4.91-1.77l1.19,1.88ZM249.07,46.41h10.75c-.11-.97-.41-1.82-.9-2.54-.48-.72-1.11-1.29-1.88-1.7s-1.63-.61-2.59-.61-1.84.2-2.62.61c-.78.41-1.41.97-1.89,1.7-.48.72-.78,1.57-.88,2.54Z"/><path class="cls-5" d="M264.74,53.8l.67-2.41c.38.35.8.66,1.28.92.48.26.98.46,1.52.6s1.07.21,1.61.21c.97,0,1.75-.21,2.34-.64.59-.43.89-.98.89-1.67,0-.5-.15-.91-.46-1.24-.31-.33-.71-.61-1.21-.85-.5-.24-1.04-.47-1.61-.69-.7-.27-1.39-.58-2.08-.92s-1.26-.8-1.71-1.36-.68-1.3-.68-2.22.22-1.64.66-2.28c.44-.65,1.05-1.15,1.84-1.5.79-.35,1.69-.53,2.71-.53,1.54,0,3.06.38,4.55,1.16l-.77,2.31c-.33-.22-.72-.41-1.16-.59s-.89-.3-1.34-.4c-.46-.09-.89-.14-1.3-.14-.76,0-1.38.17-1.84.52-.47.35-.7.81-.7,1.4,0,.33.1.64.29.91.19.28.52.55.98.82.46.27,1.09.57,1.91.91.72.29,1.43.62,2.12.99.7.37,1.28.84,1.74,1.42.46.58.7,1.33.7,2.26s-.24,1.73-.73,2.43-1.16,1.25-2.02,1.65c-.86.4-1.85.59-2.98.59-1.86,0-3.6-.56-5.22-1.67Z"/><path class="cls-5" d="M288.34,54.79c-1.03.46-2.04.69-3.02.69s-1.76-.21-2.47-.62c-.71-.41-1.26-.99-1.66-1.73-.4-.75-.59-1.61-.59-2.6v-8.69h-2.73v-2.3h2.86v-3.91h2.44v3.91h4.67v2.3h-4.67v8.22c0,.94.25,1.69.76,2.27.5.57,1.17.86,1.99.86.67,0,1.33-.2,2-.59l.42,2.2Z"/><path class="cls-5" d="M305.48,53.24c-1.94,1.49-4.07,2.23-6.41,2.23-1.62,0-3.08-.37-4.38-1.09-1.29-.73-2.31-1.72-3.05-2.98-.75-1.26-1.12-2.67-1.12-4.26s.34-2.88,1.03-4.07c.69-1.19,1.63-2.13,2.83-2.82,1.2-.69,2.56-1.03,4.08-1.03s2.94.38,4.13,1.12c1.19.75,2.12,1.79,2.79,3.12s1,2.88,1,4.62v.5h-13.08c.19.92.56,1.71,1.13,2.39.57.68,1.27,1.2,2.12,1.58s1.79.56,2.83.56c1.79,0,3.43-.59,4.91-1.77l1.19,1.88ZM293.21,46.41h10.75c-.11-.97-.41-1.82-.9-2.54-.48-.72-1.11-1.29-1.88-1.7s-1.63-.61-2.59-.61-1.84.2-2.62.61c-.78.41-1.41.97-1.89,1.7-.48.72-.78,1.57-.88,2.54Z"/><path class="cls-5" d="M309.2,53.8l.67-2.41c.38.35.8.66,1.28.92.48.26.98.46,1.52.6s1.07.21,1.61.21c.97,0,1.75-.21,2.34-.64.59-.43.89-.98.89-1.67,0-.5-.15-.91-.46-1.24-.31-.33-.71-.61-1.21-.85-.5-.24-1.04-.47-1.61-.69-.7-.27-1.39-.58-2.08-.92s-1.26-.8-1.71-1.36-.68-1.3-.68-2.22.22-1.64.66-2.28c.44-.65,1.05-1.15,1.84-1.5.79-.35,1.69-.53,2.71-.53,1.54,0,3.06.38,4.55,1.16l-.77,2.31c-.33-.22-.72-.41-1.16-.59s-.89-.3-1.34-.4c-.46-.09-.89-.14-1.3-.14-.76,0-1.38.17-1.84.52-.47.35-.7.81-.7,1.4,0,.33.1.64.29.91.19.28.52.55.98.82.46.27,1.09.57,1.91.91.72.29,1.43.62,2.12.99.7.37,1.28.84,1.74,1.42.46.58.7,1.33.7,2.26s-.24,1.73-.73,2.43-1.16,1.25-2.02,1.65c-.86.4-1.85.59-2.98.59-1.86,0-3.6-.56-5.22-1.67ZM315.49,36.94h-1.86l2.44-5.22h2.45l-3.03,5.22Z"/><path class="cls-18" d="M92.52,90.43l2.89-13.67-3.37-.2.14-.99,5.78-1.73.44.34-.71,3.5c2.24-2.14,5.03-3.84,7.11-3.84,1.43,0,2.18.78,2.18,2.35,0,1.09-.31,2.21-.58,3.33l-1.53,6.32c-.24.95-.41,1.63-.41,1.97,0,.48.24.71.65.71.85,0,2.14-.92,3.37-2.45l.82.65c-1.33,2-3.54,4.15-5.88,4.15-1.05,0-1.7-.58-1.7-1.46,0-.78.2-1.36.54-2.75l1.46-6.02c.27-1.16.54-2.28.54-2.96,0-1.19-.44-1.56-1.19-1.56-1.22,0-3.16.99-5.64,3.03l-.92,4.15c-.51,2.38-.92,4.73-1.36,7.14l-2.28.27-.34-.27Z"/><path class="cls-18" d="M119.65,88.91c0-.65.03-1.19.14-1.8-1.97,2.24-4.11,3.77-5.95,3.77-1.63,0-3.23-1.19-3.23-4.01,0-5.92,6.12-13.02,10.5-13.02.78,0,1.39.34,1.94.92l1.56-1.26.61.31-2.72,12.04c-.2.85-.31,1.56-.31,1.94,0,.48.37.75.82.75.85,0,2.14-.99,3.33-2.45l.82.65c-1.33,1.97-3.47,4.15-5.75,4.15-.92,0-1.77-.61-1.77-1.97ZM115.3,88.53c1.19,0,2.62-.82,4.86-3.26l1.84-8.53c-.65-.37-1.36-.65-2.07-.65-1.09,0-2.52.71-3.74,1.97-1.63,1.7-2.92,4.42-2.92,7.41,0,2.07.82,3.06,2.04,3.06Z"/><path class="cls-18" d="M139.95,77.69c-.17-1.33-.48-1.5-.95-1.5-.65,0-1.22.61-2.31,2.24l-.78-.54c1.19-2.65,2.65-4.05,4.18-4.05,1.43,0,2.01.65,2.28,2.28.48,2.82.61,7.28.61,11.05,2.52-3.64,4.83-7.92,6.97-12.92h1.36c.2,4.62.37,9.25.51,13.22,2.28-2.86,3.84-5.17,5.54-8.33.07-.14.14-.24.2-.38l-.27-1.12c-.1-.41-.17-1.09-.17-1.39,0-1.7.99-2.41,2.04-2.41.54,0,.92.2,1.12.44.14.2.2.48.2,1.02,0,.71-.2,1.63-1.73,4.55-1.6,3.09-4.45,7.07-7.96,10.71l-.99.1-.24-.17c-.2-3.6-.37-7.21-.54-10.78-1.73,3.3-4.35,7.75-7.04,10.84l-1.02.1-.24-.17c-.03-5.47-.31-9.38-.78-12.82Z"/><path class="cls-18" d="M156.78,96.62c.17-.99.88-1.53,1.84-1.53s1.77.48,2.75,1.19l.14.1c1.05-.71,2.07-1.56,3.03-2.52.65-.65,1.22-1.33,1.8-2.04-.27-3.98-.68-6.29-1.26-10.84-.54-4.32-.71-4.79-1.33-4.79-.58,0-1.05.41-2.28,2.24l-.78-.54c1.36-2.89,2.89-4.05,4.32-4.05,1.29,0,2.01.71,2.41,4.52.41,3.94.65,7.45.78,10.61,2.38-4.32,3.54-6.83,4.66-10.71,1.12-3.91,1.63-4.62,2.58-4.62.78,0,1.26.48,1.26,1.16,0,.88-.17,1.39-.85,2.75-.71,1.46-1.43,2.89-2.72,5.2-1.26,2.24-2.69,4.86-4.56,7.68-.88,1.33-1.8,2.75-3.23,4.28-2.21,2.41-4.18,3.88-6.15,3.88-1.5,0-2.31-.82-2.41-1.97Z"/><path class="cls-18" d="M178.85,75.71l2.35-1.87c2.82.75,5.27,1.5,8.06,2.69l1.16-2.24,1.87-.41.41.34c-.34.85-1.5,2.38-3.23,4.18-2.86,2.92-5.88,5.37-8.7,8.02,2.62,1.97,4.42,2.45,5.81,2.45.95,0,1.77-.27,2.52-.75-.71-.85-1.02-1.36-1.02-2.01,0-1.09.75-1.73,1.7-1.84.71.27,1.12,1.19,1.12,2.01,0,2.48-2.82,4.93-5.44,4.93-1.97,0-3.6-.78-5.88-3.6l-1.36,2.82-1.94.2-.27-.2c.68-1.19,1.36-2.24,2.79-3.64,2.92-2.86,6.12-5.51,9.11-8.57-2.35-.75-4.28-1.26-7-1.87l-1.43,4.62-1.39-.21.78-5.06ZM185.99,67.32c0-1.12.92-2.07,1.9-2.07s1.73.71,1.73,1.8-.88,2.11-1.87,2.11-1.77-.71-1.77-1.83Z"/><path class="cls-18" d="M192.68,87.51c.17-.58.71-.95,1.26-.95.99,0,1.39.54,1.63,1.5l.37,1.46c.14.03.31.03.48.03,2.35,0,3.74-1.12,3.74-2.89,0-1.09-.27-1.97-2.21-3.37-1.7-1.29-2.99-2.55-2.99-4.69,0-2.65,2.14-4.76,5.41-4.76,2,0,3.54.78,4.04,2.99-.2.65-.68.95-1.29.95-.78,0-1.39-.58-1.73-1.6l-.31-.99c-.14-.03-.31-.03-.48-.03-2.35,0-3.23,1.26-3.23,2.79,0,1.43.58,2.14,2.52,3.57,2.04,1.53,2.75,2.55,2.75,4.52,0,2.82-2.31,4.83-5.75,4.83-2.65,0-3.98-1.33-4.22-3.37Z"/><path class="cls-18" d="M206.79,75.71l2.35-1.87c2.82.75,5.27,1.5,8.06,2.69l1.16-2.24,1.87-.41.41.34c-.34.85-1.5,2.38-3.23,4.18-2.86,2.92-5.88,5.37-8.7,8.02,2.62,1.97,4.42,2.45,5.81,2.45.95,0,1.77-.27,2.52-.75-.71-.85-1.02-1.36-1.02-2.01,0-1.09.75-1.73,1.7-1.84.71.27,1.12,1.19,1.12,2.01,0,2.48-2.82,4.93-5.44,4.93-1.97,0-3.6-.78-5.88-3.6l-1.36,2.82-1.94.2-.27-.2c.68-1.19,1.36-2.24,2.79-3.64,2.92-2.86,6.12-5.51,9.11-8.57-2.35-.75-4.28-1.26-7-1.87l-1.43,4.62-1.39-.21.78-5.06Z"/><path class="cls-18" d="M221.24,84.55c0-5.47,4.11-10.71,8.87-10.71,2.18,0,3.4,1.12,3.4,3.13,0,2.18-2.14,5.27-9.89,7.51.14,2.89,1.43,4.05,3.5,4.05s3.67-1.33,4.59-2.48l.78.61c-1.43,2.31-3.64,4.22-6.15,4.22-2.96,0-5.1-1.97-5.1-6.32ZM223.62,83.16c5.64-1.63,7.62-4.01,7.62-5.85,0-1.26-.75-2.01-1.87-2.01-2.11,0-5.41,3.6-5.75,7.85Z"/><path class="cls-18" d="M230.86,97.91c1.22-.51,2.07-.99,2.75-1.84,1.16-1.46,2.04-3.16,2.79-7.28l2.31-12.04-3.33-.2.1-.99,5.75-1.73.44.34-2.99,15.47c-.65,3.16-1.97,5.75-4.11,7.55-1.09.92-2.24,1.46-3.43,1.67l-.27-.95ZM239.87,67.32c0-1.12.88-2.07,1.87-2.07,1.05,0,1.77.71,1.77,1.8s-.92,2.11-1.9,2.11-1.73-.71-1.73-1.83Z"/><path class="cls-18" d="M254.73,90.37c-.61,2.92-.99,4.86-1.26,6.56l3.13.51-.27,1.16h-8.6l.24-1.16,2.92-.48,4.28-20.19-3.37-.2.14-.99,5.78-1.73.44.34-.82,3.81c2.07-2.58,4.79-4.15,6.73-4.15,1.67,0,3.09,1.12,3.09,4.18,0,5.75-5.61,12.85-10.5,12.85-.75,0-1.36-.17-1.94-.51ZM256.98,79.66l-1.67,7.96c.92.68,1.8.95,2.58.95,1.7,0,3.26-1.05,4.45-2.58,1.36-1.8,2.21-4.25,2.21-6.6,0-2.21-.78-3.26-2.07-3.26-1.39,0-3.33,1.26-5.51,3.54Z"/><path class="cls-18" d="M269.28,84.89c0-6.12,4.05-11.05,8.87-11.05,3.2,0,5.51,2.11,5.51,5.95,0,5.92-3.94,11.08-8.74,11.08-3.13,0-5.64-2.11-5.64-5.98ZM280.91,80.3c0-3.67-1.29-5.1-3.13-5.1-3.23,0-5.75,4.22-5.75,9.28,0,3.57,1.39,5.03,3.3,5.03,3.33,0,5.58-4.66,5.58-9.21Z"/><path class="cls-18" d="M287.13,75.71l2.35-1.87c2.82.75,5.27,1.5,8.06,2.69l1.16-2.24,1.87-.41.41.34c-.34.85-1.5,2.38-3.23,4.18-2.86,2.92-5.88,5.37-8.7,8.02,2.62,1.97,4.42,2.45,5.81,2.45.95,0,1.77-.27,2.52-.75-.71-.85-1.02-1.36-1.02-2.01,0-1.09.75-1.73,1.7-1.84.71.27,1.12,1.19,1.12,2.01,0,2.48-2.82,4.93-5.44,4.93-1.97,0-3.6-.78-5.88-3.6l-1.36,2.82-1.94.2-.27-.2c.68-1.19,1.36-2.24,2.79-3.64,2.92-2.86,6.12-5.51,9.11-8.57-2.35-.75-4.28-1.26-7-1.87l-1.43,4.62-1.39-.21.78-5.06Z"/><path class="cls-18" d="M296.96,96.62c.17-.99.88-1.53,1.84-1.53s1.77.48,2.75,1.19l.14.1c1.05-.71,2.07-1.56,3.03-2.52.65-.65,1.22-1.33,1.8-2.04-.27-3.98-.68-6.29-1.26-10.84-.54-4.32-.71-4.79-1.33-4.79-.58,0-1.05.41-2.28,2.24l-.78-.54c1.36-2.89,2.89-4.05,4.32-4.05,1.29,0,2.01.71,2.41,4.52.41,3.94.65,7.45.78,10.61,2.38-4.32,3.54-6.83,4.66-10.71,1.12-3.91,1.63-4.62,2.58-4.62.78,0,1.26.48,1.26,1.16,0,.88-.17,1.39-.85,2.75-.71,1.46-1.43,2.89-2.72,5.2-1.26,2.24-2.69,4.86-4.56,7.68-.88,1.33-1.8,2.75-3.23,4.28-2.21,2.41-4.18,3.88-6.15,3.88-1.5,0-2.31-.82-2.41-1.97Z"/><path class="cls-18" d="M317.77,84.52c0-5.75,4.45-10.67,8.74-10.67,2.07,0,3.3,1.02,3.67,2.48-.14.85-.82,1.19-1.43,1.19-.75,0-1.39-.54-2-1.22l-1.02-1.16c-2.92,1.02-5.41,4.83-5.41,9.01,0,2.96,1.53,4.39,3.77,4.39,1.8,0,3.2-1.33,4.15-2.48l.78.61c-1.36,2.38-3.84,4.22-6.19,4.22-2.96,0-5.07-2.11-5.07-6.36Z"/><path class="cls-18" d="M327.39,97.91c1.22-.51,2.07-.99,2.75-1.84,1.16-1.46,2.04-3.16,2.79-7.28l2.31-12.04-3.33-.2.1-.99,5.75-1.73.44.34-2.99,15.47c-.65,3.16-1.97,5.75-4.11,7.55-1.09.92-2.24,1.46-3.43,1.67l-.27-.95ZM336.4,67.32c0-1.12.88-2.07,1.87-2.07,1.05,0,1.77.71,1.77,1.8s-.92,2.11-1.9,2.11-1.73-.71-1.73-1.83Z"/><path class="cls-18" d="M341.67,86.66l2.07-9.89-3.37-.2.14-.99,5.78-1.73.44.34-2.41,11.66c-.17.85-.31,1.56-.31,1.94,0,.48.37.75.75.75.82,0,1.9-.82,3.26-2.45l.85.65c-1.53,2.04-3.3,4.15-5.71,4.15-.95,0-1.84-.58-1.84-1.73,0-.51.07-1.09.34-2.48ZM344.9,67.32c0-1.12.88-2.07,1.87-2.07,1.05,0,1.77.71,1.77,1.8s-.92,2.11-1.9,2.11-1.73-.71-1.73-1.83Z"/><path class="cls-18" d="M350.78,88.84c0-1.36,1.12-2.35,2.41-2.35,1.19,0,1.97.88,1.97,1.94,0,1.36-1.09,2.35-2.38,2.35-1.16,0-2.01-.82-2.01-1.94Z"/></g></svg>