<?xml version="1.0" encoding="UTF-8"?><svg id="Layer_2" xmlns="http://www.w3.org/2000/svg" xmlns:xlink="http://www.w3.org/1999/xlink" viewBox="0 0 450 371.78"><defs><style>.cls-1{opacity:.85;}.cls-2{fill:#282644;}.cls-2,.cls-3,.cls-4,.cls-5,.cls-6,.cls-7,.cls-8,.cls-9,.cls-10,.cls-11,.cls-12,.cls-13,.cls-14,.cls-15,.cls-16,.cls-17{stroke-width:0px;}.cls-3{fill:#c29c7a;}.cls-4{fill:#ce6b28;}.cls-6{fill:#211010;}.cls-7{fill:#052d07;}.cls-8{fill:#fff;}.cls-9{fill:#01240b;}.cls-18{opacity:.26;}.cls-10{fill:#a13941;}.cls-11{fill:#e5a87a;}.cls-12{fill:#dfbb9b;}.cls-13{fill:#e8e8e8;}.cls-14{fill:url(#linear-gradient);opacity:.36;}.cls-15{fill:#3c3b50;}.cls-16{fill:#f4bc8e;}.cls-17{fill:#d7af80;}</style><linearGradient id="linear-gradient" x1="-27.24" y1="171.96" x2="482.08" y2="188.19" gradientUnits="userSpaceOnUse"><stop offset=".04" stop-color="#ffdfc0"/><stop offset=".28" stop-color="#f8d6b5"/><stop offset=".7" stop-color="#e6c198"/><stop offset="1" stop-color="#d7af80"/></linearGradient></defs><g id="Layer_1-2"><rect class="cls-14" width="450" height="360"/><g class="cls-18"><path class="cls-12" d="M404.28,311.17l-120.1,3.82s-6.95-9.04.3-13.9c0,0-1.08-22.28,13.19-27.36,14.26-5.09,21.49,12.79,21.49,12.79,0,0,12.43-4.61,16.9,7.88,0,0,16.68-10.63,23.19-3.69,0,0,6.39-19.99,19.87-14.95,13.48,5.04,13.89,18.08,13.89,18.08,0,0,15.68,4.55,11.28,17.32Z"/><path class="cls-3" d="M377.26,305.09c.09,0,.17-.07.19-.17.41-2.19.97-4.37,1.65-6.47.22-.68.45-1.34.83-1.9.57-.85,1.4-1.36,2.29-1.91.3-.18.6-.38.89-.58,2.15-1.49,3.8-3.91,4.52-6.62.03-.12-.03-.24-.13-.28-.1-.04-.22.03-.25.15-.7,2.61-2.29,4.93-4.35,6.37-.28.2-.59.39-.88.57-.88.55-1.79,1.11-2.41,2.03-.41.61-.66,1.33-.89,2.02-.69,2.12-1.25,4.32-1.67,6.53-.02.12.05.24.15.26.02,0,.03,0,.05,0Z"/><path class="cls-3" d="M384.56,309.99s.05,0,.08-.02c1.1-.57,2.24-1.15,3.31-1.85,2.74-1.8,5.26-4.5,7.7-8.24.06-.1.04-.24-.04-.31-.09-.07-.21-.05-.28.05-2.41,3.7-4.89,6.35-7.58,8.12-1.05.69-2.18,1.27-3.27,1.83-.1.05-.14.18-.1.29.03.08.11.13.19.13Z"/><path class="cls-3" d="M379.68,296.35c.08,0,.16-.06.18-.15.32-1.16-.37-2.32-.88-3.16-1.65-2.74-2.99-5.71-4-8.81-.04-.12-.15-.18-.25-.13-.1.04-.16.17-.12.28,1.02,3.14,2.38,6.13,4.04,8.9.58.96,1.07,1.89.83,2.78-.03.12.03.24.13.28.02,0,.04.01.07.01Z"/><path class="cls-3" d="M317.17,309.97c.1,0,.19-.1.19-.22.06-3.37,1.45-6.52,2.79-9.57,1.39-3.17,2.84-6.45,2.82-10.01,0-.12-.09-.22-.2-.22-.11,0-.2.1-.2.22.01,3.46-1.41,6.69-2.78,9.81-1.36,3.09-2.77,6.29-2.83,9.76,0,.12.08.22.19.23,0,0,0,0,.01,0Z"/><path class="cls-3" d="M311.94,314.15s.03,0,.04,0c.11-.03.17-.15.15-.27-2.03-9.5-4.84-18.85-8.37-27.79-.04-.11-.16-.16-.26-.12-.1.05-.15.18-.1.29,3.52,8.92,6.32,18.24,8.34,27.71.02.1.11.17.2.17Z"/><path class="cls-3" d="M319.74,300.64s.02,0,.04,0c3.56-.87,6.92-2.71,9.71-5.32.08-.08.09-.22.02-.31-.07-.09-.2-.11-.28-.03-2.74,2.56-6.04,4.37-9.54,5.23-.11.03-.17.14-.15.26.02.11.11.18.2.17Z"/><path class="cls-3" d="M295.74,313.85s.04,0,.06-.01c.1-.04.16-.17.12-.28-.33-1.02-.57-2.1-.81-3.13-.24-1.05-.49-2.13-.82-3.17-.71-2.23-1.83-4.35-3.25-6.11-.07-.09-.2-.1-.28-.02-.08.08-.09.22-.01.31,1.38,1.72,2.48,3.78,3.17,5.96.32,1.02.57,2.09.81,3.13.24,1.05.49,2.13.82,3.17.03.09.11.15.19.15Z"/><path class="cls-3" d="M306.51,293.88s.02,0,.03,0c.11-.02.18-.14.15-.26-.06-.33-.35-.52-.5-.62-3.94-2.6-8.08-4.91-12.31-6.85-.1-.05-.22,0-.26.12-.04.11,0,.24.11.29,4.21,1.93,8.34,4.22,12.26,6.82.14.09.29.2.31.33.02.11.11.18.2.18Z"/><path class="cls-3" d="M308.92,301.32s.1-.02.14-.07c.68-.79,1.06-1.84,1.39-2.77,1.01-2.79,2.15-5.96,2.19-9.22,0-.12-.09-.22-.2-.23-.11,0-.2.09-.2.22-.04,3.18-1.16,6.3-2.16,9.06-.32.89-.68,1.9-1.31,2.63-.08.09-.07.23,0,.31.04.04.09.06.14.06Z"/><path class="cls-3" d="M293.99,306.5c.08,0,.15-.06.18-.15,1.14-3.68,2-7.5,2.56-11.35.02-.12-.06-.24-.16-.26-.11-.02-.21.06-.23.18-.56,3.82-1.41,7.62-2.54,11.27-.04.12.02.24.12.28.02,0,.05.01.07.01Z"/><path class="cls-3" d="M353.56,311.8s.05,0,.08-.02c.1-.05.14-.18.1-.29-.46-1.09-.52-2.35-.59-3.56-.01-.26-.03-.53-.05-.79-.28-4.17-1.66-8.34-3.87-11.73-.06-.1-.19-.12-.28-.05-.09.07-.11.21-.04.31,2.17,3.32,3.52,7.4,3.8,11.5.02.26.03.52.04.78.07,1.26.13,2.56.62,3.73.03.08.11.13.19.13Z"/><path class="cls-3" d="M391.1,305.92c.11,0,.19-.1.19-.22.02-2.65-.35-5.28-1.09-7.8-.03-.12-.15-.18-.25-.14-.1.04-.16.16-.13.28.73,2.48,1.09,5.05,1.07,7.66,0,.12.09.22.2.23,0,0,0,0,0,0Z"/><path class="cls-3" d="M376.95,289.09c.08,0,.16-.06.18-.15.77-2.68,1.2-5.47,1.27-8.29,0-.12-.08-.23-.19-.23-.11,0-.2.09-.2.21-.07,2.78-.49,5.53-1.25,8.17-.03.12.02.24.13.28.02,0,.05.01.07.01Z"/><path class="cls-3" d="M352.53,303.28s.1-.02.13-.06c1.76-1.92,2.66-4.81,2.35-7.55-.01-.12-.11-.21-.22-.19-.11.01-.19.12-.17.25.29,2.6-.57,5.36-2.24,7.18-.08.09-.08.23,0,.31.04.05.09.07.15.07Z"/></g><path class="cls-10" d="M133.12,360.02c-20.24,3.92-40.48,7.84-60.72,11.76-24.13-1.04-48.27-2.09-72.4-3.13v-65.79c.89.05,1.77.09,2.66.13l57.18,11.81,55.21,4.73c6.3,13.8,11.78,26.69,18.07,40.49Z"/><path class="cls-10" d="M450,307.37v60.47c-7.65-.1-15.31-.2-22.96-.3-78.48,1.41-156.96,2.83-235.45,4.24-12.86-3.63-25.72-7.26-38.59-10.89,4.44-5.48,9.13-11.06,14.09-16.72,4.64-5.29,9.24-10.34,13.77-15.15,15.76-6.05,31.53-12.11,47.29-18.16,73.95-1.17,147.9-2.32,221.85-3.49Z"/><path class="cls-8" d="M28.11,306.26c.01.13-.09.25-.22.25l-20.36.68c-.13,0-.24-.1-.24-.24v-.37s.02-.09.02-.09c.02-.51,1.09-1.15,1.7-1.47l-.08-2.49c-.02-.69.13-1.37.45-1.99,1.3-2.53,4.79-9.82,4.7-15.15-4.23-.07-6.32-.55-6.35-1.32-.02-.71,1.63-1.46,5.41-1.84-2.24-1.34-3.8-3.9-3.9-6.89-.15-4.49,3.07-7.46,7.16-7.59,4.09-.14,7.5,2.61,7.65,7.1.1,2.99-1.28,5.65-3.43,7.13,3.8.12,5.35.76,5.37,1.48.03.76-1.88,1.38-6.1,1.73.23,4.62,3.26,10.53,5.01,13.61.27.47.5.87.7,1.19.36.59.56,1.26.58,1.96l.08,2.49c.63.28,1.75.85,1.8,1.35l.05.46Z"/><path class="cls-13" d="M19.9,285.21s-1.74.16-2.9.29c-1.16.14,3.45,3.03,3.45,3.03,0,0-.38-2.16-.55-3.32Z"/><path class="cls-13" d="M27.89,306.52l-20.36.68c-.13,0-.24-.1-.24-.24v-.37s.02-.09.02-.09c.02-.51,1.09-1.15,1.71-1.47v-.03c5.83-1.3,13.3-4.88,15.89-6.17.27.47.5.87.7,1.19.36.59.56,1.26.58,1.96l.08,2.49s0,0,0,0c.63.28,1.74.84,1.79,1.35l.05.46c.01.13-.09.25-.22.26Z"/><path class="cls-13" d="M15.95,268.7c-.06-.2-.27-.3-.47-.25-1.57.42-3,1.19-4.07,2.43-.29.34-.56.7-.81,1.08-.11.17-.02.42.15.51.19.1.39.02.51-.15.37-.56.82-1.12,1.35-1.59.48-.43,1.13-.84,1.74-1.1.44-.19.9-.34,1.36-.46.2-.05.3-.28.25-.47Z"/><path class="cls-13" d="M10.73,272.94s-.06-.07-.11-.09c-.09-.04-.19-.06-.29-.03-.09.03-.17.09-.22.18-.09.18-.16.38-.2.58-.01.05-.01.1,0,.15,0,.05.02.1.05.14.02.04.06.08.1.1.04.03.08.05.13.06.1.02.2.01.29-.05.08-.05.15-.13.16-.23.02-.09.04-.19.07-.28.02-.04.04-.08.06-.13.04-.09.06-.19.03-.29-.01-.05-.04-.09-.07-.12Z"/><path class="cls-8" d="M27.89,306.52l-20.36.68c-.13,0-.24-.1-.24-.24v-.37s.02-.09.02-.09c.02-.51,1.09-1.15,1.71-1.47,3.72.51,17.25-.58,17.25-.58,0,0,0,0,0,0,.63.28,1.74.84,1.79,1.35l.05.46c.01.13-.09.25-.22.26Z"/><path class="cls-8" d="M65.76,314.97c-.01.16-.16.28-.32.26l-24.31-3.41c-.16-.02-.27-.17-.23-.33l.09-.43.02-.11c.13-.6,1.53-1.14,2.33-1.39l.42-2.97c.12-.83.44-1.6.94-2.27,2.07-2.74,7.72-10.66,8.72-17.01-5.01-.95-7.39-1.97-7.26-2.88.12-.85,2.23-1.4,6.8-1.06-2.38-2.05-3.7-5.42-3.2-8.99.75-5.36,5.19-8.22,10.07-7.53,4.88.69,8.36,4.65,7.61,10.01-.5,3.57-2.69,6.44-5.55,7.76,4.48.93,6.19,2.01,6.07,2.87-.13.91-2.52,1.25-7.6.79-.68,5.53,1.68,13.18,3.13,17.19.22.61.42,1.13.58,1.56.3.78.4,1.62.28,2.44l-.42,2.97c.69.47,1.9,1.37,1.86,1.98l-.04.56Z"/><path class="cls-13" d="M60.37,288.27s-2.1-.18-3.51-.26c-1.41-.08,3.47,4.32,3.47,4.32,0,0,0-2.64.04-4.06Z"/><path class="cls-13" d="M65.8,314.41l-.04.56c-.01.16-.16.28-.32.26l-24.31-3.41c-.16-.02-.27-.17-.23-.33l.09-.43.02-.11c.13-.6,1.53-1.14,2.33-1.39v-.04c7.19-.33,16.8-3.03,20.16-4.03.22.61.42,1.13.58,1.56.3.78.4,1.62.28,2.44l-.42,2.97c.69.47,1.9,1.37,1.85,1.98Z"/><path class="cls-13" d="M59.11,267.85c-.03-.25-.26-.41-.51-.39-1.95.17-3.81.79-5.34,2.04-.42.34-.81.72-1.18,1.11-.17.18-.1.49.07.63.21.16.47.1.63-.07.56-.59,1.2-1.15,1.93-1.6.65-.41,1.52-.76,2.29-.94.56-.13,1.13-.22,1.71-.27.24-.02.42-.27.39-.5Z"/><path class="cls-13" d="M52.03,271.8c-.02-.05-.06-.1-.11-.13-.1-.07-.22-.11-.34-.09-.11.02-.22.07-.3.17-.15.2-.27.42-.36.65-.03.06-.04.12-.03.18,0,.06,0,.12.03.17.02.06.05.1.1.14.04.05.08.08.14.1.11.04.24.05.35,0,.1-.05.2-.13.24-.24.04-.11.09-.21.14-.31.03-.05.06-.09.09-.14.07-.09.11-.22.09-.34,0-.06-.03-.11-.06-.16Z"/><path class="cls-8" d="M65.8,314.41l-.04.56c-.01.16-.16.28-.32.26l-24.31-3.41c-.16-.02-.27-.17-.23-.33l.09-.43.02-.11c.13-.6,1.53-1.14,2.33-1.39,0,0,17.53,2.86,20.6,2.89.69.47,1.9,1.37,1.85,1.98Z"/><path class="cls-8" d="M111.61,320.26c0,.2-.16.35-.35.34l-29.71-1.52c-.19,0-.34-.18-.32-.38l.06-.53.02-.14c.09-.74,1.73-1.53,2.66-1.93l.19-3.63c.05-1.01.36-1.98.9-2.84,2.21-3.53,8.19-13.7,8.71-21.46-6.15-.62-9.13-1.58-9.08-2.7.05-1.04,2.55-1.93,8.1-2.01-3.09-2.22-5.04-6.14-4.82-10.51.33-6.55,5.39-10.47,11.35-10.17,5.97.31,10.59,4.72,10.26,11.27-.22,4.36-2.56,8.06-5.87,9.96,5.51.64,7.69,1.77,7.63,2.81-.06,1.11-2.91,1.78-9.09,1.77-.23,6.75,3.44,15.73,5.61,20.42.33.71.62,1.32.87,1.82.45.91.65,1.91.6,2.92l-.19,3.63c.89.49,2.44,1.45,2.45,2.19v.68Z"/><path class="cls-13" d="M102.26,288.6s-2.56.01-4.26.07c-1.71.06,4.65,4.84,4.65,4.84,0,0-.28-3.19-.39-4.91Z"/><path class="cls-13" d="M111.6,319.58v.68c.01.2-.15.35-.34.34l-29.72-1.52c-.19,0-.34-.18-.32-.38l.06-.53.02-.14c.09-.74,1.73-1.53,2.66-1.93v-.05c8.64-1.17,19.96-5.46,23.9-7.02.33.71.62,1.32.87,1.82.45.91.65,1.91.6,2.92l-.18,3.63c.89.49,2.44,1.45,2.45,2.19Z"/><path class="cls-13" d="M98.55,264.09c-.07-.3-.36-.47-.65-.42-2.34.42-4.51,1.36-6.23,3.03-.47.46-.9.96-1.31,1.47-.18.23-.07.6.16.76.27.17.57.07.76-.16.61-.77,1.33-1.52,2.16-2.14.75-.56,1.75-1.08,2.67-1.38.66-.22,1.35-.39,2.03-.51.29-.05.48-.37.42-.65Z"/><path class="cls-13" d="M90.43,269.61c-.04-.06-.08-.11-.15-.15-.12-.07-.27-.11-.42-.08-.14.04-.26.11-.34.23-.16.25-.29.53-.36.82-.03.07-.03.14-.02.22,0,.07.02.14.05.21.03.07.08.12.13.16.05.05.11.09.18.11.14.04.29.04.42-.03.12-.07.23-.18.27-.31.03-.13.08-.27.14-.39.03-.06.06-.12.1-.18.08-.12.11-.28.08-.42-.01-.07-.04-.14-.09-.19Z"/><path class="cls-8" d="M111.6,319.58v.68c.01.2-.15.35-.34.34l-29.72-1.52c-.19,0-.34-.18-.32-.38l.06-.53.02-.14c.09-.74,1.73-1.53,2.66-1.93,0,0,21.47,1.58,25.18,1.29.89.49,2.44,1.45,2.45,2.19Z"/><path class="cls-16" d="M273.28,182.47c-.14.38-.42,1.29-.42,1.29l1.82-.45,3.05-2.45s.05-2.55.5-3.31c.45-.75,1.18-.75,1.18-.75,0,0-.35,3.56-.21,5.94.02.4-.36.82-.73,1.44.11.39.2.99-.37,1.47-.01.8-.54,1.08-1.37,1.74-.58.46-2.77,2.23-3.57,2.94-.84.74-1.85,1.86-3.36,3.23l-2.42-2.86c1.31-.95,2.97-2.63,3.12-2.77.29-.29-.14-1.75.28-2.82.42-1.06,2.09-4.93,2.08-5.4.33-.09.89-.06.97.88.04.44-.31,1.24-.55,1.86Z"/><g id="BM1"><path class="cls-6" d="M274.08,319.74c.53.36,0,0,0,0l4.77,3.73,7.02.48-.06,3.87-14.02,4.14-1.31-1.29s-.93-3.33-.69-3.52l-.6-6.67,4.89-.73Z"/><path class="cls-6" d="M184.57,319.99c-.63.14-4.1,3.55-4.1,3.55l-.93,2.46,6.86,4.5,5.05,3.06,1.72-3.16-5.17-7.1-3.44-3.31Z"/><path class="cls-9" d="M236.52,211.66l-9.05-2.07-3.92.1-5.22,1.34-4.81,3.4-.59,9.75-.31,3.8c-.67,9.05-1.62,14.84-2.42,18.56-1.25,5.84-1.88,8.76-1.9,8.84-1.14,3.58-2.1,5.13-1.36,6.39.6,1.02,2.39,1.99,8.03,1.13-2.95,11.19-5.9,22.37-8.84,33.56-7.8,7.89-15.6,15.78-23.4,23.67,2.54,2.72,5.08,5.44,7.62,8.16,8.29-8.78,16.58-17.55,24.86-26.33,4.28-8.49,8.56-16.97,12.83-25.46,8.16,4.7,16.33,9.4,24.49,14.1,5.21,11.34,10.43,22.68,15.64,34.02,4.13-.68,8.25-1.36,12.38-2.04-6.39-12.7-12.79-25.4-19.18-38.1-7.53-6.94-15.06-13.88-22.59-20.82,1.05-.3,1.85-.73,2.45-1.16,4.26-3.02,3.87-9.36,3.81-10.14-.95-8.98-1.9-17.96-2.86-26.94-.35-3.68-.7-7.36-1.05-11.04l-4.6-2.74Z"/><path class="cls-9" d="M228.89,211.64c3.89.87,7.78,1.74,11.67,2.61,4.33-3.08,8.66-6.16,12.98-9.23,4.73-6.02,9.47-12.04,14.2-18.05,1.62,2.03,3.25,4.06,4.87,6.09-4.73,6.49-9.47,12.98-14.2,19.47-6.02,5.21-12.04,10.41-18.05,15.62-3.82-5.5-7.64-11-11.47-16.5Z"/><polygon class="cls-8" points="269.59 186.62 268.22 187.61 272.07 192.53 273.13 191.32 269.59 186.62"/><path class="cls-9" d="M236.52,211.66l-9.05-2.07-3.92.1-5.22,1.34-6.94,2.88.02,8.65-.85,7.84,2.02,11.9-.92,9.73c.26,2.66.51,5.31.77,7.97,1.51.67,3.02,1.33,4.54,2,1.15,1.27,2.3,2.54,3.45,3.81.31-.94.62-1.89.93-2.83l14.26-.25c.22.66.44,1.31.66,1.97.34-.2.68-.41,1.02-.61.27-.57.54-1.13.82-1.7,1.35-5.03,2.7-10.05,4.05-15.08l.28-16.74-1.3-16.17-4.6-2.74Z"/><polygon class="cls-11" points="223.41 211.95 231.59 226.03 235.65 215 234.72 212.18 234.26 211.79 234.89 204.23 226.22 203.33 225.48 209.14 223.41 211.95"/><path class="cls-8" d="M232.29,215.82c-7.04.55-7.73-5.23-7.73-5.23l.61-1.04-4.5,2.73,1.71,13.6-1.06,37.1c6.12.56,12.3.36,15.66-.27l1.1-19.49.27-16.56.14-8.45-2.02-5.61-2.12-2.09-.11,1.28s1.39,3.77-1.97,4.03Z"/><path class="cls-16" d="M227.8,190.2s-5.45,2.78-6.97,3.84c-4.61,3.22-3.84,5.97-.2,11.06,2.23,3.12,6.97,2.41,6.97,2.41l1.8,1.51c1.26-.21,5.71.09,5.71.09l3.74-2.21-.79-5.05s-3.79-6.52-4-6.76c0,0-1.49-2.73-3.11-4.02-1.29-1.03-3.14-.87-3.14-.87Z"/><path class="cls-4" d="M228.14,187.01l-3.35,1.93s-4.15,2.36-5.15,3.06c-4.47,3.12-3.59,9.04.11,13.84l4.45,3.01,2.53.56-.77-4.13c.62-.6,2.08-2.05,2.08-2.05l-3.24-5.43.73-3.66,4.7-1.96,1.14-.73.25-1.53-1.04-1.76-.53.55-1.9-1.69Z"/><path class="cls-16" d="M228.04,202.83c.42,1.48.57,2.3-.76,2.45-.71.08-1.6.22-2.67-1.54-.8-1.32-.35-2.9.94-3.27,1.29-.37,2.07.88,2.49,2.36Z"/></g><path class="cls-16" d="M211.67,183.9s.27-2.98.54-3.39c.37-.56.82-.97,1.2-1.52.19-.28.28-.63.4-.95.13-.33.25-.65.38-.98.04-.11.08-.22.13-.32,0,0,.8-1.42,1.27-1.93s1.14-1.33.49-1.62c-.65-.29-1.55.55-2.04,1.23s-1.2,1.12-1.2.72c.01-1.09.29-2.26.52-3.33.35-1.65.76-3.4-.25-2.82-.19.11-.29.33-.36.53-.54,1.44-.73,3.04-1.36,4.45-.1.23-.34.31-.35-.05-.01-.35.05-2.99.08-3.84.02-.5.04-1.01,0-1.51-.02-.22-.04-.47-.18-.66-.14-.19-.47-.3-.67-.15-.1.07-.16.19-.2.3-.16.42-.19.88-.23,1.32-.05.61-.05,1.22-.07,1.83-.05,1.3-.09,2.4-.21,2.61-.12.21-.22.27-.31-.34-.09-.61-.2-3.57-.25-3.96-.05-.39-.23-.65-.48-.62-.27.04-.69-.03-.54,3.88.02.71.11,1.38.05,1.56-.06.18-.32.21-.47-.27-.15-.48-.43-1.86-.73-1.93-.3-.07-.67-.1-.37,1.55.3,1.64.5,3.41.7,4.06.2.65.84,1.36.99,1.92.15.55-.23,4.09-.23,4.09l3.79.14Z"/><polygon class="cls-8" points="206.73 181.84 206.86 180.13 213.53 181.56 213.18 183.22 206.73 181.84"/><polygon class="cls-7" points="211.84 230.25 204.19 205.98 206.2 181.22 213.42 182.9 212.6 203.61 218.51 219.07 217.89 225.53 215.93 228.81 211.84 230.25"/><path class="cls-15" d="M310.1,172.85l-17.67,44.01c-.43,1.06-1.59,1.63-2.69,1.32-.69-.19-1.51-.43-2.37-.7-.85-.26-1.73-.55-2.58-.86-2.18-.79-3.87-1.73-4.22-2.38-1.09-2.08-7.14-17.11-9.3-17.23-2.16-.12-7.71-.45-7.29-5.02.41-4.57-32.37-15.68-32.37-15.68,0,0-7.19,10.84-9.17,5.94-1.48-3.67-.83-7.38-.4-9,0,0,0,0,0,0,.11-.44.21-.72.24-.81,0,0,0-.02.01-.03,0,0-26.27-2.19-27.27-3.22-.79-.81.68-7.64,1.99-12.45l-6.37-2.56-2.82,7.03c-.2.5-.77.75-1.28.54l-4.98-2c-.5-.2-.74-.77-.54-1.27l2.82-7.03-7.03-2.82c-.5-.2-.74-.77-.54-1.27l2-4.99c.2-.5.77-.74,1.27-.54l7.03,2.82,2.82-7.03c.2-.5.77-.74,1.27-.54l4.99,2c.5.2.74.77.54,1.27l-2.82,7.03,6.41,2.57c.45-.82.94-1.68,1.44-2.55.31-.52.62-1.05.93-1.56,1.92-3.15,3.86-5.92,4.63-5.94,1.44-.05,21.92,16.54,21.92,16.54,0,0,0,0,0-.02.15-.34,2.27-4.9,6.91-6.99,4.82-2.17,2.51,10.64,2.51,10.64,0,0,31.36,14.65,34.22,11.06,2.86-3.59,7.1,0,8.74,1.41,1.64,1.41,17.15-4.99,18.64-6,1.08-.74,6.5,1.97,9.35,3.5,1.01.54,1.45,1.75,1.02,2.81Z"/><path class="cls-2" d="M310.1,172.85l-17.67,44.01c-.43,1.06-1.59,1.63-2.69,1.32-.69-.19-1.51-.43-2.37-.7-.85-.26-1.73-.55-2.58-.86.99-4.72-.26-15.19-3.16-21.67-8.38-18.75-63.97-39.47-79.48-49.11,1.92-3.15,3.86-5.92,4.63-5.94,1.44-.05,21.92,16.54,21.92,16.54,0,0,0,0,0-.02.15-.34,2.27-4.9,6.91-6.99,4.82-2.17,2.51,10.64,2.51,10.64,0,0,31.36,14.65,34.22,11.06,2.86-3.59,7.1,0,8.74,1.41,1.64,1.41,16.8-5.28,18.64-6,1.22-.48,6.5,1.97,9.35,3.5,1.01.54,1.45,1.75,1.02,2.81Z"/><path class="cls-2" d="M272.16,171.58l-8.01,19.95c-.26.64-.98.95-1.62.69h0c-.64-.26-.95-.98-.69-1.62l8.01-19.95c.26-.64.98-.95,1.62-.69h0c.64.26.95.98.69,1.62Z"/><path class="cls-2" d="M229.47,155.52l-7.26,18.07c-.26.64-.98.95-1.62.69h0c-.64-.26-.95-.98-.69-1.62l7.26-18.07c.26-.64.98-.95,1.62-.69h0c.64.26.95.98.69,1.62Z"/><path class="cls-2" d="M240.28,160.77l-6.57,16.36c-.26.64-.98.95-1.62.69h0c-.64-.26-.95-.98-.69-1.62l6.57-16.36c.26-.64.98-.95,1.62-.69h0c.64.26.95.98.69,1.62Z"/><path class="cls-2" d="M282.87,173.18l-10.13,25.22c-.26.64-.98.95-1.62.69h0c-.64-.26-.95-.98-.69-1.62l10.13-25.22c.26-.64.98-.95,1.62-.69h0c.64.26.95.98.69,1.62Z"/><rect class="cls-2" x="192.09" y="151.74" width="10.42" height="2.34" rx=".91" ry=".91" transform="translate(-18.12 279.01) rotate(-68.12)"/><g class="cls-1"><path class="cls-8" d="M410.44,157.52c.63-.76.73-1.86.25-2.7-.48-.85-1.51-1.4-2.55-1.38,1.25-2.01.44-4.86-1.72-6.06-2.16-1.2-5.29-.53-6.66,1.41-.16-.87-1.03-1.58-1.99-1.64-.96-.05-1.92.56-2.19,1.41-.72-.46-1.55-.78-2.41-.94-2.43-.47-5.11.32-6.79,2-1.68,1.68-2.31,4.19-1.6,6.37-.28-.48-1.08-.34-1.55-.01-.58.4-1.01,1.15-.65,1.73,0,0,18.43-.25,27.72-.02"/></g><g class="cls-1"><path class="cls-8" d="M83.37,142.11c-.85-3.07-.22-5.24,2.18-7.44,2.4-2.21,6.76-2.5,9.95-1.58-.39-2.22.82-4.61,2.89-5.69,2.07-1.08,4.84-.77,6.59.74-.76-6.1,4.06-12.36,10.39-13.52,6.33-1.15,13.23,2.98,14.88,8.92,2.21-1.01,5.03-.63,6.87.91,1.84,1.54,2.58,4.16,1.82,6.37,2.6.31,5,1.92,6.18,4.15,1.18,2.24,1.1,5.03-.2,7.2-18.06.15-59.38.09-61.55-.06"/></g><g class="cls-1"><path class="cls-8" d="M55.73,193.88c.37-1.52.1-2.6-.96-3.69-1.06-1.09-2.98-1.24-4.38-.79.17-1.1-.36-2.29-1.27-2.82-.91-.54-2.13-.38-2.9.37.33-3.02-1.79-6.13-4.58-6.7-2.79-.57-5.83,1.48-6.56,4.42-.97-.5-2.21-.31-3.02.45-.81.76-1.14,2.06-.8,3.16-1.15.15-2.2.95-2.72,2.06-.52,1.11-.49,2.49.09,3.57,7.96.07,26.16.05,27.11-.03"/></g><rect class="cls-17" x="425.55" y="230.33" width="1.39" height="90.07" transform="translate(10.48 -15.59) rotate(2.12)"/><path class="cls-10" d="M426.59,258.02l-38.27-1.55c3.76-3.39,7.52-6.77,11.28-10.16-3.47-3.7-6.94-7.4-10.42-11.1l38.27,1.55-.86,21.26Z"/><path class="cls-5" d="M68.27,55.16h-17.52v-2.11l13.73-18.89h-13.11v-2.44h16.64v2.27l-13.61,18.73h13.86v2.44Z"/><path class="cls-5" d="M84.63,55.16h-2.2l-.17-2.06c-.57.74-1.3,1.32-2.19,1.74-.89.42-1.88.63-2.97.63s-2.13-.22-3.02-.66c-.89-.44-1.58-1.05-2.09-1.82-.51-.77-.76-1.65-.76-2.62,0-1.03.27-1.94.82-2.73.55-.79,1.29-1.4,2.23-1.85.94-.45,2.01-.67,3.21-.67.78,0,1.58.1,2.39.29.81.19,1.54.46,2.17.79v-.66c0-.83-.21-1.54-.62-2.13-.42-.59-.97-1.04-1.67-1.36-.7-.32-1.47-.48-2.31-.48-.73,0-1.47.13-2.23.4-.76.27-1.49.67-2.19,1.23l-.84-2.2c.91-.58,1.86-1.02,2.86-1.32s1.99-.45,2.97-.45c1.35,0,2.52.27,3.51.82s1.75,1.32,2.29,2.33c.54,1.01.81,2.2.81,3.57v9.22ZM77.55,53.13c.8,0,1.54-.17,2.2-.5.67-.33,1.21-.81,1.62-1.45.42-.63.65-1.38.69-2.24v-.27c-.57-.45-1.22-.79-1.93-1.04-.71-.24-1.44-.37-2.18-.37-1.16,0-2.12.28-2.9.84-.78.56-1.16,1.28-1.16,2.14,0,.54.16,1.03.48,1.47.32.44.75.78,1.3,1.03.55.25,1.18.38,1.88.38Z"/><path class="cls-5" d="M102.15,52.91c-.76.82-1.66,1.46-2.7,1.9-1.04.44-2.16.66-3.36.66-1.55,0-2.95-.35-4.18-1.06-1.23-.71-2.21-1.68-2.92-2.91-.71-1.23-1.07-2.61-1.07-4.16s.36-2.94,1.07-4.16c.71-1.22,1.69-2.19,2.92-2.9,1.23-.71,2.63-1.06,4.18-1.06,1.19,0,2.3.22,3.34.66,1.04.44,1.94,1.07,2.7,1.89l-1.53,1.61c-.55-.58-1.21-1.03-1.98-1.34s-1.58-.47-2.43-.47c-1.09,0-2.07.25-2.91.74-.85.5-1.52,1.17-2,2.04-.48.87-.73,1.86-.73,2.98s.24,2.12.73,3,1.15,1.56,2,2.05c.85.5,1.82.74,2.91.74.85,0,1.67-.16,2.44-.48.77-.32,1.43-.76,1.97-1.34l1.55,1.59Z"/><path class="cls-5" d="M118.45,55.16h-13.95v-1.42l9.67-11.89h-9.2v-2.31h13.09v1.23l-9.81,12.08h10.2v2.31Z"/><path class="cls-5" d="M127.46,62.97h-2.8l3.28-7.94-7.47-15.5h2.83l5.88,12.55,5.19-12.55h2.78l-9.69,23.44Z"/><path class="cls-5" d="M155.05,55.16h-2.56v-8.72c0-1.48-.42-2.66-1.27-3.55-.84-.88-1.96-1.33-3.36-1.33s-2.62.48-3.52,1.43c-.9.95-1.35,2.21-1.35,3.76v8.41h-2.56v-15.62h2.23l.09,2.53c.57-.92,1.33-1.62,2.27-2.11.94-.49,2.04-.73,3.31-.73,2.07,0,3.71.62,4.91,1.88s1.8,2.96,1.8,5.14v8.92Z"/><path class="cls-5" d="M172.2,55.16h-2.2l-.17-2.06c-.57.74-1.3,1.32-2.19,1.74-.89.42-1.88.63-2.97.63s-2.13-.22-3.02-.66c-.89-.44-1.58-1.05-2.09-1.82-.51-.77-.76-1.65-.76-2.62,0-1.03.27-1.94.82-2.73.55-.79,1.29-1.4,2.23-1.85.94-.45,2.01-.67,3.21-.67.78,0,1.58.1,2.39.29.81.19,1.54.46,2.17.79v-.66c0-.83-.21-1.54-.62-2.13-.42-.59-.97-1.04-1.67-1.36-.7-.32-1.47-.48-2.31-.48-.73,0-1.47.13-2.23.4-.76.27-1.49.67-2.19,1.23l-.84-2.2c.91-.58,1.86-1.02,2.86-1.32s1.99-.45,2.97-.45c1.35,0,2.52.27,3.51.82s1.75,1.32,2.29,2.33c.54,1.01.81,2.2.81,3.57v9.22ZM165.12,53.13c.8,0,1.54-.17,2.2-.5.67-.33,1.21-.81,1.62-1.45.42-.63.65-1.38.69-2.24v-.27c-.57-.45-1.22-.79-1.93-1.04-.71-.24-1.44-.37-2.18-.37-1.16,0-2.12.28-2.9.84-.78.56-1.16,1.28-1.16,2.14,0,.54.16,1.03.48,1.47.32.44.75.78,1.3,1.03.55.25,1.18.38,1.88.38Z"/><path class="cls-5" d="M201.46,55.16h-2.56v-8.33c0-1.68-.37-2.98-1.1-3.91-.73-.93-1.77-1.4-3.1-1.4s-2.4.47-3.16,1.41c-.77.94-1.15,2.24-1.15,3.9v8.33h-2.56v-8.33c0-1.68-.37-2.98-1.11-3.91-.74-.93-1.78-1.4-3.11-1.4s-2.4.47-3.16,1.41c-.77.94-1.15,2.24-1.15,3.9v8.33h-2.56v-15.62h2.09l.11,2.8c.52-1.02,1.23-1.79,2.13-2.32.9-.53,1.97-.79,3.2-.79,1.31,0,2.43.29,3.37.88.93.59,1.63,1.43,2.09,2.52.51-1.11,1.24-1.96,2.18-2.54.94-.58,2.07-.87,3.38-.87,1.95,0,3.47.62,4.55,1.85,1.09,1.23,1.63,2.96,1.63,5.16v8.92Z"/><path class="cls-5" d="M210.95,62.97h-2.8l3.28-7.94-7.47-15.5h2.83l5.88,12.55,5.19-12.55h2.78l-9.69,23.44Z"/><path class="cls-5" d="M238.66,55.47c-1.55,0-2.95-.35-4.19-1.06-1.24-.71-2.22-1.67-2.93-2.9-.71-1.22-1.07-2.61-1.07-4.16s.36-2.92,1.07-4.15c.71-1.22,1.69-2.19,2.93-2.91,1.24-.71,2.63-1.07,4.19-1.07s2.94.36,4.17,1.07c1.23.71,2.2,1.68,2.91,2.91.71,1.22,1.06,2.61,1.06,4.15s-.35,2.94-1.06,4.16c-.71,1.22-1.68,2.19-2.91,2.9-1.23.71-2.62,1.06-4.17,1.06ZM238.65,53.16c1.05,0,1.99-.25,2.83-.77.83-.51,1.49-1.2,1.98-2.08s.73-1.87.73-2.98-.24-2.08-.73-2.95-1.14-1.57-1.98-2.08c-.83-.51-1.78-.77-2.83-.77s-2,.26-2.84.77c-.84.51-1.5,1.2-1.98,2.08s-.73,1.86-.73,2.95.24,2.11.73,2.98,1.15,1.57,1.98,2.08c.84.51,1.78.77,2.84.77Z"/><path class="cls-5" d="M265.65,55.16h-2.28l-.14-2.28c-.72.8-1.59,1.44-2.62,1.9s-2.16.7-3.38.7c-1.54,0-2.92-.35-4.14-1.06-1.22-.71-2.18-1.68-2.88-2.91-.7-1.23-1.05-2.61-1.05-4.16s.35-2.94,1.05-4.16c.7-1.22,1.66-2.19,2.88-2.9,1.22-.71,2.6-1.06,4.14-1.06,1.18,0,2.27.21,3.27.64,1,.43,1.87,1.02,2.59,1.78v-9.92h2.56v23.44ZM257.45,53.16c1.04,0,1.99-.24,2.84-.73.85-.48,1.53-1.15,2.04-1.98.5-.84.76-1.79.76-2.85v-.53c0-1.06-.25-2.01-.76-2.85-.51-.84-1.19-1.5-2.04-1.98-.85-.48-1.8-.72-2.84-.72s-2.05.26-2.91.77c-.85.51-1.53,1.2-2.02,2.08-.5.88-.74,1.87-.74,2.97s.25,2.1.74,2.98c.49.88,1.17,1.58,2.02,2.09.85.51,1.82.77,2.91.77Z"/><path class="cls-5" d="M286.71,55.16h-2.75v-21h-7.53v-2.44h17.81v2.44h-7.53v21Z"/><path class="cls-5" d="M312.23,55.16h-2.97l-3.53-11.94-3.53,11.94h-2.97l-4.98-15.62h2.72l3.73,12.5,3.83-12.5h2.41l3.83,12.5,3.75-12.5h2.72l-5,15.62Z"/><path class="cls-5" d="M326.98,55.47c-1.55,0-2.95-.35-4.19-1.06-1.24-.71-2.22-1.67-2.93-2.9-.71-1.22-1.07-2.61-1.07-4.16s.36-2.92,1.07-4.15c.71-1.22,1.69-2.19,2.93-2.91,1.24-.71,2.63-1.07,4.19-1.07s2.94.36,4.17,1.07c1.23.71,2.2,1.68,2.91,2.91.71,1.22,1.06,2.61,1.06,4.15s-.35,2.94-1.06,4.16c-.71,1.22-1.68,2.19-2.91,2.9-1.23.71-2.62,1.06-4.17,1.06ZM326.96,53.16c1.05,0,1.99-.25,2.83-.77.83-.51,1.49-1.2,1.98-2.08s.73-1.87.73-2.98-.24-2.08-.73-2.95-1.14-1.57-1.98-2.08c-.83-.51-1.78-.77-2.83-.77s-2,.26-2.84.77c-.84.51-1.5,1.2-1.98,2.08s-.73,1.86-.73,2.95.24,2.11.73,2.98,1.15,1.57,1.98,2.08c.84.51,1.78.77,2.84.77Z"/><path class="cls-5" d="M334.52,63.08v-2.05c.17.03.33.05.48.06.15,0,.3.02.45.02,1.08,0,1.96-.39,2.62-1.16.67-.77,1-1.81,1-3.11v-17.31h2.58v17.41c0,2.02-.47,3.58-1.4,4.69-.93,1.1-2.24,1.66-3.91,1.66-.28,0-.57-.02-.88-.05-.3-.04-.61-.09-.94-.15ZM340.35,34.6c-.44,0-.8-.15-1.1-.45-.3-.3-.45-.67-.45-1.11s.15-.81.45-1.11c.3-.3.66-.45,1.1-.45s.81.15,1.11.45c.3.3.45.67.45,1.11s-.15.81-.45,1.11-.67.45-1.11.45Z"/><path class="cls-5" d="M360.18,53.24c-1.94,1.49-4.07,2.23-6.41,2.23-1.62,0-3.08-.36-4.38-1.09-1.29-.73-2.31-1.72-3.05-2.98-.75-1.25-1.12-2.67-1.12-4.26s.34-2.88,1.03-4.07c.69-1.19,1.63-2.13,2.83-2.82,1.2-.69,2.56-1.03,4.08-1.03s2.94.38,4.13,1.12c1.19.75,2.12,1.79,2.79,3.12.67,1.33,1,2.88,1,4.62v.5h-13.08c.19.92.56,1.71,1.13,2.39.57.68,1.27,1.2,2.12,1.58s1.79.56,2.83.56c1.79,0,3.43-.59,4.91-1.77l1.19,1.88ZM347.91,46.41h10.75c-.12-.97-.41-1.81-.9-2.54-.48-.72-1.11-1.29-1.88-1.7s-1.63-.61-2.59-.61-1.84.2-2.62.61c-.78.41-1.41.97-1.89,1.7-.48.72-.78,1.57-.88,2.54Z"/><path class="cls-5" d="M371.32,55.16c-1.5,0-2.85-.35-4.04-1.05-1.19-.7-2.13-1.65-2.82-2.85s-1.03-2.56-1.03-4.07.34-2.88,1.03-4.08c.69-1.2,1.63-2.15,2.82-2.84,1.19-.7,2.54-1.05,4.05-1.05,1.21,0,2.32.23,3.33.68,1.01.45,1.87,1.08,2.58,1.88l.12-2.25h2.27v15.22c0,1.75-.34,3.26-1.03,4.54-.69,1.28-1.67,2.26-2.94,2.95-1.27.69-2.78,1.04-4.53,1.04-2.48,0-4.64-.82-6.47-2.47l1.12-2.06c1.43,1.48,3.17,2.22,5.23,2.22,1.24,0,2.31-.26,3.21-.77.9-.52,1.6-1.24,2.09-2.18.49-.94.74-2.05.74-3.33v-1.92c-.71.74-1.55,1.32-2.54,1.75-.98.43-2.05.64-3.21.64ZM371.54,52.9c1.02,0,1.95-.23,2.78-.7.83-.46,1.5-1.1,2-1.91.5-.81.75-1.72.75-2.74v-.72c0-1.03-.25-1.95-.75-2.75-.5-.8-1.17-1.43-2-1.9-.83-.46-1.76-.7-2.78-.7s-2,.25-2.83.75c-.83.5-1.49,1.18-1.98,2.04s-.73,1.83-.73,2.91.24,2.06.73,2.92c.48.87,1.14,1.54,1.98,2.04.83.5,1.78.74,2.83.74Z"/><path class="cls-5" d="M391.26,55.47c-1.55,0-2.95-.35-4.19-1.06-1.24-.71-2.22-1.67-2.93-2.9-.71-1.22-1.07-2.61-1.07-4.16s.36-2.92,1.07-4.15c.71-1.22,1.69-2.19,2.93-2.91,1.24-.71,2.63-1.07,4.19-1.07s2.94.36,4.17,1.07c1.23.71,2.2,1.68,2.91,2.91.71,1.22,1.06,2.61,1.06,4.15s-.35,2.94-1.06,4.16c-.71,1.22-1.68,2.19-2.91,2.9-1.23.71-2.62,1.06-4.17,1.06ZM391.24,53.16c1.05,0,1.99-.25,2.83-.77.83-.51,1.49-1.2,1.98-2.08s.73-1.87.73-2.98-.24-2.08-.73-2.95-1.14-1.57-1.98-2.08c-.83-.51-1.78-.77-2.83-.77s-2,.26-2.84.77c-.84.51-1.5,1.2-1.98,2.08s-.73,1.86-.73,2.95.24,2.11.73,2.98,1.15,1.57,1.98,2.08c.84.51,1.78.77,2.84.77Z"/><path class="cls-10" d="M79.5,74.19c.41-2.01.78-4.01,1.12-6.02l-3.23-.2.14-.99,5.75-1.7.34.27-3.06,15.54,9.04-7.07c.71.03,1.22.68,1.22,1.39,0,.61-.48,1.09-1.73,1.77l-8.26,4.59.78.17c1.97.37,3.03,1.53,3.81,3.23l.99,2.14c.75,1.63,1.26,1.9,2.31,1.97l1.73.14-.17,1.02c-1.02.34-1.67.44-2.41.44-1.6,0-2.72-.34-3.71-2.72l-1.09-2.65c-.82-1.9-1.33-2.52-2.52-2.86l-.31-.07-.14.71c-.48,2.38-.88,4.76-1.29,7.14l-2.28.27-.31-.27,3.26-16.25Z"/><path class="cls-10" d="M91.67,84.89c0-6.12,4.05-11.05,8.87-11.05,3.2,0,5.51,2.11,5.51,5.95,0,5.92-3.94,11.08-8.74,11.08-3.13,0-5.64-2.11-5.64-5.98ZM103.3,80.3c0-3.67-1.29-5.1-3.13-5.1-3.23,0-5.75,4.22-5.75,9.28,0,3.57,1.39,5.03,3.3,5.03,3.33,0,5.58-4.66,5.58-9.21Z"/><path class="cls-10" d="M109.01,90.44l2.89-13.67-3.37-.2.14-.99,5.78-1.73.44.34-.71,3.5c2.24-2.14,5.03-3.84,7.1-3.84,1.43,0,2.18.78,2.18,2.35,0,1.09-.31,2.21-.58,3.33l-1.53,6.32c-.24.95-.41,1.63-.41,1.97,0,.48.24.71.65.71.85,0,2.14-.92,3.37-2.45l.82.65c-1.33,2.01-3.54,4.15-5.88,4.15-1.05,0-1.7-.58-1.7-1.46,0-.78.2-1.36.54-2.75l1.46-6.02c.27-1.16.54-2.28.54-2.96,0-1.19-.44-1.56-1.19-1.56-1.22,0-3.16.99-5.64,3.03l-.92,4.15c-.51,2.38-.92,4.73-1.36,7.14l-2.28.27-.34-.27ZM120.26,66.06c.44-.92.99-1.46,1.73-1.46s1.33.41,1.33,1.19c0,.51-.2,1.02-.75,1.67-1.36,1.63-2.69,3.2-4.04,4.83l-.78-.51c.85-1.9,1.7-3.81,2.52-5.71Z"/><path class="cls-10" d="M127.4,84.52c0-5.75,4.45-10.67,8.74-10.67,2.07,0,3.3,1.02,3.67,2.48-.14.85-.82,1.19-1.43,1.19-.75,0-1.39-.54-2.01-1.22l-1.02-1.16c-2.92,1.02-5.41,4.83-5.41,9.01,0,2.96,1.53,4.38,3.77,4.38,1.8,0,3.2-1.33,4.15-2.48l.78.61c-1.36,2.38-3.84,4.22-6.19,4.22-2.96,0-5.07-2.11-5.07-6.36Z"/><path class="cls-10" d="M140.9,84.89c0-6.12,4.05-11.05,8.87-11.05,3.2,0,5.51,2.11,5.51,5.95,0,5.92-3.94,11.08-8.74,11.08-3.13,0-5.64-2.11-5.64-5.98ZM152.53,80.3c0-3.67-1.29-5.1-3.13-5.1-3.23,0-5.75,4.22-5.75,9.28,0,3.57,1.39,5.03,3.3,5.03,3.33,0,5.58-4.66,5.58-9.21Z"/><path class="cls-10" d="M160.83,77.69c-.17-1.33-.48-1.5-.95-1.5-.65,0-1.22.61-2.31,2.24l-.78-.54c1.19-2.65,2.65-4.04,4.18-4.04,1.43,0,2.01.65,2.28,2.28.48,2.82.61,7.28.61,11.05,2.52-3.64,4.83-7.92,6.97-12.92h1.36c.2,4.62.37,9.25.51,13.22,2.28-2.86,3.84-5.17,5.54-8.33.07-.14.14-.24.2-.37l-.27-1.12c-.1-.41-.17-1.09-.17-1.39,0-1.7.99-2.41,2.04-2.41.54,0,.92.2,1.12.44.14.2.2.48.2,1.02,0,.71-.2,1.63-1.73,4.56-1.6,3.09-4.45,7.07-7.96,10.71l-.99.1-.24-.17c-.2-3.6-.37-7.21-.54-10.78-1.73,3.3-4.35,7.75-7.04,10.84l-1.02.1-.24-.17c-.03-5.47-.31-9.38-.78-12.82Z"/><path class="cls-10" d="M182.28,84.55c0-5.47,4.11-10.71,8.87-10.71,2.18,0,3.4,1.12,3.4,3.13,0,2.18-2.14,5.27-9.89,7.51.14,2.89,1.43,4.04,3.5,4.04s3.67-1.33,4.59-2.48l.78.61c-1.43,2.31-3.64,4.22-6.15,4.22-2.96,0-5.1-1.97-5.1-6.32ZM184.66,83.16c5.64-1.63,7.62-4.01,7.62-5.85,0-1.26-.75-2.01-1.87-2.01-2.11,0-5.41,3.6-5.75,7.85Z"/><path class="cls-10" d="M199.52,84.62c-.75.92-.85,1.39-.85,1.87,0,.58.37,1.36,1.77,1.53l3.33.41c3.67.48,5.03,1.77,5.03,3.71,0,3.57-4.18,6.49-9.86,6.49-3.13,0-5.51-1.16-5.51-3.6,0-2.07,1.97-4.05,4.35-5.13-1.26-.58-1.6-1.5-1.6-2.24,0-1.29.99-2.38,2.58-3.47-1.09-.82-1.67-2.07-1.67-3.64,0-3.71,2.89-6.7,6.42-6.7,2.18,0,3.77,1.16,4.22,3.2.65-2.69,1.9-3.57,3.16-3.57.44,0,.78.07,1.02.2.17.2.31.44.31.71,0,1.36-1.19,1.77-3.37,2.38-.24.58-.41,1.22-.58,2.01-1.02,4.39-3.43,6.39-6.15,6.39-1.02,0-1.9-.17-2.62-.54ZM200.47,97.03c3.6,0,5.98-1.43,5.98-3.6,0-1.26-.82-2.35-4.32-2.75l-2.72-.31c-.2-.03-.37-.03-.61-.07-1.8,1.16-2.72,2.21-2.72,3.6,0,1.97,1.63,3.13,4.39,3.13ZM205.87,78.4c0-2.18-1.19-3.47-2.62-3.47-2.38,0-3.54,2.28-3.54,5.44,0,2.41.92,3.71,2.69,3.71,2.11,0,3.47-2.07,3.47-5.68Z"/><path class="cls-10" d="M212.13,84.89c0-6.12,4.05-11.05,8.87-11.05,3.2,0,5.51,2.11,5.51,5.95,0,5.92-3.94,11.08-8.74,11.08-3.13,0-5.64-2.11-5.64-5.98ZM223.76,80.3c0-3.67-1.29-5.1-3.13-5.1-3.23,0-5.75,4.22-5.75,9.28,0,3.57,1.39,5.03,3.3,5.03,3.33,0,5.58-4.66,5.58-9.21Z"/><path class="cls-10" d="M240.32,76.77l-3.37-.2.14-.99,5.61-1.73.44.34-.75,4.55c1.46-2.55,3.33-4.89,5.13-4.89.95,0,1.8.27,2.28,1.02-.03,1.12-.68,1.9-1.8,1.9-.58,0-1.33-.37-2.01-.92-1.67,1.39-2.96,3.33-4.22,5.68l-.37,1.77c-.51,2.38-.92,4.73-1.36,7.14l-2.28.27-.34-.27,2.89-13.67Z"/><path class="cls-10" d="M249.43,84.55c0-5.47,4.11-10.71,8.87-10.71,2.18,0,3.4,1.12,3.4,3.13,0,2.18-2.14,5.27-9.89,7.51.14,2.89,1.43,4.04,3.5,4.04s3.67-1.33,4.59-2.48l.78.61c-1.43,2.31-3.64,4.22-6.15,4.22-2.96,0-5.1-1.97-5.1-6.32ZM251.81,83.16c5.64-1.63,7.62-4.01,7.62-5.85,0-1.26-.75-2.01-1.87-2.01-2.11,0-5.41,3.6-5.75,7.85Z"/><path class="cls-10" d="M264.52,75.71l2.35-1.87c2.82.75,5.27,1.5,8.06,2.69l1.16-2.24,1.87-.41.41.34c-.34.85-1.5,2.38-3.23,4.18-2.86,2.92-5.88,5.37-8.7,8.02,2.62,1.97,4.42,2.45,5.81,2.45.95,0,1.77-.27,2.52-.75-.71-.85-1.02-1.36-1.02-2.01,0-1.09.75-1.73,1.7-1.84.71.27,1.12,1.19,1.12,2.01,0,2.48-2.82,4.93-5.44,4.93-1.97,0-3.6-.78-5.88-3.6l-1.36,2.82-1.94.2-.27-.2c.68-1.19,1.36-2.24,2.79-3.64,2.92-2.86,6.12-5.51,9.11-8.57-2.35-.75-4.28-1.26-7-1.87l-1.43,4.62-1.39-.2.78-5.07Z"/><path class="cls-10" d="M280.47,88.4c0-1.26.44-2.96.71-4.28l1.56-7.38-3.37-.17.14-1.02,5.92-1.7.44.34-2.14,9.65c-.31,1.39-.51,2.48-.51,3.23,0,.99.48,1.46,1.29,1.46,1.43,0,2.82-.88,5.37-2.92l.95-4.56c.44-2.18.85-4.35,1.22-6.53l2.21-.68.44.34-2.41,11.66c-.17.85-.31,1.56-.31,1.94,0,.48.37.75.78.75.92,0,1.94-.82,3.33-2.45l.85.65c-1.56,2.04-3.37,4.15-5.81,4.15-.92,0-1.8-.58-1.8-1.77,0-.41.03-.92.34-2.18-2.62,2.45-4.76,3.94-6.73,3.94-1.5,0-2.48-.82-2.48-2.48Z"/><path class="cls-10" d="M298.42,88.91c0-.48.1-1.09.31-2.28l2.45-12.44c.41-2.01.78-4.01,1.09-6.02l-3.2-.2.14-.99,5.85-1.7.37.27-4.08,20.23c-.2.92-.31,1.63-.31,1.97,0,.51.41.78.85.78.71,0,1.87-.88,3.23-2.45l.78.65c-1.46,2.01-3.16,4.15-5.58,4.15-1.05,0-1.9-.65-1.9-1.97Z"/><path class="cls-10" d="M308.11,89.14c0-.51.03-1.09.31-2.48l2.31-10.78h-3.47l.27-1.29,3.64-.34,1.6-4.52h1.73l-.95,4.56h4.32l-.37,1.84-4.32-.14-2.07,9.79c-.2.92-.31,1.63-.31,1.97,0,.51.41.78.82.78.92,0,1.94-.82,3.33-2.45l.82.65c-1.39,2.04-3.47,4.15-5.78,4.15-.99,0-1.87-.58-1.87-1.73Z"/><path class="cls-10" d="M326.81,88.91c0-.65.03-1.19.14-1.8-1.97,2.24-4.11,3.77-5.95,3.77-1.63,0-3.23-1.19-3.23-4.01,0-5.92,6.12-13.02,10.5-13.02.78,0,1.39.34,1.94.92l1.56-1.26.61.31-2.72,12.03c-.2.85-.31,1.56-.31,1.94,0,.48.37.75.82.75.85,0,2.14-.99,3.33-2.45l.82.65c-1.33,1.97-3.47,4.15-5.75,4.15-.92,0-1.77-.61-1.77-1.97ZM322.46,88.53c1.19,0,2.62-.82,4.86-3.26l1.84-8.53c-.65-.37-1.36-.65-2.07-.65-1.09,0-2.52.71-3.74,1.97-1.63,1.7-2.92,4.42-2.92,7.41,0,2.07.82,3.06,2.04,3.06Z"/><path class="cls-10" d="M336.88,89.14c0-.51.03-1.09.31-2.48l2.31-10.78h-3.47l.27-1.29,3.64-.34,1.6-4.52h1.73l-.95,4.56h4.32l-.37,1.84-4.32-.14-2.07,9.79c-.2.92-.31,1.63-.31,1.97,0,.51.41.78.82.78.92,0,1.94-.82,3.33-2.45l.82.65c-1.39,2.04-3.47,4.15-5.78,4.15-.99,0-1.87-.58-1.87-1.73Z"/><path class="cls-10" d="M348.33,88.4c0-1.26.44-2.96.71-4.28l1.56-7.38-3.37-.17.14-1.02,5.92-1.7.44.34-2.14,9.65c-.31,1.39-.51,2.48-.51,3.23,0,.99.48,1.46,1.29,1.46,1.43,0,2.82-.88,5.37-2.92l.95-4.56c.44-2.18.85-4.35,1.22-6.53l2.21-.68.44.34-2.41,11.66c-.17.85-.31,1.56-.31,1.94,0,.48.37.75.78.75.92,0,1.94-.82,3.33-2.45l.85.65c-1.56,2.04-3.37,4.15-5.81,4.15-.92,0-1.8-.58-1.8-1.77,0-.41.03-.92.34-2.18-2.62,2.45-4.76,3.94-6.73,3.94-1.5,0-2.48-.82-2.48-2.48Z"/><path class="cls-10" d="M366.59,88.84c0-1.36,1.12-2.35,2.41-2.35,1.19,0,1.97.88,1.97,1.94,0,1.36-1.09,2.35-2.38,2.35-1.16,0-2-.82-2-1.94Z"/></g></svg>