<?xml version="1.0" encoding="UTF-8"?><svg id="Layer_2" xmlns="http://www.w3.org/2000/svg" viewBox="0 0 430 153.52"><defs><style>.cls-1{fill:#0d421a;}.cls-1,.cls-2,.cls-3,.cls-4,.cls-5,.cls-6,.cls-7,.cls-8,.cls-9,.cls-10,.cls-11,.cls-12,.cls-13,.cls-14,.cls-15,.cls-16,.cls-17,.cls-18,.cls-19,.cls-20,.cls-21,.cls-22{stroke-width:0px;}.cls-2{fill:#f4c6a6;}.cls-3{fill:#f3f5f8;}.cls-4{fill:#f1f2f2;}.cls-5{fill:#ffede1;}.cls-6{fill:#e8b48e;}.cls-7{fill:#e6e7e8;}.cls-8{fill:#af4552;}.cls-9{fill:#01240b;}.cls-10{fill:#d39e7a;}.cls-11{fill:#f1f1f2;}.cls-12{fill:#f1f2f5;}.cls-13{fill:#a13941;}.cls-14{fill:#d7af80;opacity:.36;}.cls-15{fill:#f2bf94;}.cls-16{fill:#e8c19a;}.cls-17{fill:#f6f7fa;}.cls-18{fill:#dba886;}.cls-19{fill:#ebedee;}.cls-20{fill:#f4f6fa;}.cls-21{fill:#d0d2d3;}.cls-22{fill:#f9e2d2;}</style></defs><g id="Layer_1-2"><rect class="cls-14" width="430" height="140"/><path class="cls-13" d="M23.13,75.34l11.27-14.18h-6.81l-1.09,3.13h-1.43l.85-4.34h11.29l-.17.87-11.34,14.15h7.29l1.09-3.1h1.43l-.87,4.31h-11.68l.17-.85Z"/><path class="cls-13" d="M37.25,72c0-3.9,2.93-7.63,6.32-7.63,1.55,0,2.42.8,2.42,2.23,0,1.55-1.53,3.76-7.05,5.36.1,2.06,1.02,2.88,2.5,2.88s2.62-.95,3.27-1.77l.56.44c-1.02,1.65-2.59,3-4.39,3-2.11,0-3.63-1.41-3.63-4.51ZM38.95,71c4.02-1.16,5.43-2.86,5.43-4.17,0-.9-.53-1.43-1.33-1.43-1.5,0-3.85,2.57-4.1,5.6Z"/><path class="cls-13" d="M46.67,74.11c.12-.41.51-.68.9-.68.7,0,.99.39,1.16,1.07l.27,1.04c.1.02.22.02.34.02,1.67,0,2.67-.8,2.67-2.06,0-.78-.19-1.41-1.58-2.4-1.21-.92-2.13-1.82-2.13-3.34,0-1.89,1.53-3.39,3.85-3.39,1.43,0,2.52.56,2.88,2.13-.15.46-.48.68-.92.68-.56,0-.99-.41-1.24-1.14l-.22-.7c-.1-.02-.22-.02-.34-.02-1.67,0-2.3.9-2.3,1.99,0,1.02.41,1.53,1.79,2.54,1.45,1.09,1.96,1.82,1.96,3.22,0,2.01-1.65,3.44-4.09,3.44-1.89,0-2.84-.95-3-2.4Z"/><path class="cls-13" d="M58.11,76.14c-.44,2.08-.7,3.47-.9,4.68l2.23.36-.19.82h-6.13l.17-.82,2.08-.34,3.05-14.39-2.4-.14.1-.7,4.12-1.24.32.24-.58,2.71c1.48-1.84,3.42-2.96,4.8-2.96,1.19,0,2.21.8,2.21,2.98,0,4.1-4,9.16-7.49,9.16-.53,0-.97-.12-1.38-.36ZM59.71,68.51l-1.19,5.67c.65.48,1.28.68,1.84.68,1.21,0,2.33-.75,3.17-1.84.97-1.28,1.58-3.03,1.58-4.7,0-1.58-.56-2.33-1.48-2.33-.99,0-2.37.9-3.93,2.52Z"/><path class="cls-13" d="M68.47,72.24c0-4.36,2.88-7.88,6.32-7.88,2.28,0,3.93,1.5,3.93,4.24,0,4.22-2.81,7.9-6.23,7.9-2.23,0-4.02-1.5-4.02-4.26ZM76.76,68.97c0-2.62-.92-3.63-2.23-3.63-2.3,0-4.1,3-4.1,6.62,0,2.54.99,3.59,2.35,3.59,2.37,0,3.97-3.32,3.97-6.57ZM76.42,58.82c.31-.65.7-1.04,1.24-1.04s.95.29.95.85c0,.36-.15.73-.53,1.19-.97,1.16-1.91,2.28-2.88,3.44l-.56-.36c.61-1.36,1.21-2.71,1.79-4.07Z"/><path class="cls-13" d="M80.42,75.1c0-.34.07-.78.22-1.62l1.11-5.69-2.28,1.07.24-1.19,2.28-1.04.39-2.01c.29-1.43.56-2.86.78-4.29l-2.28-.15.1-.7,4.17-1.21.27.19-1.48,7.39,2.37-1.14-.24,1.19-2.37,1.11-1.19,5.86c-.15.65-.22,1.16-.22,1.41,0,.36.29.56.61.56.51,0,1.33-.63,2.3-1.75l.56.46c-1.04,1.43-2.25,2.96-3.97,2.96-.75,0-1.36-.46-1.36-1.41Z"/><path class="cls-17" d="M261.09,110.83c-13.11,7.21-26.22,14.41-39.33,21.62-11.64-21.63-19.84-44.98-24.3-69.19,14.67-2.76,29.35-5.52,44.02-8.28,3.6,19.54,10.22,38.39,19.61,55.85Z"/><path class="cls-7" d="M239.94,67.26c-11.84,2.99-23.67,5.98-35.51,8.97-.48-1.95-.94-3.91-1.37-5.87,11.91-2.68,23.82-5.35,35.73-8.03.36,1.65.75,3.29,1.15,4.93Z"/><path class="cls-7" d="M241.36,72.67c-5.1,1.45-10.19,2.89-15.29,4.34-.15-.54-.3-1.09-.45-1.64,5.11-1.4,10.22-2.81,15.32-4.21.14.5.27,1.01.41,1.51Z"/><path class="cls-7" d="M242.49,76.58c-5.07,1.55-10.13,3.11-15.2,4.66-.16-.54-.32-1.08-.48-1.63,5.08-1.51,10.16-3.03,15.23-4.54.15.5.29,1,.44,1.5Z"/><path class="cls-7" d="M243.71,80.46c-5.03,1.66-10.06,3.32-15.1,4.99-.17-.54-.35-1.08-.52-1.61,5.05-1.62,10.09-3.24,15.14-4.86.16.5.32.99.48,1.49Z"/><path class="cls-7" d="M245,84.32c-5,1.77-9.99,3.54-14.99,5.31-.18-.53-.37-1.07-.55-1.6,5.01-1.73,10.02-3.46,15.03-5.18.17.49.34.99.51,1.48Z"/><path class="cls-7" d="M246.37,88.15c-11.43,4.32-22.86,8.64-34.28,12.96-.22-.58-.43-1.17-.64-1.75,11.46-4.23,22.92-8.45,34.39-12.68.18.49.36.98.54,1.47Z"/><path class="cls-7" d="M247.82,91.95c-11.34,4.56-22.67,9.12-34.01,13.69-.23-.58-.45-1.16-.68-1.74,11.37-4.47,22.74-8.94,34.11-13.41.19.49.38.97.57,1.46Z"/><path class="cls-7" d="M249.35,95.72c-11.24,4.8-22.47,9.6-33.71,14.41-.24-.57-.48-1.15-.71-1.72,11.28-4.71,22.55-9.42,33.83-14.13.2.48.4.96.6,1.45Z"/><path class="cls-7" d="M250.96,99.46c-11.13,5.04-22.27,10.08-33.4,15.12-.25-.57-.5-1.14-.75-1.71,11.17-4.95,22.35-9.9,33.52-14.85.21.48.42.96.63,1.43Z"/><path class="cls-7" d="M252.65,103.16c-11.03,5.28-22.05,10.55-33.08,15.83-.26-.56-.53-1.13-.78-1.69,11.07-5.19,22.14-10.37,33.21-15.56.22.47.44.95.66,1.42Z"/><path class="cls-7" d="M254.42,106.83c-10.91,5.51-21.83,11.02-32.74,16.53-.28-.56-.55-1.12-.82-1.68,10.96-5.42,21.92-10.84,32.88-16.26.23.47.46.94.69,1.41Z"/><path class="cls-7" d="M228.01,90.33c-5.85,2.07-11.71,4.14-17.56,6.22-1.79-5.17-3.4-10.4-4.82-15.68,5.98-1.65,11.97-3.29,17.95-4.94,1.31,4.85,2.78,9.66,4.43,14.4Z"/><path class="cls-17" d="M288.42,101.3c-14.88,1.12-29.77,2.25-44.65,3.37-1.82-24.56.2-49.25,5.98-73.17,14.5,3.58,29,7.16,43.5,10.74-4.67,19.31-6.3,39.24-4.83,59.06Z"/><path class="cls-7" d="M247.21,86.64c12.2.03,24.4.06,36.6.09,0-.52,0-1.05,0-1.57-12.2-.13-24.4-.26-36.6-.39,0,.62-.01,1.24-.01,1.87Z"/><path class="cls-7" d="M247.25,91.49c12.2-.23,24.4-.46,36.6-.69,0-.52-.02-1.05-.02-1.57-12.2.13-24.4.26-36.6.39,0,.62.02,1.25.03,1.87Z"/><path class="cls-7" d="M247.39,96.35c12.19-.49,24.38-.98,36.57-1.47-.02-.52-.04-1.05-.06-1.57-12.19.39-24.39.78-36.58,1.17.02.62.04,1.25.07,1.87Z"/><path class="cls-7" d="M259.17,57.75c-2.38,2.14-4.06,5.41-4.4,9.19-.34,3.78.73,7.3,2.69,9.84,1.96,2.55,4.79,4.11,7.95,4.19,3.16.09,6.06-1.26,8.23-3.42,2.18-2.17,3.64-5.14,3.94-8.52-3.8-.35-7.6-.7-11.41-1.05,2.96-2.81,5.98-5.49,9.05-8.05-1.75-2.52-4.36-4.38-7.49-4.87-3.12-.49-6.18.53-8.56,2.68Z"/><path class="cls-7" d="M277.27,59.37c-3.07,2.52-6.1,5.16-9.07,7.93,3.8.36,7.6.73,11.4,1.09.31-3.34-.59-6.51-2.33-9.02Z"/><path class="cls-7" d="M251.98,40.31c-.4,1.97-.78,3.94-1.14,5.92,12.01,2.19,24.01,4.38,36.02,6.57.3-1.66.61-3.32.95-4.97-11.95-2.51-23.89-5.01-35.84-7.52Z"/><path class="cls-4" d="M209.27,129.3c-14.92-.32-29.84-.63-44.77-.95-4.22-19.57-3.8-39.87,1.23-59.25,14.92.32,29.84.63,44.77.95-5.03,19.37-5.45,39.68-1.23,59.25Z"/><path class="cls-7" d="M204.01,81.33c-12.2-.26-24.4-.52-36.6-.78.27-1.64.57-3.27.91-4.9,12.2.26,24.4.52,36.6.78-.33,1.63-.64,3.26-.91,4.9Z"/><path class="cls-7" d="M170.23,89.63c-.95-.96-1.88-1.93-2.81-2.89.38-.38.77-.75,1.16-1.13.56.59,1.13,1.18,1.7,1.77,1.05-1.14,2.11-2.28,3.19-3.42.35.33.71.66,1.06.99-1.46,1.56-2.89,3.12-4.3,4.68Z"/><path class="cls-7" d="M202.38,86.7c-8.68-.18-17.35-.37-26.03-.55.06-.51.13-1.02.19-1.53,8.68.18,17.35.37,26.03.55-.07.51-.13,1.02-.19,1.53Z"/><path class="cls-7" d="M202.05,89.69c-8.68-.18-17.35-.37-26.03-.55.05-.51.1-1.02.16-1.53,8.68.18,17.35.37,26.03.55-.06.51-.11,1.02-.16,1.53Z"/><path class="cls-7" d="M169.74,97.72c-1.01-.97-2-1.94-2.99-2.9.36-.38.72-.76,1.09-1.13.6.59,1.2,1.18,1.81,1.78.97-1.15,1.96-2.29,2.97-3.44.37.33.75.66,1.12.99-1.36,1.57-2.69,3.13-3.99,4.7Z"/><path class="cls-7" d="M201.65,94.78c-8.68-.18-17.35-.37-26.03-.55.03-.51.06-1.02.1-1.54,8.68.18,17.35.37,26.03.55-.04.51-.07,1.02-.1,1.54Z"/><path class="cls-7" d="M201.52,97.79c-8.68-.18-17.35-.37-26.03-.55.02-.51.04-1.03.06-1.54,8.68.18,17.35.37,26.03.55-.02.51-.04,1.03-.06,1.54Z"/><path class="cls-7" d="M169.75,105.84c-1.07-.97-2.12-1.94-3.17-2.9.34-.38.67-.76,1.01-1.14.64.59,1.28,1.19,1.92,1.78.9-1.15,1.81-2.3,2.74-3.45.39.33.79.66,1.19,1-1.26,1.57-2.49,3.14-3.69,4.71Z"/><path class="cls-7" d="M201.44,102.89c-8.68-.18-17.35-.37-26.03-.55,0-.51,0-1.03,0-1.54,8.68.18,17.35.37,26.03.55,0,.51,0,1.03,0,1.54Z"/><path class="cls-7" d="M201.5,105.9c-8.68-.18-17.35-.37-26.03-.55-.01-.51-.03-1.03-.04-1.54,8.68.18,17.35.37,26.03.55,0,.51.02,1.03.04,1.54Z"/><path class="cls-7" d="M170.29,113.94c-1.13-.97-2.24-1.93-3.35-2.9.31-.38.62-.76.94-1.13.67.59,1.35,1.18,2.03,1.78.82-1.15,1.67-2.29,2.52-3.44.41.33.83.66,1.25,1-1.16,1.57-2.29,3.14-3.39,4.7Z"/><path class="cls-7" d="M201.75,111c-8.68-.18-17.35-.37-26.03-.55-.04-.51-.07-1.02-.1-1.54,8.68.18,17.35.37,26.03.55.03.51.06,1.03.1,1.54Z"/><path class="cls-7" d="M201.99,114c-8.68-.18-17.35-.37-26.03-.55-.05-.51-.09-1.02-.13-1.54,8.68.18,17.35.37,26.03.55.04.51.09,1.02.13,1.54Z"/><path class="cls-7" d="M171.33,122c-1.19-.96-2.36-1.92-3.53-2.88.29-.38.58-.75.87-1.13.71.59,1.42,1.18,2.14,1.77.75-1.14,1.52-2.28,2.3-3.43.44.33.87.66,1.31.99-1.06,1.56-2.09,3.12-3.08,4.68Z"/><path class="cls-7" d="M202.56,119.09c-8.68-.18-17.35-.37-26.03-.55-.07-.51-.13-1.02-.19-1.53,8.68.18,17.35.37,26.03.55.06.51.13,1.02.19,1.53Z"/><path class="cls-7" d="M203,122.07c-8.68-.18-17.35-.37-26.03-.55-.08-.51-.16-1.02-.23-1.53,8.68.18,17.35.37,26.03.55.07.51.15,1.02.23,1.53Z"/><path class="cls-12" d="M345.93,110.36c-14.77-2.15-29.55-4.3-44.32-6.44,7.32-18.61,10.19-38.71,8.35-58.66,14.77,2.15,29.55,4.3,44.32,6.44,1.84,19.94-1.03,40.04-8.35,58.66Z"/><path class="cls-7" d="M350.77,62.72c-12.08-1.76-24.15-3.51-36.23-5.27,0-1.66-.04-3.32-.1-4.98,12.08,1.76,24.15,3.51,36.23,5.27.07,1.66.1,3.32.1,4.98Z"/><path class="cls-7" d="M347.43,91.98c-12.08-1.76-24.15-3.51-36.23-5.27.12-.5.23-1,.34-1.5,12.08,1.76,24.15,3.51,36.23,5.27-.11.5-.22,1-.34,1.5Z"/><path class="cls-7" d="M346.46,95.86c-12.08-1.76-24.15-3.51-36.23-5.27.13-.5.26-.99.39-1.49,12.08,1.76,24.15,3.51,36.23,5.27-.13.5-.26.99-.39,1.49Z"/><path class="cls-7" d="M345.36,99.72c-12.08-1.76-24.15-3.51-36.23-5.27.15-.49.29-.99.43-1.48,12.08,1.76,24.15,3.51,36.23,5.27-.14.49-.29.99-.43,1.48Z"/><path class="cls-7" d="M344.15,103.54c-12.08-1.76-24.15-3.51-36.23-5.27.16-.49.32-.98.48-1.47,12.08,1.76,24.15,3.51,36.23,5.27-.16.49-.32.98-.48,1.47Z"/><path class="cls-7" d="M315.36,66.56c-.37,5.4-1.08,10.77-2.13,16.08,1.64.24,3.29.48,4.93.72,1.05-5.31,1.76-10.68,2.13-16.08-1.64-.24-3.29-.48-4.93-.72Z"/><path class="cls-7" d="M344.35,71.75c-.39,5.07-1.08,10.12-2.06,15.11,1.64.24,3.29.48,4.93.72.99-4.99,1.68-10.03,2.06-15.11-1.64-.24-3.29-.48-4.93-.72Z"/><path class="cls-7" d="M335.09,63.38c-1.64-.24-3.29-.48-4.93-.72-.16,7.42-.97,14.82-2.4,22.09,1.64.24,3.29.48,4.93.72,1.44-7.27,2.24-14.66,2.4-22.09Z"/><path class="cls-7" d="M322.35,71.01c-.41,4.26-1.03,8.49-1.85,12.69,1.64.24,3.29.48,4.93.72.83-4.2,1.45-8.43,1.86-12.69-1.64-.24-3.29-.48-4.93-.72Z"/><path class="cls-7" d="M337.37,65.69c-.25,6.76-1.04,13.49-2.35,20.12,1.64.24,3.29.48,4.93.72,1.31-6.63,2.1-13.36,2.35-20.12-1.64-.24-3.29-.48-4.93-.72Z"/><path class="cls-4" d="M369.32,143.18c-11.16-10.02-22.31-20.04-33.47-30.06,13.07-14.86,23.74-31.7,31.62-49.91,13.67,6.05,27.35,12.09,41.02,18.14-9.77,22.56-22.99,43.42-39.17,61.83Z"/><path class="cls-7" d="M368.44,70.99c-.72,1.52-1.46,3.03-2.23,4.54,10.86,5.62,21.72,11.24,32.58,16.86.91-1.79,1.79-3.59,2.65-5.4-11-5.33-22-10.66-33-16Z"/><path class="cls-7" d="M372.88,85.6c7.61,4.22,15.21,8.44,22.82,12.67.3-.55.59-1.09.88-1.64-7.64-4.16-15.28-8.32-22.92-12.48-.26.49-.52.97-.78,1.45Z"/><path class="cls-7" d="M370.79,89.35c7.52,4.38,15.03,8.77,22.55,13.15.31-.54.61-1.08.92-1.62-7.55-4.32-15.1-8.64-22.66-12.96-.27.48-.54.96-.81,1.44Z"/><path class="cls-7" d="M368.63,93.05c7.42,4.54,14.85,9.08,22.27,13.63.32-.53.64-1.07.95-1.6-7.46-4.48-14.92-8.96-22.38-13.44-.28.47-.56.95-.84,1.42Z"/><path class="cls-7" d="M357.47,90.98c10.3,6.61,20.6,13.21,30.91,19.82.33-.53.66-1.05.98-1.58-10.35-6.52-20.71-13.04-31.06-19.56-.27.44-.55.89-.83,1.33Z"/><path class="cls-7" d="M355.27,94.4c10.16,6.82,20.32,13.65,30.49,20.47.34-.52.68-1.04,1.02-1.56-10.22-6.74-20.43-13.48-30.65-20.22-.28.44-.57.87-.85,1.31Z"/><path class="cls-7" d="M353,97.77c10.02,7.04,20.04,14.08,30.05,21.11.35-.51.7-1.02,1.05-1.54-10.07-6.96-20.15-13.91-30.22-20.87-.29.43-.58.86-.88,1.29Z"/><path class="cls-7" d="M350.67,101.09c9.87,7.25,19.74,14.5,29.61,21.75.36-.5.72-1.01,1.08-1.51-9.93-7.17-19.85-14.34-29.78-21.51-.3.42-.6.85-.91,1.27Z"/><path class="cls-7" d="M348.26,104.36c9.72,7.46,19.43,14.92,29.15,22.37.37-.5.74-.99,1.11-1.49-9.78-7.38-19.55-14.76-29.33-22.13-.31.42-.62.84-.93,1.25Z"/><path class="cls-7" d="M345.79,107.58c9.56,7.66,19.12,15.33,28.67,22.99.38-.49.76-.98,1.14-1.47-9.62-7.58-19.24-15.17-28.86-22.75-.32.41-.64.82-.96,1.23Z"/><path class="cls-7" d="M343.25,110.75c9.4,7.86,18.79,15.73,28.19,23.59.39-.48.78-.96,1.17-1.44-9.46-7.79-18.92-15.58-28.38-23.36-.33.41-.66.81-.99,1.21Z"/><path class="cls-7" d="M365.4,88.66c-.18.69-.36,1.38-.55,2.08.68.41,1.35.83,2.03,1.24.9-3.42,1.7-6.84,2.41-10.25-.75-.41-1.5-.82-2.25-1.22-2.43,2.43-4.92,4.77-7.44,7.02.55.34,1.1.67,1.65,1.01.51-.48,1.03-.95,1.54-1.44.87.52,1.75,1.04,2.62,1.57ZM366.73,83.26c-.27,1.18-.56,2.36-.85,3.54-.58-.34-1.15-.67-1.73-1.01.86-.83,1.72-1.68,2.58-2.53Z"/><polygon class="cls-19" points="197.05 36.36 198.7 37.88 198.85 36.05 197.05 36.36"/><polygon class="cls-20" points="199.18 31.18 195.12 36.82 197.05 36.36 198.7 37.88 197.96 36.37 200.45 36.19 199.18 31.18"/><polygon class="cls-3" points="197.05 36.36 198.7 37.88 197.96 36.37 199.12 31.4 197.05 36.36"/><path class="cls-7" d="M181.9,54.85l-.09-.36c.74-.18,1.44-.39,2.08-.63l.13.35c-.66.24-1.37.46-2.12.65ZM185.87,52.95c.65-.36,1.25-.78,1.78-1.23l.24.28c-.55.47-1.17.9-1.84,1.27l-.18-.32ZM177.52,55.48v-.37c.66-.02,1.37-.08,2.16-.2l.05.37c-.8.12-1.52.19-2.21.21ZM189.12,50.13c.43-.6.78-1.24,1.03-1.9l.34.13c-.27.69-.63,1.36-1.08,1.98l-.3-.22ZM173.16,54.62l.17-.33c.6.31,1.28.54,2.03.67l-.06.36c-.78-.14-1.5-.38-2.13-.71ZM191.27,46.29c.54-.25,1.1-.56,1.71-.94.06-.04.13-.08.19-.12l.19.31c-.06.04-.13.08-.19.12-.63.39-1.2.7-1.75.96l-.15-.34ZM187.75,47.48c-.23,0-.47-.03-.71-.08l.06-.36c.22.04.44.06.65.07.47.01.96-.03,1.46-.13l.07.36c-.53.11-1.05.15-1.55.14ZM190.64,46.12c.06-.74,0-1.48-.18-2.14l.35-.1c.19.7.25,1.48.19,2.27l-.36-.03ZM194.95,43.96c.59-.48,1.12-.99,1.58-1.5l.27.25c-.47.53-1.01,1.05-1.62,1.54l-.23-.29ZM184.18,45.9c-.29-.31-.54-.69-.7-1.1l.34-.14c.14.36.36.7.62.98.2.22.44.42.71.6l-.2.31c-.29-.2-.55-.42-.77-.65ZM197.78,40.69c.36-.65.62-1.33.77-2.01l.36.08c-.16.72-.43,1.43-.81,2.11l-.32-.18ZM188.45,41.54c-.27-.1-.57-.18-.89-.23l.05-.37c.35.05.67.14.97.25.41.16.79.4,1.1.7l-.25.27c-.28-.27-.61-.48-.98-.62ZM183.55,42.5c.3-.57.83-1.02,1.53-1.3.09-.04.19-.07.29-.1l.11.35c-.09.03-.18.06-.26.09-.62.25-1.07.63-1.34,1.13l-.32-.17Z"/><polygon class="cls-19" points="368.67 28.6 369.17 31.85 366.85 30.56 368.67 28.6"/><polygon class="cls-20" points="360.71 27.04 370.79 26.59 368.67 28.6 369.17 31.85 367.95 29.71 365.72 32.64 360.71 27.04"/><polygon class="cls-3" points="368.67 28.6 369.17 31.85 367.95 29.71 361.01 27.14 368.67 28.6"/><path class="cls-7" d="M374.59,57.86l.19-.4c.79.39,1.64.67,2.46.8l-.07.44c-.86-.15-1.76-.44-2.59-.84ZM379.8,58.22c.45-.11.86-.27,1.24-.48.36-.2.7-.44,1.02-.69l.28.35c-.34.27-.7.52-1.08.74-.41.24-.87.41-1.35.53l-.1-.44ZM399,56.84l.33-.3c.59.68,1.16,1.38,1.7,2.09l-.35.27c-.54-.7-1.1-1.4-1.68-2.06ZM371.09,54.68c-.1-.21-.19-.43-.27-.65l.42-.15c.07.21.16.41.25.61.25.52.64,1.03,1.16,1.52l-.3.33c-.55-.52-.97-1.08-1.25-1.65ZM383.77,55.1c.45-.73.78-1.54.99-2.41l.43.11c-.22.92-.57,1.77-1.04,2.54l-.38-.24ZM395.28,53.04l.3-.33c.66.6,1.32,1.23,1.94,1.86l-.32.32c-.62-.63-1.26-1.25-1.92-1.84ZM370.39,51.14c.03-.86.17-1.72.44-2.55l.42.14c-.25.79-.4,1.6-.42,2.42,0,.05,0,.1,0,.16h-.44c0-.06,0-.11,0-.17ZM391.13,49.72l.25-.37c.73.51,1.45,1.06,2.14,1.61l-.28.35c-.69-.55-1.4-1.09-2.12-1.6ZM384.63,47.47l.43-.11c.23.91.36,1.82.39,2.7h-.44c-.03-.83-.15-1.71-.38-2.59ZM386.62,46.92l.21-.4c.78.42,1.56.87,2.32,1.35l-.23.38c-.75-.47-1.52-.91-2.3-1.33ZM372.07,46.15c.57-.76,1.25-1.39,2.02-1.86l.23.38c-.72.44-1.36,1.02-1.89,1.74l-.35-.27ZM381.87,44.71l-.05-.02.16-.42.05.02c.81.32,1.62.66,2.41,1.03l-.19.41c-.78-.36-1.59-.71-2.38-1.02ZM382.48,42.66l.37-.24c.5.79.94,1.59,1.3,2.38l-.4.19c-.35-.78-.78-1.56-1.27-2.32ZM376.73,43.82l-.06-.44c.85-.12,1.75-.09,2.72.1l-.08.44c-.92-.18-1.77-.21-2.57-.1ZM379.13,38.55l.31-.32c.65.65,1.26,1.32,1.82,1.99l-.34.29c-.54-.66-1.14-1.32-1.79-1.96ZM377,36.62c-.68-.57-1.31-1.06-1.91-1.52l.27-.36c.6.46,1.23.96,1.92,1.53l.17.14-.28.34-.17-.14ZM370.64,32.25l.2-.4c.77.39,1.53.84,2.33,1.35l-.24.38c-.78-.5-1.53-.94-2.29-1.33Z"/><path class="cls-13" d="M305.41,80.5c-2.48,0-4.48-2-4.48-4.48,0-1.12.42-2.15,1.1-2.93h-11.08v-11.07c.79.68,1.81,1.1,2.94,1.1,2.48,0,4.48-2,4.48-4.48s-2.01-4.48-4.48-4.48c-1.13,0-2.15.42-2.94,1.1v-11.07h28.92v28.89h-11.08c.69.79,1.1,1.81,1.1,2.93,0,2.47-2.01,4.48-4.48,4.48Z"/><path class="cls-13" d="M290.95,101.98h-28.92v-28.89h11.08c-.69-.79-1.1-1.81-1.1-2.93,0-2.47,2.01-4.48,4.48-4.48s4.48,2,4.48,4.48c0,1.12-.42,2.15-1.1,2.93h11.08v11.07c-.79-.68-1.81-1.1-2.94-1.1-2.48,0-4.48,2-4.48,4.48s2.01,4.48,4.48,4.48c1.13,0,2.15-.42,2.94-1.1v11.07Z"/><path class="cls-16" d="M276.49,65.68c-2.48,0-4.48,2-4.48,4.48,0,1.12.42,2.15,1.1,2.93h-11.08v-28.89h28.92v11.07c.79-.69,1.81-1.1,2.94-1.1,2.48,0,4.48,2,4.48,4.48s-2.01,4.48-4.48,4.48c-1.13,0-2.15-.42-2.94-1.1v11.07h-11.08c.69-.79,1.1-1.81,1.1-2.93,0-2.47-2.01-4.48-4.48-4.48Z"/><path class="cls-6" d="M259.16,97.37s.02-.08.05-.21h0c.08-.31.22-.9.36-1.64,0-.03.01-.07.02-.11.01-.08.03-.15.04-.23.39-2.06.72-4.89-.18-5.49-1.46-.97-4.86-.81-4.86-.81l-3.51.8-1,3.8,1.4,1.31s.04-.01.12-.03h0c.11-.02.29-.06.51-.11.85-.17,2.29-.43,2.51-.3.23.14.52,1.74.43,2.64-.04.35.08.59.08.59l3.6-.19.42-.02Z"/><path class="cls-10" d="M255.05,97.12c.13-1.07-.19-2.62-.42-2.76-.28-.17-2.47.29-3.02.4.44,1,1.97,2.11,3.44,2.36Z"/><path class="cls-18" d="M258.74,97.39l.47-.24h0c.08-.32.41-1.95.56-2.73-2.2,1.4-4.7,2.4-4.7,2.4-.04.35.06.75.06.75l3.6-.19Z"/><path class="cls-18" d="M254.8,88.87c-1.56,1.08-3.56,2.89-3.26,5.68,0,.06.03.13.06.21h0c.11-.02.38-.08.38-.08-.51-3.46,3.52-5.81,3.52-5.81h-.71Z"/><path class="cls-15" d="M212.2,150.84c5.2.76,10.4,1.53,15.6,2.29,13.08-22.84,18.76-32.82,19.01-33.37,0-.01.08-.18.19-.42.22-.46.42-.9.62-1.31.01-.03.03-.06.04-.09.31-.64.59-1.22.83-1.7t0,0c.1-.21.2-.39.29-.56.19-.37.35-.66.47-.86.09-.15.16-.24.21-.29,0,0,0,0,0,0,.98-.85,3.89-2.11,5.12-3.36,1.23-1.25,1.87-3.53,3.29-5.65,1.15-1.71,4.79-5.59,7.24-7.7.59-.5,1.1-.91,1.5-1.16.02,0,.03-.02.04-.02.07-.05.14-.09.22-.14.28-.17.59-.35.93-.52.12-.06.24-.13.35-.18.81-.42,1.41-1.34,1.41-1.34,0,0,.28-.73-.19-1.27-2.16-2.53-4.66-1.68-7.11-.12-2.47,1.56-4.88,3.83-6.84,4.08-.11.01-.23.01-.36,0,0,0-.01,0-.02,0-.09-.01-.18-.03-.28-.06-.04,0-.07-.02-.11-.03-1.02-.33-2.33-1.28-2.87-1.98-.06-.08-.11-.15-.15-.22-.01-.02-.02-.05-.04-.06-.02-.05-.04-.1-.05-.14,0-.02,0-.04-.01-.07,0-.1-.75-3.11,3.51-5.85.64-.41,1.29-.73,1.29-.73,0,0,2.95.63,5.69,1.12v-4.48l-7.21-2.27-11.52,6.72s-1.4.38-1.68.84c-.74,1.22-.91,2.76-.91,2.76l-3.68,15.24-.07.29-.11.46h0s0,.01,0,.01l-.03.05h0s-.24.43-.24.43l-.32.55h0s-24.03,41.13-24.03,41.13Z"/><path class="cls-2" d="M238.38,108.62s3.58-16.02,4.26-17.24c.68-1.22,12.1-8.2,12.1-8.2l7.3,1.42-7.21-2.27-11.52,6.72s-1.4.38-1.68.84c-.74,1.22-.91,2.76-.91,2.76l-3.75,15.53,1.43.43Z"/><path class="cls-6" d="M249.47,114.53c.98-.85,3.89-2.12,5.12-3.36,1.23-1.25,1.86-3.53,3.29-5.65,1.42-2.12,6.66-7.56,8.74-8.86l-.87-.33s-4.18,3.58-6.35,5.78c-2.17,2.2-4.41,6.6-5.64,8.33-1.23,1.73-6.06,3.15-6.06,3.15l1.77.94Z"/><path class="cls-5" d="M265.75,96.32s2.15-1.01,2.41-1.2c.26-.19,1.41-.67,1.41-.67-2.37-1.93-4.78-.64-4.78-.64,0,0-.21,1.74.96,2.52Z"/><path class="cls-22" d="M266.62,96.66s.03-.02.04-.02c.19-.11.98-.58,1.49-.84.82-.42,1.25-.88,1.42-1.34,0,0-1.15.48-1.41.67-.25.19-2.41,1.2-2.41,1.2.23.16.52.27.87.33Z"/><path class="cls-9" d="M208.7,153.42c7.06.03,14.12.06,21.18.1,7-12,14-24.01,21-36.01l-.89-.47h0s-1.49-.8-1.49-.8l-1.14-.6-9.7-5.16-1.4-.74-.03-.02h-.02s-.87-.48-.87-.48l-.04-.02-.89-.47c-8.57,14.89-17.14,29.79-25.71,44.68Z"/><polygon class="cls-7" points="249.99 117.03 249.99 117.03 250 117.03 250.29 116.47 250.92 115.3 237.19 107.99 236.27 107.5 235.64 108.67 235.34 109.23 236.17 109.67 236.27 109.72 238.73 111.03 243.53 113.59 249.99 117.03"/><rect class="cls-11" x="235.27" y="108.06" width="1.96" height="1.09" transform="translate(29.34 266.07) rotate(-61.96)"/><path class="cls-1" d="M208.7,153.42c.66,0,1.32.01,1.98.02,8.53-14.57,17.06-29.14,25.58-43.71h0s-.03-.02-.03-.02h-.02s-.87-.47-.87-.47l-.04-.02-.89-.47c-8.57,14.89-17.14,29.79-25.71,44.68Z"/><rect class="cls-21" x="242.48" y="104.52" width=".63" height="16.64" transform="translate(28.93 273.91) rotate(-61.91)"/><path class="cls-1" d="M248.22,118.07c.55.29.75.97.46,1.52-.29.55-.97.75-1.52.46-.55-.29-.75-.97-.46-1.52.29-.55.97-.75,1.52-.46Z"/><path class="cls-9" d="M247.99,118.13c.39.21.54.69.33,1.08-.21.39-.69.54-1.08.33-.39-.21-.54-.69-.33-1.08s.69-.54,1.08-.33Z"/><path class="cls-6" d="M259.16,48.82s.02.08.05.21h0c.08.31.22.9.36,1.64,0,.03.01.07.02.11.01.08.03.15.04.23.39,2.06.72,4.89-.18,5.49-1.46.97-4.86.81-4.86.81l-3.51-.8-1-3.8,1.4-1.31s.04.01.12.03h0c.11.02.29.06.51.11.85.17,2.29.43,2.51.3.23-.14.52-1.74.43-2.64-.04-.35.08-.59.08-.59l3.6.19.42.02Z"/><path class="cls-10" d="M255.05,49.07c.13,1.07-.19,2.62-.42,2.76-.28.17-2.47-.29-3.02-.4.44-1,1.97-2.11,3.44-2.36Z"/><path class="cls-18" d="M258.74,48.8l.47.24h0c.08.32.41,1.95.56,2.73-2.2-1.4-4.7-2.4-4.7-2.4-.04-.35.06-.75.06-.75l3.6.19Z"/><path class="cls-18" d="M254.8,57.31c-1.56-1.08-3.56-2.89-3.26-5.68,0-.06.03-.13.06-.21h0c.11.02.38.08.38.08-.51,3.46,3.52,5.81,3.52,5.81h-.71Z"/><path class="cls-15" d="M215.74.23c5.07-.03,10.14-.06,15.21-.1,11,18.09,15.61,25.76,15.86,26.3,0,.01.08.18.19.42.22.46.42.9.62,1.31.01.03.03.06.04.09.31.64.59,1.22.83,1.7t0,0c.1.21.2.39.29.56.19.37.35.66.47.86.09.15.16.24.21.28,0,0,0,0,0,0,.98.85,3.89,2.11,5.12,3.36,1.23,1.25,1.87,3.53,3.29,5.65,1.15,1.71,4.79,5.59,7.24,7.7.59.5,1.1.91,1.5,1.16.02,0,.03.02.04.02.07.05.14.09.22.14.28.17.59.35.93.52.12.06.24.13.35.18.81.42,1.41,1.34,1.41,1.34,0,0,.28.73-.19,1.27-2.16,2.53-4.66,1.68-7.11.12-2.47-1.56-4.88-3.83-6.84-4.08-.11-.01-.23-.01-.36,0,0,0-.01,0-.02,0-.09.01-.18.03-.28.06-.04,0-.07.02-.11.03-1.02.33-2.33,1.28-2.87,1.98-.06.08-.11.15-.15.22-.01.02-.02.05-.04.06-.02.05-.04.1-.05.14,0,.02,0,.04-.01.07,0,.1-.75,3.11,3.51,5.85.64.41,1.29.73,1.29.73,0,0,2.95-.63,5.69-1.12v4.48l-7.21,2.27-11.52-6.72s-1.4-.38-1.68-.84c-.74-1.22-.91-2.76-.91-2.76l-3.68-15.24-.07-.29-.11-.46h0s0-.01,0-.01l-.03-.05h0s-.24-.43-.24-.43l-.32-.55h0c-6.83-12.09-13.66-24.17-20.49-36.26Z"/><path class="cls-2" d="M238.38,37.56s3.58,16.02,4.26,17.24c.68,1.22,12.1,8.2,12.1,8.2l7.3-1.42-7.21,2.27-11.52-6.72s-1.4-.38-1.68-.84c-.74-1.22-.91-2.76-.91-2.76l-3.75-15.53,1.43-.43Z"/><path class="cls-6" d="M249.47,31.66c.98.85,3.89,2.12,5.12,3.36,1.23,1.25,1.86,3.53,3.29,5.65,1.42,2.12,6.66,7.56,8.74,8.86l-.87.33s-4.18-3.58-6.35-5.78c-2.18-2.2-4.41-6.6-5.64-8.33-1.23-1.73-6.06-3.15-6.06-3.15l1.77-.94Z"/><path class="cls-5" d="M265.75,49.86s2.15,1.01,2.41,1.2c.26.19,1.41.67,1.41.67-2.37,1.93-4.78.64-4.78.64,0,0-.21-1.74.96-2.52Z"/><path class="cls-22" d="M266.62,49.53s.03.02.04.02c.19.11.98.58,1.49.84.82.42,1.25.88,1.42,1.34,0,0-1.15-.48-1.41-.67-.25-.19-2.41-1.2-2.41-1.2.23-.16.52-.27.87-.33Z"/><path class="cls-13" d="M212.88,0c6.84.01,13.68.02,20.52.03,5.83,9.55,11.66,19.1,17.48,28.65l-.89.47h0s-1.49.8-1.49.8l-1.14.6-9.7,5.16-1.4.74-.03.02h-.02s-.87.48-.87.48l-.04.02-.89.47C227.24,24.96,220.06,12.48,212.88,0Z"/><polygon class="cls-7" points="250 29.15 250 29.15 250 29.15 250.29 29.71 250.92 30.88 237.19 38.19 236.27 38.69 235.64 37.52 235.34 36.96 236.17 36.51 236.27 36.46 238.73 35.15 243.53 32.59 250 29.15"/><rect class="cls-11" x="235.7" y="36.6" width="1.09" height="1.96" transform="translate(10.06 115.46) rotate(-28.04)"/><path class="cls-8" d="M212.88,0h2.46c6.97,12.16,13.95,24.31,20.92,36.46h0s-.03.02-.03.02h-.02s-.87.47-.87.47l-.04.02-.89.47C227.24,24.96,220.06,12.48,212.88,0Z"/><rect class="cls-21" x="242.48" y="25.02" width=".63" height="16.64" transform="translate(157.92 -196.57) rotate(61.92)"/><path class="cls-8" d="M248.22,28.11c.55-.29.75-.97.46-1.52s-.97-.75-1.52-.46c-.55.29-.75.97-.46,1.52.29.55.97.75,1.52.46Z"/><path class="cls-13" d="M247.99,28.06c.39-.21.54-.69.33-1.08-.21-.39-.69-.54-1.08-.33s-.54.69-.33,1.08c.21.39.69.54,1.08.33Z"/><path class="cls-6" d="M322.73,48.82s-.02.08-.05.21h0c-.08.31-.22.9-.36,1.64,0,.03-.01.07-.02.11-.01.08-.03.15-.04.23-.39,2.06-.72,4.89.18,5.49,1.46.97,4.86.81,4.86.81l3.51-.8,1-3.8-1.4-1.31s-.04.01-.12.03h0c-.11.02-.29.06-.51.11-.85.17-2.29.43-2.51.3-.23-.14-.52-1.74-.43-2.64.04-.35-.08-.59-.08-.59l-3.6.19-.42.02Z"/><path class="cls-10" d="M326.85,49.07c-.13,1.07.19,2.62.42,2.76.28.17,2.47-.29,3.02-.4-.44-1-1.97-2.11-3.44-2.36Z"/><path class="cls-18" d="M323.15,48.8l-.47.24h0c-.08.32-.41,1.95-.56,2.73,2.2-1.4,4.7-2.4,4.7-2.4.04-.35-.06-.75-.06-.75l-3.6.19Z"/><path class="cls-18" d="M327.1,57.31c1.56-1.08,3.56-2.89,3.26-5.68,0-.06-.03-.13-.06-.21h0c-.11.02-.38.08-.38.08.51,3.46-3.52,5.81-3.52,5.81h.71Z"/><path class="cls-15" d="M366.33.43c-5.54-.13-11.08-.26-16.62-.39-10.13,18.16-14.38,25.84-14.63,26.38,0,.01-.08.18-.19.42-.22.46-.42.9-.62,1.31-.01.03-.03.06-.04.09-.31.64-.59,1.22-.83,1.7t0,0c-.1.21-.2.39-.29.56-.19.37-.35.66-.47.86-.09.15-.16.24-.21.28,0,0,0,0,0,0-.98.85-3.89,2.11-5.12,3.36-1.23,1.25-1.87,3.53-3.29,5.65-1.15,1.71-4.79,5.59-7.24,7.7-.59.5-1.1.91-1.5,1.16-.02,0-.03.02-.04.02-.07.05-.14.09-.22.14-.28.17-.59.35-.93.52-.12.06-.24.13-.35.18-.81.42-1.41,1.34-1.41,1.34,0,0-.28.73.19,1.27,2.16,2.53,4.66,1.68,7.11.12,2.47-1.56,4.88-3.83,6.84-4.08.11-.01.23-.01.36,0,0,0,.01,0,.02,0,.09.01.18.03.28.06.04,0,.07.02.11.03,1.02.33,2.33,1.28,2.87,1.98.06.08.11.15.15.22.01.02.02.05.04.06.02.05.04.1.05.14,0,.02,0,.04.01.07,0,.1.75,3.11-3.51,5.85-.64.41-1.29.73-1.29.73,0,0-2.95-.63-5.69-1.12v4.48l7.21,2.27,11.52-6.72s1.4-.38,1.68-.84c.74-1.22.91-2.76.91-2.76l3.68-15.24.07-.29.11-.46h0s0-.01,0-.01l.03-.05h0s.24-.43.24-.43l.32-.55h0c6.89-12.02,13.78-24.03,20.67-36.05Z"/><path class="cls-2" d="M343.52,37.56s-3.58,16.02-4.26,17.24c-.68,1.22-12.1,8.2-12.1,8.2l-7.3-1.42,7.21,2.27,11.52-6.72s1.4-.38,1.68-.84c.74-1.22.91-2.76.91-2.76l3.75-15.53-1.43-.43Z"/><path class="cls-6" d="M332.43,31.66c-.98.85-3.89,2.12-5.12,3.36-1.23,1.25-1.86,3.53-3.29,5.65-1.42,2.12-6.66,7.56-8.74,8.86l.87.33s4.18-3.58,6.35-5.78c2.18-2.2,4.41-6.6,5.64-8.33,1.23-1.73,6.06-3.15,6.06-3.15l-1.77-.94Z"/><path class="cls-5" d="M316.15,49.86s-2.15,1.01-2.41,1.2c-.26.19-1.41.67-1.41.67,2.37,1.93,4.78.64,4.78.64,0,0,.21-1.74-.96-2.52Z"/><path class="cls-22" d="M315.27,49.53s-.03.02-.04.02c-.19.11-.98.58-1.49.84-.82.42-1.25.88-1.42,1.34,0,0,1.15-.48,1.41-.67.25-.19,2.41-1.2,2.41-1.2-.23-.16-.52-.27-.87-.33Z"/><path class="cls-13" d="M368.96,0h-21.18c-5.59,9.56-11.18,19.12-16.77,28.68l.89.47h0s1.49.8,1.49.8l1.14.6,9.7,5.16,1.4.74.03.02h.02s.87.48.87.48l.04.02.89.47C354.64,24.96,361.8,12.48,368.96,0Z"/><polygon class="cls-7" points="331.9 29.15 331.9 29.15 331.9 29.15 331.6 29.71 330.98 30.88 344.71 38.19 345.63 38.69 346.26 37.52 346.55 36.96 345.73 36.51 345.63 36.46 343.17 35.15 338.37 32.59 331.9 29.15"/><rect class="cls-11" x="344.67" y="37.04" width="1.96" height="1.09" transform="translate(150 325) rotate(-61.96)"/><path class="cls-8" d="M368.96,0c-.74,0-1.48,0-2.22,0-7.04,12.15-14.08,24.31-21.11,36.46h0s.03.02.03.02h.02s.87.47.87.47l.04.02.89.47C354.64,24.96,361.8,12.48,368.96,0Z"/><rect class="cls-21" x="338.78" y="25.02" width=".63" height="16.64" transform="translate(528.18 -250.11) rotate(118.09)"/><path class="cls-8" d="M333.68,28.11c-.55-.29-.75-.97-.46-1.52s.97-.75,1.52-.46c.55.29.75.97.46,1.52-.29.55-.97.75-1.52.46Z"/><path class="cls-13" d="M333.9,28.06c-.39-.21-.54-.69-.33-1.08.21-.39.69-.54,1.08-.33s.54.69.33,1.08-.69.54-1.08.33Z"/><path class="cls-16" d="M294.23,98.23c0-2.47,2.01-4.48,4.48-4.48,1.12,0,2.15.42,2.94,1.1v-11.07h11.08c-.69.79-1.1,1.81-1.1,2.94,0,2.47,2.01,4.48,4.48,4.48s4.48-2,4.48-4.48c0-1.13-.42-2.15-1.1-2.94h11.08v28.89h-28.92v-11.07c-.79.68-1.81,1.1-2.94,1.1-2.48,0-4.48-2-4.48-4.48Z"/><path class="cls-6" d="M333.43,105.95s-.02-.08-.05-.21h0c-.08-.31-.22-.9-.36-1.64,0-.03-.01-.07-.02-.11-.01-.08-.03-.15-.04-.23-.39-2.06-.72-4.89.18-5.49,1.46-.97,4.86-.81,4.86-.81l3.51.8,1,3.8-1.4,1.31s-.04-.01-.12-.03h0c-.11-.02-.29-.06-.51-.11-.85-.17-2.29-.43-2.51-.3-.23.14-.52,1.74-.43,2.64.04.35-.08.59-.08.59l-3.6-.19-.42-.02Z"/><path class="cls-10" d="M337.54,105.7c-.13-1.07.19-2.62.42-2.76.28-.17,2.47.29,3.02.4-.44,1-1.97,2.11-3.44,2.36Z"/><path class="cls-18" d="M333.85,105.97l-.47-.24h0c-.08-.32-.41-1.95-.56-2.73,2.2,1.4,4.7,2.4,4.7,2.4.04.35-.06.75-.06.75l-3.6-.19Z"/><path class="cls-18" d="M337.8,97.46c1.56,1.08,3.56,2.89,3.26,5.68,0,.06-.03.13-.06.21h0c-.11-.02-.38-.08-.38-.08.51-3.46-3.52-5.81-3.52-5.81h.71Z"/><path class="cls-15" d="M376.87,153.11c-5.75.06-11.5.13-17.24.19-9.61-17.21-13.6-24.42-13.85-24.96,0-.01-.08-.18-.19-.42-.22-.46-.42-.9-.62-1.31-.01-.03-.03-.06-.04-.09-.31-.64-.59-1.22-.83-1.7t0,0c-.1-.21-.2-.39-.29-.56-.19-.37-.35-.66-.47-.86-.09-.15-.16-.24-.21-.29,0,0,0,0,0,0-.98-.85-3.89-2.11-5.12-3.36-1.23-1.25-1.87-3.53-3.29-5.65-1.15-1.71-4.79-5.59-7.24-7.7-.59-.5-1.1-.91-1.5-1.16-.02,0-.03-.02-.04-.02-.07-.05-.14-.09-.22-.14-.28-.17-.59-.35-.93-.52-.12-.06-.24-.13-.35-.18-.81-.42-1.41-1.34-1.41-1.34,0,0-.28-.73.19-1.27,2.16-2.53,4.66-1.68,7.11-.12,2.47,1.56,4.88,3.83,6.84,4.08.11.01.23.01.36,0,0,0,.01,0,.02,0,.09-.01.18-.03.28-.06.04,0,.07-.02.11-.03,1.02-.33,2.33-1.28,2.87-1.98.06-.08.11-.15.15-.22.01-.02.02-.05.04-.06.02-.05.04-.1.05-.14,0-.02,0-.04.01-.07,0-.1.75-3.11-3.51-5.85-.64-.41-1.29-.73-1.29-.73,0,0-2.95.63-5.69,1.12v-4.48l7.21-2.27,11.52,6.72s1.4.38,1.68.84c.74,1.22.91,2.76.91,2.76l3.68,15.24.07.29.11.46h0s0,.01,0,.01l.03.05h0s.24.43.24.43l.32.55h0c6.84,11.61,13.67,23.21,20.51,34.82Z"/><path class="cls-2" d="M354.22,117.21s-3.58-16.02-4.26-17.24c-.68-1.22-12.1-8.2-12.1-8.2l-7.3,1.42,7.21-2.27,11.52,6.72s1.4.38,1.68.84c.74,1.22.91,2.76.91,2.76l3.75,15.53-1.43.43Z"/><path class="cls-6" d="M343.12,123.11c-.98-.85-3.89-2.12-5.12-3.36-1.23-1.25-1.86-3.53-3.29-5.65-1.42-2.12-6.66-7.56-8.74-8.86l.87-.33s4.18,3.58,6.35,5.78c2.18,2.2,4.41,6.6,5.64,8.33,1.23,1.73,6.06,3.15,6.06,3.15l-1.77.94Z"/><path class="cls-5" d="M326.84,104.91s-2.15-1.01-2.41-1.2c-.26-.19-1.41-.67-1.41-.67,2.37-1.93,4.78-.64,4.78-.64,0,0,.21,1.74-.96,2.52Z"/><path class="cls-22" d="M325.97,105.24s-.03-.02-.04-.02c-.19-.11-.98-.58-1.49-.84-.82-.42-1.25-.88-1.42-1.34,0,0,1.15.48,1.41.67.25.19,2.41,1.2,2.41,1.2-.23.16-.52.27-.87.33Z"/><path class="cls-9" d="M378.88,153.42c-7.07,0-14.14,0-21.21,0-5.32-9.11-10.64-18.22-15.96-27.33l.89-.47h0s1.49-.8,1.49-.8l1.14-.6,9.7-5.16,1.4-.74.03-.02h.02s.87-.48.87-.48l.04-.02.89-.47c6.9,12.03,13.8,24.07,20.7,36.1Z"/><polygon class="cls-7" points="342.6 125.62 342.6 125.62 342.6 125.62 342.3 125.06 341.68 123.89 355.41 116.57 356.33 116.08 356.95 117.25 357.25 117.81 356.42 118.25 356.33 118.3 353.87 119.62 349.06 122.17 342.6 125.62"/><rect class="cls-11" x="355.8" y="116.2" width="1.09" height="1.96" transform="translate(-13.26 181.25) rotate(-28.04)"/><path class="cls-1" d="M378.88,153.42c-.8,0-1.59,0-2.39,0-6.72-11.7-13.44-23.41-20.16-35.11h0s.03-.02.03-.02h.02s.87-.47.87-.47l.04-.02.89-.47c6.9,12.03,13.8,24.07,20.7,36.1Z"/><rect class="cls-21" x="349.48" y="113.1" width=".63" height="16.64" transform="translate(407.35 487.2) rotate(-118.09)"/><path class="cls-1" d="M344.38,126.65c-.55.29-.75.97-.46,1.52.29.55.97.75,1.52.46s.75-.97.46-1.52c-.29-.55-.97-.75-1.52-.46Z"/><path class="cls-9" d="M344.6,126.71c-.39.21-.54.69-.33,1.08s.69.54,1.08.33.54-.69.33-1.08c-.21-.39-.69-.54-1.08-.33Z"/></g></svg>