<?xml version="1.0" encoding="UTF-8"?><svg xmlns="http://www.w3.org/2000/svg" xmlns:xlink="http://www.w3.org/1999/xlink" viewBox="0 0 430 153.67"><defs><style>.cls-1{opacity:.68;}.cls-2{opacity:.36;}.cls-2,.cls-3,.cls-4,.cls-5,.cls-6,.cls-7,.cls-8,.cls-9,.cls-10,.cls-11,.cls-12,.cls-13,.cls-14,.cls-15{stroke-width:0px;}.cls-2,.cls-16,.cls-15{fill:#d7af80;}.cls-17{isolation:isolate;}.cls-3,.cls-18{fill:#f4b7a5;}.cls-19,.cls-9{fill:#fabc41;}.cls-4{fill:#211010;}.cls-20{clip-path:url(#clippath-1);}.cls-21{clip-path:url(#clippath-4);}.cls-5{fill:#a57e58;}.cls-6{fill:#af4653;mix-blend-mode:multiply;}.cls-7{fill:#f7af2f;}.cls-8,.cls-10{fill:#fff;}.cls-10{mix-blend-mode:soft-light;}.cls-11{fill:#a13941;}.cls-22{clip-path:url(#clippath-3);}.cls-12{fill:#ffe4b3;}.cls-13{fill:#cc505f;}.cls-14{fill:#e39b85;}</style><clipPath id="clippath-1"><polygon class="cls-15" points="296.3 55.44 245.88 98.21 245.88 153.67 346.74 153.67 346.74 98.21 296.3 55.44"/></clipPath><clipPath id="clippath-3"><path class="cls-3" d="M371.65,30.01c-2.59,2.49-4.24,4.41-4.41,5.48-.9,5.5-6.46,7.67-6.46,7.67-1.03,2.96-7.4,8.06-7.4,8.06,0,0-.39,2.07-.92,2.26s-6.4-5.43-6.68-5.82c-.66-.95-.38-11.23.21-12.47.59-1.24,5.36-2.85,6.46-3.51,1.1-.66,9.7-6.83,9.7-6.83.61-.73,1.47-1.82,2.52-3.17l6.97,8.33Z"/></clipPath><clipPath id="clippath-4"><path class="cls-9" d="M365.22,66.58c-13.85,11.26-32.1-9.04-19.49-21.95,6.05-6.19,16.47-5.52,21.85,1.23,4.71,5.91,3.92,14.72-1.48,19.93-.29.28-.59.54-.89.79Z"/></clipPath></defs><g class="cls-17"><g id="Layer_2"><g id="Layer_1-2"><rect class="cls-2" x="0" width="430" height="140"/><path class="cls-11" d="M24.22,72.02h1.38l.29,3.03c.65.19,1.36.29,2.06.29,2.42,0,3.56-1.24,3.56-2.91,0-1.09-.34-1.96-2.52-3.63-2.47-1.89-3.1-3.27-3.1-4.77,0-2.57,2.21-4.43,5.28-4.43,1.31,0,2.67.29,4.02,1.09l-.56,3.39h-1.43l-.15-2.98c-.65-.24-1.11-.29-1.6-.29-2.37,0-3.73.9-3.73,2.69,0,1.28.65,2.23,2.37,3.54,2.74,2.13,3.34,3.39,3.34,4.87,0,2.81-2.18,4.65-5.4,4.65-1.45,0-3.27-.41-4.29-1.09l.46-3.44Z"/><path class="cls-11" d="M38,76.14c-.44,2.08-.7,3.47-.9,4.68l2.23.36-.19.82h-6.13l.17-.82,2.08-.34,3.05-14.39-2.4-.14.1-.7,4.12-1.24.32.24-.58,2.71c1.48-1.84,3.42-2.96,4.8-2.96,1.19,0,2.21.8,2.21,2.98,0,4.1-4,9.16-7.49,9.16-.53,0-.97-.12-1.38-.36ZM39.6,68.51l-1.19,5.67c.65.48,1.28.68,1.84.68,1.21,0,2.33-.75,3.17-1.84.97-1.28,1.58-3.03,1.58-4.7,0-1.58-.56-2.33-1.48-2.33-.99,0-2.37.9-3.93,2.52Z"/><path class="cls-11" d="M54.35,75.1c0-.46.02-.85.1-1.28-1.41,1.6-2.93,2.69-4.24,2.69-1.16,0-2.3-.85-2.3-2.86,0-4.22,4.36-9.28,7.49-9.28.56,0,.99.24,1.38.65l1.11-.9.44.22-1.94,8.58c-.15.61-.22,1.12-.22,1.38,0,.34.27.53.58.53.61,0,1.53-.7,2.37-1.75l.58.46c-.94,1.41-2.47,2.96-4.09,2.96-.65,0-1.26-.44-1.26-1.41ZM51.25,74.83c.85,0,1.87-.58,3.47-2.33l1.31-6.08c-.46-.27-.97-.46-1.48-.46-.78,0-1.79.51-2.67,1.41-1.16,1.21-2.08,3.15-2.08,5.28,0,1.48.58,2.18,1.45,2.18Z"/><path class="cls-11" d="M67.09,75.24c0-.34,0-.75.17-1.6-1.45,1.7-3.15,2.86-4.48,2.86-1.16,0-2.18-.85-2.18-3.05,0-4.02,4.05-9.09,7.34-9.09.46,0,.82.12,1.19.36l.92-4.39-2.45-.17.1-.7,4.14-1.21.29.19-2.93,14.47c-.12.61-.19,1.12-.19,1.38,0,.34.27.53.56.53.63,0,1.55-.7,2.37-1.75l.58.46c-.95,1.41-2.45,2.96-4.07,2.96-.75,0-1.36-.41-1.36-1.26ZM63.99,74.83c.87,0,1.89-.63,3.54-2.47l1.16-5.82c-.48-.41-.99-.58-1.48-.58-1.04,0-2.08.58-2.91,1.5-1.09,1.21-1.84,3.1-1.84,5.06,0,1.6.65,2.3,1.53,2.3Z"/><path class="cls-11" d="M75.98,64.61c.29-1.43.56-2.86.8-4.29l-2.3-.15.1-.7,4.1-1.21.24.19-2.18,11.07,6.45-5.04c.51.02.87.48.87.99,0,.44-.34.78-1.24,1.26l-5.89,3.27.56.12c1.41.27,2.16,1.09,2.71,2.3l.7,1.53c.53,1.16.9,1.36,1.65,1.41l1.24.1-.12.73c-.73.24-1.19.32-1.72.32-1.14,0-1.94-.24-2.64-1.94l-.78-1.89c-.58-1.36-.94-1.79-1.79-2.04l-.22-.05-.1.51c-.34,1.7-.63,3.39-.92,5.09l-1.62.19-.22-.19,2.33-11.58Z"/><path class="cls-11" d="M84.65,72.24c0-4.36,2.88-7.88,6.32-7.88,2.28,0,3.93,1.5,3.93,4.24,0,4.22-2.81,7.9-6.23,7.9-2.23,0-4.02-1.5-4.02-4.26ZM92.94,68.97c0-2.62-.92-3.63-2.23-3.63-2.3,0-4.09,3-4.09,6.62,0,2.54.99,3.59,2.35,3.59,2.37,0,3.97-3.32,3.97-6.57Z"/><path class="cls-11" d="M96.89,74.49c0-1.02.24-2.18.56-3.8l2.06-10.35-2.4-.17.12-.7,4.19-1.21.27.19-1.87,9.01c1.48-1.94,3.37-3.1,4.8-3.1,1.19,0,2.21.8,2.21,2.98,0,4.1-4,9.16-7.95,9.16-1.07,0-1.99-.75-1.99-2.01ZM99.97,74.98c.99,0,1.96-.46,2.86-1.31,1.31-1.26,2.16-3.37,2.16-5.35,0-1.55-.56-2.33-1.45-2.33-1.07,0-2.4.95-3.95,2.64l-.34,1.67c-.39,1.84-.48,2.45-.48,3.37,0,.82.44,1.31,1.21,1.31Z"/><path class="cls-11" d="M109.19,73.5l1.48-7.05-2.4-.14.1-.7,4.12-1.24.31.24-1.72,8.31c-.12.61-.22,1.12-.22,1.38,0,.34.27.53.53.53.58,0,1.36-.58,2.33-1.75l.61.46c-1.09,1.45-2.35,2.96-4.07,2.96-.68,0-1.31-.41-1.31-1.24,0-.36.05-.78.24-1.77ZM111.49,59.71c0-.8.63-1.48,1.33-1.48.75,0,1.26.51,1.26,1.28s-.65,1.5-1.36,1.5-1.24-.51-1.24-1.31Z"/><path class="cls-11" d="M115.47,72c0-3.9,2.93-7.63,6.32-7.63,1.55,0,2.42.8,2.42,2.23,0,1.55-1.53,3.76-7.05,5.36.1,2.06,1.02,2.88,2.5,2.88s2.62-.95,3.27-1.77l.56.44c-1.02,1.65-2.59,3-4.39,3-2.11,0-3.63-1.41-3.63-4.51ZM117.16,71c4.02-1.16,5.43-2.86,5.43-4.17,0-.9-.53-1.43-1.33-1.43-1.5,0-3.85,2.57-4.09,5.6Z"/><path class="cls-11" d="M127.92,66.45l-2.4-.14.1-.7,4-1.24.32.24-.53,3.25c1.04-1.82,2.37-3.49,3.66-3.49.68,0,1.28.19,1.62.73-.02.8-.48,1.36-1.28,1.36-.41,0-.94-.27-1.43-.65-1.19.99-2.11,2.38-3,4.05l-.27,1.26c-.36,1.7-.65,3.37-.97,5.09l-1.62.19-.24-.19,2.06-9.74Z"/><path class="cls-11" d="M134.41,71.97c0-4.1,3.17-7.61,6.23-7.61,1.48,0,2.35.73,2.62,1.77-.1.61-.58.85-1.02.85-.53,0-.99-.39-1.43-.87l-.73-.82c-2.08.73-3.85,3.44-3.85,6.42,0,2.11,1.09,3.13,2.69,3.13,1.28,0,2.28-.95,2.96-1.77l.56.44c-.97,1.7-2.74,3-4.41,3-2.11,0-3.61-1.5-3.61-4.53Z"/><path class="cls-11" d="M140.97,80.6c.12-.7.63-1.09,1.31-1.09s1.26.34,1.96.85l.1.07c.75-.51,1.48-1.11,2.16-1.79.46-.46.87-.95,1.28-1.45-.19-2.83-.48-4.48-.9-7.73-.39-3.08-.51-3.42-.95-3.42-.41,0-.75.29-1.62,1.6l-.56-.39c.97-2.06,2.06-2.88,3.08-2.88.92,0,1.43.51,1.72,3.22.29,2.81.46,5.31.56,7.56,1.7-3.08,2.52-4.87,3.32-7.63.8-2.79,1.16-3.29,1.84-3.29.56,0,.9.34.9.82,0,.63-.12.99-.61,1.96-.51,1.04-1.02,2.06-1.94,3.71-.9,1.6-1.91,3.47-3.25,5.48-.63.95-1.28,1.96-2.3,3.05-1.57,1.72-2.98,2.76-4.39,2.76-1.07,0-1.65-.58-1.72-1.41Z"/><polygon class="cls-5" points="296.3 51.31 235.8 102.37 237.95 104.92 296.3 55.44 353.59 104.03 355.89 101.42 296.3 51.31"/><polygon class="cls-16" points="296.3 55.44 245.88 98.21 245.88 153.67 346.74 153.67 346.74 98.21 296.3 55.44"/><g class="cls-20"><path class="cls-15" d="M245.88,98.21c15.47-8.22,30.94-16.44,46.41-24.67,2.64-1.41,3.73-2.6,6.1-.77.96.74,1.92,1.46,2.88,2.19,2.87,2.18,5.73,4.37,8.6,6.55,1.04,0,3.72,2.84,4.6,3.51,1.81,1.38,3.63,2.76,5.44,4.14,3.21,2.45,6.43,4.9,9.64,7.35,3.44,2.62,6.88,5.25,10.33,7.87,3.08,2.35,6.64,6.13,10.19,7.56.95-3.64.14-8.59.14-12.39v-9.91l-55.37-42.12-50.69,46.01,1.74,4.66"/></g><path class="cls-5" d="M310.66,153.67s-28.27,0-28.27,0v-13.43c0-6.56-1.44-13.75.89-20.08,2.02-5.48,7.41-9.21,13.25-9.21,5.03,0,9.77,2.75,12.27,7.11,3.35,5.85,1.89,13.22,1.86,19.62,0,1.04,0,15.99,0,15.99Z"/><path class="cls-5" d="M261.49,128.76h-8.71c0-2.89-.28-5.95.05-8.81,0,.04,7.84.11,8.66.11v8.71Z"/><path class="cls-5" d="M273.4,128.76c-2.89,0-5.82-.15-8.7,0-.21-2.87-.01-5.83-.01-8.72h8.71v8.71Z"/><path class="cls-5" d="M261.43,139.94c-.28.21-1.04.07-1.36.07-2.43,0-4.86,0-7.29,0,0-2.9,0-5.8,0-8.7.68,0,8.71,0,8.71,0-.26.93,0,2.31,0,3.26,0,1.21,0,2.42,0,3.63,0,.31.18,1.49-.01,1.71-.01.01-.03.03-.04.04Z"/><path class="cls-5" d="M273.22,139.78c-.16.13-.41.22-.78.23-1,.04-2.01,0-3.01,0-.3,0-4.73,0-4.73,0v-8.71s8.71,0,8.71,0v6.3c0,.93.29,1.78-.18,2.17Z"/><path class="cls-5" d="M327.29,128.76c-.68.08-8.71-.05-8.71,0v-5.76c0-.54-.31-2.33,0-2.78.33-.48,2.62-.17,3.25-.17,1.82,0,3.64-.03,5.46,0,0,.69,0,8.63,0,8.71Z"/><path class="cls-5" d="M339.14,128.66c-.27.21-.89.09-1.22.09-2.46,0-4.94-.09-7.39.02-.12-.8.03-8.72-.03-8.73,1.37.03,2.73.04,4.1.03,1.21,0,2.94-.35,4.1-.03.71.19.51.38.51,1.19,0,.68,0,1.36,0,2.04,0,1.3,0,2.6,0,3.9,0,.26.16,1.2,0,1.42-.02.02-.04.05-.06.07Z"/><path class="cls-5" d="M327.29,140.01c-2.83,0-5.93.35-8.71-.03.04-2.89,0-5.79,0-8.68h8.71v8.71Z"/><path class="cls-5" d="M339.19,139.99c-2.39.26-4.8.12-7.2.04-.95-.03-1.42.21-1.5-.75-.04-.54,0-1.11,0-1.65,0-.45,0-6.33,0-6.33,0,0,8.55,0,8.71,0,0,0,.03,7.96,0,8.68Z"/><polygon class="cls-5" points="334.69 84.55 319.41 71.62 319.41 48.91 334.69 48.91 334.69 84.55"/><path class="cls-2" d="M336.9,48.76s-.09.03-.31.15c-.33.18-1.31,0-1.71,0-2.02,0-4.04,0-6.06,0-2.13,0-4.26,0-6.39,0-1.39,0-3.16.29-4.52,0-1.12-.24-.86-1.19-.91-2.28-.03-.68-.25-2.45.48-2.9.25-.16,1.07-.12,1.36-.12h16.82c1.34,0,1.33.35,1.34,1.6,0,.82.32,2.41,0,3.16-.15.35-.07.37-.1.4Z"/><path class="cls-3" d="M356.28,48.14s6.06,1.87,6.59,1.01c.53-.86-.08-2.29-.68-2.62-.4-.22-3.14-1.15-3.14-1.15l-2.76,2.77Z"/><path class="cls-18" d="M371.65,30.01c-2.59,2.49-4.24,4.41-4.41,5.48-.9,5.5-6.46,7.67-6.46,7.67-1.03,2.96-7.4,8.06-7.4,8.06,0,0-.39,2.07-.92,2.26s-6.4-5.43-6.68-5.82c-.66-.95-.38-11.23.21-12.47.59-1.24,5.36-2.85,6.46-3.51,1.1-.66,9.7-6.83,9.7-6.83.61-.73,1.47-1.82,2.52-3.17l6.97,8.33Z"/><g class="cls-22"><path class="cls-14" d="M349.73,40.65s-3.9,2.55-4.7,4.54l.16,1.1,5.58-4.12-1.04-1.52"/><path class="cls-14" d="M360.84,41.16s3.62-2.39,4.62-5.44c0,0-.99,3.88-3.04,5.4l1.35.86-1.54.66-1.87-.94.49-.54"/></g><path class="cls-14" d="M351.48,48.01s-1.56-2.03-2.12-1.9c0,0,0-1.76-.72-2.99l2.84,4.89Z"/><path class="cls-14" d="M354.29,48.16s3.36-3.92,4.17-4.88l.86,2.23s-1.74,2.09-3,3.15l-2.03-.5Z"/><path class="cls-14" d="M349.23,50.98s.71-.69,1.17-.58c.46.1,2.55,2.37,2.55,2.37,0,0,0,.52-.4.97-.28.31-3.31-2.76-3.31-2.76Z"/><path class="cls-3" d="M355.74,52.16s3.86,1.13,4.39.27c.53-.86-.08-2.29-.68-2.62-.4-.22-3.14-1.15-3.14-1.15l-1.68,1.51,1.11,2Z"/><path class="cls-14" d="M357.23,34.85l1.01-1.71-1.84.04h0c.05,1.63-.95,3.11-2.49,3.66-1.98.72-3.9.93-3.9.93.29,1.01-.51,3.12-.51,3.12l2.07,3.74c.72-1.55,3.55-6.29,4.92-8.56v.02s.57-.97.57-.97c.11-.18.18-.29.18-.29,0,0,0,0-.01.01Z"/><path class="cls-14" d="M357.1,52.5s.22-.51.44-.5c.22,0,2.52.26,2.59.43.04.11,0,.3-.04.43-.02.07-.09.11-.17.1-.51-.08-2.5-.39-2.82-.46Z"/><polygon class="cls-8" points="363.84 20.54 373.15 31.86 376.39 29.14 366.81 17.53 363.84 20.54"/><path class="cls-4" d="M417.53,0c-1.31.97-3.27,2.42-5.62,4.21-3,2.29-5.59,4.49-13.26,10.48-6.52,5.09-12.96,10.43-19.78,15.11-.3.2-.72.64-1.08.72-.72.14-.64.06-1.2-.6-.9-1.08-1.8-2.15-2.7-3.23-1.56-1.87-3.13-3.74-4.69-5.61-.8-.96-1.6-1.91-2.4-2.87-.51-.61-1.58-1.47-1.59-2.22,0-.1.02-.19.05-.28.55-1.32,2.44-2.71,3.4-3.72,2.18-2.31,2.11-2.93,8.4-8.74,1.44-1.33,2.73-2.42,3.73-3.23,12.25,0,24.49,0,36.74,0Z"/><path class="cls-19" d="M365.22,66.58c-13.85,11.26-32.1-9.04-19.49-21.95,6.05-6.19,16.47-5.52,21.85,1.23,4.71,5.91,3.92,14.72-1.48,19.93-.29.28-.59.54-.89.79Z"/><g class="cls-21"><path class="cls-7" d="M348.32,42.44s-8.88,6.77-2.42,18.55c1.53,2.79,3.95,5.02,6.89,6.23,3.23,1.33,7.76,1.75,13.32-1.43,11.71-6.7,0,0,0,0,0,0-7.52,13.18-20.95.67,0,0-6.03-6.72-5.13-12.81.9-6.08,5.77-10.08,8.28-11.21"/></g><path class="cls-3" d="M358.01,33.56s-6.19,10.3-6.69,11.62c-.89,2.35,1.94,4.49,3.27,3.46.47-.36,5.3-6.56,6.25-7.48,2.78-2.68,3.07-7.28,1.26-8.13-1.81-.85-4.09.53-4.09.53Z"/><path class="cls-8" d="M372.47,66.26c.83.43,1.62.96,2.4,1.47.97.64,1.94,1.31,2.87,2.01.38.28.75.57,1.1.88.24.21.27.62.04.85-.23.23-.6.26-.85.04-.61-.53-1.27-1.01-1.92-1.47-.22-.16-.45-.32-.67-.47-.95-.66-1.91-1.3-2.91-1.89-.2-.12-.41-.24-.62-.35-.28-.15-.42-.53-.26-.81.16-.28.51-.41.81-.26Z"/><path class="cls-8" d="M374.84,61.42c.8.22,1.62.4,2.44.57.96.2,1.93.39,2.9.56.42.07.83.14,1.25.19.14.02.3.15.38.26.08.12.12.31.08.45-.04.15-.13.3-.26.38-.15.08-.29.1-.45.08-.83-.1-1.65-.26-2.47-.42-.97-.19-1.93-.38-2.89-.6-.41-.09-.82-.19-1.23-.3-.3-.08-.54-.39-.45-.72.08-.3.39-.54.72-.45Z"/><path class="cls-8" d="M370.61,75.25c-.5-.77-1.01-1.54-1.5-2.32-.22-.34-.43-.69-.64-1.04-.16-.27-.1-.66.19-.83.27-.16.66-.11.83.19.4.69.83,1.35,1.26,2.02.5.77,1.01,1.54,1.5,2.32.22.34.43.69.64,1.04.16.27.1.66-.19.83-.27.16-.66.11-.83-.19-.4-.69-.83-1.35-1.26-2.02Z"/><path class="cls-8" d="M365.11,73.77c.06,1.59.12,3.18.19,4.77.02.4.03.79.05,1.19.01.31-.26.62-.58.62-.33,0-.61-.24-.62-.58-.06-1.59-.12-3.18-.19-4.77-.02-.4-.03-.79-.05-1.19-.01-.31.26-.62.58-.62.33,0,.61.24.62.58Z"/><g class="cls-1"><path class="cls-8" d="M425.46,31.43c.71-.87.83-2.11.28-3.07-.54-.96-1.72-1.6-2.9-1.56,1.42-2.28.49-5.52-1.95-6.88-2.45-1.36-6.01-.61-7.57,1.6-.18-.99-1.17-1.8-2.26-1.86-1.09-.06-2.18.64-2.49,1.6-.82-.53-1.76-.88-2.74-1.07-2.77-.53-5.81.36-7.72,2.27-1.91,1.91-2.63,4.76-1.81,7.23-.32-.54-1.23-.38-1.76-.01-.66.46-1.14,1.31-.74,1.97,0,0,20.94-.28,31.5-.02"/></g><g class="cls-1"><path class="cls-8" d="M187.26,20.73c-.38-1.37-.1-2.33.97-3.31,1.07-.98,3.01-1.11,4.43-.71-.17-.99.37-2.05,1.29-2.53.92-.48,2.15-.34,2.93.33-.34-2.72,1.81-5.5,4.62-6.01,2.82-.51,5.89,1.33,6.62,3.97.98-.45,2.24-.28,3.06.4.82.69,1.15,1.85.81,2.84,1.16.14,2.23.85,2.75,1.85.52,1,.49,2.24-.09,3.21-8.04.07-26.43.04-27.39-.03"/></g><g class="cls-1"><path class="cls-8" d="M392.37,62.04c-.2-.71-.05-1.21.51-1.72.56-.51,1.57-.58,2.31-.37-.09-.51.19-1.07.67-1.32.48-.25,1.12-.18,1.53.17-.18-1.41.94-2.86,2.41-3.13,1.47-.27,3.06.69,3.45,2.07.51-.23,1.17-.15,1.59.21.43.36.6.96.42,1.48.6.07,1.16.44,1.43.96.27.52.26,1.17-.05,1.67-4.19.03-13.76.02-14.26-.01"/></g><g class="cls-1"><path class="cls-8" d="M214,59.54c.2-.71.05-1.21-.51-1.72-.56-.51-1.57-.58-2.31-.37.09-.51-.19-1.07-.67-1.32-.48-.25-1.12-.18-1.53.17.18-1.41-.94-2.86-2.41-3.13-1.47-.27-3.06.69-3.45,2.07-.51-.23-1.17-.15-1.59.21-.43.36-.6.96-.42,1.48-.6.07-1.16.44-1.43.96-.27.52-.26,1.17.05,1.67,4.19.03,13.76.02,14.26-.01"/></g><g class="cls-1"><path class="cls-8" d="M284.69,40.87c.57-2.33.15-3.96-1.47-5.64-1.61-1.67-4.55-1.89-6.69-1.2.26-1.68-.55-3.49-1.95-4.31-1.39-.82-3.26-.58-4.43.56.51-4.62-2.73-9.36-6.99-10.23-4.26-.87-8.9,2.25-10.01,6.75-1.48-.76-3.38-.48-4.62.69-1.24,1.17-1.74,3.15-1.22,4.83-1.75.23-3.36,1.45-4.16,3.14-.79,1.69-.74,3.81.13,5.45,12.15.11,39.95.07,41.41-.05"/></g><polygon class="cls-13" points="217.38 141.47 236.82 113.54 250.12 114.62 264.67 153.67 223 153.57 217.38 141.47"/><polygon class="cls-10" points="264.67 153.67 242.06 129.33 234 140.91 264.67 153.67"/><polygon class="cls-6" points="264.67 153.67 228.12 147.79 223 153.57 264.67 153.67"/><polygon class="cls-6" points="223 153.57 220.96 136.33 217.38 141.47 223 153.57"/><polygon class="cls-10" points="232.82 119.29 246.48 121.42 242.06 129.33 232.82 119.29"/><polygon class="cls-6" points="234 140.91 242.06 129.33 227.74 126.59 226.46 128.43 234 140.91"/><polygon class="cls-10" points="221.38 135.72 228.12 147.79 234 140.91 221.38 135.72"/><polygon class="cls-6" points="264.67 153.67 246.48 121.42 250.12 114.62 264.67 153.67"/><polygon class="cls-6" points="246.48 121.42 232.82 119.29 236.82 113.54 246.48 121.42"/><path class="cls-8" d="M221.28,115.5c-.85-.92-1.79-1.75-2.73-2.57-1.17-1.02-2.36-2.02-3.58-2.98-.49-.38-.99-.76-1.51-1.11-.35-.23-.89-.12-1.1.24-.22.38-.13.86.24,1.1.89.59,1.73,1.27,2.56,1.95.28.23.56.46.84.7,1.17.99,2.33,2,3.43,3.07.23.22.45.44.66.68.28.31.82.35,1.13.05.31-.31.35-.8.05-1.13Z"/><path class="cls-8" d="M226.65,110.78c-.57-.95-1.08-1.94-1.58-2.93-.6-1.16-1.18-2.34-1.73-3.52-.24-.51-.47-1.02-.69-1.54-.07-.18-.29-.33-.47-.39-.19-.06-.44-.04-.61.06-.18.1-.34.26-.39.47-.06.22-.03.4.06.61.42,1.03.91,2.03,1.4,3.02.57,1.17,1.17,2.34,1.78,3.49.26.49.53.99.82,1.47.21.36.69.56,1.08.33.36-.21.56-.7.33-1.08Z"/><path class="cls-8" d="M210.4,121.03c1.16.37,2.33.75,3.49,1.11.52.16,1.03.32,1.56.45.4.11.89-.1,1-.53.11-.4-.1-.88-.53-1-1.02-.27-2.02-.6-3.03-.92-1.16-.37-2.33-.75-3.49-1.11-.52-.16-1.03-.32-1.56-.45-.4-.11-.89.1-1,.53-.11.4.1.88.53,1,1.02.27,2.02.6,3.03.92Z"/><path class="cls-8" d="M214.22,127.56c-2.06.48-4.12.95-6.18,1.43-.51.12-1.02.24-1.54.35-.41.09-.71.55-.59.96.12.42.52.7.96.59,2.06-.48,4.12-.95,6.18-1.43.51-.12,1.02-.24,1.54-.35.41-.09.71-.55.59-.96-.12-.42-.52-.7-.96-.59Z"/><path class="cls-12" d="M355.41,63.23c-.26-.12-.46-.25-.6-.4-.06-.07-.1-.13-.1-.18l-.11-6.06-2.4,2.19c-.14.13-.28.17-.41.14-.14-.03-.29-.14-.46-.32l-.17-.18c-.17-.18-.26-.35-.28-.49-.02-.14.04-.27.18-.4l4.57-4.17c.07-.06.24-.04.51.08.27.12.48.25.61.4.06.07.1.14.11.2l.1,6.03,2.65-2.42c.14-.13.28-.17.41-.14s.29.14.46.32l.17.18c.17.18.26.35.28.49.02.14-.04.27-.18.4l-4.83,4.41c-.08.07-.25.05-.51-.07Z"/><path class="cls-12" d="M364.31,53.73c.16.05.31.12.46.22.15.1.25.17.29.21.32.35.06.9-.77,1.65-1.26,1.15-2.41,1.15-3.46,0l-1.67-1.83-.18.48c-.05.12-.1.21-.15.25-.09.08-.19.05-.32-.09l-.19-.21c-.19-.21-.23-.48-.11-.8l.18-.48-3.07-3.36c-.21-.23-.05-.58.47-1.05l.36-.33c.52-.47.88-.59,1.08-.37l2.2,2.41.14-.36c.04-.1.08-.18.15-.23.09-.09.21-.06.34.08l.19.21c.1.11.16.23.18.35.02.12-.01.27-.08.43l-.14.36,2.55,2.8c.15.16.29.25.43.25.14,0,.29-.07.45-.22.04-.04.09-.1.15-.18.06-.08.11-.14.16-.18.08-.07.19-.08.35-.03Z"/></g></g></g></svg>