<?xml version="1.0" encoding="UTF-8"?><svg id="Layer_2" xmlns="http://www.w3.org/2000/svg" viewBox="0 0 430 153.67"><defs><style>.cls-1{opacity:.68;}.cls-2{fill:#f7ddc4;opacity:.15;}.cls-2,.cls-3,.cls-4,.cls-5,.cls-6,.cls-7,.cls-8,.cls-9,.cls-10,.cls-11,.cls-12,.cls-13,.cls-14,.cls-15,.cls-16,.cls-17,.cls-18,.cls-19,.cls-20,.cls-21{stroke-width:0px;}.cls-22,.cls-17{opacity:.7;}.cls-3,.cls-20{fill:#bc906c;}.cls-4{fill:#d7af80;opacity:.36;}.cls-5{opacity:.5;}.cls-5,.cls-11,.cls-14,.cls-17{fill:#fff;}.cls-6{fill:#d8b385;}.cls-7{fill:#e5c5a8;}.cls-8{fill:#e3c9aa;}.cls-9{fill:#c9967c;}.cls-10{fill:#dcb997;}.cls-23{opacity:.75;}.cls-12{fill:#95363e;}.cls-13{fill:#c19d76;}.cls-14,.cls-16,.cls-21{fill-rule:evenodd;}.cls-15{fill:#f4d3b1;}.cls-16{fill:#9a443d;}.cls-18{fill:#a13941;}.cls-19{fill:#a04552;}.cls-20{opacity:.3;}.cls-21{fill:#832d1e;}</style></defs><g id="Layer_1-2"><rect class="cls-4" width="430" height="140"/><path class="cls-18" d="M26.08,59.96h5.52c3.68,0,5.5,1.74,5.5,4.26,0,3.27-2.45,5.67-6.83,5.67h-1.67c-.31,1.67-.61,3.37-.87,5.04l2.33.29-.19.97h-6.57l.22-.97,2.06-.24,1.43-7.51c.39-2.08.75-4.17,1.09-6.25l-2.21-.27.19-.99ZM30.25,61.09l-1.43,7.58-.02.1h1.43c3.1,0,4.63-1.77,4.63-4.29,0-2.23-1.26-3.39-3.61-3.39h-.99Z"/><path class="cls-18" d="M40.47,66.45l-2.4-.14.1-.7,4-1.24.31.24-.53,3.25c1.04-1.82,2.37-3.49,3.66-3.49.68,0,1.28.19,1.62.73-.02.8-.49,1.36-1.28,1.36-.41,0-.95-.27-1.43-.65-1.19.99-2.11,2.38-3,4.05l-.27,1.26c-.36,1.7-.65,3.37-.97,5.09l-1.62.19-.24-.19,2.06-9.74Z"/><path class="cls-18" d="M48.1,65.7l1.67-1.33c2.01.53,3.76,1.07,5.74,1.92l.82-1.6,1.33-.29.29.24c-.24.61-1.07,1.7-2.3,2.98-2.04,2.08-4.19,3.83-6.2,5.72,1.87,1.41,3.15,1.75,4.14,1.75.68,0,1.26-.19,1.79-.53-.51-.61-.73-.97-.73-1.43,0-.78.53-1.24,1.21-1.31.51.19.8.85.8,1.43,0,1.77-2.01,3.51-3.88,3.51-1.41,0-2.57-.56-4.19-2.57l-.97,2.01-1.38.15-.19-.15c.48-.85.97-1.6,1.99-2.59,2.08-2.04,4.36-3.93,6.49-6.11-1.67-.53-3.05-.9-4.99-1.33l-1.02,3.29-.99-.15.56-3.61Z"/><path class="cls-18" d="M58.4,72c0-3.9,2.93-7.63,6.32-7.63,1.55,0,2.42.8,2.42,2.23,0,1.55-1.53,3.76-7.05,5.36.1,2.06,1.02,2.88,2.5,2.88s2.62-.95,3.27-1.77l.56.44c-1.02,1.65-2.59,3-4.39,3-2.11,0-3.63-1.41-3.63-4.51ZM60.09,71c4.02-1.16,5.43-2.86,5.43-4.17,0-.9-.53-1.43-1.33-1.43-1.5,0-3.85,2.57-4.1,5.6Z"/><path class="cls-18" d="M74.46,75.24c0-.34,0-.75.17-1.6-1.45,1.7-3.15,2.86-4.48,2.86-1.16,0-2.18-.85-2.18-3.05,0-4.02,4.05-9.09,7.34-9.09.46,0,.82.12,1.19.36l.92-4.39-2.45-.17.1-.7,4.14-1.21.29.19-2.93,14.47c-.12.61-.19,1.12-.19,1.38,0,.34.27.53.56.53.63,0,1.55-.7,2.38-1.75l.58.46c-.95,1.41-2.45,2.96-4.07,2.96-.75,0-1.36-.41-1.36-1.26ZM71.36,74.83c.87,0,1.89-.63,3.54-2.47l1.16-5.82c-.48-.41-.99-.58-1.48-.58-1.04,0-2.08.58-2.91,1.5-1.09,1.21-1.84,3.1-1.84,5.06,0,1.6.65,2.3,1.53,2.3Z"/><path class="cls-18" d="M80.27,74.11c.12-.41.51-.68.9-.68.7,0,.99.39,1.16,1.07l.27,1.04c.1.02.22.02.34.02,1.67,0,2.67-.8,2.67-2.06,0-.78-.19-1.41-1.58-2.4-1.21-.92-2.13-1.82-2.13-3.34,0-1.89,1.53-3.39,3.85-3.39,1.43,0,2.52.56,2.88,2.13-.15.46-.49.68-.92.68-.56,0-.99-.41-1.24-1.14l-.22-.7c-.1-.02-.22-.02-.34-.02-1.67,0-2.3.9-2.3,1.99,0,1.02.41,1.53,1.79,2.54,1.45,1.09,1.96,1.82,1.96,3.22,0,2.01-1.65,3.44-4.09,3.44-1.89,0-2.83-.95-3-2.4Z"/><path class="cls-18" d="M90.54,73.5l1.48-7.05-2.4-.14.1-.7,4.12-1.24.32.24-1.72,8.31c-.12.61-.22,1.12-.22,1.38,0,.34.27.53.53.53.58,0,1.36-.58,2.33-1.75l.61.46c-1.09,1.45-2.35,2.96-4.07,2.96-.68,0-1.31-.41-1.31-1.24,0-.36.05-.78.24-1.77ZM92.84,59.71c0-.8.63-1.48,1.33-1.48.75,0,1.26.51,1.26,1.28s-.65,1.5-1.36,1.5-1.24-.51-1.24-1.31Z"/><path class="cls-18" d="M98.99,80.12c0-1.36,1.07-2.59,2.25-3.71v-.02c-.1.05-.46.12-.8.12-2.11,0-3.63-1.41-3.63-4.51,0-3.9,2.93-7.63,6.32-7.63,1.55,0,2.42.8,2.42,2.23,0,1.55-1.53,3.76-7.05,5.36.1,2.06,1.02,2.88,2.5,2.88s2.62-.95,3.27-1.77l.56.44c-.53.82-1.09,1.5-1.91,2.18-1.26,1.07-2.42,2.35-2.42,3.83,0,.92.56,1.38,1.26,1.38.36,0,.8-.12,1.24-.29l.29.63c-.61.44-1.38.78-2.13.78-1.38,0-2.16-.73-2.16-1.89ZM98.51,71c4.02-1.16,5.43-2.86,5.43-4.17,0-.9-.53-1.43-1.33-1.43-1.5,0-3.85,2.57-4.09,5.6Z"/><path class="cls-18" d="M107.21,74.49c0-1.02.24-2.18.56-3.8l2.06-10.35-2.4-.17.12-.7,4.19-1.21.27.19-1.87,9.01c1.48-1.94,3.37-3.1,4.8-3.1,1.19,0,2.21.8,2.21,2.98,0,4.1-4,9.16-7.95,9.16-1.07,0-1.99-.75-1.99-2.01ZM110.28,74.98c.99,0,1.96-.46,2.86-1.31,1.31-1.26,2.16-3.37,2.16-5.35,0-1.55-.56-2.33-1.45-2.33-1.07,0-2.4.95-3.95,2.64l-.34,1.67c-.39,1.84-.48,2.45-.48,3.37,0,.82.44,1.31,1.21,1.31Z"/><path class="cls-18" d="M119.51,73.5l1.48-7.05-2.4-.14.1-.7,4.12-1.24.31.24-1.72,8.31c-.12.61-.22,1.12-.22,1.38,0,.34.27.53.53.53.58,0,1.36-.58,2.33-1.75l.61.46c-1.09,1.45-2.35,2.96-4.07,2.96-.68,0-1.31-.41-1.31-1.24,0-.36.05-.78.24-1.77ZM121.81,59.71c0-.8.63-1.48,1.33-1.48.75,0,1.26.51,1.26,1.28s-.65,1.5-1.36,1.5-1.24-.51-1.24-1.31Z"/><path class="cls-18" d="M125.79,72.24c0-4.36,2.88-7.88,6.32-7.88,2.28,0,3.92,1.5,3.92,4.24,0,4.22-2.81,7.9-6.23,7.9-2.23,0-4.02-1.5-4.02-4.26ZM134.07,68.97c0-2.62-.92-3.63-2.23-3.63-2.3,0-4.1,3-4.1,6.62,0,2.54.99,3.59,2.35,3.59,2.38,0,3.97-3.32,3.97-6.57Z"/><path class="cls-18" d="M140.2,66.45l-2.4-.14.1-.7,4-1.24.31.24-.53,3.25c1.04-1.82,2.37-3.49,3.66-3.49.68,0,1.28.19,1.62.73-.02.8-.49,1.36-1.28,1.36-.41,0-.95-.27-1.43-.65-1.19.99-2.11,2.38-3,4.05l-.27,1.26c-.36,1.7-.65,3.37-.97,5.09l-1.62.19-.24-.19,2.06-9.74Z"/><path class="cls-18" d="M146.69,71.97c0-4.1,3.17-7.61,6.23-7.61,1.48,0,2.35.73,2.62,1.77-.1.61-.58.85-1.02.85-.53,0-.99-.39-1.43-.87l-.73-.82c-2.08.73-3.85,3.44-3.85,6.42,0,2.11,1.09,3.13,2.69,3.13,1.28,0,2.28-.95,2.96-1.77l.56.44c-.97,1.7-2.74,3-4.41,3-2.11,0-3.61-1.5-3.61-4.53Z"/><path class="cls-18" d="M153.25,80.6c.12-.7.63-1.09,1.31-1.09s1.26.34,1.96.85l.1.07c.75-.51,1.48-1.11,2.16-1.79.46-.46.87-.95,1.28-1.45-.19-2.83-.48-4.48-.9-7.73-.39-3.08-.51-3.42-.94-3.42-.41,0-.75.29-1.62,1.6l-.56-.39c.97-2.06,2.06-2.88,3.08-2.88.92,0,1.43.51,1.72,3.22.29,2.81.46,5.31.56,7.56,1.7-3.08,2.52-4.87,3.32-7.63.8-2.79,1.16-3.29,1.84-3.29.56,0,.9.34.9.82,0,.63-.12.99-.61,1.96-.51,1.04-1.02,2.06-1.94,3.71-.9,1.6-1.91,3.47-3.25,5.48-.63.95-1.28,1.96-2.3,3.05-1.58,1.72-2.98,2.76-4.39,2.76-1.07,0-1.65-.58-1.72-1.41Z"/><path class="cls-12" d="M429.99,58.24c-.32,0-.65,0-.97-.01l-.92,3.11h-1.18l-2.01,4.92v8.22h-2.51v-24.77l-3.01-6.93h-.94v-2.54h-1.52v-6.4h-.8v6.4h-1.52v2.54h-.94l-3.01,6.93v16.39h-2.89V29.16h-1.64v-5.29h-1.42v-4.09h-1.8v-4.25h-1.01v-6.33h-.64v6.33h-1.01v4.25h-1.8v4.09h-1.42v5.29h-1.64v44.27h-2.81V26.18l-2.36-2.01v-2.06l-5.77-4.02-5.77,4.02v2.06l-2.36,2.01v43.18h-2.97v-28.39h-2.33v-2.43c0-6.22-9.34-6.22-9.34,0v2.43h-2.33v14.83h-3.01v-8.11l-13.75-7.03v38.91h-3.01v-19.63h-2.11v-2.95h-2.3v-1.74l-2.17-2.73-2.17,2.73v1.74h-2.3v2.95h-2.11v39.08h-3.01v-4.82l-6.53-4.55-6.53,4.55v45.79c39.88,0,79.77.01,119.65.02,0-27.25,0-54.51-.01-81.76Z"/><polygon class="cls-6" points="307.01 153.67 327.75 153.67 327.75 49.9 307.01 55.09 307.01 153.67"/><g class="cls-23"><rect class="cls-5" x="323.41" y="57.16" width="3.3" height="1.04"/><rect class="cls-11" x="308.01" y="57.16" width="13.53" height="1.04"/><rect class="cls-11" x="321.24" y="61.31" width="6.51" height="1.04"/><rect class="cls-17" x="313.72" y="61.31" width="5.65" height="1.04"/><rect class="cls-5" x="308.05" y="61.31" width="4.17" height="1.04"/><rect class="cls-5" x="316.57" y="65.46" width="9.33" height="1.04"/><rect class="cls-11" x="307.01" y="65.46" width="8.63" height="1.04"/><rect class="cls-11" x="311.56" y="69.61" width="10.92" height="1.04"/><rect class="cls-17" x="324.28" y="69.61" width="3.47" height="1.04"/><rect class="cls-5" x="307.01" y="69.61" width="3.03" height="1.04"/><rect class="cls-5" x="319.99" y="73.75" width="6.57" height="1.04"/><rect class="cls-17" x="307.48" y="73.75" width="3.73" height="1.04"/><rect class="cls-11" x="312.59" y="73.75" width="6.15" height="1.04"/><rect class="cls-17" x="321.65" y="77.9" width="5.6" height="1.04"/><rect class="cls-11" x="313.84" y="77.9" width="6.64" height="1.04"/><rect class="cls-5" x="307.62" y="77.9" width="4.91" height="1.04"/><rect class="cls-5" x="319.09" y="82.05" width="6.98" height="1.04"/><rect class="cls-11" x="309.14" y="82.05" width="8.5" height="1.04"/><rect class="cls-5" x="314.32" y="86.2" width="10.51" height="1.04"/><rect class="cls-11" x="307.82" y="86.2" width="4.63" height="1.04"/><rect class="cls-11" x="322.14" y="90.35" width="5.62" height="1.04"/><rect class="cls-5" x="310.94" y="90.35" width="9.47" height="1.04"/><rect class="cls-17" x="307.01" y="90.35" width="2.4" height="1.04"/><rect class="cls-17" x="325.11" y="94.49" width="2.64" height="1.04"/><rect class="cls-11" x="315.64" y="94.49" width="8.37" height="1.04"/><rect class="cls-5" x="307.01" y="94.49" width="7.04" height="1.04"/><rect class="cls-11" x="307.76" y="98.64" width="10.44" height="1.04"/><rect class="cls-5" x="320.06" y="98.64" width="6.57" height="1.04"/><rect class="cls-11" x="323.1" y="102.79" width="4.65" height="1.04"/><rect class="cls-11" x="313.01" y="102.79" width="8.64" height="1.04"/><rect class="cls-5" x="307.01" y="102.79" width="3.86" height="1.04"/><rect class="cls-17" x="317.23" y="106.94" width="9.54" height="1.04"/><rect class="cls-11" x="307.89" y="106.94" width="8.16" height="1.04"/><rect class="cls-5" x="325.11" y="111.09" width="2.64" height="1.04"/><rect class="cls-11" x="311.83" y="111.09" width="10.44" height="1.04"/><rect class="cls-17" x="307.01" y="111.09" width="3.37" height="1.04"/><rect class="cls-17" x="322.62" y="115.23" width="3.94" height="1.04"/><rect class="cls-11" x="315.22" y="115.23" width="5.74" height="1.04"/><rect class="cls-5" x="307.69" y="115.23" width="5.6" height="1.04"/><rect class="cls-5" x="319.3" y="119.38" width="5.46" height="1.04"/><rect class="cls-11" x="311.49" y="119.38" width="6.15" height="1.04"/><rect class="cls-11" x="307.01" y="119.38" width="2.82" height="1.04"/><rect class="cls-17" x="322" y="123.53" width="4.36" height="1.04"/><rect class="cls-11" x="314.12" y="123.53" width="6.29" height="1.04"/><rect class="cls-5" x="307.01" y="123.53" width="5.24" height="1.04"/><rect class="cls-5" x="324.69" y="127.68" width="3.06" height="1.04"/><rect class="cls-11" x="316.74" y="127.68" width="6.15" height="1.04"/><rect class="cls-17" x="308.17" y="127.68" width="6.91" height="1.04"/><rect class="cls-11" x="320.13" y="131.83" width="5.95" height="1.04"/><rect class="cls-11" x="311.56" y="131.83" width="6.5" height="1.04"/><rect class="cls-5" x="307.01" y="131.83" width="2.61" height="1.04"/><rect class="cls-5" x="315.01" y="135.98" width="6.08" height="1.04"/><rect class="cls-11" x="307.01" y="135.98" width="6" height="1.04"/><rect class="cls-17" x="323.24" y="135.98" width="4.51" height="1.04"/><rect class="cls-11" x="317.36" y="140.12" width="8.57" height="1.04"/><rect class="cls-5" x="308.65" y="140.12" width="6.84" height="1.04"/><rect class="cls-11" x="313.35" y="144.27" width="7.81" height="1.04"/><rect class="cls-17" x="307.01" y="144.27" width="4.13" height="1.04"/><rect class="cls-5" x="323.24" y="144.27" width="4.51" height="1.04"/><rect class="cls-11" x="316.88" y="148.42" width="9.47" height="1.04"/><rect class="cls-5" x="308.1" y="148.42" width="7.26" height="1.04"/></g><polygon class="cls-13" points="327.75 153.67 338.12 153.67 338.12 46.79 327.75 49.9 327.75 153.67"/><g class="cls-22"><rect class="cls-11" x="334.93" y="57.16" width="3.2" height="1.04"/><rect class="cls-11" x="328.63" y="57.16" width="4.84" height="1.04"/><rect class="cls-11" x="327.75" y="61.31" width="2.27" height="1.04"/><rect class="cls-11" x="336.52" y="61.31" width="1.61" height="1.04"/><rect class="cls-11" x="331.26" y="61.31" width="4.15" height="1.04"/><rect class="cls-11" x="333.2" y="65.46" width="4.08" height="1.04"/><rect class="cls-11" x="327.75" y="65.46" width="4.41" height="1.04"/><rect class="cls-11" x="335.17" y="69.61" width="2.95" height="1.04"/><rect class="cls-17" x="330.57" y="69.61" width="3.7" height="1.04"/><rect class="cls-11" x="327.75" y="69.61" width="1.85" height="1.04"/><rect class="cls-11" x="336.69" y="73.75" width="1.43" height="1.04"/><rect class="cls-11" x="332.61" y="73.75" width="2.9" height="1.04"/><rect class="cls-11" x="328.53" y="73.75" width="3.11" height="1.04"/><rect class="cls-11" x="328.67" y="77.9" width="4.77" height="1.04"/><rect class="cls-17" x="334.37" y="77.9" width="2.59" height="1.04"/><rect class="cls-11" x="335.72" y="82.05" width="2.4" height="1.04"/><rect class="cls-17" x="330.09" y="82.05" width="4.56" height="1.04"/><rect class="cls-11" x="327.75" y="82.05" width="1.16" height="1.04"/><rect class="cls-11" x="332.37" y="86.2" width="4.91" height="1.04"/><rect class="cls-11" x="327.75" y="86.2" width="3.44" height="1.04"/><rect class="cls-11" x="335.69" y="90.35" width="2.44" height="1.04"/><rect class="cls-11" x="327.75" y="90.35" width="2.27" height="1.04"/><rect class="cls-17" x="331.3" y="90.35" width="3.21" height="1.04"/><rect class="cls-11" x="328.38" y="94.49" width="3.91" height="1.04"/><rect class="cls-11" x="333.7" y="94.49" width="3.06" height="1.04"/><rect class="cls-17" x="335.72" y="98.64" width="2.4" height="1.04"/><rect class="cls-11" x="327.75" y="98.64" width="1.62" height="1.04"/><rect class="cls-11" x="330.64" y="98.64" width="4.07" height="1.04"/><rect class="cls-11" x="332.48" y="102.79" width="5.64" height="1.04"/><rect class="cls-17" x="327.75" y="102.79" width="3.43" height="1.04"/><rect class="cls-17" x="334.72" y="106.94" width="2.11" height="1.04"/><rect class="cls-11" x="330.71" y="106.94" width="2.8" height="1.04"/><rect class="cls-11" x="327.75" y="106.94" width="1.47" height="1.04"/><rect class="cls-11" x="333.33" y="111.09" width="4.79" height="1.04"/><rect class="cls-17" x="328.77" y="111.09" width="3.25" height="1.04"/><rect class="cls-11" x="331.26" y="115.23" width="3.66" height="1.04"/><rect class="cls-11" x="327.75" y="115.23" width="1.89" height="1.04"/><rect class="cls-17" x="336.52" y="115.23" width="1.61" height="1.04"/><rect class="cls-11" x="335.79" y="119.38" width="2.33" height="1.04"/><rect class="cls-17" x="330.81" y="119.38" width="3.15" height="1.04"/><rect class="cls-11" x="328.6" y="119.38" width="1" height="1.04"/><rect class="cls-17" x="333.2" y="123.53" width="3.39" height="1.04"/><rect class="cls-11" x="328.36" y="123.53" width="3.42" height="1.04"/><rect class="cls-11" x="336.03" y="127.68" width="2.09" height="1.04"/><rect class="cls-11" x="329.91" y="127.68" width="4.67" height="1.04"/><rect class="cls-17" x="327.75" y="127.68" width="1.02" height="1.04"/><rect class="cls-17" x="332.12" y="131.83" width="5.19" height="1.04"/><rect class="cls-11" x="327.75" y="131.83" width="3.27" height="1.04"/><rect class="cls-11" x="335.41" y="135.98" width="2.71" height="1.04"/><rect class="cls-11" x="330.59" y="135.98" width="3.71" height="1.04"/><rect class="cls-17" x="327.75" y="135.98" width="1.8" height="1.04"/><rect class="cls-17" x="331.73" y="140.12" width="4.95" height="1.04"/><rect class="cls-11" x="327.75" y="140.12" width="2.91" height="1.04"/><rect class="cls-11" x="335.31" y="144.27" width="2.82" height="1.04"/><rect class="cls-11" x="330.22" y="144.27" width="4.07" height="1.04"/><rect class="cls-17" x="327.75" y="144.27" width="1.38" height="1.04"/><rect class="cls-17" x="333.37" y="148.42" width="3.42" height="1.04"/><rect class="cls-11" x="330.07" y="148.42" width="2.06" height="1.04"/><rect class="cls-11" x="327.75" y="148.42" width="1.13" height="1.04"/></g><polygon class="cls-15" points="338.12 46.79 307.01 55.09 327.75 53.01 338.12 46.79"/><rect class="cls-2" x="309.08" y="56.22" width="3.11" height="95.97"/><polygon class="cls-20" points="330.44 91.02 330.44 91.02 330.44 91.02 338.12 88.92 338.12 153.66 330.44 153.66 330.44 91.02"/><rect class="cls-10" x="333.47" y="96" width="20.74" height="57.67"/><rect class="cls-3" x="354.21" y="96" width="10.37" height="57.67"/><rect class="cls-2" x="336.07" y="97.74" width="3.11" height="54.44"/><rect class="cls-19" x="354.21" y="93.1" width="10.37" height="2.9"/><rect class="cls-9" x="333.47" y="93.1" width="20.74" height="2.9"/><polygon class="cls-9" points="358.53 86.14 364.58 93.1 354.21 93.1 358.53 86.14"/><polygon class="cls-8" points="358.53 86.14 333.47 93.1 354.21 93.1 358.53 86.14"/><g class="cls-23"><rect class="cls-11" x="338.74" y="149.2" width="10.92" height="1.04"/><rect class="cls-17" x="333.47" y="149.2" width="3.47" height="1.04"/><rect class="cls-5" x="351.19" y="149.2" width="3.03" height="1.04"/><rect class="cls-5" x="334.66" y="145.05" width="6.57" height="1.04"/><rect class="cls-17" x="350.01" y="145.05" width="3.73" height="1.04"/><rect class="cls-11" x="342.48" y="145.05" width="6.15" height="1.04"/><rect class="cls-17" x="333.97" y="140.9" width="5.6" height="1.04"/><rect class="cls-11" x="340.75" y="140.9" width="6.64" height="1.04"/><rect class="cls-5" x="348.7" y="140.9" width="4.91" height="1.04"/><rect class="cls-5" x="335.15" y="136.76" width="6.98" height="1.04"/><rect class="cls-11" x="343.58" y="136.76" width="8.5" height="1.04"/><rect class="cls-5" x="336.39" y="132.61" width="10.51" height="1.04"/><rect class="cls-11" x="348.77" y="132.61" width="4.63" height="1.04"/><rect class="cls-11" x="333.47" y="128.46" width="5.62" height="1.04"/><rect class="cls-5" x="340.82" y="128.46" width="9.47" height="1.04"/><rect class="cls-17" x="351.81" y="128.46" width="2.4" height="1.04"/><rect class="cls-17" x="333.47" y="124.31" width="2.64" height="1.04"/><rect class="cls-11" x="337.22" y="124.31" width="8.37" height="1.04"/><rect class="cls-5" x="347.18" y="124.31" width="7.04" height="1.04"/><rect class="cls-11" x="343.03" y="120.16" width="10.44" height="1.04"/><rect class="cls-5" x="334.59" y="120.16" width="6.57" height="1.04"/><rect class="cls-11" x="333.47" y="116.02" width="4.65" height="1.04"/><rect class="cls-11" x="339.57" y="116.02" width="8.64" height="1.04"/><rect class="cls-5" x="350.36" y="116.02" width="3.86" height="1.04"/><rect class="cls-17" x="334.46" y="111.87" width="9.54" height="1.04"/><rect class="cls-11" x="345.17" y="111.87" width="8.16" height="1.04"/><rect class="cls-5" x="333.47" y="107.72" width="2.64" height="1.04"/><rect class="cls-11" x="338.95" y="107.72" width="10.44" height="1.04"/><rect class="cls-17" x="350.84" y="107.72" width="3.37" height="1.04"/><rect class="cls-17" x="334.66" y="103.57" width="3.94" height="1.04"/><rect class="cls-11" x="340.26" y="103.57" width="5.74" height="1.04"/><rect class="cls-5" x="347.94" y="103.57" width="5.6" height="1.04"/><rect class="cls-5" x="336.46" y="99.42" width="5.46" height="1.04"/><rect class="cls-11" x="343.58" y="99.42" width="6.15" height="1.04"/><rect class="cls-11" x="351.39" y="99.42" width="2.82" height="1.04"/></g><g class="cls-23"><rect class="cls-17" x="361.53" y="99.42" width="2.8" height="1.04"/><rect class="cls-11" x="357.63" y="99.42" width="3.32" height="1.04"/><rect class="cls-5" x="354.52" y="99.42" width="2.45" height="1.04"/><rect class="cls-5" x="360.26" y="103.57" width="3.49" height="1.04"/><rect class="cls-11" x="355.28" y="103.57" width="4.25" height="1.04"/><rect class="cls-5" x="357.87" y="107.72" width="5.25" height="1.04"/><rect class="cls-11" x="354.62" y="107.72" width="2.32" height="1.04"/><rect class="cls-11" x="361.78" y="111.87" width="2.81" height="1.04"/><rect class="cls-5" x="356.18" y="111.87" width="4.74" height="1.04"/><rect class="cls-17" x="354.21" y="111.87" width="1.2" height="1.04"/><rect class="cls-17" x="363.26" y="116.02" width="1.32" height="1.04"/><rect class="cls-11" x="358.53" y="116.02" width="4.18" height="1.04"/><rect class="cls-5" x="354.21" y="116.02" width="3.52" height="1.04"/><rect class="cls-11" x="354.59" y="120.16" width="5.22" height="1.04"/><rect class="cls-5" x="360.74" y="120.16" width="3.28" height="1.04"/><rect class="cls-11" x="362.26" y="124.31" width="2.32" height="1.04"/><rect class="cls-11" x="357.21" y="124.31" width="4.32" height="1.04"/><rect class="cls-5" x="354.21" y="124.31" width="1.93" height="1.04"/><rect class="cls-17" x="359.32" y="128.46" width="4.77" height="1.04"/><rect class="cls-11" x="354.66" y="128.46" width="4.08" height="1.04"/><rect class="cls-5" x="363.26" y="132.61" width="1.32" height="1.04"/><rect class="cls-11" x="356.63" y="132.61" width="5.22" height="1.04"/><rect class="cls-17" x="354.21" y="132.61" width="1.69" height="1.04"/><rect class="cls-17" x="362.02" y="136.76" width="1.97" height="1.04"/><rect class="cls-11" x="358.32" y="136.76" width="2.87" height="1.04"/><rect class="cls-5" x="354.55" y="136.76" width="2.8" height="1.04"/><rect class="cls-5" x="360.36" y="140.9" width="3.46" height="1.04"/><rect class="cls-11" x="356.45" y="140.9" width="3.08" height="1.04"/><rect class="cls-11" x="354.21" y="140.9" width="1.41" height="1.04"/><rect class="cls-17" x="361.71" y="145.05" width="2.18" height="1.04"/><rect class="cls-11" x="357.77" y="145.05" width="3.15" height="1.04"/><rect class="cls-5" x="354.21" y="145.05" width="2.62" height="1.04"/><rect class="cls-5" x="363.06" y="149.2" width="1.53" height="1.04"/><rect class="cls-11" x="359.08" y="149.2" width="3.08" height="1.04"/><rect class="cls-17" x="354.79" y="149.2" width="3.46" height="1.04"/></g><polygon class="cls-6" points="379.97 46.81 379.97 153.67 359.23 153.67 359.23 52 379.97 46.81"/><g class="cls-23"><rect class="cls-11" x="363.77" y="70.39" width="10.93" height="1.04"/><rect class="cls-11" x="373.52" y="66.24" width="6.45" height="1.04"/><rect class="cls-11" x="362.01" y="66.24" width="9.9" height="1.04"/><rect class="cls-5" x="359.23" y="66.24" width="1.53" height="1.04"/><rect class="cls-11" x="377.1" y="62.09" width="2.88" height="1.04"/><rect class="cls-5" x="366.05" y="62.09" width="9.59" height="1.04"/><rect class="cls-17" x="359.23" y="62.09" width="5.52" height="1.04"/><rect class="cls-17" x="369.22" y="57.94" width="3.06" height="1.04"/><rect class="cls-11" x="360.14" y="57.94" width="7.41" height="1.04"/><rect class="cls-5" x="373.57" y="57.94" width="6.4" height="1.04"/><rect class="cls-17" x="377.3" y="53.79" width="2.67" height="1.04"/><rect class="cls-11" x="367.35" y="53.79" width="8.45" height="1.04"/><rect class="cls-5" x="359.23" y="53.79" width="6.56" height="1.04"/><rect class="cls-17" x="376.5" y="70.39" width="3.48" height="1.04"/><rect class="cls-5" x="359.21" y="70.39" width="3.03" height="1.04"/><rect class="cls-5" x="372.21" y="74.53" width="6.57" height="1.04"/><rect class="cls-17" x="359.68" y="74.53" width="3.74" height="1.04"/><rect class="cls-11" x="364.8" y="74.53" width="6.16" height="1.04"/><rect class="cls-17" x="373.87" y="78.68" width="5.61" height="1.04"/><rect class="cls-11" x="366.05" y="78.68" width="6.64" height="1.04"/><rect class="cls-5" x="359.82" y="78.68" width="4.91" height="1.04"/><rect class="cls-5" x="371.31" y="82.83" width="6.99" height="1.04"/><rect class="cls-11" x="361.34" y="82.83" width="8.51" height="1.04"/><rect class="cls-5" x="366.53" y="86.98" width="10.52" height="1.04"/><rect class="cls-11" x="360.03" y="86.98" width="4.64" height="1.04"/><rect class="cls-11" x="374.35" y="91.13" width="5.62" height="1.04"/><rect class="cls-5" x="363.14" y="91.13" width="9.48" height="1.04"/><rect class="cls-17" x="359.21" y="91.13" width="2.41" height="1.04"/><rect class="cls-17" x="377.33" y="95.27" width="2.64" height="1.04"/><rect class="cls-11" x="367.85" y="95.27" width="8.37" height="1.04"/><rect class="cls-5" x="359.21" y="95.27" width="7.04" height="1.04"/><rect class="cls-11" x="359.96" y="99.42" width="10.45" height="1.04"/><rect class="cls-5" x="372.28" y="99.42" width="6.57" height="1.04"/><rect class="cls-11" x="375.32" y="103.57" width="4.65" height="1.04"/><rect class="cls-11" x="365.22" y="103.57" width="8.65" height="1.04"/><rect class="cls-5" x="359.21" y="103.57" width="3.86" height="1.04"/><rect class="cls-17" x="369.44" y="107.72" width="9.55" height="1.04"/><rect class="cls-11" x="360.1" y="107.72" width="8.17" height="1.04"/><rect class="cls-5" x="377.33" y="111.87" width="2.64" height="1.04"/><rect class="cls-11" x="364.04" y="111.87" width="10.45" height="1.04"/><rect class="cls-17" x="359.21" y="111.87" width="3.38" height="1.04"/><rect class="cls-17" x="374.84" y="116.02" width="3.94" height="1.04"/><rect class="cls-11" x="367.43" y="116.02" width="5.74" height="1.04"/><rect class="cls-5" x="359.89" y="116.02" width="5.61" height="1.04"/><rect class="cls-5" x="371.52" y="120.16" width="5.47" height="1.04"/><rect class="cls-11" x="363.7" y="120.16" width="6.16" height="1.04"/><rect class="cls-11" x="359.21" y="120.16" width="2.82" height="1.04"/><rect class="cls-17" x="374.22" y="124.31" width="4.36" height="1.04"/><rect class="cls-11" x="366.33" y="124.31" width="6.3" height="1.04"/><rect class="cls-5" x="359.21" y="124.31" width="5.24" height="1.04"/><rect class="cls-5" x="376.91" y="128.46" width="3.06" height="1.04"/><rect class="cls-11" x="368.96" y="128.46" width="6.16" height="1.04"/><rect class="cls-17" x="360.38" y="128.46" width="6.92" height="1.04"/><rect class="cls-11" x="372.35" y="132.61" width="5.95" height="1.04"/><rect class="cls-11" x="363.77" y="132.61" width="6.5" height="1.04"/><rect class="cls-5" x="359.21" y="132.61" width="2.61" height="1.04"/><rect class="cls-5" x="367.23" y="136.76" width="6.09" height="1.04"/><rect class="cls-11" x="359.21" y="136.76" width="6.01" height="1.04"/><rect class="cls-17" x="375.46" y="136.76" width="4.51" height="1.04"/><rect class="cls-11" x="369.58" y="140.9" width="8.58" height="1.04"/><rect class="cls-5" x="360.86" y="140.9" width="6.85" height="1.04"/><rect class="cls-11" x="365.57" y="145.05" width="7.82" height="1.04"/><rect class="cls-17" x="359.21" y="145.05" width="4.14" height="1.04"/><rect class="cls-5" x="375.46" y="145.05" width="4.51" height="1.04"/><rect class="cls-11" x="369.09" y="149.2" width="9.48" height="1.04"/><rect class="cls-5" x="360.31" y="149.2" width="7.27" height="1.04"/></g><polygon class="cls-13" points="390.34 52 390.34 153.67 379.97 153.67 379.97 46.81 390.34 52"/><g class="cls-23"><rect class="cls-11" x="382.61" y="70.39" width="5.46" height="1.04"/><rect class="cls-17" x="379.97" y="70.39" width="1.74" height="1.04"/><rect class="cls-5" x="388.83" y="70.39" width="1.51" height="1.04"/><rect class="cls-5" x="380.57" y="74.53" width="3.28" height="1.04"/><rect class="cls-17" x="388.24" y="74.53" width="1.87" height="1.04"/><rect class="cls-11" x="384.48" y="74.53" width="3.08" height="1.04"/><rect class="cls-17" x="380.22" y="78.68" width="2.8" height="1.04"/><rect class="cls-11" x="383.61" y="78.68" width="3.32" height="1.04"/><rect class="cls-5" x="387.59" y="78.68" width="2.45" height="1.04"/><rect class="cls-5" x="380.81" y="82.83" width="3.49" height="1.04"/><rect class="cls-11" x="385.03" y="82.83" width="4.25" height="1.04"/><rect class="cls-5" x="381.43" y="86.98" width="5.25" height="1.04"/><rect class="cls-11" x="387.62" y="86.98" width="2.32" height="1.04"/><rect class="cls-11" x="379.97" y="91.13" width="2.81" height="1.04"/><rect class="cls-5" x="383.65" y="91.13" width="4.74" height="1.04"/><rect class="cls-17" x="389.14" y="91.13" width="1.2" height="1.04"/><rect class="cls-17" x="379.97" y="95.27" width="1.32" height="1.04"/><rect class="cls-11" x="381.85" y="95.27" width="4.18" height="1.04"/><rect class="cls-5" x="386.83" y="95.27" width="3.52" height="1.04"/><rect class="cls-11" x="384.75" y="99.42" width="5.22" height="1.04"/><rect class="cls-5" x="380.54" y="99.42" width="3.28" height="1.04"/><rect class="cls-11" x="379.97" y="103.57" width="2.32" height="1.04"/><rect class="cls-11" x="383.02" y="103.57" width="4.32" height="1.04"/><rect class="cls-5" x="388.42" y="103.57" width="1.93" height="1.04"/><rect class="cls-17" x="380.47" y="107.72" width="4.77" height="1.04"/><rect class="cls-11" x="385.82" y="107.72" width="4.08" height="1.04"/><rect class="cls-5" x="379.97" y="111.87" width="1.32" height="1.04"/><rect class="cls-11" x="382.71" y="111.87" width="5.22" height="1.04"/><rect class="cls-17" x="388.66" y="111.87" width="1.69" height="1.04"/><rect class="cls-17" x="380.57" y="116.02" width="1.97" height="1.04"/><rect class="cls-11" x="383.37" y="116.02" width="2.87" height="1.04"/><rect class="cls-5" x="387.21" y="116.02" width="2.8" height="1.04"/><rect class="cls-5" x="381.47" y="120.16" width="2.73" height="1.04"/><rect class="cls-11" x="385.03" y="120.16" width="3.08" height="1.04"/><rect class="cls-11" x="388.93" y="120.16" width="1.41" height="1.04"/><rect class="cls-17" x="380.67" y="124.31" width="2.18" height="1.04"/><rect class="cls-11" x="383.65" y="124.31" width="3.15" height="1.04"/><rect class="cls-5" x="387.73" y="124.31" width="2.62" height="1.04"/><rect class="cls-5" x="379.97" y="128.46" width="1.53" height="1.04"/><rect class="cls-11" x="382.4" y="128.46" width="3.08" height="1.04"/><rect class="cls-17" x="386.31" y="128.46" width="3.46" height="1.04"/><rect class="cls-11" x="380.81" y="132.61" width="2.97" height="1.04"/><rect class="cls-11" x="384.82" y="132.61" width="3.25" height="1.04"/><rect class="cls-5" x="389.04" y="132.61" width="1.31" height="1.04"/><rect class="cls-5" x="383.3" y="136.76" width="3.04" height="1.04"/><rect class="cls-11" x="387.34" y="136.76" width="3" height="1.04"/><rect class="cls-17" x="379.97" y="136.76" width="2.25" height="1.04"/><rect class="cls-11" x="380.88" y="140.9" width="4.29" height="1.04"/><rect class="cls-5" x="386.1" y="140.9" width="3.42" height="1.04"/><rect class="cls-11" x="383.27" y="145.05" width="3.91" height="1.04"/><rect class="cls-17" x="388.28" y="145.05" width="2.07" height="1.04"/><rect class="cls-5" x="379.97" y="145.05" width="2.25" height="1.04"/><rect class="cls-11" x="380.67" y="149.2" width="4.74" height="1.04"/><rect class="cls-5" x="386.17" y="149.2" width="3.63" height="1.04"/><rect class="cls-11" x="379.97" y="53.79" width="3.23" height="1.04"/><rect class="cls-17" x="384.01" y="53.79" width="4.95" height="1.04"/><rect class="cls-5" x="389.58" y="53.79" width=".77" height="1.04"/><rect class="cls-11" x="379.97" y="57.94" width="1.44" height="1.04"/><rect class="cls-5" x="382.14" y="57.94" width="4.8" height="1.04"/><rect class="cls-17" x="387.58" y="57.94" width="2.76" height="1.04"/><rect class="cls-17" x="383.82" y="62.09" width="1.53" height="1.04"/><rect class="cls-11" x="386.18" y="62.09" width="3.71" height="1.04"/><rect class="cls-5" x="379.97" y="62.09" width="3.2" height="1.04"/><rect class="cls-11" x="382.06" y="66.24" width="4.23" height="1.04"/><rect class="cls-5" x="387.06" y="66.24" width="3.28" height="1.04"/></g><rect class="cls-2" x="364.11" y="68.26" width="3.11" height="83.93"/><polygon class="cls-7" points="379.97 46.81 390.34 52 390.34 48.99 379.97 43.81 379.97 46.81"/><polygon class="cls-15" points="359.23 52 379.97 46.81 379.97 43.81 359.23 48.99 359.23 52"/><polygon class="cls-15" points="361.83 153.67 359.23 153.67 359.23 49.61 361.83 48.99 361.83 153.67"/><rect class="cls-20" x="382.3" y="68.71" width="8.05" height="84.96" transform="translate(772.64 222.37) rotate(180)"/><polygon class="cls-16" points="300.21 101.43 297.96 153.67 240.98 147.67 247.73 101.43 300.21 101.43"/><path class="cls-21" d="M307.46,147.23c-4.59,1.69-7.25,4-9.5,6.43l2.25-52.23,2.56-.06,4.69,45.86Z"/><path class="cls-21" d="M300.21,101.43l-6.63,20.95c-.95,2.32-1.93,4.36-5.79,4.03l-36.57-2.32c-3.26-.21-3.34-1.86-3.37-4.09v-18.58h52.35Z"/><path class="cls-14" d="M273.81,122.7l-9.3-.6c-.51-.03-1.02.32-1.1.83l-1.26,8.26c-.08.51.24.98.75,1.03l9.68.98c.51.05,1.05-.32,1.1-.83l.89-8.64c.05-.51-.23-1-.75-1.03Z"/><polygon class="cls-21" points="272.1 124.93 271.5 130.76 264.68 130.07 265.53 124.51 272.1 124.93"/><path class="cls-16" d="M286.79,101.47c.03-2.26.06-4.52.08-6.78-6.93-.4-13.87-.79-20.8-1.19-.69,2.71-1.37,5.42-2.06,8.13,1.08-.04,2.17-.07,3.25-.11.43-1.7.87-3.39,1.3-5.09,5.09.25,10.18.51,15.28.76.07,1.48.14,2.96.22,4.44.91-.05,1.82-.1,2.73-.15Z"/><g class="cls-1"><path class="cls-11" d="M372.9,10.43c.44-.54.52-1.32.18-1.92-.34-.6-1.07-1-1.81-.97.88-1.42.31-3.44-1.22-4.29-1.53-.85-3.75-.38-4.72,1-.11-.62-.73-1.12-1.41-1.16-.68-.04-1.36.4-1.55,1-.51-.33-1.1-.55-1.71-.67-1.73-.33-3.62.23-4.81,1.41-1.19,1.19-1.64,2.97-1.13,4.51-.2-.34-.77-.24-1.1,0-.41.29-.71.82-.46,1.23,0,0,13.06-.18,19.65-.01"/></g><g class="cls-1"><path class="cls-11" d="M223.46,52.22c-.34-1.22-.09-2.09.87-2.97.96-.88,2.69-.99,3.97-.63-.16-.88.33-1.84,1.15-2.27.82-.43,1.93-.31,2.63.29-.3-2.43,1.62-4.93,4.14-5.39,2.52-.46,5.27,1.19,5.93,3.55.88-.4,2-.25,2.74.36.73.61,1.03,1.66.73,2.54,1.04.12,1.99.76,2.46,1.66.47.89.44,2.01-.08,2.87-7.2.06-23.67.04-24.54-.02"/></g><g class="cls-1"><path class="cls-11" d="M313.9,25.07c.52-2.11.13-3.6-1.33-5.12-1.47-1.52-4.13-1.72-6.08-1.09.24-1.53-.5-3.17-1.77-3.92-1.26-.74-2.96-.53-4.03.51.46-4.2-2.48-8.51-6.35-9.3-3.87-.79-8.09,2.05-9.1,6.14-1.35-.69-3.07-.44-4.2.62-1.12,1.06-1.58,2.86-1.11,4.39-1.59.21-3.06,1.32-3.78,2.86-.72,1.54-.67,3.46.12,4.96,11.05.1,36.31.06,37.64-.04"/></g></g></svg>