<?xml version="1.0" encoding="UTF-8"?><svg id="Layer_2" xmlns="http://www.w3.org/2000/svg" viewBox="0 0 430 153.67"><defs><style>.cls-1{opacity:.68;}.cls-2{fill:#245f14;}.cls-2,.cls-3,.cls-4,.cls-5,.cls-6,.cls-7,.cls-8,.cls-9,.cls-10,.cls-11,.cls-12,.cls-13,.cls-14,.cls-15,.cls-16,.cls-17,.cls-18{stroke-width:0px;}.cls-2,.cls-4,.cls-5,.cls-7,.cls-9,.cls-10,.cls-13,.cls-16{fill-rule:evenodd;}.cls-3{fill:#d7af80;}.cls-3,.cls-19{opacity:.36;}.cls-20{isolation:isolate;}.cls-4{fill:#e8c19a;}.cls-5{fill:#f7f7f7;}.cls-6{fill:#e0ccb8;}.cls-7,.cls-14{fill:#a13941;}.cls-8,.cls-9{fill:#fff;}.cls-10{fill:#bc4b59;}.cls-21{stroke-width:.25px;}.cls-21,.cls-11{fill:#71846c;}.cls-21,.cls-22{stroke:#245f14;}.cls-21,.cls-22,.cls-23{stroke-linejoin:round;}.cls-12{fill:#fabc41;}.cls-22{stroke-width:1.18px;}.cls-22,.cls-23{fill:none;}.cls-13{fill:#ceaa8a;}.cls-23{stroke:#a13941;stroke-dasharray:0 0 0 0 3.59 6.45 0 0;stroke-linecap:round;stroke-width:1.44px;}.cls-15{fill:#104c00;}.cls-16{fill:#ffd07d;}.cls-17{fill:#ffe4b3;}.cls-18{fill:#fffaed;}</style></defs><g id="Layer_1-2"><rect class="cls-3" width="430" height="140"/><path class="cls-14" d="M23.13,75.34l11.27-14.18h-6.81l-1.09,3.13h-1.43l.85-4.34h11.29l-.17.87-11.34,14.15h7.29l1.09-3.1h1.43l-.87,4.31h-11.68l.17-.85Z"/><path class="cls-14" d="M37.73,75.1c0-.34.07-.78.22-1.62l1.11-5.69-2.28,1.07.24-1.19,2.28-1.04.39-2.01c.29-1.43.56-2.86.78-4.29l-2.28-.15.1-.7,4.17-1.21.27.19-1.48,7.39,2.37-1.14-.24,1.19-2.37,1.11-1.19,5.86c-.15.65-.22,1.16-.22,1.41,0,.36.29.56.61.56.51,0,1.33-.63,2.3-1.75l.56.46c-1.04,1.43-2.25,2.96-3.97,2.96-.75,0-1.36-.46-1.36-1.41Z"/><path class="cls-14" d="M44.01,72.24c0-4.36,2.88-7.88,6.32-7.88,2.28,0,3.93,1.5,3.93,4.24,0,4.22-2.81,7.9-6.23,7.9-2.23,0-4.02-1.5-4.02-4.26ZM52.29,68.97c0-2.62-.92-3.63-2.23-3.63-2.3,0-4.1,3-4.1,6.62,0,2.54.99,3.59,2.35,3.59,2.37,0,3.97-3.32,3.97-6.57Z"/><path class="cls-14" d="M56.7,75.27c0-.36.02-.78.22-1.77l1.65-7.68h-2.47l.19-.92,2.59-.24,1.14-3.22h1.24l-.68,3.25h3.08l-.27,1.31-3.08-.1-1.48,6.98c-.15.65-.22,1.16-.22,1.41,0,.36.29.56.58.56.65,0,1.38-.58,2.37-1.75l.58.46c-.99,1.45-2.47,2.96-4.12,2.96-.7,0-1.33-.41-1.33-1.24Z"/><path class="cls-14" d="M63.8,72.24c0-4.36,2.88-7.88,6.32-7.88,2.28,0,3.93,1.5,3.93,4.24,0,4.22-2.81,7.9-6.23,7.9-2.23,0-4.02-1.5-4.02-4.26ZM72.09,68.97c0-2.62-.92-3.63-2.23-3.63-2.3,0-4.09,3-4.09,6.62,0,2.54.99,3.59,2.35,3.59,2.37,0,3.97-3.32,3.97-6.57ZM71.75,58.82c.31-.65.7-1.04,1.24-1.04s.94.29.94.85c0,.36-.15.73-.53,1.19-.97,1.16-1.91,2.28-2.88,3.44l-.56-.36c.61-1.36,1.21-2.71,1.79-4.07Z"/><path class="cls-14" d="M77.99,67.1c-.12-.94-.34-1.07-.68-1.07-.46,0-.87.44-1.65,1.6l-.56-.39c.85-1.89,1.89-2.88,2.98-2.88,1.02,0,1.43.46,1.62,1.62.34,2.01.44,5.19.44,7.88,1.79-2.59,3.44-5.65,4.97-9.21h.97c.15,3.3.27,6.59.36,9.43,1.62-2.04,2.74-3.68,3.95-5.94.05-.1.1-.17.15-.27l-.19-.8c-.07-.29-.12-.78-.12-.99,0-1.21.7-1.72,1.45-1.72.39,0,.65.15.8.32.1.15.15.34.15.73,0,.51-.15,1.16-1.24,3.25-1.14,2.21-3.17,5.04-5.67,7.63l-.7.07-.17-.12c-.15-2.57-.27-5.14-.39-7.68-1.24,2.35-3.1,5.52-5.02,7.73l-.73.07-.17-.12c-.02-3.9-.22-6.69-.56-9.14Z"/><path class="cls-14" d="M95.8,64.61c.29-1.43.56-2.86.8-4.29l-2.3-.15.1-.7,4.1-1.21.24.19-2.18,11.07,6.45-5.04c.51.02.87.48.87.99,0,.44-.34.78-1.24,1.26l-5.89,3.27.56.12c1.41.27,2.16,1.09,2.71,2.3l.7,1.53c.53,1.16.9,1.36,1.65,1.41l1.24.1-.12.73c-.73.24-1.19.32-1.72.32-1.14,0-1.94-.24-2.64-1.94l-.78-1.89c-.58-1.36-.94-1.79-1.79-2.04l-.22-.05-.1.51c-.34,1.7-.63,3.39-.92,5.09l-1.62.19-.22-.19,2.33-11.58Z"/><path class="cls-14" d="M104.47,72.24c0-4.36,2.88-7.88,6.32-7.88,2.28,0,3.93,1.5,3.93,4.24,0,4.22-2.81,7.9-6.23,7.9-2.23,0-4.02-1.5-4.02-4.26ZM112.76,68.97c0-2.62-.92-3.63-2.23-3.63-2.3,0-4.09,3-4.09,6.62,0,2.54.99,3.59,2.35,3.59,2.37,0,3.97-3.32,3.97-6.57Z"/><path class="cls-14" d="M118.66,67.1c-.12-.94-.34-1.07-.68-1.07-.46,0-.87.44-1.65,1.6l-.56-.39c.85-1.89,1.89-2.88,2.98-2.88,1.02,0,1.43.46,1.62,1.62.34,2.01.44,5.19.44,7.88,1.79-2.59,3.44-5.65,4.97-9.21h.97c.15,3.3.27,6.59.36,9.43,1.62-2.04,2.74-3.68,3.95-5.94.05-.1.1-.17.15-.27l-.19-.8c-.07-.29-.12-.78-.12-.99,0-1.21.7-1.72,1.45-1.72.39,0,.65.15.8.32.1.15.15.34.15.73,0,.51-.15,1.16-1.24,3.25-1.14,2.21-3.17,5.04-5.67,7.63l-.7.07-.17-.12c-.15-2.57-.27-5.14-.39-7.68-1.24,2.35-3.1,5.52-5.02,7.73l-.73.07-.17-.12c-.02-3.9-.22-6.69-.56-9.14Z"/><path class="cls-14" d="M135.06,73.5l1.48-7.05-2.4-.14.1-.7,4.12-1.24.32.24-1.72,8.31c-.12.61-.22,1.12-.22,1.38,0,.34.27.53.53.53.58,0,1.36-.58,2.33-1.75l.61.46c-1.09,1.45-2.35,2.96-4.07,2.96-.68,0-1.31-.41-1.31-1.24,0-.36.05-.78.24-1.77ZM137.37,59.71c0-.8.63-1.48,1.33-1.48.75,0,1.26.51,1.26,1.28s-.65,1.5-1.36,1.5-1.24-.51-1.24-1.31Z"/><path class="cls-14" d="M141.34,71.97c0-4.1,3.17-7.61,6.23-7.61,1.48,0,2.35.73,2.62,1.77-.1.61-.58.85-1.02.85-.53,0-.99-.39-1.43-.87l-.73-.82c-2.08.73-3.85,3.44-3.85,6.42,0,2.11,1.09,3.13,2.69,3.13,1.28,0,2.28-.95,2.96-1.77l.56.44c-.97,1.7-2.74,3-4.41,3-2.11,0-3.61-1.5-3.61-4.53Z"/><path class="cls-14" d="M151.85,65.7l1.67-1.33c2.01.53,3.76,1.07,5.74,1.92l.82-1.6,1.33-.29.29.24c-.24.61-1.07,1.7-2.3,2.98-2.04,2.08-4.19,3.83-6.2,5.72,1.87,1.41,3.15,1.75,4.14,1.75.68,0,1.26-.19,1.79-.53-.51-.61-.73-.97-.73-1.43,0-.78.53-1.24,1.21-1.31.51.19.8.85.8,1.43,0,1.77-2.01,3.51-3.88,3.51-1.41,0-2.57-.56-4.19-2.57l-.97,2.01-1.38.15-.19-.15c.48-.85.97-1.6,1.99-2.59,2.08-2.04,4.36-3.93,6.49-6.11-1.67-.53-3.05-.9-4.99-1.33l-1.02,3.29-.99-.15.56-3.61Z"/><path class="cls-14" d="M162.14,72c0-3.9,2.93-7.63,6.32-7.63,1.55,0,2.42.8,2.42,2.23,0,1.55-1.53,3.76-7.05,5.36.1,2.06,1.02,2.88,2.5,2.88s2.62-.95,3.27-1.77l.56.44c-1.02,1.65-2.59,3-4.39,3-2.11,0-3.63-1.41-3.63-4.51ZM163.84,71c4.02-1.16,5.43-2.86,5.43-4.17,0-.9-.53-1.43-1.33-1.43-1.5,0-3.85,2.57-4.09,5.6Z"/><path class="cls-6" d="M404.7,147.68v-5.98h-5.37v-5.98h-8.6v-4.51h-2.02v-65.16h2.02v-4.51h14.18c1.05,0,1.39-1.4.47-1.89l-73.29-38.38c-.29-.15-.64-.15-.93,0l-73.29,38.38c-.93.49-.58,1.89.47,1.89h14.18v4.51h2.02v65.16h-2.02v4.51h-8.6v5.98h-5.37v5.98h-6.01v5.98h158.18v-5.98h-6.01ZM321.3,131.21v-65.16h2.02v-4.51h16.62v4.51h2.02v65.16h-2.02v4.51h-16.62v-4.51h-2.02ZM375.66,66.05v65.16h-2.02v4.51h-16.62v-4.51h-2.02v-65.16h2.02v-4.51h16.62v4.51h2.02ZM287.59,131.21v-65.16h2.02v-4.51h16.62v4.51h2.02v65.16h-2.02v4.51h-16.62v-4.51h-2.02Z"/><g class="cls-19"><path class="cls-8" d="M316.96,45.8c.91-.61,1.37-1.48,1.37-2.57s-.42-1.91-1.24-2.52c-.8-.59-1.89-.89-3.26-.89h-4.66v12.86h4.89c1.55,0,2.76-.33,3.59-.98.85-.67,1.28-1.63,1.28-2.87,0-.75-.22-1.42-.65-2.01-.32-.44-.77-.78-1.33-1.02ZM315.66,44.59c-.38.26-.99.38-1.83.38h-2.46v-3.14h2.31c.96,0,1.63.14,1.99.4.34.25.51.62.51,1.14,0,.58-.17.97-.52,1.21ZM311.37,46.99h2.47c1.12,0,1.89.15,2.29.45.38.29.56.74.56,1.39,0,.79-.27,1.84-2.64,1.84h-2.68v-3.67Z"/><path class="cls-8" d="M324.07,39.82l-4.94,12.86h2.32l1.36-3.74h4.77l1.43,3.74h2.45l-5.25-12.86h-2.13ZM326.89,47.09h-3.43l1.67-4.63,1.76,4.63Z"/><polygon class="cls-8" points="340.23 48.89 334.21 39.82 332.12 39.82 332.12 52.68 334.22 52.68 334.22 43.61 340.24 52.68 342.34 52.68 342.34 39.82 340.23 39.82 340.23 48.89"/><polygon class="cls-8" points="349.86 45.18 355.32 39.82 352.33 39.82 346.72 45.52 346.72 39.82 344.53 39.82 344.53 52.68 346.72 52.68 346.72 48.26 348.32 46.69 352.58 52.68 355.42 52.68 349.86 45.18"/></g><path class="cls-4" d="M232.06,94.43c-.23.02-.4.21-.38.44l1.97,27.26c.02.23.21.4.44.38l15.52-1.12c.23-.02.39-.21.38-.44l-1.97-27.26c-.02-.23-.21-.39-.44-.38l-15.52,1.12Z"/><path class="cls-13" d="M232.7,109.02c2.37,1.37,5.16,2.06,8.09,1.85,3.15-.23,5.99-1.47,8.22-3.38l.92,12.63c.02.32-.08.65-.3.89-.21.25-.51.4-.84.42-3.03.22-10.85.79-13.88,1.01-.32.02-.65-.08-.89-.3s-.4-.52-.42-.84l-.89-12.28Z"/><circle class="cls-8" cx="240.31" cy="116.71" r="1.59"/><path class="cls-9" d="M233.94,96.07c-.07,0-.12.07-.12.13.08,1.15.72,9.92.8,11.07,0,.07.07.12.13.12l1.39-.1c.07,0,.12-.07.11-.13-.08-1.15-.72-9.92-.8-11.07,0-.07-.06-.12-.13-.12l-1.39.1Z"/><g class="cls-20"><path class="cls-18" d="M247.14,118.46l-.64-.37-.56.44-.03-.38.33-.23-.36-.17-.03-.37.61.35.58-.45.03.39-.35.23.38.18.03.38Z"/><path class="cls-18" d="M247.05,117.21l-.64-.37-.56.44-.03-.38.33-.23-.36-.17-.03-.37.61.35.58-.45.03.39-.35.23.38.18.03.38Z"/><path class="cls-18" d="M246.96,115.95l-.64-.37-.56.44-.03-.38.33-.23-.36-.17-.03-.37.61.35.58-.45.03.39-.35.23.38.18.03.38Z"/><path class="cls-18" d="M246.87,114.7l-.64-.37-.56.43-.03-.38.33-.23-.36-.17-.03-.37.61.35.58-.45.03.39-.35.23.38.18.03.38Z"/><path class="cls-18" d="M246.68,112.19l-.64-.37-.56.44-.03-.38.33-.23-.36-.17-.03-.37.61.35.58-.45.03.39-.35.23.38.18.03.38Z"/><path class="cls-18" d="M246.59,110.93l-.64-.37-.56.44-.03-.38.33-.23-.36-.17-.03-.37.61.35.58-.45.03.39-.35.23.38.18.03.38Z"/><path class="cls-18" d="M246.5,109.67l-.64-.37-.56.44-.03-.38.33-.23-.36-.17-.03-.37.61.35.58-.45.03.39-.35.23.38.18.03.38Z"/><path class="cls-18" d="M246.41,108.42l-.64-.37-.56.44-.03-.38.33-.23-.36-.17-.03-.37.61.35.58-.45.03.39-.35.23.38.18.03.38Z"/><path class="cls-18" d="M246.23,105.91l-.64-.37-.56.44-.03-.38.33-.23-.36-.17-.03-.37.61.35.58-.45.03.39-.35.23.38.18.03.38Z"/><path class="cls-18" d="M246.14,104.65l-.64-.37-.56.44-.03-.38.33-.23-.36-.17-.03-.37.61.35.58-.45.03.39-.35.23.38.18.03.38Z"/><path class="cls-18" d="M246.05,103.4l-.64-.37-.56.44-.03-.38.33-.23-.36-.17-.03-.37.61.35.58-.45.03.39-.35.23.38.18.03.38Z"/><path class="cls-18" d="M245.96,102.14l-.64-.37-.56.44-.03-.38.33-.23-.36-.17-.03-.37.61.35.58-.45.03.39-.35.23.38.18.03.38Z"/><path class="cls-18" d="M245.78,99.63l-.64-.37-.56.44-.03-.38.33-.23-.36-.17-.03-.37.61.35.58-.45.03.39-.35.23.38.18.03.38Z"/><path class="cls-18" d="M245.68,98.38l-.64-.37-.56.44-.03-.38.33-.23-.36-.17-.03-.37.61.35.58-.45.03.39-.35.23.38.18.03.38Z"/><path class="cls-18" d="M245.59,97.12l-.64-.37-.56.44-.03-.38.33-.23-.36-.17-.03-.37.61.35.58-.45.03.39-.35.23.38.18.03.38Z"/><path class="cls-18" d="M245.5,95.86l-.64-.37-.56.44-.03-.38.33-.23-.36-.17-.03-.37.61.35.58-.45.03.39-.35.23.38.18.03.38Z"/></g><rect class="cls-11" x="240.37" y="118.54" width="41.6" height="17.52" transform="translate(-28.84 109.65) rotate(-22.5)"/><path class="cls-2" d="M283.73,127.44l-38.43,15.92-6.71-16.19,38.43-15.92,6.71,16.19ZM282.07,126.75l-36.07,14.94-5.73-13.83,36.07-14.94,5.73,13.83Z"/><circle class="cls-15" cx="261.17" cy="127.3" r="6.12"/><circle class="cls-15" cx="274.03" cy="122.06" r="1.35"/><circle class="cls-15" cx="248.49" cy="132.63" r="1.35"/><g class="cls-20"><path class="cls-11" d="M259.71,124.33l.36.59c.38-.18.72-.29,1-.33.28-.04.57,0,.86.11s.54.32.76.61l-.66.55c-.25-.29-.49-.46-.72-.53-.33-.09-.64-.06-.94.08l1.13,1.89c.32-.13.69-.22,1.08-.26.29-.03.56,0,.8.12.24.11.43.29.57.53.25.42.28.87.07,1.35-.14.32-.43.65-.89.97l.17.28-.43.25-.17-.28c-.44.22-.83.32-1.18.29-.45-.03-.81-.21-1.1-.55l.69-.54c.18.21.38.33.59.38.21.04.44.02.7-.09l-1.03-1.72c-.41.14-.68.23-.83.26-.27.05-.52.06-.73.03-.21-.03-.4-.11-.58-.22-.17-.11-.31-.27-.43-.45-.25-.41-.29-.85-.14-1.32s.48-.86.97-1.18l-.36-.6.43-.25ZM259.94,125.68c-.26.2-.44.44-.52.72-.08.28-.05.55.11.8.13.22.3.35.51.4s.54.02.99-.11l-1.08-1.81ZM262.83,129.54c.26-.2.43-.43.5-.67.07-.25.05-.47-.08-.68-.12-.2-.29-.33-.51-.39-.22-.05-.52-.02-.9.09l.99,1.65Z"/></g><g class="cls-20"><path class="cls-22" d="M259.71,124.33l.36.59c.38-.18.72-.29,1-.33.28-.04.57,0,.86.11s.54.32.76.61l-.66.55c-.25-.29-.49-.46-.72-.53-.33-.09-.64-.06-.94.08l1.13,1.89c.32-.13.69-.22,1.08-.26.29-.03.56,0,.8.12.24.11.43.29.57.53.25.42.28.87.07,1.35-.14.32-.43.65-.89.97l.17.28-.43.25-.17-.28c-.44.22-.83.32-1.18.29-.45-.03-.81-.21-1.1-.55l.69-.54c.18.21.38.33.59.38.21.04.44.02.7-.09l-1.03-1.72c-.41.14-.68.23-.83.26-.27.05-.52.06-.73.03-.21-.03-.4-.11-.58-.22-.17-.11-.31-.27-.43-.45-.25-.41-.29-.85-.14-1.32s.48-.86.97-1.18l-.36-.6.43-.25ZM259.94,125.68c-.26.2-.44.44-.52.72-.08.28-.05.55.11.8.13.22.3.35.51.4s.54.02.99-.11l-1.08-1.81ZM262.83,129.54c.26-.2.43-.43.5-.67.07-.25.05-.47-.08-.68-.12-.2-.29-.33-.51-.39-.22-.05-.52-.02-.9.09l.99,1.65Z"/></g><rect class="cls-11" x="238.76" y="114.97" width="41.6" height="17.52" transform="translate(-26.58 152.14) rotate(-31.16)"/><path class="cls-2" d="M281.89,120.47l-35.6,21.52-9.07-15,35.6-21.52,9.07,15ZM280.14,120.04l-33.41,20.2-7.75-12.81,33.41-20.2,7.75,12.81Z"/><circle class="cls-15" cx="259.56" cy="123.73" r="6.12"/><circle class="cls-15" cx="271.49" cy="116.61" r="1.35"/><circle class="cls-15" cx="247.83" cy="130.91" r="1.35"/><g class="cls-20"><path class="cls-11" d="M256.34,124.47l.66-.21c-.09-.42-.12-.76-.09-1.05.03-.29.13-.56.3-.82.18-.26.43-.46.77-.6l.39.77c-.33.18-.56.37-.67.58-.16.3-.21.61-.13.94l2.1-.68c-.06-.35-.06-.72-.01-1.11.03-.29.13-.54.3-.75.16-.2.38-.35.64-.43.47-.15.91-.07,1.33.24.28.21.53.57.75,1.09l.31-.1.15.47-.32.1c.11.48.12.88.02,1.22-.13.43-.39.74-.78.95l-.37-.8c.24-.13.41-.29.5-.49.09-.2.11-.43.07-.71l-1.9.61c.05.43.07.72.06.87-.01.28-.05.52-.13.72-.08.2-.19.37-.34.51-.15.14-.33.25-.54.31-.46.15-.9.09-1.31-.16-.42-.25-.73-.66-.93-1.21l-.67.22-.15-.47ZM257.71,124.55c.13.3.33.52.58.67.26.14.53.17.81.08.24-.08.41-.21.51-.4.1-.19.14-.52.11-.99l-2.01.65ZM262.12,122.61c-.14-.3-.32-.51-.55-.64-.22-.12-.45-.15-.68-.08-.22.07-.39.21-.49.41-.1.2-.14.5-.11.9l1.82-.59Z"/></g><g class="cls-20"><path class="cls-22" d="M256.34,124.47l.66-.21c-.09-.42-.12-.76-.09-1.05.03-.29.13-.56.3-.82.18-.26.43-.46.77-.6l.39.77c-.33.18-.56.37-.67.58-.16.3-.21.61-.13.94l2.1-.68c-.06-.35-.06-.72-.01-1.11.03-.29.13-.54.3-.75.16-.2.38-.35.64-.43.47-.15.91-.07,1.33.24.28.21.53.57.75,1.09l.31-.1.15.47-.32.1c.11.48.12.88.02,1.22-.13.43-.39.74-.78.95l-.37-.8c.24-.13.41-.29.5-.49.09-.2.11-.43.07-.71l-1.9.61c.05.43.07.72.06.87-.01.28-.05.52-.13.72-.08.2-.19.37-.34.51-.15.14-.33.25-.54.31-.46.15-.9.09-1.31-.16-.42-.25-.73-.66-.93-1.21l-.67.22-.15-.47ZM257.71,124.55c.13.3.33.52.58.67.26.14.53.17.81.08.24-.08.41-.21.51-.4.1-.19.14-.52.11-.99l-2.01.65ZM262.12,122.61c-.14-.3-.32-.51-.55-.64-.22-.12-.45-.15-.68-.08-.22.07-.39.21-.49.41-.1.2-.14.5-.11.9l1.82-.59Z"/></g><rect class="cls-11" x="237.05" y="112.89" width="41.6" height="17.52" transform="translate(-24.29 162.69) rotate(-33.53)"/><path class="cls-2" d="M280.03,117.46l-34.67,22.98-9.68-14.61,34.67-22.98,9.68,14.61ZM278.26,117.11l-32.55,21.57-8.27-12.48s26.83-17.78,32.55-21.57l8.27,12.48Z"/><circle class="cls-15" cx="257.85" cy="121.65" r="6.12"/><circle class="cls-15" cx="269.47" cy="114.04" r="1.35"/><circle class="cls-15" cx="246.42" cy="129.31" r="1.35"/><g class="cls-20"><path class="cls-11" d="M254.59,121.15l.69.05c.07-.42.17-.75.3-1.01.13-.26.32-.47.59-.65.26-.18.57-.27.93-.27l.07.85c-.38.04-.66.14-.84.29-.26.22-.42.5-.47.82l2.2.15c.08-.34.21-.69.4-1.04.14-.26.32-.46.55-.59.23-.13.48-.19.76-.17.49.03.88.27,1.15.71.19.3.28.73.29,1.29l.33.02-.03.5-.33-.02c-.07.49-.21.87-.43,1.14-.28.35-.63.55-1.08.59l-.05-.88c.27-.03.49-.12.65-.27.16-.15.26-.36.33-.63l-1.99-.13c-.11.42-.2.69-.26.83-.11.26-.24.46-.39.62-.15.16-.32.27-.51.35-.19.08-.4.11-.62.09-.48-.03-.87-.25-1.16-.64-.3-.39-.44-.88-.42-1.47l-.7-.05.03-.5ZM255.83,121.73c.01.33.11.61.3.83.19.23.43.35.72.37.25.02.46-.05.62-.19.16-.14.32-.43.47-.88l-2.11-.14ZM260.64,121.55c-.02-.33-.11-.59-.27-.79s-.36-.31-.6-.32c-.24-.02-.44.05-.61.2-.17.15-.31.41-.43.79l1.91.13Z"/></g><g class="cls-20"><path class="cls-22" d="M254.59,121.15l.69.05c.07-.42.17-.75.3-1.01.13-.26.32-.47.59-.65.26-.18.57-.27.93-.27l.07.85c-.38.04-.66.14-.84.29-.26.22-.42.5-.47.82l2.2.15c.08-.34.21-.69.4-1.04.14-.26.32-.46.55-.59.23-.13.48-.19.76-.17.49.03.88.27,1.15.71.19.3.28.73.29,1.29l.33.02-.03.5-.33-.02c-.07.49-.21.87-.43,1.14-.28.35-.63.55-1.08.59l-.05-.88c.27-.03.49-.12.65-.27.16-.15.26-.36.33-.63l-1.99-.13c-.11.42-.2.69-.26.83-.11.26-.24.46-.39.62-.15.16-.32.27-.51.35-.19.08-.4.11-.62.09-.48-.03-.87-.25-1.16-.64-.3-.39-.44-.88-.42-1.47l-.7-.05.03-.5ZM255.83,121.73c.01.33.11.61.3.83.19.23.43.35.72.37.25.02.46-.05.62-.19.16-.14.32-.43.47-.88l-2.11-.14ZM260.64,121.55c-.02-.33-.11-.59-.27-.79s-.36-.31-.6-.32c-.24-.02-.44.05-.61.2-.17.15-.31.41-.43.79l1.91.13Z"/></g><rect class="cls-11" x="235.22" y="111.55" width="41.6" height="17.52" transform="translate(-17.28 193.29) rotate(-40.12)"/><path class="cls-2" d="M277.56,113.61l-31.81,26.81-11.29-13.4,31.81-26.81,11.29,13.4ZM275.77,113.45l-29.86,25.16-9.65-11.45,29.86-25.16,9.65,11.45Z"/><circle class="cls-15" cx="256.01" cy="120.31" r="6.12"/><circle class="cls-15" cx="266.69" cy="111.42" r="1.35"/><circle class="cls-15" cx="245.54" cy="129.23" r="1.35"/><path class="cls-4" d="M242.22,123.92c.4-.51.3-1.25-.21-1.65l-20.39-15.8c-.51-.4-1.26-.3-1.65.21l-8.59,11.08c-.4.51-.3,1.26.21,1.65l20.39,15.8c.51.4,1.25.3,1.65-.21l8.59-11.09Z"/><path class="cls-13" d="M231.4,114.05c-2.6.85-4.98,2.47-6.78,4.79-1.94,2.5-2.91,5.44-2.97,8.38l-10.01-7.76c-.26-.2-.42-.49-.46-.82-.04-.32.05-.65.25-.91,1.86-2.4,6.66-8.6,8.53-11,.2-.26.49-.42.82-.46s.65.05.91.25l9.73,7.54Z"/><circle class="cls-8" cx="220.6" cy="114.57" r="1.59"/><path class="cls-9" d="M240.21,123.63c.04-.05.03-.13-.02-.18-.91-.71-7.86-6.09-8.77-6.8-.05-.04-.13-.03-.18.02l-.86,1.1c-.04.05-.03.13.02.17l8.77,6.8c.05.04.13.03.17-.02l.86-1.1Z"/><g class="cls-20"><path class="cls-18" d="M214.68,118.54l.75-.25.06-.76.33.25-.06.43.39-.17.32.25-.72.24-.05.79-.33-.26.06-.44-.41.17-.32-.25Z"/><path class="cls-18" d="M215.75,119.37l.75-.25.06-.76.33.25-.06.43.39-.17.32.25-.72.24-.05.79-.33-.26.06-.44-.41.17-.32-.25Z"/><path class="cls-18" d="M216.81,120.19l.75-.25.06-.76.33.25-.06.43.39-.17.32.25-.72.24-.05.79-.33-.26.06-.44-.41.17-.32-.25Z"/><path class="cls-18" d="M217.87,121.01l.75-.25.06-.76.33.25-.06.43.39-.17.32.24-.72.24-.06.79-.33-.26.06-.44-.41.17-.32-.25Z"/><path class="cls-18" d="M219.99,122.66l.75-.25.06-.76.33.25-.06.43.39-.17.32.25-.72.24-.05.79-.33-.26.06-.44-.41.17-.32-.25Z"/><path class="cls-18" d="M221.06,123.48l.75-.25.06-.76.33.25-.06.43.39-.17.32.25-.72.24-.06.79-.33-.26.06-.44-.41.17-.32-.25Z"/><path class="cls-18" d="M222.12,124.3l.75-.25.06-.76.33.25-.06.43.39-.17.32.25-.72.24-.05.79-.33-.26.06-.44-.41.17-.32-.25Z"/><path class="cls-18" d="M223.18,125.12l.75-.25.06-.76.33.25-.06.43.39-.17.32.24-.72.24-.06.79-.33-.26.06-.44-.41.17-.32-.25Z"/><path class="cls-18" d="M225.3,126.77l.75-.25.06-.76.33.25-.06.43.39-.17.32.25-.72.24-.05.79-.33-.26.06-.44-.41.17-.32-.25Z"/><path class="cls-18" d="M226.36,127.59l.75-.25.06-.76.33.25-.06.43.39-.17.32.25-.72.24-.06.79-.33-.26.06-.44-.41.17-.32-.25Z"/><path class="cls-18" d="M227.42,128.42l.75-.25.06-.76.33.25-.06.43.39-.17.32.25-.72.24-.05.79-.33-.26.06-.44-.41.17-.32-.25Z"/><path class="cls-18" d="M228.49,129.24l.75-.25.06-.76.33.25-.06.43.39-.17.32.24-.72.24-.06.79-.33-.26.06-.44-.41.17-.32-.25Z"/><path class="cls-18" d="M230.61,130.88l.75-.25.06-.76.33.25-.06.43.39-.17.32.25-.72.24-.05.79-.33-.26.06-.44-.41.17-.32-.25Z"/><path class="cls-18" d="M231.67,131.71l.75-.25.06-.76.33.25-.06.43.39-.17.32.25-.72.24-.06.79-.33-.26.06-.44-.41.17-.32-.25Z"/><path class="cls-18" d="M232.73,132.53l.75-.25.06-.76.33.25-.06.43.39-.17.32.25-.72.24-.05.79-.33-.26.06-.44-.41.17-.32-.25Z"/><path class="cls-18" d="M233.79,133.35l.75-.25.06-.76.33.25-.06.43.39-.17.32.24-.72.24-.06.79-.33-.26.06-.44-.41.17-.32-.25Z"/></g><path class="cls-7" d="M247.1,115.84c-.06-.15-.18-.27-.34-.34-.15-.06-.33-.06-.48,0-4.14,1.73-29.33,12.24-33.46,13.96-.15.06-.27.18-.34.34-.06.15-.06.32,0,.48,1.37,3.29,8.22,19.71,9.6,23,.06.15.18.27.34.34.15.06.32.06.48,0,4.14-1.73,29.33-12.24,33.46-13.96.15-.06.27-.19.34-.34.06-.15.06-.32,0-.48-1.37-3.29-8.22-19.71-9.6-23Z"/><path class="cls-10" d="M247.1,115.84c-.06-.15-.18-.27-.34-.34-.15-.06-.33-.06-.48,0-4.14,1.73-29.33,12.24-33.46,13.96-.15.06-.27.18-.34.34-.06.15-.06.32,0,.48,1.37,3.29,8.22,19.71,9.6,23,.06.15.18.27.34.34.15.06.32.06.48,0,4.14-1.73,29.33-12.24,33.46-13.96.15-.06.27-.19.34-.34.06-.15.06-.32,0-.48-1.37-3.29-8.22-19.71-9.6-23ZM246.83,115.95l9.6,23c.03.08.03.17,0,.25-.03.08-.1.15-.18.18-4.14,1.73-29.33,12.24-33.46,13.96-.08.03-.17.03-.26,0-.08-.03-.15-.1-.18-.18,0,0-9.59-23-9.6-23-.03-.08-.03-.17,0-.25.03-.08.1-.15.18-.18,4.14-1.73,29.33-12.24,33.46-13.96.08-.03.17-.03.26,0,.08.03.15.1.18.18Z"/><path class="cls-10" d="M245.87,116.35c-.13-.32-.5-.47-.81-.33l-32.24,13.45c-.32.13-.47.5-.33.81l9.6,23c.13.32.5.47.81.33,4.05-1.69,28.19-11.76,32.24-13.45.32-.13.47-.5.33-.81l-9.6-23Z"/><path class="cls-23" d="M244.83,118.77c-.13-.32-.5-.47-.81-.34l-28.75,11.99c-.32.13-.47.5-.33.81l8.19,19.63c.13.32.5.47.81.34l28.75-11.99c.32-.13.47-.5.33-.81l-8.19-19.63Z"/><path class="cls-7" d="M251.36,125.95l-12.35,5.15c-.26.11-.39.41-.28.68l1.07,2.56c.11.27.41.39.68.28,2.33-.97,12.35-5.15,12.35-5.15l-1.47-3.52Z"/><path class="cls-5" d="M241.34,130.59l2,.77-.86,1.96-2-.77.86-1.97Z"/><circle class="cls-12" cx="243.66" cy="81.15" r="4.49"/><path class="cls-16" d="M239.15,78.83c-.64,1.24-.71,2.63-.32,3.86.4,1.23,1.26,2.32,2.51,2.96s2.63.71,3.86.32,2.32-1.26,2.96-2.51.71-2.63.32-3.86-1.26-2.32-2.51-2.96-2.63-.71-3.86-.32c-1.23.4-2.32,1.26-2.96,2.51ZM240.18,79.36c.49-.96,1.33-1.63,2.28-1.93.95-.31,2.02-.25,2.98.24s1.63,1.33,1.93,2.28.25,2.02-.24,2.98-1.33,1.63-2.28,1.93c-.95.31-2.02.25-2.98-.24s-1.63-1.33-1.93-2.28c-.31-.95-.25-2.02.24-2.98Z"/><circle class="cls-12" cx="247.5" cy="68.62" r="5.9"/><path class="cls-16" d="M241.03,68.7c.02,1.79.76,3.4,1.95,4.55,1.19,1.16,2.81,1.87,4.6,1.84s3.4-.77,4.56-1.95c1.16-1.19,1.86-2.81,1.84-4.6s-.76-3.4-1.95-4.56c-1.19-1.16-2.81-1.87-4.6-1.84s-3.4.76-4.56,1.95c-1.16,1.19-1.86,2.81-1.84,4.6ZM242.19,68.68c-.02-1.47.56-2.8,1.51-3.78.95-.97,2.27-1.58,3.74-1.6s2.8.56,3.78,1.51c.97.95,1.58,2.27,1.6,3.74s-.56,2.8-1.51,3.78c-.95.97-2.27,1.58-3.74,1.6s-2.8-.56-3.78-1.51c-.97-.95-1.58-2.27-1.6-3.74Z"/><circle class="cls-12" cx="233.82" cy="72.21" r="5.9"/><path class="cls-16" d="M228.42,75.78c.99,1.49,2.48,2.44,4.11,2.77,1.62.33,3.37.04,4.86-.94s2.44-2.49,2.77-4.11c.33-1.62.04-3.37-.94-4.86s-2.48-2.44-4.11-2.77c-1.62-.33-3.37-.04-4.86.94s-2.44,2.48-2.77,4.11c-.33,1.62-.04,3.37.94,4.86ZM229.38,75.14c-.81-1.22-1.05-2.66-.78-3.99.27-1.33,1.05-2.56,2.27-3.37s2.66-1.05,3.99-.78c1.33.27,2.56,1.05,3.37,2.27s1.05,2.66.78,3.99c-.27,1.33-1.05,2.56-2.27,3.37s-2.66,1.05-3.99.78c-1.33-.27-2.56-1.05-3.37-2.27Z"/><circle class="cls-12" cx="236.9" cy="56.13" r="7.42"/><path class="cls-16" d="M231.58,50.15c-1.65,1.47-2.55,3.47-2.66,5.52-.12,2.05.54,4.14,2.01,5.79s3.47,2.55,5.52,2.66c2.05.12,4.14-.55,5.78-2.01s2.55-3.47,2.66-5.52c.12-2.05-.54-4.14-2.01-5.78s-3.47-2.55-5.52-2.66c-2.05-.12-4.14.54-5.79,2.02ZM232.35,51.02c1.41-1.26,3.2-1.82,4.95-1.72,1.75.1,3.46.87,4.72,2.28s1.82,3.2,1.72,4.95c-.1,1.75-.87,3.46-2.28,4.72s-3.2,1.82-4.95,1.72c-1.75-.1-3.46-.87-4.72-2.28s-1.82-3.2-1.72-4.95c.1-1.75.87-3.46,2.28-4.72Z"/><path class="cls-21" d="M253.34,124.82l-1.95-2.39c-.04-.05-.06-.1-.05-.15,0-.05.05-.1.11-.15l.97-.79c.29-.24.59-.39.91-.45.32-.07.6.06.87.39.18.22.26.45.23.68-.03.23-.11.43-.23.6-.12.17-.25.31-.37.41l-.49.4.72.88c.07.08,0,.2-.18.35l-.16.13c-.18.15-.31.19-.38.1ZM253.33,122.53c.11-.09.19-.19.22-.3.04-.11,0-.23-.09-.35-.1-.12-.21-.18-.33-.16s-.23.07-.34.16l-.41.33.54.66.41-.34Z"/><path class="cls-21" d="M256.11,122.69s-.09-.03-.14-.08l-1.95-2.39c-.07-.08,0-.2.18-.35l.16-.13c.18-.15.31-.19.38-.1l1.67,2.04,1-.81s.1-.05.14-.04c.05.01.1.05.15.12l.1.12c.05.07.08.12.09.17s-.02.09-.07.13l-1.52,1.24c-.06.05-.12.08-.17.08Z"/><path class="cls-21" d="M258.2,120.85l-1.98-2.43c-.07-.08,0-.2.18-.35l.2-.16c.07-.06.14-.1.2-.13s.12-.03.19-.02l2.11.47c.12.02.24.05.35.09l.02-.02c-.05-.05-.13-.14-.22-.25l-1.03-1.26c-.07-.08,0-.2.18-.35l.13-.11c.18-.15.31-.18.38-.1l1.98,2.43c.07.08,0,.2-.18.35l-.18.14c-.07.06-.14.1-.2.13-.06.03-.12.03-.19.02l-2.15-.47c-.12-.02-.24-.05-.35-.09l-.02.02c.05.05.13.14.22.25l1.04,1.28c.07.08,0,.2-.18.35l-.13.11c-.18.15-.31.19-.38.1Z"/><path class="cls-17" d="M233.04,58.58c-.07-.16-.1-.3-.1-.42,0-.06.01-.1.03-.12l2.4-2.73h-1.95c-.11,0-.19-.03-.24-.1-.05-.07-.07-.18-.07-.33v-.15c0-.15.02-.26.07-.33.05-.07.13-.1.24-.1h3.72c.06,0,.12.08.19.24s.11.3.11.42c0,.06-.01.1-.03.13l-2.39,2.71h2.15c.11,0,.19.04.24.1.05.07.07.18.07.33v.15c0,.15-.02.26-.07.33-.05.07-.13.1-.24.1h-3.93c-.06,0-.13-.08-.2-.24Z"/><path class="cls-17" d="M240.83,57.97c.05.09.09.18.12.29s.04.17.04.21c0,.28-.34.42-1.01.42-1.02,0-1.53-.47-1.53-1.4v-1.49l-.27.14c-.07.04-.13.05-.17.05-.07,0-.1-.06-.1-.17v-.17c0-.17.09-.31.27-.4l.27-.14v-2.73c0-.18.21-.28.63-.28h.29c.42,0,.63.09.63.28v1.96l.21-.1c.06-.03.11-.04.16-.04.08,0,.12.06.12.17v.17c0,.09-.02.17-.06.23s-.11.11-.21.16l-.21.1v2.27c0,.13.03.23.09.29.06.06.16.09.29.09.03,0,.08,0,.14-.02.06-.01.11-.02.14-.02.06,0,.12.04.17.13Z"/><path class="cls-17" d="M232.63,75.45c-.11-.06-.2-.12-.25-.19-.03-.03-.04-.06-.04-.08l.07-2.64-1.09.91c-.06.05-.12.07-.18.05-.06-.02-.12-.07-.19-.15l-.07-.08c-.07-.08-.11-.16-.11-.22,0-.06.02-.12.09-.17l2.07-1.72s.1-.01.22.04c.12.06.2.12.26.18.03.03.04.06.04.09l-.08,2.62,1.2-1c.06-.05.12-.07.18-.05.06.02.12.07.19.15l.07.08c.07.08.11.16.11.22,0,.06-.02.12-.09.17l-2.19,1.82s-.11.02-.22-.04Z"/><path class="cls-17" d="M236.69,71.5c.07.03.13.06.2.11.06.05.1.08.12.1.13.16,0,.39-.37.7-.57.47-1.07.45-1.5-.07l-.69-.83-.09.2c-.02.05-.05.09-.07.11-.04.03-.09.02-.14-.05l-.08-.1c-.08-.1-.09-.21-.03-.35l.09-.2-1.27-1.52c-.08-.1-.01-.25.22-.45l.16-.14c.23-.19.39-.24.48-.14l.91,1.09.07-.16s.04-.07.07-.1c.04-.04.09-.02.14.04l.08.1c.04.05.07.1.07.16,0,.05,0,.12-.04.19l-.07.16,1.05,1.27c.06.07.12.11.18.12.06,0,.13-.02.2-.09.02-.02.04-.04.07-.08.03-.04.05-.06.07-.08.04-.03.09-.03.15,0Z"/><path class="cls-17" d="M241.37,82.44c-.03-.09-.05-.17-.04-.23,0-.03,0-.05.02-.07l1.42-1.42-1.07-.07c-.06,0-.1-.02-.13-.06-.02-.04-.03-.1-.03-.18v-.08c.01-.08.03-.14.06-.18.03-.04.08-.05.14-.05l2.04.13s.06.05.1.14c.03.09.05.17.05.24,0,.03,0,.06-.02.07l-1.41,1.41,1.18.07c.06,0,.1.02.13.06.02.04.03.1.03.18v.08c-.01.08-.03.14-.06.18-.03.04-.07.05-.14.05l-2.16-.13s-.07-.05-.1-.14Z"/><path class="cls-17" d="M245.67,82.37s.04.1.05.16c.01.06.02.1.02.12,0,.15-.2.22-.57.2-.56-.03-.83-.31-.8-.82l.05-.82-.16.07s-.07.02-.09.02c-.04,0-.06-.04-.05-.1v-.09c.01-.09.07-.17.17-.21l.16-.07.09-1.5c0-.1.12-.15.36-.13h.16c.23.02.34.08.34.18l-.07,1.08.12-.05s.06-.02.09-.02c.04,0,.06.04.06.1v.1s-.02.09-.05.12c-.02.03-.07.06-.12.08l-.12.05-.08,1.25c0,.07,0,.12.04.16.03.03.08.05.16.06.02,0,.05,0,.08,0,.03,0,.06,0,.08,0,.03,0,.06.03.09.08Z"/><path class="cls-17" d="M248.04,72.05c-.13,0-.24-.02-.32-.06-.04-.02-.06-.04-.07-.06l-1.14-2.5-.6,1.34c-.03.08-.08.12-.15.13-.06.01-.15,0-.25-.05l-.1-.04c-.1-.05-.17-.1-.2-.15-.03-.05-.03-.12,0-.2l1.15-2.56s.09-.06.23-.06c.13,0,.24.02.32.05.04.02.07.04.08.06l1.13,2.48.66-1.48c.03-.08.08-.12.15-.13.06-.01.15,0,.25.05l.1.05c.1.05.17.1.2.15.03.05.03.12,0,.2l-1.21,2.7s-.09.06-.23.06Z"/><path class="cls-17" d="M250.03,66.5c.07,0,.15,0,.23,0,.08.01.13.02.16.04.19.09.19.36-.02.82-.32.7-.79.91-1.44.62l-1.02-.46v.23c.01.06,0,.1,0,.13-.02.05-.07.05-.15.02l-.12-.05c-.12-.05-.18-.16-.19-.31v-.23s-1.89-.84-1.89-.84c-.13-.06-.13-.23,0-.52l.09-.2c.13-.29.26-.41.38-.35l1.35.61v-.18s0-.09.01-.12c.02-.05.07-.06.15-.03l.12.05c.06.03.11.07.14.11.03.05.04.11.05.19v.18s1.57.7,1.57.7c.09.04.17.05.22.03.06-.02.11-.08.15-.17.01-.02.02-.06.03-.1.01-.04.02-.08.03-.1.02-.04.07-.07.14-.08Z"/><g class="cls-1"><path class="cls-8" d="M412.41,21.59c.71-.87.83-2.11.28-3.07-.54-.96-1.72-1.6-2.9-1.56,1.42-2.28.49-5.52-1.95-6.88-2.45-1.36-6.01-.61-7.57,1.6-.18-.99-1.17-1.8-2.26-1.86-1.09-.06-2.18.64-2.49,1.6-.82-.53-1.76-.88-2.74-1.07-2.77-.53-5.81.36-7.72,2.27-1.91,1.91-2.63,4.76-1.81,7.23-.32-.54-1.23-.38-1.76-.01-.66.46-1.14,1.31-.74,1.97,0,0,20.94-.28,31.5-.02"/></g><g class="cls-1"><path class="cls-8" d="M165.25,20.4c-.38-1.37-.1-2.33.97-3.31,1.07-.98,3.01-1.11,4.43-.71-.17-.99.37-2.05,1.29-2.53.92-.48,2.15-.34,2.93.33-.34-2.72,1.81-5.5,4.62-6.01,2.82-.51,5.89,1.33,6.62,3.97.98-.45,2.24-.28,3.06.4.82.69,1.15,1.85.81,2.84,1.16.14,2.23.85,2.75,1.85.52,1,.49,2.24-.09,3.21-8.04.07-26.43.04-27.39-.03"/></g><g class="cls-1"><path class="cls-8" d="M265.24,33.6c.41-1.68.1-2.86-1.06-4.06-1.16-1.2-3.28-1.36-4.83-.86.19-1.21-.4-2.52-1.4-3.11-1-.59-2.35-.42-3.2.4.37-3.33-1.97-6.75-5.04-7.38-3.07-.63-6.42,1.63-7.22,4.87-1.07-.55-2.44-.35-3.33.49-.89.84-1.25,2.27-.88,3.48-1.26.17-2.43,1.05-3,2.27-.57,1.22-.53,2.75.09,3.93,8.76.08,28.8.05,29.86-.03"/></g></g></svg>