<?xml version="1.0" encoding="UTF-8"?><svg id="Layer_2" xmlns="http://www.w3.org/2000/svg" xmlns:xlink="http://www.w3.org/1999/xlink" viewBox="0 0 430 153.67"><defs><style>.cls-1,.cls-2,.cls-3,.cls-4,.cls-5,.cls-6{fill:none;}.cls-1,.cls-3{stroke:#ffe4b3;stroke-miterlimit:10;}.cls-1,.cls-3,.cls-5,.cls-6{stroke-linecap:round;}.cls-7{fill:#245f14;}.cls-7,.cls-8,.cls-9,.cls-10,.cls-11,.cls-12,.cls-13,.cls-14,.cls-2,.cls-15,.cls-16,.cls-17,.cls-18,.cls-19,.cls-20,.cls-21,.cls-22,.cls-23,.cls-24,.cls-25,.cls-26,.cls-27,.cls-28{stroke-width:0px;}.cls-7,.cls-9,.cls-10,.cls-13,.cls-14,.cls-15,.cls-18,.cls-19,.cls-22,.cls-23,.cls-27{fill-rule:evenodd;}.cls-8{fill:#d7af80;opacity:.36;}.cls-9{fill:#01240b;}.cls-29{isolation:isolate;}.cls-10,.cls-25{fill:#e8c19a;}.cls-11,.cls-13{fill:#f7f7f7;}.cls-14{fill:#ffad86;}.cls-3{stroke-width:1.4px;}.cls-15,.cls-24{fill:#a13941;}.cls-16{fill:#efd8c2;}.cls-17,.cls-18{fill:#fff;}.cls-19{fill:#bc4b59;}.cls-30{stroke-width:.25px;}.cls-30,.cls-20{fill:#71846c;}.cls-30,.cls-4{stroke:#245f14;}.cls-30,.cls-4,.cls-5,.cls-6{stroke-linejoin:round;}.cls-21{fill:#fabc41;}.cls-22{fill:rgba(198,144,36,.23);}.cls-31{clip-path:url(#clippath);}.cls-23{fill:#ceaa8a;}.cls-4{stroke-width:1.14px;}.cls-5{stroke:#000;stroke-width:5.51px;}.cls-26{fill:#104c00;}.cls-6{stroke:#a13941;stroke-dasharray:0 0 0 0 3.47 6.23 0 0;stroke-width:1.39px;}.cls-27{fill:#ffd07d;}.cls-28{fill:#fffaed;}</style><clipPath id="clippath"><polygon class="cls-2" points="308.99 48.23 313.85 58.52 313.84 58.56 245.67 36.75 245.69 36.72 257.51 31.75 308.99 48.23"/></clipPath></defs><g id="Layer_1-2"><rect class="cls-8" width="430" height="140"/><rect class="cls-16" x="214.61" y="59.43" width="99.85" height="71.56" transform="translate(93.23 318.15) rotate(-72.26)"/><path class="cls-10" d="M308.99,48.23l4.86,10.29v.04s-68.17-21.81-68.17-21.81v-.04s11.83-4.96,11.83-4.96l51.48,16.48Z"/><g class="cls-31"><path class="cls-22" d="M314.71,57.42l1.55,2.68-75.03-23.54,3.47-1.23,70.01,22.09Z"/></g><rect class="cls-17" x="223.16" y="32.97" width="57.19" height="83.42" transform="translate(-.62 2.12) rotate(-.48)"/><rect class="cls-11" x="210.71" y="47.01" width="83.42" height="57.19" transform="translate(133.08 310.52) rotate(-79.74)"/><rect class="cls-17" x="210.71" y="47.01" width="83.42" height="57.19" transform="translate(160.69 322.61) rotate(-86.3)"/><rect class="cls-17" x="207.76" y="21.53" width="57.19" height="83.42" transform="translate(-6.41 93.72) rotate(-22.14)"/><rect class="cls-25" x="193.1" y="24.39" width="57.19" height="5.6" transform="translate(6.09 85.54) rotate(-22.14)"/><rect class="cls-25" x="200.85" y="36.91" width="23.49" height="2.92" transform="translate(1.21 82.94) rotate(-22.14)"/><rect class="cls-25" x="205.36" y="44.92" width="49.79" height="3.93" transform="translate(-.69 90.22) rotate(-22.14)"/><rect class="cls-16" x="211.91" y="62.41" width="49.79" height="1.15" transform="translate(-6.28 93.87) rotate(-22.14)"/><rect class="cls-16" x="213" y="65.08" width="49.79" height="1.15" transform="translate(-7.2 94.48) rotate(-22.14)"/><rect class="cls-16" x="214.21" y="68.06" width="49.79" height="1.15" transform="translate(-8.24 95.15) rotate(-22.14)"/><rect class="cls-16" x="215.3" y="70.73" width="49.79" height="1.15" transform="translate(-9.16 95.76) rotate(-22.14)"/><rect class="cls-16" x="216.47" y="73.62" width="49.79" height="1.15" transform="translate(-10.17 96.42) rotate(-22.14)"/><rect class="cls-16" x="217.56" y="76.29" width="49.79" height="1.15" transform="translate(-11.09 97.02) rotate(-22.14)"/><rect class="cls-16" x="218.77" y="79.27" width="49.79" height="1.15" transform="translate(-12.13 97.7) rotate(-22.14)"/><rect class="cls-16" x="219.86" y="81.94" width="49.79" height="1.15" transform="translate(-13.05 98.3) rotate(-22.14)"/><path class="cls-10" d="M254.05,39.32l-46.12,18.76,4.89,12.03,46.12-18.76-4.89-12.03ZM253.93,39.61l4.73,11.62c-3.18,1.29-42.53,17.3-45.71,18.59l-4.73-11.62,45.71-18.59h0Z"/><rect class="cls-25" x="202.66" y="41.73" width="19.59" height="2.92" transform="translate(-.61 83.24) rotate(-22.14)"/><rect class="cls-25" x="204.36" y="45.91" width="19.59" height="2.92" transform="translate(-2.06 84.19) rotate(-22.14)"/><rect class="cls-25" x="234.95" y="25.08" width="13.48" height="2.92" transform="translate(7.81 93.03) rotate(-22.14)"/><rect class="cls-25" x="238.65" y="28.76" width="11.36" height="2.92" transform="translate(6.62 94.29) rotate(-22.14)"/><rect class="cls-25" x="239.77" y="33.06" width="11.96" height="2.92" transform="translate(5.11 95.14) rotate(-22.14)"/><rect class="cls-25" x="258.66" y="79.49" width="11.96" height="2.92" transform="translate(-11 105.68) rotate(-22.14)"/><rect class="cls-17" x="223.82" y="33.89" width="57.19" height="83.42" transform="translate(-4.47 16.96) rotate(-3.81)"/><rect class="cls-25" x="221.23" y="33.98" width="57.19" height="5.6" transform="translate(-1.89 16.7) rotate(-3.81)"/><rect class="cls-25" x="225.94" y="43.07" width="23.49" height="2.92" transform="translate(-2.44 15.91) rotate(-3.81)"/><rect class="cls-25" x="226.88" y="56.19" width="49.79" height="3.93" transform="translate(-3.31 16.88) rotate(-3.81)"/><rect class="cls-16" x="228.03" y="74.93" width="49.79" height="1.15" transform="translate(-4.46 17) rotate(-3.81)"/><rect class="cls-16" x="228.23" y="77.81" width="49.79" height="1.15" transform="translate(-4.65 17.01) rotate(-3.81)"/><rect class="cls-16" x="228.44" y="81.01" width="49.79" height="1.15" transform="translate(-4.87 17.04) rotate(-3.81)"/><rect class="cls-16" x="252.32" y="73.93" width="25.66" height="1.66" transform="translate(-4.39 17.81) rotate(-3.81)"/><rect class="cls-16" x="254.03" y="76.86" width="24.15" height="1.93" transform="translate(-4.59 17.88) rotate(-3.81)"/><rect class="cls-16" x="256.34" y="80.49" width="20.89" height="1.41" transform="translate(-4.81 17.93) rotate(-3.81)"/><rect class="cls-16" x="228.63" y="83.89" width="49.79" height="1.15" transform="translate(-5.06 17.05) rotate(-3.81)"/><rect class="cls-16" x="258.84" y="82.85" width="15.93" height="1.74" transform="translate(-4.98 17.94) rotate(-3.81)"/><rect class="cls-16" x="228.84" y="87.01" width="49.79" height="1.15" transform="translate(-5.26 17.08) rotate(-3.81)"/><rect class="cls-16" x="229.03" y="89.88" width="49.79" height="1.15" transform="translate(-5.46 17.09) rotate(-3.81)"/><rect class="cls-16" x="229.24" y="93.09" width="49.79" height="1.15" transform="translate(-5.67 17.12) rotate(-3.81)"/><rect class="cls-16" x="229.44" y="95.97" width="49.79" height="1.15" transform="translate(-5.86 17.14) rotate(-3.81)"/><path class="cls-10" d="M276.74,58.46l-49.68,3.31.86,12.96,49.68-3.31-.86-12.96ZM276.53,58.7l.83,12.52s-45.68,3.05-49.24,3.28c-.1-1.56-.73-10.96-.83-12.52,3.56-.24,49.24-3.28,49.24-3.28h0Z"/><rect class="cls-25" x="226.24" y="47.59" width="19.59" height="2.92" transform="translate(-2.74 15.81) rotate(-3.81)"/><rect class="cls-25" x="226.54" y="52.1" width="19.59" height="2.92" transform="translate(-3.04 15.84) rotate(-3.81)"/><rect class="cls-25" x="262.28" y="40.98" width="13.48" height="2.92" transform="translate(-2.23 17.99) rotate(-3.81)"/><rect class="cls-25" x="264.69" y="45.3" width="11.36" height="2.92" transform="translate(-2.51 18.09) rotate(-3.81)"/><rect class="cls-25" x="264.39" y="49.83" width="11.96" height="2.92" transform="translate(-2.81 18.1) rotate(-3.81)"/><rect class="cls-25" x="267.72" y="99.85" width="11.96" height="2.92" transform="translate(-6.13 18.43) rotate(-3.81)"/><path class="cls-14" d="M226.12,64.76c.45.02.88.16,1.25.41,1.68,1.14,7.63,5.29,7.76,6.93.16,1.9-.63,1.92-2.28,2.12-1.65.2-5.81-1.67-8.09-1.57-2.28.1-7.21,10.5-7.18,11.84,0,0-.28,2.79,3.22-.88,0,0,4.06-5.34,4.74-6.86,0,0,1.97.46,3.51,1.3.08.05.16.1.24.16.86.74,6.33,5.8-1.51,8.79,0,0,.99,6.53-5.92,6.18,0,0-.05,5.35-4.51,5l-11.74-4.66s5.45-16.12,9.77-21.24c0,0,3.14-4.34,5.75-5.82,0,0,2.6-1.79,4.99-1.71Z"/><circle class="cls-5" cx="236.33" cy="51.63" r="12.27"/><rect class="cls-12" x="227.72" y="63.66" width="4.89" height="2.34" transform="translate(74.63 246.46) rotate(-65.16)"/><path class="cls-15" d="M231.71,66.85s-1.52,3.07-3.05,8.1c0,0-7.68,17.28-12.85,12.19-.17-.17-.21-.42-.1-.63,1.26-2.49,9.15-17.99,11.73-21,0,0,3.84.84,4.27,1.35Z"/><rect class="cls-17" x="208.44" y="90.1" width="6.43" height="17.23" transform="translate(41.81 259.01) rotate(-68.35)"/><path class="cls-9" d="M168.07,153.67l23.36-.12c8.56-14.31,20.37-35.08,28.93-49.39l-20.12-7.19c-9.58,16.94-22.59,39.76-32.17,56.7Z"/><path class="cls-10" d="M345.85,94.22c-.23.02-.4.21-.38.44l1.98,27.35c.02.23.21.4.44.38l15.57-1.13c.23-.02.4-.21.38-.44l-1.98-27.35c-.02-.23-.21-.39-.44-.38l-15.57,1.13Z"/><path class="cls-23" d="M346.5,108.87c2.38,1.37,5.18,2.07,8.12,1.85,3.16-.23,6.01-1.47,8.25-3.39l.92,12.68c.02.32-.08.65-.3.89-.21.25-.51.4-.84.42l-13.93,1.01c-.32.02-.65-.08-.89-.3s-.4-.52-.42-.84l-.89-12.32Z"/><circle class="cls-17" cx="354.14" cy="116.58" r="1.6"/><path class="cls-18" d="M347.75,95.87c-.07,0-.12.07-.12.13.08,1.15.72,9.95.8,11.11,0,.07.07.12.13.12l1.4-.1c.07,0,.12-.07.11-.13-.08-1.15-.72-9.95-.8-11.11,0-.07-.06-.12-.13-.12l-1.4.1Z"/><g class="cls-29"><path class="cls-28" d="M360.99,118.34l-.64-.37-.56.44-.03-.39.33-.23-.36-.17-.03-.38.62.35.59-.46.03.39-.35.23.38.18.03.38Z"/><path class="cls-28" d="M360.9,117.08l-.64-.37-.56.44-.03-.39.33-.23-.36-.17-.03-.38.62.35.59-.46.03.39-.35.23.38.18.03.38Z"/><path class="cls-28" d="M360.8,115.82l-.64-.37-.56.44-.03-.39.33-.23-.36-.17-.03-.38.62.35.59-.46.03.39-.35.23.38.18.03.38Z"/><path class="cls-28" d="M360.71,114.56l-.64-.37-.56.44-.03-.39.33-.23-.36-.17-.03-.38.62.35.59-.46.03.39-.35.23.38.18.03.38Z"/><path class="cls-28" d="M360.53,112.04l-.64-.37-.56.44-.03-.39.33-.23-.36-.17-.03-.38.62.35.59-.46.03.39-.35.23.38.18.03.38Z"/><path class="cls-28" d="M360.44,110.78l-.64-.37-.56.44-.03-.39.33-.23-.36-.17-.03-.38.62.35.59-.46.03.39-.35.23.38.18.03.38Z"/><path class="cls-28" d="M360.35,109.52l-.64-.37-.56.44-.03-.39.33-.23-.36-.17-.03-.38.62.35.59-.46.03.39-.35.23.38.18.03.38Z"/><path class="cls-28" d="M360.26,108.26l-.64-.37-.56.44-.03-.39.33-.23-.36-.17-.03-.38.62.35.59-.46.03.39-.35.23.38.18.03.38Z"/><path class="cls-28" d="M360.07,105.75l-.64-.37-.56.44-.03-.39.33-.23-.36-.17-.03-.38.62.35.59-.46.03.39-.35.23.38.18.03.38Z"/><path class="cls-28" d="M359.98,104.49l-.64-.37-.56.44-.03-.39.33-.23-.36-.17-.03-.38.62.35.59-.46.03.39-.35.23.38.18.03.38Z"/><path class="cls-28" d="M359.89,103.23l-.64-.37-.56.44-.03-.39.33-.23-.36-.17-.03-.38.62.35.59-.46.03.39-.35.23.38.18.03.38Z"/><path class="cls-28" d="M359.8,101.96l-.64-.37-.56.44-.03-.39.33-.23-.36-.17-.03-.38.62.35.59-.46.03.39-.35.23.38.18.03.38Z"/><path class="cls-28" d="M359.62,99.45l-.64-.37-.56.44-.03-.39.33-.23-.36-.17-.03-.38.62.35.59-.46.03.39-.35.23.38.18.03.38Z"/><path class="cls-28" d="M359.53,98.19l-.64-.37-.56.44-.03-.39.33-.23-.36-.17-.03-.38.62.35.59-.46.03.39-.35.23.38.18.03.38Z"/><path class="cls-28" d="M359.44,96.93l-.64-.37-.56.44-.03-.39.33-.23-.36-.17-.03-.38.62.35.59-.46.03.39-.35.23.38.18.03.38Z"/><path class="cls-28" d="M359.34,95.67l-.64-.37-.56.44-.03-.39.33-.23-.36-.17-.03-.38.62.35.59-.46.03.39-.35.23.38.18.03.38Z"/></g><rect class="cls-20" x="354.19" y="118.42" width="41.74" height="17.59" transform="translate(-20.13 153.24) rotate(-22.5)"/><path class="cls-7" d="M397.71,127.35l-38.56,15.98-6.73-16.25,38.56-15.98,6.73,16.25ZM396.04,126.65l-36.2,15-5.75-13.88,36.2-15,5.75,13.88Z"/><circle class="cls-26" cx="375.06" cy="127.21" r="6.14"/><circle class="cls-26" cx="387.97" cy="121.95" r="1.36"/><circle class="cls-26" cx="362.34" cy="132.56" r="1.36"/><g class="cls-29"><path class="cls-20" d="M373.6,124.23l.36.6c.39-.18.72-.29,1.01-.33.28-.04.57,0,.87.11.29.12.55.32.76.61l-.66.55c-.25-.29-.49-.46-.72-.53-.33-.09-.65-.06-.95.08l1.14,1.9c.33-.13.69-.22,1.09-.26.3-.03.56,0,.8.12.24.11.43.29.57.53.25.42.28.88.07,1.36-.14.32-.44.65-.89.98l.17.29-.43.26-.17-.29c-.44.22-.84.32-1.19.3-.45-.03-.82-.21-1.11-.55l.69-.54c.18.21.38.33.59.38.21.04.45.01.71-.09l-1.03-1.72c-.41.14-.69.23-.83.26-.27.05-.52.06-.73.03-.21-.03-.41-.11-.58-.22-.17-.12-.32-.27-.43-.46-.25-.41-.29-.85-.14-1.32.15-.47.48-.86.98-1.19l-.36-.6.43-.26ZM373.83,125.59c-.27.2-.44.44-.52.72-.08.28-.05.55.11.8.13.22.3.35.51.41.21.05.54.02.99-.11l-1.09-1.82ZM376.73,129.45c.26-.2.43-.43.5-.68.07-.25.05-.47-.08-.68-.12-.2-.29-.33-.51-.39-.22-.05-.52-.02-.9.09l.99,1.65Z"/></g><g class="cls-29"><path class="cls-4" d="M373.6,124.23l.36.6c.39-.18.72-.29,1.01-.33.28-.04.57,0,.87.11.29.12.55.32.76.61l-.66.55c-.25-.29-.49-.46-.72-.53-.33-.09-.65-.06-.95.08l1.14,1.9c.33-.13.69-.22,1.09-.26.3-.03.56,0,.8.12.24.11.43.29.57.53.25.42.28.88.07,1.36-.14.32-.44.65-.89.98l.17.29-.43.26-.17-.29c-.44.22-.84.32-1.19.3-.45-.03-.82-.21-1.11-.55l.69-.54c.18.21.38.33.59.38.21.04.45.01.71-.09l-1.03-1.72c-.41.14-.69.23-.83.26-.27.05-.52.06-.73.03-.21-.03-.41-.11-.58-.22-.17-.12-.32-.27-.43-.46-.25-.41-.29-.85-.14-1.32.15-.47.48-.86.98-1.19l-.36-.6.43-.26ZM373.83,125.59c-.27.2-.44.44-.52.72-.08.28-.05.55.11.8.13.22.3.35.51.41.21.05.54.02.99-.11l-1.09-1.82ZM376.73,129.45c.26-.2.43-.43.5-.68.07-.25.05-.47-.08-.68-.12-.2-.29-.33-.51-.39-.22-.05-.52-.02-.9.09l.99,1.65Z"/></g><rect class="cls-20" x="352.58" y="114.84" width="41.74" height="17.59" transform="translate(-10.1 211.05) rotate(-31.16)"/><path class="cls-7" d="M395.86,120.36l-35.72,21.59-9.1-15.05,35.72-21.59,9.1,15.05ZM394.11,119.92l-33.53,20.27-7.77-12.86,33.53-20.27,7.77,12.86Z"/><circle class="cls-26" cx="373.45" cy="123.63" r="6.14"/><circle class="cls-26" cx="385.43" cy="116.49" r="1.36"/><circle class="cls-26" cx="361.68" cy="130.83" r="1.36"/><g class="cls-29"><path class="cls-20" d="M370.23,124.37l.66-.21c-.09-.42-.12-.77-.09-1.05s.13-.56.31-.82c.18-.26.43-.46.77-.6l.39.77c-.34.18-.56.37-.68.58-.16.3-.21.62-.13.94l2.11-.68c-.06-.35-.06-.72-.01-1.12.03-.29.13-.54.3-.75.16-.21.38-.35.64-.44.47-.15.92-.07,1.34.24.28.21.53.57.75,1.09l.32-.1.15.47-.32.1c.11.48.12.89.02,1.22-.13.43-.39.75-.78.96l-.37-.8c.24-.13.41-.3.5-.49.09-.2.11-.43.07-.71l-1.91.62c.05.43.07.72.07.87-.01.28-.05.52-.13.72-.08.2-.19.37-.35.51-.15.14-.33.25-.54.31-.46.15-.9.09-1.32-.16-.42-.25-.73-.66-.94-1.22l-.67.22-.15-.47ZM371.6,124.45c.13.3.33.53.58.67.26.14.53.17.81.08.24-.08.41-.21.51-.4.1-.19.14-.52.11-.99l-2.02.65ZM376.02,122.5c-.14-.3-.32-.51-.55-.64-.23-.13-.45-.15-.68-.08-.23.07-.39.21-.49.41-.1.2-.14.5-.11.9l1.83-.59Z"/></g><g class="cls-29"><path class="cls-4" d="M370.23,124.37l.66-.21c-.09-.42-.12-.77-.09-1.05s.13-.56.31-.82c.18-.26.43-.46.77-.6l.39.77c-.34.18-.56.37-.68.58-.16.3-.21.62-.13.94l2.11-.68c-.06-.35-.06-.72-.01-1.12.03-.29.13-.54.3-.75.16-.21.38-.35.64-.44.47-.15.92-.07,1.34.24.28.21.53.57.75,1.09l.32-.1.15.47-.32.1c.11.48.12.89.02,1.22-.13.43-.39.75-.78.96l-.37-.8c.24-.13.41-.3.5-.49.09-.2.11-.43.07-.71l-1.91.62c.05.43.07.72.07.87-.01.28-.05.52-.13.72-.08.2-.19.37-.35.51-.15.14-.33.25-.54.31-.46.15-.9.09-1.32-.16-.42-.25-.73-.66-.94-1.22l-.67.22-.15-.47ZM371.6,124.45c.13.3.33.53.58.67.26.14.53.17.81.08.24-.08.41-.21.51-.4.1-.19.14-.52.11-.99l-2.02.65ZM376.02,122.5c-.14-.3-.32-.51-.55-.64-.23-.13-.45-.15-.68-.08-.23.07-.39.21-.49.41-.1.2-.14.5-.11.9l1.83-.59Z"/></g><rect class="cls-20" x="350.86" y="112.75" width="41.74" height="17.59" transform="translate(-5.27 225.59) rotate(-33.53)"/><path class="cls-7" d="M393.99,117.34l-34.79,23.06-9.71-14.66,34.79-23.06,9.71,14.66ZM392.21,116.98l-32.66,21.64-8.3-12.52s26.92-17.84,32.66-21.64l8.3,12.52Z"/><circle class="cls-26" cx="371.73" cy="121.54" r="6.14"/><circle class="cls-26" cx="383.4" cy="113.91" r="1.36"/><circle class="cls-26" cx="360.27" cy="129.22" r="1.36"/><g class="cls-29"><path class="cls-20" d="M368.46,121.04l.69.05c.07-.42.17-.76.3-1.01s.33-.47.59-.65c.26-.18.57-.27.94-.28l.07.86c-.38.04-.66.14-.84.29-.26.22-.42.5-.47.83l2.21.15c.08-.34.21-.69.4-1.04.14-.26.33-.46.55-.59.23-.13.48-.19.76-.17.49.03.88.27,1.16.72.19.3.29.73.29,1.29l.33.02-.03.5-.33-.02c-.07.49-.21.87-.43,1.14-.28.35-.64.55-1.08.6l-.05-.88c.28-.03.49-.12.65-.27.16-.15.27-.36.33-.63l-2-.13c-.12.42-.2.7-.26.83-.11.26-.24.46-.39.62-.15.16-.32.27-.51.35-.19.08-.4.11-.62.09-.48-.03-.87-.24-1.17-.64-.3-.39-.44-.89-.42-1.48l-.7-.05.03-.5ZM369.71,121.62c.01.33.11.61.3.84.19.23.43.35.72.37.25.02.46-.05.62-.19.16-.14.32-.44.47-.88l-2.11-.14ZM374.54,121.44c-.02-.33-.11-.6-.27-.8-.16-.2-.36-.31-.6-.33-.24-.02-.44.05-.61.2-.17.15-.32.42-.44.79l1.92.13Z"/></g><g class="cls-29"><path class="cls-4" d="M368.46,121.04l.69.05c.07-.42.17-.76.3-1.01s.33-.47.59-.65c.26-.18.57-.27.94-.28l.07.86c-.38.04-.66.14-.84.29-.26.22-.42.5-.47.83l2.21.15c.08-.34.21-.69.4-1.04.14-.26.33-.46.55-.59.23-.13.48-.19.76-.17.49.03.88.27,1.16.72.19.3.29.73.29,1.29l.33.02-.03.5-.33-.02c-.07.49-.21.87-.43,1.14-.28.35-.64.55-1.08.6l-.05-.88c.28-.03.49-.12.65-.27.16-.15.27-.36.33-.63l-2-.13c-.12.42-.2.7-.26.83-.11.26-.24.46-.39.62-.15.16-.32.27-.51.35-.19.08-.4.11-.62.09-.48-.03-.87-.24-1.17-.64-.3-.39-.44-.89-.42-1.48l-.7-.05.03-.5ZM369.71,121.62c.01.33.11.61.3.84.19.23.43.35.72.37.25.02.46-.05.62-.19.16-.14.32-.44.47-.88l-2.11-.14ZM374.54,121.44c-.02-.33-.11-.6-.27-.8-.16-.2-.36-.31-.6-.33-.24-.02-.44.05-.61.2-.17.15-.32.42-.44.79l1.92.13Z"/></g><rect class="cls-20" x="349.02" y="111.4" width="41.74" height="17.59" transform="translate(9.59 266.65) rotate(-40.12)"/><path class="cls-7" d="M391.52,113.47l-31.92,26.9-11.33-13.45,31.92-26.9,11.33,13.45ZM389.71,113.31l-29.96,25.25-9.68-11.49,29.96-25.25,9.68,11.49Z"/><circle class="cls-26" cx="369.89" cy="120.19" r="6.14"/><circle class="cls-26" cx="380.61" cy="111.27" r="1.36"/><circle class="cls-26" cx="359.39" cy="129.14" r="1.36"/><path class="cls-10" d="M356.06,123.82c.4-.51.3-1.26-.21-1.65l-20.46-15.85c-.51-.4-1.26-.3-1.66.21l-8.62,11.12c-.4.52-.31,1.26.21,1.66l20.46,15.85c.52.4,1.26.31,1.66-.21l8.62-11.12Z"/><path class="cls-23" d="M345.2,113.91c-2.61.85-5,2.47-6.8,4.8-1.94,2.51-2.92,5.46-2.98,8.4l-10.05-7.79c-.26-.2-.43-.5-.47-.82-.04-.32.05-.65.25-.91,1.87-2.41,6.69-8.63,8.56-11.04.2-.26.5-.43.82-.47s.65.05.91.25l9.77,7.57Z"/><circle class="cls-17" cx="334.35" cy="114.44" r="1.6"/><path class="cls-18" d="M354.04,123.52c.04-.05.03-.13-.02-.18l-8.8-6.82c-.05-.04-.13-.03-.18.02l-.86,1.11c-.04.05-.03.13.02.17.91.71,7.89,6.11,8.8,6.82.05.04.13.03.17-.02l.86-1.11Z"/><g class="cls-29"><path class="cls-28" d="M328.42,118.42l.75-.25.06-.76.33.25-.06.43.4-.17.32.25-.72.24-.06.79-.33-.26.06-.44-.41.17-.32-.25Z"/><path class="cls-28" d="M329.49,119.25l.75-.25.06-.76.33.25-.06.43.4-.17.32.25-.72.24-.06.79-.33-.26.06-.44-.41.17-.32-.25Z"/><path class="cls-28" d="M330.55,120.07l.75-.25.06-.76.33.25-.06.43.4-.17.32.25-.72.24-.06.79-.33-.26.06-.44-.41.17-.32-.25Z"/><path class="cls-28" d="M331.62,120.9l.75-.25.06-.76.33.25-.06.43.4-.17.32.25-.72.24-.06.79-.33-.26.06-.44-.41.17-.32-.25Z"/><path class="cls-28" d="M333.75,122.55l.75-.25.06-.76.33.25-.06.43.4-.17.32.25-.72.24-.06.79-.33-.26.06-.44-.41.17-.32-.25Z"/><path class="cls-28" d="M334.82,123.38l.75-.25.05-.76.33.25-.06.43.4-.17.32.25-.72.24-.06.79-.33-.26.06-.44-.41.17-.32-.25Z"/><path class="cls-28" d="M335.88,124.2l.75-.25.06-.76.33.25-.06.43.4-.17.32.25-.72.24-.06.79-.33-.26.06-.44-.41.17-.32-.25Z"/><path class="cls-28" d="M336.95,125.03l.75-.25.06-.76.33.25-.06.43.4-.17.32.25-.72.24-.06.79-.33-.26.06-.44-.41.17-.32-.25Z"/><path class="cls-28" d="M339.08,126.68l.75-.25.06-.76.33.25-.06.43.4-.17.32.25-.72.24-.06.79-.33-.26.06-.44-.41.17-.32-.25Z"/><path class="cls-28" d="M340.14,127.5l.75-.25.06-.76.33.25-.06.43.4-.17.32.25-.72.24-.06.79-.33-.26.06-.44-.41.17-.32-.25Z"/><path class="cls-28" d="M341.21,128.33l.75-.25.06-.76.33.25-.06.43.4-.17.32.25-.72.24-.06.79-.33-.26.06-.44-.41.17-.32-.25Z"/><path class="cls-28" d="M342.27,129.15l.75-.25.06-.76.33.25-.06.43.4-.17.32.25-.72.24-.06.79-.33-.26.06-.44-.41.17-.32-.25Z"/><path class="cls-28" d="M344.4,130.8l.75-.25.06-.76.33.25-.06.43.4-.17.32.25-.72.24-.06.79-.33-.26.06-.44-.41.17-.32-.25Z"/><path class="cls-28" d="M345.47,131.63l.75-.25.06-.76.33.25-.06.43.4-.17.32.25-.72.24-.06.79-.33-.26.06-.44-.41.17-.32-.25Z"/><path class="cls-28" d="M346.53,132.46l.75-.25.05-.76.33.25-.06.43.4-.17.32.25-.72.24-.06.79-.33-.26.06-.44-.41.17-.32-.25Z"/><path class="cls-28" d="M347.6,133.28l.75-.25.06-.76.33.25-.06.43.4-.17.32.25-.72.24-.06.79-.33-.26.06-.44-.41.17-.32-.25Z"/></g><path class="cls-15" d="M360.94,115.71c-.06-.15-.18-.27-.34-.34-.15-.06-.33-.06-.48,0-4.15,1.73-29.43,12.28-33.58,14.01-.15.06-.27.19-.34.34-.06.15-.06.32,0,.48,1.38,3.3,8.25,19.78,9.63,23.08.06.15.18.27.34.34.15.06.32.06.48,0,4.15-1.73,29.43-12.28,33.58-14.01.15-.06.27-.19.34-.34.06-.15.06-.33,0-.48-1.38-3.3-8.25-19.78-9.63-23.08Z"/><path class="cls-19" d="M360.94,115.71c-.06-.15-.18-.27-.34-.34-.15-.06-.33-.06-.48,0-4.15,1.73-29.43,12.28-33.58,14.01-.15.06-.27.19-.34.34-.06.15-.06.32,0,.48,1.38,3.3,8.25,19.78,9.63,23.08.06.15.18.27.34.34.15.06.32.06.48,0,4.15-1.73,29.43-12.28,33.58-14.01.15-.06.27-.19.34-.34.06-.15.06-.33,0-.48-1.38-3.3-8.25-19.78-9.63-23.08ZM360.68,115.82l9.63,23.08c.03.08.03.17,0,.25-.03.08-.1.15-.18.18-4.15,1.73-29.43,12.28-33.58,14.01-.08.03-.17.03-.26,0-.08-.03-.15-.1-.18-.18,0,0-9.63-23.08-9.63-23.08-.03-.08-.03-.17,0-.26.03-.08.1-.15.18-.18,4.15-1.73,29.43-12.28,33.58-14.01.08-.03.17-.03.26,0,.08.03.15.1.18.18Z"/><path class="cls-19" d="M359.71,116.22c-.13-.32-.5-.47-.82-.34l-32.35,13.49c-.32.13-.47.5-.34.82l9.63,23.08c.13.32.5.47.82.34,4.06-1.69,28.29-11.8,32.35-13.49.32-.13.47-.5.34-.82l-9.63-23.08Z"/><path class="cls-6" d="M358.67,118.65c-.13-.32-.5-.47-.82-.34l-28.85,12.04c-.32.13-.47.5-.33.82l8.22,19.7c.13.32.5.47.82.34l28.85-12.04c.32-.13.47-.5.33-.82l-8.22-19.7Z"/><path class="cls-15" d="M365.23,125.85l-12.4,5.17c-.27.11-.39.41-.28.68l1.07,2.57c.11.27.42.39.68.28,2.34-.97,12.4-5.17,12.4-5.17l-1.47-3.53Z"/><path class="cls-13" d="M355.17,130.51l2.01.78-.86,1.97-2.01-.77.86-1.97Z"/><circle class="cls-21" cx="357.49" cy="80.9" r="4.5"/><path class="cls-27" d="M352.97,78.58c-.64,1.25-.71,2.64-.32,3.88.4,1.24,1.27,2.33,2.52,2.97s2.64.72,3.88.32,2.33-1.27,2.97-2.52.72-2.64.32-3.88-1.27-2.33-2.52-2.97-2.64-.71-3.88-.32c-1.24.4-2.33,1.27-2.97,2.52ZM354.01,79.11c.49-.96,1.33-1.63,2.29-1.94.96-.31,2.03-.25,2.99.24s1.63,1.33,1.94,2.29.25,2.03-.24,2.99-1.33,1.63-2.29,1.94c-.95.31-2.03.25-2.99-.24s-1.63-1.33-1.94-2.29c-.31-.96-.25-2.03.24-2.99Z"/><circle class="cls-21" cx="361.35" cy="68.33" r="5.92"/><path class="cls-27" d="M354.86,68.4c.02,1.79.77,3.41,1.96,4.57,1.19,1.16,2.82,1.87,4.62,1.85s3.41-.77,4.57-1.96c1.16-1.19,1.87-2.82,1.85-4.61s-.77-3.41-1.96-4.57c-1.19-1.16-2.82-1.87-4.62-1.85s-3.41.77-4.57,1.96c-1.16,1.19-1.87,2.82-1.85,4.62ZM356.02,68.39c-.02-1.47.56-2.81,1.52-3.79.95-.98,2.28-1.59,3.75-1.61s2.81.57,3.79,1.52c.98.95,1.59,2.28,1.61,3.75s-.56,2.81-1.52,3.79c-.95.98-2.28,1.59-3.75,1.61s-2.81-.56-3.79-1.52c-.98-.95-1.59-2.28-1.61-3.75Z"/><circle class="cls-21" cx="347.62" cy="71.93" r="5.92"/><path class="cls-27" d="M342.2,75.51c.99,1.49,2.49,2.45,4.12,2.78,1.63.33,3.39.04,4.88-.95s2.45-2.49,2.78-4.12c.33-1.63.04-3.39-.95-4.88s-2.49-2.45-4.12-2.78c-1.63-.33-3.39-.04-4.88.95s-2.45,2.49-2.78,4.12c-.33,1.63-.04,3.39.95,4.88ZM343.17,74.87c-.81-1.23-1.05-2.67-.78-4.01.27-1.34,1.05-2.57,2.28-3.39s2.67-1.05,4.01-.78c1.34.27,2.57,1.05,3.38,2.28s1.05,2.67.78,4.01c-.27,1.34-1.05,2.57-2.28,3.38s-2.67,1.05-4.01.78c-1.34-.27-2.57-1.05-3.38-2.28Z"/><circle class="cls-21" cx="350.72" cy="55.79" r="7.45"/><path class="cls-27" d="M345.37,49.8c-1.65,1.47-2.55,3.48-2.67,5.54-.12,2.05.55,4.15,2.02,5.81s3.48,2.56,5.54,2.67c2.05.12,4.15-.55,5.8-2.02,1.66-1.48,2.56-3.48,2.67-5.54.12-2.05-.55-4.15-2.02-5.8s-3.48-2.56-5.54-2.67c-2.05-.12-4.15.55-5.81,2.02ZM346.15,50.66c1.41-1.26,3.21-1.83,4.96-1.73,1.76.1,3.47.87,4.73,2.29s1.83,3.21,1.73,4.96c-.1,1.76-.87,3.47-2.29,4.73s-3.21,1.83-4.96,1.73c-1.76-.1-3.47-.87-4.73-2.29s-1.83-3.21-1.73-4.96c.1-1.75.87-3.47,2.29-4.73Z"/><path class="cls-30" d="M367.27,124.31c-.41-.02-.8-.25-1.17-.71-.71-.87-.57-1.71.42-2.52.15-.12.31-.23.49-.33.18-.1.32-.17.44-.19.11-.03.18-.02.21.02.03.03.05.09.06.17.01.08.01.16,0,.24-.01.08-.03.13-.07.16,0,0-.05.03-.13.05-.08.03-.17.07-.27.13-.1.06-.22.13-.34.24-.26.21-.4.44-.41.68s.09.5.32.77c.46.56.94.63,1.44.21.13-.11.24-.21.32-.32.08-.1.15-.21.22-.32.03-.06.06-.09.07-.11.04-.04.1-.05.18-.04.07,0,.14.03.21.06.07.03.11.06.13.08.05.06.05.16-.02.3-.06.13-.16.27-.3.42-.14.15-.28.29-.42.4-.5.41-.95.6-1.37.58Z"/><path class="cls-30" d="M369.95,122.42l-1.91-2.34c-.06-.08,0-.19.17-.33l.16-.13c.18-.15.3-.18.36-.1l.74.9,1.2-.98-.74-.9c-.06-.08,0-.19.17-.33l.16-.13c.18-.14.3-.18.36-.1l1.91,2.34c.06.08,0,.19-.17.33l-.16.13c-.18.15-.3.18-.36.1l-.78-.96-1.2.98.78.96c.06.08,0,.19-.17.34l-.16.13c-.18.15-.3.18-.36.1Z"/><path class="cls-30" d="M373.22,119.75l-1.88-2.31c-.04-.05-.06-.1-.05-.15,0-.05.05-.09.11-.15l1.46-1.2s.09-.05.14-.04c.05.01.09.05.15.11l.09.11c.05.06.08.12.08.17,0,.05-.02.09-.07.13l-.96.78.44.54.93-.76s.09-.05.14-.04.09.05.15.11l.09.11c.05.06.08.12.08.16,0,.05-.02.09-.07.13l-.93.76.78.96c.06.08,0,.19-.17.33l-.15.12c-.18.15-.3.18-.36.1Z"/><polyline class="cls-3" points="349.3 60.18 349.3 51.89 353.86 51.89"/><line class="cls-3" x1="349.35" y1="55.33" x2="353.25" y2="55.33"/><line class="cls-3" x1="347.54" y1="57.67" x2="351.98" y2="57.67"/><polyline class="cls-3" points="345.1 74.46 347.96 68.7 351.13 70.27"/><line class="cls-3" x1="346.81" y1="71.1" x2="349.52" y2="72.44"/><line class="cls-3" x1="344.75" y1="72.11" x2="347.83" y2="73.63"/><polyline class="cls-1" points="358.08 83.46 355.72 79.65 357.82 78.35"/><line class="cls-1" x1="356.73" y1="81.21" x2="358.52" y2="80.1"/><line class="cls-1" x1="356.56" y1="82.8" x2="358.6" y2="81.54"/><polyline class="cls-3" points="364.23 70.66 358.28 68.22 359.62 64.94"/><line class="cls-3" x1="360.76" y1="69.19" x2="361.91" y2="66.4"/><line class="cls-3" x1="361.91" y1="71.18" x2="363.21" y2="68"/><path class="cls-24" d="M26.08,59.96h11.51l-.7,4.31h-1.24l.02-3.08h-5.45l-1.16,6.15h3.73l.82-2.33h1.02l-1.07,5.99h-1.02l.07-2.54h-3.76l-.05.22c-.39,2.08-.75,4.17-1.09,6.25l2.33.29-.19.97h-6.57l.22-.97,2.06-.24,1.43-7.51c.39-2.08.75-4.17,1.09-6.25l-2.2-.27.19-.99Z"/><path class="cls-24" d="M39.67,66.45l-2.4-.14.1-.7,4-1.24.32.24-.53,3.25c1.04-1.82,2.37-3.49,3.66-3.49.68,0,1.28.19,1.62.73-.02.8-.48,1.36-1.28,1.36-.41,0-.94-.27-1.43-.65-1.19.99-2.11,2.38-3,4.05l-.27,1.26c-.36,1.7-.65,3.37-.97,5.09l-1.62.19-.24-.19,2.06-9.74Z"/><path class="cls-24" d="M51.79,75.1c0-.46.02-.85.1-1.28-1.41,1.6-2.93,2.69-4.24,2.69-1.16,0-2.3-.85-2.3-2.86,0-4.22,4.36-9.28,7.49-9.28.56,0,.99.24,1.38.65l1.11-.9.44.22-1.94,8.58c-.15.61-.22,1.12-.22,1.38,0,.34.27.53.58.53.61,0,1.53-.7,2.37-1.75l.58.46c-.94,1.41-2.47,2.96-4.1,2.96-.65,0-1.26-.44-1.26-1.41ZM48.68,74.83c.85,0,1.87-.58,3.47-2.33l1.31-6.08c-.46-.27-.97-.46-1.48-.46-.78,0-1.79.51-2.67,1.41-1.16,1.21-2.08,3.15-2.08,5.28,0,1.48.58,2.18,1.45,2.18Z"/><path class="cls-24" d="M58.74,76.19l2.06-9.74-2.4-.14.1-.7,4.12-1.24.31.24-.51,2.5c1.6-1.53,3.59-2.74,5.06-2.74,1.02,0,1.55.56,1.55,1.67,0,.78-.22,1.57-.41,2.37l-1.09,4.51c-.17.68-.29,1.16-.29,1.41,0,.34.17.51.46.51.61,0,1.53-.65,2.4-1.75l.58.46c-.94,1.43-2.52,2.96-4.19,2.96-.75,0-1.21-.41-1.21-1.04,0-.56.15-.97.39-1.96l1.04-4.29c.19-.82.39-1.62.39-2.11,0-.85-.31-1.11-.85-1.11-.87,0-2.25.7-4.02,2.16l-.65,2.96c-.36,1.7-.65,3.37-.97,5.09l-1.62.19-.24-.19Z"/><path class="cls-24" d="M74.36,64.61c.29-1.43.56-2.86.8-4.29l-2.3-.15.1-.7,4.09-1.21.24.19-2.18,11.07,6.45-5.04c.51.02.87.48.87.99,0,.44-.34.78-1.24,1.26l-5.89,3.27.56.12c1.41.27,2.16,1.09,2.71,2.3l.7,1.53c.53,1.16.9,1.36,1.65,1.41l1.24.1-.12.73c-.73.24-1.19.32-1.72.32-1.14,0-1.94-.24-2.64-1.94l-.78-1.89c-.58-1.36-.95-1.79-1.79-2.04l-.22-.05-.1.51c-.34,1.7-.63,3.39-.92,5.09l-1.62.19-.22-.19,2.33-11.58Z"/><path class="cls-24" d="M83.03,72.24c0-4.36,2.88-7.88,6.32-7.88,2.28,0,3.93,1.5,3.93,4.24,0,4.22-2.81,7.9-6.23,7.9-2.23,0-4.02-1.5-4.02-4.26ZM91.32,68.97c0-2.62-.92-3.63-2.23-3.63-2.3,0-4.09,3-4.09,6.62,0,2.54.99,3.59,2.35,3.59,2.37,0,3.97-3.32,3.97-6.57Z"/><path class="cls-24" d="M97.23,67.1c-.12-.94-.34-1.07-.68-1.07-.46,0-.87.44-1.65,1.6l-.56-.39c.85-1.89,1.89-2.88,2.98-2.88,1.02,0,1.43.46,1.62,1.62.34,2.01.44,5.19.44,7.88,1.79-2.59,3.44-5.65,4.97-9.21h.97c.15,3.3.27,6.59.36,9.43,1.62-2.04,2.74-3.68,3.95-5.94.05-.1.1-.17.15-.27l-.19-.8c-.07-.29-.12-.78-.12-.99,0-1.21.7-1.72,1.45-1.72.39,0,.65.15.8.32.1.15.15.34.15.73,0,.51-.15,1.16-1.24,3.25-1.14,2.21-3.17,5.04-5.67,7.63l-.7.07-.17-.12c-.15-2.57-.27-5.14-.39-7.68-1.24,2.35-3.1,5.52-5.02,7.73l-.73.07-.17-.12c-.02-3.9-.22-6.69-.56-9.14Z"/><path class="cls-24" d="M113.63,73.5l1.48-7.05-2.4-.14.1-.7,4.12-1.24.31.24-1.72,8.31c-.12.61-.22,1.12-.22,1.38,0,.34.27.53.53.53.58,0,1.36-.58,2.33-1.75l.61.46c-1.09,1.45-2.35,2.96-4.07,2.96-.68,0-1.31-.41-1.31-1.24,0-.36.05-.78.24-1.77ZM115.93,59.71c0-.8.63-1.48,1.33-1.48.75,0,1.26.51,1.26,1.28s-.65,1.5-1.36,1.5-1.24-.51-1.24-1.31Z"/><path class="cls-24" d="M119.9,71.97c0-4.1,3.17-7.61,6.23-7.61,1.48,0,2.35.73,2.62,1.77-.1.61-.58.85-1.02.85-.53,0-.99-.39-1.43-.87l-.73-.82c-2.08.73-3.85,3.44-3.85,6.42,0,2.11,1.09,3.13,2.69,3.13,1.28,0,2.28-.95,2.96-1.77l.56.44c-.97,1.7-2.74,3-4.41,3-2.11,0-3.61-1.5-3.61-4.53Z"/><path class="cls-24" d="M130.41,65.7l1.67-1.33c2.01.53,3.76,1.07,5.74,1.92l.82-1.6,1.33-.29.29.24c-.24.61-1.07,1.7-2.3,2.98-2.04,2.08-4.19,3.83-6.2,5.72,1.87,1.41,3.15,1.75,4.14,1.75.68,0,1.26-.19,1.79-.53-.51-.61-.73-.97-.73-1.43,0-.78.53-1.24,1.21-1.31.51.19.8.85.8,1.43,0,1.77-2.01,3.51-3.88,3.51-1.41,0-2.57-.56-4.19-2.57l-.97,2.01-1.38.15-.19-.15c.48-.85.97-1.6,1.99-2.59,2.08-2.04,4.36-3.93,6.49-6.11-1.67-.53-3.05-.9-4.99-1.33l-1.02,3.29-.99-.15.56-3.61Z"/><path class="cls-24" d="M140.71,72c0-3.9,2.93-7.63,6.32-7.63,1.55,0,2.42.8,2.42,2.23,0,1.55-1.53,3.76-7.05,5.36.1,2.06,1.02,2.88,2.5,2.88s2.62-.95,3.27-1.77l.56.44c-1.02,1.65-2.59,3-4.39,3-2.11,0-3.63-1.41-3.63-4.51ZM142.4,71c4.02-1.16,5.43-2.86,5.43-4.17,0-.9-.53-1.43-1.33-1.43-1.5,0-3.85,2.57-4.09,5.6Z"/></g></svg>