<?xml version="1.0" encoding="UTF-8"?><svg id="Layer_2" xmlns="http://www.w3.org/2000/svg" viewBox="0 0 430 153.67"><defs><style>.cls-1{opacity:.68;}.cls-2{fill:#d5af80;}.cls-2,.cls-3,.cls-4,.cls-5,.cls-6,.cls-7,.cls-8,.cls-9,.cls-10,.cls-11,.cls-12,.cls-13,.cls-14,.cls-15,.cls-16,.cls-17,.cls-18,.cls-19,.cls-20,.cls-21,.cls-22,.cls-23,.cls-24,.cls-25,.cls-26,.cls-27,.cls-28,.cls-29{stroke-width:0px;}.cls-3{fill:#722217;}.cls-4{opacity:.36;}.cls-4,.cls-24,.cls-26{fill:#d7af80;}.cls-5{fill:#e5d0c1;}.cls-6{fill:#fefeff;}.cls-7{fill:#e5e5e5;}.cls-8{fill:#022b0c;}.cls-9{fill:#e2ba93;}.cls-9,.cls-17,.cls-24,.cls-25{fill-rule:evenodd;}.cls-10{fill:#211010;}.cls-11{fill:#e09b7c;}.cls-12{fill:#052d07;}.cls-13,.cls-17{fill:#fff;}.cls-14{fill:#a0a0a0;}.cls-15{fill:#8c2a20;}.cls-16{fill:#01240b;}.cls-18{fill:#9b3a2f;}.cls-19{fill:#e9a684;}.cls-20{fill:#b74d44;}.cls-21{fill:#a13941;}.cls-22{fill:#e5ccb8;}.cls-23{fill:#dbb58a;}.cls-25{fill:#eac7a4;}.cls-27{fill:#8d3c43;}.cls-28{fill:#752c34;}.cls-29{fill:#471910;}</style></defs><g id="Layer_1-2"><rect class="cls-4" width="430" height="140"/><path class="cls-21" d="M34.85,59.96h5.35l-.22.99-2.37.31-5.5,5.06,4.63,8.63,1.96.27-.12.97h-6.06l.12-.97,1.87-.24-3.88-7.29-1.96,1.79c-.34,1.82-.65,3.63-.94,5.48l2.18.27-.19.97h-6.42l.19-.97,2.08-.24,1.43-7.51c.39-2.08.75-4.17,1.09-6.25l-2.21-.27.19-.99h6.42l-.22.99-2.06.24-1.26,6.74,7.27-6.71-1.57-.27.19-.99Z"/><path class="cls-21" d="M40.06,72.24c0-4.36,2.88-7.88,6.32-7.88,2.28,0,3.93,1.5,3.93,4.24,0,4.22-2.81,7.9-6.23,7.9-2.23,0-4.02-1.5-4.02-4.26ZM48.35,68.97c0-2.62-.92-3.63-2.23-3.63-2.3,0-4.1,3-4.1,6.62,0,2.54.99,3.59,2.35,3.59,2.37,0,3.97-3.32,3.97-6.57Z"/><path class="cls-21" d="M52.41,76.19l2.06-9.74-2.4-.14.1-.7,4.12-1.24.31.24-.51,2.5c1.6-1.53,3.59-2.74,5.06-2.74,1.02,0,1.55.56,1.55,1.67,0,.78-.22,1.57-.41,2.37l-1.09,4.51c-.17.68-.29,1.16-.29,1.41,0,.34.17.51.46.51.61,0,1.53-.65,2.4-1.75l.58.46c-.94,1.43-2.52,2.96-4.19,2.96-.75,0-1.21-.41-1.21-1.04,0-.56.15-.97.39-1.96l1.04-4.29c.19-.82.39-1.62.39-2.11,0-.85-.31-1.11-.85-1.11-.87,0-2.25.7-4.02,2.16l-.65,2.96c-.36,1.7-.65,3.37-.97,5.09l-1.62.19-.24-.19Z"/><path class="cls-21" d="M64.84,74.11c.12-.41.51-.68.9-.68.7,0,.99.39,1.16,1.07l.27,1.04c.1.02.22.02.34.02,1.67,0,2.67-.8,2.67-2.06,0-.78-.19-1.41-1.58-2.4-1.21-.92-2.13-1.82-2.13-3.34,0-1.89,1.53-3.39,3.85-3.39,1.43,0,2.52.56,2.88,2.13-.15.46-.48.68-.92.68-.56,0-.99-.41-1.24-1.14l-.22-.7c-.1-.02-.22-.02-.34-.02-1.67,0-2.3.9-2.3,1.99,0,1.02.41,1.53,1.79,2.54,1.45,1.09,1.96,1.82,1.96,3.22,0,2.01-1.65,3.44-4.1,3.44-1.89,0-2.83-.95-3-2.4Z"/><path class="cls-21" d="M75.06,74.74c0-.9.31-2.11.51-3.05l1.11-5.26-2.4-.12.1-.73,4.22-1.21.31.24-1.53,6.88c-.22.99-.36,1.77-.36,2.3,0,.7.34,1.04.92,1.04,1.02,0,2.01-.63,3.83-2.08l.68-3.25c.31-1.55.61-3.1.87-4.65l1.58-.49.31.24-1.72,8.31c-.12.61-.22,1.12-.22,1.38,0,.34.27.53.56.53.65,0,1.38-.58,2.37-1.75l.61.46c-1.11,1.45-2.4,2.96-4.14,2.96-.65,0-1.28-.41-1.28-1.26,0-.29.02-.65.24-1.55-1.87,1.75-3.39,2.81-4.8,2.81-1.07,0-1.77-.58-1.77-1.77Z"/><path class="cls-21" d="M101.11,75.46c0-.56.15-.97.39-1.96l1.04-4.29c.19-.82.39-1.62.39-2.11,0-.85-.29-1.11-.85-1.11-.82,0-2.06.73-3.78,2.16l-.63,2.96c-.36,1.7-.68,3.37-.99,5.09l-1.58.19-.24-.19,1.67-7.92c.07-.41.17-.85.17-1.24,0-.78-.29-1.04-.82-1.04-.87,0-2.23.7-4,2.13l-.65,2.98c-.36,1.7-.65,3.37-.97,5.09l-1.62.19-.24-.19,2.06-9.74-2.4-.14.1-.7,4.12-1.24.31.24-.51,2.5c1.58-1.5,3.56-2.74,5.06-2.74.99,0,1.53.56,1.53,1.67,0,.31-.05.68-.12,1.02,1.53-1.48,3.37-2.69,4.8-2.69,1.02,0,1.55.56,1.55,1.67,0,.78-.22,1.57-.41,2.37l-1.09,4.51c-.17.68-.31,1.16-.31,1.41,0,.34.22.51.48.51.65,0,1.41-.58,2.38-1.75l.58.46c-1.07,1.48-2.45,2.96-4.17,2.96-.78,0-1.24-.41-1.24-1.04Z"/><path class="cls-21" d="M107.67,72c0-3.9,2.93-7.63,6.32-7.63,1.55,0,2.42.8,2.42,2.23,0,1.55-1.53,3.76-7.05,5.36.1,2.06,1.02,2.88,2.5,2.88s2.62-.95,3.27-1.77l.56.44c-1.02,1.65-2.59,3-4.39,3-2.11,0-3.63-1.41-3.63-4.51ZM109.36,71c4.02-1.16,5.43-2.86,5.43-4.17,0-.9-.53-1.43-1.33-1.43-1.5,0-3.85,2.57-4.09,5.6Z"/><path class="cls-21" d="M118.06,76.19l2.06-9.74-2.4-.14.1-.7,4.12-1.24.31.24-.51,2.5c1.6-1.53,3.59-2.74,5.06-2.74,1.02,0,1.55.56,1.55,1.67,0,.78-.22,1.57-.41,2.37l-1.09,4.51c-.17.68-.29,1.16-.29,1.41,0,.34.17.51.46.51.61,0,1.53-.65,2.4-1.75l.58.46c-.94,1.43-2.52,2.96-4.19,2.96-.75,0-1.21-.41-1.21-1.04,0-.56.15-.97.39-1.96l1.04-4.29c.19-.82.39-1.62.39-2.11,0-.85-.31-1.11-.85-1.11-.87,0-2.25.7-4.02,2.16l-.65,2.96c-.36,1.7-.65,3.37-.97,5.09l-1.62.19-.24-.19Z"/><path class="cls-21" d="M131.16,71.97c0-4.1,3.17-7.61,6.23-7.61,1.48,0,2.35.73,2.62,1.77-.1.61-.58.85-1.02.85-.53,0-.99-.39-1.43-.87l-.73-.82c-2.08.73-3.85,3.44-3.85,6.42,0,2.11,1.09,3.13,2.69,3.13,1.28,0,2.28-.95,2.96-1.77l.56.44c-.97,1.7-2.74,3-4.41,3-2.11,0-3.61-1.5-3.61-4.53Z"/><path class="cls-21" d="M142.14,73.5l1.48-7.05-2.4-.14.1-.7,4.12-1.24.31.24-1.72,8.31c-.12.61-.22,1.12-.22,1.38,0,.34.27.53.53.53.58,0,1.36-.58,2.33-1.75l.61.46c-1.09,1.45-2.35,2.96-4.07,2.96-.68,0-1.31-.41-1.31-1.24,0-.36.05-.78.24-1.77ZM144.44,59.71c0-.8.63-1.48,1.33-1.48.75,0,1.26.51,1.26,1.28s-.65,1.5-1.36,1.5-1.24-.51-1.24-1.31Z"/><path class="cls-28" d="M302.36,44.49c1.79,1.28,4.27,3.14,7.1,5.6,3.96,3.45,8.25,7.09,11.5,12.11,3.53,5.45,2.12,6.35,6.6,16.81,4.03,9.41,6.04,14.11,10.01,18.05,2.71,2.69,5.63,4.51,9.16,9.64,1.44,2.1,3.9,5.87,2.98,7.42-1.36,2.3-7.92-4.06-15.33-1.48-4.98,1.73-4.76,5.55-9.58,7.17-5.98,2.01-8.3-3.18-15.76-3.71-9.54-.67-10.41,7.51-21.72,8.65-8.73.88-11.56-3.65-18.53-.99-5.05,1.93-8.41,6.18-10.43,9.39-.55-5.85-.94-15.06.85-25.96,2.06-12.55,4.9-14.44,9.58-32.14,4.84-18.27,3.71-23.04,8.31-27.69,3.74-3.78,10.76-6.96,25.27-2.88Z"/><path class="cls-19" d="M269.95,95.31c-.12-.32-.44-1.05-.44-1.05l-.92,1.28-.6,3.23s1.36,1.65,1.49,2.38c.12.73-.34,1.12-.34,1.12,0,0-1.72-2.46-3.11-3.9-.24-.24-.22-.72-.32-1.32-.28-.19-.67-.52-.57-1.13-.43-.51-.25-.99-.08-1.85.12-.61.55-2.93.67-3.82.13-.93.16-2.19.38-3.89l3.1.5c-.32,1.32-.46,3.3-.47,3.47-.03.34,1.05,1.04,1.36,1.94.31.91,1.36,4.28,1.62,4.57-.16.24-.53.52-1.09-.03-.26-.26-.48-.96-.67-1.49Z"/><g id="BM1"><path class="cls-10" d="M298.36,145.61c-.45.38-1.82,4.57-1.82,4.57l.28,2.37,7.41.76,5.35.36.06-3.27-7.14-3.56-4.15-1.23Z"/><path class="cls-10" d="M269.6,142.62c-.36.46,0,0,0,0l-3.11,4.53-5.95,2.33,1.11,3.33,13.27-.24.78-1.47s-.11-3.14-.36-3.24l-1.31-5.94-4.43.7Z"/><path class="cls-16" d="M278.6,42.44l8.22-1.88,3.56.09,4.74,1.21,4.37,3.08.54,8.86.28,3.45-.91,13.05.84,8.84c-.04,4.03-.08,8.06-.13,12.08-.52,2.67-1.05,5.34-1.57,8.01,3.06,16.23,6.13,32.47,9.19,48.7-3.8.09-7.6.18-11.39.26-3.18-14.26-6.36-28.51-9.53-42.77-3.59,14.02-7.17,28.03-10.76,42.05-3.59-.27-7.17-.54-10.76-.81,3.19-17.81,6.38-35.62,9.57-53.44l-.95-1.84.65-16.6-.04-21.58-.11-8.27,4.18-2.49Z"/><path class="cls-8" d="M285.53,42.42c-3.7.84-7.41,1.67-11.11,2.51-3.62,15.1-7.23,30.2-10.85,45.3,2.69.3,5.38.6,8.08.91,2.61-13.68,5.21-27.36,7.82-41.05,2.02-2.56,4.04-5.11,6.07-7.67Z"/><path class="cls-16" d="M278.6,42.44l8.22-1.88,3.56.09,4.74,1.21,6.3,2.62-.02,7.86c-.28,2.26-.56,4.52-.83,6.78-.08,3.72-.15,7.44-.23,11.15l.84,8.84c.25,4.17.5,8.35.75,12.52h-9.39c-4.36-.94-8.73-1.87-13.09-2.81l-1.2,4.66c-1.44-.7-2.88-1.4-4.33-2.09l-.42-16.57-.25-15.2,1.18-14.69,4.18-2.49Z"/><polygon class="cls-11" points="290.5 42.7 283.08 55.49 279.39 45.47 280.23 42.92 280.65 42.56 280.08 35.7 287.96 34.88 288.63 40.15 290.5 42.7"/><path class="cls-13" d="M282.44,46.22c6.39.5,7.02-4.75,7.02-4.75l-.56-.94,4.08,2.48-1.55,12.35.96,33.69c-5.56.51-11.17.33-14.23-.25l-1-17.7-.25-15.04-.12-7.67,1.83-5.09,1.93-1.9.1,1.16s-1.26,3.42,1.79,3.66Z"/><path class="cls-19" d="M274.5,26.16s4.91-2.6,6.49-3.17c4.8-1.75,6.44.26,8.33,5.62,1.16,3.29-1.84,6.44-1.84,6.44l.18,2.12c-.81.83-2.91,4.29-2.91,4.29-3.24,1.72-4.85,1.01-5.34.73-.88-.49-1.18-1.28-3.04-5.48-.65-1.48-1.18-2.66-1.49-3.36-.32-.41-1.58-2.08-1.37-4.41.12-1.31.66-2.28.99-2.78Z"/><path class="cls-10" d="M269.31,23.72h6.08c.57-.61,2.14-2.15,4.7-2.69,2.87-.6,5.12.44,5.95.84,3.56,1.72,4.91,5.03,5.22,5.87.26.65,1.17,3.19.11,6.08-.77,2.1-2.18,3.31-2.82,3.8-.62-1.66-1.25-3.31-1.87-4.97-.77.14-2.61.47-2.61.47l-2.34-5.24-3.1-1.37-3.91,2.47-1.14.46c-.17.08-2.03.87-3.5-.08-1.52-.98-2.06-3.49-.76-5.65Z"/><path class="cls-19" d="M283.76,32.93c.88,1.08,1.41,1.63,2.21.71.43-.49.99-1.08.25-2.79-.56-1.28-1.97-1.77-2.92-1.01-.95.77-.43,2,.46,3.08Z"/></g><path class="cls-12" d="M300.15,44.25c4.16-.2,8.67,7.77,11.72,19.82l3.38,22.31h-6.73s-3.59-18.46-3.59-18.46c-2.12-4.29-4.23-8.58-6.35-12.87-.64-.8-1.94-2.68-2.16-5.38-.11-1.37.09-2.52.31-3.33,1.36-1.62,2.53-2.05,3.42-2.09Z"/><path class="cls-15" d="M320.11,115.93s-24.58-.23-25.05-.41c-.47-.18-4.66-5.46-4.66-5.46l5.21-19.01s24.84,2.59,25.15,2.99c.32.4,5.16,4.73,5.14,4.86-.1.58-5.79,17.03-5.79,17.03Z"/><path class="cls-3" d="M290.38,110.06l5.21-19.01s.35.04.96.1c1.19,1.51,3.21,4.15,3.13,4.21-.1.07-4.1,17.44-4.72,20.11-.73-.57-4.59-5.41-4.59-5.41Z"/><path class="cls-29" d="M312.52,109.54l-13.32-13.35-3.61-5.34c.86.09,24.54,3.1,24.85,3.5.29.37,4.54,3.58,5.17,4.56l-13.09,10.64Z"/><polygon class="cls-29" points="314.89 106.53 315.2 107.29 313.89 110.31 308.93 109.9 308.46 109.03 309.04 105.68 314.89 106.53"/><path class="cls-18" d="M312.82,109.03l-13.97-13.38-3.24-4.8c.86.09,24.81,2.59,25.13,2.99.29.37,4.13,3.83,4.76,4.81l-12.67,10.38Z"/><path class="cls-20" d="M325.88,98.97c-1.84-.18-26.61-2.73-26.61-2.73l-3.28-4.77-.41-.63s24.84,2.59,25.15,2.99c.1.13.65.58,1.36,1.15l3.8,3.9s-.02.05-.02.08Z"/><polygon class="cls-13" points="315.45 106.88 315.76 107.65 314.45 110.67 309.48 110.26 309.01 109.39 309.59 106.02 315.45 106.88"/><path class="cls-7" d="M310.63,107.16s3.49.29,4.84.51l-1.03,3-4.97-.41v-.02s1.15-3.07,1.15-3.07Z"/><path class="cls-14" d="M314.95,93.2l.47-.06s.28.21.39.49-.56,2.52-.56,2.52l-.85-1.14.38-2.02.16.2Z"/><path class="cls-7" d="M315.98,91.29c1.12.46.89,2.29.89,2.29l-.59,2.5-1.02.08s.67-2.24.56-2.52-.39-.49-.39-.49l-.47.06-.16-.2-3.2-2.63s3.9.72,4.4.92Z"/><path class="cls-14" d="M313.22,91.71l-.12-.1,1.42-.67c.7.15,1.29.28,1.46.35.35.15.57.43.71.75-.65-.09-2.72-.27-3.47-.33Z"/><path class="cls-14" d="M310.11,91.15l-.26,1.56s-1.11-.14-1.47-.16c-.35-.02-.92,1.64-1.01,2.31-.09.67-1.54.03-1.54.03l-.47-1.53s.62-2.9,1.04-3.29c.42-.39,2.8-.03,2.8-.03l.64.64.26.47Z"/><path class="cls-7" d="M307.49,91.06c.36-.37,1.72-.09,2.6.16l-.25,1.49s-1.11-.14-1.47-.16c-.35-.02-.92,1.64-1.01,2.31-.08.62-1.31.12-1.51.04.25-.74,1.18-3.37,1.64-3.85Z"/><polygon class="cls-19" points="311.36 86.23 310.33 86.82 308.61 89.46 309.07 92.73 314.02 92.02 314.34 87.94 313.75 86.12 311.36 86.23"/><polygon class="cls-27" points="284.36 46.78 286.25 48.35 285.44 50.29 282.34 50.34 281.63 48.42 283.5 46.79 284.36 46.78"/><polygon class="cls-27" points="285.28 50.82 282.31 50.87 281.1 78.38 284.53 83.92 288.56 78.79 285.28 50.82"/><path class="cls-21" d="M302.38,44.44c1.78,1.3,4.25,3.18,7.08,5.66,4.15,3.64,8.33,7.21,11.5,12.11,3.53,5.45,2.12,6.35,6.6,16.81,4.03,9.41,6.04,14.11,10.01,18.05,2.71,2.69,5.63,4.51,9.16,9.64,2.92,4.25,3.1,6.17,2.98,7.42-.31,3.29-3.03,5.44-6.18,7.91-3.03,2.38-5.87,3.7-7.88,4.45-.6-3.67-1.77-9.36-4.26-15.82-5.69-14.78-10.98-14.67-15.55-27.19-4.04-11.08-1.53-15.33-7.03-27.69-2.28-5.12-4.74-8.94-6.44-11.35Z"/><path class="cls-22" d="M383.31,138.54c-26.6-14.61-24.84-41.41-24.26-49.2,14.22-1.07,24.26-8.67,24.26-8.67,0,0,10.03,7.6,24.26,8.67.58,7.79,2.34,34.59-24.26,49.2Z"/><path class="cls-26" d="M383.31,134.4c-9.5-5.71-15.84-13.78-18.88-24.03-2.08-7.04-2.17-13.57-1.99-17.78,9.8-1.37,17.34-5.4,20.86-7.59,3.52,2.2,11.07,6.22,20.86,7.59.19,4.2.1,10.74-1.99,17.78-3.04,10.25-9.38,18.33-18.88,24.03Z"/><path class="cls-23" d="M383.31,132.87c-8.83-5.51-14.76-13.2-17.63-22.87-1.47-4.97-2.13-10.44-1.97-16.28,8.88-1.44,15.84-4.93,19.6-7.19,3.76,2.26,10.72,5.75,19.6,7.19.16,5.84-.5,11.31-1.97,16.28-2.87,9.68-8.79,17.37-17.63,22.87Z"/><path class="cls-13" d="M381.3,116.93s-.02,0-.03,0c-.64,0-1.24-.29-1.66-.76l-6.38-7.27c-.82-.93-.73-2.35.21-3.17.93-.82,2.35-.73,3.17.21l4.74,5.4,11.27-12.19c.84-.91,2.26-.97,3.17-.12.91.84.97,2.26.12,3.17l-12.97,14.01c-.43.46-1.02.72-1.65.72Z"/><path class="cls-2" d="M409.24,129.77l-13.78.39v-8.1c0-2.97,2.13-6.14,5.82-6.14,3.95,0,7.96,1.19,7.96,5.75v8.1ZM398.41,128.13l7.82.14v-5.95c0-1.85-1.83-3.36-4.07-3.36s-3.75,1.36-3.75,3.21v5.95Z"/><rect class="cls-2" x="394.59" y="124.78" width="17.48" height="15.21" rx="6.36" ry="6.36"/><path class="cls-22" d="M407.98,129.4h-13.39v-8.1c0-2.97,3-5.39,6.69-5.39s6.69,2.42,6.69,5.39v8.1ZM397.21,127.52h8.15v-5.95c0-1.85-1.83-3.36-4.07-3.36s-4.07,1.51-4.07,3.36v5.95Z"/><rect class="cls-22" x="392.29" y="124.78" width="17.48" height="15.21" rx="6.36" ry="6.36"/><path class="cls-26" d="M403.05,136.92c.04.17-.09.33-.26.33h-4.2c-.17,0-.3-.16-.26-.33l1.03-4.1c-.77-.48-1.26-1.35-1.19-2.34.09-1.25,1.09-2.25,2.34-2.34.15-.01.3,0,.45,0,1.28.13,2.27,1.21,2.27,2.52,0,.91-.48,1.71-1.2,2.15l1.03,4.1Z"/><path class="cls-6" d="M403.05,136.92c.04.17-.09.33-.26.33h-3.67c-.17,0-.3-.16-.26-.33l1.03-4.1c-.77-.48-1.26-1.35-1.19-2.34.09-1.22,1.05-2.21,2.27-2.34,1.28.13,2.27,1.21,2.27,2.52,0,.91-.48,1.71-1.2,2.15l1.03,4.1Z"/><rect class="cls-26" x="193.48" y="75.42" width="39.71" height="64.57" rx="5.23" ry="5.23"/><rect class="cls-13" x="194.93" y="76.88" width="36.8" height="61.66" rx="3.77" ry="3.77"/><rect class="cls-5" x="196.75" y="78.69" width="33.18" height="58.04" rx="1.96" ry="1.96"/><path class="cls-24" d="M202.79,76.88v5.79c0,1.87-1.53,3.4-3.4,3.4h0c-1.87,0-3.4-1.53-3.4-3.4v-5.79h6.8Z"/><path class="cls-25" d="M209.6,76.88v5.79c0,1.87-1.53,3.4-3.4,3.4h0c-1.87,0-3.4-1.53-3.4-3.4v-5.79h6.8Z"/><path class="cls-24" d="M216.4,76.88v5.79c0,1.87-1.53,3.4-3.4,3.4h0c-1.87,0-3.4-1.53-3.4-3.4v-5.79h6.8Z"/><path class="cls-25" d="M223.2,76.88v5.79c0,1.87-1.53,3.4-3.4,3.4h0c-1.87,0-3.4-1.53-3.4-3.4v-5.79h6.8Z"/><path class="cls-24" d="M230.01,76.88v5.79c0,1.87-1.53,3.4-3.4,3.4h0c-1.87,0-3.4-1.53-3.4-3.4v-5.79h6.8Z"/><path class="cls-25" d="M236.81,76.88v5.79c0,1.87-1.53,3.4-3.4,3.4h0c-1.87,0-3.4-1.53-3.4-3.4v-5.79h6.8Z"/><path class="cls-25" d="M189.18,76.88v5.79c0,1.87,1.53,3.4,3.4,3.4h0c1.87,0,3.4-1.53,3.4-3.4v-5.79h-6.8Z"/><polygon class="cls-25" points="189.18 76.88 195.99 76.88 200.85 68.14 195.99 68.14 189.18 76.88"/><polygon class="cls-24" points="195.99 76.88 202.79 76.88 205.71 68.14 200.85 68.14 195.99 76.88"/><polygon class="cls-25" points="202.79 76.88 209.6 76.88 210.57 68.14 205.71 68.14 202.79 76.88"/><polygon class="cls-24" points="209.6 76.88 216.4 76.88 215.43 68.14 210.57 68.14 209.6 76.88"/><polygon class="cls-25" points="216.4 76.88 223.2 76.88 220.29 68.14 215.43 68.14 216.4 76.88"/><polygon class="cls-24" points="223.2 76.88 230.01 76.88 225.15 68.14 220.29 68.14 223.2 76.88"/><polygon class="cls-25" points="230.01 76.88 236.81 76.88 230.01 68.14 225.15 68.14 230.01 76.88"/><path class="cls-17" d="M213.33,95.17c6.93,0,12.54,5.62,12.54,12.54s-5.62,12.54-12.54,12.54-12.54-5.62-12.54-12.54,5.62-12.54,12.54-12.54Z"/><path class="cls-9" d="M210.38,110.43h10.85l2.94-9.34h-16.93l3.15,9.34h0ZM221.66,111.63h-11.72c-.26,0-.49-.16-.57-.41l-3.56-10.54c-.06-.18-.03-.38.08-.54.11-.16.29-.25.49-.25h18.59c.19,0,.37.09.48.24.11.15.15.35.09.53l-3.31,10.54c-.08.25-.31.42-.57.42Z"/><path class="cls-9" d="M212.28,110.58h6.57l1.89-9.64h-10.49l2.03,9.64h0ZM219.22,111.48h-7.31c-.21,0-.4-.15-.44-.36l-2.22-10.54c-.03-.13,0-.27.09-.38.09-.11.21-.17.35-.17h11.59c.13,0,.26.06.35.16.09.1.12.24.09.37l-2.07,10.54c-.04.21-.23.36-.44.36Z"/><path class="cls-9" d="M214.88,110.58h1.66l.65-9.64h-3l.69,9.64h0ZM216.96,111.48h-2.5c-.24,0-.43-.18-.45-.42l-.76-10.54c0-.12.03-.25.12-.34.09-.09.2-.14.33-.14h3.97c.12,0,.24.05.33.14.09.09.13.21.12.34l-.71,10.54c-.02.24-.21.42-.45.42Z"/><path class="cls-9" d="M222.85,115.64h-12.91c-1.43,0-2.6-1.17-2.6-2.6s1.17-2.6,2.6-2.6h9.03c.33,0,.6.27.6.6s-.27.6-.6.6h-9.03c-.77,0-1.4.63-1.4,1.4s.63,1.4,1.4,1.4h12.91c.33,0,.6.27.6.6s-.27.6-.6.6Z"/><path class="cls-9" d="M208.32,106.82c-.25,0-.48-.16-.57-.41l-3.41-10.12-2.63.07c-.35,0-.61-.25-.61-.58,0-.33.25-.61.58-.61l3.07-.08c.25,0,.5.16.58.41l3.56,10.54c.11.31-.06.65-.38.76-.06.02-.13.03-.19.03Z"/><path class="cls-9" d="M208.89,117.11c-.56,0-1.02.46-1.02,1.02s.46,1.02,1.02,1.02,1.02-.46,1.02-1.02-.46-1.02-1.02-1.02h0ZM208.89,120.34c-1.22,0-2.22-.99-2.22-2.22s.99-2.22,2.22-2.22,2.22.99,2.22,2.22-.99,2.22-2.22,2.22Z"/><path class="cls-9" d="M222.55,117.11c-.56,0-1.02.46-1.02,1.02s.46,1.02,1.02,1.02,1.02-.46,1.02-1.02-.46-1.02-1.02-1.02h0ZM222.55,120.34c-1.22,0-2.22-.99-2.22-2.22s.99-2.22,2.22-2.22,2.22.99,2.22,2.22-.99,2.22-2.22,2.22Z"/><path class="cls-9" d="M208.24,104.57l.89,2.65,13.29-.08.81-2.57h-14.99ZM208.49,108.11l-1.5-4.45h17.46l-1.37,4.36-14.59.09Z"/><rect class="cls-13" x="200.83" y="126.16" width="25" height="4.66" rx="1.48" ry="1.48"/><g class="cls-1"><path class="cls-13" d="M411.52,49.02c.71-.87.83-2.11.28-3.07-.54-.96-1.72-1.6-2.9-1.56,1.42-2.28.49-5.52-1.95-6.88-2.45-1.36-6.01-.61-7.57,1.6-.18-.99-1.17-1.8-2.26-1.86-1.09-.06-2.18.64-2.49,1.6-.82-.53-1.76-.88-2.74-1.07-2.77-.53-5.81.36-7.72,2.27-1.91,1.91-2.63,4.76-1.81,7.23-.32-.54-1.23-.38-1.76-.01-.66.46-1.14,1.31-.74,1.97,0,0,20.94-.28,31.5-.02"/></g><g class="cls-1"><path class="cls-13" d="M193.13,43.4c-.38-1.37-.1-2.33.97-3.31,1.07-.98,3.01-1.11,4.43-.71-.17-.99.37-2.05,1.29-2.53.92-.48,2.15-.34,2.93.33-.34-2.72,1.81-5.5,4.62-6.01,2.82-.51,5.89,1.33,6.62,3.97.98-.45,2.24-.28,3.06.4.82.69,1.15,1.85.81,2.84,1.16.14,2.23.85,2.75,1.85.52,1,.49,2.24-.09,3.21-8.04.07-26.43.04-27.39-.03"/></g><g class="cls-1"><path class="cls-13" d="M339.13,19.89c.41-1.68.1-2.86-1.06-4.06-1.16-1.2-3.28-1.36-4.83-.86.19-1.21-.4-2.52-1.4-3.11-1-.59-2.35-.42-3.2.4.37-3.33-1.97-6.75-5.04-7.38-3.07-.63-6.42,1.63-7.22,4.87-1.07-.55-2.44-.35-3.33.49-.89.84-1.25,2.27-.88,3.48-1.26.17-2.43,1.05-3,2.27-.57,1.22-.53,2.75.09,3.93,8.76.08,28.8.05,29.86-.03"/></g></g></svg>