<?xml version="1.0" encoding="UTF-8"?><svg id="Layer_2" xmlns="http://www.w3.org/2000/svg" viewBox="0 0 430.05 153.67"><defs><style>.cls-1{fill:#434a59;}.cls-1,.cls-2,.cls-3,.cls-4,.cls-5,.cls-6,.cls-7,.cls-8,.cls-9,.cls-10,.cls-11,.cls-12,.cls-13,.cls-14,.cls-15,.cls-16,.cls-17{stroke-width:0px;}.cls-2,.cls-7{fill:#f7bc9f;}.cls-3,.cls-7,.cls-8,.cls-9,.cls-10{fill-rule:evenodd;}.cls-3,.cls-15{fill:#ed9983;}.cls-4,.cls-18{opacity:.36;}.cls-4,.cls-16{fill:#d7af80;}.cls-19{fill:none;stroke:#d7af80;stroke-miterlimit:10;stroke-width:.75px;}.cls-5{fill:#211010;}.cls-6{fill:#ddd;}.cls-8,.cls-13{fill:#a13941;}.cls-9{fill:#84343e;}.cls-20{opacity:.15;}.cls-10{fill:#050505;}.cls-11{fill:#fff;}.cls-12{fill:#9b7550;}.cls-14{fill:#b5967c;}.cls-17{fill:#303030;}</style></defs><g id="Layer_1-2"><rect class="cls-4" width="430" height="140"/><path class="cls-13" d="M26.08,59.96h5.52c3.68,0,5.5,1.74,5.5,4.26,0,3.27-2.45,5.67-6.83,5.67h-1.67c-.31,1.67-.61,3.37-.87,5.04l2.33.29-.19.97h-6.57l.22-.97,2.06-.24,1.43-7.51c.39-2.08.75-4.17,1.09-6.25l-2.21-.27.19-.99ZM30.25,61.09l-1.43,7.58-.02.1h1.43c3.1,0,4.63-1.77,4.63-4.29,0-2.23-1.26-3.39-3.61-3.39h-.99Z"/><path class="cls-13" d="M37.88,72.24c0-4.36,2.88-7.88,6.32-7.88,2.28,0,3.93,1.5,3.93,4.24,0,4.22-2.81,7.9-6.23,7.9-2.23,0-4.02-1.5-4.02-4.26ZM46.17,68.97c0-2.62-.92-3.63-2.23-3.63-2.3,0-4.09,3-4.09,6.62,0,2.54.99,3.59,2.35,3.59,2.37,0,3.97-3.32,3.97-6.57Z"/><path class="cls-13" d="M49.26,74.11c.12-.41.51-.68.9-.68.7,0,.99.39,1.16,1.07l.27,1.04c.1.02.22.02.34.02,1.67,0,2.67-.8,2.67-2.06,0-.78-.19-1.41-1.58-2.4-1.21-.92-2.13-1.82-2.13-3.34,0-1.89,1.53-3.39,3.85-3.39,1.43,0,2.52.56,2.88,2.13-.15.46-.48.68-.92.68-.56,0-.99-.41-1.24-1.14l-.22-.7c-.1-.02-.22-.02-.34-.02-1.67,0-2.3.9-2.3,1.99,0,1.02.41,1.53,1.79,2.54,1.45,1.09,1.96,1.82,1.96,3.22,0,2.01-1.65,3.44-4.09,3.44-1.89,0-2.83-.95-3-2.4Z"/><path class="cls-13" d="M59.32,65.7l1.67-1.33c2.01.53,3.76,1.07,5.74,1.92l.82-1.6,1.33-.29.29.24c-.24.61-1.07,1.7-2.3,2.98-2.04,2.08-4.19,3.83-6.2,5.72,1.87,1.41,3.15,1.75,4.14,1.75.68,0,1.26-.19,1.79-.53-.51-.61-.73-.97-.73-1.43,0-.78.53-1.24,1.21-1.31.51.19.8.85.8,1.43,0,1.77-2.01,3.51-3.88,3.51-1.41,0-2.57-.56-4.19-2.57l-.97,2.01-1.38.15-.19-.15c.48-.85.97-1.6,1.99-2.59,2.08-2.04,4.36-3.93,6.49-6.11-1.67-.53-3.05-.9-4.99-1.33l-1.02,3.29-.99-.15.56-3.61Z"/><path class="cls-13" d="M71.89,64.61c.29-1.43.56-2.86.8-4.29l-2.3-.15.1-.7,4.1-1.21.24.19-2.18,11.07,6.45-5.04c.51.02.87.48.87.99,0,.44-.34.78-1.24,1.26l-5.89,3.27.56.12c1.41.27,2.16,1.09,2.71,2.3l.7,1.53c.53,1.16.9,1.36,1.65,1.41l1.24.1-.12.73c-.73.24-1.19.32-1.72.32-1.14,0-1.94-.24-2.64-1.94l-.78-1.89c-.58-1.36-.95-1.79-1.79-2.04l-.22-.05-.1.51c-.34,1.7-.63,3.39-.92,5.09l-1.62.19-.22-.19,2.33-11.58Z"/><path class="cls-13" d="M80.56,72.24c0-4.36,2.88-7.88,6.33-7.88,2.28,0,3.92,1.5,3.92,4.24,0,4.22-2.81,7.9-6.23,7.9-2.23,0-4.02-1.5-4.02-4.26ZM88.85,68.97c0-2.62-.92-3.63-2.23-3.63-2.3,0-4.1,3-4.1,6.62,0,2.54.99,3.59,2.35,3.59,2.38,0,3.97-3.32,3.97-6.57Z"/><path class="cls-13" d="M98.71,75.24c0-.34,0-.75.17-1.6-1.45,1.7-3.15,2.86-4.48,2.86-1.16,0-2.18-.85-2.18-3.05,0-4.02,4.05-9.09,7.34-9.09.46,0,.82.12,1.19.36l.92-4.39-2.45-.17.1-.7,4.14-1.21.29.19-2.93,14.47c-.12.61-.19,1.12-.19,1.38,0,.34.27.53.56.53.63,0,1.55-.7,2.38-1.75l.58.46c-.95,1.41-2.45,2.96-4.07,2.96-.75,0-1.36-.41-1.36-1.26ZM95.6,74.83c.87,0,1.89-.63,3.54-2.47l1.16-5.82c-.48-.41-.99-.58-1.48-.58-1.04,0-2.08.58-2.91,1.5-1.09,1.21-1.84,3.1-1.84,5.06,0,1.6.65,2.3,1.53,2.3Z"/><path class="cls-13" d="M105.07,72.24c0-4.36,2.88-7.88,6.32-7.88,2.28,0,3.93,1.5,3.93,4.24,0,4.22-2.81,7.9-6.23,7.9-2.23,0-4.02-1.5-4.02-4.26ZM113.36,68.97c0-2.62-.92-3.63-2.23-3.63-2.3,0-4.09,3-4.09,6.62,0,2.54.99,3.59,2.35,3.59,2.37,0,3.97-3.32,3.97-6.57Z"/><path class="cls-13" d="M119.27,67.1c-.12-.94-.34-1.07-.68-1.07-.46,0-.87.44-1.65,1.6l-.56-.39c.85-1.89,1.89-2.88,2.98-2.88,1.02,0,1.43.46,1.62,1.62.34,2.01.44,5.19.44,7.88,1.79-2.59,3.44-5.65,4.97-9.21h.97c.15,3.3.27,6.59.36,9.43,1.62-2.04,2.74-3.68,3.95-5.94.05-.1.1-.17.15-.27l-.19-.8c-.07-.29-.12-.78-.12-.99,0-1.21.7-1.72,1.45-1.72.39,0,.65.15.8.32.1.15.15.34.15.73,0,.51-.15,1.16-1.24,3.25-1.14,2.21-3.17,5.04-5.67,7.63l-.7.07-.17-.12c-.15-2.57-.27-5.14-.39-7.68-1.24,2.35-3.1,5.52-5.02,7.73l-.73.07-.17-.12c-.02-3.9-.22-6.69-.56-9.14Z"/><path class="cls-13" d="M140.64,75.1c0-.46.02-.85.1-1.28-1.41,1.6-2.93,2.69-4.24,2.69-1.16,0-2.3-.85-2.3-2.86,0-4.22,4.36-9.28,7.49-9.28.56,0,.99.24,1.38.65l1.11-.9.44.22-1.94,8.58c-.15.61-.22,1.12-.22,1.38,0,.34.27.53.58.53.61,0,1.53-.7,2.37-1.75l.58.46c-.95,1.41-2.47,2.96-4.09,2.96-.65,0-1.26-.44-1.26-1.41ZM137.53,74.83c.85,0,1.87-.58,3.46-2.33l1.31-6.08c-.46-.27-.97-.46-1.48-.46-.78,0-1.79.51-2.67,1.41-1.16,1.21-2.08,3.15-2.08,5.28,0,1.48.58,2.18,1.45,2.18Z"/><path class="cls-13" d="M147.59,76.19l2.06-9.74-2.4-.14.1-.7,4.12-1.24.32.24-.51,2.5c1.6-1.53,3.59-2.74,5.06-2.74,1.02,0,1.55.56,1.55,1.67,0,.78-.22,1.57-.41,2.37l-1.09,4.51c-.17.68-.29,1.16-.29,1.41,0,.34.17.51.46.51.61,0,1.53-.65,2.4-1.75l.58.46c-.95,1.43-2.52,2.96-4.19,2.96-.75,0-1.21-.41-1.21-1.04,0-.56.15-.97.39-1.96l1.04-4.29c.19-.82.39-1.62.39-2.11,0-.85-.32-1.11-.85-1.11-.87,0-2.25.7-4.02,2.16l-.65,2.96c-.36,1.7-.65,3.37-.97,5.09l-1.62.19-.24-.19Z"/><path class="cls-13" d="M161.81,73.5l1.48-7.05-2.4-.14.1-.7,4.12-1.24.32.24-1.72,8.31c-.12.61-.22,1.12-.22,1.38,0,.34.27.53.53.53.58,0,1.36-.58,2.33-1.75l.61.46c-1.09,1.45-2.35,2.96-4.07,2.96-.68,0-1.31-.41-1.31-1.24,0-.36.05-.78.24-1.77ZM164.11,59.71c0-.8.63-1.48,1.33-1.48.75,0,1.26.51,1.26,1.28s-.65,1.5-1.36,1.5-1.24-.51-1.24-1.31Z"/><g class="cls-18"><path class="cls-16" d="M301.37,107.89s-1.69-2.97.38-6.77c2.06-3.8,7.06-4.02,7.06-4.02,0,0-.03-9.16,7-9.54,0,0-4.5-6.1,0-16.6,4.5-10.5,21.53-4.22,23.94,4.41,2.41,8.63-2.94,13.78-2.94,13.78,0,0,4.88,1.37,5.91,8.09,1.03,6.72-5.93,12.79-12.39,12.24,0,0-1.96,6.07-10.87,5.53-8.91-.54-18.1-7.13-18.1-7.13Z"/></g><path class="cls-14" d="M318.43,111.29s2.04.13,2.64.44c.59.31,1.53,1.29,1.53,1.29,0,0,1.75,1.3,1.86,1.52.11.22,1.3,3.41,1.3,3.41,0,0-7.33.25-7.74-.19-.41-.44.41-6.47.41-6.47Z"/><path class="cls-16" d="M296.72,106.74s6.44-14.37,8.44-17.37c2-3,2.94-3.13,3.66-3.5.72-.38,1.97-1.25,2.79-2.44.81-1.19,2.06-2.5,3.19-2.81,1.13-.31,2.03-.69,2.64,0,.61.69,1.28,1.25.88,1.75-.4.5-2.96.56-3.96,1.25-1,.69-1.31,1.44-2.75,3.06-1.44,1.63-3.46,2.06-4.14,3.5s-2.55,7.06-3.18,8.19c-.63,1.13-5.16,9.25-5.16,9.25l-2.41-.88Z"/><path class="cls-12" d="M297.8,130.96l25.76-.75s1.08-5.26-1.31-8.72c-2.39-3.47-7.64-5.43-10.99-5.66-3.35-.23-9.59,1.3-10.92,3.34-1.33,2.03-3.47,10.18-2.54,11.79Z"/><path class="cls-17" d="M316.14,138.67c2.95-1.58,4.66-3.7,5.74-7.1,1.36-4.29-1.38-9.84-3.18-11.49-1.75-1.61-5.1-2.64-8.14-2.52-2.39.1-3.24.52-4.22,1.02-.12.06-.24.12-.36.18-3.33,1.62-5.38,3.95-6.1,6.93-1.12,4.63-.1,8.62,3.02,11.84,1.76,1.82,4.44,2.46,7.02,2.46,2.47,0,4.84-.6,6.21-1.33ZM306.17,119.16h0,0Z"/><path class="cls-6" d="M318.3,128.8c0-4.37-3.55-7.92-7.92-7.92s-7.92,3.55-7.92,7.92,3.55,7.92,7.92,7.92,7.92-3.55,7.92-7.92ZM317.42,128.8c0,3.89-3.16,7.05-7.05,7.05s-7.05-3.16-7.05-7.05,3.16-7.05,7.05-7.05,7.05,3.16,7.05,7.05Z"/><path class="cls-6" d="M313.76,128.75c0-1.84-1.49-3.33-3.33-3.33s-3.33,1.49-3.33,3.33,1.49,3.33,3.33,3.33,3.33-1.49,3.33-3.33Z"/><path class="cls-6" d="M312.25,126.77c.14-.06.24-.2.25-.35l.47-4.73c.02-.2-.1-.38-.28-.45-.09-.03-2.27-.83-4.94.1-.21.07-.34.3-.28.52l1.16,4.46c.03.13.13.24.25.29.12.05.26.05.38-.02.01,0,1.35-.71,2.56.14.07.05.16.08.25.08.06,0,.12-.01.18-.04ZM309.35,125.62l-.93-3.58c1.65-.47,3.05-.23,3.65-.08l-.37,3.72c-.42-.17-.83-.24-1.21-.24-.45,0-.85.09-1.14.18Z"/><path class="cls-6" d="M318.28,129.36c.27-2.81-1.31-4.95-1.37-5.04-.14-.18-.39-.23-.58-.11l-3.84,2.4c-.11.07-.18.17-.2.3-.02.12.01.25.09.35.64.8.52,1.63.51,1.67-.02.12.01.25.09.34.08.1.19.16.31.17l4.53.33s.02,0,.03,0c.22,0,.41-.17.43-.39ZM313.33,127.1l3.09-1.93c.36.61,1.05,1.99,1.01,3.67l-3.67-.26c-.02-.37-.11-.92-.44-1.48Z"/><path class="cls-6" d="M312.67,136.38c2.81-.89,4.05-2.83,4.1-2.91.11-.18.08-.41-.08-.55l-3.42-3.12c-.1-.09-.23-.13-.36-.11-.13.02-.24.1-.31.21-.66,1.15-1.53,1.24-1.56,1.24-.14,0-.26.08-.34.19-.08.11-.1.25-.05.38l1.48,4.39c.06.18.23.3.41.3.04,0,.09,0,.13-.02ZM313.06,130.79l2.76,2.51c-.4.49-1.37,1.5-3,2.11l-1.19-3.53c.39-.14.94-.45,1.43-1.1Z"/><path class="cls-6" d="M308.53,136.1l1.75-4.34c.05-.12.04-.25-.02-.37-.06-.11-.17-.19-.29-.22-1.08-.24-1.55-1-1.57-1.03-.06-.11-.16-.18-.28-.21-.12-.03-.24,0-.34.07l-3.8,2.69c-.19.14-.24.41-.11.6,1.61,2.36,4.05,3.04,4.15,3.07.04.01.08.02.11.02.17,0,.34-.1.4-.27ZM307.93,130.96c.26.29.7.67,1.35.92l-1.41,3.52c-.64-.25-1.99-.9-3.04-2.25l3.1-2.19Z"/><path class="cls-6" d="M307.88,129.41c.09-.1.12-.24.1-.37,0-.04-.2-1.1.7-2.02.09-.09.14-.22.12-.35-.01-.13-.08-.25-.19-.32l-3.86-2.56c-.18-.12-.42-.09-.57.07-.07.08-1.71,1.95-1.73,5.01,0,.23.18.43.41.44l4.66.24s.01,0,.02,0c.13,0,.25-.06.33-.15ZM304.61,124.75l3.11,2.06c-.5.69-.62,1.39-.63,1.86l-3.74-.2c.11-1.84.88-3.16,1.27-3.72Z"/><path class="cls-1" d="M311.6,128.75c0-.64-.52-1.17-1.17-1.17s-1.17.52-1.17,1.17.52,1.17,1.17,1.17,1.17-.52,1.17-1.17ZM310.72,128.75c0,.16-.13.3-.3.3s-.3-.13-.3-.3.13-.3.3-.3.3.13.3.3Z"/><path class="cls-12" d="M223.23,129.56h24.8s1.08-4.61-1.31-8.07c-2.39-3.47-7.64-5.43-10.99-5.66s-9.59,1.3-10.92,3.34c-1.33,2.03-2.51,8.78-1.58,10.4Z"/><path class="cls-17" d="M240.61,138.67c2.95-1.58,4.66-3.7,5.74-7.1,1.36-4.29-1.38-9.84-3.18-11.49-1.75-1.61-5.1-2.64-8.14-2.52-2.39.1-3.24.52-4.22,1.02-.12.06-.24.12-.36.18-3.33,1.62-5.38,3.95-6.1,6.93-1.12,4.63-.1,8.62,3.02,11.84,1.76,1.82,4.44,2.46,7.02,2.46,2.47,0,4.84-.6,6.21-1.33ZM230.65,119.16h0,0Z"/><path class="cls-6" d="M242.77,128.8c0-4.37-3.55-7.92-7.92-7.92s-7.92,3.55-7.92,7.92,3.55,7.92,7.92,7.92,7.92-3.55,7.92-7.92ZM241.9,128.8c0,3.89-3.16,7.05-7.05,7.05s-7.05-3.16-7.05-7.05,3.16-7.05,7.05-7.05,7.05,3.16,7.05,7.05Z"/><path class="cls-6" d="M238.24,128.75c0-1.84-1.49-3.33-3.33-3.33s-3.33,1.49-3.33,3.33,1.49,3.33,3.33,3.33,3.33-1.49,3.33-3.33Z"/><path class="cls-6" d="M236.73,126.77c.14-.06.24-.2.25-.35l.47-4.73c.02-.2-.1-.38-.28-.45-.09-.03-2.27-.83-4.94.1-.21.07-.34.3-.28.52l1.16,4.46c.03.13.13.24.25.29.12.05.26.05.38-.02.01,0,1.35-.71,2.56.14.07.05.16.08.25.08.06,0,.12-.01.18-.04ZM233.83,125.62l-.93-3.58c1.65-.47,3.05-.23,3.65-.08l-.37,3.72c-.42-.17-.83-.24-1.21-.24-.45,0-.85.09-1.14.18Z"/><path class="cls-6" d="M242.76,129.36c.27-2.81-1.31-4.95-1.37-5.04-.14-.18-.39-.23-.58-.11l-3.84,2.4c-.11.07-.18.17-.2.3-.02.12.01.25.09.35.64.8.52,1.63.51,1.67-.02.12.01.25.09.34.08.1.19.16.31.17l4.53.33s.02,0,.03,0c.22,0,.41-.17.43-.39ZM237.81,127.1l3.09-1.93c.36.61,1.05,1.99,1.01,3.67l-3.67-.26c-.02-.37-.11-.92-.44-1.48Z"/><path class="cls-6" d="M237.15,136.38c2.81-.89,4.05-2.83,4.1-2.91.11-.18.08-.41-.08-.55l-3.42-3.12c-.1-.09-.23-.13-.36-.11-.13.02-.24.1-.31.21-.66,1.15-1.53,1.24-1.56,1.24-.14,0-.26.08-.34.19-.08.11-.1.25-.05.38l1.48,4.39c.06.18.23.3.41.3.04,0,.09,0,.13-.02ZM237.54,130.79l2.76,2.51c-.4.49-1.37,1.5-3,2.11l-1.19-3.53c.39-.14.94-.45,1.43-1.1Z"/><path class="cls-6" d="M233,136.1l1.75-4.34c.05-.12.04-.25-.02-.37-.06-.11-.17-.19-.29-.22-1.08-.24-1.55-1-1.57-1.03-.06-.11-.16-.18-.28-.21-.12-.03-.24,0-.34.07l-3.8,2.69c-.19.14-.24.41-.11.6,1.61,2.36,4.05,3.04,4.15,3.07.04.01.08.02.11.02.17,0,.34-.1.4-.27ZM232.41,130.96c.26.29.7.67,1.35.92l-1.41,3.52c-.64-.25-1.99-.9-3.04-2.25l3.1-2.19Z"/><path class="cls-6" d="M232.36,129.41c.09-.1.12-.24.1-.37,0-.04-.2-1.1.7-2.02.09-.09.14-.22.12-.35-.01-.13-.08-.25-.19-.32l-3.86-2.56c-.18-.12-.42-.09-.57.07-.07.08-1.71,1.95-1.73,5.01,0,.23.18.43.41.44l4.66.24s.01,0,.02,0c.13,0,.25-.06.33-.15ZM229.09,124.75l3.11,2.06c-.5.69-.62,1.39-.63,1.86l-3.74-.2c.11-1.84.88-3.16,1.27-3.72Z"/><path class="cls-1" d="M236.08,128.75c0-.64-.52-1.17-1.17-1.17s-1.17.52-1.17,1.17.52,1.17,1.17,1.17,1.17-.52,1.17-1.17ZM235.2,128.75c0,.16-.13.3-.3.3s-.3-.13-.3-.3.13-.3.3-.3.3.13.3.3Z"/><path class="cls-16" d="M298.45,131.45c.08-.09.12-.21.12-.33,0-.06-.39-6.55,3.84-11.28,2.25-2.52,7.28-3.62,11.95-2.61,4.52.98,7.3,4.63,7.99,6.7.63,1.88.67,6.37.67,6.42,0,.24.2.43.43.43h0c.14,0,2.82-.04,4.65-3.32.07-.12.67-1.26.67-2.87,0-1.38-.55-4.53-1.01-5.32-.36-.62-1.08-.79-1.52-.83-.07-.3-.2-.78-.37-1.33-.44-1.41-3.92.29-5.02-.45-.35-.23-.3-3.15-1.08-3.45-.92-.36-.05-1.75-1.24-2.14-.91-.3-1.84-.59-2.73-.86-.91-.28-3.03,1.29-3.74,1.07-.75-.23-3.65-2.68-3.65-2.68,0,0-9.45-1.5-10.67-1.65-.75-.44-6.83-3.97-12.04-7.09-5.57-3.33-15.73-6.11-18.7-6.26-2.78-.15-16.72-.22-25.5.23-8.34.43-15.43,2.4-16.46,3.53-.68.74-6.38,7.87-8.8,10.9-.57.72-.89,1.62-.89,2.54v5.86l-1.73,2.97c-.32.56-.51,1.19-.55,1.83-.23,4.4,0,4.95.09,5.13.09.22.27.63,3.21,2.04,1.39.67,2.76,1.25,2.77,1.25.05.02.11.03.17.03h3.75c.14,0,.26-.06.35-.17.08-.11.11-.25.07-.38-.91-3.32.58-8.48,4.58-11.02,4.18-2.66,10.96-3.26,15.29.86,4.46,4.25,4.05,11.84,4.05,11.92,0,.12.04.24.12.33.08.09.2.14.32.14h50.28c.12,0,.24-.05.32-.14Z"/><path class="cls-17" d="M287.34,108.6s-.01,0-.02,0l-19.88-.75c-.2,0-.37-.15-.41-.35l-2.33-11.36c-.03-.13,0-.27.09-.37.09-.1.21-.16.35-.15.19,0,4.71.19,6.72.55,2.01.37,8.41,2.88,10.5,4.25.76.5,2.63,1.75,5.56,3.73.2.13.25.41.12.61-.13.2-.26,3.18-.27,3.42,0,.24-.2.42-.44.42Z"/><path class="cls-17" d="M265.47,107.73c.08-.1.12-.23.09-.36l-2.16-11.4c-.04-.21-.22-.36-.43-.36h-15.17c-.11,0-.22.04-.3.12-.04.04-4.2,4.11-6.65,6.88-1.15,1.31-1.91,2.91-2.2,4.63l-.02.13c-.02.13.02.26.1.35.08.1.2.15.33.15h26.07c.13,0,.25-.06.34-.16Z"/><path class="cls-17" d="M229.15,104.8c1.12-.64,2.05-1.21,2.77-1.7,2.11-1.43,10.59-6.38,10.68-6.43.18-.1.26-.32.2-.51-.06-.19-.25-.32-.46-.3l-12.9,1.23c-1.3.12-2.49.74-3.34,1.73,0,0,0,.01-.01.02l-5.26,6.83c-.1.13-.12.31-.05.46.07.15.23.24.39.24h2.02c2.09,0,4.15-.55,5.96-1.58Z"/><path class="cls-14" d="M233.07,109.49c0-1.36-1.36-2.48-3.03-2.48s-3.03,1.11-3.03,2.48,1.36,2.48,3.03,2.48,3.03-1.11,3.03-2.48ZM232.2,109.49c0,.88-.97,1.6-2.16,1.6s-2.16-.72-2.16-1.6.97-1.6,2.16-1.6,2.16.72,2.16,1.6Z"/><path class="cls-14" d="M218.3,109.85c-1.06-.24-2.25-.41-2.68-.47-.17.45-.26.93-.26,1.42v5.86l-.28.48c.05.02.11.04.17.04h3.19c.11,0,.22-.04.31-.12,0,0,1-.98,1.96-2,.57-.6,1.01-1.1,1.32-1.49.55-.68.7-1,.59-1.29-.28-.76-3.17-2.15-4.32-2.41Z"/><path class="cls-14" d="M245.38,111.08c.12-.22.11-.49-.03-.7l-.19-.28c-.33-.5-.88-.79-1.48-.79h-4.4c-.24,0-.46.15-.56.37-.09.23-.04.48.13.66,0,0,0,0,0,0l.66.66c.29.29.67.45,1.08.45h4.2c.25,0,.48-.14.6-.36ZM239.47,109.72s0,0,0,0h0Z"/><path class="cls-14" d="M273.9,111.66c.12-.22.11-.49-.03-.7l-.19-.28c-.33-.5-.88-.79-1.48-.79h-4.4c-.24,0-.46.15-.56.37-.09.23-.04.48.13.66,0,0,0,0,0,0l.66.66c.29.29.67.45,1.08.45h4.2c.25,0,.48-.14.6-.36Z"/><path class="cls-14" d="M290.54,109.94c.89-.43,1.4-1.26,1.34-2.17,0-.12-.11-1.34-1.3-2.09-1.14-.71-3.16-.72-3.24-.72-.24,0-.44.2-.44.44v4.44c0,.24.19.43.42.44.06,0,.25,0,.5,0,.75,0,2.1-.04,2.71-.34Z"/><path class="cls-14" d="M267.2,129.05c-.11,0-.21-.09-.21-.21l-.78-20.93-2.64-12.25c-.02-.12.05-.23.16-.25.12-.02.23.05.25.16l2.65,12.29.78,20.97c0,.12-.09.22-.21.22,0,0,0,0,0,0Z"/><path class="cls-14" d="M220,129.77c-.11,0-.21-.09-.21-.21,0-.07-.04-1.7,1.8-6.48.9-2.33,2.12-4.27,3.62-5.75,1.41-1.38,3.03-2.35,4.84-2.87,1.75-.5,4.71-.99,7.73-.84,3.63.18,6.52,1.25,8.36,3.09,2.85,2.85,5.44,7.62,6.73,10.21.65,1.3,1.95,2.11,3.41,2.11h42.35c.12,0,.21.1.21.21s-.1.21-.21.21h-42.35c-1.62,0-3.07-.9-3.79-2.35-1.28-2.57-3.84-7.29-6.65-10.1-4.23-4.23-12.74-2.98-15.67-2.14-3.65,1.05-6.48,3.94-8.18,8.36-1.8,4.67-1.78,6.3-1.78,6.31,0,.12-.09.22-.21.22,0,0,0,0,0,0Z"/><path class="cls-12" d="M326.25,118.67h-5.17c-.12,0-.21-.1-.21-.21s.1-.21.21-.21h5.17c.12,0,.21.1.21.21s-.1.21-.21.21Z"/><path class="cls-14" d="M324.2,130.9s-.02,0-.03,0c-.12-.02-.2-.12-.18-.24.1-.74.08-5.18-.86-8.18-.9-2.86-2.49-4.55-5.48-5.82-3.45-1.46-10.83-2.35-15.96,1.45-2.79,2.07-4.36,4.99-5.19,7.07-.9,2.27-1.14,4.08-1.14,4.09-.01.12-.12.2-.24.18-.12-.01-.2-.12-.18-.24,0-.08.24-1.87,1.16-4.18.85-2.14,2.46-5.14,5.33-7.27,3.06-2.27,6.66-2.76,9.14-2.78,3.06-.02,5.75.65,7.24,1.28,3.08,1.3,4.79,3.12,5.72,6.08.92,2.92,1.01,7.41.88,8.37-.01.11-.11.18-.21.18Z"/><path class="cls-14" d="M292.8,129.46s-.04,0-.07-.01c-.11-.04-.17-.16-.14-.27,1.64-5.04,1.76-10.35,1.57-13.92-.21-3.87-.82-6.58-.82-6.61-.02-.1.03-.21.13-.25l4.2-1.65c.11-.04.23.01.28.12.04.11-.01.23-.12.28l-4.03,1.58c.14.67.61,3.16.8,6.49.2,3.61.08,8.98-1.59,14.08-.03.09-.11.15-.2.15Z"/><path class="cls-4" d="M330.79,99.66c.13,0,.25-.09.27-.22.01-.05.27-1.28.1-2.76-.24-1.99-1.16-3.45-2.68-4.24-3.62-1.87-6.13-.05-6.24.02-.12.09-.15.27-.06.39.09.12.27.15.39.06.09-.07,2.35-1.68,5.64.02,3.27,1.69,2.3,6.33,2.29,6.38-.03.15.06.3.21.33.02,0,.04,0,.06,0Z"/><path class="cls-4" d="M336.82,89.44c.14,0,.27-.11.28-.25,0-.04.36-3.98-2.94-5.31-3.38-1.36-5.71-.14-6.55.45-1.06.74-.92,2.3-.92,2.37.01.15.15.27.31.25.15-.01.27-.15.25-.31,0-.01-.11-1.3.68-1.85.77-.54,2.89-1.65,6.02-.39,2.9,1.17,2.61,4.58,2.59,4.73-.02.15.1.29.25.31,0,0,.02,0,.03,0Z"/><path class="cls-4" d="M318.11,106.6c.13,0,.24-.09.27-.22,0-.03.58-2.61-1.77-4.01-1.28-.76-2.4-.6-3.12-.33-.86.32-1.62,1-1.83,1.66-.05.15.03.31.18.36.15.05.31-.03.36-.18.14-.43.7-1.01,1.5-1.31.6-.22,1.55-.36,2.64.29,1.99,1.19,1.53,3.31,1.51,3.4-.03.15.06.3.21.34.02,0,.04,0,.06,0Z"/><path class="cls-4" d="M313.7,101.49s.04,0,.07,0c.15-.04.24-.19.21-.34-.01-.04-.26-1.06-1.02-2.11-1.01-1.4-2.44-2.16-4.14-2.21-.16,0-.28.12-.29.27,0,.16.12.28.27.29,3.66.11,4.59,3.74,4.63,3.89.03.13.15.21.27.21Z"/><g class="cls-20"><path class="cls-19" d="M385.76,122.68c-12.02,3.28-6.5-4.69,2.46-12.3,6.82-5.8,24.48-9.85,20.81-17.85-6.7-14.6-51.84,7.16-43.94,20.9,6.31,10.98,27.15-11.23,33.47-20.93,5.78-8.88-7.22-37.95.99-29.75,10.63,10.61-1.18,14.59-7.55,16.56-10.51,3.26-30.96,10.66-33.01-.17-6.95-36.71,35.94,3.93,22.56-13.06-8.74-11.1-13.71,16-23.94,25.14-5.63,5.03-18.63-4.97-11.27-3.36,9.24,2.03,16.32,10.31,25.71,9.92,7.38-.3,18.1-4.07,22,1.87,11.38,17.33-16.53,20-12.8,21.41,50.69,19.27,14.97-28.58,12.76-35.97-2.3-7.69-10.52-31.82-16.31-26.4-9.97,9.35,6.51,24.99,13.68,37.11,4.66,7.86,10.14,33.07,18.6,29.71,16.45-6.53-10.89-67.16-29.35-64.04-5.06.86,4.34,24.08,5.36,28.49,2.23,9.62,16.84,25.41,7.7,29.05-12.85,5.12-6.65-42.35-20.51-39.44-11.05,2.32,2.49,43.57,12.56,39.16,16.34-7.17-15.53-52.82-33.03-49.74-16.16,2.84,12.89,52.34,29.78,52.15,7.99-.09-11.14-23-17.61-16.51-7.8,7.82,2.29,27.28,13.2,18.81,5.1-3.96,10.04-18.76,2.3-17.19-4.25.86-11.21,24.62-8.25,21.64,6.88-6.94-13.59-30.6-22.03-25.85-6.89,3.87,4.01,13.14,11.81,15.42,6.03,1.77,22.39,1.96,26.21-4.69,5.26-9.16-47.23-33.41-21.58-12.15,11.18,9.26,32.68-1.24,42.52-11.92,6.73-7.29-35.93-3.01-35.44,2.42.97,10.73,43.01,5.98,45.46-4.13,2.05-8.48-31.13,4.24-38.66.84-6.12-2.77-15.25-.46-12.24-7.95,2.76-6.86,15.71,3.61,20.47-.62.73-.65-8.63-9.95-9.03-10.64"/><path class="cls-19" d="M376.26,125.73c13.85-.98,45.13-1.83,41.86-23.24-3.09-20.18-29.55-31.68-47.69-27.57-18.98,4.3-28.14,26.49-11.32,39.64,15.78,12.34,43.78,8.63,55.79-7.47,12.81-17.17-5.63-31.18-21.71-33.99-12.85-2.24-39-1.07-43.84,14.72-4.13,13.46,14.16,22.85,24.22,26.01,14.26,4.48,29.08,3.16,42.9-2.13"/></g><path class="cls-15" d="M366.99,132.48c-3.86,1.07-2.99-2.11-.56-4.64,2.34-2.43,4.57-4.3,7.55-5.92,1.78-.97,9.3-5.53,10.26-2.47.9,2.86-5.93,7.2-7.87,8.52-2.77,1.89-5.92,3.54-9.38,4.5Z"/><path class="cls-15" d="M376.89,112.11c.08.1,1.46-2.08,1.7-1.39.14.4-.95,1.95-1.72,2.68-1.56,1.47-2.61,3.53-3.54,6.21-1.16,3.34-1.59,4.61-2.82,7.54-.96,2.28-1.17,2.61-3.12,4.21-1.59,1.31-3.71-.09-3.49-2.14.25-2.27.62-2.22,2.35-5.07,1.37-2.26,3.12-5.27,4.55-7.49,1.26-1.95,2.23-4.1,3.21-6.21.54-1.16,1.53-5.15,3.51-4.25.78.36,1,2.32-.16,4.13-.38.59-.8,1.34-.46,1.78Z"/><polygon class="cls-3" points="353.43 145.77 349.99 150.38 343.52 153.45 347.2 148.88 348.74 147.17 353.43 145.77"/><path class="cls-8" d="M379,125.04c.23-3.63,1.7-6.97,4.82-9.2,2.65-1.9,3.7-2.17,6.38-1.27,6.18,2.07,6.92,24.42,6.66,29.78-3.91.5-7.02,1.14-11.03,1.34.74-5.29-2.87-10.33-5.48-15.48-.83-1.64-1.48-3.27-1.36-5.16Z"/><path class="cls-3" d="M383.36,140.91c1.48-.05,4.78.85,2.94,2.55-1.04.96-4.31.95-4.71-.77-.2-.84.52-1.74,1.77-1.79Z"/><rect class="cls-15" x="382.74" y="105.2" width="3.16" height="11.64" transform="translate(-7.16 193.31) rotate(-27.98)"/><path class="cls-15" d="M383.64,118.58c.51.71,2.17.4,3.71-.7,1.54-1.1,2.37-2.57,1.86-3.28-.51-.71-2.17-.4-3.71.7-1.54,1.1-2.37,2.57-1.86,3.28Z"/><path class="cls-10" d="M347.7,153.59l2.67-.02s.37-.68.36-2.38c-.01-1.7,0-1.6,0-1.6,0,0-.57-.01-1.98.99-1.12.8-3.8.74-4.68,1.01-1.81.54-2.75.74-2.74,2.04l5.47-.03s.4-.86.97-.86c-.05,1.24-.06.86-.06.86Z"/><path class="cls-9" d="M383.52,143.13s-17.2-16.45-20.23-13.21c-3.03,3.25-14.54,17.25-14.54,17.25l3.87.53s14.28-6.32,12.9-9.45c0,0,23.78,30.18,26.89,6.1l-8.89-1.21Z"/><polygon class="cls-7" points="357.89 145.77 354.45 150.38 347.97 153.45 351.66 148.88 353.2 147.17 357.89 145.77"/><path class="cls-8" d="M387.68,141.83s-16.54-15.14-19.94-11.91c-3.22,3.06-14.54,17.25-14.54,17.25l3.87.53s12.54-5.19,12.9-9.45c0,0,23.78,30.18,26.89,6.1l-9.18-2.51Z"/><path class="cls-10" d="M352.16,153.59l2.67-.02s.37-.68.36-2.38c-.01-1.7,0-1.6,0-1.6,0,0-.57-.01-1.98.99-1.12.8-3.8.74-4.68,1.01-1.81.54-2.75.74-2.74,2.04l5.47-.03s.4-.86.97-.86c-.05,1.24-.06.86-.06.86Z"/><path class="cls-10" d="M377.34,102.74c-1.22,1.11-2.68,2.91-2.95,4.61-.26,1.71.83,3.16,1.95,4.32.83.86,1.75,1.8,2.71,2.51.8.6,1.85.29,2.68-.09,1.76-.81,3.36-2.16,4.71-3.53,1.01-1.02,1.4-2.73,1.18-4.12-.28-1.75-1.99-2.83-3.43-3.62-1.24-.68-2.56-1.15-3.99-1.18-.73-.02-1.49.17-2.12.54-.16.09-.6.43-.73.55Z"/><path class="cls-15" d="M379.22,103.96c-5.39,1.71-3.65,7.98.15,11.13,1.07.88,2.77,1.82,3.33,1.4,1.12-.84,1.72-1.91,2.3-2.98,1.11-2.03,1-3.94.33-6.21-.78-2.64-3.69-4.11-6.11-3.34Z"/><path class="cls-10" d="M374.95,105.08c-.91,1.88,1.23,2.44,2.83,2.96.72.24,1.62.29,2.36.09.98-.27,1.45-1.22,2.2-1.82.52-.42,1.26-.84,1.79-.25,1.23,1.35.17,2.01.16,2.02,0,0,.9,1.04.99,1.12.36.32.81.63,1.32.56,1.32-.18,1.3-1.92,1.35-2.9.05-.94-.28-2.13-.81-2.94-1.94-2.97-4.27-4.16-6.94-3.51-.77.19-1.55.59-2.19,1.06-1.03.76-2.42,2.5-3.06,3.61Z"/><path class="cls-10" d="M380.05,100.57c-.73-.96-.82-1.91,0-2.87.64-.75,1.72-1.3,2.76-1.04,2,.5,2.74,2.01,2.47,3.35-.13.66-.6,1.06-1.22,1.25l-4.01-.69Z"/><path class="cls-11" d="M382.11,112.98s-4.14.56-2.04,1.8c0,0,3.44-.49,2.04-1.8Z"/><path class="cls-7" d="M372.87,132.48c-3.86,1.07-2.99-2.11-.56-4.64,2.34-2.43,4.57-4.3,7.55-5.92,1.78-.97,9.3-5.53,10.26-2.47.9,2.86-5.93,7.2-7.87,8.52-2.77,1.89-5.92,3.54-9.38,4.5Z"/><path class="cls-7" d="M380.69,111.95c.1.09,1.52-1.51,1.76-1.35.35.24-.79,2.02-1.5,2.81-1.43,1.59-2.32,3.73-3.03,6.47-.89,3.42-1.22,4.73-2.21,7.74-.77,2.35-.96,2.69-2.78,4.45-1.48,1.43-3.71.2-3.65-1.86.06-2.28.44-2.27,1.93-5.24,1.18-2.36,2.69-5.5,3.94-7.83,1.1-2.05,1.9-4.26,2.7-6.45.44-1.2,1.82-4.75,3.16-4.52.85.14,1.18,2.23.17,4.13-.33.62-.63,1.52-.5,1.64Z"/><path class="cls-15" d="M364.83,38.32s-.56,6.25.46,7.54c1.02,1.29,11.26-1.1,11.26-1.1l.46-10.19-12.19,3.75Z"/><path class="cls-2" d="M368.11,39.94l-4.36,2.12-6.07,3.65s-1.56,1.23-2.98,2.03c-3.09,1.73-4.91.47-4.75-.91l5.31-3.95,4.57-3.72,6.86-5.37,10.1-5.46,24.69-18.72,7.22,10.53-16.93,9.56-6.17,4.32-2.56,5.61-5.95,6.58-5.78,1.91-4.38-.14c-1.64-3.2,4.35-2.81,6.6-5.03.57-.56.41-1.52-.3-1.88l-2.11-1.06c-.93-.51-2.05-.54-3-.08Z"/><polygon class="cls-17" points="403.43 23.65 395.6 29.02 388.69 18.94 396.3 13.24 403.43 23.65"/><path class="cls-5" d="M408.12,0c-3.94,4.41-7.89,8.82-11.83,13.23l7.14,10.41c8.87-4.47,17.75-8.93,26.62-13.4,0-3.41,0-6.83,0-10.24-7.31,0-14.62,0-21.93,0Z"/></g></svg>