<?xml version="1.0" encoding="UTF-8"?><svg id="Layer_2" xmlns="http://www.w3.org/2000/svg" viewBox="0 0 2560 900"><defs><style>.cls-1{fill:#002356;}.cls-1,.cls-2,.cls-3,.cls-4,.cls-5,.cls-6,.cls-7,.cls-8,.cls-9,.cls-10,.cls-11,.cls-12,.cls-13,.cls-14,.cls-15,.cls-16,.cls-17,.cls-18,.cls-19,.cls-20,.cls-21,.cls-22{stroke-width:0px;}.cls-2{fill:#f7a4a6;opacity:.88;}.cls-3{fill:#722217;}.cls-4{fill:#ce6b28;}.cls-5{fill:#174b72;}.cls-6{fill:#211010;}.cls-7{fill:#e09b7c;}.cls-8{fill:#fff;}.cls-9{fill:#8c2a20;}.cls-10{fill:#002b69;}.cls-11{opacity:.19;}.cls-11,.cls-20{fill:#d7af80;}.cls-12{fill:#093872;}.cls-13{fill:#9b3a2f;}.cls-14{fill:#e9a684;}.cls-15{fill:#b74d44;}.cls-16{fill:#a13941;}.cls-17{fill:#e5a87a;}.cls-18{fill:#f4bc8e;}.cls-19{fill:#2f729b;}.cls-21{fill:#8d3c43;}.cls-22{fill:#471910;}</style></defs><g id="_2560x900px-v1"><rect class="cls-11" width="2560" height="900"/><path class="cls-20" d="m895.31,668.75l-9.45-27.6c-62.23-4.3-38.59-64.65-38.59-64.65l-18.09-17.85c-58.19,27.76-66.06-33.83-66.06-33.83l-28.84-7.8c-49.39,50.35-74.66,1.59-74.66,1.59l-26.72,9.15c-6.08,64.75-63.11,38.26-63.11,38.26l-18.26,18.26c29.55,52.07-36.78,63.78-36.78,63.78l-5.59,29.07c51.64,37.19-1.02,71.93-1.02,71.93l9.61,28.06c67.16,3.13,38.38,62.1,38.38,62.1l22.08,16.99c61.39-19.97,62.2,35.65,62.2,35.65l27.25,8.13c44.77-49.82,75.28-1.02,75.28-1.02l27.19-9.31c4.9-57.29,62.17-37.94,62.17-37.94l19.75-23.3c-20-52.2,34.71-62.11,34.71-62.11l7.81-28.31c-49.1-40.67.74-69.26.74-69.26Zm-162.89,132.58c-52.17,17.86-108.66-9.12-126.17-60.27-17.51-51.15,10.59-107.09,62.75-124.95,52.17-17.86,108.66,9.12,126.17,60.27,17.51,51.15-10.59,107.09-62.76,124.95Z"/><circle class="cls-8" cx="701.72" cy="708.51" r="101.74" transform="translate(-20.51 20.92) rotate(-1.68)"/><path class="cls-10" d="m686.47,647.19h0c-1.18.29-2.37-.43-2.67-1.61l-2.5-10.16c-.29-1.18.43-2.37,1.61-2.67,1.18-.29,2.37.43,2.66,1.61l2.5,10.16c.29,1.18-.43,2.37-1.61,2.67Z"/><path class="cls-10" d="m720.53,784.26h0c-1.18.29-2.37-.43-2.67-1.61l-2.5-10.16c-.29-1.18.43-2.37,1.61-2.67,1.18-.29,2.37.43,2.67,1.61l2.5,10.16c.29,1.18-.43,2.37-1.61,2.67Z"/><path class="cls-10" d="m763.04,693.26h0c-.29-1.18.43-2.37,1.61-2.67l10.16-2.5c1.18-.29,2.37.43,2.67,1.61.29,1.18-.43,2.37-1.61,2.67l-10.16,2.5c-1.18.29-2.37-.43-2.67-1.61Z"/><path class="cls-10" d="m625.97,727.32h0c-.29-1.18.43-2.37,1.61-2.67l10.16-2.5c1.18-.29,2.37.43,2.67,1.61.29,1.18-.43,2.37-1.61,2.67l-10.16,2.5c-1.18.29-2.37-.43-2.66-1.61Z"/><path class="cls-10" d="m735.75,651.96h0c-1.04-.63-1.37-1.98-.74-3.02l2.76-4.56c.63-1.04,1.98-1.37,3.02-.74,1.04.63,1.37,1.98.75,3.02l-2.76,4.56c-.63,1.04-1.98,1.37-3.02.75Z"/><path class="cls-10" d="m662.61,773.47h0c-1.04-.63-1.37-1.98-.75-3.02l3.41-5.64c.63-1.04,1.98-1.37,3.02-.74,1.04.63,1.37,1.98.74,3.02l-3.41,5.64c-.63,1.04-1.98,1.37-3.02.75Z"/><path class="cls-10" d="m758.28,742.6h0c.63-1.04,1.98-1.37,3.02-.74l4.56,2.76c1.04.63,1.37,1.98.75,3.02-.63,1.04-1.98,1.37-3.02.75l-4.56-2.76c-1.04-.63-1.37-1.98-.74-3.02Z"/><path class="cls-10" d="m636.78,669.46h0c.63-1.04,1.98-1.37,3.02-.75l5.64,3.41c1.04.63,1.37,1.98.75,3.02-.63,1.04-1.98,1.37-3.02.75l-5.64-3.41c-1.04-.63-1.37-1.98-.75-3.02Z"/><path class="cls-10" d="m701.93,707.94h0c-.7,1.15-2.19,1.51-3.34.82l-36.07-21.91c-1.15-.7-1.51-2.19-.82-3.34.7-1.15,2.19-1.51,3.34-.82l36.07,21.91c1.15.7,1.51,2.19.82,3.34Z"/><path class="cls-10" d="m702.23,710.96h0c-1.15-.7-1.51-2.19-.82-3.34l18.31-30.14c.7-1.15,2.19-1.51,3.34-.82,1.15.7,1.51,2.19.82,3.34l-18.31,30.14c-.7,1.15-2.19,1.51-3.34.82Z"/><path class="cls-10" d="m710.28,706.4c1.16,4.73-1.72,9.5-6.45,10.67-4.73,1.16-9.5-1.72-10.67-6.45-1.16-4.73,1.72-9.5,6.45-10.67,4.73-1.16,9.5,1.72,10.67,6.45Z"/><path class="cls-16" d="m485.09,821.94l3.27-17.22c-30.89-20.69-.98-45.23-.98-45.23l-4.12-14.69c-37.89-2.67-23.88-37.2-23.88-37.2l-12.48-12.61c-40.02,11.74-38.65-21.23-38.65-21.23l-16.34-3.11c-22.1,31.94-43.49,1.37-43.49,1.37l-14.69,4.16c-.18,35.94-37.52,22.48-37.52,22.48l-11.13,13.6c15.47,34.69-21.38,37.34-21.38,37.34l-3.33,17.51c33.11,21.41,1.12,43.74,1.12,43.74l6.17,15.38c37.24,7.69,21.26,36.99,21.26,36.99l11.54,12.11c37.51-12.82,38.78,21.51,38.78,21.51l16.63,3.16c19.33-28.51,42.88-1.29,42.88-1.29l16.91-6.26c5.1-33.19,35.97-22.17,35.97-22.17l12.53-12.42c-13.15-35.76,20.95-35.92,20.95-35.92Zm-122.64,21.12c-31.91-6.07-52.85-36.85-46.78-68.76,6.07-31.91,36.85-52.85,68.76-46.78,31.91,6.07,52.85,36.85,46.78,68.76-6.07,31.91-36.85,52.85-68.76,46.78Z"/><path class="cls-8" d="m433.29,787.18c-.91,32.52-28.01,58.15-60.53,57.25-32.52-.91-58.15-28.01-57.25-60.53.91-32.52,28.01-58.15,60.53-57.25,32.52.91,58.15,28.01,57.25,60.53Z"/><path class="cls-10" d="m366.54,749.6h0c-.69.15-1.37-.29-1.52-.98l-1.28-5.92c-.15-.69.29-1.37.98-1.52.69-.15,1.37.29,1.52.98l1.28,5.92c.15.69-.29,1.37-.98,1.52Z"/><path class="cls-10" d="m384.03,829.49h0c-.69.15-1.37-.29-1.52-.98l-1.29-5.92c-.15-.69.29-1.37.98-1.52.69-.15,1.37.29,1.52.98l1.29,5.92c.15.69-.29,1.37-.98,1.52Z"/><path class="cls-10" d="m410.11,777.5h0c-.15-.69.29-1.37.98-1.52l5.92-1.28c.69-.15,1.37.29,1.52.98.15.69-.29,1.37-.98,1.52l-5.92,1.28c-.69.15-1.37-.29-1.52-.98Z"/><path class="cls-10" d="m330.22,795h0c-.15-.69.29-1.37.98-1.52l5.92-1.28c.69-.15,1.37.29,1.52.98.15.69-.29,1.37-.98,1.52l-5.92,1.29c-.69.15-1.37-.29-1.52-.98Z"/><path class="cls-10" d="m394.98,753.16h0c-.59-.38-.76-1.17-.38-1.76l1.67-2.59c.38-.59,1.17-.76,1.76-.38.59.38.76,1.17.38,1.76l-1.67,2.59c-.38.59-1.17.76-1.76.38Z"/><path class="cls-10" d="m350.68,822.3h0c-.59-.38-.76-1.17-.38-1.76l2.06-3.21c.38-.59,1.17-.76,1.76-.38.59.38.76,1.17.38,1.76l-2.06,3.21c-.38.59-1.17.76-1.76.38Z"/><path class="cls-10" d="m406.56,805.98h0c.38-.59,1.17-.76,1.76-.38l2.59,1.67c.59.38.76,1.17.38,1.76-.38.59-1.17.76-1.76.38l-2.59-1.67c-.59-.38-.76-1.17-.38-1.76Z"/><path class="cls-10" d="m337.42,761.69h0c.38-.59,1.17-.76,1.76-.38l3.21,2.06c.59.38.76,1.17.38,1.76-.38.59-1.17.76-1.76.38l-3.21-2.06c-.59-.38-.76-1.17-.38-1.76Z"/><path class="cls-10" d="m374.5,785.01h0c-.42.65-1.29.84-1.95.42l-20.52-13.26c-.65-.42-.84-1.29-.42-1.95.42-.65,1.29-.84,1.95-.42l20.52,13.26c.65.42.84,1.29.42,1.95Z"/><path class="cls-10" d="m374.63,786.77h0c-.65-.42-.84-1.29-.42-1.95l11.08-17.15c.42-.65,1.29-.84,1.95-.42.65.42.84,1.29.42,1.95l-11.08,17.15c-.42.65-1.29.84-1.95.42Z"/><path class="cls-10" d="m379.36,784.26c.6,2.76-1.15,5.47-3.91,6.07-2.75.6-5.47-1.15-6.07-3.91-.6-2.76,1.15-5.47,3.91-6.07,2.75-.6,5.47,1.15,6.07,3.91Z"/><path class="cls-18" d="m518.97,435.63c-.45.55-1.41,1.91-1.41,1.91l3.26.28,6.41-2.36s1.51-4.19,2.67-5.19c1.16-.99,2.36-.58,2.36-.58,0,0-2.56,5.7-3.66,9.71-.19.68-1.05,1.15-2.02,1.98-.04.71-.21,1.75-1.42,2.22-.46,1.31-1.5,1.49-3.23,2.11-1.21.43-5.81,2.14-7.54,2.88-1.8.76-4.09,2.04-7.35,3.47l-2.41-6.07c2.69-.84,6.38-2.69,6.7-2.85.64-.31.74-2.98,2.03-4.5,1.28-1.52,6.2-6.98,6.45-7.77.6.04,1.5.39,1.11,1.99-.18.75-1.21,1.88-1.94,2.78Z"/><path class="cls-18" d="m319.34,510.19s-2.74,5.96-2.68,7.02c.08,1.46.49,2.73.61,4.19.06.75-.15,1.5-.27,2.24-.12.76-.23,1.51-.35,2.27-.04.25-.08.5-.11.75,0,0-.03,3.56.29,5.06s.7,3.76-.84,3.61c-1.55-.15-2.35-2.74-2.54-4.56-.19-1.82-1.06-3.45-1.5-2.67-1.18,2.09-1.92,4.61-2.66,6.89-1.14,3.51-2.28,7.28-3.56,5.07-.24-.42-.19-.94-.11-1.41.56-3.33,1.93-6.57,2.28-9.94.06-.56-.32-.96-.73-.3-.41.66-3.17,5.73-4.04,7.37-.52.97-1.02,1.96-1.65,2.86-.28.4-.59.86-1.06,1.06-.48.21-1.21.05-1.45-.45-.11-.24-.09-.53-.05-.78.16-.97.59-1.88,1.01-2.75.58-1.2,1.23-2.37,1.86-3.55,1.33-2.52,2.45-4.65,2.45-5.19,0-.54-.13-.76-.96.31-.83,1.07-4.28,6.55-4.81,7.25-.53.69-1.15.98-1.58.64-.47-.36-1.34-.71,3.22-7.95.82-1.32,1.72-2.5,1.79-2.9.07-.4-.38-.75-1.18,0-.8.74-2.86,3.06-3.49,2.86-.63-.2-1.38-.55.99-3.34,2.37-2.79,4.67-5.93,5.77-6.95,1.1-1.02,3.09-1.67,3.97-2.56.88-.89,4.03-8.02,4.03-8.02l7.35,3.87Z"/><g id="BM1"><path class="cls-6" d="m345.53,659.24c-1.3.55-7.51,9.2-7.51,9.2l-1.09,5.66,16.5,7.14,12.05,4.72,2.53-7.48-13.83-13.39-8.66-5.85Z"/><path class="cls-6" d="m461.44,619.73c.88,1.1,0,0,0,0l7.5,10.93,14.35,5.63-2.68,8.04-32.02-.59-1.88-3.55s.26-7.57.88-7.81l3.16-14.34,10.69,1.69Z"/><path class="cls-10" d="m423.77,418.1l-19.83-4.53-8.59.23-11.43,2.93-10.54,7.44-1.29,21.36-.68,8.32,2.19,31.48-2.02,21.32-7.22,28.64,8.14,9.54c-10.92,39.11-21.83,78.21-32.75,117.32l21.59,7.23c14.61-36.39,29.22-72.78,43.83-109.17,16.3,4.16,32.59,8.31,48.89,12.47-3.33,18.13-6.65,36.25-9.98,54.38,8.81.83,17.63,1.66,26.44,2.49,4.66-25.61,9.31-51.22,13.97-76.82-17.24-4.04-34.48-8.07-51.72-12.11l2.3-4.44-1.57-40.04.08-52.07.27-19.96-10.08-6.01Z"/><path class="cls-1" d="m407.04,418.05c8.52,1.9,17.04,3.81,25.57,5.71,10.97,11.22,21.95,22.45,32.92,33.67,13.4-5.6,26.81-11.2,40.21-16.8l.12,16.13c-15.02,5.87-30.04,11.75-45.06,17.62-13.04-12.62-26.08-25.23-39.12-37.85l-14.63-18.5Z"/><polygon class="cls-8" points="509.22 441.9 506.09 441.72 505.79 453.36 508.76 452.87 509.22 441.9"/><polygon class="cls-10" points="423.77 418.1 403.94 413.57 395.35 413.8 383.92 416.72 368.71 423.04 368.75 441.99 366.88 459.17 371.31 485.25 369.3 506.57 364.35 535.29 372.5 544.83 383.45 550.46 390.5 530.54 421.74 529.99 424.63 541.23 432.78 540.62 435.07 536.18 436.09 496.21 436.7 459.54 433.85 424.11 423.77 418.1"/><polygon class="cls-17" points="395.04 418.74 412.95 449.58 421.86 425.41 419.82 419.25 418.82 418.38 420.2 401.83 401.19 399.85 399.57 412.58 395.04 418.74"/><path class="cls-8" d="m414.5,427.21c-15.42,1.2-16.94-11.47-16.94-11.47l1.35-2.27-9.85,5.99,3.75,29.79-2.31,81.28c13.42,1.22,26.94.79,34.32-.6l2.4-42.7.6-36.27.3-18.51-4.42-12.28-4.65-4.58-.23,2.8s3.05,8.25-4.31,8.83Z"/><path class="cls-18" d="m404.66,371.08s-11.94,6.1-15.27,8.42c-10.11,7.06-8.41,13.09-.44,24.24,4.88,6.84,15.27,5.29,15.27,5.29l3.94,3.3c2.76-.45,12.5.2,12.5.2l8.19-4.85-1.74-11.07s-8.3-14.29-8.77-14.82c0,0-3.27-5.98-6.81-8.82-2.83-2.27-6.87-1.9-6.87-1.9Z"/><path class="cls-4" d="m405.39,364.09l-7.33,4.23s-9.09,5.16-11.28,6.7c-9.8,6.84-7.86,19.8.25,30.33l9.74,6.6,5.55,1.22-1.69-9.05c1.35-1.32,4.55-4.49,4.55-4.49l-7.11-11.89,1.6-8.02,10.29-4.3,2.49-1.6.56-3.36-2.29-3.86-1.16,1.2-4.17-3.69Z"/><path class="cls-18" d="m405.18,398.76c.92,3.24,1.26,5.03-1.66,5.36-1.57.18-3.5.47-5.85-3.38-1.76-2.89-.77-6.34,2.06-7.16,2.83-.81,4.53,1.93,5.45,5.17Z"/></g><polygon class="cls-8" points="307.7 508.71 306.07 512.1 320.3 516.68 321.47 513.14 307.7 508.71"/><polygon class="cls-12" points="370.36 422.39 329.29 460.1 306.02 509.31 321.55 514 342.65 473.8 370.79 450.91 376.67 437.98 376.55 429.61 370.36 422.39"/><path class="cls-14" d="m596.06,348.53c.79-.35,2.7-1.03,2.7-1.03l-.73,3.92-4.85,6.76s-5.42.41-6.96,1.45c-1.54,1.05-1.45,2.58-1.45,2.58,0,0,7.53-1.16,12.6-1.14.86,0,1.69-.86,2.98-1.72.84.19,2.13.32,3.07-.95,1.69-.12,2.24-1.28,3.53-3.11.9-1.28,4.41-6.13,5.83-7.93,1.48-1.86,3.73-4.14,6.46-7.51l-6.35-4.8c-1.86,2.89-5.24,6.62-5.52,6.94-.57.66-3.74-.1-5.95.92-2.21,1.01-10.22,5.01-11.22,5.05-.15.72-.02,1.89,1.98,1.95.94.03,2.6-.81,3.89-1.38Z"/><g id="BM1-2"><path class="cls-6" d="m728.66,501.19c-1.13.96-4.61,11.6-4.61,11.6l.71,6.02,18.79,1.91,13.57.9.16-8.3-18.1-9.03-10.53-3.11Z"/><path class="cls-6" d="m655.75,493.61c-.92,1.15,0,0,0,0l-7.89,11.48-15.08,5.92,2.82,8.45,33.65-.62,1.97-3.74s-.27-7.96-.92-8.21l-3.32-15.07-11.24,1.78Z"/><path class="cls-10" d="m678.56,239.61l20.84-4.76,9.03.24,12.01,3.07,11.07,7.82,1.36,22.45.72,8.74-2.3,33.09,2.12,22.4c-.11,10.21-.21,20.43-.32,30.64-1.33,6.77-2.65,13.54-3.98,20.3,7.77,41.16,15.54,82.32,23.31,123.47-9.63.22-19.26.44-28.89.67-8.06-36.15-16.11-72.29-24.17-108.44-9.09,35.54-18.18,71.07-27.27,106.61-9.09-.69-18.18-1.38-27.27-2.07,8.09-45.16,16.18-90.32,24.27-135.49l-2.41-4.67,1.65-42.08-.09-54.72-.28-20.98,10.59-6.32Z"/><path class="cls-1" d="m696.14,239.57c-8.96,2-17.91,4-26.87,6-9.53,15.85-19.05,31.7-28.58,47.55-11.98,14.19-23.97,28.37-35.95,42.56,3.86,4.96,7.71,9.92,11.57,14.88,11.71-13.91,23.42-27.82,35.12-41.74,9.78-16.61,19.55-33.21,29.33-49.82,5.13-6.48,10.25-12.96,15.38-19.44Z"/><path class="cls-10" d="m678.56,239.61l20.84-4.76,9.03.24,12.01,3.07,15.98,6.64-.04,19.92,1.97,18.05-4.66,27.4,2.12,22.4c1.45,4.22,3.97,10.01,8.4,16.05,3.83,5.23,7.89,8.99,11.11,11.56-4.31,1.6-12.22,3.9-22.22,3.11-8.86-.7-15.63-3.52-19.57-5.53l-32.83-.58-3.04,11.81c-3.66-1.77-7.31-3.54-10.97-5.31l-1.07-42.01-.64-38.53,2.99-37.23,10.59-6.32Z"/><polygon class="cls-7" points="708.75 240.29 689.93 272.7 680.56 247.3 682.71 240.82 683.76 239.91 682.31 222.52 702.29 220.44 703.99 233.81 708.75 240.29"/><path class="cls-8" d="m688.3,249.19c16.2,1.27,17.8-12.05,17.8-12.05l-1.41-2.39,10.35,6.29-3.94,31.31,2.43,85.43c-14.1,1.28-28.32.83-36.07-.63l-2.52-44.87-.63-38.12-.32-19.46,4.64-12.91,4.89-4.81.24,2.94s-3.21,8.67,4.53,9.28Z"/><path class="cls-14" d="m668.17,198.33s12.46-6.59,16.46-8.05c12.17-4.43,16.33.67,21.12,14.26,2.94,8.33-4.67,16.32-4.67,16.32l.46,5.38c-2.05,2.1-7.37,10.88-7.37,10.88-8.22,4.37-12.3,2.55-13.53,1.86-2.22-1.25-3-3.24-7.71-13.9-1.65-3.74-2.99-6.74-3.79-8.52-.82-1.03-4.01-5.28-3.47-11.18.3-3.33,1.67-5.78,2.52-7.06Z"/><path class="cls-6" d="m655.01,192.15h15.43c1.44-1.55,5.43-5.46,11.92-6.82,7.27-1.53,12.97,1.12,15.08,2.14,9.04,4.36,12.44,12.76,13.22,14.88.66,1.66,2.97,8.08.28,15.43-1.95,5.32-5.53,8.4-7.16,9.64-1.58-4.2-3.17-8.4-4.75-12.6-1.95.37-6.61,1.2-6.61,1.2l-5.94-13.29-7.86-3.47-9.91,6.25-2.89,1.18c-.44.19-5.16,2.2-8.87-.21-3.85-2.5-5.24-8.84-1.93-14.33Z"/><path class="cls-14" d="m691.66,215.5c2.23,2.74,3.57,4.12,5.61,1.81,1.1-1.24,2.52-2.73.63-7.07-1.42-3.25-4.99-4.49-7.4-2.55-2.4,1.94-1.08,5.06,1.16,7.81Z"/></g><polygon class="cls-12" points="734.69 244.13 777.85 283.76 802.31 335.47 785.98 340.41 763.81 298.15 734.24 274.1 728.05 260.51 728.18 251.71 734.69 244.13"/><path class="cls-9" d="m835.62,403.7s-59.87,17.34-61.14,17.24c-1.26-.1-15.3-9.86-15.3-9.86l-1.18-49.95s62.2-11.8,63.27-11.05c1.07.75,15.98,7.73,16.02,8.05.19,1.48-1.67,45.57-1.67,45.57Z"/><path class="cls-3" d="m759.14,411.11l-1.18-49.95s.87-.17,2.4-.45c3.98,2.8,10.81,7.75,10.66,7.94-.2.24,2.73,45.34,3.19,52.27-2.2-.84-15.07-9.8-15.07-9.8Z"/><path class="cls-22" d="m812.55,393.73l-42.08-22.72-12.67-10.35c2.14-.41,61.86-10.34,62.91-9.6.98.69,13.63,5.38,15.87,7.3l-24.03,35.37Z"/><polygon class="cls-22" points="816.1 384.67 817.41 386.31 816.42 394.6 804.09 397.21 802.31 395.45 801.29 386.86 816.1 384.67"/><path class="cls-13" d="m812.91,392.27l-43.67-22.33-11.36-9.29c2.14-.41,62.15-11.77,63.2-11.04.98.69,12.82,6.3,15.06,8.23l-23.22,34.43Z"/><path class="cls-15" d="m837.29,358.33c-4.6.91-66.61,12.75-66.61,12.75l-11.43-9.19-1.44-1.23s62.2-11.8,63.27-11.05c.33.23,2,.92,4.15,1.81l12.07,6.71c0,.06,0,.13,0,.2Z"/><polygon class="cls-8" points="817.72 385.12 819.04 386.76 818.05 395.06 805.68 397.67 803.9 395.91 802.87 387.31 817.72 385.12"/><path class="cls-2" d="m806.23,389.32s8.69-1.85,12.13-2.3l-.31,8.04-12.36,2.61-.04-.04.59-8.31Z"/><path class="cls-5" d="m806.55,352.26l1.11-.49s.82.31,1.3.92.48,6.54.48,6.54l-2.89-2.15-.55-5.2.55.38Z"/><path class="cls-19" d="m807.67,346.88c3.06.3,3.82,4.9,3.82,4.9l.38,6.51-2.42.92s0-5.93-.48-6.54-1.3-.92-1.3-.92l-1.11.49-.55-.38-9.69-4.04s9.99-1.09,11.35-.95Z"/><path class="cls-5" d="m801.26,349.9l-.35-.15,2.95-2.66c1.8-.15,3.33-.26,3.81-.21.97.09,1.7.62,2.26,1.3-1.64.25-6.81,1.33-8.66,1.72Z"/><path class="cls-5" d="m793.29,350.81l.5,3.99s-2.8.48-3.67.68c-.87.21-1.05,4.65-.77,6.35.28,1.7-3.72,1.18-3.72,1.18l-2.25-3.38s-.61-7.48.14-8.74c.75-1.26,6.77-2.11,6.77-2.11l2.03,1.08.98.94Z"/><path class="cls-19" d="m786.88,352.49c.6-1.17,4.12-1.47,6.44-1.5l.47,3.81s-2.8.48-3.67.68c-.87.21-1.05,4.65-.77,6.35.25,1.56-3.09,1.25-3.64,1.19.08-1.97.4-9.05,1.17-10.53Z"/><polygon class="cls-14" points="792.75 337.94 790.67 340.14 788.41 347.8 791.93 355.4 803.43 350.07 801.23 339.93 798.48 335.94 792.75 337.94"/><polygon class="cls-21" points="693.17 250.62 697.96 254.6 695.92 259.53 688.05 259.66 686.26 254.79 690.99 250.66 693.17 250.62"/><polygon class="cls-21" points="695.51 260.86 687.98 260.99 684.91 330.73 693.59 344.78 703.82 331.77 695.51 260.86"/></g></svg>