<?xml version="1.0" encoding="UTF-8"?><svg id="Layer_2" xmlns="http://www.w3.org/2000/svg" xmlns:xlink="http://www.w3.org/1999/xlink" viewBox="0 0 2560 900"><defs><style>.cls-1{fill:#002356;}.cls-1,.cls-2,.cls-3,.cls-4,.cls-5,.cls-6,.cls-7,.cls-8,.cls-9,.cls-10,.cls-11,.cls-12,.cls-13,.cls-14,.cls-15,.cls-16,.cls-17{stroke-width:0px;}.cls-18{mask:url(#mask-2);}.cls-19,.cls-13{fill:#bf515e;}.cls-20{mask:url(#mask-3);}.cls-2{fill:#211010;}.cls-21{clip-path:url(#clippath-1);}.cls-3{fill:#a57e58;}.cls-4{fill:#fff;}.cls-5{fill:#ededed;}.cls-6{fill:url(#linear-gradient-2);}.cls-7{fill:#002b69;}.cls-8{opacity:.19;}.cls-8,.cls-17{fill:#d7af80;}.cls-9{fill:url(#linear-gradient);}.cls-9,.cls-15{mix-blend-mode:multiply;}.cls-22{clip-path:url(#clippath);}.cls-10{fill:#ffad86;}.cls-11{fill:#a13941;}.cls-12{fill:#ed8a72;}.cls-23{filter:url(#luminosity-noclip);}.cls-14{fill:#872d38;}.cls-24{mask:url(#mask-1);}.cls-25{mask:url(#mask);}.cls-15{fill:url(#linear-gradient-3);}.cls-16{fill:url(#linear-gradient-4);}.cls-26{filter:url(#luminosity-noclip-3);}</style><clipPath id="clippath"><path class="cls-13" d="m438.47,444.36c-4.31,3.36-3.8,12.82.95,17.7,2.75,2.83,6.06,3.12,6.94,6.08.84,2.84-1.31,5.14-3.22,8.56,0,0-3.21,5.78-3.94,15.7-.63,8.64,6.39,23.71,11.92,23.57,5.35-.13,12.02-14.56,19.25-68.81.33-2.46-2.13-4.46-4.9-3.99-1.51.26-3.18.49-4.98.65-13.14,1.2-18.24-2.41-22.02.53Z"/></clipPath><filter id="luminosity-noclip" x="429.75" y="439.44" width="23.78" height="75.31" color-interpolation-filters="sRGB" filterUnits="userSpaceOnUse"><feFlood flood-color="#fff" result="bg"/><feBlend in="SourceGraphic" in2="bg"/></filter><filter id="luminosity-noclip-2" x="429.75" y="-4795.33" width="23.78" height="32766" color-interpolation-filters="sRGB" filterUnits="userSpaceOnUse"><feFlood flood-color="#fff" result="bg"/><feBlend in="SourceGraphic" in2="bg"/></filter><mask id="mask-1" x="429.75" y="-4795.33" width="23.78" height="32766" maskUnits="userSpaceOnUse"/><linearGradient id="linear-gradient" x1="198.19" y1="573.32" x2="221.58" y2="573.32" gradientTransform="translate(219.62 -91.5) rotate(-1.26)" gradientUnits="userSpaceOnUse"><stop offset=".25" stop-color="#fff"/><stop offset=".32" stop-color="#f3f3f3"/><stop offset=".43" stop-color="#d6d6d6"/><stop offset=".58" stop-color="#a5a5a5"/><stop offset=".76" stop-color="#626262"/><stop offset=".97" stop-color="#0e0e0e"/><stop offset="1" stop-color="#000"/></linearGradient><mask id="mask" x="429.75" y="439.44" width="23.78" height="75.31" maskUnits="userSpaceOnUse"><g class="cls-23"><g class="cls-24"><path class="cls-9" d="m433.94,440.82c3.9-2.28,10.37-1.6,11.96,1,1.65,2.69-3.3,5.19-2.81,10.27.5,5.15,7.89,7.81,10.15,13.44,1.89,4.7-6.34,15.17-7.04,22.48-2.01,20.95,3.34,20.84,2.57,23.98-.43,1.76-3.03,2.57-4.93,2.75-4.02.38-11.24-10.98-10.51-22.32.22-3.48.93-2.73,3.39-15.1,1.58-7.97,1.73-10.46.6-13.28-1.81-4.52-4.63-4.26-6.45-8.72-1.79-4.39-1.9-11.59,3.06-14.5Z"/></g></g></mask><linearGradient id="linear-gradient-2" x1="198.19" y1="573.32" x2="221.58" y2="573.32" gradientTransform="translate(219.62 -91.5) rotate(-1.26)" gradientUnits="userSpaceOnUse"><stop offset=".25" stop-color="#a13941"/><stop offset="1" stop-color="#a13941"/></linearGradient><clipPath id="clippath-1"><path class="cls-13" d="m437.84,410.26c-4.34-2.99-3.95-11.82.74-16.51,2.72-2.72,6.03-3.09,6.87-5.88.81-2.67-1.37-4.74-3.31-7.88,0,0-3.28-5.28-4.12-14.5-.73-8.03,6.12-22.28,11.65-22.32,5.35-.04,12.18,13.19,20.03,63.49.36,2.28-2.08,4.22-4.85,3.87-1.51-.19-3.18-.35-4.99-.45-13.15-.71-18.21,2.81-22.03.19Z"/></clipPath><filter id="luminosity-noclip-3" x="428.21" y="338.01" width="24.71" height="78.65" color-interpolation-filters="sRGB" filterUnits="userSpaceOnUse"><feFlood flood-color="#fff" result="bg"/><feBlend in="SourceGraphic" in2="bg"/></filter><filter id="luminosity-noclip-4" x="428.21" y="-4795.33" width="24.71" height="32766" color-interpolation-filters="sRGB" filterUnits="userSpaceOnUse"><feFlood flood-color="#fff" result="bg"/><feBlend in="SourceGraphic" in2="bg"/></filter><mask id="mask-3" x="428.21" y="-4795.33" width="24.71" height="32766" maskUnits="userSpaceOnUse"/><linearGradient id="linear-gradient-3" x1="197.55" y1="473.56" x2="222.7" y2="473.56" xlink:href="#linear-gradient"/><mask id="mask-2" x="428.21" y="338.01" width="24.71" height="78.65" maskUnits="userSpaceOnUse"><g class="cls-26"><g class="cls-20"><path class="cls-15" d="m440.16,338.01c2.52-.09,12.21,5.35,4.72,15.36-8.74,11.67,9.38,30.31,7.96,35.74-1.22,4.63-6.8,4.19-9.55,9.64-3.81,7.55,3.94,14.21.41,16.93-2.74,2.11-10.82.74-14.08-3.21-3.63-4.39.69-9.54,2.93-20.88,1.44-7.31.15-7.76.74-19.38.63-12.33,3.2-34.06,6.88-34.19Z"/></g></g></mask><linearGradient id="linear-gradient-4" x1="197.55" y1="473.56" x2="222.7" y2="473.56" gradientTransform="translate(219.62 -91.5) rotate(-1.26)" xlink:href="#linear-gradient-2"/></defs><g id="_2560x900px-v1"><rect class="cls-8" width="2560" height="900"/><path class="cls-17" d="m896.13,330.27c-8.02,0-14.54-6.52-14.54-14.54s6.52-14.54,14.54-14.54,14.54,6.52,14.54,14.54-6.52,14.54-14.54,14.54Zm0-24.95c-5.74,0-10.41,4.67-10.41,10.41s4.67,10.41,10.41,10.41,10.41-4.67,10.41-10.41-4.67-10.41-10.41-10.41Z"/><rect class="cls-17" x="894.06" width="4.13" height="311.79"/><path class="cls-3" d="m980.1,571.17h-38.36v-255.43h38.36c14.32,0,25.93,11.61,25.93,25.93v203.58c0,14.32-11.61,25.93-25.93,25.93Z"/><path class="cls-17" d="m801.95,315.7h175.87c9.74,0,17.65,7.91,17.65,17.65v220.12c0,9.74-7.91,17.65-17.65,17.65h-175.87c-9.74,0-17.65-7.91-17.65-17.65v-220.12c0-9.74,7.91-17.65,17.65-17.65Z"/><ellipse class="cls-4" cx="888.8" cy="443.42" rx="90.25" ry="90.12"/><ellipse class="cls-17" cx="888.8" cy="443.42" rx="70.65" ry="70.55"/><path class="cls-4" d="m939.76,443.42c0,28.1-22.82,50.89-50.96,50.89s-50.97-22.78-50.97-50.89,22.82-50.89,50.97-50.89,50.96,22.78,50.96,50.89Z"/><path class="cls-17" d="m921.03,443.42c0,17.78-14.43,32.19-32.23,32.19s-32.23-14.41-32.23-32.19,14.43-32.18,32.23-32.18,32.23,14.41,32.23,32.18Z"/><path class="cls-4" d="m905.34,443.42c0,9.16-7.41,16.58-16.54,16.58s-16.54-7.42-16.54-16.58,7.41-16.58,16.54-16.58,16.54,7.42,16.54,16.58Z"/><polygon class="cls-11" points="885.55 439.88 799.97 433.48 786.55 423.49 789.7 433 784.35 442.35 799.73 435.71 885.38 442.11 885.55 439.88"/><g id="BM1"><path class="cls-10" d="m426.52,423.74c3.57-3.27,13.24-2.04,20.8-3.65,2.55-.55,6.3-2.4,8.02-3.31,1.45-.76,3.14-.82,4.62-.17,4.76,2.09,4.03,1.74,15.14,2.18,1.36.05-.8,8.15-9.25,6.99-2.94-.4-5.47-1.73-7.1-1.59-.21,1.06-1.25,5.26-3.77,7.08-1.2.86-2.81,1.48-6.4,1.4-1.46-.04-14.87-.49-16.21-6.66-.1-.47-7.1-1.13-5.85-2.27Z"/><polygon class="cls-1" points="247.72 436.21 247.75 441.54 347.87 449.7 436.61 441.27 444.32 412.17 367.78 417.76 282.77 409.58 247.72 436.21"/><polygon class="cls-4" points="449.68 415.29 443.79 414.2 437.3 438.72 443.2 438.34 449.68 415.29"/><path class="cls-2" d="m125.27,850.15c-2.43,1.02-14.02,17.16-14.02,17.16l-2.03,10.57,30.79,13.32,22.5,8.8,4.72-13.96-25.8-24.99-16.15-10.91Z"/><path class="cls-2" d="m281.7,854.52c1.66,2.03,0,0,0,0l14.24,20.22,26.9,10.19-4.83,15.06-59.76-.4-3.58-6.59s.32-14.14,1.46-14.59l5.57-26.83,19.99,2.92Z"/><path class="cls-7" d="m271.29,400.13l-37.01-8.45-16.03.42c-5.63,3.19-11.26,6.38-16.89,9.56-8.03,3.26-16.07,6.52-24.1,9.78l-2.42,39.87-1.27,15.52,4.08,58.76-3.76,39.78-13.48,53.45,15.2,17.81-12.46,104.6-48.65,114.33,40.3,13.5,54.71-113.82,22.89-111.57.81.22,23.1,94.54-.47,131.84,40.51,1.39,5.77-130.85-14.02-112.04,4.29-8.29-2.94-74.72.16-97.17.5-37.25-18.81-11.22Z"/><path class="cls-7" d="m271.29,400.13l-37.01-8.45c-5.19.44-10.39.88-15.58,1.32-5.33,3.06-10.67,6.11-16,9.17-10.53,3.32-22.2,7.65-34.57,13.35-14.57,6.71-27.13,13.95-37.65,20.81,11.55,13.48,23.11,26.97,34.66,40.45l8.27,48.66-3.76,39.78-9.23,53.6,15.2,17.81,20.43,10.51,13.17-37.19,58.29-1.02,5.41,20.97,15.2-1.13,4.29-8.29,1.9-74.59,1.13-68.43-5.31-66.12-18.81-11.22Z"/><polygon class="cls-12" points="217.68 401.33 251.1 458.89 267.73 413.78 263.92 402.28 262.05 400.67 264.62 369.77 229.15 366.08 226.12 389.83 217.68 401.33"/><path class="cls-4" d="m254,417.14c-28.77,2.25-31.61-21.4-31.61-21.4l2.51-4.24-18.38,11.18,7,55.6-4.32,151.69c25.04,2.28,50.28,1.48,64.05-1.12l4.48-79.69,1.12-67.7.56-34.55-8.25-22.92-8.68-8.55-.43,5.22s5.69,15.4-8.05,16.47Z"/><path class="cls-10" d="m257.53,312.25s-24.76,3.63-32.02,5.74c-22.09,6.42-22.7,18.1-15.3,42.58,4.54,15.02,23.82,18.48,23.82,18.48l4.99,8.19c5.14.85,21.97,7.85,21.97,7.85l17.38-3.66,3.55-20.61s-6.12-30.23-6.63-31.45c0,0-2.2-12.53-6.75-19.66-3.64-5.7-11.01-7.47-11.01-7.47Z"/><path class="cls-2" d="m263.02,300.33l-15.49,3.09s-19.16,3.68-23.96,5.08c-21.41,6.22-25.76,30.29-17.72,53.76l13.26,17.5,9.08,5.47,2.43-17.01c3.17-1.52,10.73-5.22,10.73-5.22l-5.44-25.27,7.63-13.21,20.76-1.44,5.37-1.34,3-5.61-1.73-8.19-2.77,1.42-5.16-9.03Z"/><path class="cls-10" d="m241.89,361.49c-.32,6.28-.79,9.65-6.14,8.48-2.87-.63-6.48-1.26-8.32-9.47-1.38-6.15,2.44-11.67,7.92-11.42,5.48.26,6.86,6.12,6.53,12.4Z"/><polygon class="cls-11" points="245.86 422.99 238.26 430.2 242.22 438.27 255.47 437.62 257.95 429.23 249.54 422.81 245.86 422.99"/><polygon class="cls-11" points="243.06 440.47 255.73 439.84 268.64 556.76 255.61 581.34 236.96 560.6 243.06 440.47"/></g><path class="cls-14" d="m460.8,454.18l-5.21-.79c1.65-7.76,2.44-15.67,2.35-23.53-.11-9.46-1.48-18.92-4.09-28.09l5.15-1.19c2.71,9.53,4.14,19.34,4.25,29.17.09,8.16-.73,16.38-2.44,24.43Z"/><path class="cls-19" d="m438.47,444.36c-4.31,3.36-3.8,12.82.95,17.7,2.75,2.83,6.06,3.12,6.94,6.08.84,2.84-1.31,5.14-3.22,8.56,0,0-3.21,5.78-3.94,15.7-.63,8.64,6.39,23.71,11.92,23.57,5.35-.13,12.02-14.56,19.25-68.81.33-2.46-2.13-4.46-4.9-3.99-1.51.26-3.18.49-4.98.65-13.14,1.2-18.24-2.41-22.02.53Z"/><g class="cls-22"><g class="cls-25"><path class="cls-6" d="m433.94,440.82c3.9-2.28,10.37-1.6,11.96,1,1.65,2.69-3.3,5.19-2.81,10.27.5,5.15,7.89,7.81,10.15,13.44,1.89,4.7-6.34,15.17-7.04,22.48-2.01,20.95,3.34,20.84,2.57,23.98-.43,1.76-3.03,2.57-4.93,2.75-4.02.38-11.24-10.98-10.51-22.32.22-3.48.93-2.73,3.39-15.1,1.58-7.97,1.73-10.46.6-13.28-1.81-4.52-4.63-4.26-6.45-8.72-1.79-4.39-1.9-11.59,3.06-14.5Z"/></g></g><path class="cls-19" d="m437.84,410.26c-4.34-2.99-3.95-11.82.74-16.51,2.72-2.72,6.03-3.09,6.87-5.88.81-2.67-1.37-4.74-3.31-7.88,0,0-3.28-5.28-4.12-14.5-.73-8.03,6.12-22.28,11.65-22.32,5.35-.04,12.18,13.19,20.03,63.49.36,2.28-2.08,4.22-4.85,3.87-1.51-.19-3.18-.35-4.99-.45-13.15-.71-18.21,2.81-22.03.19Z"/><g class="cls-21"><g class="cls-18"><path class="cls-16" d="m440.16,338.01c2.52-.09,12.21,5.35,4.72,15.36-8.74,11.67,9.38,30.31,7.96,35.74-1.22,4.63-6.8,4.19-9.55,9.64-3.81,7.55,3.94,14.21.41,16.93-2.74,2.11-10.82.74-14.08-3.21-3.63-4.39.69-9.54,2.93-20.88,1.44-7.31.15-7.76.74-19.38.63-12.33,3.2-34.06,6.88-34.19Z"/></g></g><path class="cls-13" d="m452.33,354.31c-5.61-18.22-15.14-32.19-28.32-41.52-4.9-3.47-9.73-5.92-14.39-8.29-8.09-4.11-15.73-7.98-22.32-16.41-6.12-7.83-9.55-17.36-10.2-28.32l3.31-.19c.62,10.43,3.86,19.46,9.63,26.84,6.17,7.9,13.5,11.62,21.26,15.56,4.77,2.42,9.71,4.93,14.81,8.54,13.73,9.72,23.63,24.19,29.42,43.01l-3.2.8Z"/><path class="cls-13" d="m373.16,588.84l-3.27-.43c2-10.87,6.6-20.11,13.65-27.47,7.6-7.93,15.68-11.25,24.24-14.76,4.94-2.03,10.04-4.12,15.35-7.23,14.28-8.36,25.49-21.6,33.32-39.34l3.09,1.02c-8.09,18.32-19.73,32.03-34.6,40.73-5.52,3.23-10.74,5.38-15.79,7.45-8.21,3.37-15.97,6.56-23.09,13.98-6.66,6.95-11,15.71-12.9,26.04Z"/><polygon class="cls-11" points="248.42 416.36 248.36 414.35 495.35 405.96 495.4 407.97 248.42 416.36"/><path class="cls-11" d="m493.6,400.64c3.81,2.14,7.61,4.29,11.42,6.43-3.65,2.22-7.31,4.43-10.96,6.65-.15-4.36-.3-8.72-.45-13.07Z"/><polygon class="cls-13" points="252.2 411.6 250.93 410.67 382.53 273.47 383.79 274.4 252.2 411.6"/><polygon class="cls-13" points="376.1 573.47 247.73 416.4 249.08 415.54 377.46 572.61 376.1 573.47"/><path class="cls-10" d="m447.33,423.78c-1.17,4.28-2.33,8.56-3.5,12.83,5.85,3.25,14.65,6.73,23.96,4.89,1.1-.22,8.48-1.75,8.87-4.93.22-1.81-2.01-2.74-2.11-5.55-.11-3.01,2.4-4.02,2.18-5.75-.49-3.9-12.06-7.65-22.26-4.77-3.11.88-5.51,2.21-7.13,3.27Z"/><path class="cls-10" d="m252.05,409.2c-1.02-1.61-2.55-2.79-4.31-3.64,1.85-.62,3.35-1.64,4.53-2.69,1.43-1.28,1.49-5.34-.15-6.31-.01,0-7.56,2.11-8.28,2.32-6.48,1.86-3.61-.23-15.84,2.66-12.79,3.03-19.47,5.73-22.39,12.48-.29.66-.79,1.82-1,3.08-1.22.9-2.11,1.76-1.54,3.83,2.83,10.3,27.49,11.37,43.09,7.91,1.39-.31,5.91-3.87,5.53-7.15-.25-2.15-2.58-3.54-2-4.9.52-1.22,2.65-.65,3.55-1.98,1.21-1.78-.95-5.28-1.17-5.63Z"/><path class="cls-7" d="m175.03,489c-14.33-5.9-26.03-11.56-34.67-16-10.24-5.27-19.61-10.08-29.33-19-7.31-6.71-10.39-11.56-11.5-17.17-.34-1.72-1.88-9.49,2.64-16.08.85-1.24,2.74-3.64,8.36-6.67,4.28-2.31,11.84-5.58,22.67-6.33,26.72-2.47,53.44-4.94,80.17-7.42.81,11.63,1.63,23.26,2.44,34.89-21.19,1.33-42.37,2.67-63.56,4l18,1.56c1.59,16.07,3.19,32.15,4.78,48.22Z"/><polygon class="cls-5" points="215.7 431.51 223.32 431.94 220.98 401.75 213.44 402.28 215.7 431.51"/><path class="cls-1" d="m168.5,486.32c-5.3-2.49-15.26-7.17-28.14-13.32-16.92-8.07-24.78-11.73-32.08-20.34-3.44-4.06-5.67-7.91-7.03-10.58,11.6,3.97,23.2,7.94,34.81,11.92,24.93-6.22,49.85-12.44,74.78-18.67-9.61,5.8-19.61,11.59-30,17.33-5.84,3.22-11.61,6.33-17.33,9.33,1.67,8.11,3.33,16.22,5,24.33Z"/></g></svg>