<?xml version="1.0" encoding="UTF-8"?><svg id="Layer_2" xmlns="http://www.w3.org/2000/svg" viewBox="0 0 2560 900"><defs><style>.cls-1{fill:#002356;}.cls-1,.cls-2,.cls-3,.cls-4,.cls-5,.cls-6,.cls-7,.cls-8,.cls-9,.cls-10,.cls-11,.cls-12,.cls-13,.cls-14,.cls-15,.cls-16,.cls-17,.cls-18{stroke-width:0px;}.cls-2{fill:#f7a4a6;opacity:.88;}.cls-3{fill:#722217;}.cls-4{fill:#174b72;}.cls-5{fill:#211010;}.cls-6{fill:#fff;}.cls-7{fill:#8c2a20;}.cls-8{fill:#002b69;}.cls-9{opacity:.19;}.cls-9,.cls-17{fill:#d7af80;}.cls-10{fill:#093872;}.cls-11{fill:#9b3a2f;}.cls-12{fill:#ffad86;}.cls-13{fill:#b74d44;}.cls-14{fill:#a13941;}.cls-15{fill:#ed8a72;}.cls-16{fill:#2f729b;}.cls-18{fill:#471910;}</style></defs><g id="_2560x900px-v1"><rect class="cls-9" width="2560" height="900"/><rect class="cls-14" y="825" width="2560" height="75"/><path class="cls-17" d="m575.73,216.34h0c12.35,0,22.37,9.97,22.46,22.31l.49,73.7c-8.96,25.9-7.71,52.24.52,78.89l1.58,237.81c.02,2.6.53,5.23,1.43,7.67,25.97,69.84,21.33,105.84,14.34,122.91-3.4,8.3-11.66,13.53-20.63,13.53h-31.75c-9.86,0-18.76-6.35-21.47-15.82-5.31-18.56-8.32-55.15,13.18-118.54.81-2.37,1.24-4.92,1.21-7.43l-2.34-239.18c7.5-26.07,7.45-51.83-.76-77.24l-.74-75.92c-.12-12.49,9.97-22.69,22.47-22.68Z"/><polygon class="cls-17" points="214.35 547.67 310.25 194.86 305.02 194.86 210.22 547.67 214.35 547.67"/><polygon class="cls-17" points="415.57 547.67 313.42 194.86 318.22 194.86 420.22 547.67 415.57 547.67"/><polygon class="cls-17" points="224.62 575.28 399.82 575.28 420.22 547.67 210.22 547.67 224.62 575.28"/><rect class="cls-17" x="310.25" y="194.86" width="3.17" height="364.81"/><polygon class="cls-17" points="752.1 665.16 848 312.35 842.76 312.35 747.96 665.16 752.1 665.16"/><polygon class="cls-17" points="953.32 665.16 851.16 312.35 855.96 312.35 957.97 665.16 953.32 665.16"/><polygon class="cls-17" points="762.36 692.76 937.57 692.76 957.97 665.16 747.96 665.16 762.36 692.76"/><rect class="cls-17" x="848" y="312.35" width="3.17" height="364.81"/><rect class="cls-17" x="503.56" y="758.26" width="150" height="17" rx="8.5" ry="8.5"/><rect class="cls-17" x="461.68" y="771.01" width="235.89" height="43.92" rx="21.96" ry="21.96"/><rect class="cls-17" x="521.79" y="426.79" width="110.94" height="35.9" rx="17.95" ry="17.95"/><path class="cls-17" d="m569.59,410.66h15.33c18.81,0,34.07,15.27,34.07,34.07h0c0,18.81-15.27,34.07-34.07,34.07h-15.33c-18.81,0-34.07-15.27-34.07-34.07h0c0-18.81,15.27-34.07,34.07-34.07Z"/><rect class="cls-17" x="544.48" y="391.93" width="65.56" height="18.73" rx="9.36" ry="9.36"/><rect class="cls-17" x="549.73" y="296.74" width="55.06" height="18.73" rx="9.36" ry="9.36"/><path class="cls-17" d="m600.67,497.54h-46.83c-5.17,0-9.36-4.19-9.36-9.36h0c0-5.17,4.19-9.36,9.36-9.36h46.83c5.17,0,9.36,4.19,9.36,9.36h0c0,5.17-4.19,9.36-9.36,9.36Z"/><rect class="cls-17" x="451.41" y="812.27" width="256.43" height="12.75" rx=".84" ry=".84"/><path class="cls-17" d="m865.19,291.35c-15.41-11.55-28.89-5.5-28.89-5.5-149.35,72.13-168.25-32.05-168.25-32.05l-84.98-16.19-84.98-16.19s-55.88,89.94-168.25-32.05c0,0-10.31-10.58-28.89-5.5-18.58,5.07-29.01,39.58,5.3,55.41,26.01,12,30.87-13.49,30.87-13.49,0,0,77.41,92.24,174.29,36.72l64.58,12.3,64.58,12.3c69.68,87.24,175.58,29.92,175.58,29.92,0,0-4.86,25.49,23.75,23.9,37.73-2.11,40.71-38.04,25.3-49.58Z"/><circle class="cls-17" cx="577.26" cy="204.57" r="15.08"/><g id="BM1"><path class="cls-5" d="m258.67,531.5c-.87.36-5.02,6.14-5.02,6.14l-.73,3.78,11.02,4.77,8.05,3.15,1.69-5-9.24-8.95-5.78-3.91Z"/><path class="cls-5" d="m314.46,531.43c.59.73,0,0,0,0l5.01,7.3,9.59,3.76-1.79,5.37-21.39-.39-1.25-2.37s.17-5.06.59-5.22l2.11-9.58,7.15,1.13Z"/><polygon class="cls-8" points="310.95 370.37 297.7 367.34 291.96 367.5 284.33 369.45 277.29 374.42 276.42 388.7 275.96 394.25 277.43 415.29 276.08 429.54 271.25 448.67 276.69 455.05 272.23 492.5 254.81 533.44 269.24 538.27 288.83 497.52 297.03 457.57 297.32 457.65 305.59 491.5 305.42 535.64 319.92 536.14 321.99 492.35 316.97 452.24 318.51 449.27 317.46 422.52 317.51 387.73 317.69 374.39 310.95 370.37"/><polygon class="cls-12" points="362.96 393.49 359.7 387.88 366.11 386.93 373.91 388.78 376.25 394.63 374.75 395.61 366.49 393.41 362.96 393.49"/><polygon class="cls-1" points="299.78 370.34 300.26 368.49 335.71 374.6 365.73 385.43 365.81 396.22 339.77 387.45 309.56 382.7 299.78 370.34"/><polygon class="cls-6" points="367.86 386.6 365.76 386.55 365.79 394.33 367.76 393.94 367.86 386.6"/><polygon class="cls-8" points="310.95 370.37 297.7 367.34 291.96 367.5 284.33 369.45 274.17 373.67 274.19 386.34 272.94 397.82 275.9 415.24 274.56 429.48 271.25 448.67 276.69 455.05 284.01 458.81 288.73 445.5 309.6 445.13 311.53 452.64 316.97 452.24 318.51 449.27 319.19 422.56 319.59 398.06 317.69 374.39 310.95 370.37"/><polygon class="cls-15" points="291.76 370.8 303.73 391.41 309.68 375.26 308.32 371.14 307.65 370.56 308.57 359.5 295.87 358.18 294.78 366.68 291.76 370.8"/><path class="cls-6" d="m304.76,376.46c-10.3.8-11.32-7.66-11.32-7.66l.9-1.52-6.58,4,2.51,19.91-1.55,54.31c8.97.82,18,.53,22.93-.4l1.61-28.53.4-24.24.2-12.37-2.95-8.21-3.11-3.06-.16,1.87s2.04,5.51-2.88,5.9Z"/><path class="cls-12" d="m306.03,338.91s-8.87,1.3-11.47,2.06c-7.91,2.3-8.13,6.48-5.48,15.25,1.62,5.38,8.53,6.62,8.53,6.62l1.79,2.93c1.84.3,7.87,2.81,7.87,2.81l6.22-1.31,1.27-7.38s-2.19-10.82-2.37-11.26c0,0-.79-4.49-2.42-7.04-1.3-2.04-3.94-2.67-3.94-2.67Z"/><path class="cls-5" d="m307.99,334.64l-5.55,1.11s-6.86,1.32-8.58,1.82c-7.67,2.23-9.22,10.84-6.34,19.25l4.75,6.27,3.25,1.96.87-6.09c1.14-.54,3.84-1.87,3.84-1.87l-1.95-9.05,2.73-4.73,7.43-.51,1.92-.48,1.07-2.01-.62-2.93-.99.51-1.85-3.23Z"/><path class="cls-12" d="m300.43,356.53c-.12,2.25-.28,3.45-2.2,3.04-1.03-.22-2.32-.45-2.98-3.39-.49-2.2.87-4.18,2.84-4.09,1.96.09,2.45,2.19,2.34,4.44Z"/><polygon class="cls-14" points="303.25 377.4 300.05 380.05 301.41 383.35 306.67 383.44 307.86 380.18 304.7 377.42 303.25 377.4"/><polygon class="cls-14" points="301.68 384.24 306.71 384.32 308.76 430.92 302.96 440.31 296.13 431.62 301.68 384.24"/></g><path class="cls-7" d="m244.61,484.41s36.77,10.65,37.55,10.59c.78-.06,9.4-6.06,9.4-6.06l.72-30.68s-38.2-7.25-38.86-6.79c-.66.46-9.81,4.74-9.84,4.95-.11.91,1.02,27.99,1.02,27.99Z"/><path class="cls-3" d="m291.59,488.96l.72-30.68s-.54-.1-1.48-.28c-2.44,1.72-6.64,4.76-6.55,4.87.12.15-1.68,27.85-1.96,32.1,1.35-.52,9.26-6.02,9.26-6.02Z"/><path class="cls-18" d="m258.79,478.29l25.84-13.96,7.78-6.35c-1.32-.25-38-6.35-38.64-5.9-.6.42-8.37,3.3-9.75,4.49l14.76,21.72Z"/><polygon class="cls-18" points="256.61 472.72 255.8 473.73 256.41 478.82 263.99 480.42 265.08 479.34 265.71 474.07 256.61 472.72"/><path class="cls-11" d="m258.57,477.39l26.83-13.72,6.98-5.7c-1.32-.25-38.17-7.23-38.82-6.78-.6.42-7.87,3.87-9.25,5.05l14.26,21.15Z"/><path class="cls-13" d="m243.59,456.55c2.83.56,40.91,7.83,40.91,7.83l7.02-5.65.89-.76s-38.2-7.25-38.86-6.79c-.2.14-1.23.57-2.55,1.11l-7.41,4.12s0,.08,0,.12Z"/><polygon class="cls-6" points="255.61 473 254.8 474.01 255.41 479.1 263.01 480.71 264.1 479.62 264.73 474.34 255.61 473"/><path class="cls-2" d="m262.67,475.58s-5.34-1.13-7.45-1.41l.19,4.94,7.59,1.6.03-.03-.36-5.1Z"/><path class="cls-4" d="m262.47,452.81l-.68-.3s-.51.19-.8.56-.3,4.02-.3,4.02l1.78-1.32.34-3.19-.34.23Z"/><path class="cls-16" d="m261.79,449.51c-1.88.18-2.34,3.01-2.34,3.01l-.23,4,1.49.57s0-3.64.3-4.02.8-.56.8-.56l.68.3.34-.23,5.95-2.48s-6.14-.67-6.97-.59Z"/><path class="cls-4" d="m265.72,451.37l.22-.09-1.81-1.63c-1.1-.09-2.05-.16-2.34-.13-.59.06-1.05.38-1.39.8,1.01.15,4.18.82,5.32,1.06Z"/><path class="cls-4" d="m270.61,451.92l-.31,2.45s1.72.29,2.26.42c.53.13.64,2.86.48,3.9-.17,1.04,2.28.73,2.28.73l1.38-2.07s.38-4.6-.08-5.37c-.46-.77-4.16-1.3-4.16-1.3l-1.25.66-.6.58Z"/><path class="cls-16" d="m274.56,452.96c-.37-.72-2.53-.91-3.96-.92l-.29,2.34s1.72.29,2.26.42c.53.13.64,2.86.48,3.9-.16.96,1.9.77,2.24.73-.05-1.21-.25-5.56-.72-6.47Z"/><polygon class="cls-12" points="266.04 444.22 268.27 444.93 272.68 449.25 273.16 455.7 263.39 456.42 261.06 448.75 261.42 445.02 266.04 444.22"/><polygon class="cls-6" points="260.13 443.54 260.08 446.06 270 444.88 269.72 442.41 260.13 443.54"/><polygon class="cls-10" points="274.17 373.67 259.71 408.01 259.27 444.38 270.02 442.9 271.64 412.61 282.36 390.88 282.34 381.38 279.93 376.33 274.17 373.67"/></g></svg>