<?xml version="1.0" encoding="UTF-8"?><svg id="Layer_2" xmlns="http://www.w3.org/2000/svg" viewBox="0 0 2560 900"><defs><style>.cls-1{fill:#002356;}.cls-1,.cls-2,.cls-3,.cls-4,.cls-5,.cls-6,.cls-7,.cls-8,.cls-9,.cls-10,.cls-11,.cls-12,.cls-13{stroke-width:0px;}.cls-2{fill:#282644;}.cls-3{fill:#ce6b28;}.cls-4{fill:#211010;}.cls-5{fill:#fff;}.cls-6{fill:#002b69;}.cls-7{fill:#d7af80;opacity:.19;}.cls-8{fill:#093872;}.cls-9{fill:#a13941;}.cls-10{fill:#e5a87a;}.cls-11{fill:#e8e8e8;}.cls-12{fill:#3c3b50;}.cls-13{fill:#f4bc8e;}</style></defs><g id="_2560x900px-v1"><rect class="cls-7" width="2560" height="900"/><path class="cls-9" d="m0,712.15c42.36,2.79,83.31,5.58,125.67,8.37l130.5,37.17,126,14.87c14.36,43.42,26.88,84.01,41.24,127.43,0-.01-423.41,0-423.41.01,0-63.94,0-127.96,0-187.85Z"/><path class="cls-9" d="m468.49,899.79c20.86-33.39,41.99-61.95,62.85-95.34,35.97-19.05,71.94-38.1,107.91-57.16,177.95-3.86,355.91-7.72,533.86-11.58,182.63,27.17,365.26,54.34,547.88,81.51,45.14,27.45,89.83,55.34,134.98,82.78-462.14,0-925.25-.21-1387.48-.21Z"/><path class="cls-5" d="m128.9,717.36c.02.38-.29.68-.66.68l-56.96-1.11c-.37,0-.66-.33-.63-.7l.09-1.03.02-.26c.12-1.42,3.22-3.04,4.98-3.85l.14-6.96c.04-1.93.57-3.82,1.54-5.49,4.02-6.88,14.84-26.71,15.38-41.6-11.81-.81-17.57-2.48-17.53-4.61.04-1.99,4.76-3.85,15.38-4.33-6.05-4.07-10.02-11.45-9.86-19.81.24-12.55,9.67-20.37,21.11-20.15,11.44.22,20.56,8.4,20.31,20.95-.16,8.36-4.42,15.58-10.62,19.42,10.59.89,14.82,2.92,14.78,4.92-.04,2.14-5.45,3.59-17.28,3.94-.03,12.93,7.53,29.9,11.97,38.75.67,1.34,1.28,2.5,1.77,3.42.91,1.71,1.37,3.61,1.33,5.55l-.14,6.96c1.73.88,4.76,2.63,4.82,4.05l.06,1.29Z"/><path class="cls-11" d="m109.08,657.35s-4.89.18-8.15.39c-3.26.21,9.19,8.98,9.19,8.98,0,0-.74-6.09-1.04-9.36Z"/><path class="cls-11" d="m128.24,718.04l-56.96-1.11c-.37,0-.66-.33-.63-.7l.09-1.03.02-.26c.12-1.41,3.22-3.04,4.98-3.86v-.09c16.47-2.76,37.86-11.65,45.31-14.89.67,1.34,1.28,2.49,1.77,3.42.91,1.71,1.37,3.61,1.33,5.55l-.14,6.96s0,0,.03.01c1.73.88,4.73,2.62,4.8,4.03l.06,1.29c.02.38-.28.69-.66.68Z"/><path class="cls-11" d="m100.5,610.66c-.14-.57-.72-.87-1.27-.75-4.44.94-8.56,2.88-11.74,6.18-.87.9-1.67,1.88-2.41,2.89-.34.45-.1,1.16.35,1.44.52.32,1.1.11,1.44-.35,1.12-1.52,2.45-2.99,4-4.23,1.39-1.12,3.29-2.17,5.02-2.81,1.26-.47,2.55-.82,3.86-1.1.55-.12.89-.74.76-1.27Z"/><path class="cls-11" d="m85.3,621.72c-.07-.12-.17-.21-.29-.27-.24-.13-.53-.2-.8-.12-.26.08-.49.23-.63.47-.29.49-.51,1.04-.64,1.6-.05.14-.06.28-.03.42,0,.14.04.27.12.39.06.12.15.22.26.3.1.09.22.16.35.19.27.07.57.06.81-.09.22-.14.43-.35.49-.62.06-.26.14-.51.24-.76.06-.12.11-.23.18-.34.14-.24.19-.53.12-.8-.03-.14-.09-.26-.18-.36Z"/><path class="cls-5" d="m128.24,718.04l-56.96-1.11c-.37,0-.66-.33-.63-.7l.09-1.03.02-.26c.12-1.41,3.22-3.04,4.98-3.86,10.32,1.98,48.27.94,48.27.94,0,0,0,0,.03.01,1.73.88,4.73,2.62,4.8,4.03l.06,1.29c.02.38-.28.69-.66.68Z"/><path class="cls-5" d="m245.78,747.95c-.06.45-.48.75-.92.67l-67.39-13.13c-.44-.09-.72-.53-.6-.96l.32-1.2.08-.31c.44-1.66,4.45-2.94,6.71-3.54l1.6-8.23c.45-2.29,1.47-4.42,2.97-6.2,6.2-7.34,23.15-28.64,26.88-46.2-13.85-3.41-20.35-6.59-19.86-9.11.46-2.36,6.45-3.58,19.15-1.95-6.34-6.09-9.52-15.67-7.6-25.57,2.89-14.85,15.71-22.18,29.24-19.54,13.53,2.64,22.66,14.24,19.77,29.09-1.93,9.9-8.48,17.59-16.64,20.85,12.39,3.26,16.99,6.54,16.53,8.9-.49,2.53-7.22,3.13-21.34,1.09-2.72,15.35,2.74,37.06,6.18,48.48.52,1.73,1,3.23,1.39,4.43.72,2.22.87,4.57.43,6.86l-1.6,8.23c1.87,1.4,5.1,4.1,4.89,5.8l-.19,1.55Z"/><path class="cls-11" d="m234.69,672.59s-5.84-.8-9.76-1.23c-3.92-.43,9.05,12.57,9.05,12.57,0,0,.39-7.38.71-11.33Z"/><path class="cls-11" d="m245.97,746.4l-.19,1.55c-.06.45-.48.75-.92.67l-67.4-13.13c-.44-.08-.72-.52-.6-.96l.32-1.2.08-.31c.44-1.66,4.45-2.94,6.71-3.55l.02-.11c20.13.14,47.37-5.98,56.88-8.28.52,1.73.99,3.23,1.39,4.43.73,2.22.87,4.57.42,6.86l-1.6,8.23c1.87,1.41,5.11,4.11,4.89,5.8Z"/><path class="cls-11" d="m234.19,615.38c-.05-.7-.67-1.18-1.35-1.16-5.47.2-10.75,1.65-15.21,4.9-1.22.89-2.37,1.89-3.47,2.93-.49.47-.36,1.36.11,1.78.55.48,1.28.36,1.78-.11,1.65-1.57,3.53-3.05,5.62-4.19,1.89-1.04,4.35-1.89,6.54-2.29,1.59-.29,3.2-.44,4.81-.5.68-.02,1.21-.69,1.16-1.35Z"/><path class="cls-11" d="m213.85,625.35c-.06-.15-.16-.28-.28-.39-.26-.21-.59-.35-.93-.31-.32.04-.64.17-.85.42-.44.53-.83,1.13-1.09,1.76-.08.15-.12.32-.12.49-.02.17,0,.33.06.49.05.16.13.3.25.41.1.13.22.23.38.3.3.13.66.19.98.06.29-.12.59-.33.71-.63.12-.3.27-.58.44-.85.09-.13.18-.25.28-.37.21-.25.34-.6.31-.93,0-.17-.05-.32-.14-.46Z"/><path class="cls-5" d="m245.97,746.4l-.19,1.55c-.06.45-.48.75-.92.67l-67.4-13.13c-.44-.08-.72-.52-.6-.96l.32-1.2.08-.31c.44-1.66,4.45-2.94,6.71-3.55,0,0,48.53,10.59,57.11,11.13,1.87,1.41,5.11,4.11,4.89,5.8Z"/><path class="cls-5" d="m384.19,771.03c-.02.55-.5.96-1.04.9l-82.76-8.65c-.54-.06-.92-.56-.83-1.1l.26-1.48.07-.38c.35-2.05,5.06-4.03,7.72-5l1.06-10.11c.29-2.81,1.3-5.49,2.92-7.8,6.7-9.52,24.89-37.05,27.51-58.65-17.09-2.63-25.27-5.78-24.95-8.88.3-2.9,7.4-5.01,22.91-4.4-8.3-6.67-13.17-17.9-11.9-30.05,1.91-18.24,16.59-28.45,33.21-26.71,16.62,1.74,28.88,14.76,26.97,33-1.27,12.15-8.36,22.14-17.86,26.95,15.3,2.61,21.21,6.08,20.9,8.98-.32,3.1-8.38,4.55-25.64,3.59-1.64,18.82,7.27,44.44,12.64,57.87.82,2.03,1.55,3.79,2.15,5.2,1.11,2.6,1.54,5.43,1.25,8.23l-1.06,10.11c2.4,1.49,6.6,4.41,6.52,6.48l-.07,1.89Z"/><path class="cls-11" d="m362.75,681.25s-7.14-.35-11.91-.44c-4.78-.1,12.27,14.2,12.27,14.2,0,0-.32-8.95-.36-13.76Z"/><path class="cls-11" d="m384.25,769.14l-.07,1.89c-.02.55-.5.96-1.04.9l-82.77-8.65c-.54-.05-.92-.56-.83-1.1l.26-1.48.07-.38c.35-2.05,5.06-4.03,7.72-5v-.13c24.32-1.98,56.55-12.28,67.79-16.08.82,2.04,1.55,3.79,2.15,5.2,1.11,2.6,1.54,5.43,1.25,8.23l-1.05,10.11c2.4,1.5,6.6,4.41,6.52,6.48Z"/><path class="cls-11" d="m356.02,612.23c-.14-.84-.94-1.36-1.76-1.26-6.58.83-12.81,3.14-17.84,7.55-1.38,1.21-2.66,2.53-3.87,3.91-.54.62-.3,1.68.33,2.13.71.52,1.59.29,2.13-.33,1.82-2.07,3.94-4.06,6.34-5.66,2.17-1.45,5.05-2.75,7.65-3.47,1.89-.52,3.82-.88,5.76-1.12.82-.1,1.39-.97,1.26-1.76Z"/><path class="cls-11" d="m332.54,626.45c-.09-.18-.22-.32-.39-.44-.33-.22-.75-.36-1.15-.28-.39.08-.75.27-.98.6-.48.68-.88,1.45-1.12,2.25-.08.2-.11.4-.09.6-.01.2.03.4.12.58.08.19.19.34.35.47.13.15.3.26.49.33.38.13.82.16,1.19-.03.34-.17.68-.46.79-.83.12-.37.27-.73.44-1.08.1-.16.19-.32.3-.48.23-.33.34-.76.28-1.15-.03-.2-.1-.38-.22-.54Z"/><path class="cls-5" d="m384.25,769.14l-.07,1.89c-.02.55-.5.96-1.04.9l-82.77-8.65c-.54-.05-.92-.56-.83-1.1l.26-1.48.07-.38c.35-2.05,5.06-4.03,7.72-5,0,0,59.72,7.59,70.14,7.33,2.4,1.5,6.6,4.41,6.52,6.48Z"/><path class="cls-13" d="m855.11,395.98c-.35.93-1.02,3.17-1.02,3.17l4.46-1.09,7.47-6.01s.12-6.26,1.23-8.1c1.11-1.84,2.88-1.83,2.88-1.83,0,0-.85,8.73-.52,14.56.06.99-.88,2-1.79,3.54.27.96.5,2.43-.89,3.59-.03,1.95-1.33,2.65-3.36,4.25-1.42,1.12-6.78,5.46-8.75,7.21-2.05,1.82-4.53,4.55-8.23,7.91l-5.92-7c3.2-2.32,7.29-6.45,7.64-6.79.72-.7-.35-4.3.68-6.9,1.03-2.6,5.12-12.07,5.1-13.23.82-.22,2.17-.15,2.36,2.15.09,1.08-.76,3.04-1.34,4.57Z"/><g id="BM1"><path class="cls-4" d="m857.07,732.29c1.3.88,0,0,0,0l11.68,9.13,17.19,1.18-.15,9.48-34.34,10.14-3.2-3.16s-2.27-8.16-1.69-8.62l-1.46-16.35,11.97-1.79Z"/><path class="cls-4" d="m637.78,732.88c-1.54.35-10.04,8.69-10.04,8.69l-2.28,6.03,16.81,11.02,12.38,7.51,4.22-7.75-12.67-17.4-8.42-8.1Z"/><path class="cls-6" d="m765.07,467.49l-22.18-5.06-9.6.25-12.78,3.27-11.78,8.32-1.45,23.89-.76,9.3c-1.63,22.16-3.97,36.35-5.92,45.48-3.07,14.3-4.6,21.46-4.67,21.67-2.78,8.76-5.15,12.57-3.33,15.67,1.47,2.5,5.86,4.88,19.67,2.78-7.22,27.41-14.44,54.81-21.67,82.22-19.11,19.33-38.22,38.67-57.33,58,6.22,6.67,12.44,13.33,18.67,20,20.3-21.5,40.61-43.01,60.91-64.51,10.48-20.79,20.96-41.58,31.44-62.36,20,11.51,40,23.02,60,34.53,12.77,27.78,25.54,55.56,38.31,83.34,10.11-1.67,20.22-3.33,30.33-5-15.67-31.11-31.33-62.22-47-93.33-18.44-17-36.89-34-55.33-51,2.57-.72,4.54-1.8,6-2.83,10.44-7.4,9.48-22.94,9.33-24.83-2.33-22-4.67-44-7-66-.86-9.02-1.72-18.03-2.58-27.05l-11.27-6.72Z"/><path class="cls-1" d="m746.37,467.44c9.53,2.13,19.06,4.26,28.59,6.39,10.6-7.54,21.2-15.08,31.81-22.62,11.6-14.74,23.19-29.49,34.79-44.23,3.98,4.97,7.95,9.94,11.93,14.91-11.6,15.9-23.19,31.81-34.79,47.71-14.74,12.76-29.49,25.51-44.23,38.27-9.36-13.47-18.73-26.95-28.09-40.42Z"/><polygon class="cls-5" points="846.06 406.14 842.73 408.58 852.14 420.64 854.74 417.66 846.06 406.14"/><path class="cls-6" d="m765.07,467.49l-22.18-5.06-9.6.25-12.78,3.27-17,7.06.05,21.2-2.09,19.21,4.95,29.16-2.25,23.84c.62,6.51,1.25,13.01,1.88,19.52,3.7,1.63,7.41,3.26,11.11,4.89,2.81,3.11,5.63,6.22,8.44,9.33.76-2.31,1.52-4.63,2.28-6.94l34.93-.61c.54,1.61,1.09,3.22,1.63,4.83.83-.5,1.67-1,2.5-1.5.67-1.39,1.33-2.78,2-4.17,3.31-12.31,6.61-24.62,9.92-36.94l.68-41-3.18-39.62-11.27-6.72Z"/><polygon class="cls-10" points="732.95 468.21 752.97 502.7 762.93 475.67 760.65 468.78 759.53 467.81 761.07 449.3 739.82 447.09 738 461.32 732.95 468.21"/><path class="cls-5" d="m754.7,477.68c-17.24,1.35-18.94-12.82-18.94-12.82l1.51-2.54-11.01,6.7,4.19,33.31-2.59,90.89c15,1.37,30.13.88,38.37-.67l2.69-47.75.67-40.56.34-20.7-4.94-13.73-5.2-5.12-.26,3.13s3.41,9.23-4.82,9.87Z"/><path class="cls-13" d="m743.7,414.92s-13.35,6.82-17.07,9.41c-11.3,7.89-9.4,14.63-.49,27.11,5.46,7.65,17.07,5.91,17.07,5.91l4.41,3.69c3.08-.51,13.98.23,13.98.23l9.16-5.42-1.95-12.38s-9.28-15.98-9.81-16.57c0,0-3.66-6.69-7.61-9.86-3.16-2.53-7.68-2.12-7.68-2.12Z"/><path class="cls-3" d="m744.52,407.1l-8.2,4.73s-10.16,5.77-12.62,7.49c-10.95,7.65-8.79,22.14.28,33.91l10.89,7.38,6.2,1.36-1.89-10.12c1.51-1.47,5.09-5.03,5.09-5.03l-7.95-13.3,1.79-8.97,11.5-4.81,2.79-1.79.62-3.76-2.56-4.32-1.3,1.34-4.67-4.13Z"/><path class="cls-13" d="m744.29,445.86c1.02,3.62,1.41,5.63-1.85,5.99-1.75.2-3.92.53-6.54-3.77-1.97-3.23-.86-7.09,2.3-8,3.16-.91,5.07,2.16,6.09,5.78Z"/></g><path class="cls-13" d="m704.18,399.5s.67-7.3,1.32-8.3c.89-1.37,2-2.37,2.93-3.73.48-.69.69-1.54.99-2.32.31-.8.62-1.6.93-2.39.1-.27.21-.53.31-.79,0,0,1.96-3.47,3.1-4.74s2.78-3.25,1.2-3.97c-1.58-.72-3.81,1.35-5,3-1.2,1.66-2.95,2.75-2.94,1.75.03-2.68.72-5.54,1.27-8.15.86-4.03,1.86-8.33-.61-6.9-.47.27-.71.8-.89,1.31-1.32,3.54-1.8,7.44-3.33,10.9-.25.57-.84.75-.87-.12-.03-.87.13-7.32.2-9.4.04-1.23.1-2.47,0-3.69-.05-.54-.09-1.16-.43-1.62-.35-.47-1.15-.73-1.65-.37-.24.17-.38.47-.48.73-.39,1.02-.48,2.15-.56,3.23-.11,1.49-.13,2.98-.18,4.47-.12,3.18-.22,5.88-.52,6.4-.3.52-.55.66-.76-.84-.21-1.5-.49-8.74-.61-9.71-.12-.97-.56-1.59-1.17-1.51-.66.09-1.7-.06-1.32,9.49.06,1.74.27,3.38.11,3.81-.15.43-.78.51-1.15-.66-.36-1.17-1.06-4.56-1.79-4.72-.72-.16-1.64-.24-.9,3.79.74,4.02,1.21,8.35,1.71,9.95.5,1.6,2.06,3.34,2.42,4.7.36,1.36-.57,10.02-.57,10.02l9.28.35Z"/><polygon class="cls-5" points="692.07 394.44 692.39 390.24 708.73 393.74 707.89 397.83 692.07 394.44"/><polygon class="cls-8" points="704.6 513.05 685.86 453.58 690.78 392.92 708.45 397.04 706.45 447.77 720.93 485.65 719.42 501.47 714.62 509.5 704.6 513.05"/><path class="cls-12" d="m945.33,372.41l-43.3,107.81c-1.05,2.6-3.89,4-6.59,3.24-1.69-.47-3.7-1.06-5.81-1.71-2.08-.64-4.25-1.36-6.31-2.11-5.34-1.92-9.49-4.24-10.33-5.84-2.68-5.1-17.5-41.91-22.8-42.21-5.29-.3-18.89-1.11-17.87-12.31,1.01-11.19-79.3-38.42-79.3-38.42,0,0-17.63,26.56-22.47,14.56-3.64-9-2.02-18.07-.99-22.04,0,0,0-.01,0-.01.27-1.07.51-1.76.59-1.99,0-.02.02-.06.03-.08,0,0-64.36-5.35-66.82-7.89-1.93-1.99,1.67-18.71,4.87-30.49l-15.61-6.27-6.91,17.21c-.49,1.23-1.89,1.83-3.12,1.33l-12.21-4.9c-1.23-.49-1.82-1.89-1.33-3.12l6.92-17.22-17.22-6.92c-1.23-.49-1.82-1.89-1.33-3.12l4.91-12.21c.49-1.23,1.89-1.82,3.12-1.33l17.22,6.92,6.92-17.22c.49-1.23,1.89-1.82,3.12-1.33l12.21,4.91c1.23.49,1.82,1.89,1.33,3.12l-6.92,17.22,15.7,6.31c1.1-2.01,2.3-4.12,3.54-6.24.75-1.28,1.51-2.57,2.28-3.82,4.69-7.71,9.46-14.49,11.34-14.56,3.53-.13,53.71,40.52,53.71,40.52,0,0,0-.01.02-.05.37-.82,5.57-12,16.93-17.11,11.8-5.32,6.16,26.06,6.16,26.06,0,0,76.84,35.88,83.85,27.1,7.01-8.79,17.39.02,21.42,3.46,4.03,3.45,42.02-12.22,45.65-14.71,2.65-1.82,15.92,4.83,22.9,8.56,2.47,1.32,3.55,4.29,2.5,6.89Z"/><path class="cls-2" d="m945.33,372.41l-43.3,107.81c-1.05,2.6-3.89,4-6.59,3.24-1.69-.47-3.7-1.06-5.81-1.71-2.08-.64-4.25-1.36-6.31-2.11,2.42-11.57-.64-37.2-7.75-53.1-20.53-45.93-156.71-96.7-194.72-120.31,4.69-7.71,9.46-14.49,11.34-14.56,3.53-.13,53.71,40.52,53.71,40.52,0,0,0-.01.02-.05.37-.82,5.57-12,16.93-17.11,11.8-5.32,6.16,26.06,6.16,26.06,0,0,76.84,35.88,83.85,27.1,7.01-8.79,17.39.02,21.42,3.46,4.03,3.45,41.15-12.95,45.65-14.71,2.99-1.17,15.92,4.83,22.9,8.56,2.47,1.32,3.55,4.29,2.5,6.89Z"/><path class="cls-2" d="m852.37,369.31l-19.63,48.88c-.63,1.57-2.41,2.33-3.98,1.7h0c-1.57-.63-2.33-2.41-1.7-3.98l19.63-48.88c.63-1.57,2.41-2.33,3.98-1.7h0c1.57.63,2.33,2.41,1.7,3.98Z"/><path class="cls-2" d="m747.78,329.97l-17.78,44.27c-.63,1.57-2.41,2.33-3.98,1.7h0c-1.57-.63-2.33-2.41-1.7-3.98l17.78-44.27c.63-1.57,2.41-2.33,3.98-1.7h0c1.57.63,2.33,2.41,1.7,3.98Z"/><path class="cls-2" d="m774.27,342.81l-16.1,40.08c-.63,1.57-2.41,2.33-3.98,1.7h0c-1.57-.63-2.33-2.41-1.7-3.98l16.1-40.08c.63-1.57,2.41-2.33,3.98-1.7h0c1.57.63,2.33,2.41,1.7,3.98Z"/><path class="cls-2" d="m878.61,373.22l-24.82,61.79c-.63,1.57-2.41,2.33-3.98,1.7h0c-1.57-.63-2.33-2.41-1.7-3.98l24.82-61.79c.63-1.57,2.41-2.33,3.98-1.7h0c1.57.63,2.33,2.41,1.7,3.98Z"/><rect class="cls-2" x="656.21" y="320.7" width="25.52" height="5.73" rx="2.56" ry="2.56" transform="translate(119.41 823.76) rotate(-68.12)"/></g></svg>