<?xml version="1.0" encoding="UTF-8"?><svg id="Layer_2" xmlns="http://www.w3.org/2000/svg" xmlns:xlink="http://www.w3.org/1999/xlink" viewBox="0 0 2560 938.94"><defs><style>.cls-1{mask:url(#mask-2);}.cls-2{fill:#022b0c;}.cls-2,.cls-3,.cls-4,.cls-5,.cls-6,.cls-7,.cls-8,.cls-9,.cls-10,.cls-11,.cls-12,.cls-13,.cls-14,.cls-15,.cls-16,.cls-17,.cls-18{stroke-width:0px;}.cls-19,.cls-14{fill:#bf515e;}.cls-20{mask:url(#mask-3);}.cls-3{fill:url(#linear-gradient-5);}.cls-4{fill:#211010;}.cls-5{fill:url(#linear-gradient-4);}.cls-5,.cls-16{mix-blend-mode:multiply;}.cls-21{clip-path:url(#clippath-1);}.cls-6{fill:#a57e58;}.cls-7{fill:#fff;}.cls-8{fill:#ededed;}.cls-9{fill:#01240b;}.cls-10{fill:url(#linear-gradient-3);}.cls-22{clip-path:url(#clippath);}.cls-11{fill:#ffad86;}.cls-12{fill:#a13941;}.cls-13{fill:#ed8a72;}.cls-23{filter:url(#luminosity-noclip);}.cls-15{fill:#872d38;}.cls-24{mask:url(#mask-1);}.cls-25{mask:url(#mask);}.cls-16{fill:url(#linear-gradient-2);}.cls-17{fill:url(#linear-gradient);opacity:.3;}.cls-18{fill:#d7af80;}.cls-26{filter:url(#luminosity-noclip-3);}</style><linearGradient id="linear-gradient" x1="-134.97" y1="404.9" x2="2722.09" y2="495.96" gradientUnits="userSpaceOnUse"><stop offset=".04" stop-color="#ffdfc0"/><stop offset=".28" stop-color="#f8d6b5"/><stop offset=".7" stop-color="#e6c198"/><stop offset="1" stop-color="#d7af80"/></linearGradient><clipPath id="clippath"><path class="cls-14" d="m488.62,431.61c-4.8,3.74-4.23,14.27,1.05,19.71,3.06,3.16,6.75,3.47,7.73,6.77.94,3.16-1.46,5.72-3.58,9.53,0,0-3.58,6.43-4.38,17.48-.7,9.62,7.12,26.4,13.27,26.24,5.96-.15,13.38-16.21,21.44-76.62.36-2.74-2.37-4.97-5.45-4.44-1.68.29-3.54.54-5.55.73-14.63,1.34-20.31-2.69-24.52.59Z"/></clipPath><filter id="luminosity-noclip" x="478.91" y="426.12" width="26.48" height="83.85" color-interpolation-filters="sRGB" filterUnits="userSpaceOnUse"><feFlood flood-color="#fff" result="bg"/><feBlend in="SourceGraphic" in2="bg"/></filter><filter id="luminosity-noclip-2" x="478.91" y="-4795.33" width="26.48" height="32766" color-interpolation-filters="sRGB" filterUnits="userSpaceOnUse"><feFlood flood-color="#fff" result="bg"/><feBlend in="SourceGraphic" in2="bg"/></filter><mask id="mask-1" x="478.91" y="-4795.33" width="26.48" height="32766" maskUnits="userSpaceOnUse"/><linearGradient id="linear-gradient-2" x1="245.73" y1="727.02" x2="271.78" y2="727.02" gradientTransform="translate(217.95 -253.13) rotate(-1.26)" gradientUnits="userSpaceOnUse"><stop offset=".25" stop-color="#fff"/><stop offset=".32" stop-color="#f3f3f3"/><stop offset=".43" stop-color="#d6d6d6"/><stop offset=".58" stop-color="#a5a5a5"/><stop offset=".76" stop-color="#626262"/><stop offset=".97" stop-color="#0e0e0e"/><stop offset="1" stop-color="#000"/></linearGradient><mask id="mask" x="478.91" y="426.12" width="26.48" height="83.85" maskUnits="userSpaceOnUse"><g class="cls-23"><g class="cls-24"><path class="cls-16" d="m483.58,427.67c4.34-2.54,11.54-1.78,13.32,1.12,1.84,3-3.67,5.78-3.12,11.44.55,5.73,8.79,8.69,11.31,14.96,2.1,5.23-7.06,16.89-7.84,25.03-2.24,23.33,3.72,23.21,2.87,26.7-.48,1.96-3.37,2.86-5.49,3.06-4.48.42-12.51-12.22-11.7-24.85.25-3.88,1.03-3.04,3.77-16.81,1.76-8.87,1.92-11.64.67-14.78-2.01-5.04-5.16-4.74-7.19-9.71-2-4.89-2.12-12.91,3.41-16.15Z"/></g></g></mask><linearGradient id="linear-gradient-3" x1="245.73" y1="727.02" x2="271.78" y2="727.02" gradientTransform="translate(217.95 -253.13) rotate(-1.26)" gradientUnits="userSpaceOnUse"><stop offset=".25" stop-color="#a13941"/><stop offset="1" stop-color="#a13941"/></linearGradient><clipPath id="clippath-1"><path class="cls-14" d="m487.92,393.63c-4.84-3.33-4.39-13.16.83-18.39,3.03-3.03,6.71-3.44,7.65-6.55.9-2.97-1.52-5.28-3.69-8.77,0,0-3.65-5.88-4.58-16.15-.81-8.94,6.81-24.81,12.97-24.85,5.96-.05,13.56,14.68,22.31,70.7.4,2.54-2.32,4.7-5.4,4.31-1.68-.21-3.54-.39-5.56-.5-14.64-.79-20.28,3.13-24.52.21Z"/></clipPath><filter id="luminosity-noclip-3" x="477.2" y="313.19" width="27.51" height="87.58" color-interpolation-filters="sRGB" filterUnits="userSpaceOnUse"><feFlood flood-color="#fff" result="bg"/><feBlend in="SourceGraphic" in2="bg"/></filter><filter id="luminosity-noclip-4" x="477.2" y="-4795.33" width="27.51" height="32766" color-interpolation-filters="sRGB" filterUnits="userSpaceOnUse"><feFlood flood-color="#fff" result="bg"/><feBlend in="SourceGraphic" in2="bg"/></filter><mask id="mask-3" x="477.2" y="-4795.33" width="27.51" height="32766" maskUnits="userSpaceOnUse"/><linearGradient id="linear-gradient-4" x1="245.02" y1="615.94" x2="273.02" y2="615.94" xlink:href="#linear-gradient-2"/><mask id="mask-2" x="477.2" y="313.19" width="27.51" height="87.58" maskUnits="userSpaceOnUse"><g class="cls-26"><g class="cls-20"><path class="cls-5" d="m490.51,313.19c2.81-.1,13.6,5.96,5.25,17.1-9.73,13,10.45,33.75,8.86,39.79-1.35,5.16-7.57,4.66-10.64,10.73-4.24,8.4,4.39,15.82.45,18.85-3.05,2.35-12.04.82-15.68-3.57-4.04-4.89.77-10.62,3.26-23.25,1.6-8.14.17-8.64.83-21.58.7-13.73,3.57-37.92,7.66-38.07Z"/></g></g></mask><linearGradient id="linear-gradient-5" x1="245.02" y1="615.94" x2="273.02" y2="615.94" gradientTransform="translate(217.95 -253.13) rotate(-1.26)" xlink:href="#linear-gradient-3"/></defs><g id="Layer_3-v2"><rect class="cls-17" width="2560" height="900"/><path class="cls-18" d="m896.13,330.27c-8.02,0-14.54-6.52-14.54-14.54s6.52-14.54,14.54-14.54,14.54,6.52,14.54,14.54-6.52,14.54-14.54,14.54Zm0-24.95c-5.74,0-10.41,4.67-10.41,10.41s4.67,10.41,10.41,10.41,10.41-4.67,10.41-10.41-4.67-10.41-10.41-10.41Z"/><rect class="cls-18" x="894.06" width="4.13" height="311.79"/><path class="cls-6" d="m980.1,571.17h-38.36v-255.43h38.36c14.32,0,25.93,11.61,25.93,25.93v203.58c0,14.32-11.61,25.93-25.93,25.93Z"/><path class="cls-18" d="m801.95,315.7h175.87c9.74,0,17.65,7.91,17.65,17.65v220.13c0,9.74-7.91,17.65-17.65,17.65h-175.87c-9.74,0-17.65-7.91-17.65-17.65v-220.12c0-9.74,7.91-17.65,17.65-17.65Z"/><ellipse class="cls-7" cx="888.8" cy="443.42" rx="90.25" ry="90.12"/><ellipse class="cls-18" cx="888.8" cy="443.42" rx="70.65" ry="70.55"/><path class="cls-7" d="m939.76,443.42c0,28.1-22.82,50.89-50.96,50.89s-50.97-22.78-50.97-50.89,22.82-50.89,50.97-50.89,50.96,22.78,50.96,50.89Z"/><path class="cls-18" d="m921.03,443.42c0,17.78-14.43,32.19-32.23,32.19s-32.23-14.41-32.23-32.19,14.43-32.18,32.23-32.18,32.23,14.41,32.23,32.18Z"/><path class="cls-7" d="m905.34,443.42c0,9.16-7.41,16.58-16.54,16.58s-16.54-7.42-16.54-16.58,7.41-16.58,16.54-16.58,16.54,7.42,16.54,16.58Z"/><polygon class="cls-12" points="885.55 439.88 799.97 433.48 786.55 423.49 789.7 433 784.35 442.35 799.73 435.71 885.38 442.11 885.55 439.88"/><g id="BM1"><path class="cls-11" d="m475.32,408.64c3.98-3.64,14.74-2.27,23.16-4.07,2.83-.61,7.01-2.68,8.93-3.68,1.61-.84,3.49-.92,5.15-.19,5.3,2.33,4.49,1.94,16.86,2.43,1.52.06-.89,9.07-10.3,7.79-3.27-.45-6.09-1.92-7.91-1.78-.24,1.18-1.39,5.86-4.2,7.88-1.34.96-3.13,1.65-7.12,1.55-1.63-.04-16.56-.55-18.05-7.41-.11-.52-7.9-1.25-6.52-2.52Z"/><polygon class="cls-2" points="276.23 422.53 276.26 428.46 387.74 437.55 486.55 428.17 495.13 395.76 409.91 401.99 315.25 392.88 276.23 422.53"/><polygon class="cls-7" points="501.1 399.24 494.55 398.02 487.31 425.32 493.88 424.91 501.1 399.24"/><path class="cls-4" d="m139.89,883.44c-2.71,1.13-15.61,19.11-15.61,19.11l-2.26,11.77,34.28,14.83,25.05,9.8,5.26-15.54-28.73-27.82-17.99-12.15Z"/><path class="cls-4" d="m314.07,888.3c1.85,2.26,0,0,0,0l15.86,22.52,29.95,11.35-5.37,16.77-66.54-.44-3.99-7.34s.35-15.74,1.63-16.25l6.2-29.87,22.26,3.25Z"/><path class="cls-9" d="m302.47,382.36l-41.21-9.41-17.85.47c-6.27,3.55-12.54,7.1-18.8,10.65-8.95,3.63-17.89,7.26-26.84,10.89l-2.69,44.39-1.42,17.28,4.54,65.42-4.19,44.3-15.01,59.52,16.92,19.83-13.88,116.47-54.17,127.31,44.87,15.03,60.91-126.73,25.49-124.23.9.24,25.72,105.27-.53,146.8,45.11,1.54,6.43-145.69-15.61-124.75,4.77-9.23-3.27-83.19.18-108.19.55-41.48-20.95-12.49Z"/><path class="cls-9" d="m302.47,382.36l-41.21-9.41c-5.78.49-11.57.98-17.35,1.47-5.94,3.4-11.88,6.8-17.82,10.21-11.72,3.7-24.72,8.52-38.5,14.87-16.23,7.48-30.2,15.53-41.92,23.17,12.86,15.01,25.73,30.03,38.59,45.04l9.21,54.19-4.19,44.3-10.28,59.68,16.92,19.83,22.75,11.71,14.66-41.4,64.91-1.14,6.02,23.35,16.92-1.26,4.77-9.23,2.12-83.05,1.26-76.19-5.92-73.62-20.95-12.49Z"/><polygon class="cls-13" points="242.78 383.69 279.99 447.79 298.51 397.56 294.27 384.75 292.18 382.95 295.05 348.55 255.55 344.44 252.18 370.89 242.78 383.69"/><path class="cls-7" d="m283.22,401.29c-32.03,2.5-35.19-23.83-35.19-23.83l2.8-4.72-20.47,12.44,7.79,61.91-4.81,168.9c27.88,2.54,55.99,1.64,71.31-1.25l4.99-88.73,1.24-75.38.62-38.47-9.18-25.52-9.67-9.52-.48,5.81s6.34,17.14-8.96,18.34Z"/><path class="cls-11" d="m287.15,284.51s-27.57,4.04-35.66,6.39c-24.59,7.15-25.27,20.15-17.03,47.41,5.05,16.72,26.53,20.58,26.53,20.58l5.56,9.12c5.72.95,24.46,8.74,24.46,8.74l19.35-4.08,3.96-22.95s-6.81-33.66-7.38-35.02c0,0-2.44-13.96-7.51-21.89-4.05-6.34-12.26-8.32-12.26-8.32Z"/><path class="cls-4" d="m293.27,271.24l-17.25,3.44s-21.33,4.1-26.67,5.65c-23.84,6.93-28.68,33.73-19.73,59.86l14.77,19.49,10.11,6.1,2.71-18.94c3.54-1.69,11.95-5.81,11.95-5.81l-6.06-28.14,8.5-14.71,23.11-1.6,5.98-1.49,3.34-6.24-1.92-9.12-3.08,1.59-5.75-10.05Z"/><path class="cls-11" d="m269.74,339.33c-.36,6.99-.88,10.74-6.84,9.45-3.2-.7-7.21-1.41-9.26-10.54-1.54-6.85,2.72-13,8.82-12.71,6.1.29,7.63,6.82,7.28,13.81Z"/><polygon class="cls-12" points="274.16 407.81 265.69 415.84 270.11 424.83 284.86 424.1 287.62 414.76 278.25 407.61 274.16 407.81"/><polygon class="cls-12" points="271.04 427.27 285.15 426.57 299.52 556.75 285.01 584.12 264.25 561.04 271.04 427.27"/></g><path class="cls-15" d="m513.49,442.53l-5.81-.88c1.83-8.64,2.71-17.45,2.61-26.2-.12-10.54-1.65-21.06-4.56-31.28l5.73-1.33c3.02,10.61,4.61,21.54,4.74,32.48.1,9.08-.81,18.24-2.72,27.21Z"/><path class="cls-19" d="m488.62,431.61c-4.8,3.74-4.23,14.27,1.05,19.71,3.06,3.16,6.75,3.47,7.73,6.77.94,3.16-1.46,5.72-3.58,9.53,0,0-3.58,6.43-4.38,17.48-.7,9.62,7.12,26.4,13.27,26.24,5.96-.15,13.38-16.21,21.44-76.62.36-2.74-2.37-4.97-5.45-4.44-1.68.29-3.54.54-5.55.73-14.63,1.34-20.31-2.69-24.52.59Z"/><g class="cls-22"><g class="cls-25"><path class="cls-10" d="m483.58,427.67c4.34-2.54,11.54-1.78,13.32,1.12,1.84,3-3.67,5.78-3.12,11.44.55,5.73,8.79,8.69,11.31,14.96,2.1,5.23-7.06,16.89-7.84,25.03-2.24,23.33,3.72,23.21,2.87,26.7-.48,1.96-3.37,2.86-5.49,3.06-4.48.42-12.51-12.22-11.7-24.85.25-3.88,1.03-3.04,3.77-16.81,1.76-8.87,1.92-11.64.67-14.78-2.01-5.04-5.16-4.74-7.19-9.71-2-4.89-2.12-12.91,3.41-16.15Z"/></g></g><path class="cls-19" d="m487.92,393.63c-4.84-3.33-4.39-13.16.83-18.39,3.03-3.03,6.71-3.44,7.65-6.55.9-2.97-1.52-5.28-3.69-8.77,0,0-3.65-5.88-4.58-16.15-.81-8.94,6.81-24.81,12.97-24.85,5.96-.05,13.56,14.68,22.31,70.7.4,2.54-2.32,4.7-5.4,4.31-1.68-.21-3.54-.39-5.56-.5-14.64-.79-20.28,3.13-24.52.21Z"/><g class="cls-21"><g class="cls-1"><path class="cls-3" d="m490.51,313.19c2.81-.1,13.6,5.96,5.25,17.1-9.73,13,10.45,33.75,8.86,39.79-1.35,5.16-7.57,4.66-10.64,10.73-4.24,8.4,4.39,15.82.45,18.85-3.05,2.35-12.04.82-15.68-3.57-4.04-4.89.77-10.62,3.26-23.25,1.6-8.14.17-8.64.83-21.58.7-13.73,3.57-37.92,7.66-38.07Z"/></g></g><path class="cls-14" d="m504.05,331.34c-6.24-20.28-16.85-35.84-31.53-46.24-5.46-3.86-10.83-6.59-16.02-9.23-9.01-4.57-17.52-8.89-24.85-18.28-6.81-8.72-10.63-19.33-11.36-31.54l3.69-.21c.69,11.61,4.3,21.66,10.73,29.89,6.87,8.79,15.03,12.94,23.68,17.32,5.32,2.7,10.81,5.49,16.49,9.51,15.29,10.83,26.31,26.94,32.76,47.89l-3.57.89Z"/><path class="cls-14" d="m415.9,592.48l-3.64-.48c2.23-12.1,7.35-22.4,15.2-30.59,8.46-8.83,17.46-12.52,26.99-16.44,5.5-2.26,11.18-4.59,17.09-8.05,15.9-9.31,28.38-24.05,37.1-43.8l3.44,1.14c-9.01,20.4-21.97,35.66-38.52,45.36-6.15,3.6-11.96,5.99-17.59,8.3-9.15,3.75-17.78,7.3-25.71,15.57-7.41,7.73-12.25,17.49-14.37,29Z"/><polygon class="cls-12" points="277.01 400.43 276.94 398.19 551.95 388.84 552.01 391.08 277.01 400.43"/><path class="cls-12" d="m550,382.93c4.24,2.39,8.48,4.77,12.71,7.16-4.07,2.47-8.14,4.93-12.21,7.4-.17-4.85-.34-9.71-.51-14.56Z"/><polygon class="cls-14" points="281.21 395.13 279.81 394.09 426.33 241.32 427.73 242.36 281.21 395.13"/><polygon class="cls-14" points="419.18 575.37 276.23 400.47 277.74 399.51 420.68 574.41 419.18 575.37"/><path class="cls-11" d="m498.49,408.69c-1.3,4.76-2.6,9.53-3.9,14.29,6.52,3.62,16.31,7.49,26.68,5.45,1.23-.24,9.44-1.94,9.87-5.48.25-2.02-2.24-3.05-2.35-6.18-.12-3.35,2.67-4.48,2.43-6.4-.54-4.34-13.43-8.52-24.79-5.31-3.46.98-6.14,2.46-7.94,3.64Z"/><path class="cls-11" d="m281.04,392.45c-1.14-1.8-2.84-3.1-4.8-4.05,2.06-.7,3.73-1.83,5.04-3,1.59-1.42,1.66-5.95-.17-7.02-.01,0-8.42,2.35-9.22,2.58-7.22,2.07-4.02-.26-17.64,2.97-14.25,3.37-21.68,6.38-24.93,13.89-.32.74-.87,2.03-1.12,3.43-1.36,1-2.35,1.96-1.72,4.27,3.15,11.47,30.61,12.66,47.98,8.81,1.55-.34,6.58-4.31,6.16-7.96-.28-2.39-2.87-3.94-2.23-5.45.58-1.36,2.95-.73,3.95-2.2,1.35-1.98-1.06-5.88-1.31-6.27Z"/><path class="cls-9" d="m195.28,481.31c-15.95-6.56-28.98-12.87-38.6-17.82-11.4-5.87-21.83-11.22-32.66-21.16-8.14-7.47-11.57-12.87-12.8-19.11-.38-1.92-2.09-10.57,2.94-17.91.95-1.39,3.05-4.05,9.31-7.43,4.77-2.57,13.19-6.21,25.24-7.05,29.75-2.75,59.51-5.51,89.26-8.26.91,12.95,1.81,25.9,2.72,38.85-23.59,1.48-47.18,2.97-70.77,4.45,6.68.58,13.36,1.15,20.04,1.73,1.77,17.9,3.55,35.8,5.32,53.69Z"/><polygon class="cls-8" points="240.58 417.29 249.06 417.78 246.45 384.16 238.06 384.75 240.58 417.29"/><path class="cls-2" d="m188.02,478.33c-5.9-2.77-16.99-7.99-31.33-14.84-18.83-8.99-27.59-13.06-35.72-22.65-3.83-4.52-6.31-8.81-7.83-11.78,12.92,4.42,25.84,8.85,38.75,13.27,27.75-6.93,55.51-13.86,83.26-20.78-10.7,6.46-21.83,12.91-33.4,19.3-6.5,3.59-12.93,7.05-19.3,10.39,1.86,9.03,3.71,18.06,5.57,27.09Z"/></g></svg>