<?xml version="1.0" encoding="UTF-8"?><svg id="Layer_2" xmlns="http://www.w3.org/2000/svg" xmlns:xlink="http://www.w3.org/1999/xlink" viewBox="0 0 2560 938.94"><defs><style>.cls-1{fill:#722217;}.cls-1,.cls-2,.cls-3,.cls-4,.cls-5,.cls-6,.cls-7,.cls-8,.cls-9,.cls-10,.cls-11,.cls-12,.cls-13,.cls-14,.cls-15,.cls-16,.cls-17{stroke-width:0px;}.cls-2{fill:#e5e5e5;}.cls-3{fill:#022b0c;}.cls-4{fill:#211010;}.cls-5{fill:#052d07;}.cls-6{fill:#fff;}.cls-7{fill:#a0a0a0;}.cls-8{fill:#8c2a20;}.cls-9{fill:#01240b;}.cls-10{fill:#9b3a2f;}.cls-11{fill:#ffad86;}.cls-12{fill:#b74d44;}.cls-13{fill:#a13941;}.cls-14{fill:#ed8a72;}.cls-15{fill:url(#linear-gradient);opacity:.3;}.cls-16{fill:#d7af80;}.cls-17{fill:#471910;}</style><linearGradient id="linear-gradient" x1="-134.97" y1="404.9" x2="2722.09" y2="495.96" gradientUnits="userSpaceOnUse"><stop offset=".04" stop-color="#ffdfc0"/><stop offset=".28" stop-color="#f8d6b5"/><stop offset=".7" stop-color="#e6c198"/><stop offset="1" stop-color="#d7af80"/></linearGradient></defs><g id="Layer_3-v2"><rect class="cls-15" width="2560" height="900"/><path class="cls-16" d="m568.76,259.91h0c13.77,0,24.96,11.12,25.05,24.89l.55,82.21c-10,28.89-8.6,58.28.59,88.01l1.77,265.29c.02,2.9.59,5.84,1.6,8.55,28.97,77.91,23.79,118.07,15.99,137.12-3.79,9.26-13.01,15.09-23.02,15.09h-35.42c-10.99,0-20.92-7.08-23.95-17.65-5.92-20.7-9.28-61.52,14.71-132.24.9-2.65,1.38-5.49,1.35-8.29l-2.61-266.82c8.37-29.08,8.31-57.82-.84-86.17l-.83-84.7c-.14-13.94,11.13-25.31,25.07-25.31Z"/><polygon class="cls-16" points="165.62 629.54 272.61 235.96 266.77 235.96 161.01 629.54 165.62 629.54"/><polygon class="cls-16" points="390.1 629.54 276.14 235.96 281.49 235.96 395.29 629.54 390.1 629.54"/><polygon class="cls-16" points="177.07 660.33 372.53 660.33 395.29 629.54 161.01 629.54 177.07 660.33"/><rect class="cls-16" x="272.61" y="235.96" width="3.53" height="406.97"/><polygon class="cls-16" points="765.51 760.6 872.5 367.02 866.66 367.02 760.9 760.6 765.51 760.6"/><polygon class="cls-16" points="989.99 760.6 876.03 367.02 881.38 367.02 995.18 760.6 989.99 760.6"/><polygon class="cls-16" points="776.96 791.39 972.42 791.39 995.18 760.6 760.9 760.6 776.96 791.39"/><rect class="cls-16" x="872.5" y="367.02" width="3.53" height="406.97"/><rect class="cls-16" x="488.25" y="864.46" width="167.34" height="18.97" rx="8.5" ry="8.5"/><rect class="cls-16" x="441.53" y="878.69" width="263.15" height="48.99" rx="21.96" ry="21.96"/><rect class="cls-16" x="508.59" y="494.68" width="123.76" height="40.04" rx="17.95" ry="17.95"/><path class="cls-16" d="m557.98,476.69h24.97c18.81,0,34.07,15.27,34.07,34.07v7.88c0,18.81-15.27,34.07-34.07,34.07h-24.97c-18.81,0-34.07-15.27-34.07-34.07v-7.88c0-18.81,15.27-34.07,34.07-34.07Z"/><rect class="cls-16" x="533.9" y="455.8" width="73.14" height="20.89" rx="9.36" ry="9.36"/><rect class="cls-16" x="539.76" y="349.61" width="61.42" height="20.89" rx="9.36" ry="9.36"/><path class="cls-16" d="m596.59,573.61h-52.24c-5.77,0-10.45-4.68-10.45-10.45h0c0-5.77,4.68-10.45,10.45-10.45h52.24c5.77,0,10.45,4.68,10.45,10.45h0c0,5.77-4.68,10.45-10.45,10.45Z"/><path class="cls-16" d="m430.91,924.72h284.39c.46,0,.84.37.84.84v12.55c0,.46-.37.84-.84.84h-284.39c-.46,0-.84-.37-.84-.84v-12.55c0-.46.37-.84.84-.84Z"/><path class="cls-16" d="m891.68,343.59c-17.19-12.88-32.23-6.14-32.23-6.14-166.61,80.47-187.7-35.75-187.7-35.75l-94.8-18.06-94.8-18.06s-62.34,100.33-187.7-35.75c0,0-11.51-11.8-32.23-6.14-20.72,5.66-32.37,44.16,5.91,61.82,29.02,13.39,34.44-15.05,34.44-15.05,0,0,86.36,102.9,194.43,40.97l72.04,13.72,72.04,13.72c77.73,97.33,195.87,33.38,195.87,33.38,0,0-5.42,28.44,26.49,26.66,42.09-2.35,45.41-42.43,28.22-55.31Z"/><circle class="cls-16" cx="570.47" cy="246.79" r="16.82"/><g id="BM1"><path class="cls-4" d="m215.07,611.49c-.97.41-5.6,6.85-5.6,6.85l-.81,4.22,12.3,5.32,8.99,3.52,1.89-5.57-10.31-9.98-6.45-4.36Z"/><path class="cls-4" d="m277.3,611.42c.65.82,0,0,0,0l5.59,8.14,10.69,4.2-2,5.99-23.86-.44-1.4-2.65s.19-5.65.65-5.82l2.35-10.69,7.97,1.26Z"/><polygon class="cls-9" points="273.39 431.75 258.6 428.37 252.2 428.54 243.68 430.72 235.83 436.27 234.86 452.19 234.36 458.39 235.99 481.86 234.48 497.75 229.1 519.1 235.17 526.21 230.19 567.99 210.76 613.66 226.86 619.05 248.71 573.59 257.85 529.02 258.17 529.11 267.4 566.87 267.21 616.12 283.39 616.67 285.7 567.82 280.1 523.07 281.81 519.76 280.64 489.92 280.7 451.11 280.9 436.23 273.39 431.75"/><polygon class="cls-11" points="331.41 457.54 327.76 451.28 334.91 450.22 343.62 452.28 346.23 458.81 344.56 459.91 335.34 457.45 331.41 457.54"/><polygon class="cls-3" points="260.92 431.71 261.46 429.65 301.01 436.46 334.49 448.55 334.58 460.58 305.53 450.8 271.83 445.5 260.92 431.71"/><polygon class="cls-6" points="336.87 449.85 334.52 449.79 334.56 458.47 336.76 458.04 336.87 449.85"/><polygon class="cls-9" points="273.39 431.75 258.6 428.37 252.2 428.54 243.68 430.72 232.35 435.43 232.38 449.56 230.99 462.36 234.29 481.8 232.79 497.69 229.1 519.1 235.17 526.21 243.33 530.41 248.59 515.56 271.87 515.15 274.03 523.53 280.1 523.07 281.81 519.76 282.57 489.97 283.03 462.64 280.9 436.23 273.39 431.75"/><polygon class="cls-14" points="251.98 432.22 265.32 455.22 271.97 437.2 270.45 432.6 269.7 431.96 270.72 419.62 256.56 418.14 255.35 427.63 251.98 432.22"/><path class="cls-6" d="m266.48,438.54c-11.49.9-12.62-8.55-12.62-8.55l1-1.69-7.34,4.46,2.8,22.21-1.72,60.59c10,.91,20.08.59,25.58-.45l1.79-31.83.45-27.04.22-13.8-3.29-9.15-3.47-3.41-.17,2.08s2.27,6.15-3.22,6.58Z"/><path class="cls-11" d="m267.89,396.64s-9.89,1.45-12.79,2.29c-8.82,2.56-9.07,7.23-6.11,17.01,1.81,6,9.52,7.38,9.52,7.38l1.99,3.27c2.05.34,8.78,3.13,8.78,3.13l6.94-1.46,1.42-8.23s-2.44-12.08-2.65-12.56c0,0-.88-5.01-2.7-7.85-1.45-2.28-4.4-2.98-4.4-2.98Z"/><path class="cls-4" d="m270.09,391.88l-6.19,1.23s-7.65,1.47-9.57,2.03c-8.55,2.49-10.29,12.1-7.08,21.47l5.3,6.99,3.63,2.19.97-6.8c1.27-.61,4.29-2.08,4.29-2.08l-2.17-10.09,3.05-5.28,8.29-.57,2.14-.54,1.2-2.24-.69-3.27-1.1.57-2.06-3.61Z"/><path class="cls-11" d="m261.65,416.31c-.13,2.51-.32,3.85-2.45,3.39-1.15-.25-2.59-.5-3.32-3.78-.55-2.46.97-4.66,3.16-4.56,2.19.1,2.74,2.45,2.61,4.95Z"/><polygon class="cls-13" points="264.79 439.58 261.22 442.55 262.74 446.22 268.6 446.32 269.94 442.69 266.42 439.61 264.79 439.58"/><polygon class="cls-13" points="263.04 447.22 268.65 447.31 270.94 499.3 264.47 509.77 256.85 500.07 263.04 447.22"/></g><path class="cls-8" d="m199.38,558.97s41.02,11.88,41.89,11.81c.87-.07,10.49-6.76,10.49-6.76l.81-34.23s-42.62-8.08-43.35-7.57c-.73.51-10.95,5.29-10.98,5.52-.13,1.02,1.14,31.23,1.14,31.23Z"/><path class="cls-1" d="m251.79,564.04l.81-34.23s-.6-.11-1.65-.31c-2.73,1.92-7.41,5.31-7.31,5.44.13.16-1.87,31.07-2.18,35.81,1.5-.58,10.33-6.71,10.33-6.71Z"/><path class="cls-17" d="m215.19,552.13l28.83-15.57,8.68-7.09c-1.47-.28-42.39-7.09-43.1-6.58-.67.47-9.34,3.68-10.88,5.01l16.47,24.23Z"/><polygon class="cls-17" points="212.76 545.93 211.86 547.05 212.54 552.73 220.99 554.52 222.21 553.31 222.91 547.43 212.76 545.93"/><path class="cls-10" d="m214.95,551.13l29.93-15.3,7.79-6.36c-1.47-.28-42.59-8.07-43.3-7.56-.67.47-8.78,4.32-10.32,5.64l15.91,23.59Z"/><path class="cls-12" d="m198.24,527.88c3.15.62,45.64,8.74,45.64,8.74l7.83-6.3.99-.84s-42.62-8.08-43.35-7.57c-.23.16-1.37.63-2.84,1.24l-8.27,4.6s0,.09,0,.14Z"/><polygon class="cls-6" points="211.65 546.24 210.75 547.36 211.43 553.05 219.9 554.84 221.12 553.63 221.83 547.73 211.65 546.24"/><path class="cls-2" d="m219.52,549.11s-5.95-1.26-8.31-1.57l.21,5.51,8.47,1.79.03-.03-.4-5.69Z"/><path class="cls-7" d="m219.3,523.72l-.76-.33s-.56.21-.89.63-.33,4.48-.33,4.48l1.98-1.47.37-3.56-.38.26Z"/><path class="cls-2" d="m218.54,520.03c-2.09.2-2.61,3.36-2.61,3.36l-.26,4.46,1.66.63s0-4.07.33-4.48.89-.63.89-.63l.76.33.38-.26,6.64-2.77s-6.85-.74-7.78-.65Z"/><path class="cls-7" d="m222.93,522.1l.24-.1-2.02-1.82c-1.23-.11-2.28-.18-2.61-.14-.66.06-1.17.43-1.55.89,1.13.17,4.66.91,5.94,1.18Z"/><path class="cls-7" d="m228.39,522.73l-.34,2.73s1.92.33,2.52.47c.6.14.72,3.19.53,4.35-.19,1.16,2.55.81,2.55.81l1.54-2.31s.42-5.13-.09-5.99c-.51-.86-4.64-1.45-4.64-1.45l-1.39.74-.67.64Z"/><path class="cls-2" d="m232.78,523.88c-.41-.8-2.82-1.01-4.41-1.03l-.33,2.61s1.92.33,2.52.47c.6.14.72,3.19.53,4.35-.17,1.07,2.12.86,2.49.82-.05-1.35-.27-6.2-.8-7.22Z"/><polygon class="cls-11" points="223.29 514.13 225.78 514.92 230.69 519.74 231.22 526.94 220.33 527.74 217.73 519.18 218.13 515.02 223.29 514.13"/><polygon class="cls-6" points="216.69 513.37 216.64 516.18 227.7 514.87 227.39 512.11 216.69 513.37"/><polygon class="cls-5" points="232.35 435.43 216.22 473.74 215.73 514.31 227.72 512.66 229.53 478.87 241.49 454.62 241.47 444.03 238.78 438.4 232.35 435.43"/></g></svg>