<?xml version="1.0" encoding="UTF-8"?>
<svg id="Warstwa_2" data-name="Warstwa 2" xmlns="http://www.w3.org/2000/svg" xmlns:xlink="http://www.w3.org/1999/xlink" viewBox="0 0 500 350">
  <defs>
    <style>
      .cls-1 {
        fill: #ee8a72;
      }

      .cls-1, .cls-2, .cls-3, .cls-4, .cls-5, .cls-6, .cls-7, .cls-8, .cls-9, .cls-10, .cls-11, .cls-12, .cls-13, .cls-14, .cls-15, .cls-16, .cls-17 {
        stroke-width: 0px;
      }

      .cls-2 {
        fill: #471a12;
      }

      .cls-3 {
        fill: #a1a0a0;
      }

      .cls-4 {
        fill: #162d1a;
      }

      .cls-5 {
        fill: #a23a42;
      }

      .cls-6 {
        fill: #722217;
      }

      .cls-7 {
        fill: #b74e44;
      }

      .cls-8 {
        fill: #211010;
      }

      .cls-9 {
        fill: #fff;
      }

      .cls-10 {
        fill: #9c3b2f;
      }

      .cls-11 {
        fill: #102417;
      }

      .cls-12 {
        fill: #e5e5e4;
      }

      .cls-13 {
        fill: url(#linear-gradient);
        opacity: .3;
      }

      .cls-14 {
        fill: #132b1a;
      }

      .cls-15 {
        fill: #8d2a20;
      }

      .cls-16 {
        fill: #d7af80;
      }

      .cls-17 {
        fill: #f6ab88;
      }
    </style>
    <linearGradient id="linear-gradient" x1="-29.4" y1="166.09" x2="534.75" y2="184.08" gradientUnits="userSpaceOnUse">
      <stop offset=".04" stop-color="#fddfc1"/>
      <stop offset=".28" stop-color="#f6d6b6"/>
      <stop offset=".7" stop-color="#e5c199"/>
      <stop offset="1" stop-color="#d7af80"/>
    </linearGradient>
  </defs>
  <g id="Warstwa_1-2" data-name="Warstwa 1">
    <rect class="cls-13" width="500" height="350"/>
    <g>
      <path class="cls-16" d="M99.45,145.77h0c3.14,0,5.7,2.54,5.72,5.68l.12,18.77c-2.28,6.59-1.96,13.3.13,20.09l.4,60.56c0,.66.13,1.33.37,1.95,6.61,17.78,5.43,26.95,3.65,31.3-.87,2.11-2.97,3.45-5.25,3.45h-8.09c-2.51,0-4.78-1.62-5.47-4.03-1.35-4.73-2.12-14.04,3.36-30.19.21-.6.32-1.25.31-1.89l-.6-60.91c1.91-6.64,1.9-13.2-.19-19.67l-.19-19.33c-.03-3.18,2.54-5.78,5.72-5.78Z"/>
      <g>
        <polygon class="cls-16" points="7.43 230.14 31.85 140.3 30.52 140.3 6.38 230.14 7.43 230.14"/>
        <polygon class="cls-16" points="58.67 230.14 32.65 140.3 33.88 140.3 59.85 230.14 58.67 230.14"/>
        <polygon class="cls-16" points="10.04 237.17 54.66 237.17 59.85 230.14 6.38 230.14 10.04 237.17"/>
        <rect class="cls-16" x="31.85" y="140.3" width=".81" height="92.9"/>
      </g>
      <g>
        <polygon class="cls-16" points="144.36 260.06 168.78 170.22 167.45 170.22 143.31 260.06 144.36 260.06"/>
        <polygon class="cls-16" points="195.6 260.06 169.59 170.22 170.81 170.22 196.78 260.06 195.6 260.06"/>
        <polygon class="cls-16" points="146.97 267.09 191.59 267.09 196.78 260.06 143.31 260.06 146.97 267.09"/>
        <rect class="cls-16" x="168.78" y="170.22" width=".81" height="92.9"/>
      </g>
      <rect class="cls-16" x="81.07" y="283.77" width="38.2" height="4.33" rx="1.43" ry="1.43"/>
      <rect class="cls-16" x="70.41" y="287.01" width="60.07" height="11.18" rx="3.71" ry="3.71"/>
      <rect class="cls-16" x="85.71" y="199.36" width="28.25" height="9.14" rx="3.03" ry="3.03"/>
      <rect class="cls-16" x="89.21" y="195.25" width="21.25" height="17.35" rx="5.75" ry="5.75"/>
      <rect class="cls-16" x="91.49" y="190.48" width="16.69" height="4.77" rx="1.58" ry="1.58"/>
      <rect class="cls-16" x="92.83" y="166.24" width="14.02" height="4.77" rx="1.58" ry="1.58"/>
      <path class="cls-16" d="M105.8,217.37h-11.93c-1.32,0-2.38-1.07-2.38-2.38h0c0-1.32,1.07-2.38,2.38-2.38h11.93c1.32,0,2.38,1.07,2.38,2.38h0c0,1.32-1.07,2.38-2.38,2.38Z"/>
      <path class="cls-16" d="M68.63,297.52h63.63c.46,0,.84.37.84.84v1.58c0,.46-.37.84-.84.84h-63.63c-.46,0-.84-.37-.84-.84v-1.58c0-.46.37-.84.84-.84Z"/>
      <path class="cls-16" d="M173.16,164.87c-3.92-2.94-7.36-1.4-7.36-1.4-38.03,18.37-42.84-8.16-42.84-8.16l-21.64-4.12-21.64-4.12s-14.23,22.9-42.84-8.16c0,0-2.63-2.69-7.36-1.4-4.73,1.29-7.39,10.08,1.35,14.11,6.62,3.06,7.86-3.44,7.86-3.44,0,0,19.71,23.49,44.38,9.35l16.44,3.13,16.44,3.13c17.74,22.22,44.71,7.62,44.71,7.62,0,0-1.24,6.49,6.05,6.09,9.61-.54,10.37-9.69,6.44-12.63Z"/>
      <circle class="cls-16" cx="99.84" cy="142.77" r="3.84"/>
      <g>
        <g id="BM1">
          <path class="cls-8" d="M18.71,226.02c-.22.09-1.28,1.56-1.28,1.56l-.19.96,2.81,1.21,2.05.8.43-1.27-2.35-2.28-1.47-.99Z"/>
          <path class="cls-8" d="M32.92,226.01c.15.19,0,0,0,0l1.28,1.86,2.44.96-.46,1.37-5.45-.1-.32-.6s.04-1.29.15-1.33l.54-2.44,1.82.29Z"/>
          <polygon class="cls-11" points="32.03 184.99 28.65 184.22 27.19 184.26 25.25 184.76 23.45 186.02 23.23 189.66 23.12 191.07 23.49 196.43 23.15 200.06 21.92 204.93 23.3 206.56 22.17 216.09 17.73 226.52 21.41 227.75 26.39 217.37 28.48 207.2 28.55 207.22 30.66 215.84 30.62 227.08 34.31 227.2 34.84 216.05 33.56 205.84 33.95 205.08 33.68 198.27 33.7 189.41 33.74 186.02 32.03 184.99"/>
          <polygon class="cls-17" points="45.27 190.88 44.44 189.45 46.07 189.21 48.06 189.68 48.65 191.17 48.27 191.42 46.17 190.86 45.27 190.88"/>
          <polygon class="cls-14" points="29.18 184.99 29.31 184.52 38.33 186.07 45.98 188.83 45.99 191.57 39.36 189.34 31.67 188.13 29.18 184.99"/>
          <polygon class="cls-9" points="46.52 189.13 45.98 189.11 45.99 191.09 46.49 190.99 46.52 189.13"/>
          <polygon class="cls-11" points="32.03 184.99 28.65 184.22 27.19 184.26 25.25 184.76 22.66 185.83 22.67 189.06 22.35 191.98 23.1 196.42 22.76 200.05 21.92 204.93 23.3 206.56 25.17 207.51 26.37 204.12 31.68 204.03 32.17 205.94 33.56 205.84 33.95 205.08 34.12 198.28 34.23 192.04 33.74 186.02 32.03 184.99"/>
          <polygon class="cls-1" points="27.14 185.1 30.19 190.35 31.7 186.24 31.36 185.19 31.18 185.04 31.42 182.23 28.19 181.89 27.91 184.05 27.14 185.1"/>
          <path class="cls-9" d="M30.45,186.54c-2.62.2-2.88-1.95-2.88-1.95l.23-.39-1.68,1.02.64,5.07-.39,13.83c2.28.21,4.58.13,5.84-.1l.41-7.27.1-6.17.05-3.15-.75-2.09-.79-.78-.04.48s.52,1.4-.73,1.5Z"/>
          <path class="cls-17" d="M30.77,176.98s-2.26.33-2.92.52c-2.01.59-2.07,1.65-1.39,3.88.41,1.37,2.17,1.69,2.17,1.69l.46.75c.47.08,2,.72,2,.72l1.58-.33.32-1.88s-.56-2.76-.6-2.87c0,0-.2-1.14-.62-1.79-.33-.52-1-.68-1-.68Z"/>
          <path class="cls-8" d="M31.27,175.89l-1.41.28s-1.75.34-2.18.46c-1.95.57-2.35,2.76-1.62,4.9l1.21,1.6.83.5.22-1.55c.29-.14.98-.48.98-.48l-.5-2.3.7-1.2,1.89-.13.49-.12.27-.51-.16-.75-.25.13-.47-.82Z"/>
          <path class="cls-17" d="M29.35,181.47c-.03.57-.07.88-.56.77-.26-.06-.59-.12-.76-.86-.13-.56.22-1.06.72-1.04.5.02.63.56.6,1.13Z"/>
          <polygon class="cls-5" points="30.06 186.78 29.25 187.46 29.6 188.3 30.93 188.32 31.24 187.49 30.44 186.79 30.06 186.78"/>
          <polygon class="cls-5" points="29.67 188.52 30.95 188.55 31.47 200.41 29.99 202.8 28.25 200.59 29.67 188.52"/>
        </g>
        <g>
          <path class="cls-15" d="M15.13,214.03s9.36,2.71,9.56,2.7c.2-.02,2.39-1.54,2.39-1.54l.18-7.81s-9.73-1.85-9.89-1.73c-.17.12-2.5,1.21-2.51,1.26-.03.23.26,7.13.26,7.13Z"/>
          <path class="cls-6" d="M27.1,215.19l.18-7.81s-.14-.03-.38-.07c-.62.44-1.69,1.21-1.67,1.24.03.04-.43,7.09-.5,8.17.34-.13,2.36-1.53,2.36-1.53Z"/>
          <path class="cls-2" d="M18.74,212.47l6.58-3.55,1.98-1.62c-.34-.06-9.68-1.62-9.84-1.5-.15.11-2.13.84-2.48,1.14l3.76,5.53Z"/>
          <polygon class="cls-2" points="18.19 211.06 17.98 211.31 18.14 212.61 20.07 213.02 20.35 212.74 20.51 211.4 18.19 211.06"/>
          <path class="cls-10" d="M18.69,212.24l6.83-3.49,1.78-1.45c-.34-.06-9.72-1.84-9.88-1.73-.15.11-2,.99-2.36,1.29l3.63,5.38Z"/>
          <path class="cls-7" d="M14.87,206.94c.72.14,10.42,1.99,10.42,1.99l1.79-1.44.23-.19s-9.73-1.85-9.89-1.73c-.05.04-.31.14-.65.28l-1.89,1.05s0,.02,0,.03Z"/>
          <polygon class="cls-9" points="17.93 211.13 17.73 211.38 17.88 212.68 19.82 213.09 20.1 212.81 20.26 211.47 17.93 211.13"/>
          <path class="cls-12" d="M19.73,211.78s-1.36-.29-1.9-.36l.05,1.26,1.93.41h0s-.09-1.31-.09-1.31Z"/>
        </g>
        <g>
          <g>
            <path class="cls-3" d="M19.68,205.99l-.17-.08s-.13.05-.2.14-.08,1.02-.08,1.02l.45-.34.09-.81-.09.06Z"/>
            <path class="cls-12" d="M19.51,205.15c-.48.05-.6.77-.6.77l-.06,1.02.38.14s0-.93.08-1.02.2-.14.2-.14l.17.08.09-.06,1.52-.63s-1.56-.17-1.77-.15Z"/>
            <path class="cls-3" d="M20.51,205.62l.06-.02-.46-.42c-.28-.02-.52-.04-.6-.03-.15.01-.27.1-.35.2.26.04,1.06.21,1.36.27Z"/>
          </g>
          <path class="cls-3" d="M21.76,205.76l-.08.62s.44.07.57.11c.14.03.16.73.12.99-.04.27.58.18.58.18l.35-.53s.1-1.17-.02-1.37c-.12-.2-1.06-.33-1.06-.33l-.32.17-.15.15Z"/>
          <path class="cls-12" d="M22.76,206.02c-.09-.18-.64-.23-1.01-.23l-.07.6s.44.07.57.11c.14.03.16.73.12.99-.04.24.48.2.57.19-.01-.31-.06-1.41-.18-1.65Z"/>
        </g>
        <g>
          <polygon class="cls-17" points="20.59 203.8 21.16 203.98 22.28 205.08 22.4 206.72 19.92 206.91 19.32 204.95 19.41 204 20.59 203.8"/>
          <polygon class="cls-9" points="19.08 203.63 19.07 204.27 21.6 203.97 21.53 203.34 19.08 203.63"/>
          <polygon class="cls-4" points="22.66 185.83 18.98 194.58 18.87 203.84 21.6 203.46 22.02 195.75 24.75 190.22 24.74 187.8 24.13 186.51 22.66 185.83"/>
        </g>
      </g>
    </g>
  </g>
</svg>