<?xml version="1.0" encoding="UTF-8"?>
<svg id="Warstwa_2" data-name="Warstwa 2" xmlns="http://www.w3.org/2000/svg" xmlns:xlink="http://www.w3.org/1999/xlink" viewBox="0 0 500 352.14">
  <defs>
    <style>
      .cls-1 {
        fill: #ee8a72;
      }

      .cls-1, .cls-2, .cls-3, .cls-4, .cls-5, .cls-6, .cls-7, .cls-8, .cls-9, .cls-10, .cls-11, .cls-12, .cls-13, .cls-14, .cls-15, .cls-16, .cls-17 {
        stroke-width: 0px;
      }

      .cls-2 {
        fill: #471a12;
      }

      .cls-3 {
        fill: #a1a0a0;
      }

      .cls-4 {
        fill: #162d1a;
      }

      .cls-5 {
        fill: #a23a42;
      }

      .cls-6 {
        fill: #722217;
      }

      .cls-7 {
        fill: #b74e44;
      }

      .cls-8 {
        fill: #211010;
      }

      .cls-9 {
        fill: #fff;
      }

      .cls-10 {
        fill: #9c3b2f;
      }

      .cls-11 {
        fill: #102417;
      }

      .cls-12 {
        fill: #e5e5e4;
      }

      .cls-13 {
        fill: url(#linear-gradient);
        opacity: .3;
      }

      .cls-14 {
        fill: #132b1a;
      }

      .cls-15 {
        fill: #8d2a20;
      }

      .cls-16 {
        fill: #d7af80;
      }

      .cls-17 {
        fill: #f6ab88;
      }
    </style>
    <linearGradient id="linear-gradient" x1="-29.4" y1="166.09" x2="534.75" y2="184.08" gradientUnits="userSpaceOnUse">
      <stop offset=".04" stop-color="#fddfc1"/>
      <stop offset=".28" stop-color="#f6d6b6"/>
      <stop offset=".7" stop-color="#e5c199"/>
      <stop offset="1" stop-color="#d7af80"/>
    </linearGradient>
  </defs>
  <g id="Warstwa_1-2" data-name="Warstwa 1">
    <rect class="cls-13" width="500" height="350"/>
    <g>
      <path class="cls-16" d="M98.52,197.14h0c3.14,0,5.7,2.54,5.72,5.68l.12,18.77c-2.28,6.59-1.96,13.3.13,20.09l.4,60.56c0,.66.13,1.33.37,1.95,6.61,17.78,5.43,26.95,3.65,31.3-.87,2.11-2.97,3.45-5.25,3.45h-8.09c-2.51,0-4.78-1.62-5.47-4.03-1.35-4.73-2.12-14.04,3.36-30.19.21-.6.32-1.25.31-1.89l-.6-60.91c1.91-6.64,1.9-13.2-.19-19.67l-.19-19.33c-.03-3.18,2.54-5.78,5.72-5.78Z"/>
      <g>
        <polygon class="cls-16" points="6.5 281.52 30.92 191.68 29.59 191.68 5.45 281.52 6.5 281.52"/>
        <polygon class="cls-16" points="57.74 281.52 31.72 191.68 32.95 191.68 58.92 281.52 57.74 281.52"/>
        <polygon class="cls-16" points="9.11 288.54 53.73 288.54 58.92 281.52 5.45 281.52 9.11 288.54"/>
        <rect class="cls-16" x="30.92" y="191.68" width=".81" height="92.9"/>
      </g>
      <g>
        <polygon class="cls-16" points="143.43 311.43 167.85 221.59 166.52 221.59 142.38 311.43 143.43 311.43"/>
        <polygon class="cls-16" points="194.67 311.43 168.66 221.59 169.88 221.59 195.85 311.43 194.67 311.43"/>
        <polygon class="cls-16" points="146.04 318.46 190.66 318.46 195.85 311.43 142.38 311.43 146.04 318.46"/>
        <rect class="cls-16" x="167.85" y="221.59" width=".81" height="92.9"/>
      </g>
      <rect class="cls-16" x="80.14" y="335.14" width="38.2" height="4.33" rx="1.43" ry="1.43"/>
      <rect class="cls-16" x="69.48" y="338.39" width="60.07" height="11.18" rx="3.71" ry="3.71"/>
      <rect class="cls-16" x="84.78" y="250.73" width="28.25" height="9.14" rx="3.03" ry="3.03"/>
      <rect class="cls-16" x="88.28" y="246.63" width="21.25" height="17.35" rx="5.75" ry="5.75"/>
      <rect class="cls-16" x="90.56" y="241.86" width="16.69" height="4.77" rx="1.58" ry="1.58"/>
      <rect class="cls-16" x="91.9" y="217.62" width="14.02" height="4.77" rx="1.58" ry="1.58"/>
      <path class="cls-16" d="M104.87,268.75h-11.93c-1.32,0-2.38-1.07-2.38-2.38h0c0-1.32,1.07-2.38,2.38-2.38h11.93c1.32,0,2.38,1.07,2.38,2.38h0c0,1.32-1.07,2.38-2.38,2.38Z"/>
      <path class="cls-16" d="M67.7,348.89h63.63c.46,0,.84.37.84.84v1.58c0,.46-.37.84-.84.84h-63.63c-.46,0-.84-.37-.84-.84v-1.58c0-.46.37-.84.84-.84Z"/>
      <path class="cls-16" d="M172.23,216.24c-3.92-2.94-7.36-1.4-7.36-1.4-38.03,18.37-42.84-8.16-42.84-8.16l-21.64-4.12-21.64-4.12s-14.23,22.9-42.84-8.16c0,0-2.63-2.69-7.36-1.4-4.73,1.29-7.39,10.08,1.35,14.11,6.62,3.06,7.86-3.44,7.86-3.44,0,0,19.71,23.49,44.38,9.35l16.44,3.13,16.44,3.13c17.74,22.22,44.71,7.62,44.71,7.62,0,0-1.24,6.49,6.05,6.09,9.61-.54,10.37-9.69,6.44-12.63Z"/>
      <circle class="cls-16" cx="98.91" cy="194.15" r="3.84"/>
      <g>
        <g id="BM1">
          <path class="cls-8" d="M17.78,277.4c-.22.09-1.28,1.56-1.28,1.56l-.19.96,2.81,1.21,2.05.8.43-1.27-2.35-2.28-1.47-.99Z"/>
          <path class="cls-8" d="M31.99,277.38c.15.19,0,0,0,0l1.28,1.86,2.44.96-.46,1.37-5.45-.1-.32-.6s.04-1.29.15-1.33l.54-2.44,1.82.29Z"/>
          <polygon class="cls-11" points="31.1 236.37 27.72 235.6 26.26 235.64 24.32 236.13 22.52 237.4 22.3 241.03 22.19 242.45 22.56 247.81 22.22 251.43 20.99 256.31 22.37 257.93 21.24 267.47 16.8 277.89 20.48 279.12 25.46 268.74 27.55 258.57 27.62 258.59 29.73 267.21 29.69 278.45 33.38 278.58 33.91 267.43 32.63 257.21 33.02 256.46 32.75 249.65 32.77 240.79 32.81 237.39 31.1 236.37"/>
          <polygon class="cls-17" points="44.34 242.25 43.51 240.83 45.14 240.58 47.13 241.05 47.72 242.54 47.34 242.8 45.24 242.23 44.34 242.25"/>
          <polygon class="cls-14" points="28.25 236.36 28.38 235.89 37.4 237.44 45.05 240.2 45.06 242.95 38.43 240.72 30.74 239.51 28.25 236.36"/>
          <polygon class="cls-9" points="45.59 240.5 45.05 240.49 45.06 242.47 45.56 242.37 45.59 240.5"/>
          <polygon class="cls-11" points="31.1 236.37 27.72 235.6 26.26 235.64 24.32 236.13 21.73 237.21 21.74 240.43 21.42 243.36 22.17 247.79 21.83 251.42 20.99 256.31 22.37 257.93 24.24 258.89 25.44 255.5 30.75 255.4 31.24 257.32 32.63 257.21 33.02 256.46 33.19 249.66 33.3 243.42 32.81 237.39 31.1 236.37"/>
          <polygon class="cls-1" points="26.21 236.48 29.26 241.72 30.77 237.61 30.43 236.56 30.25 236.42 30.49 233.6 27.26 233.26 26.98 235.43 26.21 236.48"/>
          <path class="cls-9" d="M29.52,237.92c-2.62.2-2.88-1.95-2.88-1.95l.23-.39-1.68,1.02.64,5.07-.39,13.83c2.28.21,4.58.13,5.84-.1l.41-7.27.1-6.17.05-3.15-.75-2.09-.79-.78-.04.48s.52,1.4-.73,1.5Z"/>
          <path class="cls-17" d="M29.84,228.36s-2.26.33-2.92.52c-2.01.59-2.07,1.65-1.39,3.88.41,1.37,2.17,1.69,2.17,1.69l.46.75c.47.08,2,.72,2,.72l1.58-.33.32-1.88s-.56-2.76-.6-2.87c0,0-.2-1.14-.62-1.79-.33-.52-1-.68-1-.68Z"/>
          <path class="cls-8" d="M30.34,227.27l-1.41.28s-1.75.34-2.18.46c-1.95.57-2.35,2.76-1.62,4.9l1.21,1.6.83.5.22-1.55c.29-.14.98-.48.98-.48l-.5-2.3.7-1.2,1.89-.13.49-.12.27-.51-.16-.75-.25.13-.47-.82Z"/>
          <path class="cls-17" d="M28.42,232.84c-.03.57-.07.88-.56.77-.26-.06-.59-.12-.76-.86-.13-.56.22-1.06.72-1.04.5.02.63.56.6,1.13Z"/>
          <polygon class="cls-5" points="29.13 238.16 28.32 238.83 28.67 239.67 30 239.69 30.31 238.87 29.51 238.16 29.13 238.16"/>
          <polygon class="cls-5" points="28.74 239.9 30.02 239.92 30.54 251.79 29.06 254.18 27.32 251.96 28.74 239.9"/>
        </g>
        <g>
          <path class="cls-15" d="M14.2,265.41s9.36,2.71,9.56,2.7c.2-.02,2.39-1.54,2.39-1.54l.18-7.81s-9.73-1.85-9.89-1.73c-.17.12-2.5,1.21-2.51,1.26-.03.23.26,7.13.26,7.13Z"/>
          <path class="cls-6" d="M26.17,266.56l.18-7.81s-.14-.03-.38-.07c-.62.44-1.69,1.21-1.67,1.24.03.04-.43,7.09-.5,8.17.34-.13,2.36-1.53,2.36-1.53Z"/>
          <path class="cls-2" d="M17.81,263.85l6.58-3.55,1.98-1.62c-.34-.06-9.68-1.62-9.84-1.5-.15.11-2.13.84-2.48,1.14l3.76,5.53Z"/>
          <polygon class="cls-2" points="17.26 262.43 17.05 262.69 17.21 263.98 19.14 264.39 19.42 264.12 19.58 262.77 17.26 262.43"/>
          <path class="cls-10" d="M17.76,263.62l6.83-3.49,1.78-1.45c-.34-.06-9.72-1.84-9.88-1.73-.15.11-2,.99-2.36,1.29l3.63,5.38Z"/>
          <path class="cls-7" d="M13.94,258.31c.72.14,10.42,1.99,10.42,1.99l1.79-1.44.23-.19s-9.73-1.85-9.89-1.73c-.05.04-.31.14-.65.28l-1.89,1.05s0,.02,0,.03Z"/>
          <polygon class="cls-9" points="17 262.5 16.8 262.76 16.95 264.06 18.89 264.46 19.17 264.19 19.33 262.84 17 262.5"/>
          <path class="cls-12" d="M18.8,263.16s-1.36-.29-1.9-.36l.05,1.26,1.93.41h0s-.09-1.31-.09-1.31Z"/>
        </g>
        <g>
          <g>
            <path class="cls-3" d="M18.75,257.36l-.17-.08s-.13.05-.2.14-.08,1.02-.08,1.02l.45-.34.09-.81-.09.06Z"/>
            <path class="cls-12" d="M18.58,256.52c-.48.05-.6.77-.6.77l-.06,1.02.38.14s0-.93.08-1.02.2-.14.2-.14l.17.08.09-.06,1.52-.63s-1.56-.17-1.77-.15Z"/>
            <path class="cls-3" d="M19.58,256.99l.06-.02-.46-.42c-.28-.02-.52-.04-.6-.03-.15.01-.27.1-.35.2.26.04,1.06.21,1.36.27Z"/>
          </g>
          <path class="cls-3" d="M20.83,257.13l-.08.62s.44.07.57.11c.14.03.16.73.12.99-.04.27.58.18.58.18l.35-.53s.1-1.17-.02-1.37c-.12-.2-1.06-.33-1.06-.33l-.32.17-.15.15Z"/>
          <path class="cls-12" d="M21.83,257.4c-.09-.18-.64-.23-1.01-.23l-.07.6s.44.07.57.11c.14.03.16.73.12.99-.04.24.48.2.57.19-.01-.31-.06-1.41-.18-1.65Z"/>
        </g>
        <g>
          <polygon class="cls-17" points="19.66 255.17 20.23 255.35 21.35 256.45 21.47 258.1 18.99 258.28 18.39 256.33 18.48 255.38 19.66 255.17"/>
          <polygon class="cls-9" points="18.15 255 18.14 255.64 20.67 255.34 20.6 254.71 18.15 255"/>
          <polygon class="cls-4" points="21.73 237.21 18.05 245.95 17.94 255.21 20.67 254.84 21.09 247.12 23.82 241.59 23.81 239.17 23.2 237.89 21.73 237.21"/>
        </g>
      </g>
    </g>
  </g>
</svg>