<?xml version="1.0" encoding="UTF-8"?><svg id="Layer_2" xmlns="http://www.w3.org/2000/svg" xmlns:xlink="http://www.w3.org/1999/xlink" viewBox="0 0 2560 939"><defs><style>.cls-1{fill:#002356;}.cls-1,.cls-2,.cls-3,.cls-4,.cls-5,.cls-6,.cls-7,.cls-8,.cls-9,.cls-10,.cls-11,.cls-12,.cls-13,.cls-14,.cls-15,.cls-16,.cls-17,.cls-18,.cls-19,.cls-20,.cls-21,.cls-22{stroke-width:0px;}.cls-2{fill:#f7a4a6;opacity:.88;}.cls-3{fill:#722217;}.cls-4{fill:#ce6b28;}.cls-5{fill:#174b72;}.cls-6{fill:#211010;}.cls-7{fill:#e09b7c;}.cls-8{fill:#fff;}.cls-9{fill:#8c2a20;}.cls-10{fill:#002b69;}.cls-11{fill:#093872;}.cls-12{fill:#9b3a2f;}.cls-13{fill:#e9a684;}.cls-14{fill:#b74d44;}.cls-15{fill:#a13941;}.cls-16{fill:#e5a87a;}.cls-17{fill:url(#linear-gradient);opacity:.3;}.cls-18{fill:#f4bc8e;}.cls-19{fill:#2f729b;}.cls-20{fill:#d7af80;}.cls-21{fill:#8d3c43;}.cls-22{fill:#471910;}</style><linearGradient id="linear-gradient" x1="-134.97" y1="404.9" x2="2722.09" y2="495.96" gradientUnits="userSpaceOnUse"><stop offset=".04" stop-color="#ffdfc0"/><stop offset=".28" stop-color="#f8d6b5"/><stop offset=".7" stop-color="#e6c198"/><stop offset="1" stop-color="#d7af80"/></linearGradient></defs><g id="Layer_3-v2"><rect class="cls-17" width="2560" height="900"/><path class="cls-20" d="m915.53,693.03l-10.05-29.35c-66.2-4.57-41.05-68.77-41.05-68.77l-19.25-18.98c-61.89,29.53-70.26-35.99-70.26-35.99l-30.68-8.3c-52.53,53.56-79.42,1.69-79.42,1.69l-28.42,9.73c-6.47,68.87-67.13,40.7-67.13,40.7l-19.42,19.42c31.43,55.38-39.13,67.84-39.13,67.84l-5.94,30.92c54.93,39.56-1.09,76.51-1.09,76.51l10.22,29.85c71.44,3.33,40.82,66.06,40.82,66.06l23.49,18.08c65.3-21.24,66.16,37.92,66.16,37.92l28.98,8.65c47.62-52.99,80.08-1.08,80.08-1.08l28.92-9.9c5.21-60.94,66.13-40.36,66.13-40.36l21-24.78c-21.28-55.52,36.92-66.06,36.92-66.06l8.31-30.11c-52.23-43.26.79-73.67.79-73.67Zm-173.26,141.02c-55.49,19-115.58-9.7-134.2-64.11-18.63-54.4,11.26-113.91,66.75-132.91,55.49-19,115.58,9.7,134.2,64.11,18.63,54.4-11.26,113.91-66.75,132.91Z"/><circle class="cls-8" cx="709.61" cy="735.32" r="108.22" transform="translate(-21.29 21.16) rotate(-1.68)"/><path class="cls-10" d="m693.39,670.1h0c-1.26.31-2.53-.46-2.84-1.71l-2.66-10.81c-.31-1.26.46-2.53,1.71-2.84,1.26-.31,2.53.46,2.83,1.71l2.66,10.81c.31,1.26-.46,2.53-1.71,2.84Z"/><path class="cls-10" d="m729.61,815.9h0c-1.26.31-2.53-.46-2.84-1.71l-2.66-10.8c-.31-1.26.46-2.53,1.71-2.84,1.26-.31,2.53.46,2.84,1.71l2.66,10.81c.31,1.26-.46,2.53-1.71,2.84Z"/><path class="cls-10" d="m774.83,719.1h0c-.31-1.26.46-2.53,1.71-2.84l10.8-2.66c1.26-.31,2.53.46,2.84,1.71.31,1.26-.46,2.53-1.71,2.84l-10.81,2.66c-1.26.31-2.53-.46-2.84-1.71Z"/><path class="cls-10" d="m629.03,755.32h0c-.31-1.26.46-2.53,1.71-2.84l10.81-2.66c1.26-.31,2.53.46,2.84,1.71.31,1.26-.46,2.53-1.71,2.84l-10.81,2.66c-1.26.31-2.53-.46-2.83-1.71Z"/><path class="cls-10" d="m745.81,675.17h0c-1.11-.67-1.46-2.11-.79-3.22l2.93-4.85c.67-1.11,2.11-1.46,3.22-.79,1.11.67,1.46,2.11.79,3.22l-2.93,4.85c-.67,1.11-2.11,1.46-3.22.79Z"/><path class="cls-10" d="m668.01,804.41h0c-1.11-.67-1.46-2.11-.79-3.22l3.63-6c.67-1.11,2.11-1.46,3.22-.79,1.11.67,1.46,2.11.79,3.22l-3.63,6c-.67,1.11-2.11,1.46-3.22.79Z"/><path class="cls-10" d="m769.77,771.58h0c.67-1.11,2.11-1.46,3.22-.79l4.85,2.93c1.11.67,1.46,2.11.79,3.22-.67,1.11-2.11,1.46-3.22.79l-4.85-2.93c-1.11-.67-1.46-2.11-.79-3.22Z"/><path class="cls-10" d="m640.54,693.78h0c.67-1.11,2.11-1.46,3.22-.79l6,3.63c1.11.67,1.46,2.11.79,3.22-.67,1.11-2.11,1.46-3.22.79l-6-3.63c-1.11-.67-1.46-2.11-.79-3.22Z"/><path class="cls-10" d="m709.83,734.71h0c-.74,1.22-2.33,1.61-3.55.87l-38.37-23.3c-1.22-.74-1.61-2.33-.87-3.55.74-1.22,2.33-1.61,3.55-.87l38.37,23.3c1.22.74,1.61,2.33.87,3.55Z"/><path class="cls-10" d="m710.15,737.93h0c-1.22-.74-1.61-2.33-.87-3.55l19.47-32.06c.74-1.22,2.33-1.61,3.55-.87,1.22.74,1.61,2.33.87,3.55l-19.47,32.06c-.74,1.22-2.33,1.61-3.55.87Z"/><path class="cls-10" d="m718.72,733.08c1.24,5.03-1.83,10.11-6.86,11.35-5.03,1.24-10.11-1.83-11.35-6.86-1.24-5.03,1.83-10.11,6.86-11.35,5.03-1.24,10.11,1.83,11.35,6.86Z"/><path class="cls-15" d="m479.18,855.97l3.48-18.31c-32.85-22-1.04-48.11-1.04-48.11l-4.39-15.63c-40.3-2.84-25.4-39.57-25.4-39.57l-13.27-13.41c-42.57,12.49-41.11-22.58-41.11-22.58l-17.38-3.3c-23.5,33.97-46.26,1.46-46.26,1.46l-15.63,4.42c-.2,38.23-39.91,23.91-39.91,23.91l-11.84,14.46c16.46,36.89-22.74,39.72-22.74,39.72l-3.54,18.62c35.22,22.78,1.2,46.53,1.2,46.53l6.56,16.36c39.61,8.18,22.61,39.34,22.61,39.34l12.28,12.88c39.9-13.64,41.24,22.88,41.24,22.88l17.69,3.36c20.56-30.32,45.61-1.38,45.61-1.38l17.99-6.66c5.43-35.31,38.26-23.58,38.26-23.58l13.33-13.22c-13.99-38.03,22.28-38.2,22.28-38.2Zm-130.45,22.46c-33.94-6.45-56.22-39.2-49.76-73.13,6.45-33.94,39.2-56.22,73.13-49.76,33.94,6.45,56.22,39.2,49.76,73.13-6.45,33.94-39.2,56.22-73.13,49.76Z"/><path class="cls-8" d="m424.09,818.99c-.96,34.59-29.79,61.86-64.38,60.89-34.59-.96-61.86-29.79-60.89-64.38.96-34.59,29.79-61.86,64.38-60.89,34.59.96,61.86,29.79,60.89,64.38Z"/><path class="cls-10" d="m353.08,779.03h0c-.73.16-1.45-.31-1.61-1.04l-1.37-6.3c-.16-.73.31-1.45,1.04-1.61.73-.16,1.45.31,1.61,1.04l1.37,6.3c.16.73-.31,1.45-1.04,1.61Z"/><path class="cls-10" d="m371.7,864h0c-.73.16-1.45-.31-1.61-1.04l-1.37-6.3c-.16-.73.31-1.45,1.04-1.61.73-.16,1.45.31,1.61,1.04l1.37,6.3c.16.73-.31,1.45-1.04,1.61Z"/><path class="cls-10" d="m399.43,808.7h0c-.16-.73.31-1.45,1.04-1.61l6.3-1.37c.73-.16,1.45.31,1.61,1.04.16.73-.31,1.45-1.04,1.61l-6.3,1.37c-.73.16-1.45-.31-1.61-1.04Z"/><path class="cls-10" d="m314.46,827.32h0c-.16-.73.31-1.45,1.04-1.61l6.3-1.37c.73-.16,1.45.31,1.61,1.04.16.73-.31,1.45-1.04,1.61l-6.3,1.37c-.73.16-1.45-.31-1.61-1.04Z"/><path class="cls-10" d="m383.34,782.81h0c-.63-.41-.81-1.25-.41-1.87l1.78-2.76c.41-.63,1.24-.81,1.87-.41.63.41.81,1.24.41,1.87l-1.78,2.76c-.41.63-1.24.81-1.87.41Z"/><path class="cls-10" d="m336.22,856.36h0c-.63-.41-.81-1.24-.41-1.87l2.2-3.41c.41-.63,1.24-.81,1.87-.41.63.41.81,1.24.41,1.87l-2.2,3.41c-.41.63-1.24.81-1.87.41Z"/><path class="cls-10" d="m395.65,839h0c.41-.63,1.24-.81,1.87-.41l2.76,1.78c.63.41.81,1.24.41,1.87-.41.63-1.25.81-1.87.41l-2.76-1.78c-.63-.41-.81-1.25-.41-1.88Z"/><path class="cls-10" d="m322.11,791.88h0c.41-.63,1.25-.81,1.88-.41l3.41,2.2c.63.41.81,1.25.41,1.88-.41.63-1.24.81-1.87.41l-3.41-2.2c-.63-.41-.81-1.24-.41-1.87Z"/><path class="cls-10" d="m361.56,816.69h0c-.45.69-1.38.89-2.07.44l-21.83-14.11c-.7-.45-.89-1.38-.45-2.07.45-.7,1.38-.89,2.07-.45l21.83,14.11c.7.45.89,1.38.45,2.07Z"/><path class="cls-10" d="m361.69,818.56h0c-.7-.45-.89-1.38-.45-2.07l11.79-18.24c.45-.7,1.38-.89,2.07-.45.7.45.89,1.38.45,2.07l-11.79,18.24c-.45.7-1.38.89-2.07.45Z"/><path class="cls-10" d="m366.72,815.89c.64,2.93-1.22,5.82-4.15,6.46-2.93.64-5.82-1.22-6.46-4.15-.64-2.93,1.22-5.82,4.15-6.46,2.93-.64,5.82,1.22,6.46,4.15Z"/><path class="cls-18" d="m515.22,445.06c-.48.58-1.5,2.03-1.5,2.03l3.47.3,6.82-2.51s1.6-4.46,2.84-5.52c1.24-1.05,2.51-.61,2.51-.61,0,0-2.72,6.06-3.89,10.33-.2.72-1.11,1.22-2.14,2.11-.04.75-.23,1.86-1.51,2.36-.49,1.39-1.6,1.58-3.44,2.24-1.29.46-6.18,2.28-8.02,3.06-1.91.81-4.35,2.17-7.82,3.69l-2.56-6.46c2.86-.89,6.79-2.87,7.12-3.03.69-.33.79-3.17,2.15-4.79,1.37-1.62,6.59-7.42,6.86-8.26.64.04,1.59.42,1.18,2.12-.19.79-1.28,2-2.07,2.95Z"/><path class="cls-18" d="m302.88,524.37s-2.92,6.34-2.85,7.47c.09,1.55.52,2.91.64,4.46.06.8-.16,1.6-.29,2.38-.13.8-.25,1.61-.37,2.41-.04.27-.08.53-.12.8,0,0-.03,3.79.31,5.38.34,1.59.75,4-.9,3.84-1.64-.16-2.5-2.92-2.7-4.85-.2-1.93-1.13-3.67-1.59-2.84-1.25,2.22-2.04,4.91-2.83,7.32-1.21,3.73-2.42,7.74-3.78,5.4-.26-.45-.2-1-.11-1.5.59-3.54,2.05-6.99,2.43-10.57.06-.59-.34-1.02-.77-.31-.44.7-3.37,6.1-4.3,7.84-.55,1.03-1.09,2.08-1.75,3.05-.29.42-.63.91-1.12,1.13-.51.22-1.29.06-1.54-.48-.12-.26-.09-.56-.05-.83.17-1.03.63-2,1.07-2.93.61-1.28,1.31-2.52,1.98-3.77,1.41-2.68,2.61-4.95,2.61-5.52,0-.57-.14-.8-1.02.33-.88,1.14-4.55,6.97-5.12,7.71-.56.74-1.22,1.05-1.68.68-.5-.39-1.43-.76,3.42-8.45.87-1.4,1.83-2.66,1.9-3.09.08-.43-.4-.79-1.26,0-.85.79-3.04,3.25-3.72,3.04-.67-.21-1.46-.59,1.05-3.55,2.52-2.96,4.96-6.3,6.14-7.39,1.17-1.09,3.28-1.78,4.22-2.73.94-.95,4.29-8.53,4.29-8.53l7.81,4.11Z"/><g id="BM1"><path class="cls-6" d="m330.74,682.91c-1.39.58-7.99,9.78-7.99,9.78l-1.16,6.02,17.55,7.59,12.82,5.02,2.69-7.95-14.71-14.24-9.21-6.22Z"/><path class="cls-6" d="m454.03,640.89c.93,1.17,0,0,0,0l7.98,11.62,15.26,5.99-2.85,8.55-34.05-.63-2-3.78s.28-8.06.93-8.31l3.36-15.25,11.37,1.8Z"/><path class="cls-10" d="m413.96,426.42l-21.1-4.82-9.14.24-12.16,3.11-11.21,7.91-1.38,22.72-.73,8.85,2.33,33.49-2.14,22.67-7.68,30.47,8.66,10.15c-11.61,41.59-23.22,83.19-34.83,124.78l22.97,7.69c15.54-38.71,31.08-77.41,46.62-116.12,17.33,4.42,34.67,8.84,52,13.27-3.54,19.28-7.07,38.56-10.61,57.84,9.37.88,18.75,1.77,28.12,2.65,4.95-27.24,9.9-54.48,14.86-81.72-18.34-4.29-36.67-8.58-55.01-12.88l2.44-4.73-1.67-42.59.09-55.38.28-21.23-10.72-6.4Z"/><path class="cls-1" d="m396.17,426.37c9.06,2.03,18.13,4.05,27.19,6.08,11.67,11.94,23.35,23.88,35.02,35.82,14.26-5.96,28.51-11.91,42.77-17.87l.12,17.16c-15.98,6.25-31.96,12.5-47.93,18.75-13.87-13.42-27.74-26.84-41.61-40.26l-15.57-19.67Z"/><polygon class="cls-8" points="504.86 451.73 501.52 451.54 501.2 463.93 504.36 463.4 504.86 451.73"/><polygon class="cls-10" points="413.96 426.42 392.86 421.6 383.73 421.84 371.57 424.95 355.4 431.67 355.44 451.83 353.45 470.11 358.17 497.84 356.02 520.52 350.76 551.07 359.42 561.21 371.07 567.21 378.57 546.01 411.8 545.43 414.88 557.38 423.54 556.74 425.98 552.01 427.07 509.5 427.71 470.5 424.68 432.81 413.96 426.42"/><polygon class="cls-16" points="383.41 427.1 402.45 459.91 411.93 434.2 409.76 427.64 408.69 426.72 410.16 409.11 389.94 407.01 388.22 420.55 383.41 427.1"/><path class="cls-8" d="m404.1,436.11c-16.4,1.28-18.01-12.2-18.01-12.2l1.43-2.42-10.48,6.37,3.99,31.69-2.46,86.46c14.27,1.3,28.66.84,36.5-.64l2.56-45.42.64-38.58.32-19.69-4.7-13.06-4.95-4.87-.25,2.98s3.25,8.78-4.59,9.39Z"/><path class="cls-18" d="m393.63,376.4s-12.7,6.49-16.24,8.96c-10.75,7.5-8.94,13.92-.47,25.79,5.2,7.28,16.24,5.62,16.24,5.62l4.19,3.51c2.93-.48,13.3.22,13.3.22l8.71-5.16-1.85-11.77s-8.83-15.2-9.33-15.76c0,0-3.48-6.36-7.24-9.38-3.01-2.41-7.31-2.02-7.31-2.02Z"/><path class="cls-4" d="m394.42,368.97l-7.8,4.5s-9.67,5.49-12,7.12c-10.42,7.27-8.36,21.06.27,32.26l10.36,7.02,5.9,1.3-1.8-9.63c1.44-1.4,4.84-4.78,4.84-4.78l-7.56-12.65,1.7-8.53,10.94-4.57,2.65-1.71.59-3.58-2.43-4.11-1.23,1.27-4.44-3.93Z"/><path class="cls-18" d="m394.19,405.84c.97,3.45,1.34,5.35-1.76,5.7-1.67.19-3.73.5-6.22-3.59-1.87-3.07-.82-6.75,2.19-7.61,3.01-.86,4.82,2.05,5.79,5.5Z"/></g><polygon class="cls-8" points="290.5 522.79 288.77 526.4 303.9 531.28 305.14 527.51 290.5 522.79"/><polygon class="cls-11" points="357.15 430.98 313.46 471.1 288.71 523.43 305.24 528.43 327.67 485.66 357.6 461.32 363.87 447.56 363.73 438.66 357.15 430.98"/><path class="cls-13" d="m597.22,352.42c.84-.37,2.87-1.1,2.87-1.1l-.78,4.17-5.16,7.19s-5.76.43-7.41,1.54c-1.64,1.11-1.54,2.75-1.54,2.75,0,0,8-1.23,13.4-1.21.92,0,1.8-.91,3.17-1.83.9.2,2.26.34,3.27-1.01,1.8-.13,2.38-1.36,3.75-3.31.96-1.36,4.69-6.53,6.2-8.43,1.58-1.98,3.97-4.41,6.87-7.99l-6.75-5.1c-1.97,3.07-5.57,7.05-5.87,7.39-.61.7-3.98-.1-6.33.97-2.35,1.08-10.87,5.33-11.94,5.37-.16.77-.03,2.01,2.1,2.07,1,.03,2.76-.86,4.14-1.47Z"/><g id="BM1-2"><path class="cls-6" d="m738.26,514.8c-1.2,1.02-4.9,12.34-4.9,12.34l.75,6.4,19.99,2.04,14.44.96.17-8.82-19.25-9.6-11.2-3.31Z"/><path class="cls-6" d="m660.71,506.74c-.98,1.23,0,0,0,0l-8.39,12.21-16.04,6.29,3,8.99,35.79-.66,2.1-3.97s-.29-8.47-.98-8.73l-3.53-16.03-11.95,1.89Z"/><path class="cls-10" d="m684.97,236.57l22.17-5.06,9.6.25,12.78,3.27,11.78,8.32,1.45,23.88.76,9.3-2.44,35.2,2.25,23.83c-.11,10.86-.23,21.73-.34,32.59-1.41,7.2-2.82,14.4-4.23,21.6,8.26,43.78,16.53,87.56,24.79,131.33-10.24.24-20.49.47-30.73.71-8.57-38.45-17.14-76.89-25.71-115.34-9.67,37.8-19.34,75.6-29.01,113.4-9.67-.73-19.34-1.47-29.01-2.2,8.61-48.04,17.21-96.07,25.82-144.11l-2.57-4.97,1.76-44.76-.09-58.2-.3-22.31,11.27-6.72Z"/><path class="cls-1" d="m703.67,236.52c-9.53,2.13-19.05,4.26-28.58,6.39-10.13,16.86-20.27,33.72-30.4,50.57-12.75,15.09-25.49,30.18-38.24,45.27,4.1,5.27,8.2,10.55,12.31,15.82,12.45-14.8,24.91-29.6,37.36-44.39,10.4-17.66,20.8-35.32,31.19-52.99,5.45-6.89,10.91-13.78,16.36-20.68Z"/><path class="cls-10" d="m684.97,236.57l22.17-5.06,9.6.25,12.78,3.27,17,7.06-.05,21.19,2.09,19.2-4.95,29.15,2.25,23.83c1.55,4.49,4.22,10.65,8.93,17.08,4.08,5.56,8.39,9.57,11.82,12.29-4.58,1.7-13,4.15-23.64,3.31-9.42-.74-16.62-3.74-20.82-5.88l-34.92-.61-3.24,12.56c-3.89-1.88-7.78-3.76-11.67-5.65l-1.14-44.68-.68-40.99,3.18-39.6,11.27-6.72Z"/><polygon class="cls-7" points="717.08 237.28 697.07 271.76 687.1 244.74 689.39 237.85 690.51 236.89 688.97 218.38 710.21 216.17 712.03 230.4 717.08 237.28"/><path class="cls-8" d="m695.33,246.75c17.23,1.35,18.93-12.82,18.93-12.82l-1.51-2.54,11.01,6.69-4.19,33.3,2.59,90.86c-15,1.37-30.12.88-38.36-.67l-2.69-47.73-.67-40.55-.34-20.7,4.94-13.73,5.2-5.12.26,3.13s-3.41,9.22,4.82,9.87Z"/><path class="cls-13" d="m673.92,192.66s13.25-7.01,17.51-8.56c12.95-4.71,17.37.71,22.46,15.17,3.12,8.86-4.97,17.36-4.97,17.36l.49,5.73c-2.18,2.23-7.84,11.57-7.84,11.57-8.75,4.65-13.08,2.71-14.39,1.97-2.37-1.33-3.19-3.45-8.2-14.78-1.76-3.98-3.19-7.17-4.03-9.06-.87-1.09-4.27-5.62-3.7-11.89.32-3.55,1.78-6.15,2.68-7.51Z"/><path class="cls-6" d="m659.92,186.09h16.41c1.53-1.65,5.78-5.81,12.67-7.26,7.73-1.63,13.8,1.19,16.04,2.28,9.61,4.64,13.23,13.57,14.07,15.82.7,1.76,3.16,8.59.29,16.41-2.08,5.66-5.89,8.94-7.62,10.26-1.69-4.47-3.37-8.94-5.06-13.4-2.07.39-7.03,1.28-7.03,1.28l-6.31-14.14-8.36-3.69-10.54,6.65-3.07,1.25c-.47.21-5.49,2.34-9.43-.22-4.09-2.65-5.57-9.41-2.05-15.24Z"/><path class="cls-13" d="m698.91,210.92c2.38,2.92,3.8,4.38,5.97,1.93,1.17-1.32,2.68-2.9.67-7.52-1.51-3.46-5.31-4.78-7.87-2.71-2.56,2.06-1.15,5.39,1.23,8.3Z"/></g><polygon class="cls-11" points="744.67 241.37 790.59 283.52 816.6 338.53 799.23 343.78 775.65 298.83 744.2 273.25 737.62 258.79 737.76 249.44 744.67 241.37"/><path class="cls-9" d="m852.04,411.11s-63.68,18.45-65.03,18.34c-1.34-.11-16.28-10.49-16.28-10.49l-1.25-53.13s66.16-12.55,67.29-11.75c1.14.8,16.99,8.22,17.04,8.57.2,1.58-1.77,48.47-1.77,48.47Z"/><path class="cls-3" d="m770.68,418.98l-1.25-53.13s.93-.18,2.56-.48c4.23,2.98,11.5,8.25,11.34,8.44-.21.25,2.91,48.23,3.39,55.6-2.34-.9-16.03-10.42-16.03-10.42Z"/><path class="cls-22" d="m827.49,400.49l-44.76-24.17-13.47-11c2.28-.43,65.8-11,66.91-10.22,1.04.73,14.5,5.72,16.88,7.77l-25.56,37.62Z"/><polygon class="cls-22" points="831.27 390.86 832.67 392.6 831.61 401.42 818.49 404.2 816.6 402.32 815.51 393.19 831.27 390.86"/><path class="cls-12" d="m827.88,398.94l-46.46-23.76-12.09-9.88c2.28-.43,66.11-12.52,67.22-11.74,1.04.73,13.63,6.71,16.02,8.75l-24.7,36.62Z"/><path class="cls-14" d="m853.8,362.84c-4.9.97-70.85,13.56-70.85,13.56l-12.16-9.78-1.54-1.31s66.16-12.55,67.29-11.75c.35.25,2.13.98,4.41,1.92l12.84,7.14c0,.07,0,.14,0,.21Z"/><polygon class="cls-8" points="832.99 391.34 834.4 393.08 833.34 401.91 820.19 404.69 818.29 402.81 817.2 393.67 832.99 391.34"/><path class="cls-2" d="m820.77,395.81s9.24-1.96,12.9-2.44l-.33,8.55-13.15,2.78-.05-.04.63-8.84Z"/><path class="cls-5" d="m821.12,356.38l1.18-.52s.87.33,1.38.98.52,6.95.52,6.95l-3.08-2.29-.58-5.53.58.4Z"/><path class="cls-19" d="m822.3,350.67c3.25.32,4.06,5.22,4.06,5.22l.4,6.93-2.57.98s0-6.31-.52-6.95-1.38-.98-1.38-.98l-1.18.52-.58-.4-10.3-4.3s10.63-1.15,12.07-1.01Z"/><path class="cls-5" d="m815.49,353.88l-.38-.16,3.14-2.83c1.91-.16,3.55-.27,4.05-.22,1.03.1,1.81.66,2.4,1.38-1.75.26-7.24,1.41-9.22,1.83Z"/><path class="cls-5" d="m807.01,354.84l.53,4.24s-2.98.51-3.91.73c-.92.22-1.12,4.95-.82,6.75.29,1.8-3.95,1.26-3.95,1.26l-2.39-3.59s-.65-7.96.14-9.3c.8-1.34,7.21-2.24,7.21-2.24l2.16,1.15,1.04,1Z"/><path class="cls-19" d="m800.19,356.63c.64-1.24,4.38-1.57,6.85-1.6l.5,4.05s-2.98.51-3.91.73c-.92.22-1.12,4.95-.82,6.75.27,1.66-3.28,1.33-3.87,1.27.08-2.1.43-9.62,1.25-11.2Z"/><polygon class="cls-13" points="806.44 341.16 804.23 343.5 801.82 351.64 805.56 359.73 817.8 354.06 815.46 343.27 812.53 339.03 806.44 341.16"/><polygon class="cls-21" points="700.51 248.28 705.6 252.5 703.44 257.75 695.07 257.89 693.16 252.71 698.19 248.31 700.51 248.28"/><polygon class="cls-21" points="703 259.17 695 259.3 691.73 333.48 700.96 348.43 711.84 334.59 703 259.17"/></g></svg>