<?xml version="1.0" encoding="UTF-8"?><svg id="Layer_2" xmlns="http://www.w3.org/2000/svg" xmlns:xlink="http://www.w3.org/1999/xlink" viewBox="0 0 2560 939"><defs><style>.cls-1{fill:#002356;}.cls-1,.cls-2,.cls-3,.cls-4,.cls-5,.cls-6,.cls-7,.cls-8,.cls-9,.cls-10,.cls-11,.cls-12,.cls-13{stroke-width:0px;}.cls-2{fill:#282644;}.cls-3{fill:#ce6b28;}.cls-4{fill:#211010;}.cls-5{fill:#fff;}.cls-6{fill:#002b69;}.cls-7{fill:#093872;}.cls-8{fill:#a13941;}.cls-9{fill:#e5a87a;}.cls-10{fill:#e8e8e8;}.cls-11{fill:url(#linear-gradient);opacity:.3;}.cls-12{fill:#3c3b50;}.cls-13{fill:#f4bc8e;}</style><linearGradient id="linear-gradient" x1="-134.97" y1="404.9" x2="2722.09" y2="495.96" gradientUnits="userSpaceOnUse"><stop offset=".04" stop-color="#ffdfc0"/><stop offset=".28" stop-color="#f8d6b5"/><stop offset=".7" stop-color="#e6c198"/><stop offset="1" stop-color="#d7af80"/></linearGradient></defs><g id="Layer_3-v2"><rect class="cls-11" width="2560" height="900"/><path class="cls-8" d="m0,714.17c42.36,2.79,83.31,5.58,125.67,8.37l130.5,37.17,126,14.87c14.36,43.42,26.88,84.01,41.24,127.43-46.19,12.33-92.39,24.67-138.58,37-59.67-3.56-119.33-7.11-179-10.67C70.56,919.56,35.28,910.79,0,902.01v-187.85Z"/><path class="cls-8" d="m468.49,899.79c20.86-33.39,41.99-61.95,62.85-95.34,35.97-19.05,71.94-38.1,107.91-57.16,177.95-3.86,355.91-7.72,533.86-11.58,182.63,27.17,365.25,54.34,547.88,81.51,45.14,27.45,89.83,55.34,134.98,82.78-41.82,12.33-83.65,24.67-125.47,37-212.44-3.78-424.89-7.56-637.33-11.33-179.11,4.44-358.22,8.89-537.33,13.33l-87.35-39.21Z"/><path class="cls-5" d="m128.9,717.36c.02.38-.29.68-.66.68l-56.96-1.11c-.37,0-.66-.33-.63-.7l.09-1.03.02-.26c.12-1.42,3.22-3.04,4.98-3.85l.14-6.96c.04-1.93.57-3.82,1.54-5.49,4.02-6.88,14.84-26.71,15.38-41.6-11.81-.81-17.57-2.48-17.53-4.61.04-1.99,4.76-3.85,15.38-4.33-6.05-4.07-10.02-11.45-9.86-19.81.24-12.55,9.67-20.37,21.11-20.15,11.44.22,20.56,8.4,20.31,20.95-.16,8.36-4.42,15.58-10.62,19.42,10.59.89,14.82,2.92,14.78,4.92-.04,2.14-5.45,3.59-17.28,3.94-.03,12.93,7.53,29.9,11.97,38.75.67,1.34,1.28,2.5,1.77,3.42.91,1.71,1.37,3.61,1.33,5.55l-.14,6.96c1.73.88,4.76,2.63,4.82,4.05l.06,1.29Z"/><path class="cls-10" d="m109.08,657.35s-4.89.18-8.15.39c-3.26.21,9.19,8.98,9.19,8.98,0,0-.74-6.09-1.04-9.36Z"/><path class="cls-10" d="m128.24,718.04l-56.96-1.11c-.37,0-.66-.33-.63-.7l.09-1.03.02-.26c.12-1.41,3.22-3.04,4.98-3.86v-.09c16.47-2.76,37.86-11.65,45.31-14.89.67,1.34,1.28,2.49,1.77,3.42.91,1.71,1.37,3.61,1.33,5.55l-.14,6.96s0,0,.03.01c1.73.88,4.73,2.62,4.8,4.03l.06,1.29c.02.38-.28.69-.66.68Z"/><path class="cls-10" d="m100.5,610.66c-.14-.57-.72-.87-1.27-.75-4.44.94-8.56,2.88-11.74,6.18-.87.9-1.67,1.88-2.41,2.89-.34.45-.1,1.16.35,1.44.52.32,1.1.11,1.44-.35,1.12-1.52,2.45-2.99,4-4.23,1.39-1.12,3.29-2.17,5.02-2.81,1.26-.47,2.55-.82,3.86-1.1.55-.12.89-.74.76-1.27Z"/><path class="cls-10" d="m85.3,621.72c-.07-.12-.17-.21-.29-.27-.24-.13-.53-.2-.8-.12-.26.08-.49.23-.63.47-.29.49-.51,1.04-.64,1.6-.05.14-.06.28-.03.42,0,.14.04.27.12.39.06.12.15.22.26.3.1.09.22.16.35.19.27.07.57.06.81-.09.22-.14.43-.35.49-.62.06-.26.14-.51.24-.76.06-.12.11-.23.18-.34.14-.24.19-.53.12-.8-.03-.14-.09-.26-.18-.36Z"/><path class="cls-5" d="m128.24,718.04l-56.96-1.11c-.37,0-.66-.33-.63-.7l.09-1.03.02-.26c.12-1.41,3.22-3.04,4.98-3.86,10.32,1.98,48.27.94,48.27.94,0,0,0,0,.03.01,1.73.88,4.73,2.62,4.8,4.03l.06,1.29c.02.38-.28.69-.66.68Z"/><path class="cls-5" d="m245.78,747.95c-.06.45-.48.75-.92.67l-67.39-13.13c-.44-.09-.72-.53-.6-.96l.32-1.2.08-.31c.44-1.66,4.45-2.94,6.71-3.54l1.6-8.23c.45-2.29,1.47-4.42,2.97-6.2,6.2-7.34,23.15-28.64,26.88-46.2-13.85-3.41-20.35-6.59-19.86-9.11.46-2.36,6.45-3.58,19.15-1.95-6.34-6.09-9.52-15.67-7.6-25.57,2.89-14.85,15.71-22.18,29.24-19.54,13.53,2.64,22.66,14.24,19.77,29.09-1.93,9.9-8.48,17.59-16.64,20.85,12.39,3.26,16.99,6.54,16.53,8.9-.49,2.53-7.22,3.13-21.34,1.09-2.72,15.35,2.74,37.06,6.18,48.48.52,1.73,1,3.23,1.39,4.43.72,2.22.87,4.57.43,6.86l-1.6,8.23c1.87,1.4,5.1,4.1,4.89,5.8l-.19,1.55Z"/><path class="cls-10" d="m234.69,672.59s-5.84-.8-9.76-1.23c-3.92-.43,9.05,12.57,9.05,12.57,0,0,.39-7.38.71-11.33Z"/><path class="cls-10" d="m245.97,746.4l-.19,1.55c-.06.45-.48.75-.92.67l-67.4-13.13c-.44-.08-.72-.52-.6-.96l.32-1.2.08-.31c.44-1.66,4.45-2.94,6.71-3.55l.02-.11c20.13.14,47.37-5.98,56.88-8.28.52,1.73.99,3.23,1.39,4.43.73,2.22.87,4.57.42,6.86l-1.6,8.23c1.87,1.41,5.11,4.11,4.89,5.8Z"/><path class="cls-10" d="m234.19,615.38c-.05-.7-.67-1.18-1.35-1.16-5.47.2-10.75,1.65-15.21,4.9-1.22.89-2.37,1.89-3.47,2.93-.49.47-.36,1.36.11,1.78.55.48,1.28.36,1.78-.11,1.65-1.57,3.53-3.05,5.62-4.19,1.89-1.04,4.35-1.89,6.54-2.29,1.59-.29,3.2-.44,4.81-.5.68-.02,1.21-.69,1.16-1.35Z"/><path class="cls-10" d="m213.85,625.35c-.06-.15-.16-.28-.28-.39-.26-.21-.59-.35-.93-.31-.32.04-.64.17-.85.42-.44.53-.83,1.13-1.09,1.76-.08.15-.12.32-.12.49-.02.17,0,.33.06.49.05.16.13.3.25.41.1.13.22.23.38.3.3.13.66.19.98.06.29-.12.59-.33.71-.63.12-.3.27-.58.44-.85.09-.13.18-.25.28-.37.21-.25.34-.6.31-.93,0-.17-.05-.32-.14-.46Z"/><path class="cls-5" d="m245.97,746.4l-.19,1.55c-.06.45-.48.75-.92.67l-67.4-13.13c-.44-.08-.72-.52-.6-.96l.32-1.2.08-.31c.44-1.66,4.45-2.94,6.71-3.55,0,0,48.53,10.59,57.11,11.13,1.87,1.41,5.11,4.11,4.89,5.8Z"/><path class="cls-5" d="m384.19,771.03c-.02.55-.5.96-1.04.9l-82.76-8.65c-.54-.06-.92-.56-.83-1.1l.26-1.48.07-.38c.35-2.05,5.06-4.03,7.72-5l1.06-10.11c.29-2.81,1.3-5.49,2.92-7.8,6.7-9.52,24.89-37.05,27.51-58.65-17.09-2.63-25.27-5.78-24.95-8.88.3-2.9,7.4-5.01,22.91-4.4-8.3-6.67-13.17-17.9-11.9-30.05,1.91-18.24,16.59-28.45,33.21-26.71,16.62,1.74,28.88,14.76,26.97,33-1.27,12.15-8.36,22.14-17.86,26.95,15.3,2.61,21.21,6.08,20.9,8.98-.32,3.1-8.38,4.55-25.64,3.59-1.64,18.82,7.27,44.44,12.64,57.87.82,2.03,1.55,3.79,2.15,5.2,1.11,2.6,1.54,5.43,1.25,8.23l-1.06,10.11c2.4,1.49,6.6,4.41,6.52,6.48l-.07,1.89Z"/><path class="cls-10" d="m362.75,681.25s-7.14-.35-11.91-.44c-4.78-.1,12.27,14.2,12.27,14.2,0,0-.32-8.95-.36-13.76Z"/><path class="cls-10" d="m384.25,769.14l-.07,1.89c-.02.55-.5.96-1.04.9l-82.77-8.65c-.54-.05-.92-.56-.83-1.1l.26-1.48.07-.38c.35-2.05,5.06-4.03,7.72-5v-.13c24.32-1.98,56.55-12.28,67.79-16.08.82,2.04,1.55,3.79,2.15,5.2,1.11,2.6,1.54,5.43,1.25,8.23l-1.05,10.11c2.4,1.5,6.6,4.41,6.52,6.48Z"/><path class="cls-10" d="m356.02,612.23c-.14-.84-.94-1.36-1.76-1.26-6.58.83-12.81,3.14-17.84,7.55-1.38,1.21-2.66,2.53-3.87,3.91-.54.62-.3,1.68.33,2.13.71.52,1.59.29,2.13-.33,1.82-2.07,3.94-4.06,6.34-5.66,2.17-1.45,5.05-2.75,7.65-3.47,1.89-.52,3.82-.88,5.76-1.12.82-.1,1.39-.97,1.26-1.76Z"/><path class="cls-10" d="m332.54,626.45c-.09-.18-.22-.32-.39-.44-.33-.22-.75-.36-1.15-.28-.39.08-.75.27-.98.6-.48.68-.88,1.45-1.12,2.25-.08.2-.11.4-.09.6-.01.2.03.4.12.58.08.19.19.34.35.47.13.15.3.26.49.33.38.13.82.16,1.19-.03.34-.17.68-.46.79-.83.12-.37.27-.73.44-1.08.1-.16.19-.32.3-.48.23-.33.34-.76.28-1.15-.03-.2-.1-.38-.22-.54Z"/><path class="cls-5" d="m384.25,769.14l-.07,1.89c-.02.55-.5.96-1.04.9l-82.77-8.65c-.54-.05-.92-.56-.83-1.1l.26-1.48.07-.38c.35-2.05,5.06-4.03,7.72-5,0,0,59.72,7.59,70.14,7.33,2.4,1.5,6.6,4.41,6.52,6.48Z"/><path class="cls-13" d="m835.98,358.85c-.41,1.07-1.17,3.63-1.17,3.63l5.12-1.25,8.58-6.9s.14-7.18,1.41-9.3c1.27-2.11,3.31-2.1,3.31-2.1,0,0-.98,10.02-.59,16.71.06,1.14-1.01,2.3-2.06,4.06.31,1.1.57,2.79-1.03,4.12-.03,2.24-1.53,3.05-3.85,4.88-1.63,1.28-7.78,6.26-10.04,8.27-2.35,2.09-5.2,5.23-9.44,9.08l-6.8-8.03c3.68-2.66,8.36-7.4,8.77-7.79.83-.8-.4-4.93.78-7.92,1.18-2.99,5.88-13.85,5.85-15.18.94-.25,2.49-.17,2.71,2.47.1,1.23-.88,3.49-1.54,5.24Z"/><g id="BM1"><path class="cls-4" d="m838.23,744.83c1.5,1.01,0,0,0,0l13.4,10.48,19.73,1.35-.18,10.88-39.41,11.64-3.67-3.63s-2.61-9.37-1.94-9.9l-1.67-18.77,13.74-2.06Z"/><path class="cls-4" d="m586.55,745.51c-1.77.4-11.52,9.97-11.52,9.97l-2.62,6.92,19.29,12.65,14.2,8.61,4.84-8.9-14.54-19.97-9.66-9.29Z"/><path class="cls-6" d="m732.64,440.92l-25.45-5.81-11.02.29-14.67,3.75-13.52,9.55-1.66,27.42-.88,10.67c-1.87,25.43-4.55,41.72-6.8,52.19-3.52,16.42-5.28,24.63-5.36,24.87-3.19,10.06-5.92,14.42-3.83,17.98,1.69,2.87,6.73,5.6,22.57,3.19-8.29,31.46-16.58,62.91-24.87,94.37-21.93,22.19-43.87,44.38-65.8,66.57,7.14,7.65,14.28,15.3,21.42,22.95,23.3-24.68,46.61-49.36,69.91-74.04,12.03-23.86,24.06-47.72,36.08-71.58,22.95,13.21,45.91,26.42,68.86,39.64,14.66,31.88,29.32,63.77,43.97,95.65,11.6-1.91,23.21-3.83,34.81-5.74-17.98-35.71-35.96-71.41-53.94-107.12-21.17-19.51-42.34-39.02-63.51-58.53,2.95-.83,5.21-2.06,6.89-3.25,11.98-8.49,10.88-26.33,10.71-28.5-2.68-25.25-5.36-50.5-8.03-75.75-.99-10.35-1.98-20.7-2.97-31.05l-12.94-7.72Z"/><path class="cls-1" d="m711.18,440.86c10.94,2.44,21.87,4.89,32.81,7.33,12.17-8.65,24.34-17.31,36.51-25.96,13.31-16.92,26.62-33.84,39.93-50.76,4.56,5.7,9.13,11.41,13.69,17.11-13.31,18.25-26.62,36.5-39.93,54.76-16.92,14.64-33.84,29.28-50.76,43.92-10.75-15.46-21.49-30.93-32.24-46.39Z"/><polygon class="cls-5" points="825.6 370.51 821.77 373.3 832.58 387.15 835.56 383.73 825.6 370.51"/><path class="cls-6" d="m732.64,440.92l-25.45-5.81-11.02.29-14.67,3.75-19.51,8.1.05,24.33-2.4,22.05,5.69,33.46-2.59,27.36c.72,7.47,1.43,14.94,2.15,22.4,4.25,1.87,8.5,3.74,12.75,5.61,3.23,3.57,6.46,7.14,9.69,10.71.87-2.66,1.74-5.31,2.61-7.97l40.09-.7c.62,1.85,1.25,3.7,1.87,5.54.96-.57,1.91-1.15,2.87-1.72.77-1.59,1.53-3.19,2.3-4.78,3.8-14.13,7.59-28.26,11.39-42.39l.78-47.05-3.65-45.47-12.94-7.72Z"/><polygon class="cls-9" points="695.78 441.74 718.76 481.33 730.19 450.31 727.57 442.4 726.28 441.29 728.05 420.04 703.66 417.5 701.58 433.84 695.78 441.74"/><path class="cls-5" d="m720.75,452.61c-19.78,1.55-21.73-14.72-21.73-14.72l1.73-2.92-12.64,7.68,4.81,38.23-2.97,104.31c17.22,1.57,34.58,1.02,44.04-.77l3.08-54.8.77-46.55.39-23.76-5.67-15.76-5.97-5.88-.3,3.59s3.92,10.59-5.54,11.33Z"/><path class="cls-13" d="m708.11,380.58s-15.33,7.83-19.59,10.81c-12.97,9.05-10.79,16.79-.57,31.11,6.27,8.78,19.59,6.78,19.59,6.78l5.06,4.23c3.54-.58,16.04.26,16.04.26l10.51-6.22-2.23-14.21s-10.65-18.34-11.26-19.02c0,0-4.2-7.68-8.73-11.32-3.63-2.91-8.82-2.44-8.82-2.44Z"/><path class="cls-3" d="m709.06,371.61l-9.41,5.43s-11.66,6.62-14.48,8.59c-12.57,8.78-10.09,25.41.32,38.92l12.5,8.47,7.12,1.56-2.17-11.62c1.73-1.69,5.84-5.77,5.84-5.77l-9.12-15.26,2.05-10.29,13.2-5.52,3.2-2.06.72-4.31-2.93-4.96-1.49,1.54-5.35-4.74Z"/><path class="cls-13" d="m708.79,416.1c1.18,4.16,1.61,6.46-2.13,6.88-2.01.23-4.5.61-7.5-4.33-2.26-3.7-.99-8.14,2.64-9.18,3.63-1.04,5.82,2.48,6.99,6.63Z"/></g><path class="cls-13" d="m662.76,362.88s.77-8.38,1.51-9.53c1.03-1.57,2.3-2.72,3.36-4.28.55-.8.79-1.77,1.13-2.66.35-.92.71-1.83,1.06-2.75.12-.3.24-.61.36-.91,0,0,2.25-3.98,3.56-5.44s3.19-3.73,1.38-4.56c-1.82-.82-4.37,1.55-5.74,3.45-1.37,1.9-3.39,3.15-3.38,2.01.03-3.08.82-6.36,1.46-9.36.98-4.63,2.13-9.55-.7-7.92-.54.31-.81.92-1.03,1.5-1.51,4.06-2.06,8.54-3.83,12.51-.29.66-.96.86-1-.14-.03-1,.15-8.41.23-10.78.05-1.41.12-2.83,0-4.24-.05-.62-.11-1.33-.49-1.85-.4-.53-1.31-.84-1.9-.43-.28.2-.44.53-.55.84-.44,1.17-.55,2.46-.64,3.71-.13,1.71-.15,3.42-.21,5.13-.13,3.65-.26,6.74-.6,7.34-.35.6-.63.76-.87-.96-.24-1.72-.56-10.03-.71-11.14-.14-1.11-.64-1.83-1.35-1.73-.75.1-1.95-.07-1.52,10.9.07,1.99.31,3.88.13,4.37-.18.49-.9.59-1.32-.75-.42-1.34-1.22-5.23-2.05-5.42-.83-.19-1.88-.27-1.04,4.34.85,4.62,1.39,9.58,1.96,11.42.57,1.84,2.36,3.83,2.77,5.39.41,1.56-.66,11.5-.66,11.5l10.65.41Z"/><polygon class="cls-5" points="648.86 357.08 649.23 352.26 667.99 356.28 667.02 360.97 648.86 357.08"/><polygon class="cls-7" points="663.24 493.2 641.73 424.95 647.38 355.33 667.67 360.06 665.36 418.29 681.99 461.76 680.25 479.92 674.75 489.14 663.24 493.2"/><path class="cls-12" d="m939.53,331.8l-49.69,123.73c-1.2,2.99-4.46,4.59-7.56,3.72-1.94-.54-4.25-1.21-6.67-1.96-2.38-.74-4.88-1.56-7.24-2.42-6.13-2.21-10.89-4.87-11.85-6.7-3.07-5.86-20.09-48.1-26.16-48.44-6.08-.34-21.68-1.28-20.51-14.13,1.16-12.84-91.01-44.09-91.01-44.09,0,0-20.23,30.48-25.79,16.71-4.18-10.33-2.32-20.74-1.13-25.3,0,0,0-.01,0-.02.31-1.22.59-2.02.68-2.28.01-.03.02-.06.03-.09,0,0-73.86-6.14-76.68-9.05-2.22-2.28,1.92-21.48,5.59-35l-17.91-7.19-7.93,19.76c-.57,1.41-2.17,2.1-3.59,1.53l-14.01-5.63c-1.41-.57-2.09-2.17-1.53-3.58l7.94-19.76-19.76-7.94c-1.41-.57-2.09-2.17-1.52-3.58l5.63-14.02c.57-1.41,2.17-2.09,3.58-1.53l19.76,7.94,7.94-19.76c.57-1.41,2.17-2.09,3.58-1.53l14.02,5.63c1.41.57,2.09,2.17,1.53,3.58l-7.94,19.76,18.02,7.24c1.26-2.3,2.64-4.73,4.06-7.17.86-1.47,1.74-2.94,2.61-4.39,5.39-8.85,10.85-16.64,13.01-16.71,4.05-.15,61.65,46.5,61.65,46.5,0,0,0-.02.02-.06.43-.95,6.39-13.77,19.43-19.64,13.54-6.1,7.07,29.91,7.07,29.91,0,0,88.18,41.18,96.23,31.1,8.04-10.09,19.96.03,24.58,3.98,4.62,3.96,48.22-14.03,52.4-16.88,3.04-2.09,18.27,5.54,26.29,9.83,2.84,1.52,4.07,4.93,2.87,7.91Z"/><path class="cls-2" d="m939.53,331.8l-49.69,123.73c-1.2,2.99-4.46,4.59-7.56,3.72-1.94-.54-4.25-1.21-6.67-1.96-2.38-.74-4.88-1.56-7.24-2.42,2.78-13.28-.74-42.7-8.89-60.94-23.57-52.71-179.86-110.99-223.49-138.08,5.39-8.85,10.85-16.64,13.01-16.71,4.05-.15,61.65,46.5,61.65,46.5,0,0,0-.02.02-.06.43-.95,6.39-13.77,19.43-19.64,13.54-6.1,7.07,29.91,7.07,29.91,0,0,88.18,41.18,96.23,31.1,8.04-10.09,19.96.03,24.58,3.98,4.62,3.96,47.23-14.86,52.4-16.88,3.44-1.35,18.27,5.54,26.29,9.83,2.84,1.52,4.07,4.93,2.87,7.91Z"/><path class="cls-2" d="m832.84,328.24l-22.53,56.1c-.72,1.8-2.77,2.67-4.56,1.95h0c-1.8-.72-2.67-2.77-1.95-4.56l22.53-56.1c.72-1.8,2.77-2.67,4.56-1.95h0c1.8.72,2.67,2.77,1.95,4.56Z"/><path class="cls-2" d="m712.81,283.09l-20.41,50.81c-.72,1.8-2.77,2.67-4.56,1.95h0c-1.8-.72-2.67-2.77-1.95-4.56l20.41-50.81c.72-1.8,2.77-2.67,4.56-1.95h0c1.8.72,2.67,2.77,1.95,4.56Z"/><path class="cls-2" d="m743.21,297.83l-18.47,46c-.72,1.8-2.77,2.67-4.56,1.95h0c-1.8-.72-2.67-2.77-1.95-4.56l18.47-46c.72-1.8,2.77-2.67,4.56-1.95h0c1.8.72,2.67,2.77,1.95,4.56Z"/><path class="cls-2" d="m862.96,332.73l-28.48,70.92c-.72,1.8-2.77,2.67-4.56,1.95h0c-1.8-.72-2.67-2.77-1.95-4.56l28.48-70.92c.72-1.8,2.77-2.67,4.56-1.95h0c1.8.72,2.67,2.77,1.95,4.56Z"/><rect class="cls-2" x="607.71" y="272.44" width="29.29" height="6.58" rx="2.56" ry="2.56" transform="translate(134.55 750.49) rotate(-68.12)"/></g></svg>