<?xml version="1.0" encoding="UTF-8"?>
<svg id="Warstwa_2" data-name="Warstwa 2" xmlns="http://www.w3.org/2000/svg" viewBox="0 0 2561.83 900">
  <defs>
    <style>
      .cls-1 {
        fill: #002356;
      }

      .cls-1, .cls-2, .cls-3, .cls-4, .cls-5, .cls-6, .cls-7, .cls-8, .cls-9, .cls-10, .cls-11, .cls-12, .cls-13, .cls-14, .cls-15, .cls-16, .cls-17 {
        stroke-width: 0px;
      }

      .cls-2 {
        fill: #f7a4a6;
        opacity: .88;
      }

      .cls-3 {
        fill: #722217;
      }

      .cls-4 {
        fill: #174b72;
      }

      .cls-5 {
        fill: #fff;
      }

      .cls-6 {
        fill: #8c2a20;
      }

      .cls-7 {
        fill: #002b69;
      }

      .cls-8 {
        opacity: .19;
      }

      .cls-8, .cls-16 {
        fill: #d7af80;
      }

      .cls-9 {
        fill: #093872;
      }

      .cls-10 {
        fill: #9b3a2f;
      }

      .cls-11 {
        fill: #ffad86;
      }

      .cls-12 {
        fill: #b74d44;
      }

      .cls-13 {
        fill: #a13941;
      }

      .cls-14 {
        fill: #ed8a72;
      }

      .cls-15 {
        fill: #2f729b;
      }

      .cls-17 {
        fill: #471910;
      }
    </style>
  </defs>
  <g id="Layer_1" data-name="Layer 1">
    <rect class="cls-8" x=".92" width="2560" height="900"/>
    <path class="cls-16" d="M626.5,220.76h0c12.35,0,22.37,9.97,22.46,22.31l.49,73.7c-8.96,25.9-7.71,52.24.52,78.89l1.58,237.81c.02,2.6.53,5.23,1.43,7.67,25.97,69.84,21.33,105.84,14.34,122.91-3.4,8.3-11.66,13.53-20.63,13.53h-31.75c-9.86,0-18.76-6.35-21.47-15.82-5.31-18.56-8.32-55.15,13.18-118.54.81-2.37,1.24-4.92,1.21-7.43l-2.34-239.18c7.5-26.07,7.45-51.83-.76-77.24l-.74-75.92c-.12-12.49,9.97-22.69,22.47-22.68Z"/>
    <g>
      <polygon class="cls-16" points="265.13 552.09 361.03 199.28 355.79 199.28 260.99 552.09 265.13 552.09"/>
      <polygon class="cls-16" points="466.35 552.09 364.19 199.28 368.99 199.28 471 552.09 466.35 552.09"/>
      <polygon class="cls-16" points="275.39 579.69 450.6 579.69 471 552.09 260.99 552.09 275.39 579.69"/>
      <rect class="cls-16" x="361.03" y="199.28" width="3.17" height="364.81"/>
    </g>
    <g>
      <polygon class="cls-16" points="802.87 669.57 898.77 316.76 893.54 316.76 798.73 669.57 802.87 669.57"/>
      <polygon class="cls-16" points="1004.09 669.57 901.94 316.76 906.74 316.76 1008.74 669.57 1004.09 669.57"/>
      <polygon class="cls-16" points="813.14 697.17 988.34 697.17 1008.74 669.57 798.73 669.57 813.14 697.17"/>
      <rect class="cls-16" x="898.77" y="316.76" width="3.17" height="364.81"/>
    </g>
    <rect class="cls-16" x="554.33" y="762.68" width="150" height="17" rx="8.5" ry="8.5"/>
    <rect class="cls-16" x="512.45" y="775.43" width="235.89" height="43.92" rx="21.96" ry="21.96"/>
    <rect class="cls-16" x="572.56" y="431.2" width="110.94" height="35.9" rx="17.95" ry="17.95"/>
    <path class="cls-16" d="M620.37,415.08h15.33c18.81,0,34.07,15.27,34.07,34.07h0c0,18.81-15.27,34.07-34.07,34.07h-15.33c-18.81,0-34.07-15.27-34.07-34.07h0c0-18.81,15.27-34.07,34.07-34.07Z"/>
    <rect class="cls-16" x="595.25" y="396.35" width="65.56" height="18.73" rx="9.36" ry="9.36"/>
    <rect class="cls-16" x="600.5" y="301.16" width="55.06" height="18.73" rx="9.36" ry="9.36"/>
    <path class="cls-16" d="M651.45,501.95h-46.83c-5.17,0-9.36-4.19-9.36-9.36h0c0-5.17,4.19-9.36,9.36-9.36h46.83c5.17,0,9.36,4.19,9.36,9.36h0c0,5.17-4.19,9.36-9.36,9.36Z"/>
    <rect class="cls-16" x="502.18" y="816.69" width="256.43" height="12.75" rx=".84" ry=".84"/>
    <rect class="cls-13" y="825.56" width="2561.83" height="74.26"/>
    <path class="cls-16" d="M915.97,295.77c-15.41-11.55-28.89-5.5-28.89-5.5-149.35,72.13-168.25-32.05-168.25-32.05l-84.98-16.19-84.98-16.19s-55.88,89.94-168.25-32.05c0,0-10.31-10.58-28.89-5.5-18.58,5.07-29.01,39.58,5.3,55.41,26.01,12,30.87-13.49,30.87-13.49,0,0,77.41,92.24,174.29,36.72l64.58,12.3,64.58,12.3c69.68,87.24,175.58,29.92,175.58,29.92,0,0-4.86,25.49,23.75,23.9,37.73-2.11,40.71-38.04,25.3-49.58Z"/>
    <circle class="cls-16" cx="628.03" cy="208.99" r="15.08"/>
    <g>
      <g id="BM1">
        <polygon class="cls-7" points="361.73 374.79 348.48 371.76 342.74 371.91 335.1 373.87 328.06 378.84 327.19 393.11 326.74 398.67 328.2 419.71 326.85 433.95 322.03 453.09 327.47 459.47 323.01 496.92 305.59 537.86 320.02 542.69 339.6 501.94 347.8 461.99 348.09 462.07 356.36 495.92 356.19 540.06 370.7 540.55 372.76 496.77 367.75 456.65 369.28 453.69 368.23 426.93 368.29 392.14 368.46 378.81 361.73 374.79"/>
        <polygon class="cls-11" points="413.73 397.91 410.47 392.3 416.88 391.35 424.68 393.2 427.02 399.05 425.53 400.03 417.26 397.83 413.73 397.91"/>
        <polygon class="cls-1" points="350.55 374.76 351.04 372.91 386.48 379.02 416.5 389.85 416.58 400.63 390.54 391.87 360.33 387.12 350.55 374.76"/>
        <polygon class="cls-5" points="418.83 390.69 416.73 390.57 416.53 398.35 418.51 398.02 418.83 390.69"/>
        <polygon class="cls-7" points="361.73 374.79 348.48 371.76 342.74 371.91 335.1 373.87 324.94 378.09 324.97 390.76 323.72 402.23 326.68 419.66 325.33 433.9 322.03 453.09 327.47 459.47 334.78 463.23 339.5 449.92 360.37 449.55 362.31 457.06 367.75 456.65 369.28 453.69 369.96 426.98 370.37 402.48 368.46 378.81 361.73 374.79"/>
        <polygon class="cls-14" points="342.53 375.22 354.5 395.83 360.45 379.68 359.09 375.56 358.42 374.98 359.34 363.92 346.64 362.6 345.56 371.1 342.53 375.22"/>
        <path class="cls-5" d="M355.54,380.88c-10.3.8-11.32-7.66-11.32-7.66l.9-1.52-6.58,4,2.51,19.91-1.55,54.31c8.97.82,18,.53,22.93-.4l1.61-28.53.4-24.24.2-12.37-2.95-8.21-3.11-3.06-.16,1.87s2.04,5.51-2.88,5.9Z"/>
        <path class="cls-7" d="M309.45,535.92c-.87.36-5.02,6.14-5.02,6.14l-.73,3.78,11.02,4.77,8.05,3.15,1.69-5-9.24-8.95-5.78-3.91Z"/>
        <path class="cls-7" d="M365.23,535.85c.59.73,0,0,0,0l5.01,7.3,9.59,3.76-1.79,5.37-21.39-.39-1.25-2.37s.17-5.06.59-5.22l2.11-9.58,7.15,1.13Z"/>
        <path class="cls-11" d="M356.8,343.32s-8.87,1.3-11.47,2.06c-7.91,2.3-8.13,6.48-5.48,15.25,1.62,5.38,8.53,6.62,8.53,6.62l1.79,2.93c1.84.3,7.87,2.81,7.87,2.81l6.22-1.31,1.27-7.38s-2.19-10.82-2.37-11.26c0,0-.79-4.49-2.42-7.04-1.3-2.04-3.94-2.67-3.94-2.67Z"/>
        <path class="cls-7" d="M358.77,339.06l-5.55,1.11s-6.86,1.32-8.58,1.82c-7.67,2.23-9.22,10.84-6.34,19.25l4.75,6.27,3.25,1.96.87-6.09c1.14-.54,3.84-1.87,3.84-1.87l-1.95-9.05,2.73-4.73,7.43-.51,1.92-.48,1.07-2.01-.62-2.93-.99.51-1.85-3.23Z"/>
        <path class="cls-11" d="M351.2,360.95c-.12,2.25-.28,3.45-2.2,3.04-1.03-.22-2.32-.45-2.98-3.39-.49-2.2.87-4.18,2.84-4.09,1.96.09,2.45,2.19,2.34,4.44Z"/>
        <polygon class="cls-13" points="354.02 381.81 350.82 384.47 352.18 387.77 357.44 387.85 358.64 384.6 355.48 381.84 354.02 381.81"/>
        <polygon class="cls-13" points="352.45 388.66 357.48 388.74 359.53 435.34 353.74 444.73 346.9 436.04 352.45 388.66"/>
      </g>
      <g>
        <path class="cls-6" d="M295.39,488.83s36.77,10.65,37.55,10.59c.78-.06,9.4-6.06,9.4-6.06l.72-30.68s-38.2-7.25-38.86-6.79c-.66.46-9.81,4.74-9.84,4.95-.11.91,1.02,27.99,1.02,27.99Z"/>
        <path class="cls-3" d="M342.36,493.38l.72-30.68s-.54-.1-1.48-.28c-2.44,1.72-6.64,4.76-6.55,4.87.12.15-1.68,27.85-1.96,32.1,1.35-.52,9.26-6.02,9.26-6.02Z"/>
        <path class="cls-17" d="M309.56,482.7l25.84-13.96,7.78-6.35c-1.32-.25-38-6.35-38.64-5.9-.6.42-8.37,3.3-9.75,4.49l14.76,21.72Z"/>
        <polygon class="cls-17" points="307.38 477.14 306.57 478.15 307.18 483.24 314.76 484.84 315.85 483.76 316.48 478.49 307.38 477.14"/>
        <path class="cls-10" d="M309.34,481.81l26.83-13.72,6.98-5.7c-1.32-.25-38.17-7.23-38.82-6.78-.6.42-7.87,3.87-9.25,5.05l14.26,21.15Z"/>
        <path class="cls-12" d="M294.37,460.96c2.83.56,40.91,7.83,40.91,7.83l7.02-5.65.89-.76s-38.2-7.25-38.86-6.79c-.2.14-1.23.57-2.55,1.11l-7.41,4.12s0,.08,0,.12Z"/>
        <polygon class="cls-5" points="306.39 477.42 305.58 478.42 306.19 483.52 313.78 485.13 314.87 484.04 315.51 478.76 306.39 477.42"/>
        <path class="cls-2" d="M313.44,480s-5.34-1.13-7.45-1.41l.19,4.94,7.59,1.6.03-.03-.36-5.1Z"/>
      </g>
      <g>
        <g>
          <path class="cls-4" d="M313.24,457.23l-.68-.3s-.51.19-.8.56-.3,4.02-.3,4.02l1.78-1.32.34-3.19-.34.23Z"/>
          <path class="cls-15" d="M312.56,453.93c-1.88.18-2.34,3.01-2.34,3.01l-.23,4,1.49.57s0-3.64.3-4.02.8-.56.8-.56l.68.3.34-.23,5.95-2.48s-6.14-.67-6.97-.59Z"/>
          <path class="cls-4" d="M316.49,455.78l.22-.09-1.81-1.63c-1.1-.09-2.05-.16-2.34-.13-.59.06-1.05.38-1.39.8,1.01.15,4.18.82,5.32,1.06Z"/>
        </g>
        <path class="cls-4" d="M321.39,456.34l-.31,2.45s1.72.29,2.26.42c.53.13.64,2.86.48,3.9-.17,1.04,2.28.73,2.28.73l1.38-2.07s.38-4.6-.08-5.37c-.46-.77-4.16-1.3-4.16-1.3l-1.25.66-.6.58Z"/>
        <path class="cls-15" d="M325.33,457.38c-.37-.72-2.53-.91-3.96-.92l-.29,2.34s1.72.29,2.26.42c.53.13.64,2.86.48,3.9-.16.96,1.9.77,2.24.73-.05-1.21-.25-5.56-.72-6.47Z"/>
      </g>
      <g>
        <polygon class="cls-11" points="316.82 448.64 319.05 449.34 323.45 453.67 323.93 460.12 314.16 460.84 311.84 453.16 312.2 449.44 316.82 448.64"/>
        <polygon class="cls-5" points="310.9 447.96 310.86 450.48 320.77 449.3 320.5 446.82 310.9 447.96"/>
        <polygon class="cls-9" points="324.94 378.09 310.49 412.43 310.05 448.79 320.79 447.32 322.41 417.03 333.14 395.29 333.11 385.8 330.71 380.75 324.94 378.09"/>
      </g>
    </g>
  </g>
</svg>