<?xml version="1.0" encoding="UTF-8"?>
<svg id="Warstwa_2" data-name="Warstwa 2" xmlns="http://www.w3.org/2000/svg" viewBox="0 0 2560 901.84">
  <defs>
    <style>
      .cls-1 {
        fill: #002356;
      }

      .cls-1, .cls-2, .cls-3, .cls-4, .cls-5, .cls-6, .cls-7, .cls-8, .cls-9, .cls-10, .cls-11, .cls-12 {
        stroke-width: 0px;
      }

      .cls-13 {
        opacity: .65;
      }

      .cls-2 {
        fill: #fff;
      }

      .cls-3 {
        fill: #002b69;
      }

      .cls-4 {
        opacity: .19;
      }

      .cls-4, .cls-12 {
        fill: #d7af80;
      }

      .cls-5 {
        fill: #093872;
      }

      .cls-6 {
        fill: #ffad86;
      }

      .cls-7 {
        fill: #a13941;
      }

      .cls-8 {
        fill: #cfd1d1;
      }

      .cls-9 {
        fill: #ed8a72;
      }

      .cls-10 {
        fill: #681d26;
      }

      .cls-11 {
        fill: #e8eaea;
      }
    </style>
  </defs>
  <g id="Layer_1" data-name="Layer 1">
    <rect class="cls-4" width="2560" height="900"/>
    <g id="key">
      <g>
        <path class="cls-12" d="M1272.17,487.32c12.22,4.94,18.68,17.81,16.11,30.11l29.3,12.96,1.4-3.17c.46-1.04,1.68-1.51,2.72-1.05l9.98,4.41c1.04.46,1.51,1.68,1.05,2.72l-1.4,3.17,14.08,6.23,5.93-13.42c.97-2.2,3.55-3.2,5.76-2.23l4.21,1.86c2.2.97,3.2,3.55,2.23,5.76l-5.93,13.42,6.2,2.74,9.59-21.69c.97-2.2,3.55-3.2,5.76-2.23l4.21,1.86c2.2.97,3.2,3.55,2.23,5.76l-9.59,21.69,11.97,5.29c1.35.6,1.96,2.18,1.36,3.53l-2.36,5.34c-.6,1.35-2.18,1.96-3.53,1.36l-99.68-44.09c-7.21,9.95-20.63,13.88-32.32,8.71-13.38-5.92-19.47-21.52-13.67-34.93,5.72-13.21,21.07-19.52,34.41-14.12ZM1255.95,526.13c7.79,3.44,16.92-.09,20.37-7.88,3.44-7.79-.09-16.92-7.88-20.37-7.79-3.44-16.92.09-20.37,7.88s.09,16.92,7.88,20.37Z"/>
        <path class="cls-12" d="M1248.08,505.76c3.44-7.79,12.58-11.32,20.37-7.88,4.44,1.96,7.49,5.77,8.66,10.13-.03-5.9-3.46-11.52-9.19-14.06-7.79-3.44-16.92.09-20.37,7.88-1.48,3.35-1.67,6.95-.78,10.24-.01-2.11.41-4.26,1.31-6.31ZM1329.44,535.61l2.23-5.04h0c1.04.46,1.52,1.68,1.05,2.73l-1.4,3.17-1.89-.85ZM1355.67,547.28l7.34-16.53c.05-.11.08-.21.12-.32.84,1.21,1.05,2.81.41,4.25l-5.93,13.42-1.93-.81ZM1250.9,532.44c11.7,5.17,25.11,1.25,32.32-8.71l99.68,44.09c1.35.6,2.93-.01,3.53-1.36l2.05-4.63c.98.73,1.36,2.06.84,3.22l-2.36,5.34c-.6,1.35-2.18,1.96-3.53,1.36l-99.68-44.09c-7.21,9.95-20.63,13.88-32.32,8.71-9.44-4.17-15.24-13.16-15.82-22.79,1.71,8.09,7.15,15.26,15.29,18.86ZM1374.09,555.36l10.97-24.76c.05-.11.08-.21.12-.32.84,1.21,1.05,2.81.41,4.25l-9.59,21.69-1.9-.86Z"/>
      </g>
    </g>
    <g id="key-2" data-name="key">
      <g>
        <path class="cls-12" d="M1545.57,781.52c12.18,1.21,21.31,10.98,22.24,22.62l29.51,3.88.42-3.19c.14-1.05,1.1-1.79,2.15-1.65l10.05,1.32c1.05.14,1.79,1.1,1.65,2.15l-.42,3.19,14.19,1.86,1.78-13.51c.29-2.22,2.33-3.78,4.55-3.49l4.24.56c2.22.29,3.78,2.33,3.49,4.55l-1.78,13.51,6.24.82,2.87-21.85c.29-2.22,2.33-3.78,4.55-3.49l4.24.56c2.22.29,3.78,2.33,3.49,4.55l-2.87,21.85,12.05,1.58c1.36.18,2.32,1.43,2.14,2.79l-.71,5.38c-.18,1.36-1.43,2.32-2.79,2.14l-100.39-13.2c-3.82,10.76-14.75,17.77-26.53,16.22-13.48-1.77-22.99-14.08-21.33-27.55,1.64-13.27,13.67-22.92,26.98-21.6ZM1541.28,820.37c7.84,1.03,15.06-4.51,16.09-12.35,1.03-7.84-4.51-15.06-12.35-16.09-7.84-1.03-15.06,4.51-16.09,12.35-1.03,7.84,4.51,15.06,12.35,16.09Z"/>
        <path class="cls-12" d="M1528.92,804.28c1.03-7.84,8.25-13.38,16.09-12.35,4.47.59,8.19,3.18,10.37,6.76-1.57-5.25-6.1-9.36-11.87-10.12-7.84-1.03-15.06,4.51-16.09,12.35-.44,3.37.33,6.63,1.98,9.33-.56-1.88-.75-3.9-.48-5.97ZM1609.26,809.58l.67-5.08h0c1.05.14,1.79,1.1,1.65,2.15l-.42,3.19-1.91-.27ZM1635.69,813.1l2.21-16.66c.01-.11.02-.21.03-.32,1.06.86,1.67,2.23,1.48,3.68l-1.78,13.51-1.94-.22ZM1538.42,827.31c11.78,1.55,22.71-5.46,26.53-16.22l100.39,13.2c1.36.18,2.61-.78,2.79-2.14l.61-4.67c1.06.39,1.75,1.48,1.6,2.65l-.71,5.38c-.18,1.36-1.43,2.32-2.79,2.14l-100.39-13.2c-3.82,10.76-14.75,17.77-26.53,16.22-9.5-1.25-17.03-7.74-20.07-16.17,3.64,6.76,10.37,11.73,18.57,12.81ZM1654.23,815.49l3.29-24.94c.01-.11.02-.21.03-.32,1.06.86,1.67,2.23,1.48,3.68l-2.87,21.85-1.92-.27Z"/>
      </g>
    </g>
    <g id="key-3" data-name="key">
      <g>
        <path class="cls-12" d="M1207.65,753.23c8.03,4.77,18.05,2.9,23.89-3.83l19.87,10.96-1.19,2.15c-.39.71-.13,1.6.57,1.99l6.77,3.73c.71.39,1.6.13,1.99-.57l1.19-2.15,9.55,5.27-5.02,9.1c-.82,1.49-.28,3.38,1.21,4.2l2.86,1.58c1.49.82,3.38.28,4.2-1.21l5.02-9.1,4.2,2.32-8.12,14.71c-.82,1.49-.28,3.38,1.21,4.2l2.86,1.58c1.49.82,3.38.28,4.2-1.21l8.12-14.71,8.12,4.48c.92.51,2.07.17,2.57-.74l2-3.63c.51-.92.17-2.07-.74-2.57l-67.62-37.31c2.52-8.34-1.02-17.59-8.95-21.96-9.08-5.01-20.49-1.75-25.56,7.27-5,8.89-1.97,20.25,6.8,25.46ZM1222.58,727.43c5.28,2.91,7.21,9.58,4.29,14.86-2.91,5.28-9.58,7.21-14.86,4.29-5.28-2.91-7.21-9.58-4.29-14.86,2.91-5.28,9.58-7.21,14.86-4.29Z"/>
        <path class="cls-12" d="M1206.96,750.64c8.03,4.77,18.05,2.9,23.89-3.83l19.87,10.97-1.19,2.15c-.39.71-.13,1.6.57,1.99l6.77,3.73c.71.39,1.6.13,1.99-.57l1.19-2.15,9.55,5.27-5.02,9.1c-.82,1.49-.28,3.38,1.21,4.2l2.86,1.58c1.49.82,3.38.28,4.2-1.21l5.02-9.1,4.2,2.32-8.12,14.71c-.82,1.49-.28,3.38,1.21,4.2l2.86,1.58c1.49.82,3.38.28,4.2-1.21l8.12-14.71,8.12,4.48c.92.51,2.07.17,2.57-.74l2-3.63c.51-.92.17-2.07-.74-2.57l-67.62-37.31c2.52-8.34-1.02-17.59-8.95-21.96-9.08-5.01-20.49-1.75-25.56,7.27-5,8.89-1.97,20.25,6.8,25.46ZM1221.9,724.84c5.28,2.91,7.21,9.58,4.29,14.86-2.91,5.28-9.58,7.21-14.86,4.29-5.28-2.91-7.21-9.58-4.29-14.86,2.91-5.28,9.58-7.21,14.86-4.29Z"/>
      </g>
    </g>
    <g id="key-4" data-name="key">
      <g>
        <path class="cls-12" d="M1475.79,689.45c8.39-.18,15.14-6.38,16.39-14.28l20.37-1.09.12,2.2c.04.72.66,1.28,1.38,1.24l6.93-.37c.72-.04,1.28-.66,1.24-1.38l-.12-2.2,9.79-.53.5,9.33c.08,1.53,1.39,2.71,2.92,2.62l2.93-.16c1.53-.08,2.71-1.39,2.62-2.92l-.5-9.33,4.31-.23.81,15.08c.08,1.53,1.39,2.71,2.92,2.62l2.93-.16c1.53-.08,2.71-1.39,2.62-2.92l-.81-15.08,8.32-.45c.94-.05,1.66-.85,1.61-1.79l-.2-3.72c-.05-.94-.85-1.66-1.79-1.61l-69.29,3.72c-2.04-7.55-9.14-12.92-17.27-12.48-9.3.5-16.45,8.41-16.03,17.7.42,9.15,8.13,16.38,17.29,16.18ZM1474.9,662.68c5.41-.29,10.05,3.88,10.34,9.29.29,5.41-3.88,10.05-9.29,10.34s-10.05-3.88-10.34-9.29c-.29-5.41,3.88-10.05,9.29-10.34Z"/>
        <path class="cls-12" d="M1474.04,687.8c8.39-.18,15.14-6.38,16.39-14.28l20.37-1.09.12,2.2c.04.72.66,1.28,1.38,1.24l6.93-.37c.72-.04,1.28-.66,1.24-1.38l-.12-2.2,9.79-.53.5,9.33c.08,1.53,1.39,2.71,2.92,2.62l2.93-.16c1.53-.08,2.71-1.39,2.62-2.92l-.5-9.33,4.31-.23.81,15.08c.08,1.53,1.39,2.71,2.92,2.62l2.93-.16c1.53-.08,2.71-1.39,2.62-2.92l-.81-15.08,8.32-.45c.94-.05,1.66-.85,1.61-1.79l-.2-3.72c-.05-.94-.85-1.66-1.79-1.61l-69.29,3.72c-2.04-7.55-9.14-12.92-17.27-12.48-9.3.5-16.45,8.41-16.03,17.7.42,9.15,8.13,16.38,17.29,16.18ZM1473.15,661.04c5.41-.29,10.05,3.88,10.34,9.29.29,5.41-3.88,10.05-9.29,10.34-5.41.29-10.05-3.88-10.34-9.29-.29-5.41,3.88-10.05,9.29-10.34Z"/>
      </g>
    </g>
    <g id="key-5" data-name="key" class="cls-13">
      <path class="cls-2" d="M1234.58,600.09l-58.44,5.31c-4.95-10.12-17.12-16.49-29.01-15.41-15.39,1.4-26.77,16.36-25.37,31.75s15.01,26.73,30.4,25.33c11.89-1.08,22.43-8.56,25.48-19.41l7.21-.65,6.85-8.61,7.66,6.68,6.33-7.95,7.66,6.68,6.33-7.95,8.29,7.23,7.66-.7,8.11-12.98-9.14-9.33ZM1140.28,629.24c-5.14.47-8.65-2.46-9.12-7.6-.47-5.14,3.32-9.68,8.46-10.15,5.14-.47,8.65,2.46,9.12,7.6.47,5.14-3.32,9.68-8.46,10.15Z"/>
      <path class="cls-2" d="M1231.29,600.38l-57.98,5.27c-4.95-10.12-15.78-16.65-27.67-15.57-15.39,1.4-26.73,15.01-25.33,30.4,1.4,15.39,15.01,26.73,30.4,25.33,11.89-1.08,21.36-9.45,24.41-20.3l7.21-.65,6.85-8.61,7.66,6.68,6.33-7.95,7.66,6.68,6.33-7.95,8.29,7.23,7.66-.7,7.28-10.67-9.08-9.19ZM1138.83,627.98c-5.14.47-9.68-3.32-10.15-8.46-.47-5.14,3.32-9.68,8.46-10.15s9.68,3.32,10.15,8.46c.47,5.14-3.32,9.68-8.46,10.15Z"/>
    </g>
    <g id="key-6" data-name="key" class="cls-13">
      <path class="cls-2" d="M1811.42,786.28l-42.29-29.08c2.32-9.58-2.31-20.66-10.91-26.58-11.14-7.66-27.15-3.95-34.81,7.19-7.66,11.14-4.84,26.37,6.3,34.03,8.6,5.92,19.87,6.77,27.99,1.18l5.22,3.59,9.42-1.96,1.42,8.78,8.7-1.81,1.42,8.78,8.7-1.81,1.54,9.5,5.54,3.81,12.71-4.2-.94-11.38ZM1731.68,753.2c-3.72-2.56-4.45-6.49-1.89-10.21,2.56-3.72,7.65-4.66,11.36-2.1,3.72,2.56,4.45,6.49,1.89,10.21-2.56,3.72-7.65,4.66-11.36,2.1Z"/>
      <path class="cls-2" d="M1809.04,784.64l-41.96-28.86c2.32-9.58-1.31-20.02-9.91-25.94-11.14-7.66-26.37-4.84-34.03,6.3-7.66,11.14-4.84,26.37,6.3,34.03,8.6,5.92,19.65,5.58,27.77-.02l5.22,3.59,9.42-1.96,1.42,8.78,8.7-1.81,1.42,8.78,8.7-1.81,1.54,9.5,5.54,3.81,10.86-3.11-.98-11.26ZM1731.41,751.54c-3.72-2.56-4.66-7.65-2.1-11.36,2.56-3.72,7.65-4.66,11.36-2.1,3.72,2.56,4.66,7.65,2.1,11.36-2.56,3.72-7.65,4.66-11.36,2.1Z"/>
    </g>
    <g id="key-7" data-name="key" class="cls-13">
      <path class="cls-2" d="M1389.96,769.8l-25.95-8.62c-3.35,4.1-9,5.93-14.32,4.16-6.89-2.29-10.62-9.73-8.33-16.62,2.29-6.89,9.73-10.62,16.62-8.33,5.32,1.77,8.76,6.61,8.99,11.9l3.23,1.07,2.21,4.67,4.22-2.24,2.04,4.32,4.22-2.24,2.04,4.32,4.57-2.42,3.43,1.14,2.24,5.63-5.19,3.26ZM1350.63,747.27c-2.3-.76-4.78.48-5.55,2.78s.48,4.78,2.78,5.55,4.78-.48,5.55-2.78c.76-2.3-.48-4.78-2.78-5.55Z"/>
      <path class="cls-2" d="M1389.42,768.3l-25.95-8.62c-3.35,4.1-9,5.93-14.32,4.16-6.89-2.29-10.62-9.73-8.33-16.62,2.29-6.89,9.73-10.62,16.62-8.33,5.32,1.77,8.76,6.61,8.99,11.9l3.23,1.07,2.21,4.67,4.22-2.24,2.04,4.32,4.22-2.24,2.04,4.32,4.57-2.42,3.43,1.14,2.19,5.66-5.14,3.23ZM1350.09,745.77c-2.3-.76-4.78.48-5.55,2.78-.76,2.3.48,4.78,2.78,5.55s4.78-.48,5.55-2.78c.76-2.3-.48-4.78-2.78-5.55Z"/>
    </g>
    <g id="key-8" data-name="key" class="cls-13">
      <path class="cls-2" d="M1691.35,624.37l-36.08,3.58c-1.84,6.77-7.7,12.03-15.1,12.77-9.58.95-18.11-6.05-19.06-15.62-.95-9.58,6.05-18.11,15.62-19.06,7.4-.73,14.17,3.28,17.31,9.56l4.49-.44,5.2,4.46,3.9-4.98,4.8,4.12,3.9-4.98,4.8,4.12,4.22-5.4,4.76-.47,5.75,5.61-4.52,6.75ZM1631.57,618.33c-3.2.32-5.53,3.17-5.22,6.36.32,3.2,3.17,5.53,6.36,5.22,3.2-.32,5.53-3.17,5.22-6.36-.32-3.2-3.17-5.53-6.36-5.22Z"/>
      <path class="cls-2" d="M1689.89,622.85l-36.08,3.58c-1.84,6.77-7.7,12.03-15.1,12.77-9.58.95-18.11-6.05-19.06-15.62-.95-9.58,6.05-18.11,15.62-19.06,7.4-.73,14.17,3.28,17.31,9.56l4.49-.44,5.2,4.46,3.9-4.98,4.8,4.12,3.9-4.98,4.8,4.12,4.22-5.4,4.76-.47,5.7,5.67-4.48,6.68ZM1630.11,616.8c-3.2.32-5.53,3.17-5.22,6.36.32,3.2,3.17,5.53,6.36,5.22,3.2-.32,5.53-3.17,5.22-6.36-.32-3.2-3.17-5.53-6.36-5.22Z"/>
    </g>
    <g>
      <g>
        <polygon class="cls-1" points="669.9 512.14 670.45 507.94 750.28 511.54 819.46 527.08 822.62 550.82 762.79 538.73 694.88 536.66 669.9 512.14"/>
        <polygon class="cls-2" points="824.81 528.28 820.16 528.6 821.89 545.8 826.16 544.52 824.81 528.28"/>
      </g>
      <g id="BM1">
        <polygon class="cls-3" points="682.52 504.23 653.08 497.51 640.33 497.84 623.36 502.18 607.72 513.23 605.8 544.94 604.79 557.29 608.03 604.03 605.04 635.67 594.32 678.19 606.41 692.35 596.49 775.56 557.8 866.5 589.85 877.24 633.37 786.7 651.58 697.95 652.22 698.13 670.6 773.33 670.22 871.39 702.45 872.5 707.04 775.22 695.89 686.1 699.3 679.51 696.96 620.08 697.09 542.79 697.48 513.15 682.52 504.23"/>
        <path class="cls-3" d="M682.52,504.23l-29.44-6.72-12.75.34-16.97,4.34c-7.64,4.76-15.27,9.52-22.91,14.28-3.53,6.91-7.06,13.81-10.59,20.72,2.74,9.34,5.47,18.68,8.21,28.01l6.58,38.71-2.99,31.64-7.34,42.63,12.09,14.16,16.25,8.36,10.47-29.58,46.37-.81,4.3,16.68,12.09-.9,3.41-6.59,1.51-59.33.9-54.43-4.23-52.59-14.96-8.93Z"/>
        <polygon class="cls-9" points="639.88 505.18 666.46 550.97 679.69 515.09 676.66 505.93 675.17 504.65 677.22 480.08 649 477.14 646.59 496.03 639.88 505.18"/>
        <path class="cls-2" d="M668.76,517.75c-22.88,1.79-25.14-17.02-25.14-17.02l2-3.37-14.62,8.89,5.57,44.23-3.43,120.66c19.92,1.81,40,1.17,50.94-.89l3.57-63.39.89-53.85.45-27.48-6.56-18.23-6.91-6.8-.35,4.15s4.53,12.25-6.4,13.1Z"/>
        <path class="cls-3" d="M566.37,862.19c-1.93.81-11.15,13.65-11.15,13.65l-1.62,8.41,24.49,10.59,17.89,7,3.76-11.1-20.52-19.87-12.85-8.68Z"/>
        <path class="cls-3" d="M690.3,862.05c1.3,1.63,0,0,0,0l11.14,16.22,21.3,8.36-3.98,11.94-47.53-.87-2.79-5.28s.39-11.24,1.3-11.59l4.68-21.28,15.87,2.51Z"/>
        <path class="cls-6" d="M671.58,434.32s-19.7,2.89-25.47,4.57c-17.57,5.11-18.05,14.39-12.17,33.87,3.61,11.95,18.95,14.7,18.95,14.7l3.97,6.52c4.09.68,17.48,6.24,17.48,6.24l13.82-2.91,2.83-16.39s-4.87-24.05-5.27-25.01c0,0-1.75-9.97-5.37-15.64-2.9-4.53-8.76-5.94-8.76-5.94Z"/>
        <path class="cls-3" d="M675.94,424.84l-12.32,2.46s-15.24,2.93-19.06,4.04c-17.03,4.95-20.49,24.09-14.09,42.76l10.55,13.92,7.22,4.35,1.93-13.53c2.53-1.21,8.54-4.15,8.54-4.15l-4.33-20.1,6.07-10.51,16.51-1.14,4.27-1.07,2.39-4.46-1.37-6.52-2.2,1.13-4.11-7.18Z"/>
        <path class="cls-6" d="M659.14,473.49c-.26,4.99-.63,7.68-4.88,6.75-2.29-.5-5.15-1.01-6.61-7.53-1.1-4.89,1.94-9.29,6.3-9.08,4.36.2,5.45,4.87,5.2,9.86Z"/>
        <g>
          <polygon class="cls-7" points="664.35 522.6 660.24 530.87 665.96 536.35 676.72 531.8 676.23 524.11 667.33 521.34 664.35 522.6"/>
          <polygon class="cls-7" points="667.32 537.91 677.61 533.56 723.65 626.4 720.31 650.68 698.61 639.17 667.32 537.91"/>
        </g>
      </g>
      <g id="man_and_magnet" data-name="man and magnet">
        <g>
          <path class="cls-10" d="M999.65,673.05l-83.9-9.28c-34.5-3.82-59.46-34.99-55.64-69.48,3.82-34.5,34.99-59.46,69.48-55.64l83.9,9.28,9.7-87.7-83.9-9.28c-20.27-2.24-40.39-.44-59.81,5.35-18.74,5.59-36,14.64-51.31,26.9-15.31,12.26-27.92,27.13-37.47,44.19-9.9,17.69-16.06,36.93-18.3,57.2-2.24,20.27-.44,40.39,5.35,59.81,5.59,18.74,14.64,36,26.9,51.31,12.26,15.31,27.13,27.92,44.19,37.47,17.69,9.9,36.93,16.06,57.2,18.3l83.9,9.28,9.7-87.7Z"/>
          <path class="cls-8" d="M1018.81,451.46h26.97c18.7,0,33.88,15.18,33.88,33.88v32.35c0,18.7-15.18,33.88-33.88,33.88h-26.97v-100.1h0Z" transform="translate(61.5 -112.32) rotate(6.31)"/>
          <path class="cls-8" d="M995.27,664.29h26.97c18.7,0,33.88,15.18,33.88,33.88v32.35c0,18.7-15.18,33.88-33.88,33.88h-26.97v-100.1h0Z" transform="translate(84.76 -108.45) rotate(6.31)"/>
          <path class="cls-7" d="M1000.95,661.25l-95.7-10.59c-34.5-3.82-59.46-34.99-55.64-69.48,3.82-34.5,34.99-59.46,69.48-55.64l95.7,10.59,9.7-87.7-95.7-10.59c-20.27-2.24-40.39-.44-59.81,5.35-18.74,5.59-36,14.64-51.31,26.9-15.31,12.26-27.92,27.13-37.47,44.19-9.9,17.69-16.06,36.93-18.3,57.2-2.24,20.27-.44,40.39,5.35,59.81,5.59,18.74,14.64,36,26.9,51.31,12.26,15.31,27.13,27.92,44.19,37.47,17.69,9.9,36.93,16.06,57.2,18.3l95.7,10.59,9.7-87.7Z"/>
          <path class="cls-2" d="M1019.5,450.85h15.11c18.7,0,33.88,15.18,33.88,33.88v20.48c0,18.7-15.18,33.88-33.88,33.88h-15.11v-88.24h0Z" transform="translate(60.75 -111.79) rotate(6.31)"/>
          <path class="cls-2" d="M995.95,663.68h15.11c18.7,0,33.88,15.18,33.88,33.88v20.48c0,18.7-15.18,33.88-33.88,33.88h-15.11v-88.24h0Z" transform="translate(84.01 -107.91) rotate(6.31)"/>
          <polygon class="cls-11" points="1093.47 497.91 1120.85 487.23 1110.36 482.07 1138.38 470.33 1115.86 481.92 1127.89 487.84 1093.47 497.91"/>
          <polygon class="cls-11" points="1088.8 504.41 1111.5 523.07 1110.87 511.4 1134.81 530.09 1113.69 516.12 1114.42 529.51 1088.8 504.41"/>
          <polygon class="cls-11" points="1068.48 716.12 1095.86 705.44 1085.37 700.28 1113.39 688.54 1090.87 700.13 1102.9 706.05 1068.48 716.12"/>
          <polygon class="cls-11" points="1063.8 722.62 1086.51 741.28 1085.88 729.61 1109.82 748.3 1088.7 734.33 1089.42 747.72 1063.8 722.62"/>
        </g>
      </g>
      <polygon class="cls-6" points="753.46 553.57 740.29 566.49 757.16 573.93 779.96 574.72 790.76 560.42 787.4 556.6 763.08 556.44 753.46 553.57"/>
      <g>
        <polygon class="cls-2" points="758.95 575.78 765.01 576.13 763.14 552.12 757.15 552.54 758.95 575.78"/>
        <path class="cls-5" d="M592.86,540.18c26.8,11.04,53.6,22.08,80.4,33.12l87.61,4.63-2.5-26.04-72.87-6.88c-23.13-9.66-46.27-19.33-69.4-28.99-5.06.92-10.13,1.84-15.19,2.76-2.69,7.14-5.37,14.27-8.06,21.41Z"/>
      </g>
    </g>
  </g>
</svg>