<?xml version="1.0" encoding="UTF-8"?><svg id="Layer_2" xmlns="http://www.w3.org/2000/svg" viewBox="0 0 89 89"><defs><style>.cls-1{fill:#d7af7d;}.cls-1,.cls-2{stroke-width:0px;}.cls-2{fill:#a13941;}</style></defs><g id="Layer_1-2"><path class="cls-2" d="M22.67,89h-.84c-2.78,0-5.04-2.26-5.04-5.04v-31.07c0-.46.38-.84.84-.84s.84.38.84.84v31.07c0,1.85,1.51,3.36,3.36,3.36h.84c1.85,0,3.36-1.51,3.36-3.36v-31.07c0-.46.38-.84.84-.84s.84.38.84.84v31.07c0,2.78-2.26,5.04-5.04,5.04Z"/><path class="cls-2" d="M13.43,89h-.84c-2.78,0-5.04-2.26-5.04-5.04v-31.07c0-.46.38-.84.84-.84s.84.38.84.84v31.07c0,1.85,1.51,3.36,3.36,3.36h.84c1.85,0,3.36-1.51,3.36-3.36v-29.39c0-.46.38-.84.84-.84s.84.38.84.84v29.39c0,2.78-2.26,5.04-5.04,5.04Z"/><path class="cls-2" d="M17.63,15.11c-4.17,0-7.56-3.39-7.56-7.56S13.47,0,17.63,0s7.56,3.39,7.56,7.56-3.39,7.56-7.56,7.56ZM17.63,1.68c-3.24,0-5.88,2.64-5.88,5.88s2.64,5.88,5.88,5.88,5.88-2.64,5.88-5.88-2.64-5.88-5.88-5.88Z"/><path class="cls-2" d="M26.87,53.74c-.46,0-.84-.38-.84-.84v-23.51c0-.46.38-.84.84-.84s.84.38.84.84v22.62c3.31-.41,5.88-3.25,5.88-6.66v-15.95c0-5.09-4.14-9.24-9.24-9.24h-13.43c-5.09,0-9.24,4.14-9.24,9.24v15.95c0,3.42,2.57,6.25,5.88,6.66v-22.62c0-.46.38-.84.84-.84s.84.38.84.84v23.51c0,.46-.38.84-.84.84-4.63,0-8.4-3.77-8.4-8.4v-15.95c0-6.02,4.9-10.91,10.91-10.91h13.43c6.02,0,10.91,4.9,10.91,10.91v15.95c0,4.63-3.77,8.4-8.4,8.4Z"/><path class="cls-1" d="M83.12,89c-.31,0-.62-.08-.91-.23l-5.34-2.81c-.08-.04-.17-.04-.25,0l-5.35,2.81c-.66.35-1.44.29-2.05-.15-.6-.44-.9-1.17-.78-1.9l1.02-5.95c.01-.09-.01-.17-.08-.23l-4.32-4.21c-.53-.52-.72-1.29-.49-1.99.23-.71.83-1.22,1.57-1.33l5.98-.87c.09-.01.16-.07.2-.14l2.67-5.42c.33-.67,1-1.08,1.74-1.08h0c.75,0,1.41.41,1.74,1.08h0l2.67,5.41c.04.08.11.13.2.15l5.98.87c.74.11,1.34.62,1.57,1.33.23.71.04,1.47-.49,1.99l-4.32,4.21c-.06.06-.09.15-.08.23l1.02,5.96c.13.73-.17,1.46-.77,1.9-.34.25-.74.38-1.14.38ZM76.74,84.25c.31,0,.62.07.9.22l5.35,2.81c.13.06.23.02.28-.02.05-.04.13-.12.1-.26l-1.02-5.95c-.11-.63.1-1.27.56-1.72l4.32-4.21c.1-.1.09-.21.07-.27-.02-.06-.07-.16-.22-.18l-5.98-.87c-.63-.09-1.18-.49-1.46-1.06l-2.67-5.42c-.06-.13-.18-.15-.24-.15h0c-.06,0-.17.02-.24.15l-2.67,5.42c-.28.57-.83.97-1.46,1.06l-5.98.87c-.14.02-.2.12-.21.18-.02.06-.04.17.07.27l4.32,4.21c.46.45.67,1.09.56,1.72l-1.02,5.96c-.02.14.06.22.1.26.05.04.15.09.28.02l5.35-2.81c.28-.15.59-.22.9-.22Z"/><path class="cls-1" d="M83.12,56.25c-.31,0-.62-.08-.91-.23l-5.34-2.81c-.08-.04-.17-.04-.25,0l-5.35,2.81c-.66.35-1.44.29-2.05-.15-.6-.44-.9-1.17-.78-1.9l1.02-5.95c.01-.09-.01-.17-.08-.23l-4.32-4.21c-.53-.52-.72-1.29-.49-1.99.23-.71.83-1.22,1.57-1.33l5.98-.87c.09-.01.16-.07.2-.14l2.67-5.42c.33-.67,1-1.08,1.74-1.08h0c.75,0,1.41.41,1.74,1.08h0l2.67,5.41c.04.08.11.13.2.15l5.98.87c.74.11,1.34.62,1.57,1.33.23.71.04,1.47-.49,1.99l-4.32,4.21c-.06.06-.09.15-.08.23l1.02,5.96c.13.73-.17,1.46-.77,1.9-.34.25-.74.38-1.14.38ZM76.74,51.51c.31,0,.62.07.9.22l5.35,2.81c.13.07.23.02.28-.02.05-.04.13-.12.1-.26l-1.02-5.95c-.11-.63.1-1.27.56-1.72l4.32-4.21c.1-.1.09-.21.07-.27-.02-.06-.07-.16-.22-.18l-5.98-.87c-.63-.09-1.18-.49-1.46-1.06l-2.67-5.42c-.06-.13-.18-.15-.24-.15h0c-.06,0-.17.02-.24.15l-2.67,5.42c-.28.57-.83.97-1.46,1.06l-5.98.87c-.14.02-.2.12-.21.18-.02.06-.04.17.07.27l4.32,4.21c.46.45.67,1.09.56,1.72l-1.02,5.96c-.02.14.06.22.1.26.05.04.15.09.28.02l5.35-2.81c.28-.15.59-.22.9-.22Z"/><path class="cls-1" d="M44.9,70.81c-.4,0-.8-.13-1.14-.37-.6-.44-.9-1.17-.78-1.9l1.02-5.95c.01-.09-.01-.17-.08-.23l-4.32-4.21c-.53-.52-.72-1.29-.49-2,.23-.71.83-1.22,1.57-1.32l5.97-.87c.09-.01.16-.07.2-.14l2.67-5.42c.33-.67,1-1.08,1.74-1.08s1.42.42,1.74,1.08l2.67,5.42c.04.08.11.13.2.14l5.98.87c.74.11,1.34.61,1.57,1.32.23.71.04,1.47-.49,2l-4.32,4.21c-.06.06-.09.15-.08.24l1.02,5.95c.12.74-.17,1.47-.78,1.9-.6.44-1.39.49-2.05.15l-5.35-2.81c-.08-.04-.17-.04-.25,0l-5.35,2.81c-.29.15-.6.23-.91.23ZM51.27,48.98c-.06,0-.17.02-.24.15l-2.67,5.42c-.28.57-.83.97-1.46,1.06l-5.98.87c-.14.02-.2.12-.21.18-.02.06-.04.17.07.27l4.32,4.21c.46.45.67,1.09.56,1.72l-1.02,5.95c-.02.14.06.22.11.26.05.04.15.08.28.02l5.35-2.81c.57-.3,1.24-.3,1.81,0l5.35,2.81c.13.06.23.02.28-.02.05-.04.13-.12.11-.26l-1.02-5.95c-.11-.63.1-1.28.56-1.72l4.32-4.21c.1-.1.09-.21.07-.27-.02-.06-.07-.16-.21-.18l-5.98-.87c-.63-.09-1.18-.49-1.46-1.06l-2.67-5.41h0c-.06-.13-.18-.15-.24-.15Z"/><path class="cls-1" d="M83.12,23.51c-.31,0-.62-.08-.91-.23l-5.34-2.81c-.08-.04-.17-.04-.25,0l-5.35,2.81c-.66.35-1.44.29-2.05-.15-.6-.44-.9-1.17-.78-1.9l1.02-5.95c.01-.09-.01-.17-.08-.23l-4.32-4.21c-.53-.52-.72-1.29-.49-1.99.23-.71.83-1.22,1.57-1.33l5.98-.87c.09-.01.16-.07.2-.14l2.67-5.42c.33-.67,1-1.08,1.74-1.08h0c.75,0,1.41.41,1.74,1.08h0l2.67,5.41c.04.08.11.13.2.15l5.98.87c.74.11,1.34.62,1.57,1.33.23.71.04,1.47-.49,1.99l-4.32,4.21c-.06.06-.09.15-.08.23l1.02,5.96c.13.73-.17,1.46-.77,1.9-.34.25-.74.38-1.14.38ZM76.74,18.76c.31,0,.62.07.9.22l5.35,2.81c.13.06.23.02.28-.02.05-.04.13-.12.1-.26l-1.02-5.95c-.11-.63.1-1.27.56-1.72l4.32-4.21c.1-.1.09-.21.07-.27-.02-.06-.07-.16-.22-.18l-5.98-.87c-.63-.09-1.18-.49-1.46-1.06l-2.67-5.42c-.06-.13-.18-.15-.24-.15h0c-.06,0-.17.02-.24.15l-2.67,5.42c-.28.57-.83.97-1.46,1.06l-5.98.87c-.14.02-.2.12-.21.18-.02.06-.04.17.07.27l4.32,4.21c.46.45.67,1.09.56,1.72l-1.02,5.96c-.02.14.06.22.1.26.05.04.15.08.28.02l5.35-2.81c.28-.15.59-.22.9-.22Z"/><path class="cls-1" d="M44.9,38.06c-.4,0-.8-.13-1.14-.37-.6-.44-.9-1.17-.78-1.9l1.02-5.95c.01-.09-.01-.17-.08-.23l-4.32-4.21c-.53-.52-.72-1.29-.49-2,.23-.71.83-1.22,1.57-1.32l5.97-.87c.09-.01.16-.07.2-.14l2.67-5.42c.33-.67,1-1.08,1.74-1.08s1.42.42,1.74,1.08l2.67,5.42c.04.08.11.13.2.14l5.98.87c.74.11,1.34.61,1.57,1.32.23.71.04,1.47-.49,2l-4.32,4.21c-.06.06-.09.15-.08.24l1.02,5.95c.12.74-.17,1.47-.78,1.9-.6.44-1.39.5-2.05.15l-5.35-2.81c-.08-.04-.17-.04-.25,0l-5.35,2.81c-.29.15-.6.23-.91.23ZM51.27,16.23c-.06,0-.17.02-.24.15l-2.67,5.42c-.28.57-.83.97-1.46,1.06l-5.98.87c-.14.02-.2.12-.21.18-.02.06-.04.17.07.27l4.32,4.21c.46.45.67,1.09.56,1.72l-1.02,5.95c-.02.14.06.22.11.26.05.04.15.08.28.02l5.35-2.81c.57-.3,1.24-.3,1.81,0l5.35,2.81c.13.06.23.01.28-.02.05-.04.13-.12.11-.26l-1.02-5.95c-.11-.63.1-1.28.56-1.72l4.32-4.21c.1-.1.09-.21.07-.27-.02-.06-.07-.16-.21-.18l-5.98-.87c-.63-.09-1.18-.49-1.46-1.06l-2.67-5.41h0c-.06-.13-.18-.15-.24-.15Z"/></g></svg>