<?xml version="1.0" encoding="UTF-8"?>
<svg id="Warstwa_2" data-name="Warstwa 2" xmlns="http://www.w3.org/2000/svg" viewBox="0 0 4911.33 1030">
  <defs>
    <style>
      .cls-1 {
        fill: #d7af80;
      }

      .cls-1, .cls-2 {
        stroke-width: 0px;
      }

      .cls-2 {
        fill: #a13941;
      }
    </style>
  </defs>
  <g id="JTT-logo-poziom">
    <g>
      <g>
        <rect class="cls-2" y="729.72" width="233.16" height="233.16"/>
        <rect class="cls-2" x="573" width="233.16" height="233.18"/>
        <polygon class="cls-1" points="0 0 0 233.16 48.13 233.16 286.51 233.16 286.51 962.89 519.67 962.89 519.67 233.16 519.67 80.22 519.67 0 0 0"/>
      </g>
      <g>
        <g>
          <path class="cls-1" d="M1128.05,403.2l.91,41.74c0,17.46-2.89,32.26-8.7,44.52-5.82,12.21-15.22,23.06-28.21,32.54-13,9.5-30.82,18.52-53.43,27.07l-18.81-33.01v-5.52c18.94-9.78,32.34-19.48,40.14-29.12,7.8-9.61,11.67-22.11,11.67-37.37v-34.9l-2.71-158.22-48.64,1.36-4.62-4.57,3.22-42.66h112.41l-3.23,198.15Z"/>
          <path class="cls-1" d="M1397.81,500.46h-58.29l-6.43-33.5-4.13-13.32-46.78-.46-41.29.94-3.21,9.61-6.89,36.71h-56.4l81.19-231.65h68.34l73.89,231.65ZM1316.58,410.08l-26.15-88.52h-3.67l-30.73,88.52,29.82.46,30.73-.46Z"/>
          <path class="cls-1" d="M1619.32,278.43l-15.13,52.3h-5.04c-11.91-6.73-22.57-11.46-31.88-14.23-9.32-2.76-19.68-4.13-30.98-4.13-21.08,0-36.3,5.58-45.62,16.76-9.32,11.18-13.99,30.48-13.99,58.03,0,18.32,1.98,32.72,5.94,43.11,3.96,10.4,10.31,17.82,19.01,22.23,8.75,4.45,20.59,6.69,35.56,6.69,9.2,0,18.81-1.86,28.91-5.53v-14.69l-.44-36.67,52.76-3.67-.91,30.73v59.61c-29.99,10.11-58.13,15.14-84.43,15.14-38.53,0-67.57-9.87-87.17-29.58-19.55-19.71-29.32-47.93-29.32-84.64,0-40.34,11.31-71.15,33.96-92.44,22.6-21.23,54.73-31.84,96.31-31.84,25.7,0,49.82,4.25,72.47,12.83"/>
          <polygon class="cls-1" points="1728.95 426.14 1731.27 500.47 1673.44 500.47 1675.74 431.63 1673.44 268.82 1732.17 268.82 1728.95 426.14"/>
          <polygon class="cls-1" points="1960.6 453.65 1964.28 457.33 1960.15 500.44 1801.42 500.44 1803.74 431.63 1801.42 268.82 1962.42 268.82 1965.63 273.4 1961.96 316.04 1902.37 313.74 1859.22 313.74 1858.31 360.56 1899.6 361.01 1939.49 359.61 1942.7 363.74 1939.03 407.33 1895.48 405.97 1857.4 405.97 1856.95 426.14 1857.85 455.51 1898.19 455.51 1960.6 453.65"/>
          <polygon class="cls-1" points="2155.56 457.33 2151.43 500.43 2015.64 500.43 2018.4 431.63 2017.94 412.81 1995.02 422.93 1989.48 419.7 1980.33 387.61 2017.49 371.07 2015.64 268.82 2074.37 268.82 2072.97 346.77 2110.6 330.28 2115.17 333.05 2124.37 365.13 2072.07 388.52 2071.16 426.14 2072.07 453.2 2151.89 453.2 2155.56 457.33"/>
          <polygon class="cls-1" points="2342.69 457.33 2338.57 500.43 2202.78 500.43 2205.54 431.63 2205.09 412.81 2182.16 422.93 2176.63 419.7 2167.47 387.61 2204.59 371.07 2202.78 268.82 2261.48 268.82 2260.12 346.77 2297.74 330.28 2302.31 333.05 2311.51 365.13 2259.21 388.52 2258.3 426.14 2259.21 453.2 2339.02 453.2 2342.69 457.33"/>
          <path class="cls-1" d="M2550.96,294.94c18.93,19.89,28.42,48.02,28.42,84.4,0,39.77-10.31,70.58-30.94,92.44-20.67,21.86-49.79,32.79-87.41,32.79-34.56,0-61.29-10.14-80.27-30.48-18.97-20.34-28.46-49.01-28.46-86,0-39.15,10.27-69.42,30.77-90.83,20.47-21.41,49.54-32.13,87.16-32.13,34.85,0,61.75,9.94,80.72,29.82M2424.58,327.28c-8.13,10.23-12.17,27.92-12.17,52.97,0,20.2,1.77,36,5.28,47.47,3.51,11.47,9.19,19.68,16.99,24.54,7.8,4.92,18.28,7.35,31.4,7.35,19.3,0,32.95-5.03,41.08-15.14,8.09-10.06,12.14-27.8,12.14-53.2,0-20.17-1.82-36.01-5.49-47.48-3.68-11.47-9.32-19.63-16.96-24.54-7.67-4.87-18.23-7.34-31.68-7.34-18.98,0-32.51,5.16-40.59,15.38Z"/>
          <polygon class="cls-1" points="2887.64 210.09 2883.96 256.4 2828.49 253.68 2810.13 253.68 2807.81 406.88 2810.58 500.44 2748.17 500.44 2751.38 412.37 2749.12 253.68 2730.76 253.68 2674.33 256.4 2670.22 251.37 2674.33 205.05 2883.96 205.05 2887.64 210.09"/>
          <path class="cls-1" d="M3093.62,294.94c18.93,19.89,28.41,48.02,28.41,84.4,0,39.77-10.32,70.58-30.94,92.44-20.66,21.86-49.78,32.79-87.4,32.79-34.56,0-61.29-10.14-80.27-30.48-18.97-20.34-28.46-49.01-28.46-86,0-39.15,10.27-69.42,30.78-90.83,20.45-21.41,49.53-32.13,87.15-32.13,34.86,0,61.75,9.94,80.73,29.82M2967.22,327.28c-8.13,10.23-12.16,27.92-12.16,52.97,0,20.2,1.77,36,5.27,47.47,3.51,11.47,9.21,19.68,17,24.54,7.8,4.92,18.28,7.35,31.38,7.35,19.31,0,32.96-5.03,41.09-15.14,8.09-10.06,12.12-27.8,12.12-53.2,0-20.17-1.81-36.01-5.48-47.48-3.67-11.47-9.32-19.63-16.96-24.54-7.67-4.87-18.22-7.34-31.67-7.34-18.98,0-32.5,5.16-40.59,15.38Z"/>
          <path class="cls-1" d="M3341.99,399.76c7.8,8.71,11.72,20.27,11.72,34.66,0,23.22-9.65,40.33-28.92,51.35-19.26,11.01-47.85,16.49-85.79,16.49-16.79,0-40.51-.62-71.08-1.81l2.27-68.81-2.27-162.84,93.1-.46c25.7,0,45.83,5.03,60.35,15.14,14.51,10.05,21.77,24.62,21.77,43.56,0,12.25-3.21,22.93-9.64,32.13-6.4,9.15-15.6,16.33-27.52,21.54,16.21,4,28.22,10.35,36.01,19.04M3282.84,454.35c7.75-5.04,11.67-12.63,11.67-22.7,0-7.34-2.59-13.15-7.8-17.44-5.19-4.29-13.16-7.64-23.84-10.07l-39.93.92-.46,21.08.91,34.4c9.82.9,18.36,1.4,25.7,1.4,14.69,0,25.95-2.56,33.74-7.59ZM3273.19,315.12c-6.56-3.67-18.11-5.48-34.64-5.48h-14.2l-.95,54.57,33.5.91c8.86-2.11,15.42-5.56,19.71-10.31,4.29-4.75,6.43-11.39,6.43-19.96,0-9.45-3.29-16.06-9.85-19.73Z"/>
          <path class="cls-1" d="M3585.36,294.94c18.93,19.89,28.42,48.02,28.42,84.4,0,39.77-10.31,70.58-30.94,92.44-20.67,21.86-49.79,32.79-87.41,32.79-34.56,0-61.29-10.14-80.27-30.48-18.96-20.34-28.46-49.01-28.46-86,0-39.15,10.27-69.42,30.77-90.83,20.47-21.41,49.54-32.13,87.16-32.13,34.85,0,61.75,9.94,80.72,29.82M3458.97,327.28c-8.13,10.23-12.17,27.92-12.17,52.97,0,20.2,1.77,36,5.28,47.47,3.51,11.47,9.19,19.68,16.99,24.54,7.8,4.92,18.28,7.35,31.4,7.35,19.3,0,32.96-5.03,41.08-15.14,8.09-10.06,12.14-27.8,12.14-53.2,0-20.17-1.82-36.01-5.49-47.48-3.68-11.47-9.33-19.63-16.95-24.54-7.68-4.87-18.24-7.34-31.69-7.34-18.98,0-32.51,5.16-40.59,15.38Z"/>
          <polygon class="cls-1" points="3797.73 457.33 3794.06 500.43 3657.82 500.43 3660.57 431.63 3657.82 268.82 3716.55 268.82 3713.33 426.14 3714.24 453.2 3794.51 453.2 3797.73 457.33"/>
          <polygon class="cls-1" points="3996.81 453.65 4000.48 457.33 3996.35 500.44 3837.63 500.44 3839.94 431.63 3837.63 268.82 3998.62 268.82 4001.84 273.4 3998.17 316.04 3938.56 313.74 3895.42 313.74 3894.51 360.56 3935.81 361.01 3975.69 359.61 3978.9 363.74 3975.23 407.33 3931.67 405.97 3893.61 405.97 3893.15 426.14 3894.06 455.51 3934.4 455.51 3996.81 453.65"/>
          <polygon class="cls-1" points="4284.88 500.45 4222.47 500.45 4189.92 401.36 4186.25 401.36 4153.21 500.45 4091.29 500.45 4025.71 268.8 4083.5 268.8 4087.18 300.93 4124.79 440.35 4128.46 440.35 4166.08 323.87 4150.93 268.8 4210.59 268.8 4215.62 306.41 4254.6 440.35 4258.27 440.35 4301.83 304.11 4308.26 268.8 4362.84 268.8 4284.88 500.45"/>
          <path class="cls-1" d="M4547.25,277.05l-8.7,51.4-8.25,2.27c-9.82-7.34-19.26-12.83-28.46-16.5-9.16-3.67-17.58-5.53-25.24-5.53-8.54,0-15.26,2.06-20.17,6.18-4.91,4.17-7.34,9.12-7.34,14.93,0,6.44,3.05,11.68,9.2,15.84,6.1,4.13,15.72,8.94,28.87,14.44,13.78,5.81,25,11.18,33.74,16.04,8.7,4.91,16.21,11.72,22.44,20.41,6.31,8.71,9.45,19.68,9.45,32.8s-3.47,25.44-10.36,36.91c-6.84,11.47-17.28,20.75-31.18,27.76-13.9,7.06-31.1,10.56-51.6,10.56-11.01,0-23.02-1.15-36.01-3.41-12.99-2.32-25.62-5.91-37.83-10.82l7.8-54.11,5.94-4.13c10.1,9.15,21.41,16.49,33.94,22.03,12.55,5.49,23.72,8.26,33.5,8.26,8.54,0,15.51-2.16,20.87-6.44,5.37-4.24,8.04-9.61,8.04-16.04s-3.13-12.17-9.4-16.3c-6.28-4.12-16.01-8.78-29.17-13.97-13.72-5.82-24.99-11.27-33.7-16.3-8.7-5.03-16.21-12.01-22.47-20.87-6.28-8.86-9.41-19.88-9.41-32.99,0-13.77,3.75-26.32,11.26-37.63,7.47-11.34,18.19-20.2,32.09-26.6,13.9-6.43,30.19-9.65,48.84-9.65,22.03,0,43.15,3.84,63.32,11.46"/>
          <path class="cls-1" d="M4810.08,488.06l-1.36,6.89c-20.84,5.19-39.77,8.4-56.89,9.61l-7.34-3.18c-30.27-40.09-57.66-78.74-82.13-116.08l-.9,40.83,2.3,74.29h-57.83l2.31-68.8-2.31-162.81h58.74l-2.32,104.56,63.31-81.22,14.2-23.35,63.32-.49-83.95,109.64c27.81,37.33,58.08,74,90.83,110.1"/>
          <polygon class="cls-1" points="4899.98 426.14 4902.29 500.47 4844.46 500.47 4846.77 431.63 4844.46 268.82 4903.2 268.82 4899.98 426.14"/>
          <rect class="cls-1" x="1012.92" width="3892.07" height="53.59"/>
        </g>
        <g>
          <polygon class="cls-1" points="1034.53 840.78 1034.82 840.78 1136.05 745.29 1166.99 745.29 1059.78 841.7 1172.99 957.92 1141.17 957.92 1034.82 844.71 1034.53 844.71 1034.53 957.92 1012.92 957.92 1012.92 745.29 1034.53 745.29 1034.53 840.78"/>
          <path class="cls-1" d="M1285.3,866.95c0-12.11-3.17-21.16-9.58-27.1-6.44-6-15.74-8.97-27.93-8.97-8.43,0-16.23,1.49-23.43,4.51-7.24,3.01-13.35,7.02-18.34,12.02l-11.41-13.51c5.82-5.83,13.47-10.62,22.97-14.42,9.51-3.81,20.28-5.7,32.32-5.7,7.6,0,14.71,1.03,21.32,3.14,6.62,2.1,12.41,5.24,17.41,9.46,4.99,4.2,8.92,9.5,11.72,15.9,2.81,6.4,4.21,13.92,4.21,22.56v61.56c0,5.43.17,11,.59,16.82.41,5.79.99,10.7,1.82,14.71h-18.34c-.59-3.38-1.13-7.11-1.49-11.11-.42-4.01-.62-7.89-.62-11.74h-.59c-6.41,9.43-13.67,16.2-21.77,20.28-8.1,4.1-17.89,6.16-29.3,6.16-5.41,0-10.95-.73-16.65-2.22-5.71-1.54-10.91-3.97-15.62-7.4-4.71-3.44-8.64-7.85-11.73-13.26-3.1-5.46-4.68-12.07-4.68-19.88,0-10.87,2.77-19.47,8.27-25.79,5.53-6.31,12.88-11.02,22.1-14.17,9.17-3.09,19.75-5.12,31.69-6.03,11.9-.9,24.26-1.36,37.06-1.36v-4.46ZM1279.32,887.64c-8.43,0-16.9.34-25.37,1.05-8.51.7-16.24,2.09-23.15,4.2-6.9,2.11-12.55,5.16-16.98,9.19-4.38,4-6.61,9.28-6.61,15.9,0,5,.95,9.21,2.84,12.6,1.91,3.44,4.47,6.15,7.69,8.26,3.18,2.1,6.73,3.64,10.67,4.51,3.88.9,7.85,1.36,11.85,1.36,7.19,0,13.6-1.24,19.21-3.76,5.62-2.47,10.33-5.9,14.14-10.2,3.81-4.3,6.68-9.25,8.71-14.87,1.99-5.58,2.97-11.52,2.97-17.74v-10.49h-5.98Z"/>
          <path class="cls-1" d="M1375.43,817.36c.41,3.81.7,8.03.9,12.6.22,4.63.3,8.43.3,11.45h.62c3.97-8.22,10.5-14.87,19.5-20,9.01-5.08,18.52-7.64,28.56-7.64,17.8,0,31.15,5.29,40.08,15.92,8.92,10.61,13.34,24.62,13.34,42.06v86.19h-20.41v-77.8c0-7.4-.57-14.09-1.77-20.12-1.2-6-3.26-11.16-6.16-15.45-2.93-4.3-6.82-7.65-11.74-10.09-4.92-2.4-11.07-3.6-18.47-3.6-5.41,0-10.66,1.12-15.74,3.31-5.12,2.23-9.66,5.57-13.67,10.08-4.02,4.5-7.24,10.2-9.63,17.1-2.4,6.9-3.6,15.08-3.6,24.5v72.06h-20.46v-109.62c0-3.81-.08-8.72-.28-14.71-.21-6.03-.51-11.45-.87-16.25h19.5Z"/>
          <path class="cls-1" d="M1632.82,849.5c-3.43-5.41-8.35-9.88-14.87-13.34-6.54-3.51-13.55-5.29-21.17-5.29-8.22,0-15.61,1.49-22.22,4.38-6.62,2.89-12.28,6.9-16.98,11.98-4.72,5.13-8.3,11.12-10.83,18.06-2.47,6.9-3.76,14.34-3.76,22.35s1.29,15.42,3.76,22.24c2.53,6.81,6.08,12.76,10.67,17.89,4.62,5.08,10.24,9.09,16.81,11.98,6.61,2.93,14.05,4.38,22.23,4.38,9.06,0,16.66-1.7,22.85-5.13,6.2-3.39,11.33-7.8,15.33-13.22l15.29,11.45c-5.98,7.39-13.34,13.3-22.07,17.67-8.72,4.43-19.17,6.62-31.4,6.62-11.4,0-21.73-1.82-30.91-5.54-9.21-3.71-17.05-8.88-23.59-15.45-6.52-6.62-11.57-14.42-15.16-23.47-3.58-9.01-5.41-18.8-5.41-29.42s1.83-20.4,5.41-29.42c3.6-9.01,8.64-16.81,15.16-23.43,6.54-6.6,14.39-11.77,23.59-15.45,9.18-3.72,19.51-5.57,30.91-5.57,9.43,0,19.01,2.06,28.69,6.15,9.74,4.09,17.59,10.17,23.59,18.18l-15.9,11.41Z"/>
          <path class="cls-1" d="M1809.73,883.44v4.51c0,1.6-.11,3.3-.33,5.12h-116.51c.2,6.98,1.6,13.6,4.22,19.79,2.6,6.24,6.19,11.61,10.82,16.23,4.58,4.6,10,8.27,16.19,10.95,6.2,2.73,12.93,4.05,20.12,4.05,10.61,0,19.8-2.43,27.48-7.35,7.72-4.87,13.55-10.54,17.56-16.94l15.33,11.98c-8.39,10.61-17.69,18.21-27.77,22.85-10.12,4.58-20.99,6.9-32.59,6.9-10.41,0-20.09-1.86-29.01-5.54-8.88-3.73-16.52-8.88-22.96-15.49-6.41-6.61-11.45-14.42-15.17-23.43-3.68-9.01-5.54-18.8-5.54-29.42s1.78-20.45,5.42-29.46c3.59-9.01,8.58-16.82,14.99-23.44,6.41-6.56,13.92-11.72,22.52-15.45,8.63-3.72,17.93-5.54,27.93-5.54,11.02,0,20.73,1.82,29.16,5.54,8.38,3.72,15.41,8.71,20.99,15,5.62,6.31,9.87,13.67,12.76,22.1,2.89,8.39,4.38,17.39,4.38,27.02M1788.99,876.83c-.57-13.22-4.82-24.17-12.76-32.89-7.89-8.72-19.17-13.05-33.79-13.05-6.78,0-13.11,1.24-18.93,3.76-5.79,2.48-10.92,5.9-15.29,10.2-4.42,4.3-7.94,9.22-10.54,14.71-2.6,5.49-4.09,11.28-4.51,17.27h95.81Z"/>
          <rect class="cls-1" x="1854.16" y="730.88" width="20.41" height="227.04"/>
          <path class="cls-1" d="M2017.84,866.95c0-12.11-3.18-21.16-9.59-27.1-6.44-6-15.74-8.97-27.92-8.97-8.43,0-16.25,1.49-23.44,4.51-7.23,3.01-13.34,7.02-18.34,12.02l-11.41-13.51c5.83-5.83,13.48-10.62,22.98-14.42,9.5-3.81,20.28-5.7,32.31-5.7,7.6,0,14.71,1.03,21.32,3.14,6.6,2.1,12.39,5.24,17.39,9.46,5,4.2,8.92,9.5,11.73,15.9,2.81,6.4,4.22,13.92,4.22,22.56v61.56c0,5.43.16,11,.57,16.82.42,5.79,1,10.7,1.82,14.71h-18.34c-.58-3.38-1.12-7.11-1.49-11.11-.41-4.01-.62-7.89-.62-11.74h-.58c-6.4,9.43-13.68,16.2-21.77,20.28-8.1,4.1-17.9,6.16-29.29,6.16-5.43,0-10.95-.73-16.65-2.22-5.71-1.54-10.92-3.97-15.63-7.4-4.71-3.44-8.63-7.85-11.74-13.26-3.09-5.46-4.66-12.07-4.66-19.88,0-10.87,2.76-19.47,8.26-25.79,5.54-6.31,12.89-11.02,22.11-14.17,9.17-3.09,19.75-5.12,31.7-6.03,11.9-.9,24.24-1.36,37.05-1.36v-4.46ZM2011.84,887.64c-8.42,0-16.89.34-25.37,1.05-8.5.7-16.23,2.09-23.13,4.2-6.9,2.11-12.57,5.16-16.98,9.19-4.38,4-6.62,9.28-6.62,15.9,0,5,.96,9.21,2.86,12.6,1.9,3.44,4.46,6.15,7.68,8.26,3.18,2.1,6.74,3.64,10.65,4.51,3.89.9,7.85,1.36,11.87,1.36,7.18,0,13.59-1.24,19.21-3.76,5.63-2.47,10.33-5.9,14.14-10.2,3.79-4.3,6.69-9.25,8.66-14.87,2.03-5.58,3.02-11.52,3.02-17.74v-10.49h-6Z"/>
          <path class="cls-1" d="M2089.34,833.58c-.21-5.99-.51-11.4-.91-16.23h19.55c.38,3.84.7,8.01.86,12.64.21,4.59.33,8.39.33,11.41h.57c4.02-8.22,10.05-14.87,18.03-19.96,8.01-5.12,17.02-7.69,27.06-7.69,2.56,0,4.92.12,7.03.33,2.1.17,4.25.59,6.49,1.2l-2.73,19.51c-1.19-.37-3.18-.78-5.98-1.21-2.81-.41-5.62-.57-8.43-.57-5.37,0-10.62.99-15.63,2.97-5,1.98-9.34,5.11-13.04,9.41-3.73,4.3-6.7,9.79-9.01,16.49-2.32,6.69-3.44,14.74-3.44,24.13v71.89h-20.46v-109.62c0-3.79-.09-8.68-.28-14.71"/>
          <path class="cls-1" d="M2222.68,763.31c0,4.21-1.53,7.65-4.5,10.38-3.02,2.68-6.32,4.04-9.92,4.04s-6.9-1.36-9.92-4.04c-3.01-2.73-4.5-6.16-4.5-10.38s1.49-7.69,4.5-10.36c3.02-2.69,6.32-4.05,9.92-4.05s6.9,1.36,9.92,4.05c2.97,2.68,4.5,6.14,4.5,10.36M2218.46,957.92h-20.4v-140.56h20.4v140.56Z"/>
          <path class="cls-1" d="M2361.43,866.95c0-12.11-3.18-21.16-9.59-27.1-6.44-6-15.74-8.97-27.92-8.97-8.43,0-16.24,1.49-23.44,4.51-7.23,3.01-13.34,7.02-18.34,12.02l-11.41-13.51c5.84-5.83,13.47-10.62,22.98-14.42,9.5-3.81,20.29-5.7,32.31-5.7,7.6,0,14.7,1.03,21.32,3.14,6.61,2.1,12.4,5.24,17.4,9.46,5,4.2,8.92,9.5,11.73,15.9,2.81,6.4,4.21,13.92,4.21,22.56v61.56c0,5.43.17,11,.57,16.82.41,5.79,1,10.7,1.82,14.71h-18.34c-.57-3.38-1.12-7.11-1.49-11.11-.41-4.01-.62-7.89-.62-11.74h-.57c-6.41,9.43-13.68,16.2-21.77,20.28-8.11,4.1-17.9,6.16-29.31,6.16-5.41,0-10.94-.73-16.64-2.22-5.71-1.54-10.92-3.97-15.62-7.4-4.71-3.44-8.63-7.85-11.74-13.26-3.09-5.46-4.66-12.07-4.66-19.88,0-10.87,2.76-19.47,8.26-25.79,5.54-6.31,12.89-11.02,22.11-14.17,9.17-3.09,19.75-5.12,31.68-6.03,11.9-.9,24.26-1.36,37.07-1.36v-4.46ZM2355.44,887.64c-8.42,0-16.9.34-25.37,1.05-8.5.7-16.23,2.09-23.13,4.2-6.9,2.11-12.57,5.16-16.98,9.19-4.38,4-6.62,9.28-6.62,15.9,0,5,.96,9.21,2.86,12.6,1.9,3.44,4.47,6.15,7.69,8.26,3.18,2.1,6.73,3.64,10.66,4.51,3.89.9,7.85,1.36,11.87,1.36,7.18,0,13.59-1.24,19.21-3.76,5.62-2.47,10.33-5.9,14.14-10.2,3.8-4.3,6.69-9.25,8.71-14.87,1.98-5.58,2.97-11.52,2.97-17.74v-10.49h-6Z"/>
          <path class="cls-1" d="M2531.14,957.93h-21.61v-212.66h62.47c10.41,0,20.04,1.04,28.97,3.01,8.93,2.03,16.61,5.26,23.13,9.76,6.49,4.51,11.57,10.38,15.16,17.6,3.6,7.19,5.42,15.99,5.42,26.4,0,7.82-1.41,14.92-4.22,21.32-2.81,6.4-6.61,11.99-11.4,16.7-4.84,4.71-10.54,8.47-17.15,11.24-6.62,2.81-13.81,4.62-21.61,5.41l62.18,101.23h-26.45l-58.88-99.4h-36.02v99.4ZM2531.14,839.9h37.56c17.39,0,30.82-3.15,40.24-9.47,9.37-6.29,14.09-15.79,14.09-28.39,0-6.98-1.29-12.89-3.89-17.72-2.6-4.8-6.2-8.68-10.82-11.7-4.59-3.01-10.21-5.2-16.82-6.6-6.61-1.41-13.92-2.11-21.93-2.11h-38.43v75.99Z"/>
          <path class="cls-1" d="M2773.2,866.95c0-12.11-3.18-21.16-9.59-27.1-6.44-6-15.74-8.97-27.93-8.97-8.42,0-16.23,1.49-23.43,4.51-7.22,3.01-13.34,7.02-18.34,12.02l-11.41-13.51c5.83-5.83,13.47-10.62,22.98-14.42,9.5-3.81,20.28-5.7,32.3-5.7,7.6,0,14.71,1.03,21.33,3.14,6.61,2.1,12.39,5.24,17.4,9.46,5,4.2,8.92,9.5,11.73,15.9,2.81,6.4,4.22,13.92,4.22,22.56v61.56c0,5.43.17,11,.57,16.82.41,5.79,1,10.7,1.82,14.71h-18.34c-.59-3.38-1.12-7.11-1.49-11.11-.41-4.01-.62-7.89-.62-11.74h-.57c-6.41,9.43-13.68,16.2-21.78,20.28-8.1,4.1-17.89,6.16-29.3,6.16-5.41,0-10.95-.73-16.64-2.22-5.71-1.54-10.92-3.97-15.63-7.4-4.71-3.44-8.63-7.85-11.73-13.26-3.09-5.46-4.67-12.07-4.67-19.88,0-10.87,2.76-19.47,8.26-25.79,5.54-6.31,12.89-11.02,22.1-14.17,9.18-3.09,19.76-5.12,31.69-6.03,11.9-.9,24.26-1.36,37.07-1.36v-4.46ZM2767.21,887.64c-8.43,0-16.9.34-25.37,1.05-8.51.7-16.23,2.09-23.13,4.2-6.91,2.11-12.57,5.16-16.98,9.19-4.38,4-6.62,9.28-6.62,15.9,0,5,.95,9.21,2.86,12.6,1.9,3.44,4.47,6.15,7.69,8.26,3.17,2.1,6.73,3.64,10.66,4.51,3.89.9,7.85,1.36,11.86,1.36,7.19,0,13.6-1.24,19.22-3.76,5.62-2.47,10.33-5.9,14.13-10.2,3.81-4.3,6.7-9.25,8.67-14.87,2.03-5.58,3.02-11.52,3.02-17.74v-10.49h-6Z"/>
          <path class="cls-1" d="M2960.6,934.22c-5.99,9.01-13.8,15.82-23.42,20.41-9.58,4.58-19.5,6.9-29.71,6.9-11.03,0-21-1.89-29.93-5.7-8.88-3.79-16.48-9.01-22.8-15.62-6.32-6.62-11.2-14.43-14.71-23.44-3.52-9.01-5.25-18.72-5.25-29.13s1.73-20.12,5.25-29.13c3.51-9.01,8.38-16.82,14.71-23.42,6.32-6.61,13.92-11.82,22.8-15.62,8.93-3.81,18.89-5.7,29.93-5.7,10.2,0,20.12,2.35,29.71,7.06,9.62,4.71,17.44,11.66,23.42,20.86h.62v-110.86h20.41v227.09h-20.41v-23.71h-.62ZM2856.4,887.64c0,7.82,1.19,15.17,3.6,22.07,2.4,6.9,5.87,12.93,10.38,18.01,4.5,5.13,10.07,9.14,16.69,12.03,6.57,2.89,14.09,4.38,22.51,4.38,7.81,0,15-1.49,21.61-4.38,6.61-2.89,12.32-6.87,17.11-11.86,4.84-4.99,8.6-10.94,11.28-17.89,2.68-6.9,4.05-14.34,4.05-22.36s-1.37-15.45-4.05-22.39c-2.69-6.9-6.44-12.88-11.28-18.01-4.79-5.08-10.49-9.09-17.11-11.99-6.61-2.93-13.8-4.38-21.61-4.38-8.42,0-15.94,1.49-22.51,4.51-6.62,3.01-12.19,7.06-16.69,12.19-4.51,5.08-7.98,11.08-10.38,18.02-2.41,6.9-3.6,14.25-3.6,22.05Z"/>
          <path class="cls-1" d="M3137.53,849.5c-3.43-5.41-8.39-9.88-14.88-13.34-6.53-3.51-13.55-5.29-21.15-5.29-8.22,0-15.63,1.49-22.24,4.38-6.62,2.89-12.27,6.9-16.98,11.98-4.71,5.13-8.31,11.12-10.83,18.06-2.47,6.9-3.76,14.34-3.76,22.35s1.29,15.42,3.76,22.24c2.53,6.81,6.08,12.76,10.67,17.89,4.63,5.08,10.25,9.09,16.81,11.98,6.62,2.93,14.05,4.38,22.23,4.38,9.06,0,16.62-1.7,22.85-5.13,6.2-3.39,11.33-7.8,15.33-13.22l15.29,11.45c-5.99,7.39-13.34,13.3-22.06,17.67-8.72,4.43-19.17,6.62-31.41,6.62-11.4,0-21.72-1.82-30.9-5.54-9.22-3.71-17.11-8.88-23.6-15.45-6.53-6.62-11.57-14.42-15.16-23.47-3.6-9.01-5.42-18.8-5.42-29.42s1.83-20.4,5.42-29.42c3.58-9.01,8.63-16.81,15.16-23.43,6.48-6.6,14.38-11.77,23.6-15.45,9.17-3.72,19.5-5.57,30.9-5.57,9.43,0,19.01,2.06,28.69,6.15,9.74,4.09,17.6,10.17,23.59,18.18l-15.9,11.41Z"/>
          <path class="cls-1" d="M3326.12,887.66c0,10.61-1.81,20.4-5.54,29.4-3.72,9.02-8.88,16.82-15.5,23.44-6.57,6.6-14.5,11.77-23.71,15.49-9.21,3.68-19.29,5.53-30.32,5.53s-20.83-1.85-30.04-5.53c-9.2-3.73-17.1-8.89-23.71-15.49-6.61-6.62-11.77-14.42-15.45-23.44-3.72-9-5.58-18.8-5.58-29.4s1.86-20.46,5.58-29.47c3.68-8.96,8.84-16.81,15.45-23.38,6.61-6.62,14.51-11.78,23.71-15.5,9.22-3.72,19.22-5.54,30.04-5.54s21.12,1.81,30.32,5.54c9.22,3.72,17.15,8.88,23.71,15.5,6.62,6.57,11.78,14.42,15.5,23.38,3.73,9.01,5.54,18.85,5.54,29.47M3304.51,887.66c0-7.82-1.24-15.17-3.76-22.07-2.52-6.95-6.03-12.93-10.66-18.06-4.59-5.08-10.21-9.13-16.82-12.15-6.6-3.01-14-4.49-22.23-4.49s-15.58,1.49-22.07,4.49c-6.52,3.02-12.06,7.06-16.69,12.15-4.6,5.13-8.14,11.12-10.66,18.06-2.48,6.9-3.76,14.25-3.76,22.07s1.28,15.15,3.76,22.06c2.52,6.9,6.07,12.93,10.66,18.01,4.63,5.12,10.17,9.13,16.69,12.02,6.49,2.89,13.84,4.34,22.07,4.34s15.63-1.45,22.23-4.34c6.61-2.89,12.23-6.9,16.82-12.02,4.63-5.08,8.14-11.11,10.66-18.01,2.52-6.91,3.76-14.26,3.76-22.06ZM3256.46,788.54h-17.72l30.03-43.27h27.36l-39.67,43.27Z"/>
          <polygon class="cls-1" points="3372.69 817.36 3406.61 931.48 3407.23 931.48 3445.07 817.36 3464.91 817.36 3503.34 931.48 3503.96 931.48 3537.59 817.36 3559.2 817.36 3514.74 957.93 3492.51 957.93 3454.99 844.1 3454.37 844.1 3417.43 957.93 3395.2 957.93 3350.79 817.36 3372.69 817.36"/>
          <path class="cls-1" d="M3670.35,745.29h60.02c10.84,0,20.63,1.12,29.47,3.43,8.8,2.32,16.36,5.83,22.69,10.54,6.27,4.71,11.15,10.57,14.53,17.72,3.4,7.11,5.13,15.46,5.13,25.09s-1.78,17.93-5.24,25.03c-3.52,7.11-8.43,13.06-14.76,17.73-6.27,4.71-13.92,8.26-22.8,10.66-8.93,2.4-18.76,3.63-29.59,3.63h-37.84v98.79h-21.61v-212.62ZM3691.96,840.78h36.65c17.02,0,29.91-3.3,38.76-9.92,8.8-6.6,13.18-16.18,13.18-28.79,0-13.22-4.55-22.9-13.63-29.01-9.14-6.11-21.9-9.17-38.3-9.17h-36.65v76.89Z"/>
          <path class="cls-1" d="M3828.62,833.58c-.21-5.99-.5-11.4-.92-16.23h19.55c.38,3.84.7,8.01.87,12.64.2,4.59.33,8.39.33,11.41h.57c4.02-8.22,10-14.87,18.03-19.96,8.01-5.12,17.02-7.69,27.05-7.69,2.57,0,4.92.12,7.03.33,2.11.17,4.25.59,6.49,1.2l-2.73,19.51c-1.2-.37-3.19-.78-6-1.21-2.8-.41-5.61-.57-8.42-.57-5.38,0-10.63.99-15.63,2.97-5,1.98-9.33,5.11-13.05,9.41-3.72,4.3-6.7,9.79-9.02,16.49-2.31,6.69-3.42,14.74-3.42,24.13v71.89h-20.46v-109.62c0-3.79-.08-8.68-.28-14.71"/>
          <path class="cls-1" d="M4022.02,866.95c0-12.11-3.18-21.16-9.59-27.1-6.44-6-15.74-8.97-27.92-8.97-8.43,0-16.24,1.49-23.44,4.51-7.23,3.01-13.34,7.02-18.34,12.02l-11.41-13.51c5.84-5.83,13.47-10.62,22.98-14.42,9.5-3.81,20.29-5.7,32.31-5.7,7.6,0,14.7,1.03,21.32,3.14,6.61,2.1,12.4,5.24,17.4,9.46,5,4.2,8.92,9.5,11.73,15.9,2.81,6.4,4.21,13.92,4.21,22.56v61.56c0,5.43.17,11,.57,16.82.42,5.79,1,10.7,1.82,14.71h-18.34c-.57-3.38-1.12-7.11-1.49-11.11-.41-4.01-.62-7.89-.62-11.74h-.57c-6.41,9.43-13.68,16.2-21.77,20.28-8.11,4.1-17.9,6.16-29.31,6.16-5.41,0-10.94-.73-16.64-2.22-5.71-1.54-10.92-3.97-15.62-7.4-4.71-3.44-8.63-7.85-11.74-13.26-3.09-5.46-4.66-12.07-4.66-19.88,0-10.87,2.76-19.47,8.26-25.79,5.54-6.31,12.89-11.02,22.11-14.17,9.17-3.09,19.75-5.12,31.68-6.03,11.9-.9,24.26-1.36,37.07-1.36v-4.46ZM4016.03,887.64c-8.42,0-16.89.34-25.37,1.05-8.5.7-16.23,2.09-23.13,4.2-6.9,2.11-12.57,5.16-16.98,9.19-4.38,4-6.62,9.28-6.62,15.9,0,5,.96,9.21,2.86,12.6,1.9,3.44,4.47,6.15,7.69,8.26,3.18,2.1,6.73,3.64,10.66,4.51,3.89.9,7.85,1.36,11.87,1.36,7.18,0,13.59-1.24,19.21-3.76,5.62-2.47,10.33-5.9,14.14-10.2,3.8-4.3,6.69-9.25,8.71-14.87,1.98-5.58,2.97-11.52,2.97-17.74v-10.49h-6Z"/>
          <polygon class="cls-1" points="4096.5 817.36 4130.43 931.48 4131.05 931.48 4168.9 817.36 4188.73 817.36 4227.15 931.48 4227.78 931.48 4261.41 817.36 4283.02 817.36 4238.56 957.93 4216.33 957.93 4178.82 844.1 4178.19 844.1 4141.26 957.93 4119.02 957.93 4074.61 817.36 4096.5 817.36"/>
          <path class="cls-1" d="M4336.19,817.36c.42,3.81.7,8.03.91,12.6.21,4.63.3,8.43.3,11.45h.62c3.96-8.22,10.49-14.87,19.5-20,9.01-5.08,18.51-7.64,28.55-7.64,17.81,0,31.16,5.29,40.08,15.92,8.89,10.61,13.35,24.62,13.35,42.06v86.19h-20.41v-77.8c0-7.4-.57-14.09-1.78-20.12-1.2-6-3.26-11.16-6.15-15.45-2.94-4.3-6.82-7.65-11.73-10.09-4.92-2.4-11.08-3.6-18.47-3.6-5.41,0-10.66,1.12-15.74,3.31-5.13,2.23-9.68,5.57-13.68,10.08-4,4.5-7.22,10.2-9.63,17.1-2.39,6.9-3.59,15.08-3.59,24.5v72.06h-20.45v-109.62c0-3.81-.08-8.72-.3-14.71-.2-6.03-.49-11.45-.87-16.25h19.5Z"/>
          <path class="cls-1" d="M4540.71,936.01h.57l43.6-118.63h22.18l-69.94,176.89c-4.22,10.82-9.58,19.5-16.07,25.98-6.54,6.49-15.87,9.75-28.1,9.75-6.19,0-12.32-.57-18.3-1.77l2.11-18.63c4.79,1.61,9.79,2.39,14.99,2.39,7.03,0,12.52-2.14,16.54-6.44,4.01-4.3,7.51-10.46,10.5-18.47l11.44-29.46-60.08-140.24h22.81l47.76,118.63Z"/>
          <path class="cls-1" d="M4740.15,849.5c-3.44-5.41-8.39-9.88-14.88-13.34-6.52-3.51-13.55-5.29-21.15-5.29-8.22,0-15.63,1.49-22.24,4.38-6.61,2.89-12.27,6.9-16.98,11.98-4.71,5.13-8.3,11.12-10.82,18.06-2.49,6.9-3.76,14.34-3.76,22.35s1.28,15.42,3.76,22.24c2.52,6.81,6.07,12.76,10.66,17.89,4.63,5.08,10.25,9.09,16.82,11.98,6.61,2.93,14.05,4.38,22.23,4.38,9.04,0,16.64-1.7,22.84-5.13,6.21-3.39,11.33-7.8,15.33-13.22l15.29,11.45c-6,7.39-13.35,13.3-22.06,17.67-8.73,4.43-19.17,6.62-31.4,6.62-11.41,0-21.74-1.82-30.91-5.54-9.22-3.71-17.11-8.88-23.6-15.45-6.52-6.62-11.56-14.42-15.16-23.47-3.59-9.01-5.41-18.8-5.41-29.42s1.82-20.4,5.41-29.42c3.6-9.01,8.64-16.81,15.16-23.43,6.49-6.6,14.38-11.77,23.6-15.45,9.17-3.72,19.5-5.57,30.91-5.57,9.42,0,18.99,2.06,28.67,6.15,9.75,4.09,17.61,10.17,23.59,18.18l-15.9,11.41Z"/>
          <path class="cls-1" d="M4810.72,840.49c3.8-8.22,10.13-14.7,18.93-19.5,8.8-4.83,18.22-7.22,28.21-7.22,17.85,0,31.2,5.29,40.13,15.9,8.88,10.62,13.34,24.63,13.34,42.06v86.19h-20.4v-77.76c0-7.43-.62-14.12-1.83-20.16-1.2-6-3.26-11.16-6.15-15.46-2.89-4.3-6.82-7.64-11.7-10.09-4.91-2.39-11.07-3.6-18.47-3.6-5.41,0-10.66,1.13-15.78,3.32-5.13,2.22-9.67,5.57-13.68,10.07-4,4.51-7.19,10.21-9.58,17.11-2.4,6.9-3.6,15.08-3.6,24.5v72.05h-20.45v-227.04h20.45v109.62h.58Z"/>
        </g>
      </g>
    </g>
  </g>
</svg>