<?xml version="1.0" encoding="UTF-8"?><svg id="Layer_2" xmlns="http://www.w3.org/2000/svg" viewBox="0 0 89 85.64"><defs><style>.cls-1{fill:#d7af7d;}.cls-1,.cls-2{stroke-width:0px;}.cls-2{fill:#a13941;}</style></defs><g id="Layer_1-2"><path class="cls-2" d="M44.5,62.13c-5.23,0-10.13-2.06-13.79-5.81-.15-.16-.24-.37-.24-.59v-3.13c0-2.22,1.5-4.17,3.66-4.74l4.7-1.23c.45-.12.91.15,1.02.6.12.45-.15.91-.6,1.03l-4.7,1.23c-1.42.37-2.4,1.65-2.4,3.11v2.79c3.32,3.27,7.69,5.06,12.35,5.06s9.03-1.8,12.35-5.06v-2.79c0-1.46-.99-2.74-2.4-3.11l-4.7-1.23c-.45-.12-.72-.58-.6-1.03.12-.45.57-.72,1.03-.6l4.7,1.23c2.15.57,3.66,2.51,3.66,4.74v3.13c0,.22-.09.43-.24.59-3.67,3.75-8.57,5.81-13.79,5.81Z"/><path class="cls-2" d="M44.5,52.14c-.16,0-.32-.05-.46-.13-5.83-3.77-5.83-4.04-5.84-4.54,0-.33.18-.63.47-.77.86-.42,1.58-1.73,1.78-2.76.09-.46.55-.76.98-.66.46.09.75.53.67.98-.21,1.06-.81,2.37-1.72,3.25.9.66,2.54,1.77,4.12,2.8,1.58-1.03,3.22-2.13,4.12-2.79-.94-.88-1.54-2.15-1.74-3.22-.09-.46.21-.89.67-.98.44-.09.9.21.98.67.21,1.15.98,2.29,1.82,2.72.28.15.46.44.46.76,0,.5-.01.78-5.85,4.55-.14.09-.3.13-.46.13ZM39.04,47.44h.02-.02Z"/><path class="cls-2" d="M44.5,46c-3.96,0-7.18-3.79-7.18-8.45,0-4.38,2.95-7.44,7.18-7.44s7.18,3.06,7.18,7.44c0,4.66-3.22,8.45-7.18,8.45ZM44.5,31.79c-3.29,0-5.51,2.31-5.51,5.76,0,3.73,2.47,6.77,5.51,6.77s5.5-3.04,5.5-6.77c0-3.44-2.21-5.76-5.5-5.76Z"/><path class="cls-2" d="M44.5,62.13c-.46,0-.84-.38-.84-.84v-10c0-.46.38-.84.84-.84s.84.38.84.84v10c0,.46-.38.84-.84.84Z"/><path class="cls-1" d="M36.11,23.51c-.46,0-.84-.38-.84-.84v-9.73l-4.55-4.55H14.27c-.46,0-.84-.38-.84-.84s.38-.84.84-.84h16.79c.22,0,.44.09.59.25l5.04,5.04c.16.16.25.37.25.59v10.08c0,.46-.38.84-.84.84Z"/><path class="cls-1" d="M52.9,23.51c-.46,0-.84-.38-.84-.84v-10.08c0-.22.09-.44.25-.59l5.04-5.04c.16-.16.37-.25.59-.25h16.79c.46,0,.84.38.84.84s-.38.84-.84.84h-16.45l-4.55,4.55v9.73c0,.46-.38.84-.84.84Z"/><path class="cls-1" d="M74.73,78.92h-16.79c-.22,0-.44-.09-.59-.25l-5.04-5.04c-.16-.16-.25-.37-.25-.59v-10.08c0-.46.38-.84.84-.84s.84.38.84.84v9.73l4.55,4.55h16.45c.46,0,.84.38.84.84s-.38.84-.84.84Z"/><path class="cls-1" d="M74.73,55.42h-11.76c-.46,0-.84-.38-.84-.84s.38-.84.84-.84h11.76c.46,0,.84.38.84.84s-.38.84-.84.84Z"/><path class="cls-1" d="M74.73,31.91h-11.76c-.46,0-.84-.38-.84-.84s.38-.84.84-.84h11.76c.46,0,.84.38.84.84s-.38.84-.84.84Z"/><path class="cls-1" d="M26.03,55.42h-11.76c-.46,0-.84-.38-.84-.84s.38-.84.84-.84h11.76c.46,0,.84.38.84.84s-.38.84-.84.84Z"/><path class="cls-1" d="M26.03,31.91h-11.76c-.46,0-.84-.38-.84-.84s.38-.84.84-.84h11.76c.46,0,.84.38.84.84s-.38.84-.84.84Z"/><path class="cls-1" d="M31.07,78.92H14.27c-.46,0-.84-.38-.84-.84s.38-.84.84-.84h16.45l4.55-4.55v-9.73c0-.46.38-.84.84-.84s.84.38.84.84v10.08c0,.22-.09.44-.25.59l-5.04,5.04c-.16.16-.37.25-.59.25Z"/><path class="cls-2" d="M44.5,62.13c-10.65,0-19.31-8.66-19.31-19.31s8.66-19.31,19.31-19.31,19.31,8.66,19.31,19.31-8.66,19.31-19.31,19.31ZM44.5,25.19c-9.72,0-17.63,7.91-17.63,17.63s7.91,17.63,17.63,17.63,17.63-7.91,17.63-17.63-7.91-17.63-17.63-17.63Z"/><path class="cls-2" d="M84.8,38.62h-6.72c-2.32,0-4.2-1.88-4.2-4.2v-6.72c0-2.31,1.88-4.2,4.2-4.2h6.72c2.32,0,4.2,1.88,4.2,4.2v6.72c0,2.31-1.88,4.2-4.2,4.2ZM78.08,25.19c-1.39,0-2.52,1.13-2.52,2.52v6.72c0,1.39,1.13,2.52,2.52,2.52h6.72c1.39,0,2.52-1.13,2.52-2.52v-6.72c0-1.39-1.13-2.52-2.52-2.52h-6.72Z"/><path class="cls-2" d="M84.8,62.13h-6.72c-2.32,0-4.2-1.88-4.2-4.2v-6.72c0-2.31,1.88-4.2,4.2-4.2h6.72c2.32,0,4.2,1.88,4.2,4.2v6.72c0,2.31-1.88,4.2-4.2,4.2ZM78.08,48.7c-1.39,0-2.52,1.13-2.52,2.52v6.72c0,1.39,1.13,2.52,2.52,2.52h6.72c1.39,0,2.52-1.13,2.52-2.52v-6.72c0-1.39-1.13-2.52-2.52-2.52h-6.72Z"/><path class="cls-2" d="M84.8,15.11h-6.72c-2.32,0-4.2-1.88-4.2-4.2v-6.72c0-2.31,1.88-4.2,4.2-4.2h6.72c2.32,0,4.2,1.88,4.2,4.2v6.72c0,2.31-1.88,4.2-4.2,4.2ZM78.08,1.68c-1.39,0-2.52,1.13-2.52,2.52v6.72c0,1.39,1.13,2.52,2.52,2.52h6.72c1.39,0,2.52-1.13,2.52-2.52v-6.72c0-1.39-1.13-2.52-2.52-2.52h-6.72Z"/><path class="cls-2" d="M84.8,85.64h-6.72c-2.32,0-4.2-1.88-4.2-4.2v-6.72c0-2.31,1.88-4.2,4.2-4.2h6.72c2.32,0,4.2,1.88,4.2,4.2v6.72c0,2.31-1.88,4.2-4.2,4.2ZM78.08,72.21c-1.39,0-2.52,1.13-2.52,2.52v6.72c0,1.39,1.13,2.52,2.52,2.52h6.72c1.39,0,2.52-1.13,2.52-2.52v-6.72c0-1.39-1.13-2.52-2.52-2.52h-6.72Z"/><path class="cls-2" d="M10.92,38.62h-6.72c-2.32,0-4.2-1.88-4.2-4.2v-6.72c0-2.31,1.88-4.2,4.2-4.2h6.72c2.32,0,4.2,1.88,4.2,4.2v6.72c0,2.31-1.88,4.2-4.2,4.2ZM4.2,25.19c-1.39,0-2.52,1.13-2.52,2.52v6.72c0,1.39,1.13,2.52,2.52,2.52h6.72c1.39,0,2.52-1.13,2.52-2.52v-6.72c0-1.39-1.13-2.52-2.52-2.52h-6.72Z"/><path class="cls-2" d="M10.92,62.13h-6.72c-2.32,0-4.2-1.88-4.2-4.2v-6.72c0-2.31,1.88-4.2,4.2-4.2h6.72c2.32,0,4.2,1.88,4.2,4.2v6.72c0,2.31-1.88,4.2-4.2,4.2ZM4.2,48.7c-1.39,0-2.52,1.13-2.52,2.52v6.72c0,1.39,1.13,2.52,2.52,2.52h6.72c1.39,0,2.52-1.13,2.52-2.52v-6.72c0-1.39-1.13-2.52-2.52-2.52h-6.72Z"/><path class="cls-2" d="M10.92,15.11h-6.72c-2.32,0-4.2-1.88-4.2-4.2v-6.72C0,1.88,1.88,0,4.2,0h6.72c2.32,0,4.2,1.88,4.2,4.2v6.72c0,2.31-1.88,4.2-4.2,4.2ZM4.2,1.68c-1.39,0-2.52,1.13-2.52,2.52v6.72c0,1.39,1.13,2.52,2.52,2.52h6.72c1.39,0,2.52-1.13,2.52-2.52v-6.72c0-1.39-1.13-2.52-2.52-2.52h-6.72Z"/><path class="cls-2" d="M10.92,85.64h-6.72c-2.32,0-4.2-1.88-4.2-4.2v-6.72c0-2.31,1.88-4.2,4.2-4.2h6.72c2.32,0,4.2,1.88,4.2,4.2v6.72c0,2.31-1.88,4.2-4.2,4.2ZM4.2,72.21c-1.39,0-2.52,1.13-2.52,2.52v6.72c0,1.39,1.13,2.52,2.52,2.52h6.72c1.39,0,2.52-1.13,2.52-2.52v-6.72c0-1.39-1.13-2.52-2.52-2.52h-6.72Z"/></g></svg>