<?xml version="1.0" encoding="UTF-8"?><svg id="Layer_2" xmlns="http://www.w3.org/2000/svg" viewBox="0 0 92.26 92.26"><defs><style>.cls-1{fill:#d7af7d;}.cls-1,.cls-2{stroke-width:0px;}.cls-2{fill:#a13941;}</style></defs><g id="Layer_1-2"><path class="cls-1" d="M49.53,92.26h-6.79c-1.73,0-3.13-1.41-3.13-3.13v-5.34c-2.24-.39-4.47-.99-6.64-1.79l-2.67,4.63c-.87,1.5-2.78,2.01-4.28,1.15l-5.88-3.39c-1.5-.86-2.01-2.78-1.15-4.28l2.68-4.64c-1.76-1.47-3.39-3.1-4.86-4.86l-4.64,2.68c-1.5.86-3.42.35-4.28-1.15l-3.39-5.88c-.42-.73-.53-1.57-.31-2.38.22-.81.74-1.48,1.46-1.9l4.63-2.67c-.8-2.17-1.4-4.4-1.79-6.64H3.13c-1.73,0-3.13-1.41-3.13-3.13v-6.79c0-1.73,1.41-3.13,3.13-3.13h5.34c.39-2.24.99-4.47,1.79-6.64l-4.63-2.67c-1.5-.86-2.01-2.78-1.15-4.28l3.39-5.88c.86-1.5,2.78-2.01,4.28-1.15l4.64,2.68c1.47-1.76,3.1-3.39,4.86-4.86l-2.68-4.64c-.86-1.5-.35-3.42,1.15-4.28l5.88-3.39c1.5-.87,3.42-.35,4.28,1.15l2.67,4.63c2.17-.8,4.4-1.4,6.64-1.79V3.13c0-1.73,1.41-3.13,3.13-3.13h6.79c1.73,0,3.13,1.41,3.13,3.13v5.34c2.24.39,4.47.99,6.64,1.79l2.68-4.63c.86-1.5,2.78-2.01,4.28-1.15l5.88,3.39c1.5.86,2.01,2.78,1.15,4.28l-2.68,4.64c1.76,1.47,3.39,3.1,4.86,4.86l4.64-2.68c1.49-.86,3.42-.35,4.28,1.15l3.39,5.88c.42.72.53,1.57.31,2.38-.22.81-.73,1.48-1.46,1.9l-4.63,2.68c.8,2.17,1.4,4.4,1.79,6.64h5.34c1.73,0,3.13,1.41,3.13,3.13v6.79c0,1.73-1.41,3.13-3.13,3.13h-5.34c-.39,2.24-.99,4.47-1.79,6.64l4.63,2.67c.72.42,1.24,1.09,1.46,1.9.22.81.11,1.65-.31,2.38l-3.39,5.88c-.86,1.5-2.78,2.01-4.28,1.15l-4.64-2.68c-1.47,1.76-3.1,3.39-4.86,4.86l2.68,4.64c.86,1.5.35,3.42-1.15,4.28l-5.88,3.39c-1.5.86-3.42.35-4.28-1.15l-2.68-4.63c-2.17.8-4.4,1.4-6.64,1.79v5.34c0,1.73-1.41,3.13-3.13,3.13ZM32.58,80.05c.11,0,.21.02.32.06,2.51.98,5.1,1.67,7.71,2.07.42.06.74.43.74.86v6.08c0,.77.62,1.39,1.39,1.39h6.79c.77,0,1.39-.62,1.39-1.39v-6.08c0-.43.31-.8.74-.86,2.61-.4,5.2-1.09,7.71-2.07.4-.15.86,0,1.07.38l3.04,5.27c.38.66,1.23.89,1.9.51l5.88-3.39c.66-.38.89-1.24.51-1.9l-3.05-5.28c-.22-.37-.13-.84.21-1.11,2.08-1.67,3.98-3.57,5.65-5.64.27-.34.74-.42,1.11-.21l5.28,3.05c.67.38,1.52.15,1.9-.51l3.39-5.88c.19-.32.23-.7.14-1.06-.1-.36-.33-.66-.65-.84l-5.27-3.05c-.37-.21-.53-.67-.38-1.07.98-2.51,1.68-5.11,2.07-7.71.06-.42.43-.74.86-.74h6.08c.77,0,1.39-.62,1.39-1.39v-6.79c0-.77-.62-1.39-1.39-1.39h-6.08c-.43,0-.8-.31-.86-.74-.4-2.6-1.09-5.2-2.07-7.71-.16-.4,0-.86.38-1.07l5.27-3.04c.32-.19.55-.49.65-.85.1-.36.05-.73-.14-1.06l-3.39-5.88c-.39-.67-1.24-.9-1.9-.51l-5.28,3.05c-.37.21-.84.13-1.11-.21-1.67-2.08-3.57-3.97-5.65-5.64-.33-.27-.42-.74-.21-1.11l3.05-5.28c.38-.66.15-1.52-.51-1.9l-5.88-3.39c-.67-.39-1.52-.16-1.9.51l-3.04,5.27c-.21.37-.67.53-1.07.38-2.51-.98-5.1-1.68-7.71-2.07-.42-.06-.74-.43-.74-.86V3.13c0-.77-.62-1.39-1.39-1.39h-6.79c-.77,0-1.39.62-1.39,1.39v6.08c0,.43-.31.8-.74.86-2.61.4-5.2,1.09-7.71,2.07-.4.15-.85,0-1.07-.38l-3.04-5.27c-.38-.66-1.24-.89-1.9-.51l-5.88,3.39c-.66.38-.89,1.24-.51,1.9l3.05,5.28c.22.37.13.84-.21,1.11-2.08,1.67-3.98,3.57-5.64,5.64-.27.33-.74.42-1.11.21l-5.28-3.05c-.66-.38-1.52-.16-1.9.51l-3.39,5.88c-.38.66-.15,1.52.51,1.9l5.27,3.04c.37.21.53.67.38,1.07-.98,2.51-1.67,5.1-2.07,7.71-.06.42-.43.74-.86.74H3.13c-.77,0-1.39.62-1.39,1.39v6.79c0,.77.62,1.39,1.39,1.39h6.08c.43,0,.8.31.86.74.4,2.61,1.09,5.2,2.07,7.71.16.4,0,.86-.38,1.07l-5.27,3.05c-.32.19-.55.49-.65.84-.1.36-.05.73.14,1.06l3.39,5.88c.38.67,1.24.89,1.9.51l5.28-3.05c.37-.21.85-.12,1.11.21,1.67,2.08,3.57,3.98,5.64,5.64.33.27.42.74.21,1.11l-3.05,5.28c-.38.67-.16,1.52.51,1.9l5.88,3.39c.67.39,1.52.16,1.9-.51l3.04-5.27c.16-.28.45-.44.75-.44Z"/><path class="cls-2" d="M56.96,79.11c-.48,0-.87-.39-.87-.87v-15.41c0-.48.39-.87.87-.87s.87.39.87.87v15.41c0,.48-.39.87-.87.87Z"/><path class="cls-2" d="M64.65,80.86c-.48,0-.87-.39-.87-.87v-17.15c0-.48.39-.87.87-.87s.87.39.87.87v17.15c0,.48-.39.87-.87.87Z"/><path class="cls-2" d="M49.28,80.86c-.48,0-.87-.39-.87-.87v-17.15c0-.48.39-.87.87-.87s.87.39.87.87v17.15c0,.48-.39.87-.87.87Z"/><path class="cls-2" d="M56.96,31.56c-3.56,0-6.46-2.9-6.46-6.46s2.9-6.46,6.46-6.46,6.46,2.9,6.46,6.46-2.9,6.46-6.46,6.46ZM56.96,20.38c-2.6,0-4.72,2.12-4.72,4.72s2.12,4.72,4.72,4.72,4.72-2.12,4.72-4.72-2.12-4.72-4.72-4.72Z"/><path class="cls-2" d="M64.65,63.7c-.48,0-.87-.39-.87-.87v-19.57c0-.48.39-.87.87-.87s.87.39.87.87v18.63c2.58-.42,4.55-2.66,4.55-5.35v-13.28c0-4.14-3.37-7.51-7.52-7.51h-11.18c-4.14,0-7.51,3.37-7.51,7.51v13.28c0,2.69,1.97,4.93,4.55,5.35v-18.63c0-.48.39-.87.87-.87s.87.39.87.87v19.57c0,.48-.39.87-.87.87-3.95,0-7.16-3.21-7.16-7.16v-13.28c0-5.1,4.15-9.26,9.26-9.26h11.18c5.1,0,9.26,4.15,9.26,9.26v13.28c0,3.95-3.21,7.16-7.16,7.16Z"/><path class="cls-2" d="M35.3,79.11c-.48,0-.87-.39-.87-.87v-12.96c0-.48.39-.87.87-.87s.87.39.87.87v12.96c0,.48-.39.87-.87.87Z"/><path class="cls-2" d="M27.61,80.86c-.48,0-.87-.39-.87-.87v-14.36c0-.48.39-.87.87-.87s.87.39.87.87v14.36c0,.48-.39.87-.87.87Z"/><path class="cls-2" d="M42.99,80.86c-.48,0-.87-.39-.87-.87v-17.15c0-.48.39-.87.87-.87s.87.39.87.87v17.15c0,.48-.39.87-.87.87Z"/><path class="cls-2" d="M35.3,35.75c-3.56,0-6.46-2.9-6.46-6.46s2.9-6.46,6.46-6.46,6.46,2.9,6.46,6.46-2.9,6.46-6.46,6.46ZM35.3,24.57c-2.6,0-4.72,2.12-4.72,4.72s2.12,4.72,4.72,4.72,4.72-2.12,4.72-4.72-2.12-4.72-4.72-4.72Z"/><path class="cls-2" d="M27.61,66.5c-3.95,0-7.16-3.21-7.16-7.16v-11.88c0-5.1,4.15-9.26,9.26-9.26h11.18c.48,0,.87.39.87.87s-.39.87-.87.87h-11.18c-4.14,0-7.51,3.37-7.51,7.51v11.88c0,2.69,1.97,4.93,4.55,5.35v-17.23c0-.48.39-.87.87-.87s.87.39.87.87v18.17c0,.48-.39.87-.87.87Z"/></g></svg>